<svg width="126" height="122" viewBox="0 0 126 122" fill="none" xmlns="http://www.w3.org/2000/svg">
<path d="M4.49731 29.5208V77.8955H122.072V36.5496L117.873 34.1259V24.8403L113.672 22.4166L106.326 26.6581V17.9731L101.077 14.9408L94.735 18.6087V29.1115L89.5294 26.1141V20.9678L84.2753 17.9381L71.6774 25.2093V27.0594L67.0993 29.6878L63.329 27.4526L59.0902 29.9113V20.238L52.7859 16.5997L48.5874 19.0234V28.1016L44.389 25.6779L36.4931 30.2371V24.7972L31.7911 22.0773L26.5424 25.1069V29.4481L24.4418 30.66V26.4912L19.1931 23.4588V17.3995L14.9947 14.9758L10.7963 17.3995V29.5181L7.64546 27.7003L4.49731 29.5208Z" fill="#F0F0F0"/>
<path d="M18.4526 59.0578C-6.15086 73.2635 -6.15086 96.2942 18.4526 110.495C43.056 124.695 82.9477 124.698 107.548 110.495C132.149 96.2915 132.152 73.2581 107.548 59.0578C82.945 44.8576 43.0533 44.8549 18.4526 59.0578Z" fill="#FAFAFA"/>
<path d="M23.8549 94.6542L25.8073 92.8445C25.8073 92.8445 25.8854 86.9871 24.2184 82.1101C21.8755 75.251 16.6511 73.6567 15.0299 74.6612C13.4087 75.6657 13.3629 77.8147 17.2193 81.3399C19.4976 83.4189 22.775 88.0859 23.8549 94.6542Z" fill="#90CAF9"/>
<g opacity="0.65">
<path d="M23.8549 94.6542L25.8073 92.8445C25.8073 92.8445 25.8854 86.9871 24.2184 82.1101C21.8755 75.251 16.6511 73.6567 15.0299 74.6612C13.4087 75.6657 13.3629 77.8147 17.2193 81.3399C19.4976 83.4189 22.775 88.0859 23.8549 94.6542Z" fill="white"/>
</g>
<path d="M24.1673 91.6919H24.1458C24.1031 91.6926 24.0618 91.6767 24.0307 91.6476C23.9995 91.6184 23.9809 91.5783 23.9788 91.5357C23.7418 84.7762 19.8262 78.0059 16.3333 75.6118C16.2985 75.5874 16.2748 75.5502 16.2672 75.5084C16.2597 75.4665 16.2689 75.4234 16.2929 75.3883C16.3174 75.3535 16.3546 75.3298 16.3964 75.3222C16.4382 75.3147 16.4814 75.3239 16.5164 75.3479C20.0712 77.7716 24.0569 84.6658 24.2993 91.5249C24.3012 91.564 24.2889 91.6025 24.2647 91.6332C24.2404 91.6639 24.2058 91.6847 24.1673 91.6919Z" fill="white"/>
<path d="M18.9427 99.1838C18.6464 99.4316 17.58 98.8715 17.2892 98.7422C16.7901 98.5142 16.3573 98.163 16.0315 97.7215C15.6694 97.22 15.4701 96.6193 15.4606 96.0007C15.4598 95.6729 15.4805 95.3455 15.5225 95.0204C15.5549 94.7 15.5899 94.3795 15.6249 94.059C15.6807 93.7454 15.6715 93.4237 15.5979 93.1138C15.4094 92.5025 14.79 92.1605 14.2083 91.8723C13.5755 91.5518 12.8995 91.0994 12.7703 90.3481C12.7088 89.7561 12.8452 89.1604 13.1581 88.6541C13.4274 88.1371 13.7963 87.6604 14.0387 87.1218C14.2357 86.7416 14.2975 86.3057 14.2137 85.8857C14.1339 85.6334 14.0038 85.3998 13.8313 85.199C13.4785 84.7546 13.0503 84.3668 12.7757 83.8713C12.501 83.3758 12.4121 82.7187 12.7568 82.269C13.0423 81.9 13.5351 81.7708 13.9956 81.7304C14.4324 81.7081 14.8688 81.7806 15.2748 81.9431C16.5863 82.3982 17.5154 83.6963 18.8727 83.9871C19.4086 84.056 19.9482 84.092 20.4885 84.0949C21.0271 84.1406 21.5872 84.3103 21.905 84.7412C22.5325 85.5895 21.8673 86.8956 22.3682 87.8166C22.8099 88.638 23.7147 88.8265 24.3314 89.5294C24.5859 89.8432 24.734 90.2299 24.7542 90.6335C24.828 91.3091 24.7788 91.9925 24.6088 92.6506C24.4024 93.3327 24.1551 94.0018 23.8682 94.6542C23.8682 94.6542 18.9885 99.1461 18.9427 99.1838Z" fill="#90CAF9"/>
<g opacity="0.3">
<path d="M18.9427 99.1838C18.6464 99.4316 17.58 98.8715 17.2892 98.7422C16.7901 98.5142 16.3573 98.163 16.0315 97.7215C15.6694 97.22 15.4701 96.6193 15.4606 96.0007C15.4598 95.6729 15.4805 95.3455 15.5225 95.0204C15.5549 94.7 15.5899 94.3795 15.6249 94.059C15.6807 93.7454 15.6715 93.4237 15.5979 93.1138C15.4094 92.5025 14.79 92.1605 14.2083 91.8723C13.5755 91.5518 12.8995 91.0994 12.7703 90.3481C12.7088 89.7561 12.8452 89.1604 13.1581 88.6541C13.4274 88.1371 13.7963 87.6604 14.0387 87.1218C14.2357 86.7416 14.2975 86.3057 14.2137 85.8857C14.1339 85.6334 14.0038 85.3998 13.8313 85.199C13.4785 84.7546 13.0503 84.3668 12.7757 83.8713C12.501 83.3758 12.4121 82.7187 12.7568 82.269C13.0423 81.9 13.5351 81.7708 13.9956 81.7304C14.4324 81.7081 14.8688 81.7806 15.2748 81.9431C16.5863 82.3982 17.5154 83.6963 18.8727 83.9871C19.4086 84.056 19.9482 84.092 20.4885 84.0949C21.0271 84.1406 21.5872 84.3103 21.905 84.7412C22.5325 85.5895 21.8673 86.8956 22.3682 87.8166C22.8099 88.638 23.7147 88.8265 24.3314 89.5294C24.5859 89.8432 24.734 90.2299 24.7542 90.6335C24.828 91.3091 24.7788 91.9925 24.6088 92.6506C24.4024 93.3327 24.1551 94.0018 23.8682 94.6542C23.8682 94.6542 18.9885 99.1461 18.9427 99.1838Z" fill="white"/>
</g>
<path d="M21.7972 96.7521C21.7572 96.7575 21.7168 96.7469 21.6845 96.7228C21.6523 96.6986 21.6308 96.6627 21.6248 96.6228C20.8412 90.6686 16.9201 84.6308 14.5637 83.0904C14.5302 83.0683 14.5068 83.0337 14.4987 82.9943C14.4906 82.9549 14.4985 82.9139 14.5207 82.8803C14.5428 82.8468 14.5774 82.8234 14.6168 82.8153C14.6562 82.8072 14.6971 82.8151 14.7307 82.8372C17.1329 84.41 21.1293 90.5474 21.9265 96.5716C21.9307 96.5921 21.9307 96.6132 21.9264 96.6336C21.9221 96.654 21.9136 96.6733 21.9014 96.6902C21.8893 96.7072 21.8737 96.7214 21.8558 96.7321C21.8379 96.7427 21.8179 96.7495 21.7972 96.7521Z" fill="white"/>
<path d="M19.5999 89.6963C19.5848 89.6991 19.5693 89.6991 19.5541 89.6963C18.0869 89.5553 16.6087 89.5742 15.1456 89.7529C15.126 89.7555 15.1061 89.7543 15.0869 89.7493C15.0678 89.7442 15.0498 89.7354 15.034 89.7234C15.0183 89.7114 15.0051 89.6964 14.9951 89.6793C14.9851 89.6622 14.9786 89.6433 14.976 89.6236C14.9726 89.6037 14.9733 89.5833 14.9782 89.5636C14.9831 89.544 14.9921 89.5256 15.0045 89.5097C15.0169 89.4937 15.0325 89.4805 15.0504 89.4709C15.0682 89.4613 15.0878 89.4556 15.1079 89.454C16.597 89.2721 18.1014 89.2531 19.5945 89.3974C19.6141 89.4001 19.6331 89.4066 19.6502 89.4165C19.6673 89.4265 19.6823 89.4397 19.6943 89.4555C19.7063 89.4712 19.7151 89.4892 19.7201 89.5083C19.7252 89.5275 19.7264 89.5474 19.7238 89.5671C19.7201 89.5992 19.706 89.6292 19.6836 89.6525C19.6612 89.6759 19.6318 89.6913 19.5999 89.6963Z" fill="white"/>
<path d="M100.143 95.7314C100.143 95.7314 99.1302 87.6039 102.348 79.8426C104.147 75.4988 107.128 73.584 108.914 73.4709C110.912 73.3443 112.838 75.3156 110.944 78.146C109.143 80.839 105.855 81.8139 103.633 88.945C102.171 93.647 102.222 96.8005 102.222 96.8005L100.143 95.7314Z" fill="#90CAF9"/>
<path opacity="0.5" d="M100.143 95.7314C100.143 95.7314 99.1302 87.6039 102.348 79.8426C104.147 75.4988 107.128 73.584 108.914 73.4709C110.912 73.3443 112.838 75.3156 110.944 78.146C109.143 80.839 105.855 81.8139 103.633 88.945C102.171 93.647 102.222 96.8005 102.222 96.8005L100.143 95.7314Z" fill="white"/>
<path d="M101.468 93.7359C101.484 93.7352 101.5 93.7312 101.515 93.7242C101.53 93.7171 101.543 93.7071 101.554 93.6947C101.565 93.6824 101.573 93.668 101.578 93.6524C101.583 93.6368 101.585 93.6203 101.584 93.6039C101.12 84.7385 105.704 77.5508 109.105 75.2752C109.132 75.2566 109.151 75.2283 109.157 75.1961C109.164 75.164 109.158 75.1305 109.14 75.1029C109.121 75.0756 109.092 75.0568 109.06 75.0503C109.027 75.0438 108.993 75.0501 108.965 75.0679C105.515 77.3758 100.867 84.655 101.336 93.6174C101.338 93.6505 101.353 93.6815 101.378 93.7036C101.402 93.7258 101.435 93.7374 101.468 93.7359Z" fill="white"/>
<path d="M102.222 96.7817C102.607 94.7646 103.824 92.7422 106.331 90.6335C108.839 88.5249 112.256 86.6667 111.852 84.6792C111.448 82.6918 108.822 82.9692 106.935 83.9548C105.047 84.9405 100.711 89.0177 101.182 96.2512L102.222 96.7817Z" fill="#90CAF9"/>
<path opacity="0.65" d="M102.222 96.7817C102.607 94.7646 103.824 92.7422 106.331 90.6335C108.839 88.5249 112.256 86.6667 111.852 84.6792C111.448 82.6918 108.822 82.9692 106.935 83.9548C105.047 84.9405 100.711 89.0177 101.182 96.2512L102.222 96.7817Z" fill="white"/>
<path d="M101.826 94.4872C101.855 94.4861 101.882 94.4746 101.904 94.4549C101.925 94.4351 101.938 94.4083 101.942 94.3795C102.48 90.1057 107.699 84.9782 110.021 84.2672C110.036 84.2629 110.051 84.2555 110.064 84.2453C110.077 84.2352 110.087 84.2226 110.095 84.2082C110.103 84.1939 110.108 84.1781 110.109 84.1619C110.111 84.1457 110.109 84.1293 110.104 84.1137C110.1 84.0977 110.092 84.0827 110.082 84.0697C110.072 84.0566 110.059 84.0459 110.044 84.0381C110.029 84.0302 110.013 84.0255 109.997 84.0241C109.98 84.0228 109.964 84.0249 109.948 84.0302C107.524 84.7735 102.267 89.9064 101.694 94.3472C101.692 94.3635 101.693 94.3801 101.697 94.3959C101.701 94.4118 101.708 94.4267 101.718 94.4398C101.728 94.4528 101.741 94.4637 101.755 94.4719C101.769 94.48 101.785 94.4852 101.802 94.4872H101.826Z" fill="white"/>
<path d="M36.6251 111.62C46.6987 111.62 54.8649 106.906 54.8649 101.09C54.8649 95.2751 46.6987 90.5608 36.6251 90.5608C26.5515 90.5608 18.3853 95.2751 18.3853 101.09C18.3853 106.906 26.5515 111.62 36.6251 111.62Z" fill="#E0E0E0"/>
<path d="M88.8966 111.483C100.047 111.483 109.086 106.265 109.086 99.8275C109.086 93.3904 100.047 88.1721 88.8966 88.1721C77.7462 88.1721 68.707 93.3904 68.707 99.8275C68.707 106.265 77.7462 111.483 88.8966 111.483Z" fill="#E0E0E0"/>
<path d="M75.7064 47.1655C75.8153 47.1474 75.9273 47.1659 76.0247 47.218C76.1221 47.2701 76.1995 47.353 76.245 47.4537C76.3258 47.4025 76.3769 47.3056 76.4685 47.284C76.5601 47.2625 76.6785 47.3594 76.7378 47.4564C76.9744 47.8381 77.0841 48.285 77.0512 48.733C77.0183 49.1809 76.8445 49.607 76.5547 49.9501C76.5208 49.9934 76.4775 50.0284 76.4281 50.0524C76.3663 50.0686 76.3014 50.0686 76.2396 50.0524C75.9056 50.0146 75.5774 49.9368 75.262 49.8208C75.0989 49.7804 74.9474 49.703 74.8189 49.5947C74.6905 49.4864 74.5887 49.35 74.5214 49.196C74.479 48.9549 74.509 48.7065 74.6076 48.4824C74.6894 48.1722 74.8499 47.8883 75.0735 47.6583C75.2297 47.5264 75.4909 47.2032 75.7064 47.1655Z" fill="#9A4A4D"/>
<path d="M73.1828 40.3629C70.8749 37.064 70.9288 36.4096 71.8363 34.6807C72.3345 33.7408 74.6721 30.4365 77.0204 27.1402C79.3068 23.9248 81.4531 23.6393 83.1389 23.37L82.331 30.6411L77.6613 37.1044C77.6613 37.1044 80.2062 42.4096 80.6641 43.9016C81.3238 46.056 80.796 48.7248 79.0482 49.9636C77.3005 51.2024 76.8723 51.3424 75.5473 50.9627C74.2223 50.583 73.9019 50.4241 73.813 49.9716C73.5922 48.8352 73.4279 48.6817 74.155 48.0865C74.5698 47.7526 74.9252 47.416 75.1487 47.2786C75.1717 47.2657 75.1971 47.2575 75.2234 47.2547C75.2496 47.2519 75.2762 47.2545 75.3014 47.2623C75.3266 47.2701 75.35 47.283 75.37 47.3002C75.3901 47.3173 75.4064 47.3384 75.418 47.3621C75.7412 48.0219 74.7852 48.8783 74.7852 48.8783C75.2332 49.0015 75.6632 49.1825 76.0644 49.4169C76.3337 48.2589 76.1129 47.5722 76.3929 46.9797C76.5707 46.6027 76.8938 45.9671 76.6622 45.6332C76.1586 44.8899 74.6209 42.4231 73.1828 40.3629Z" fill="#B16668"/>
<path d="M77.6562 37.1071C76.7055 37.853 75.3348 37.7695 74.6938 37.5676C75.1769 37.8477 75.7283 37.9882 76.2865 37.9734C76.8447 37.9587 77.3878 37.7893 77.8555 37.4841" fill="#9A4A4D"/>
<path d="M83.3489 23.2057C81.2349 23.5342 79.2717 23.8789 77.5805 26.1465C76.4117 27.7111 72.0194 33.87 71.4781 35.1088C70.9368 36.3476 70.9691 37.0694 72.1271 38.8791C73.3417 40.7803 74.1549 41.8845 74.1549 41.8845C74.1549 41.8845 75.3857 40.7426 79.1693 40.3387L77.7851 37.1555L83.3489 29.4831V23.2057Z" fill="#455A64"/>
<path d="M77.7854 37.1609C77.2145 37.8988 75.1086 37.9473 74.2549 37.713C75.3321 38.6017 77.2764 38.4078 77.9874 37.6349L77.7854 37.1609Z" fill="#37474F"/>
<path d="M80.1659 87.7223C80.3732 90.3157 80.5079 92.2412 80.4702 92.6883C80.3328 94.3041 79.4926 95.3005 78.8544 95.9657C77.5079 97.3553 76.5357 97.9073 74.8499 99.1057C75.0734 99.7467 78.5447 99.8113 79.5411 99.3508C80.992 98.6661 82.3955 97.8852 83.7422 97.0133C85.1264 96.0384 85.7431 94.945 85.8051 93.4073C85.8051 93.2161 85.7323 92.2466 85.7216 92.1604C85.7404 91.8023 85.8939 90.0599 86.1767 87.6604L80.1659 87.7223Z" fill="#B16668"/>
<path d="M100.576 92.8526L100.708 86.7421L94.1616 87.3588L95.5539 93.2081C95.5539 93.2081 96.2406 101.481 96.5638 102.825C97.6087 107.163 101.128 105.413 101.546 103.113C101.826 101.583 100.576 92.8526 100.576 92.8526Z" fill="#B16668"/>
<path d="M71.4083 101.158C71.3141 101.158 71.2091 102.189 71.7261 102.609C72.3213 103.094 74.0529 103.867 76.3043 103.501C78.5556 103.135 79.7459 102.397 80.6131 101.616C81.4802 100.835 82.719 99.7305 83.7316 99.4612C84.6715 99.2189 86.1957 98.6345 86.4893 98.3302C86.7828 98.0259 86.6993 96.7144 86.6993 96.7144L71.4083 101.158Z" fill="#263238"/>
<path d="M85.7136 92.1605C85.8034 92.2022 85.8833 92.2624 85.9483 92.3371C86.0132 92.4118 86.0617 92.4994 86.0906 92.594C86.1714 92.9522 86.1876 93.4019 86.36 93.9998C86.5916 94.8077 86.7828 96.4935 86.6804 97.1668C86.5781 97.84 84.5395 98.4783 83.5646 98.8876C82.5897 99.297 81.429 100.134 80.4326 101.015C79.4362 101.896 77.201 102.879 75.7333 102.946C73.4927 103.051 72.0223 102.488 71.5483 101.694C70.9613 100.711 71.2036 99.6632 73.7432 98.3813C74.2225 98.139 75.8976 97.0645 76.4766 96.6767C77.0848 96.2694 77.6577 95.8118 78.1893 95.3086C78.4578 95.0532 78.7122 94.7835 78.9515 94.5007C79.2011 94.2468 79.4116 93.9573 79.5762 93.6416C79.6032 93.5743 79.622 93.4935 79.6463 93.4208C79.7114 93.2212 79.761 93.0168 79.7944 92.8095C79.8294 92.594 79.8455 92.2709 80.0448 92.1416C80.2441 92.0124 83.465 92.5375 83.7019 92.8876C83.8611 93.1722 83.9437 93.4933 83.9416 93.8194C83.9551 93.9702 83.9551 94.121 83.9605 94.2718C83.9605 94.3364 83.9416 94.4549 84.0305 94.4253C84.1194 94.3957 84.2028 94.156 84.2325 94.0887C84.2998 93.919 84.3402 93.7359 84.4129 93.5662C84.474 93.3616 84.5767 93.1718 84.7145 93.0088C85.1319 92.6317 85.5494 92.691 85.6705 92.5617C85.6678 92.5644 85.7029 92.2897 85.7136 92.1605Z" fill="#37474F"/>
<path d="M73.6004 98.4514C76.8536 98.5725 77.8446 101.144 78.0224 102.386C77.2923 102.691 76.519 102.88 75.7306 102.946C73.49 103.051 71.9254 102.491 71.4514 101.696C70.8993 100.77 71.3275 99.402 73.6004 98.4514Z" fill="#FAFAFA"/>
<path d="M78.3725 98.9226C78.409 98.9196 78.4438 98.9055 78.4721 98.8822C78.5036 98.8538 78.5227 98.8142 78.5252 98.7719C78.5277 98.7296 78.5135 98.688 78.4856 98.656C78.017 98.1174 76.517 96.9702 75.3402 97.1372C75.3195 97.1402 75.2996 97.1472 75.2816 97.1579C75.2637 97.1686 75.248 97.1827 75.2355 97.1995C75.223 97.2163 75.2139 97.2353 75.2087 97.2556C75.2036 97.2758 75.2025 97.2969 75.2055 97.3176C75.2085 97.3383 75.2156 97.3582 75.2263 97.3761C75.237 97.3941 75.2511 97.4098 75.2678 97.4223C75.2846 97.4348 75.3037 97.4439 75.3239 97.449C75.3442 97.4542 75.3653 97.4553 75.3859 97.4523C76.482 97.2988 77.8743 98.4379 78.2459 98.8661C78.2617 98.884 78.2812 98.8984 78.3031 98.9081C78.3249 98.9179 78.3486 98.9228 78.3725 98.9226Z" fill="#F5F5F5"/>
<path d="M79.7431 98.0582C79.7797 98.0575 79.8149 98.0442 79.8428 98.0205C79.8746 97.9925 79.8942 97.953 79.8972 97.9107C79.9002 97.8684 79.8865 97.8266 79.8589 97.7943C79.3877 97.2557 77.8877 96.1058 76.7135 96.2727C76.6928 96.2757 76.6729 96.2827 76.6549 96.2934C76.6369 96.3041 76.6212 96.3182 76.6087 96.335C76.5962 96.3517 76.5871 96.3708 76.582 96.3911C76.5769 96.4114 76.5758 96.4325 76.5788 96.4532C76.5811 96.4739 76.5876 96.494 76.5979 96.5121C76.6082 96.5303 76.6221 96.5461 76.6387 96.5587C76.6554 96.5713 76.6744 96.5804 76.6947 96.5854C76.7149 96.5904 76.736 96.5912 76.7566 96.5878C77.8553 96.4343 79.2476 97.5735 79.6193 98.0043C79.6343 98.0223 79.6533 98.0366 79.6748 98.0459C79.6963 98.0553 79.7197 98.0595 79.7431 98.0582Z" fill="#F5F5F5"/>
<path d="M81.0089 97.0779C81.0458 97.0762 81.0809 97.062 81.1086 97.0375C81.1402 97.01 81.1597 96.971 81.1628 96.9291C81.1658 96.8872 81.1521 96.8459 81.1247 96.814C80.6534 96.2754 79.148 95.1255 77.9793 95.2925C77.9375 95.2982 77.8997 95.3203 77.8742 95.3538C77.8487 95.3874 77.8375 95.4298 77.8433 95.4716C77.849 95.5133 77.8711 95.5511 77.9046 95.5766C77.9382 95.6022 77.9806 95.6133 78.0224 95.6076C79.1184 95.4541 80.5134 96.5932 80.885 97.0241C80.9009 97.0411 80.9201 97.0546 80.9414 97.0639C80.9627 97.0731 80.9857 97.0779 81.0089 97.0779Z" fill="#F5F5F5"/>
<path d="M82.2504 96.1084C82.2858 96.106 82.3196 96.0928 82.3473 96.0707C82.3796 96.0431 82.3997 96.0038 82.4032 95.9615C82.4067 95.9192 82.3934 95.8771 82.3662 95.8445C81.7172 95.077 80.1229 94.1506 78.9487 94.3176C78.907 94.3233 78.8692 94.3454 78.8437 94.3789C78.8182 94.4125 78.807 94.4549 78.8127 94.4967C78.8185 94.5384 78.8405 94.5762 78.8741 94.6017C78.9077 94.6273 78.9501 94.6384 78.9918 94.6327C80.0502 94.4818 81.5502 95.3705 82.1238 96.0519C82.1395 96.07 82.159 96.0844 82.1808 96.0942C82.2027 96.1039 82.2264 96.1088 82.2504 96.1084Z" fill="#F5F5F5"/>
<path d="M96.0601 103.754C96.1597 105.262 96.3913 106.258 96.9111 107.136C97.4308 108.014 98.3895 108.278 99.3563 108.009C100.323 107.74 101.562 107.031 101.829 105.731C102.095 104.43 102.246 103.533 102.012 102.138L96.0601 103.754Z" fill="#263238"/>
<path d="M100.576 92.8526C100.978 92.8041 100.891 94.8777 101.142 96.8921C101.411 99.0465 101.718 99.9164 101.95 101.696C102.219 103.727 101.912 104.64 101.247 105.876C100.582 107.112 98.1958 108.348 96.9947 106.6C96.0171 105.176 95.9606 103.584 96.0279 101.554C96.0979 99.4532 95.8878 98.0528 95.7101 96.4585C95.527 94.8212 95.1984 93.3885 95.5458 93.2134C95.635 93.7463 95.7528 94.274 95.8986 94.7942C95.9417 94.9074 96.0979 95.1874 96.1679 94.7619C96.1841 94.6354 96.1437 94.3445 96.1679 94.2233C96.1709 94.1146 96.2067 94.0094 96.2706 93.9214C96.3346 93.8334 96.4236 93.7669 96.5261 93.7305C97.0515 93.4594 97.6342 93.3181 98.2254 93.3185C99.0091 93.305 99.685 93.27 100.111 93.4989C100.38 93.6362 100.38 93.9002 100.401 94.156C100.439 94.463 100.444 94.6515 100.517 94.5896C100.652 94.4738 100.576 92.8526 100.576 92.8526Z" fill="#37474F"/>
<path d="M102.079 102.884C102.166 103.966 101.916 105.049 101.363 105.984C100.698 107.22 98.1178 108.461 96.9194 106.714C96.3215 105.844 96.1546 104.81 96.063 103.751C96.7578 102.389 100.951 101.74 102.079 102.884Z" fill="#FAFAFA"/>
<path d="M96.9138 101.532L96.9622 101.516C96.9784 101.516 98.8204 100.681 100.627 101.099C100.647 101.103 100.667 101.103 100.686 101.099C100.706 101.095 100.724 101.087 100.741 101.076C100.757 101.065 100.772 101.051 100.783 101.035C100.794 101.018 100.801 101 100.805 100.98C100.814 100.941 100.806 100.899 100.785 100.865C100.764 100.83 100.731 100.805 100.692 100.794C98.78 100.353 96.9003 101.201 96.8303 101.236C96.795 101.256 96.7686 101.289 96.7561 101.328C96.7437 101.367 96.7461 101.409 96.763 101.446C96.7758 101.474 96.7973 101.498 96.8244 101.514C96.8515 101.529 96.8828 101.536 96.9138 101.532Z" fill="#F5F5F5"/>
<path d="M100.522 99.5851C100.552 99.5809 100.579 99.5685 100.601 99.5495C100.624 99.5304 100.64 99.5054 100.649 99.4774C100.661 99.4384 100.658 99.3963 100.64 99.3597C100.622 99.3231 100.59 99.2948 100.552 99.2808C98.7531 98.6614 96.7818 99.6444 96.6956 99.6874C96.6601 99.7083 96.6341 99.7422 96.623 99.7818C96.612 99.8215 96.6168 99.864 96.6364 99.9002C96.6452 99.9179 96.6575 99.9337 96.6726 99.9465C96.6876 99.9593 96.7051 99.9688 96.7241 99.9746C96.743 99.9804 96.7628 99.9823 96.7825 99.9802C96.8022 99.978 96.8212 99.9719 96.8384 99.9621C96.8545 99.9621 98.7854 99.0007 100.46 99.577C100.48 99.585 100.501 99.5878 100.522 99.5851Z" fill="#F5F5F5"/>
<path d="M100.434 98.1551C100.462 98.1518 100.489 98.1404 100.511 98.1222C100.533 98.1041 100.549 98.0799 100.557 98.0528C100.571 98.0142 100.57 97.9717 100.553 97.9344C100.535 97.8971 100.504 97.868 100.466 97.8535C98.4865 97.1318 96.6068 98.2036 96.5368 98.2494C96.5028 98.2724 96.479 98.3077 96.4705 98.3479C96.462 98.388 96.4693 98.4299 96.491 98.4648C96.5007 98.4817 96.5137 98.4964 96.5293 98.5081C96.5448 98.5197 96.5626 98.5281 96.5815 98.5326C96.6005 98.5372 96.6201 98.5378 96.6393 98.5345C96.6584 98.5311 96.6767 98.5239 96.693 98.5133C96.7091 98.5133 98.5269 97.4792 100.369 98.147C100.39 98.155 100.412 98.1577 100.434 98.1551Z" fill="#F5F5F5"/>
<path d="M100.334 96.7494C100.362 96.7462 100.389 96.7348 100.41 96.7166C100.432 96.6984 100.447 96.6742 100.455 96.647C100.469 96.6088 100.468 96.5665 100.451 96.5293C100.435 96.4921 100.404 96.4628 100.366 96.4477C98.5109 95.7422 96.4884 96.8409 96.413 96.8867C96.3782 96.9089 96.3532 96.9436 96.3432 96.9837C96.3332 97.0238 96.3389 97.0662 96.3591 97.1021C96.3686 97.1195 96.3816 97.1348 96.3972 97.1471C96.4128 97.1593 96.4307 97.1682 96.4499 97.1732C96.469 97.1783 96.489 97.1794 96.5086 97.1764C96.5282 97.1734 96.547 97.1665 96.5638 97.156C96.58 97.156 98.5432 96.0788 100.267 96.7413C100.288 96.7494 100.311 96.7522 100.334 96.7494Z" fill="#EBEBEB"/>
<path d="M98.2793 43.7561C98.6913 47.8172 98.6078 48.819 98.8933 57.8406C99.1626 66.5929 99.1626 67.8748 99.2191 68.9278C99.3322 71.3515 100.714 72.3156 100.835 78.0167C100.937 83.2439 100.754 89.6452 100.754 89.6452C100.754 89.6452 99.8008 90.5258 97.8161 90.6335C96.7388 90.6996 95.6627 90.4862 94.6922 90.0141C94.6922 90.0141 92.0368 78.2995 91.1912 74.6989C90.2083 70.4601 88.614 63.0812 88.614 63.0812C88.614 63.0812 87.8061 69.6656 87.5126 71.785C87.2271 73.8075 87.9192 74.5966 87.4856 79.1289C87.1382 82.7403 86.1095 88.778 86.1095 88.778C85.1957 89.2557 84.1783 89.5008 83.1472 89.4917C80.877 89.3866 80.1606 88.6083 80.1606 88.6083C80.1606 88.6083 78.8895 75.1029 78.8895 69.9349C78.876 64.4654 79.0942 51.7032 79.1938 43.7588L98.2793 43.7561Z" fill="#455A64"/>
<path d="M88.6193 63.0839L87.4559 53.9896C87.4559 53.9896 84.4936 53.0955 82.665 51.0273C82.7539 52.53 85.3338 54.5444 86.5645 54.8864L87.938 62.952L87.5071 71.7878L88.6193 63.0839Z" fill="#37474F"/>
<path d="M92.7183 44.9707C93.1472 45.74 93.4938 46.5524 93.7524 47.3944C94.0181 48.228 94.2366 49.0758 94.4068 49.9339C94.5737 50.793 94.7057 51.6575 94.7865 52.5273C94.8821 53.3964 94.9091 54.2716 94.8673 55.1449C94.6895 54.2886 94.5253 53.4376 94.3637 52.5866C94.2021 51.7356 94.0432 50.8873 93.8682 50.0417C93.6931 49.1961 93.5262 48.3531 93.3296 47.5102C93.133 46.6673 92.9499 45.8163 92.7183 44.9707Z" fill="#37474F"/>
<path d="M93.8438 45.3262C94.2629 45.7457 94.6416 46.2037 94.9748 46.6942C95.3114 47.1816 95.6138 47.6918 95.8797 48.2212C96.1444 48.7525 96.3677 49.3035 96.5475 49.8693C96.7334 50.4352 96.8466 51.0226 96.8842 51.6171L96.149 50.0255C95.8985 49.503 95.6508 48.9833 95.3869 48.4662C95.1229 47.9492 94.8671 47.4348 94.6086 46.9151C94.35 46.3953 94.0834 45.8729 93.8438 45.3262Z" fill="#37474F"/>
<path d="M92.0312 55.3684C92.3006 58.0911 92.551 60.8137 92.7961 63.5336C93.0411 66.2536 93.604 69.2671 93.9945 71.9601C94.385 74.6531 96.3266 85.2448 96.6417 87.9593C96.1031 85.2663 93.8814 74.7501 93.4532 72.0409C93.025 69.3317 92.5375 66.2994 92.376 63.5687C92.2144 60.8379 92.0986 58.1045 92.0312 55.3684Z" fill="#37474F"/>
<path d="M81.8517 55.2526L81.5824 62.3891C81.542 63.5767 81.4935 64.7671 81.4666 65.9547C81.4397 67.1423 81.3966 68.3326 81.4424 69.5041C81.4882 70.6755 81.8248 82.0589 81.7117 84.445C81.3724 81.7977 81.0223 71.9224 80.8876 69.5256C80.8391 67.1181 80.99 64.7455 81.1569 62.3649C81.3239 59.9843 81.542 57.6144 81.8517 55.2526Z" fill="#37474F"/>
<path d="M86.3814 87.383L86.0447 89.8849C86.0447 89.8849 84.8006 90.4989 82.7189 90.3642C80.6371 90.2296 80.1578 89.5186 80.1578 89.5186L79.9531 87.1487C79.9531 87.1487 80.7368 87.7601 82.6461 87.8435C85.1022 87.9593 86.3814 87.383 86.3814 87.383Z" fill="#37474F"/>
<path d="M100.862 87.892L100.784 90.3885C100.784 90.3885 99.798 91.1964 97.7243 91.3903C95.6507 91.5842 94.7324 90.8517 94.7324 90.8517L94.3042 88.6461C94.3042 88.6461 95.3437 89.0877 97.2423 88.9154C98.4966 88.7745 99.7193 88.4288 100.862 87.892Z" fill="#37474F"/>
<path d="M97.3904 23.6931C97.3904 23.6931 99.3967 26.1546 99.4317 31.9472C99.4478 34.6645 98.5807 37.573 98.5834 40.7426C98.5834 43.7669 98.8527 47.7714 98.8527 47.7714C95.7261 50.3783 82.1559 51.4582 79.0132 47.4644C79.0132 47.4644 79.0267 42.6735 79.0778 37.546C79.1182 33.7193 79.4441 30.7623 79.8507 28.9499C80.5051 26.0226 82.5195 23.8143 83.3516 23.2057C86.0312 22.5378 88.5411 22.2174 90.4747 22.3547C93.849 22.5917 95.8553 23.308 97.3904 23.6931Z" fill="#F5F5F5"/>
<path d="M89.5536 22.5998C89.866 22.5998 90.1677 22.5998 90.4531 22.6294C92.4656 22.7727 94.4566 23.1339 96.3912 23.7066C96.6821 23.7874 96.9621 23.8655 97.2261 23.9328C97.5331 24.3664 99.1246 26.8547 99.1543 31.9419C99.1238 33.3028 98.9906 34.6594 98.7557 36.0002C98.4902 37.5661 98.3399 39.1494 98.306 40.7372C98.306 43.4141 98.516 46.8935 98.5618 47.6395C96.919 48.889 92.524 49.8181 88.2071 49.8181C83.831 49.8181 80.5886 48.924 79.2852 47.3621C79.2852 46.6511 79.304 42.2103 79.3498 37.5433C79.3848 34.134 79.6622 31.0208 80.1146 29.0038C80.7313 26.2515 82.6083 24.1079 83.4674 23.4561C85.4556 22.9323 87.4982 22.6431 89.5536 22.5944M89.5536 22.3251C87.4616 22.3745 85.3826 22.6701 83.3597 23.2057C82.5249 23.8143 80.5105 26.0226 79.8588 28.9499C79.4521 30.7623 79.1263 33.7192 79.0859 37.546C79.0347 42.6628 79.0212 47.4644 79.0212 47.4644C80.4997 49.3495 84.2942 50.1009 88.2206 50.1009C92.6291 50.1009 97.2072 49.1502 98.8607 47.7714C98.8607 47.7714 98.5914 43.7669 98.5914 40.7426C98.5914 37.573 99.4559 34.6645 99.4397 31.9472C99.4047 26.1545 97.3984 23.6931 97.3984 23.6931C95.8661 23.308 93.8571 22.5917 90.48 22.3466C90.1865 22.3251 89.8795 22.3143 89.5617 22.317L89.5536 22.3251Z" fill="#E0E0E0"/>
<path d="M93.9108 8.93811C93.9108 8.93811 94.8965 8.98659 95.5778 10.1823C95.9198 10.7855 96.1838 11.8924 95.3893 15.097C95.0852 16.3493 94.5921 17.548 93.927 18.6518C93.7308 19.0111 93.4039 19.281 93.0141 19.4059V16.9579L93.0572 15.2505C93.0572 15.2505 91.6191 14.0414 91.4602 12.8268C91.2609 11.2568 91.8615 10.3466 91.8615 10.3466L93.9108 8.93811Z" fill="#263238"/>
<path d="M94.2529 9.01616C93.9702 7.6481 92.1416 6.05383 88.6999 5.96766C87.5312 5.92114 86.3712 6.1877 85.3401 6.73975C84.3089 7.2918 83.4439 8.10931 82.8345 9.10772C81.9001 10.7424 83.3247 12.0835 83.3247 12.0835L91.9289 11.4156L94.2529 9.01616Z" fill="#263238"/>
<path d="M95.3167 17.6123C94.0402 18.264 93.4181 17.2784 93.4181 17.2784L93.1919 23.1061C90.8005 26.4293 84.1676 25.2605 86.8148 22.7614L86.8552 20.9921C86.5055 20.9885 86.1564 20.9616 85.8103 20.9113C85.2262 20.8531 84.6716 20.6264 84.214 20.2587C83.7564 19.8911 83.4156 19.3982 83.2331 18.8403C83.0151 18.1807 82.8847 17.4953 82.8453 16.8017C82.7803 15.5884 82.8435 14.3716 83.0338 13.1715C83.1846 12.2209 83.1523 11.7281 83.3031 10.9498C83.4216 10.3546 83.6613 9.70291 84.208 9.42015C85.5545 8.71727 86.866 9.64367 88.8023 10.3223C89.6102 10.6051 91.533 10.6859 92.0339 10.4408C91.3876 11.1814 91.4576 13.4624 92.4702 14.3645C92.6011 14.6 92.7746 14.8091 92.9818 14.9812C93.4127 15.3259 93.7278 14.3942 94.059 14.0252C94.3903 13.6563 95.7153 13.3008 96.3185 14.4723C96.4665 14.7426 96.5581 15.0402 96.5877 15.347C96.6173 15.6537 96.5842 15.9633 96.4905 16.257C96.3969 16.5506 96.2445 16.8222 96.0427 17.0551C95.8409 17.2881 95.5939 17.4777 95.3167 17.6123Z" fill="#B16668"/>
<path d="M86.8523 20.992C88.355 20.9436 89.7662 20.7227 90.6414 20.3322C91.5167 19.9418 92.2707 18.7461 92.4969 17.5719C92.5238 18.5118 92.1495 20.1868 90.8245 20.9139C89.4996 21.6411 87.8191 21.6895 86.8362 21.7218L86.8523 20.992Z" fill="#9A4A4D"/>
<path d="M88.6755 12.0351L89.9709 12.4983C90.0306 12.3239 90.0195 12.1331 89.9399 11.9669C89.8603 11.8006 89.7187 11.6723 89.5454 11.6096C89.4604 11.5792 89.3702 11.5661 89.2801 11.5711C89.19 11.5761 89.1018 11.5992 89.0207 11.6388C88.9396 11.6785 88.8673 11.734 88.808 11.802C88.7488 11.8701 88.7037 11.9493 88.6755 12.0351Z" fill="#37474F"/>
<path d="M83.7689 12.2855L85.0831 11.8842C85.059 11.7974 85.0177 11.7162 84.9617 11.6456C84.9057 11.575 84.8361 11.5164 84.7569 11.4732C84.6778 11.43 84.5908 11.4031 84.5012 11.3941C84.4115 11.3852 84.3209 11.3943 84.2348 11.421C84.0605 11.477 83.9146 11.5983 83.8277 11.7594C83.7408 11.9206 83.7198 12.1091 83.7689 12.2855Z" fill="#37474F"/>
<path d="M89.4727 13.6186C89.4738 13.7356 89.44 13.8502 89.3758 13.948C89.3115 14.0457 89.2196 14.1221 89.1118 14.1675C89.004 14.2129 88.8851 14.2252 88.7702 14.2028C88.6554 14.1805 88.5498 14.1245 88.4669 14.0419C88.384 13.9594 88.3275 13.8541 88.3046 13.7394C88.2817 13.6246 88.2935 13.5057 88.3384 13.3977C88.3832 13.2896 88.4593 13.1974 88.5567 13.1327C88.6542 13.0679 88.7687 13.0337 88.8856 13.0342C89.0409 13.0342 89.1898 13.0957 89.2998 13.2052C89.4098 13.3147 89.472 13.4633 89.4727 13.6186Z" fill="#263238"/>
<path d="M85.3362 13.4166C85.3378 13.5343 85.3043 13.6498 85.24 13.7484C85.1756 13.8471 85.0833 13.9242 84.9749 13.9702C84.8665 14.0161 84.7468 14.0287 84.6312 14.0063C84.5156 13.9839 84.4093 13.9276 84.3259 13.8445C84.2424 13.7614 84.1856 13.6554 84.1627 13.5399C84.1398 13.4244 84.1518 13.3047 84.1972 13.1961C84.2427 13.0874 84.3194 12.9948 84.4177 12.93C84.516 12.8652 84.6314 12.8311 84.7492 12.8322C84.9044 12.8322 85.0533 12.8937 85.1633 13.0032C85.2734 13.1127 85.3355 13.2613 85.3362 13.4166Z" fill="#263238"/>
<path d="M87.3291 12.6679L86.9655 16.1688L85.0562 15.536C85.589 14.4215 86.3658 13.4413 87.3291 12.6679Z" fill="#9A4A4D"/>
<path d="M86.6343 17.1922L88.549 16.7344C88.6047 16.9947 88.5576 17.2664 88.4175 17.4927C88.2775 17.7191 88.0554 17.8825 87.7977 17.9489C87.6714 17.9784 87.5405 17.9821 87.4128 17.9597C87.2851 17.9373 87.1633 17.8894 87.0546 17.8187C86.9459 17.748 86.8526 17.656 86.7804 17.5484C86.7082 17.4407 86.6585 17.3196 86.6343 17.1922Z" fill="#9A4A4D"/>
<path d="M87.2026 17.9032C87.2793 17.6492 87.4419 17.4298 87.6624 17.2825C87.883 17.1351 88.1479 17.0689 88.4118 17.0952C88.4601 17.1001 88.5078 17.1091 88.5545 17.1222C88.5248 17.3207 88.4371 17.5061 88.3025 17.6551C88.1679 17.804 87.9923 17.91 87.7978 17.9597C87.5985 18.0055 87.3897 17.9857 87.2026 17.9032Z" fill="#FFA8A7"/>
<path d="M97.3822 24.0432C100.396 24.4256 101.723 25.3897 102.992 29.0765C103.608 30.87 104.433 33.256 105.106 35.4535C105.087 35.3916 106.164 34.7264 106.266 34.6456L107.578 33.7435C108.386 33.2049 109.194 32.5585 109.695 31.7183C110.196 30.8781 110.152 30.0648 110.214 29.1573C110.271 28.3493 110.454 27.5711 110.484 26.7712C110.5 26.0845 111.243 26.3 111.534 27.0971C111.856 28.1446 112.027 29.2329 112.04 30.3287L113.039 33.8754C113.039 33.8754 107.492 41.9545 104.909 42.7624H104.88H104.861C103.972 43.0667 102.841 42.8055 101.958 41.5586C100.396 39.3557 98.9307 35.6905 97.8535 33.1483C96.7763 30.6061 95.8229 26.0737 97.3822 24.0432Z" fill="#B16668"/>
<path d="M97.3901 23.6931C97.3901 23.6931 99.5822 24.0944 100.781 25.0854C101.979 26.0764 102.857 28.1608 103.665 30.6411C104.473 33.1214 105.176 35.3162 105.176 35.3162L107.15 34.0424C107.15 34.0424 106.73 34.9553 107.15 36.5065C107.57 38.0577 109.218 38.6367 109.573 38.5236C108.771 39.5399 107.902 40.5016 106.972 41.4024C105.817 42.45 104.904 43.1017 103.837 42.9347C102.771 42.7678 101.952 42.1699 100.843 40.1125C99.733 38.055 96.8515 31.6375 96.8515 31.6375C96.8515 31.6375 95.3165 25.8691 97.3901 23.6931Z" fill="#455A64"/>
<path d="M104.982 34.6645L105.187 35.3162C103.331 36.7139 102.836 37.6968 102.763 39.792C102.173 37.3387 103.53 35.6367 104.982 34.6645Z" fill="#37474F"/>
<path d="M111.084 20.922L112.226 21.5818V43.099L111.084 42.4392V20.922Z" fill="#455A64"/>
<path d="M113.368 20.922L112.226 21.5818V43.099L113.368 42.4392V20.922Z" fill="#37474F"/>
<path d="M113.368 20.922L112.226 20.2622L111.084 20.922L112.226 21.5818L113.368 20.922Z" fill="#263238"/>
<path d="M120.978 18.0647C120.978 12.7245 117.23 6.23431 112.606 3.56552C110.295 2.21901 108.205 2.10591 106.681 2.97845L105.916 3.42279C104.403 4.29533 103.466 6.16967 103.466 8.83576C103.466 14.176 107.214 20.6662 111.838 23.3377C114.146 24.6707 116.236 24.7946 117.749 23.9248L118.517 23.4804C120.038 22.6079 120.978 20.7335 120.978 18.0647Z" fill="#455A64"/>
<path d="M117.765 23.9224C121.034 22.035 121.034 15.9147 117.764 10.2525C114.495 4.59019 109.195 1.53006 105.926 3.41746C102.657 5.30486 102.657 11.4251 105.926 17.0874C109.195 22.7496 114.495 25.8098 117.765 23.9224Z" fill="#F5F5F5"/>
<path d="M108.106 2.95418C109.256 2.95418 110.5 3.3339 111.798 4.08525C116.39 6.73518 120.122 13.2038 120.122 18.5037C120.122 22.1312 118.385 24.3852 115.584 24.3852C114.434 24.3852 113.193 24.0055 111.892 23.2569C107.301 20.5962 103.568 14.1329 103.568 8.83574C103.568 5.20824 105.308 2.95418 108.106 2.95418ZM108.106 2.85992C105.359 2.85992 103.474 5.04935 103.474 8.83574C103.474 14.176 107.223 20.6662 111.846 23.3376C113.193 24.1132 114.459 24.4795 115.584 24.4795C118.331 24.4795 120.216 22.2901 120.216 18.5037C120.216 13.1634 116.468 6.67324 111.846 4.00446C110.5 3.22887 109.232 2.85992 108.106 2.85992Z" fill="#E0E0E0"/>
<path d="M115.584 23.9194C114.531 23.9194 113.336 23.5477 112.126 22.8421C107.664 20.2676 104.047 13.9794 104.047 8.83844C104.047 5.4991 105.607 3.42548 108.117 3.42548C109.343 3.48026 110.534 3.85136 111.574 4.50268C116.037 7.0799 119.653 13.3654 119.653 18.5064C119.653 21.843 118.094 23.9194 115.584 23.9194Z" fill="#90CAF9"/>
<path d="M106.471 12.4525L117.219 18.6599V14.8897L106.471 8.68225V12.4525Z" fill="#F5F5F5"/>
<path d="M113.36 28.0262C113.914 27.9966 114.458 28.1818 114.879 28.5433C115.277 28.8341 116.074 29.2354 115.908 29.8467C115.839 30.0117 115.79 30.1844 115.762 30.3611C115.772 30.5483 115.819 30.7316 115.902 30.8997C115.944 30.9827 115.967 31.0734 115.972 31.1661C115.977 31.2589 115.962 31.3515 115.929 31.4383C115.853 31.5459 115.77 31.6485 115.681 31.7453C115.592 31.901 115.556 32.0816 115.579 32.2596C115.602 32.4382 115.61 32.6183 115.603 32.7982C115.56 33.1833 115.221 33.3368 114.914 33.5065C114.513 33.7085 114.106 33.8862 113.686 34.064C113.01 34.3575 111.978 33.8108 111.855 33.0783C111.84 33.0346 111.843 32.9871 111.861 32.9452C111.88 32.9033 111.914 32.8701 111.957 32.8521C111.995 32.8306 112.151 32.7525 112.191 32.7686C111.922 32.6663 111.639 32.6501 111.437 32.4212C111.42 32.4023 111.406 32.3815 111.394 32.3593C111.386 32.3238 111.386 32.287 111.394 32.2516C111.401 32.1675 111.426 32.0858 111.466 32.0117C111.507 31.9376 111.562 31.8725 111.628 31.8207C111.694 31.7762 111.765 31.7383 111.838 31.7076C111.868 31.6941 112.005 31.6295 111.938 31.5998C111.749 31.5244 111.558 31.449 111.37 31.3682C111.257 31.3171 111.133 31.2659 111.1 31.134C111.09 31.073 111.095 31.0105 111.115 30.9521C111.136 30.8937 111.17 30.8414 111.216 30.8C111.411 30.6344 111.656 30.5394 111.911 30.5307C111.644 30.4344 111.396 30.2922 111.179 30.1106C111.138 30.0751 111.109 30.0282 111.095 29.976C111.089 29.9247 111.099 29.8727 111.125 29.8278C111.185 29.6903 111.288 29.5759 111.418 29.502C111.61 29.4258 111.817 29.3989 112.021 29.4239C112.285 29.4374 112.549 29.4374 112.813 29.4239C112.859 29.4239 113.373 29.3835 113.373 29.3242L113.36 28.0262Z" fill="#B16668"/>
<path d="M112.226 30.5604C112.714 30.7426 113.227 30.8445 113.748 30.862C114.25 30.7312 114.735 30.5423 115.194 30.2991C114.698 30.4069 114.227 30.6438 113.737 30.7327C113.23 30.7084 112.725 30.6508 112.226 30.5604Z" fill="#9A4A4D"/>
<path d="M112.121 31.6375C112.594 31.8554 113.098 31.9963 113.616 32.055C114.126 31.9627 114.624 31.8118 115.1 31.6052C114.599 31.6726 114.111 31.8745 113.616 31.9257C113.112 31.8625 112.612 31.7662 112.121 31.6375Z" fill="#9A4A4D"/>
<path d="M112.266 32.774C112.582 32.9245 112.916 33.0323 113.26 33.0945C113.844 33.0568 114.375 32.7767 114.914 32.572C114.375 32.677 113.82 32.9167 113.268 32.9706C112.934 32.9329 112.603 32.8225 112.266 32.774Z" fill="#9A4A4D"/>
<path d="M39.8057 97.3903L40.9529 96.8598L39.8218 96.5609L39.8057 97.3903Z" fill="#263238"/>
<path d="M51.1969 99.3966C51.1969 99.3966 37.6456 93.6227 37.4759 94.4818C37.438 94.6521 37.438 94.8286 37.4759 94.9989L37.4382 94.9504L37.6887 96.5662C38.3008 97.0341 39.0308 97.3231 39.7973 97.4011C39.7973 97.323 39.7973 96.8463 39.8135 96.5743C40.2292 96.7353 40.6287 96.9355 41.0065 97.1722C41.8763 97.7108 42.4338 98.6614 43.3575 99.7601C44.0281 100.568 45.2264 100.937 47.0011 101.179C48.9105 101.435 50.5936 101.093 51.0676 100.611C51.4554 100.218 51.2642 99.5016 51.1969 99.3966Z" fill="#263238"/>
<path d="M50.8227 99.1004C50.6907 98.9711 50.2087 98.4675 49.5543 97.9208C48.9833 97.4442 48.3155 96.8436 47.5991 96.3508C47.2548 96.1257 46.9296 95.8726 46.6269 95.5941C46.3892 95.3577 46.1645 95.1087 45.9537 94.8481C45.3125 94.0414 44.7642 93.1652 44.319 92.2359C44.1036 91.7996 43.7212 90.8409 43.8289 89.0635C43.9959 86.3705 44.2302 85.3983 44.2409 83.6451L37.7777 84.4665C37.9662 85.4387 38.1682 87.6039 38.2678 88.708C38.4159 90.3858 38.6798 90.5447 37.9823 92.2089C37.7777 92.7018 37.4734 93.1757 37.4437 93.7036C37.4007 94.56 38.117 95.3032 38.9195 95.7233C39.582 96.0734 40.3468 96.2242 40.9905 96.5959C41.6412 97.0126 42.2129 97.5414 42.679 98.1578C43.1341 98.6964 43.4869 99.3562 44.1413 99.7413C44.8495 100.172 45.5255 100.307 46.3469 100.463C47.3251 100.629 48.3195 100.677 49.3092 100.608C50.723 100.517 51.7706 100.04 50.8227 99.1004Z" fill="#FFBDA7"/>
<path d="M50.0443 98.1551C49.46 97.6919 48.6332 97.0294 47.6341 96.2835C47.2896 96.1699 46.9257 96.1271 46.5643 96.1577C46.2029 96.1882 45.8514 96.2915 45.5308 96.4612C43.5192 97.4522 43.1744 98.8634 43.1744 98.8634C43.5273 99.5088 44.1174 99.9917 44.8199 100.21C47.144 101.169 51.3074 100.87 51.3478 99.8625C51.3747 99.2323 50.7526 98.7233 50.0443 98.1551ZM38.1116 91.8535C37.9652 92.1875 37.8016 92.5138 37.6214 92.831C37.266 93.48 37.1986 94.1264 37.643 94.7754C38.2274 95.6345 38.9464 95.8984 39.6816 96.0815C40.3252 94.1721 38.9195 92.2682 38.1116 91.8535Z" fill="#37474F"/>
<path d="M29.7712 96.3346C29.8197 96.989 29.7497 98.9388 29.8924 100.396C30.0243 101.721 30.4175 103.781 30.0917 105.351C29.7658 106.921 28.2658 108.709 26.0683 107.338C24.7056 106.49 24.1293 105.421 23.8789 103.517C23.7038 102.195 24.2613 100.331 24.7353 98.6695C25.29 96.7386 25.4893 95.7072 25.4893 95.7072L29.7712 96.3346Z" fill="#263238"/>
<path d="M25.0128 86.7152C25.0128 88.5088 25.2417 91.4738 25.3386 93.4478C25.3853 94.519 25.3285 95.5922 25.169 96.6525C24.8997 97.929 24.6304 99.701 24.4365 100.53C24.1672 101.688 23.9706 102.416 24.4822 103.687C24.524 103.788 24.5782 103.884 24.6438 103.972C25.3305 105.006 27.011 105.739 27.5334 105.588C27.6567 105.705 27.8077 105.788 27.9722 105.83C28.1367 105.872 28.3092 105.871 28.4733 105.828C28.5325 105.817 28.591 105.803 28.6483 105.784C28.708 105.766 28.7664 105.743 28.8234 105.717C29.0268 105.617 29.207 105.476 29.3523 105.302C29.4975 105.128 29.6045 104.925 29.6663 104.707C29.6972 104.614 29.7215 104.519 29.739 104.422C29.9479 103.392 29.9816 102.334 29.8387 101.293C29.7929 100.533 29.7659 99.4505 29.7983 98.2844C29.8306 97.1184 30.9616 91.0133 31.3979 87.3481L25.0128 86.7152Z" fill="#FFBDA7"/>
<path d="M24.17 102.047C25.4519 101.508 29.3487 101.346 30.0058 102.887C30.0758 104.363 30.0058 105.31 28.9528 106.625C27.5632 108.389 25.6054 106.657 24.8352 105.547C24.065 104.438 24.0219 102.846 24.17 102.047Z" fill="#37474F"/>
<path d="M29.3566 42.6277C27.5738 45.38 25.9391 48.2992 25.7372 54.5928C25.4679 62.8846 26.37 70.2527 26.2758 71.2626C26.1815 72.2725 25.7372 73.9099 24.9643 78.865C24.1914 83.8202 25.0747 93.437 25.0747 93.437C25.0747 93.437 25.651 94.5761 27.6788 94.8319C29.5639 95.0662 30.4419 94.261 30.4419 94.261C30.4419 94.261 33.6358 81.014 34.4814 78.0436C35.327 75.0732 36.6089 64.4466 36.6089 64.4466L36.924 70.0858C36.924 70.0858 36.2265 72.8111 36.5981 77.2007C36.9697 81.5904 38.3243 90.0761 38.3243 90.0761C38.3243 90.0761 39.1592 90.9297 41.1547 90.884C42.9806 90.8463 43.915 89.9172 43.915 89.9172C43.915 89.9172 45.9456 73.2608 46.1718 68.3111C46.398 63.3613 46.4626 50.9976 45.135 43.6026L29.3566 42.6277Z" fill="#37474F"/>
<path d="M37.8477 54.1405L36.625 64.4466L36.9401 70.0858L37.099 64.2635L38.8548 54.9403C40.1421 54.706 43.4815 52.6701 43.7992 50.6611C41.968 53.2464 37.8477 54.1405 37.8477 54.1405ZM29.8548 84.243C29.4311 86.8337 29.046 89.4307 28.6995 92.0339C29.265 89.4648 29.7946 86.8894 30.2883 84.3077C30.7919 81.7277 31.2578 79.1505 31.721 76.5545C32.1842 73.9584 32.599 68.0903 32.7982 65.4727C32.9975 62.8551 33.1241 60.2375 33.2184 57.6171C32.9087 60.224 32.6367 62.8335 32.362 65.4269C32.0873 68.0203 31.6052 73.883 31.169 76.4683C30.7327 79.0536 30.2668 81.6497 29.8548 84.243ZM43.7777 65.4431C43.7777 66.5795 43.7992 67.724 43.7292 68.847C43.6592 69.97 43.5245 71.1119 43.4114 72.2456L43.0721 75.6523C42.8423 77.9234 42.6412 80.1981 42.4689 82.4764C42.8585 80.2232 43.2059 77.9638 43.5111 75.6981C43.8154 73.4305 44.1062 71.1711 44.2947 68.8794C44.3917 66.5714 44.2947 64.3012 44.1736 62.0122C44.0524 59.7231 43.8639 57.4502 43.5919 55.18L43.7346 62.0256C43.7481 63.1648 43.775 64.3039 43.7777 65.4431Z" fill="#263238"/>
<path d="M30.7891 12.4982C28.7074 13.1984 28.2631 15.2424 28.2173 18.746C28.1984 20.106 28.2496 21.3125 27.0997 22.247C26.4857 22.7398 25.7532 23.106 25.2361 23.6958C24.369 24.6761 24.2936 26.3592 25.2657 27.2371C24.9048 27.3847 24.5907 27.6274 24.3568 27.9395C24.123 28.2516 23.9783 28.6213 23.9381 29.0091C23.8741 29.7926 24.1014 30.5722 24.5763 31.1986C25.5108 32.5047 27.3313 32.9975 28.8852 32.712C29.2649 33.7515 30.3717 34.4086 31.4731 34.476C32.5746 34.5433 33.6599 34.107 34.5755 33.4822C35.1545 34.5837 36.6141 34.9392 37.7587 34.7614C38.3466 34.6718 38.9086 34.4572 39.4066 34.132C39.9046 33.8068 40.3271 33.3786 40.6456 32.8763C40.6812 32.8029 40.7361 32.7405 40.8045 32.6959C40.8597 32.6726 40.9197 32.6625 40.9795 32.6663C41.7686 32.6474 42.5172 32.6447 43.2255 32.2785C43.8702 31.987 44.424 31.5264 44.8278 30.9454C45.0904 30.5334 45.2408 30.06 45.2641 29.572C45.3121 29.1632 45.242 28.7492 45.0621 28.379C45.73 27.8404 45.7919 26.3026 45.5792 25.4786C45.3664 24.6545 44.8198 23.9543 44.2327 23.3376C43.6115 22.7543 43.0303 22.1299 42.493 21.4687C42.0727 20.8956 41.8668 20.1932 41.9113 19.4839C41.9113 19.0665 41.7174 18.3044 42.0055 17.9462C42.0055 17.9462 43.274 16.3735 43.1986 14.6957C43.1604 13.5278 42.734 12.406 41.9868 11.5076C41.2396 10.6092 40.2142 9.98552 39.0728 9.73519C36.4902 9.08617 31.8286 9.35278 30.7891 12.4982Z" fill="#263238"/>
<path d="M40.9179 26.3808C39.4475 27.6761 40.0642 32.3054 42.1647 35.0819C44.4592 38.1008 45.9619 40.538 47.4269 42.1376C48.9888 43.8477 49.6325 44.4429 51.9781 43.3576C55.5975 41.6825 60.1568 37.9338 61.6433 36.8782C62.147 36.4794 62.567 35.9852 62.8794 35.4239C63.1487 34.7884 63.0787 34.0316 63.0922 33.4877C63.1191 32.4993 63.1757 31.5164 63.1891 30.5253C63.1891 30.0783 63.3265 29.572 63.0599 29.1788C63.006 29.098 62.874 29.0065 62.7906 29.0253C62.7906 29.0253 62.7906 28.6079 62.804 28.4167C62.8175 28.0639 62.7771 27.4095 62.3678 27.2775C62.0257 27.1698 61.7484 27.9723 61.7484 27.9723C61.7484 27.9723 61.98 27.1968 61.8588 26.8278C61.708 26.3646 61.3363 26.0845 61.0778 26.3619C60.9066 26.5635 60.7751 26.7956 60.69 27.0459C60.6131 27.0196 60.5313 27.011 60.4506 27.0208C60.3699 27.0306 60.2925 27.0585 60.2241 27.1025C59.8148 27.3287 59.6478 27.8162 59.5158 28.2363C59.3569 28.731 59.2495 29.2409 59.1954 29.7578C59.1808 30.2848 59.1039 30.8082 58.9665 31.3171C58.8558 31.6543 58.6396 31.947 58.3498 32.1519C58.0024 32.3862 57.7815 32.9033 57.8893 33.7354C57.9297 34.0586 57.9377 34.748 57.0544 35.1896C55.1962 36.1214 51.3641 37.6134 51.3614 37.4841C51.3614 37.4841 48.4395 33.3826 46.5624 30.3907C45.6145 28.9068 44.3407 26.7901 40.9179 26.3808Z" fill="#FFBDA7"/>
<path d="M61.3603 33.1187C61.271 33.0201 61.1728 32.9299 61.0668 32.8494C60.8031 32.6452 60.4917 32.5117 60.162 32.4616C60.1323 32.4616 60.1431 32.5155 60.162 32.5235C60.5528 32.6535 60.9016 32.886 61.1718 33.1968C61.5542 33.6519 61.6458 34.2255 61.6943 34.8126C61.6943 34.8342 61.7131 34.8611 61.7293 34.8476C61.7454 34.8342 61.7293 34.8476 61.7293 34.8315C61.8257 34.4511 61.8108 34.051 61.6862 33.6789C61.6112 33.4745 61.5009 33.2849 61.3603 33.1187Z" fill="#F0997A"/>
<path d="M63.2026 29.3997C63.1433 29.2354 63.0571 29.0226 62.8309 28.9849L62.8471 28.2982C62.8578 28.0463 62.8156 27.7949 62.7232 27.5603C62.6708 27.4367 62.5814 27.3323 62.4674 27.2614C62.405 27.2212 62.3308 27.2034 62.257 27.2107C62.1832 27.218 62.114 27.2501 62.0607 27.3018C61.9994 27.3599 61.9452 27.425 61.8991 27.4957C61.9126 27.4068 61.9288 27.318 61.9341 27.2264C61.9619 26.9567 61.8868 26.6865 61.7241 26.4697C61.6451 26.3546 61.5321 26.267 61.4009 26.2192C61.3308 26.1986 61.2561 26.2 61.1868 26.2231C61.1175 26.2462 61.0569 26.2899 61.0131 26.3485C60.8537 26.54 60.7305 26.759 60.6496 26.9948C60.5079 26.9733 60.363 26.9913 60.2309 27.0469C60.0988 27.1025 59.9846 27.1935 59.9009 27.3099C59.725 27.5405 59.5951 27.803 59.5185 28.0828C59.344 28.6268 59.2311 29.1887 59.1819 29.7578C59.2525 29.1938 59.3852 28.6392 59.5778 28.1043C59.6565 27.8349 59.7853 27.5827 59.9575 27.3611C60.0192 27.2886 60.0908 27.2251 60.1702 27.1725C60.2091 27.1464 60.2518 27.1264 60.2968 27.1133C60.3473 27.1013 60.3986 27.0932 60.4503 27.0891C60.5003 27.0793 60.5518 27.0808 60.6012 27.0934C60.6505 27.106 60.6965 27.1293 60.7358 27.1618C60.8022 27.2366 60.842 27.3313 60.8489 27.4311C60.8489 27.458 60.8489 27.4822 60.8489 27.5065C60.8555 27.6793 60.8392 27.8523 60.8004 28.0208C60.7056 28.3646 60.6354 28.7147 60.5903 29.0684C60.5418 29.4256 60.514 29.7853 60.5069 30.1456V31.2228L60.5365 30.1456C60.5549 29.7918 60.5936 29.4394 60.6523 29.09C60.7078 28.7398 60.7888 28.3942 60.8946 28.0559C60.9414 27.8802 60.9641 27.699 60.962 27.5172C60.9659 27.4244 60.9468 27.3321 60.9064 27.2485C60.866 27.1648 60.8055 27.0925 60.7304 27.0379C60.8082 26.8202 60.925 26.6185 61.0751 26.4427C61.1074 26.399 61.1523 26.366 61.2037 26.3482C61.2551 26.3304 61.3108 26.3286 61.3632 26.3431C61.4732 26.3866 61.5671 26.4627 61.6325 26.5612C61.7781 26.7587 61.8426 27.0044 61.813 27.2479C61.8029 27.3728 61.7849 27.497 61.7591 27.6196C61.7349 27.7381 61.7025 27.8593 61.6783 27.9804C61.6392 28.2292 61.6149 28.4801 61.6056 28.7318C61.5921 28.9849 61.5814 29.2381 61.5733 29.4939C61.5733 29.9921 61.5517 30.493 61.5733 30.9939C61.5733 30.493 61.5948 29.9948 61.6298 29.4966C61.646 29.2785 61.6648 29.0603 61.6837 28.8422L61.7241 28.4625L61.7483 28.2713C61.7483 28.2417 61.7483 28.2094 61.7483 28.177C61.7553 28.1532 61.7607 28.1289 61.7645 28.1043C61.7645 28.0693 61.7645 28.0343 61.7833 27.9993C61.8157 27.8906 61.8618 27.7865 61.9207 27.6896C61.973 27.5909 62.0392 27.5002 62.1173 27.4203C62.2735 27.256 62.5024 27.4338 62.5859 27.633C62.69 27.9357 62.7321 28.2563 62.7097 28.5756C62.7097 28.7507 62.6936 28.923 62.6801 29.0954C62.6666 29.2677 62.6532 29.4508 62.6397 29.634C62.6155 29.9921 62.5993 30.3476 62.602 30.7112C62.602 30.7704 62.602 30.8324 62.602 30.8916C62.6392 30.2951 62.7075 29.7009 62.8067 29.1115C62.8662 29.1337 62.9191 29.1708 62.9602 29.2192C63.0126 29.2929 63.0543 29.3736 63.0841 29.4589C63.1332 29.6422 63.1514 29.8325 63.1379 30.0218C63.1056 30.4069 63.1002 30.8027 63.0895 31.1878L63.0491 33.52L63.1622 31.1878C63.1783 30.7973 63.1891 30.4149 63.2241 30.0244C63.2556 29.8166 63.2483 29.6048 63.2026 29.3997Z" fill="#F0997A"/>
<path d="M58.918 30.7839C58.7241 29.9383 58.1505 29.6501 57.8408 29.8655C57.5311 30.081 57.8408 31.0774 57.8408 31.7507C57.8408 32.4239 57.6038 35.6555 59.1307 36.1618L59.4862 32.502C59.2304 32.327 59.0661 31.4383 58.918 30.7839Z" fill="#FFBDA7"/>
<path d="M59.4834 32.5128C59.3377 32.3541 59.234 32.1616 59.1818 31.9526C59.1145 31.7479 59.0606 31.5406 59.0068 31.3332C58.9017 30.9212 58.8533 30.4768 58.5867 30.151C58.5294 30.0683 58.4555 29.9986 58.3697 29.9462C58.2839 29.8938 58.1881 29.8599 58.0884 29.8467C58.0433 29.8442 57.9981 29.8513 57.9558 29.8675C57.9136 29.8838 57.8753 29.9088 57.8434 29.9409C57.793 30.0216 57.7669 30.1151 57.768 30.2102C57.768 30.6249 57.8622 31.0478 57.8945 31.4786C57.8535 32.3335 57.8733 33.1903 57.9538 34.0424C58.0029 34.4641 58.1117 34.8767 58.277 35.2677C58.35 35.4677 58.4632 35.6507 58.6095 35.8054C58.7559 35.9601 58.9323 36.0832 59.1279 36.1672C58.9249 36.0913 58.7394 35.9747 58.5829 35.8247C58.4264 35.6747 58.3021 35.4943 58.2177 35.2946C58.0409 34.9002 57.923 34.4819 57.8676 34.0532C57.7705 33.2023 57.7363 32.3453 57.7653 31.4894C57.741 31.0666 57.6441 30.6465 57.6603 30.2021C57.6596 30.0838 57.6953 29.9682 57.7626 29.8709C57.8043 29.8257 57.8559 29.7907 57.9134 29.7687C57.9708 29.7468 58.0326 29.7384 58.0938 29.7443C58.2068 29.7592 58.3154 29.7979 58.4124 29.8578C58.5094 29.9177 58.5927 29.9974 58.6567 30.0917C59.1683 30.8431 58.9744 31.8045 59.4834 32.5128Z" fill="#F0997A"/>
<path d="M27.2048 46.6646C26.475 45.0757 28.0504 43.5596 28.3008 41.1978C28.4732 39.582 27.4175 35.6125 27.4175 35.6125C27.4175 35.6125 30.8188 33.1026 29.8412 26.879L34.5028 26.0899C38.5235 25.8557 40.9069 26.3862 40.9069 26.3862C41.9841 27.2183 43.8692 28.5137 45.0999 30.4796C46.9661 33.4419 46.1932 35.8225 44.4778 37.818C44.4643 38.2031 44.4212 40.2256 45.4958 44.3244C45.6493 44.9061 46.0344 45.9402 45.5604 46.4788C42.8889 49.5327 31.9714 50.6557 27.2048 46.6646Z" fill="#90CAF9"/>
<path d="M29.8547 26.879C26.8412 27.2614 25.5136 28.2255 24.2452 31.9149C23.6285 33.7085 22.8044 36.0945 22.1311 38.292C22.15 38.23 21.0728 37.5649 20.9705 37.4841L19.659 36.5819C18.851 36.0433 18.0431 35.3943 17.5422 34.5541C17.0413 33.7139 17.0844 32.9033 17.0225 31.9957C16.9659 31.1878 16.7828 30.4068 16.7532 29.6097C16.737 28.923 15.9938 29.1384 15.7029 29.9355C15.3809 30.9831 15.2104 32.0713 15.1966 33.1672L14.8492 32.8413L14.1975 36.7139C14.1975 36.7139 19.7451 44.7929 22.3277 45.6008H22.3574H22.3735C23.2649 45.9052 24.396 45.6412 25.2793 44.3971C26.8412 42.1942 28.3062 38.529 29.3834 35.9868C30.4607 33.4445 31.414 28.9122 29.8547 26.879Z" fill="#FFBDA7"/>
<path d="M22.3761 37.5029L22.1472 38.2381C24.0027 39.6331 24.4013 40.5326 24.4821 42.6277C25.0638 40.1744 23.8277 38.4751 22.3761 37.5029Z" fill="#F0997A"/>
<path d="M16.1526 21.9911L15.0107 22.6509V45.9294L16.1526 45.2696V21.9911Z" fill="#455A64"/>
<path d="M13.8689 21.9911L15.0107 22.6509V45.9294L13.8689 45.2696V21.9911Z" fill="#37474F"/>
<path d="M13.8689 21.9911L15.0107 21.334L16.1526 21.9911L15.0107 22.6509L13.8689 21.9911Z" fill="#263238"/>
<path d="M18.8162 4.19568L18.0541 3.75671L11.844 7.34112L7.45435 15.7326V24.0109L11.844 27.3287L12.6061 27.7704L18.8162 24.186L23.2058 15.7945V7.51617L18.8162 4.19568Z" fill="#455A64"/>
<path d="M18.816 4.19568L12.6059 7.78278L8.21631 16.1715V24.4499L12.6059 27.7704L18.816 24.186L23.2057 15.7945V7.51617L18.816 4.19568Z" fill="#F5F5F5"/>
<path d="M18.808 4.30879L23.1168 7.56195V15.773L18.7487 24.1213L12.614 27.6573L8.30518 24.4041V16.1931L12.6706 7.84472L18.808 4.30879ZM18.808 4.19568L12.6059 7.78278L8.21631 16.1715V24.4499L12.6059 27.7704L18.816 24.1833L23.2057 15.7945V7.51617L18.816 4.19568H18.808Z" fill="#E0E0E0"/>
<path d="M8.77905 24.1698V16.3088L13.0286 8.1867L18.7728 4.8689L22.6454 7.79621V15.6571L18.3931 23.7793L12.6489 27.0971L8.77905 24.1698Z" fill="#90CAF9"/>
<path d="M13.0906 15.3717L13.8985 14.9139V20.5208L14.6472 20.0899V14.483L15.4389 14.0252V13.0234L13.1041 14.3699L13.0906 15.3717ZM12.35 18.8161C12.2432 18.6284 12.0982 18.4651 11.9245 18.3368C11.8154 18.2585 11.7001 18.1891 11.5798 18.1294C11.4572 18.0699 11.3446 17.9918 11.2459 17.8978C11.1494 17.798 11.0739 17.6798 11.024 17.5503C10.974 17.4207 10.9506 17.2825 10.955 17.1437C10.952 16.9605 10.9812 16.7782 11.0412 16.6051C11.0908 16.4311 11.2018 16.2809 11.3536 16.1823C11.4829 16.1096 11.5825 16.1069 11.6498 16.1823C11.7663 16.3375 11.8278 16.527 11.8249 16.7209L12.5412 16.1339C12.5341 15.8972 12.4762 15.6649 12.3716 15.4525C12.3376 15.3782 12.2881 15.312 12.2263 15.2586C12.1645 15.2051 12.0919 15.1657 12.0134 15.1428C11.7734 15.1034 11.5275 15.1605 11.3294 15.3017C11.0444 15.468 10.8048 15.702 10.6319 15.9831C10.3296 16.4674 10.1718 17.0279 10.1768 17.5989C10.1673 17.8854 10.2244 18.1703 10.3437 18.431C10.4736 18.6547 10.6533 18.8455 10.8689 18.9885L11.534 19.4436C11.6251 19.5261 11.6965 19.6279 11.7431 19.7416C11.7897 19.8553 11.8103 19.978 11.8033 20.1007C11.8078 20.2646 11.7822 20.428 11.7279 20.5827C11.6618 20.8009 11.5243 20.9906 11.3375 21.1213C11.2944 21.1585 11.2395 21.1789 11.1826 21.1789C11.1257 21.1789 11.0708 21.1585 11.0278 21.1213C10.8703 20.9207 10.7892 20.6706 10.7988 20.4158L10.0879 20.8951C10.0924 21.1827 10.148 21.4672 10.2522 21.7353C10.2843 21.8285 10.3347 21.9143 10.4004 21.9878C10.466 22.0614 10.5456 22.1211 10.6346 22.1635C10.7577 22.1997 10.8875 22.2065 11.0138 22.1836C11.14 22.1607 11.2591 22.1087 11.3617 22.0316C11.5125 21.9453 11.6519 21.8403 11.7764 21.7192C11.9968 21.4997 12.1716 21.2389 12.2908 20.9517C12.4753 20.5271 12.5671 20.068 12.5601 19.6052C12.555 19.4101 12.5177 19.2172 12.4497 19.0342C12.4213 18.9594 12.388 18.8865 12.35 18.8161ZM21.0189 10.2523C20.8034 10.0719 20.5126 10.0853 20.149 10.2954L18.9695 10.9767V17.5854L19.7181 17.1545V14.6716L20.149 14.4238C20.5156 14.1954 20.8076 13.8651 20.9892 13.4732C21.2082 13.0684 21.3256 12.6165 21.3312 12.1563V11.1976C21.3178 10.7424 21.2181 10.43 21.0189 10.2523ZM20.5961 12.5952C20.5932 12.7629 20.5498 12.9274 20.4695 13.0746C20.4075 13.2134 20.3076 13.332 20.1813 13.4166L19.7316 13.6859V11.5638L20.1813 11.2945C20.3106 11.2191 20.4129 11.2137 20.491 11.273C20.5357 11.3188 20.5695 11.374 20.59 11.4346C20.6105 11.4951 20.6172 11.5596 20.6095 11.6231L20.5961 12.5952ZM17.9623 11.9381C17.8384 11.8511 17.6899 11.8063 17.5386 11.8101C17.3873 11.814 17.2413 11.8664 17.1221 11.9597C16.7591 12.1873 16.4693 12.5145 16.2872 12.9022C16.065 13.3079 15.9457 13.762 15.9398 14.2245V17.8332C15.9215 18.0023 15.9428 18.1734 16.0022 18.3328C16.0616 18.4922 16.1573 18.6356 16.2818 18.7515C16.4057 18.838 16.5539 18.8829 16.705 18.8795C16.8561 18.8761 17.0022 18.8247 17.1221 18.7326C17.4853 18.5034 17.7758 18.1756 17.9596 17.7874C18.1822 17.3817 18.3024 16.9278 18.3097 16.4651V12.8565C18.3287 12.6868 18.3071 12.5151 18.2467 12.3554C18.1863 12.1958 18.0888 12.0527 17.9623 11.9381ZM17.5745 16.9041C17.5719 17.0772 17.5275 17.2472 17.4452 17.3996C17.3755 17.5483 17.2642 17.6736 17.1248 17.7604C17.0651 17.7961 16.9976 17.8165 16.9282 17.8197C16.8708 17.8191 16.8151 17.8002 16.7693 17.7658C16.7181 17.7205 16.6785 17.6636 16.6537 17.5999C16.6289 17.5362 16.6196 17.4676 16.6265 17.3996V13.7802C16.6286 13.6057 16.6739 13.4345 16.7585 13.282C16.8291 13.1345 16.9402 13.0103 17.079 12.9238C17.1302 12.8864 17.1919 12.8662 17.2554 12.8662C17.3188 12.8662 17.3806 12.8864 17.4318 12.9238C17.4829 12.9691 17.5225 13.026 17.5473 13.0897C17.5721 13.1534 17.5814 13.222 17.5745 13.29V16.9041Z" fill="#F5F5F5"/>
<path d="M13.8689 30.8619C13.3148 30.8347 12.7713 31.0207 12.35 31.3817C11.9515 31.6698 11.1543 32.0738 11.3213 32.6824C11.3906 32.8482 11.4395 33.0219 11.4667 33.1995C11.4559 33.3865 11.4083 33.5695 11.3267 33.7381C11.2856 33.8212 11.2621 33.912 11.2574 34.0046C11.2528 34.0972 11.2672 34.1898 11.2998 34.2767C11.3762 34.3838 11.459 34.4863 11.5475 34.5837C11.6367 34.7394 11.6727 34.92 11.6499 35.0981C11.6238 35.2763 11.6157 35.4568 11.6256 35.6367C11.6687 36.0245 12.008 36.1914 12.3123 36.3449C12.7163 36.5469 13.1203 36.7246 13.5431 36.9051C14.219 37.1959 15.2477 36.6519 15.3743 35.9194C15.3888 35.8758 15.3863 35.8282 15.3673 35.7863C15.3484 35.7444 15.3143 35.7112 15.272 35.6932C15.2343 35.6717 15.0781 35.5909 15.0377 35.607C15.307 35.5074 15.5763 35.4912 15.7917 35.2623C15.8091 35.243 15.8237 35.2212 15.8348 35.1977C15.8429 35.1631 15.8429 35.1272 15.8348 35.0927C15.8272 35.0087 15.8024 34.9271 15.7621 34.853C15.7218 34.779 15.6669 34.7139 15.6005 34.6618C15.5344 34.6173 15.464 34.5794 15.3905 34.5487C15.3608 34.5325 15.2208 34.4706 15.2908 34.441C15.4793 34.3629 15.6705 34.2901 15.8564 34.2067C15.9722 34.1582 16.096 34.107 16.1257 33.9751C16.1361 33.9141 16.131 33.8516 16.1107 33.7932C16.0905 33.7348 16.0558 33.6825 16.0099 33.6411C15.8247 33.4669 15.587 33.3589 15.3339 33.3341C15.601 33.2398 15.8491 33.0984 16.0664 32.9167C16.1071 32.8812 16.1362 32.8343 16.1499 32.7821C16.1561 32.7299 16.1457 32.6772 16.1203 32.6312C16.061 32.4939 15.9578 32.3802 15.8267 32.3081C15.6352 32.2292 15.4261 32.2022 15.2208 32.23C14.9515 32.23 14.6822 32.23 14.4291 32.23C14.3833 32.23 13.8716 32.1896 13.8716 32.1277L13.8689 30.8619Z" fill="#FFBDA7"/>
<path d="M15.0107 33.4069C14.5228 33.5878 14.0091 33.6897 13.4891 33.7085C12.9875 33.5758 12.5023 33.387 12.043 33.1456C12.5385 33.2534 13.0098 33.4903 13.4999 33.5792C14.0066 33.5536 14.5112 33.496 15.0107 33.4069Z" fill="#F0997A"/>
<path d="M15.1157 34.4787C14.6428 34.6962 14.1383 34.8371 13.6211 34.8961C13.111 34.8029 12.6132 34.6521 12.1372 34.4464C12.6381 34.5137 13.1255 34.7157 13.6211 34.7668C14.1248 34.7023 14.624 34.606 15.1157 34.4787Z" fill="#F0997A"/>
<path d="M14.9678 35.6098C14.6568 35.7636 14.3274 35.8768 13.9875 35.9464C13.4031 35.9087 12.8726 35.6259 12.3313 35.4213C12.8861 35.5263 13.4274 35.766 13.9794 35.8198C14.3107 35.7821 14.6446 35.6744 14.9785 35.6232L14.9678 35.6098Z" fill="#F0997A"/>
<path d="M30.1456 18.3825C30.5926 17.8439 31.5217 17.6096 31.993 18.3152C32.2865 18.7515 32.3754 19.492 32.8009 19.3736C33.0702 19.2981 33.1456 18.9858 33.0352 18.4202C33.0352 18.4498 33.3745 18.2398 33.3987 18.2182C33.7165 17.9489 33.6384 17.5181 33.738 17.141C33.8485 16.729 34.1716 16.4139 34.3655 16.0423C34.6644 15.4579 34.5352 14.7389 34.4086 14.1222C34.352 13.8529 34.3117 13.5378 34.5029 13.3439C34.6591 13.2184 34.858 13.1585 35.0576 13.1769C35.6789 13.2242 36.2941 13.3325 36.8943 13.5001C37.4992 13.667 38.1406 13.6463 38.7336 13.4408C38.9787 13.3358 39.1968 13.1715 39.4338 13.0557C39.6643 12.9202 39.9331 12.8643 40.1986 12.8968C40.4304 12.9539 40.6413 13.0753 40.8072 13.2469C41.6151 13.9983 41.8844 15.1967 42.1079 16.2496C42.2265 17.0437 42.2779 17.8464 42.2614 18.6491C42.3692 22.0746 41.774 22.9256 41.0657 23.5289C40.4571 24.0486 39.5038 24.3368 38.3727 24.3368L38.4077 26.2838C38.4077 26.2838 40.0774 29.327 39.3126 31.1313C39.3126 31.1313 36.695 30.0729 35.0953 28.7803C33.1321 27.1914 32.7955 26.4158 32.7955 26.4158L32.7174 21.0298C32.7174 21.0298 31.9095 22.2308 30.6949 21.3341C29.7039 20.5962 29.475 19.1797 30.1456 18.3825Z" fill="#FFBDA7"/>
<path d="M38.3783 24.3476C36.2239 24.3853 34.126 23.4939 33.3262 21.5657C33.3262 21.5657 33.4177 22.8502 34.2418 23.6312C35.8819 25.1851 38.3917 25.0262 38.3917 25.0262L38.3783 24.3476Z" fill="#F0997A"/>
<path d="M36.0998 17.3645C36.0862 17.4711 36.1048 17.5792 36.1532 17.6751C36.2016 17.771 36.2776 17.8502 36.3713 17.9026C36.4651 17.955 36.5724 17.9782 36.6794 17.9692C36.7864 17.9601 36.8883 17.9193 36.9719 17.8519C37.0556 17.7845 37.1172 17.6937 37.1488 17.591C37.1804 17.4884 37.1806 17.3786 37.1494 17.2759C37.1182 17.1731 37.0569 17.082 36.9735 17.0143C36.8902 16.9466 36.7884 16.9054 36.6815 16.896C36.5427 16.8837 36.4046 16.9257 36.2962 17.013C36.1877 17.1004 36.1173 17.2264 36.0998 17.3645Z" fill="#263238"/>
<path d="M40.0263 17.4399C40.0566 17.5426 40.1167 17.634 40.1991 17.7023C40.2815 17.7707 40.3824 17.8129 40.4889 17.8237C40.5954 17.8344 40.7027 17.8132 40.7971 17.7627C40.8915 17.7122 40.9687 17.6347 41.0188 17.5402C41.069 17.4456 41.0898 17.3382 41.0787 17.2318C41.0675 17.1253 41.0249 17.0246 40.9563 16.9424C40.8876 16.8603 40.796 16.8005 40.6932 16.7706C40.5904 16.7407 40.4811 16.7422 40.3791 16.7747C40.2451 16.8176 40.1331 16.9111 40.0672 17.0355C40.0012 17.1598 39.9866 17.3049 40.0263 17.4399Z" fill="#263238"/>
<path d="M36.8082 15.5198L35.5317 16.018C35.4704 15.8449 35.4781 15.6548 35.5534 15.4873C35.6286 15.3198 35.7655 15.1877 35.9357 15.1186C36.0191 15.0853 36.1084 15.0693 36.1982 15.0716C36.288 15.0739 36.3764 15.0944 36.458 15.1319C36.5396 15.1695 36.6128 15.2232 36.673 15.2899C36.7332 15.3566 36.7792 15.4348 36.8082 15.5198Z" fill="#263238"/>
<path d="M39.9644 15.3771L41.2785 15.7272C41.321 15.5485 41.2929 15.3603 41.2001 15.2018C41.1073 15.0433 40.9569 14.9267 40.7803 14.8762C40.6938 14.8535 40.6036 14.8485 40.515 14.8616C40.4265 14.8746 40.3416 14.9055 40.2653 14.9523C40.1891 14.9991 40.1231 15.0609 40.0714 15.1339C40.0196 15.2069 39.9832 15.2896 39.9644 15.3771Z" fill="#263238"/>
<path d="M39.2371 20.8951L37.352 20.3781C37.2886 20.6364 37.3275 20.9091 37.4605 21.1395C37.5934 21.3698 37.8102 21.5399 38.0656 21.6141C38.1898 21.6453 38.319 21.6514 38.4455 21.6319C38.5721 21.6125 38.6935 21.568 38.8026 21.501C38.9117 21.4341 39.0064 21.346 39.081 21.2419C39.1556 21.1379 39.2087 21.02 39.2371 20.8951Z" fill="#B16668"/>
<path d="M38.6475 21.5791C38.5798 21.3223 38.4248 21.0971 38.209 20.9423C37.9932 20.7874 37.7302 20.7127 37.4652 20.7308C37.4163 20.7361 37.3678 20.7441 37.3198 20.7551C37.3439 20.9544 37.4262 21.1423 37.5565 21.2951C37.6868 21.4479 37.8593 21.5589 38.0523 21.6141C38.2491 21.6692 38.4586 21.6569 38.6475 21.5791Z" fill="#F0997A"/>
<path d="M38.7631 19.6375L40.4247 18.8053C39.0782 16.8206 38.1814 16.2443 38.1814 16.2443L38.7631 19.6375Z" fill="#F0997A"/>
</svg>
