<svg width="45" height="45" viewBox="0 0 45 45" fill="none" xmlns="http://www.w3.org/2000/svg">
<path fill-rule="evenodd" clip-rule="evenodd" d="M22.5 6C13.3873 6 6 13.3873 6 22.5C6 31.6127 13.3873 39 22.5 39C31.6127 39 39 31.6127 39 22.5C39 13.3873 31.6127 6 22.5 6ZM0 22.5C0 10.0736 10.0736 0 22.5 0C34.9264 0 45 10.0736 45 22.5C45 34.9264 34.9264 45 22.5 45C10.0736 45 0 34.9264 0 22.5Z" fill="#43A363"/>
<path fill-rule="evenodd" clip-rule="evenodd" d="M22.5 16.5C19.1863 16.5 16.5 19.1863 16.5 22.5C16.5 25.8137 19.1863 28.5 22.5 28.5C25.8137 28.5 28.5 25.8137 28.5 22.5C28.5 19.1863 25.8137 16.5 22.5 16.5ZM10.5 22.5C10.5 15.8726 15.8726 10.5 22.5 10.5C29.1274 10.5 34.5 15.8726 34.5 22.5C34.5 29.1274 29.1274 34.5 22.5 34.5C15.8726 34.5 10.5 29.1274 10.5 22.5Z" fill="#43A363"/>
</svg>
