<svg width="447" height="321" viewBox="0 0 447 321" fill="none" xmlns="http://www.w3.org/2000/svg">
<path d="M166.126 120.669C218.644 67.671 208.296 -17.6863 285.873 37.6801C325.357 65.8541 366.028 51.4571 370.765 90.403C374.021 117.096 346.134 168.424 327.007 187.118C298.193 215.274 267.674 208.687 233.078 204.175C193.933 199.061 169.659 219.563 133.065 222.49C106.356 224.626 69.2177 198.639 75.7836 166.573C83.8571 127.282 143.744 143.255 166.126 120.669Z" fill="#8F6DCB"/>
<path opacity="0.9" d="M166.126 120.669C218.644 67.671 208.296 -17.6863 285.873 37.6801C325.357 65.8541 366.028 51.4571 370.765 90.403C374.021 117.096 346.134 168.424 327.007 187.118C298.193 215.274 267.674 208.687 233.078 204.175C193.933 199.061 169.659 219.563 133.065 222.49C106.356 224.626 69.2177 198.639 75.7836 166.573C83.8571 127.282 143.744 143.255 166.126 120.669Z" fill="white"/>
<path d="M223.025 320.798C318.553 320.798 395.993 316.434 395.993 311.051C395.993 305.667 318.553 301.303 223.025 301.303C127.496 301.303 50.0557 305.667 50.0557 311.051C50.0557 316.434 127.496 320.798 223.025 320.798Z" fill="#F5F5F5"/>
<path d="M371.96 51.3021H258.191C253.614 51.3021 249.903 54.8835 249.903 59.3014V303.043C249.903 307.461 253.614 311.042 258.191 311.042H371.96C376.537 311.042 380.248 307.461 380.248 303.043V59.3014C380.248 54.8835 376.537 51.3021 371.96 51.3021Z" fill="#8F6DCB"/>
<path d="M366.804 51.3022H253.035C248.458 51.3022 244.747 54.8836 244.747 59.3015V303.043C244.747 307.461 248.458 311.042 253.035 311.042H366.804C371.381 311.042 375.092 307.461 375.092 303.043V59.3015C375.092 54.8836 371.381 51.3022 366.804 51.3022Z" fill="#8F6DCB"/>
<path opacity="0.7" d="M366.804 51.3022H253.035C248.458 51.3022 244.747 54.8836 244.747 59.3015V303.043C244.747 307.461 248.458 311.042 253.035 311.042H366.804C371.381 311.042 375.092 307.461 375.092 303.043V59.3015C375.092 54.8836 371.381 51.3022 366.804 51.3022Z" fill="white"/>
<g opacity="0.9">
<path d="M270.912 51.3021H263.856V311.042H270.912V51.3021Z" fill="white"/>
<path d="M345.572 51.3021H341.246V311.042H345.572V51.3021Z" fill="white"/>
<path d="M244.747 107.719V114.53L375.092 106.737V99.9264L244.747 107.719Z" fill="white"/>
<path d="M244.756 268.626V275.437H375.101V268.626H244.756Z" fill="white"/>
<path d="M244.747 141.722V145.434H375.092V141.722H244.747Z" fill="white"/>
<path d="M244.747 229.525V237.326L375.092 194.755V186.954L244.747 229.525Z" fill="white"/>
<path d="M290.431 51.3021H283.375L302.341 311.051H309.398L290.431 51.3021Z" fill="white"/>
</g>
<path d="M352.379 284.401H197.198V237.714H333.984L346.75 247.728C348.514 249.11 349.936 250.856 350.91 252.838C351.884 254.82 352.386 256.987 352.379 259.18V284.401Z" fill="#8F6DCB"/>
<path opacity="0.5" d="M352.379 284.401H197.198V237.714H333.984L346.75 247.728C348.514 249.11 349.936 250.856 350.91 252.838C351.884 254.82 352.386 256.987 352.379 259.18V284.401Z" fill="black"/>
<path d="M196.306 280.19C196.306 263.15 204.335 249.338 214.148 249.338H195.218C185.342 249.338 177.376 263.115 177.376 280.19C177.376 297.265 185.405 311.051 195.218 311.051H214.184C204.291 311.051 196.306 297.231 196.306 280.19Z" fill="#263238"/>
<path d="M214.184 311.042C224.057 311.042 232.061 297.229 232.061 280.19C232.061 263.151 224.057 249.338 214.184 249.338C204.31 249.338 196.306 263.151 196.306 280.19C196.306 297.229 204.31 311.042 214.184 311.042Z" fill="#263238"/>
<path d="M215.62 304.248C222.621 304.248 228.297 293.477 228.297 280.19C228.297 266.903 222.621 256.132 215.62 256.132C208.619 256.132 202.943 266.903 202.943 280.19C202.943 293.477 208.619 304.248 215.62 304.248Z" fill="white"/>
<path d="M93.2599 280.19C93.2599 263.15 101.289 249.338 111.102 249.338H92.1716C82.296 249.338 74.3296 263.115 74.3296 280.19C74.3296 297.265 82.3585 311.051 92.1716 311.051H111.138C101.262 311.051 93.2599 297.231 93.2599 280.19Z" fill="#263238"/>
<path d="M111.137 311.042C121.011 311.042 129.015 297.229 129.015 280.19C129.015 263.151 121.011 249.338 111.137 249.338C101.264 249.338 93.2598 263.151 93.2598 280.19C93.2598 297.229 101.264 311.042 111.137 311.042Z" fill="#263238"/>
<path d="M318.818 280.19C318.818 263.15 326.847 249.338 336.66 249.338H317.73C307.863 249.338 299.888 263.115 299.888 280.19C299.888 297.265 307.917 311.051 317.73 311.051H336.696C326.829 311.051 318.818 297.231 318.818 280.19Z" fill="#263238"/>
<path d="M336.696 311.042C346.569 311.042 354.573 297.229 354.573 280.19C354.573 263.151 346.569 249.338 336.696 249.338C326.822 249.338 318.818 263.151 318.818 280.19C318.818 297.229 326.822 311.042 336.696 311.042Z" fill="#263238"/>
<path d="M338.141 304.248C345.142 304.248 350.817 293.477 350.817 280.19C350.817 266.903 345.142 256.132 338.141 256.132C331.139 256.132 325.464 266.903 325.464 280.19C325.464 293.477 331.139 304.248 338.141 304.248Z" fill="white"/>
<path d="M175.181 288.801H152.245L150.961 287.595C149.641 286.319 147.851 285.6 145.983 285.598H88.6567C86.7887 285.6 84.9982 286.319 83.6788 287.595L82.8937 288.344H80.8062C79.1843 288.344 77.5783 288.035 76.0806 287.434C74.5828 286.833 73.2229 285.953 72.0789 284.843C70.9349 283.733 70.0294 282.416 69.4144 280.967C68.7994 279.519 68.487 277.967 68.4953 276.401V258.19H198.581L188.233 279.906C187.278 282.51 185.51 284.764 183.173 286.357C180.835 287.95 178.043 288.804 175.181 288.801Z" fill="#8F6DCB"/>
<path opacity="0.2" d="M175.181 288.801H152.245L150.961 287.595C149.641 286.319 147.851 285.6 145.983 285.598H88.6567C86.7887 285.6 84.9982 286.319 83.6788 287.595L82.8937 288.344H80.8062C79.1843 288.344 77.5783 288.035 76.0806 287.434C74.5828 286.833 73.2229 285.953 72.0789 284.843C70.9349 283.733 70.0294 282.416 69.4144 280.967C68.7994 279.519 68.487 277.967 68.4953 276.401V258.19H198.581L188.233 279.906C187.278 282.51 185.51 284.764 183.173 286.357C180.835 287.95 178.043 288.804 175.181 288.801Z" fill="black"/>
<path d="M310.593 180.548C310.514 180.549 310.436 180.528 310.37 180.488C310.319 180.46 310.274 180.423 310.238 180.378C310.202 180.333 310.176 180.282 310.161 180.228C310.146 180.173 310.143 180.116 310.151 180.06C310.159 180.004 310.179 179.95 310.209 179.902L316.454 169.569C316.48 169.514 316.517 169.465 316.563 169.425C316.61 169.385 316.665 169.355 316.724 169.337C316.784 169.318 316.846 169.312 316.909 169.319C316.971 169.325 317.031 169.344 317.084 169.374C317.138 169.405 317.185 169.446 317.222 169.494C317.258 169.543 317.284 169.599 317.297 169.658C317.31 169.717 317.31 169.778 317.296 169.837C317.283 169.896 317.258 169.951 317.221 170L310.976 180.333C310.937 180.398 310.882 180.452 310.814 180.49C310.747 180.527 310.671 180.547 310.593 180.548Z" fill="#263238"/>
<path d="M343.529 231.953V220.208C343.529 214.035 334.233 184.905 321.45 179.446C308.666 173.987 277.737 171.558 258.253 172.557C238.77 173.556 212.756 212.889 212.756 212.889L215.584 246.712C219.545 246.712 232.159 245.558 234.006 279.019C234.13 281.378 235.189 283.601 236.965 285.226C238.74 286.852 241.096 287.756 243.543 287.75H311.752C314.044 287.749 316.257 286.948 317.985 285.495C319.713 284.043 320.839 282.036 321.155 279.846C322.939 267.92 327.596 246.686 338.828 246.686C346.705 246.686 352.352 253.196 352.352 260.661C352.354 252.46 350.291 244.381 346.339 237.12L343.529 231.953Z" fill="#8F6DCB"/>
<path d="M186.886 172.557C151.407 172.557 111.209 212.889 111.209 212.889H212.792C212.792 212.889 238.779 173.565 258.289 172.557H186.886Z" fill="#8F6DCB"/>
<path opacity="0.4" d="M189.062 172.557C159.177 172.557 127.829 201.179 118.685 210.194C118.458 210.417 118.304 210.7 118.243 211.008C118.182 211.315 118.217 211.633 118.343 211.921C118.469 212.209 118.68 212.455 118.951 212.627C119.221 212.799 119.538 212.891 119.862 212.889H201.811C205.109 212.898 208.363 212.156 211.308 210.723C214.253 209.289 216.807 207.205 218.76 204.64C227.574 193.051 244.551 173.272 258.289 172.557H189.062Z" fill="white"/>
<path d="M212.792 212.889L175.27 241.468L74.2938 241.158C74.2938 241.158 68.4951 249.295 68.4951 258.19H198.581C200.713 252.739 208.189 246.712 215.62 246.712C215.62 236.569 212.792 212.889 212.792 212.889Z" fill="#8F6DCB"/>
<path opacity="0.2" d="M188.233 233.047C188.126 233.046 188.023 233.008 187.943 232.94C187.863 232.872 187.81 232.779 187.795 232.677C187.78 232.565 187.811 232.452 187.881 232.362C187.951 232.272 188.055 232.212 188.17 232.194C197.177 230.785 205.605 227.001 212.524 221.259C213.892 220.148 214.783 218.586 215.022 216.876C215.261 215.166 214.832 213.432 213.818 212.011C213.781 211.965 213.754 211.912 213.739 211.855C213.723 211.799 213.72 211.74 213.73 211.682C213.739 211.624 213.76 211.569 213.792 211.52C213.824 211.47 213.866 211.427 213.916 211.394C213.966 211.361 214.022 211.337 214.081 211.326C214.14 211.314 214.201 211.314 214.261 211.326C214.32 211.338 214.376 211.361 214.426 211.394C214.475 211.428 214.517 211.471 214.549 211.52C215.686 213.118 216.167 215.067 215.899 216.987C215.63 218.908 214.631 220.664 213.095 221.913C206.055 227.762 197.474 231.612 188.304 233.038L188.233 233.047Z" fill="black"/>
<path d="M74.2939 241.158C74.2939 241.158 92.0289 221.207 111.209 212.889H212.792L175.271 241.468L74.2939 241.158Z" fill="#8F6DCB"/>
<path d="M152.843 241.158H86.23V243.027H152.843V241.158Z" fill="#263238"/>
<path d="M151.46 237.421L155.029 233.977C155.831 233.203 156.847 232.668 157.955 232.436L184.905 226.77C185.852 226.57 186.836 226.599 187.769 226.856L189.214 227.243C190.176 227.505 191.054 227.997 191.766 228.675C192.478 229.352 193.001 230.192 193.285 231.117C193.57 232.042 193.608 233.021 193.395 233.964C193.183 234.906 192.726 235.782 192.069 236.508L186.27 242.906C185.27 244.007 183.872 244.697 182.362 244.835L156.197 247.125C155.333 247.205 154.461 247.099 153.644 246.817C152.827 246.534 152.084 246.081 151.469 245.489C150.363 244.419 149.74 242.969 149.739 241.457C149.737 239.945 150.356 238.494 151.46 237.421Z" fill="white"/>
<path d="M88.1126 239.247L85.1598 233.917C84.7441 233.17 84.1278 232.546 83.3756 232.108C82.6612 231.695 81.8484 231.466 81.0157 231.443C80.1829 231.42 79.3581 231.605 78.6207 231.979L76.3815 233.116C75.2818 233.677 74.4457 234.623 74.0442 235.759L72.6793 239.66C72.4523 240.302 72.3724 240.984 72.4449 241.659C72.5174 242.334 72.7407 242.986 73.0994 243.569C73.4581 244.153 73.9437 244.655 74.5226 245.04C75.1016 245.425 75.7601 245.684 76.4529 245.799L82.6173 246.824C83.6228 246.992 84.6575 246.85 85.5749 246.419C86.4923 245.988 87.2459 245.289 87.729 244.422L88.1394 243.69C88.5171 243.005 88.7124 242.241 88.7077 241.465C88.7031 240.689 88.4986 239.927 88.1126 239.247Z" fill="white"/>
<path opacity="0.4" d="M233.542 214.035H327.462C328.259 214.035 329.044 213.856 329.755 213.511C330.467 213.166 331.085 212.665 331.56 212.048C332.035 211.431 332.354 210.716 332.492 209.959C332.629 209.202 332.581 208.424 332.351 207.689C330.21 200.8 326.106 190.028 319.942 184.535C319.257 183.929 318.416 183.513 317.507 183.329C306.436 181.064 288.638 179.558 275.435 178.679C269.451 178.284 263.449 179.145 257.841 181.202C252.234 183.259 247.155 186.464 242.954 190.596C237.93 195.495 233.394 200.836 229.403 206.552C228.903 207.276 228.616 208.118 228.572 208.987C228.528 209.856 228.729 210.721 229.154 211.488C229.578 212.256 230.211 212.898 230.984 213.347C231.756 213.795 232.641 214.033 233.542 214.035Z" fill="white"/>
<path d="M172.817 268.282C172.817 271.106 169.82 273.405 166.126 273.405C162.433 273.405 159.436 271.106 159.436 268.282C159.436 265.457 162.424 263.167 166.126 263.167C169.828 263.167 172.817 265.457 172.817 268.282Z" fill="#263238"/>
<path d="M118.908 237.249C121.102 237.249 122.173 239.419 121.299 242.088C120.424 244.757 117.944 246.936 115.741 246.936C113.537 246.936 112.476 244.766 113.35 242.088C114.224 239.41 116.713 237.249 118.908 237.249Z" fill="#263238"/>
<path d="M73.8927 268.282C73.8927 271.106 73.0006 273.405 72.0104 273.405C71.0202 273.405 70.1191 271.106 70.1191 268.282C70.1191 265.457 71.0112 263.167 72.0104 263.167C73.0095 263.167 73.8927 265.457 73.8927 268.282Z" fill="#263238"/>
<path d="M230.652 213.217V210.315C230.651 209.482 230.842 208.66 231.212 207.908C231.583 207.155 232.122 206.492 232.791 205.967C233.46 205.441 234.243 205.066 235.081 204.87C235.919 204.673 236.793 204.66 237.637 204.83L249.074 207.129C250.379 207.392 251.551 208.081 252.393 209.08C253.235 210.078 253.694 211.327 253.695 212.614V213.217C253.695 214.702 253.084 216.126 251.997 217.177C250.91 218.228 249.435 218.82 247.896 218.822H236.459C234.919 218.822 233.442 218.232 232.353 217.18C231.264 216.129 230.652 214.703 230.652 213.217Z" fill="#263238"/>
<path d="M290.824 179.885C290.824 179.885 289.299 179.738 286.64 179.515C298.398 202.763 295.401 214.035 295.401 214.035H304.375C304.464 199.879 290.824 179.885 290.824 179.885Z" fill="#263238"/>
<path opacity="0.2" d="M191.659 203.624C191.477 205.452 190.597 207.148 189.19 208.383C187.783 209.618 185.951 210.304 184.049 210.306H137.812C134.439 210.306 133.217 206.673 135.662 203.969C140.072 199.121 144.862 194.607 149.989 190.467C158.696 183.389 169.508 179.713 179.615 180.393L183.433 180.66C185.081 180.784 186.644 181.418 187.888 182.469C189.132 183.519 189.992 184.929 190.338 186.489C191.688 192.102 192.133 197.881 191.659 203.624Z" fill="#8F6DCB"/>
<path opacity="0.2" d="M296.471 281.628C296.353 281.628 296.239 281.583 296.156 281.502C296.072 281.421 296.025 281.312 296.025 281.198C296.025 272.484 300.628 236.551 301.832 231.17C303.001 225.943 303.001 220.105 301.832 216.308C301.799 216.198 301.813 216.08 301.87 215.98C301.926 215.88 302.022 215.806 302.136 215.774C302.249 215.744 302.37 215.758 302.473 215.813C302.577 215.867 302.654 215.958 302.689 216.067C303.893 219.993 303.893 225.995 302.689 231.351C301.485 236.706 296.899 272.518 296.899 281.198C296.899 281.309 296.855 281.416 296.775 281.496C296.695 281.576 296.586 281.624 296.471 281.628Z" fill="black"/>
<path opacity="0.2" d="M295.284 231.626H284.41C284.203 231.633 283.998 231.593 283.81 231.511C283.622 231.429 283.456 231.306 283.325 231.152C283.194 230.998 283.102 230.817 283.055 230.623C283.007 230.429 283.007 230.227 283.054 230.033L283.277 228.819C283.367 228.382 283.607 227.987 283.958 227.698C284.309 227.409 284.751 227.243 285.213 227.226H296.087C296.294 227.22 296.499 227.259 296.687 227.341C296.875 227.423 297.041 227.546 297.172 227.7C297.303 227.854 297.396 228.035 297.443 228.229C297.49 228.423 297.49 228.625 297.443 228.819L297.22 230.033C297.13 230.47 296.89 230.865 296.539 231.154C296.188 231.443 295.746 231.609 295.284 231.626Z" fill="black"/>
<path d="M328.185 101.158H327.293C327.293 98.9655 326.966 96.7846 326.32 94.6826L327.213 94.4415C327.871 96.6233 328.198 98.8855 328.185 101.158ZM324.34 90.1448C322.297 86.6055 319.312 83.6561 315.695 81.6007C312.077 79.5453 307.957 78.4583 303.759 78.4516V77.5905C308.117 77.5947 312.394 78.7224 316.149 80.8568C319.903 82.9913 322.999 86.0552 325.116 89.7315L324.34 90.1448Z" fill="#8F6DCB"/>
<path d="M303.76 80.6042C298.113 80.6065 292.699 82.773 288.708 86.6273C284.716 90.4816 282.474 95.7081 282.474 101.158C282.474 120.962 303.76 134.533 303.76 134.533C303.76 134.533 325.063 120.954 325.063 101.158C325.061 95.7059 322.815 90.478 318.82 86.6237C314.825 82.7694 309.408 80.6042 303.76 80.6042ZM303.76 110.836C301.794 110.834 299.874 110.27 298.241 109.215C296.608 108.16 295.335 106.662 294.584 104.909C293.834 103.156 293.638 101.227 294.023 99.3673C294.407 97.5071 295.354 95.7988 296.744 94.4581C298.135 93.1175 299.905 92.2048 301.833 91.8353C303.76 91.4659 305.758 91.6564 307.574 92.3827C309.389 93.1089 310.941 94.3384 312.032 95.9156C313.124 97.4929 313.706 99.3471 313.706 101.244C313.706 102.504 313.449 103.752 312.949 104.917C312.449 106.081 311.716 107.139 310.793 108.03C309.869 108.921 308.772 109.627 307.565 110.108C306.359 110.59 305.065 110.837 303.76 110.836Z" fill="#8F6DCB"/>
<path d="M265.818 309.742L271.207 309.656L272.759 297.601L267.38 297.687L265.818 309.742Z" fill="#B55B52"/>
<path d="M291.538 309.354L296.765 307.813L293.518 296.387L288.291 297.937L291.538 309.354Z" fill="#B55B52"/>
<path d="M296.605 306.298L290.77 309.199C290.676 309.248 290.601 309.327 290.559 309.423C290.517 309.518 290.51 309.625 290.538 309.725L291.787 314.297C291.818 314.408 291.874 314.511 291.951 314.598C292.029 314.685 292.126 314.754 292.235 314.799C292.344 314.845 292.462 314.866 292.581 314.861C292.7 314.856 292.816 314.825 292.92 314.77C294.785 313.806 296.096 313.048 298.46 311.834C299.914 311.111 304.375 309.079 306.382 308.071C308.389 307.064 307.631 305.023 306.721 305.264C302.618 306.323 299.263 306.633 297.533 306.194C297.221 306.115 296.89 306.152 296.605 306.298Z" fill="#263238"/>
<path d="M271.314 309.053L265.435 309.148C265.329 309.15 265.227 309.187 265.145 309.253C265.064 309.318 265.009 309.409 264.989 309.509L263.998 314.142C263.972 314.254 263.973 314.37 264.001 314.481C264.029 314.593 264.083 314.696 264.158 314.784C264.234 314.873 264.33 314.943 264.438 314.99C264.547 315.036 264.665 315.059 264.783 315.055C266.907 314.986 269.966 314.822 272.634 314.779C275.747 314.736 276.657 314.857 280.315 314.779C282.518 314.779 283.098 312.575 282.17 312.394C277.942 311.533 276.291 311.533 272.625 309.415C272.228 309.187 271.776 309.062 271.314 309.053Z" fill="#263238"/>
<path d="M279.494 151.59C280.716 153.958 282.099 156.464 283.482 158.849C284.865 161.234 286.328 163.611 287.889 165.841C288.29 166.392 288.665 166.969 289.075 167.494L290.083 168.82C290.288 169.078 290.404 169.199 290.44 169.259C290.476 169.32 290.494 169.406 290.752 169.423C291.7 169.258 292.58 168.84 293.295 168.217C293.785 167.856 294.285 167.442 294.776 167.003C295.266 166.564 295.757 166.056 296.185 165.651L299.745 167.563C299.448 168.323 299.096 169.063 298.692 169.776C298.294 170.506 297.834 171.202 297.318 171.86C296.769 172.578 296.141 173.236 295.445 173.823C294.617 174.533 293.658 175.086 292.617 175.45C291.313 175.91 289.897 175.985 288.549 175.666C287.285 175.367 286.116 174.776 285.141 173.943C284.925 173.768 284.72 173.581 284.526 173.384L284.24 173.1L284.035 172.876L283.25 172.015C282.724 171.438 282.242 170.844 281.742 170.293C279.837 167.928 278.079 165.455 276.479 162.887C275.694 161.613 274.918 160.304 274.204 159.021C273.49 157.738 272.794 156.438 272.134 154.983L279.494 151.59Z" fill="#B55B52"/>
<path d="M269.842 151.625C268.388 156.395 278.602 169.388 278.602 169.388L288.906 162.991C286.967 158.858 284.575 154.938 281.769 151.298C277.55 146.105 271.43 146.381 269.842 151.625Z" fill="#8F6DCB"/>
<g opacity="0.2">
<path d="M269.842 151.625C268.388 156.395 278.602 169.388 278.602 169.388L288.906 162.991C286.967 158.858 284.575 154.938 281.769 151.298C277.55 146.105 271.43 146.381 269.842 151.625Z" fill="black"/>
</g>
<path opacity="0.2" d="M276.122 157.222C278.237 158.083 281.359 163.025 282.983 166.693L278.611 169.406C276.165 166.254 273.967 162.93 272.037 159.46C273.419 157.979 274.998 156.765 276.122 157.222Z" fill="black"/>
<path d="M295.57 166.581L299.299 160.761L302.555 165.781C301.771 167.12 300.499 168.13 298.987 168.613L295.57 166.581Z" fill="#B55B52"/>
<path d="M304.5 160.821V162.62C304.5 163.183 304.298 163.727 303.929 164.162L302.573 165.781L299.317 160.761L302.68 159.581C302.886 159.511 303.106 159.489 303.322 159.518C303.538 159.547 303.744 159.625 303.922 159.747C304.1 159.868 304.246 160.029 304.346 160.216C304.447 160.403 304.5 160.61 304.5 160.821Z" fill="#B55B52"/>
<path d="M300.86 168.26L294.99 168.174L298.237 156.438L304.107 156.524L300.86 168.26Z" fill="#8F6DCB"/>
<path d="M301.458 168.26L295.588 168.174L298.835 156.438L304.705 156.524L301.458 168.26Z" fill="#263238"/>
<path opacity="0.2" d="M272.759 297.609L271.956 303.818L266.568 303.904L267.371 297.687L272.759 297.609Z" fill="black"/>
<path opacity="0.2" d="M288.291 297.937L293.527 296.387L295.195 302.276L289.959 303.826L288.291 297.937Z" fill="black"/>
<path d="M247.111 154.13C251.509 172.402 250.555 190.528 251.036 194.437L279.753 192.37C282.51 162.672 275.979 147.595 275.979 147.595C275.979 147.595 274.133 147.25 271.626 147.001C270.841 146.923 269.984 146.854 269.101 146.811C268.611 146.811 268.12 146.768 267.612 146.76C263.53 146.821 259.455 147.108 255.408 147.621C254.64 147.715 253.864 147.819 253.106 147.939L251.072 148.301H250.992C250.335 148.427 249.71 148.68 249.157 149.044C248.603 149.408 248.131 149.876 247.768 150.42C247.406 150.964 247.161 151.573 247.048 152.211C246.935 152.848 246.957 153.501 247.111 154.13Z" fill="#8F6DCB"/>
<g opacity="0.2">
<path d="M247.111 154.13C251.509 172.402 250.555 190.528 251.036 194.437L279.753 192.37C282.51 162.672 275.979 147.595 275.979 147.595C275.979 147.595 274.133 147.25 271.626 147.001C270.841 146.923 269.984 146.854 269.101 146.811C268.611 146.811 268.12 146.768 267.612 146.76C263.53 146.821 259.455 147.108 255.408 147.621C254.64 147.715 253.864 147.819 253.106 147.939L251.072 148.301H250.992C250.335 148.427 249.71 148.68 249.157 149.044C248.603 149.408 248.131 149.876 247.768 150.42C247.406 150.964 247.161 151.573 247.048 152.211C246.935 152.848 246.957 153.501 247.111 154.13Z" fill="black"/>
</g>
<path opacity="0.2" d="M251.973 157.988L248.672 162.078C248.677 162.13 248.677 162.181 248.672 162.233C249.136 165.006 249.493 167.718 249.761 170.336C252.928 166.573 252.464 159.779 251.973 157.988Z" fill="black"/>
<path d="M256.791 139.544C257.478 142.334 257.433 145.434 255.363 147.655C257.656 149.55 260.627 151.711 265.301 151.539C269.976 151.366 268.932 148.318 267.567 146.777C263.579 146.157 263.571 143.651 263.535 140.896C263.533 140.617 263.44 140.346 263.268 140.122C263.097 139.897 262.856 139.731 262.58 139.647L258.191 138.287C258.006 138.23 257.808 138.221 257.618 138.262C257.428 138.303 257.253 138.392 257.11 138.52C256.968 138.648 256.863 138.81 256.807 138.99C256.751 139.17 256.745 139.361 256.791 139.544Z" fill="#B55B52"/>
<path d="M269.414 169.345C267.005 169.345 264.784 166.556 264.347 162.991C264.176 162.047 264.205 161.079 264.434 160.147C264.662 159.214 265.085 158.336 265.676 157.566C265.955 157.241 266.303 156.979 266.698 156.798C267.092 156.616 267.523 156.52 267.96 156.516C270.359 156.516 272.59 159.305 273.018 162.87C273.19 163.814 273.161 164.781 272.934 165.713C272.707 166.646 272.286 167.524 271.698 168.295C271.417 168.618 271.068 168.878 270.674 169.059C270.28 169.241 269.85 169.338 269.414 169.345ZM267.969 157.377C267.658 157.382 267.352 157.453 267.073 157.586C266.793 157.718 266.548 157.908 266.354 158.143C265.851 158.823 265.495 159.593 265.305 160.407C265.115 161.222 265.095 162.065 265.248 162.887C265.613 165.927 267.523 168.484 269.423 168.484C269.735 168.48 270.043 168.41 270.324 168.277C270.604 168.145 270.851 167.954 271.046 167.718C271.547 167.037 271.903 166.267 272.093 165.453C272.282 164.638 272.303 163.796 272.153 162.974C271.805 159.934 269.896 157.377 268.004 157.377H267.969Z" fill="#8F6DCB"/>
<path opacity="0.2" d="M263.544 141.051L259.128 141.602C259.226 141.791 259.351 141.972 259.467 142.153C260.306 143.445 262.143 144.297 264.052 144.607C263.639 143.466 263.466 142.257 263.544 141.051Z" fill="black"/>
<path d="M269.271 130.021C271.724 130.417 276.31 127.73 275.239 124.148C273.865 125.81 269.271 125.25 269.271 125.25V130.021Z" fill="#263238"/>
<path d="M259.69 133.809C259.957 136.203 256.898 140.465 253.258 139.217C255.042 137.994 254.757 133.525 254.757 133.525L259.69 133.809Z" fill="#263238"/>
<path d="M256.095 129.16C255.434 134.274 254.774 137.245 256.924 140.353C260.145 144.977 267.067 143.798 269.298 139.002C271.305 134.696 272.045 127.024 267.299 124.079C266.26 123.429 265.065 123.044 263.829 122.963C262.593 122.881 261.356 123.106 260.234 123.614C259.113 124.123 258.144 124.899 257.42 125.869C256.695 126.839 256.239 127.972 256.095 129.16Z" fill="#B55B52"/>
<path d="M255.363 134.326C256.657 135.643 260.216 130.262 259.565 128.299C260.903 128.867 263.472 127.782 263.312 125.646C267.317 127.713 273.125 129.349 273.214 125.646C273.303 121.944 269.646 119.145 266.077 118.853C266.506 119.963 265.373 120.437 263.044 119.963C260.716 119.49 251.741 115.503 252.732 123.468C249.377 123.657 248.94 127.756 255.363 134.326Z" fill="#263238"/>
<path d="M252.74 132.337C252.926 133.622 253.632 134.783 254.703 135.566C256.13 136.591 257.022 135.506 257.156 133.887C257.281 132.423 257.156 130.133 255.452 129.745C255.082 129.667 254.697 129.68 254.333 129.782C253.969 129.884 253.637 130.073 253.367 130.33C253.098 130.588 252.899 130.906 252.79 131.257C252.68 131.607 252.663 131.978 252.74 132.337Z" fill="#B55B52"/>
<path d="M260.831 193.739L279.708 192.388C279.708 192.388 282.153 229.783 281.965 245.636C281.778 262.134 273.936 302.578 273.936 302.578L264.819 302.716C264.819 302.716 265.542 263.486 265.542 247.289C265.542 225.478 260.805 193.739 260.805 193.739" fill="#263238"/>
<path opacity="0.2" d="M268.129 232.616C268.379 233.693 275.4 264.011 277.665 281.697C278.87 274.344 280.11 266.086 280.948 258.793L268.129 232.616Z" fill="black"/>
<path d="M269.521 193.128C269.521 193.128 283.892 227.106 287.131 242.011C290.699 258.328 296.364 299.598 296.364 299.598L286.613 301.062C286.613 301.062 279.236 270.21 275.105 254.453C270.413 236.491 251.804 208.05 251.019 194.454L269.521 193.128Z" fill="#263238"/>
<path d="M297.586 300.399L285.471 303.137L283.946 298.634L297.176 296.447L297.586 300.399Z" fill="#8F6DCB"/>
<path d="M275.114 302.776L264.248 302.939L264.195 299.556L276.327 299.194L275.114 302.776Z" fill="#8F6DCB"/>
<path d="M263.481 131.812C263.401 132.225 263.561 132.595 263.838 132.673C264.115 132.75 264.409 132.432 264.489 132.018C264.57 131.605 264.409 131.235 264.123 131.157C263.838 131.08 263.561 131.398 263.481 131.812Z" fill="#263238"/>
<path d="M268.762 132.897C268.682 133.301 268.843 133.68 269.119 133.758C269.396 133.835 269.69 133.516 269.77 133.103C269.851 132.69 269.69 132.311 269.414 132.242C269.137 132.173 268.843 132.483 268.762 132.897Z" fill="#263238"/>
<path d="M267.023 132.793C267.288 134.144 267.744 135.454 268.379 136.685C268.048 136.833 267.687 136.91 267.322 136.91C266.957 136.91 266.596 136.833 266.265 136.685L267.023 132.793Z" fill="#A02724"/>
<path d="M265.363 137.951C264.886 137.855 264.433 137.666 264.034 137.395C263.635 137.124 263.298 136.777 263.044 136.375C263.028 136.346 263.024 136.311 263.034 136.279C263.044 136.247 263.067 136.219 263.097 136.203C263.127 136.19 263.161 136.188 263.192 136.198C263.224 136.207 263.25 136.228 263.267 136.255C263.557 136.695 263.951 137.062 264.416 137.329C264.881 137.595 265.404 137.752 265.943 137.787C265.972 137.795 265.997 137.811 266.015 137.834C266.033 137.856 266.043 137.884 266.043 137.912C266.043 137.941 266.033 137.968 266.015 137.991C265.997 138.014 265.972 138.03 265.943 138.037C265.748 138.025 265.554 137.996 265.363 137.951Z" fill="#263238"/>
<path d="M262.955 129.969C262.913 129.951 262.874 129.928 262.839 129.9C262.794 129.851 262.77 129.789 262.77 129.724C262.77 129.659 262.794 129.596 262.839 129.547C263.134 129.279 263.49 129.082 263.88 128.972C264.269 128.863 264.68 128.845 265.078 128.918C265.142 128.937 265.197 128.978 265.23 129.034C265.263 129.091 265.273 129.157 265.256 129.22C265.239 129.281 265.198 129.334 265.141 129.366C265.085 129.399 265.017 129.408 264.953 129.392C264.634 129.337 264.305 129.355 263.995 129.447C263.685 129.538 263.402 129.699 263.169 129.917C263.139 129.941 263.105 129.957 263.068 129.966C263.031 129.975 262.992 129.976 262.955 129.969Z" fill="#263238"/>
<path d="M271.608 131.614C271.568 131.601 271.531 131.578 271.501 131.548C271.471 131.518 271.45 131.481 271.439 131.441C271.367 131.141 271.22 130.862 271.012 130.628C270.804 130.394 270.54 130.212 270.243 130.098C270.179 130.078 270.125 130.035 270.093 129.977C270.061 129.919 270.054 129.851 270.074 129.788C270.095 129.726 270.14 129.673 270.2 129.643C270.26 129.612 270.33 129.606 270.395 129.625C270.777 129.77 271.116 130.002 271.383 130.302C271.65 130.603 271.838 130.961 271.93 131.347C271.94 131.378 271.944 131.411 271.941 131.443C271.938 131.476 271.927 131.507 271.91 131.536C271.893 131.564 271.871 131.589 271.843 131.608C271.816 131.628 271.784 131.641 271.751 131.648C271.701 131.655 271.65 131.642 271.608 131.614Z" fill="#263238"/>
<path d="M298.621 306.315C298.194 306.515 297.745 306.669 297.283 306.771C297.264 306.786 297.24 306.794 297.216 306.794C297.191 306.794 297.168 306.786 297.149 306.771C297.134 306.751 297.126 306.727 297.126 306.702C297.126 306.678 297.134 306.654 297.149 306.633C297.265 306.444 298.318 304.756 298.987 304.756C299.062 304.756 299.136 304.776 299.201 304.814C299.265 304.852 299.318 304.907 299.352 304.971C299.422 305.073 299.465 305.19 299.478 305.312C299.49 305.433 299.472 305.556 299.424 305.669C299.235 305.962 298.954 306.189 298.621 306.315ZM297.524 306.453C298.177 306.359 298.77 306.03 299.183 305.531C299.214 305.453 299.225 305.369 299.214 305.287C299.203 305.204 299.171 305.125 299.12 305.058C299.067 304.971 299.022 304.963 298.978 304.963C298.63 304.963 297.961 305.798 297.524 306.453Z" fill="#8F6DCB"/>
<path d="M297.31 306.763H297.238C297.215 306.759 297.193 306.75 297.175 306.737C297.156 306.723 297.141 306.705 297.131 306.685C296.807 306.011 296.701 305.257 296.828 304.524C296.865 304.436 296.921 304.356 296.991 304.289C297.062 304.222 297.146 304.17 297.238 304.136C297.323 304.095 297.421 304.084 297.513 304.104C297.606 304.125 297.689 304.176 297.747 304.248C298.13 304.713 297.747 306.203 297.354 306.711C297.351 306.722 297.345 306.732 297.337 306.741C297.33 306.75 297.32 306.757 297.31 306.763ZM297.31 304.412C297.213 304.459 297.137 304.539 297.096 304.636C296.989 305.218 297.063 305.817 297.31 306.358C297.604 305.747 297.809 304.679 297.586 304.412C297.586 304.412 297.515 304.326 297.363 304.412H297.31Z" fill="#8F6DCB"/>
<path d="M271.858 309.768C271.835 309.759 271.815 309.743 271.801 309.723C271.787 309.703 271.779 309.68 271.779 309.656C271.779 309.632 271.787 309.608 271.801 309.588C271.815 309.568 271.835 309.553 271.858 309.544C272.099 309.415 274.249 308.321 274.909 308.683C274.969 308.716 275.021 308.764 275.058 308.821C275.095 308.878 275.118 308.943 275.123 309.01C275.136 309.121 275.122 309.234 275.082 309.338C275.042 309.443 274.976 309.537 274.891 309.613C274.311 310.121 272.768 309.94 271.894 309.785L271.858 309.768ZM274.766 308.864C273.908 308.911 273.076 309.16 272.34 309.587C273.138 309.807 273.992 309.746 274.748 309.415C274.805 309.364 274.848 309.301 274.873 309.23C274.898 309.159 274.904 309.084 274.891 309.01C274.892 308.983 274.885 308.957 274.871 308.934C274.856 308.911 274.836 308.893 274.811 308.881L274.766 308.864Z" fill="#8F6DCB"/>
<path d="M271.858 309.768C271.84 309.754 271.827 309.737 271.817 309.718C271.808 309.698 271.804 309.677 271.804 309.656C271.851 308.92 272.132 308.217 272.607 307.641C272.803 307.48 273.056 307.4 273.312 307.417C273.669 307.417 273.767 307.624 273.794 307.761C273.901 308.347 272.634 309.484 272.009 309.776C271.987 309.791 271.96 309.798 271.932 309.797C271.905 309.795 271.879 309.785 271.858 309.768ZM273.383 307.675C273.342 307.664 273.299 307.664 273.258 307.675C273.165 307.665 273.07 307.674 272.981 307.702C272.892 307.731 272.81 307.777 272.741 307.839C272.345 308.294 272.105 308.857 272.054 309.449C272.714 309.062 273.571 308.157 273.508 307.813C273.508 307.761 273.49 307.71 273.383 307.675Z" fill="#8F6DCB"/>
<path d="M255.684 155.749C253.9 158.806 252.116 162.069 250.51 165.281C248.892 168.421 247.506 171.666 246.362 174.994C246.228 175.399 246.13 175.795 246.005 176.191C245.96 176.372 245.88 176.63 245.853 176.751C245.824 176.85 245.8 176.95 245.782 177.052C245.705 177.593 245.72 178.143 245.826 178.679C246.185 180.153 246.772 181.567 247.566 182.873C249.418 185.882 251.575 188.706 254.007 191.303L251.42 194.299C247.97 192.097 244.904 189.379 242.338 186.248C240.909 184.504 239.801 182.535 239.064 180.427C238.64 179.169 238.449 177.849 238.502 176.527C238.502 176.174 238.574 175.803 238.618 175.45C238.663 175.097 238.716 174.917 238.77 174.641C238.877 174.142 238.975 173.616 239.091 173.125C240.091 169.301 241.446 165.572 243.141 161.983C244.768 158.457 246.615 155.029 248.672 151.719L255.684 155.749Z" fill="#B55B52"/>
<path d="M250.082 148.697C245.113 150.015 240.269 163.49 240.269 163.49L252.232 166.693C254.328 163.856 256 160.749 257.201 157.463C259.716 150.91 256.094 147.113 250.082 148.697Z" fill="#8F6DCB"/>
<g opacity="0.2">
<path d="M250.082 148.697C245.113 150.015 240.269 163.49 240.269 163.49L252.232 166.693C254.328 163.856 256 160.749 257.201 157.463C259.716 150.91 256.094 147.113 250.082 148.697Z" fill="black"/>
</g>
<path d="M251.714 190.416L257.174 191.802L255.006 196.753C255.006 196.753 250.109 195.754 250.135 193.18L251.714 190.416Z" fill="#B55B52"/>
<path d="M259.271 195.16L257.656 199.078L255.006 196.753L257.174 191.802L259.271 195.16Z" fill="#B55B52"/>
</svg>
