<svg width="332" height="306" viewBox="0 0 332 306" fill="none" xmlns="http://www.w3.org/2000/svg">
<path d="M279.362 268.66C279.362 288.989 229.13 305.469 167.166 305.469C105.202 305.469 54.9697 288.989 54.9697 268.66C54.9697 248.332 105.202 231.852 167.166 231.852C229.13 231.852 279.362 248.331 279.362 268.66Z" fill="#F5F5F5"/>
<path d="M81.662 218.984H61.1328C57.2452 218.984 54.0938 222.136 54.0938 226.023V283.018C54.0938 286.906 57.2452 290.057 61.1328 290.057H81.662C85.5495 290.057 88.701 286.906 88.701 283.018V226.023C88.701 222.136 85.5495 218.984 81.662 218.984Z" fill="#263238"/>
<path d="M255.541 290.057H277.435C281.323 290.057 284.474 286.906 284.474 283.018V226.023C284.474 222.136 281.323 218.984 277.435 218.984H255.541C251.653 218.984 248.502 222.136 248.502 226.023V283.018C248.502 286.906 251.653 290.057 255.541 290.057Z" fill="#263238"/>
<path d="M65.1407 181.846C64.4879 181.978 61.3757 185.46 58.8601 188.381C56.6505 190.948 55.4251 194.262 55.4126 197.706C55.3704 209.269 55.6689 234.699 56.4347 239.077C57.3759 244.458 62.3172 263.29 63.4936 264.269C64.6701 265.247 72.6702 265.492 72.6702 265.492C72.6702 265.492 73.8466 201.657 72.6702 201.412C71.4937 201.167 65.1407 181.846 65.1407 181.846Z" fill="#A08CE6"/>
<path opacity="0.3" d="M65.1407 181.846C64.4879 181.978 61.3757 185.46 58.8601 188.381C56.6505 190.948 55.4251 194.262 55.4126 197.706C55.3704 209.269 55.6689 234.699 56.4347 239.077C57.3759 244.458 62.3172 263.29 63.4936 264.269C64.6701 265.247 72.6702 265.492 72.6702 265.492C72.6702 265.492 73.8466 201.657 72.6702 201.412C71.4937 201.167 65.1407 181.846 65.1407 181.846Z" fill="black"/>
<path d="M272.926 181.846C273.605 181.978 276.84 185.46 279.454 188.381C281.751 190.948 283.025 194.262 283.038 197.706C283.082 209.269 282.772 234.699 281.976 239.077C280.997 244.458 275.861 263.29 274.638 264.269C273.415 265.247 265.1 265.492 265.1 265.492C265.1 265.492 263.877 201.657 265.1 201.412C266.323 201.167 272.926 181.846 272.926 181.846Z" fill="#A08CE6"/>
<path opacity="0.3" d="M272.926 181.846C273.605 181.978 276.84 185.46 279.454 188.381C281.751 190.948 283.025 194.262 283.038 197.706C283.082 209.269 282.772 234.699 281.976 239.077C280.997 244.458 275.861 263.29 274.638 264.269C273.415 265.247 265.1 265.492 265.1 265.492C265.1 265.492 263.877 201.657 265.1 201.412C266.323 201.167 272.926 181.846 272.926 181.846Z" fill="black"/>
<path d="M273.703 240.378C273.703 240.378 275.459 188.965 273.899 179.237C272.568 170.934 249.269 124.54 242.472 111.126C240.298 106.836 237.146 103.138 233.201 100.552C230.439 98.7406 227.034 97.2551 223.209 97.1377C217.358 96.9581 181.1 97.0776 169.131 97.1226C157.163 97.0776 120.905 96.9581 115.054 97.1377C111.229 97.2551 107.824 98.7406 105.061 100.552C101.117 103.138 97.9649 106.836 95.7914 111.126C88.994 124.54 65.6953 170.934 64.364 179.237C62.8042 188.965 64.5597 240.378 64.5597 240.378L61.8301 247.269L67.2893 267.13C67.2893 267.13 94.5856 269.967 99.2649 269.967C103.944 269.967 107.844 265.103 107.844 265.103L165.298 266.891V267.13L169.131 267.011L172.965 267.13V266.891L230.419 265.103C230.419 265.103 234.319 269.967 238.998 269.967C243.677 269.967 270.974 267.13 270.974 267.13L276.433 247.269L273.703 240.378Z" fill="#A08CE6"/>
<path opacity="0.3" d="M266.385 227.305C231.58 236.03 182.991 237.345 169.132 237.544C155.272 237.345 106.683 236.03 71.8781 227.305C71.8781 227.305 67.7798 240.837 71.8781 249.106C71.8781 249.106 132.275 259.621 169.132 258.536C205.989 259.621 266.385 249.106 266.385 249.106C270.483 240.837 266.385 227.305 266.385 227.305Z" fill="black"/>
<path d="M92.855 157.682L99.461 142.366C100.81 139.237 103.802 137.224 107.1 137.224H230.737C233.923 137.224 236.833 139.104 238.243 142.074L245.408 157.16L92.855 157.682Z" fill="#263238"/>
<path opacity="0.5" d="M237.428 114.105C234.473 107.258 227.889 102.891 220.67 102.991H117.593C110.374 102.891 103.79 107.258 100.835 114.105L83.2983 154.737L165.298 155.632V155.716L169.131 155.674L172.965 155.716V155.632L254.964 154.737L237.428 114.105Z" fill="white"/>
<path d="M76.611 178.205C76.611 178.205 68.7619 182.157 66.9632 187.065C65.1645 191.973 65.3281 200.981 66.9632 204.041C68.5984 207.1 79.4487 210.204 89.6927 211.35C92.936 211.712 106.75 212.762 108.171 211.35C108.761 210.762 109.969 200.981 106.699 196.732C103.428 192.483 76.611 178.205 76.611 178.205Z" fill="white"/>
<path d="M76.3756 150.758C76.3756 150.758 72.7707 144.44 71.4983 144.072C70.226 143.705 57.7299 144.58 55.381 144.852C54.5587 144.947 51.7065 146.13 52.1306 148.995C52.5547 151.86 53.1909 156.489 56.089 157.885C58.9871 159.281 60.007 158.914 64.2329 159.061C68.4588 159.208 74.6084 158.84 75.1032 158.326C75.598 157.812 75.6687 157.077 75.6687 157.077L77.6479 158.473L79.8392 153.771L76.3756 150.758Z" fill="#A08CE6"/>
<path d="M81.4882 244.723C84.3553 244.723 86.6796 242.307 86.6796 239.327C86.6796 236.346 84.3553 233.93 81.4882 233.93C78.6211 233.93 76.2969 236.346 76.2969 239.327C76.2969 242.307 78.6211 244.723 81.4882 244.723Z" fill="#A24E3F"/>
<path d="M106.759 196.713C101.394 192.385 78.323 179.424 78.0905 179.294C75.5236 177.538 74.4876 174.299 75.546 171.401C77.353 166.453 80.9119 160.295 80.9475 160.234L81.5213 160.566C81.4857 160.627 77.9559 166.736 76.1689 171.629C75.2144 174.241 76.1485 177.162 78.4399 178.731C78.6478 178.845 101.768 191.834 107.175 196.198L106.759 196.713Z" fill="#263238"/>
<path d="M101.519 155.818C101.628 155.208 103.845 144.068 104.919 138.674C105.254 136.988 106.611 135.788 108.189 135.782C115.605 135.754 136.221 135.686 143.336 135.763C144.759 135.779 145.906 137.045 145.906 138.601L147.753 155.818H101.519Z" fill="#263238"/>
<path d="M134.54 114.772H118.808C115.56 114.772 112.928 117.405 112.928 120.652V126.958C112.928 130.205 115.56 132.837 118.808 132.837H134.54C137.788 132.837 140.42 130.205 140.42 126.958V120.652C140.42 117.405 137.788 114.772 134.54 114.772Z" fill="#263238"/>
<g opacity="0.2">
<path d="M101.519 155.818C101.628 155.208 103.845 144.068 104.919 138.674C105.254 136.988 106.611 135.788 108.189 135.782C115.605 135.754 136.221 135.686 143.336 135.763C144.759 135.779 145.906 137.045 145.906 138.601L147.753 155.818H101.519Z" fill="white"/>
<path d="M134.54 114.772H118.808C115.56 114.772 112.928 117.405 112.928 120.652V126.958C112.928 130.205 115.56 132.837 118.808 132.837H134.54C137.788 132.837 140.42 130.205 140.42 126.958V120.652C140.42 117.405 137.788 114.772 134.54 114.772Z" fill="white"/>
</g>
<path opacity="0.3" d="M78.1476 158.876L75.6688 157.077C75.5867 157.451 75.4295 158.132 74.815 158.469C74.2405 158.783 73.2298 158.762 72.5247 158.827L71.5918 160.872C71.5918 160.872 73.4809 160.157 74.8563 159.505C76.2315 158.852 76.1176 158.085 76.1176 158.085L78.1476 158.876Z" fill="black"/>
<path opacity="0.3" d="M77.3589 148.5L76.3369 150.653C77.0918 151.586 79.5499 154.391 79.5499 154.391L77.3589 148.5Z" fill="black"/>
<path d="M261.069 178.205C261.069 178.205 269.227 182.157 271.097 187.065C272.967 191.973 272.797 200.981 271.097 204.041C269.397 207.1 258.119 210.204 247.471 211.35C244.099 211.712 229.74 212.762 228.264 211.35C227.65 210.762 226.394 200.981 229.794 196.732C233.193 192.483 261.069 178.205 261.069 178.205Z" fill="white"/>
<path d="M261.314 150.758C261.314 150.758 265.061 144.44 266.383 144.072C267.706 143.705 280.695 144.58 283.136 144.852C283.991 144.947 286.956 146.13 286.515 148.995C286.074 151.86 285.413 156.489 282.401 157.885C279.388 159.281 278.328 158.914 273.935 159.061C269.543 159.208 263.15 158.84 262.636 158.326C262.122 157.812 262.048 157.077 262.048 157.077L259.991 158.473L257.713 153.771L261.314 150.758Z" fill="#A08CE6"/>
<path opacity="0.3" d="M170.894 201.709V201.673C170.894 201.673 169.451 201.699 166.984 201.709C164.518 201.699 163.074 201.673 163.074 201.673V201.709C148.913 201.655 119.341 200.978 106.967 196.455C106.967 196.455 110.276 207.693 113.032 210.877C115.789 214.061 118.914 216.309 126.082 217.058C132.017 217.678 149.497 218.335 163.074 218.755L163.081 218.755C165.898 218.843 168.552 218.695 170.894 218.759C184.679 218.599 201.925 217.681 207.887 217.058C215.055 216.309 218.179 214.061 220.936 210.877C223.693 207.693 227.001 196.455 227.001 196.455C214.628 200.978 185.056 201.655 170.894 201.709Z" fill="black"/>
<path d="M259.815 243.142C261.922 241.035 261.922 237.618 259.815 235.511C257.707 233.404 254.291 233.404 252.183 235.511C250.076 237.618 250.076 241.035 252.183 243.142C254.291 245.25 257.707 245.25 259.815 243.142Z" fill="#A24E3F"/>
<path d="M226.517 196.977L226.268 196.363C234.62 192.976 258.951 178.86 259.196 178.717C261.531 177.179 262.508 174.152 261.503 171.53C259.627 166.639 256.636 160.16 256.606 160.095L257.208 159.816C257.238 159.882 260.239 166.381 262.122 171.293C263.237 174.202 262.153 177.562 259.545 179.281C259.284 179.433 234.912 193.573 226.517 196.977Z" fill="#263238"/>
<path d="M231.594 154.216C231.479 153.587 229.149 142.093 228.019 136.527C227.666 134.788 226.24 133.549 224.58 133.543C216.784 133.514 195.106 133.444 187.625 133.524C186.128 133.54 184.923 134.846 184.923 136.452L182.98 154.216H231.594Z" fill="#263238"/>
<path opacity="0.2" d="M231.594 154.216C231.479 153.587 229.149 142.093 228.019 136.527C227.666 134.788 226.24 133.549 224.58 133.543C216.784 133.514 195.106 133.444 187.625 133.524C186.128 133.54 184.923 134.846 184.923 136.452L182.98 154.216H231.594Z" fill="white"/>
<path d="M198.066 131.716H216.508C219.756 131.716 222.388 129.083 222.388 125.836V118.121C222.388 114.873 219.756 112.241 216.508 112.241H198.066C194.818 112.241 192.186 114.873 192.186 118.121V125.836C192.186 129.083 194.818 131.716 198.066 131.716Z" fill="#263238"/>
<path opacity="0.2" d="M198.066 131.716H216.508C219.756 131.716 222.388 129.083 222.388 125.836V118.121C222.388 114.873 219.756 112.241 216.508 112.241H198.066C194.818 112.241 192.186 114.873 192.186 118.121V125.836C192.186 129.083 194.818 131.716 198.066 131.716Z" fill="white"/>
<path opacity="0.3" d="M259.472 158.876L262.048 157.077C262.134 157.451 262.297 158.132 262.936 158.469C263.533 158.783 264.583 158.762 265.316 158.827L266.286 160.872C266.286 160.872 264.322 160.157 262.893 159.505C261.463 158.852 261.582 158.085 261.582 158.085L259.472 158.876Z" fill="black"/>
<path opacity="0.3" d="M260.291 148.5L261.353 150.653C260.569 151.586 258.014 154.391 258.014 154.391L260.291 148.5Z" fill="black"/>
<path opacity="0.2" d="M170.283 163.33C169.332 163.33 87.9317 162.289 85.078 162.966C83.2284 163.405 81.4542 168.232 80.4346 171.575C79.856 173.472 80.5889 175.53 82.2045 176.597C88.8712 181.003 107.199 192.048 127.078 195.136C151.902 198.991 166.646 196.272 170.927 192.564C175.208 188.856 171.234 163.33 170.283 163.33Z" fill="white"/>
<path d="M193.029 135.342C193.173 135.558 196.136 148.571 196.136 148.571L193.069 158.465H180.248C180.248 158.465 187.614 140.564 189.015 138.251C190.399 135.968 193.029 135.342 193.029 135.342Z" fill="#A08CE6"/>
<path d="M221.545 135.342C221.401 135.558 218.438 148.571 218.438 148.571L221.505 158.465H234.326C234.326 158.465 226.96 140.564 225.558 138.251C224.175 135.968 221.545 135.342 221.545 135.342Z" fill="#A08CE6"/>
<path d="M221.9 135.342C219.019 135.152 204.79 132.845 193.029 135.342L193.076 158.465H223.967L221.9 135.342Z" fill="#A08CE6"/>
<path d="M215.438 114.086C215.438 114.086 221.679 110.571 217.975 106.801C215.052 103.827 212.467 104.261 208.558 104.973C198.977 106.717 199.535 110.709 199.535 110.709L215.438 114.086Z" fill="#263238"/>
<path d="M203.238 134.188C203.238 134.188 203.75 130.513 201.599 124.143C201.599 124.136 201.932 123.97 201.932 123.963C201.635 123.072 201.324 122.25 201.034 121.539C201.027 121.518 201.027 121.511 201.027 121.511L210.089 126.581C209.972 128.653 210.886 132.608 211.401 134.272C211.401 134.272 212.648 137.272 208.598 137.582C205.639 137.809 203.238 134.188 203.238 134.188Z" fill="#B97964"/>
<path opacity="0.2" d="M210.367 129.475L205.238 128.551C205.768 130.111 207.247 131.922 210.788 131.921C210.788 131.921 210.359 130.169 210.367 129.475Z" fill="black"/>
<path d="M200.772 117.227C201.611 122.796 201.971 125.954 205.056 128.551C209.697 132.459 216.237 129.36 217.081 123.636C217.841 118.484 216.342 110.243 210.658 108.552C205.058 106.887 199.933 111.659 200.772 117.227Z" fill="#B97964"/>
<path d="M199.467 110.558C206.304 103.973 213.259 107.667 215.922 111.277L203.994 111.418C203.472 111.408 203.177 111.951 203.29 112.944C203.29 112.944 207.426 120.36 201.725 124.522C199.686 123.742 199.271 120.349 198.475 118.378C197.29 115.44 195.794 111.117 199.467 110.558Z" fill="#263238"/>
<path d="M198.974 122.09C199.548 123.492 200.72 124.491 201.879 124.945C203.623 125.627 204.085 123.745 203.771 121.995C203.488 120.42 202.854 118.527 201.021 118.593C199.215 118.657 198.316 120.487 198.974 122.09Z" fill="#B97964"/>
<path d="M208.295 118.038C208.345 118.611 208.69 119.045 209.065 119.009C209.44 118.972 209.703 118.477 209.652 117.904C209.601 117.331 209.257 116.897 208.882 116.934C208.507 116.97 208.244 117.465 208.295 118.038Z" fill="#263238"/>
<path d="M214.083 117.849C214.134 118.422 214.479 118.857 214.853 118.82C215.228 118.783 215.491 118.289 215.441 117.716C215.39 117.143 215.045 116.708 214.67 116.745C214.296 116.782 214.033 117.276 214.083 117.849Z" fill="#263238"/>
<path d="M212.703 117.595C212.703 117.595 214.768 120.282 215.452 121.39C214.718 122.181 213.315 121.97 213.315 121.97L212.703 117.595Z" fill="#A24E3F"/>
<path d="M207.29 115.559C207.38 115.587 207.482 115.567 207.556 115.497C208.438 114.675 209.405 114.895 209.414 114.897C209.559 114.932 209.706 114.843 209.742 114.699C209.778 114.555 209.689 114.41 209.545 114.375C209.494 114.363 208.283 114.087 207.189 115.107C207.079 115.209 207.073 115.379 207.175 115.487C207.207 115.522 207.247 115.546 207.29 115.559Z" fill="#263238"/>
<path d="M211.342 124.222C210.362 124.222 209.597 123.72 208.971 123.216C208.864 123.129 208.847 122.973 208.933 122.866C209.02 122.758 209.176 122.743 209.283 122.828C210.143 123.521 210.833 123.783 211.574 123.714C211.719 123.695 211.832 123.801 211.846 123.937C211.859 124.074 211.759 124.196 211.622 124.209C211.527 124.218 211.433 124.222 211.342 124.222Z" fill="#263238"/>
<path opacity="0.2" d="M202.82 122.046C202.743 122.046 202.674 121.992 202.658 121.913C202.566 121.463 202.357 121.043 202.054 120.699C201.859 120.477 201.541 120.199 201.136 120.137C200.776 120.079 200.411 120.238 200.26 120.509C200.216 120.59 200.114 120.618 200.035 120.574C199.955 120.53 199.926 120.429 199.97 120.349C200.189 119.954 200.69 119.734 201.186 119.809C201.69 119.887 202.071 120.217 202.303 120.48C202.644 120.868 202.879 121.34 202.983 121.847C203.001 121.937 202.943 122.024 202.853 122.043C202.842 122.045 202.831 122.046 202.82 122.046Z" fill="black"/>
<path d="M216.825 115.114C216.873 115.099 216.919 115.069 216.954 115.027C217.048 114.911 217.032 114.741 216.918 114.646C215.772 113.701 214.593 114.076 214.538 114.086C214.396 114.131 214.317 114.283 214.361 114.425C214.405 114.567 214.554 114.645 214.695 114.601C214.744 114.583 215.656 114.307 216.576 115.065C216.648 115.125 216.742 115.14 216.825 115.114Z" fill="#263238"/>
<g opacity="0.2">
<path d="M208.677 121.727C208.184 122.261 207.92 123.002 207.964 123.728C207.964 123.728 207.632 123.152 207.779 122.544C207.927 121.936 208.677 121.727 208.677 121.727Z" fill="black"/>
</g>
<path d="M210.567 131.254L213.798 134.16L208.404 140.701L200.611 134.131L202.921 130.736L207.792 134.804L210.567 131.254Z" fill="#A08CE6"/>
<path opacity="0.8" d="M210.567 131.254L213.798 134.16L208.404 140.701L200.611 134.131L202.921 130.736L207.792 134.804L210.567 131.254Z" fill="white"/>
<path d="M226.539 159.639H223.887C223.887 151.06 216.907 144.08 208.328 144.08C199.748 144.08 192.769 151.06 192.769 159.639H190.117C190.117 149.597 198.286 141.428 208.328 141.428C218.369 141.428 226.539 149.597 226.539 159.639Z" fill="#263238"/>
<path d="M195.521 144.407C195.521 144.407 193.439 143.019 193.123 144.849C193.123 144.849 190.915 144.849 190.978 146.868C190.978 146.868 189.212 147.12 189.969 149.139C189.969 149.139 188.581 149.517 189.527 151.284C190.473 153.05 192.303 154.754 193.249 154.565C194.196 154.375 194.196 153.114 194.196 153.114C194.196 153.114 196.719 153.808 196.215 151.726C196.215 151.726 196.972 152.356 197.477 151.347C197.981 150.338 197.477 149.833 197.477 149.833C197.477 149.833 198.108 150.479 198.549 149.241C198.991 148.003 196.593 145.29 195.521 144.407Z" fill="#B97964"/>
<path d="M219.004 143.258C219.004 143.258 221.086 141.87 221.402 143.7C221.402 143.7 223.61 143.7 223.547 145.719C223.547 145.719 225.314 145.971 224.556 147.99C224.556 147.99 225.944 148.369 224.998 150.135C224.052 151.902 222.222 153.605 221.276 153.416C220.329 153.227 220.329 151.965 220.329 151.965C220.329 151.965 217.806 152.659 218.31 150.577C218.31 150.577 217.553 151.208 217.049 150.198C216.544 149.189 217.049 148.684 217.049 148.684C217.049 148.684 216.418 149.33 215.976 148.092C215.534 146.855 217.932 144.142 219.004 143.258Z" fill="#B97964"/>
<path d="M254.998 154.468L165.414 155.082L83.4875 154.392L80.7085 160.808L165.414 160.972L257.776 160.808L254.998 154.468Z" fill="#263238"/>
<path d="M158.154 201.611L159.337 207.72C167.117 209.021 174.769 209.109 182.265 207.72L183.278 201.611C175.88 201.856 167.351 201.682 158.154 201.611Z" fill="#263238"/>
<path d="M176.039 109.429C175.909 108.525 175.786 107.554 175.653 106.86C175.547 106.304 175.058 105.906 174.492 105.906H158.393C157.827 105.906 157.338 106.304 157.231 106.86C157.099 107.554 156.976 108.525 156.846 109.429C156.661 110.722 157.66 111.881 158.966 111.881H173.919C175.225 111.881 176.224 110.722 176.039 109.429Z" fill="#263238"/>
<path d="M167.478 102.991H165.406V106.625H167.478V102.991Z" fill="#263238"/>
<path opacity="0.3" d="M93.5121 131.204C93.499 131.235 159.189 102.99 159.189 102.99H177.357L88.5498 142.702L93.5121 131.204Z" fill="white"/>
<path opacity="0.3" d="M85.9903 148.5L194.857 102.99H220.67L98.1867 154.613L83.4478 154.391L85.9903 148.5Z" fill="white"/>
<path d="M278.441 80.9829C274.29 72.6838 264.198 69.3209 255.899 73.4716C247.94 77.4518 244.526 86.8954 247.919 94.9826L245.622 99.7627L250.797 99.5958C255.713 105.193 263.954 107.013 270.929 103.525C279.229 99.3743 282.592 89.282 278.441 80.9829Z" fill="#A08CE6"/>
<path opacity="0.6" d="M278.441 80.9829C274.29 72.6838 264.198 69.3209 255.899 73.4716C247.94 77.4518 244.526 86.8954 247.919 94.9826L245.622 99.7627L250.797 99.5958C255.713 105.193 263.954 107.013 270.929 103.525C279.229 99.3743 282.592 89.282 278.441 80.9829Z" fill="white"/>
<path d="M244.249 86.4107H244.243C244.106 86.4075 243.997 86.2935 244 86.1563C244.131 80.6336 247.269 75.2165 251.994 72.3553C252.111 72.2851 252.265 72.322 252.335 72.4392C252.407 72.5567 252.369 72.7095 252.252 72.7808C247.668 75.5562 244.624 80.811 244.497 86.1679C244.494 86.3032 244.383 86.4107 244.249 86.4107Z" fill="#A08CE6"/>
<path d="M244.546 91.3846C244.441 91.3846 244.344 91.3179 244.309 91.213C244.042 90.3916 243.946 89.5034 244.03 88.6445C244.043 88.5081 244.158 88.4019 244.302 88.4214C244.439 88.4346 244.539 88.5564 244.525 88.693C244.447 89.4843 244.536 90.3025 244.782 91.0589C244.825 91.1897 244.753 91.3298 244.623 91.3723C244.597 91.3807 244.571 91.3846 244.546 91.3846Z" fill="#A08CE6"/>
<path d="M256.949 87.0242C257.043 86.1827 257.448 85.3937 258.01 84.7603C258.56 84.14 259.28 83.6497 260.089 83.4704C260.95 83.2801 261.885 83.4602 262.613 83.9564C263.046 84.2516 263.402 84.656 263.648 85.1184C263.887 84.7066 264.213 84.346 264.605 84.0752C265.329 83.5739 266.264 83.3872 267.125 83.5717C267.936 83.7453 268.659 84.2305 269.214 84.8471C269.78 85.4765 270.191 86.2628 270.29 87.1035C270.414 88.1567 270.214 89.3105 269.671 90.221C269.097 91.1827 268.168 91.9611 267.211 92.5423C265.601 93.5195 263.482 94.7433 263.482 94.7433C263.482 94.7433 261.682 93.4073 260.066 92.4413C259.105 91.8668 258.17 91.0951 257.59 90.1376C257.04 89.2306 256.833 88.0781 256.949 87.0242Z" fill="#A08CE6"/>
</svg>
