<svg width="399" height="345" viewBox="0 0 399 345" fill="none" xmlns="http://www.w3.org/2000/svg">
<path d="M199.111 344.328C309.077 344.328 398.222 297.042 398.222 238.712C398.222 180.382 309.077 133.097 199.111 133.097C89.145 133.097 0 180.382 0 238.712C0 297.042 89.145 344.328 199.111 344.328Z" fill="#F5F5F5"/>
<path d="M330.395 290.505C361.592 290.505 386.882 277.091 386.882 260.543C386.882 243.995 361.592 230.58 330.395 230.58C299.199 230.58 273.909 243.995 273.909 260.543C273.909 277.091 299.199 290.505 330.395 290.505Z" fill="#E0E0E0"/>
<path d="M187.441 276.706L123.72 242.895L196.555 204.264L260.285 238.067L187.441 276.706Z" fill="#E0E0E0"/>
<path d="M13.9287 266.25L96.1152 309.841L165.05 273.286L82.8632 229.694L13.9287 266.25Z" fill="#E0E0E0"/>
<path d="M135.457 61.3541V57.0626C135.422 56.8147 135.317 56.5792 135.154 56.379C134.991 56.1788 134.775 56.0207 134.526 55.9198L106.321 41.0551C105.649 40.7447 104.907 40.583 104.154 40.583C103.402 40.583 102.66 40.7447 101.988 41.0551L20.927 83.8145C20.6779 83.9153 20.4614 84.0735 20.2983 84.2737C20.1353 84.4739 20.0312 84.7093 19.9961 84.9573V89.2488C20.0304 89.497 20.1342 89.7328 20.2973 89.9331C20.4605 90.1334 20.6774 90.2914 20.927 90.3916L49.1236 105.233C49.7957 105.543 50.5376 105.705 51.2899 105.705C52.0422 105.705 52.7841 105.543 53.4563 105.233L134.517 62.4736C134.767 62.3734 134.984 62.2154 135.147 62.0151C135.31 61.8148 135.414 61.579 135.448 61.3308L135.457 61.3541Z" fill="#F0F0F0"/>
<path d="M20.9271 86.0768L49.1237 100.942C49.7947 101.256 50.5371 101.419 51.2901 101.419C52.0431 101.419 52.7855 101.256 53.4565 100.942L134.517 58.1822C135.711 57.5524 135.711 56.534 134.517 55.8965L106.321 41.0551C105.649 40.7447 104.907 40.583 104.154 40.583C103.402 40.583 102.66 40.7447 101.988 41.0551L20.9271 83.8144C19.7339 84.4286 19.7339 85.4471 20.9271 86.0768Z" fill="#FAFAFA"/>
<path d="M51.2899 101.424V105.708C50.5361 105.718 49.7914 105.555 49.1236 105.233L20.927 90.4075C20.6774 90.3072 20.4605 90.1492 20.2973 89.9489C20.1342 89.7486 20.0304 89.5128 19.9961 89.2646V84.9654C20.0127 84.7916 20.0736 84.6238 20.1738 84.4756C19.8438 85.0276 20.0892 85.6651 20.927 86.1082L49.1236 100.95C49.7896 101.275 50.5355 101.439 51.2899 101.424Z" fill="#E0E0E0"/>
<path d="M66.4375 65.1637L90.3268 77.6728L129.787 56.8684L105.906 44.3516L66.4375 65.1637Z" fill="#E0E0E0"/>
<path d="M90.5967 76.7242L67.5537 64.5727C68.1525 62.7779 68.108 60.8538 67.4268 59.084L90.3259 71.1033C90.3259 71.1033 90.766 72.4327 90.5967 76.7242Z" fill="white"/>
<path d="M89.1508 69.4167C89.7939 69.7984 90.3299 70.3142 90.7152 70.9221C91.1004 71.53 91.3241 72.2129 91.368 72.9151V77.0045C91.368 78.2951 90.3694 78.8159 89.1508 78.1784L66.4717 66.1747V65.164L88.88 76.9034C89.6163 77.2922 90.2086 76.9734 90.2086 76.2037V72.4098C90.1831 71.9884 90.0495 71.5786 89.8186 71.2138C89.5877 70.8489 89.2661 70.5395 88.88 70.3107L66.4717 58.5325V57.3818L89.1508 69.4167Z" fill="#EBEBEB"/>
<path d="M66.4717 57.4205L105.906 36.6084L128.611 48.581C129.256 48.9631 129.793 49.48 130.178 50.0894C130.563 50.6989 130.786 51.3835 130.828 52.0873V56.2C130.858 56.4514 130.813 56.7057 130.699 56.9357C130.584 57.1657 130.403 57.3628 130.176 57.5061L90.7164 78.3182C90.9392 78.1717 91.1159 77.9738 91.2289 77.7445C91.3418 77.5152 91.3869 77.2626 91.3595 77.0121V72.915C91.3183 72.2121 91.0958 71.5283 90.7103 70.92C90.3248 70.3117 89.7874 69.7964 89.1424 69.4165L66.4717 57.4205Z" fill="#FAFAFA"/>
<path d="M90.7158 70.9011C91.1181 71.501 91.3427 72.1871 91.3674 72.8913V76.9884C91.3948 77.2389 91.3497 77.4915 91.2368 77.7208C91.1239 77.9502 90.9471 78.1481 90.7243 78.2945L130.184 57.4824C130.411 57.3391 130.592 57.142 130.706 56.912C130.821 56.682 130.866 56.4278 130.836 56.1763V52.0869C130.811 51.3827 130.587 50.6966 130.184 50.0967L90.7158 70.9011Z" fill="#F0F0F0"/>
<path d="M42.1494 34.0273L41.9209 36.795L68.5943 49.9416L69.1951 48.3245L42.1494 34.0273Z" fill="#EBEBEB"/>
<path d="M68.8399 48.969L43.0043 35.2705L38.5107 37.6495L64.8541 51.8067L68.8399 48.969Z" fill="white"/>
<path d="M60.0055 50.3379L57.4668 77.8438C57.4793 78.1543 57.5726 78.4576 57.739 78.7281C57.9054 78.9987 58.14 79.2286 58.423 79.3987L73.4099 87.3675C73.649 87.489 73.9155 87.5582 74.1884 87.5696L64.8798 52.7324C64.6083 52.7188 64.343 52.6525 64.1013 52.5381L63.0266 51.9627L60.0055 50.3379Z" fill="#E0E0E0"/>
<path d="M65.9966 52.5066L68.6707 50.3997L70.6255 48.8448C70.8286 48.5494 71.0655 48.3317 70.9386 48.0674L80.1287 82.648C80.2557 82.8891 80.2895 83.4255 79.9256 83.6276L75.2967 87.2661C74.9464 87.4366 74.5485 87.5069 74.1543 87.4682L64.8457 52.631C65.2344 52.6926 65.6341 52.6494 65.9966 52.5066Z" fill="#F0F0F0"/>
<path d="M70.6337 47.8421C71.1584 48.122 71.0315 48.433 70.6337 48.8528L65.9964 52.499C65.7012 52.6407 65.3731 52.7147 65.0401 52.7147C64.7071 52.7147 64.379 52.6407 64.0839 52.499L60.005 50.3377C59.4719 50.0578 59.3788 49.6536 59.7934 49.4359C60.0659 49.3343 60.3601 49.2914 60.6534 49.3102C60.9467 49.3291 61.2315 49.4093 61.4859 49.5447L64.7016 51.2551C64.8 51.3009 64.9087 51.3247 65.019 51.3247C65.1292 51.3247 65.2379 51.3009 65.3363 51.2551L68.7212 48.5496C68.899 48.4563 68.899 48.3086 68.7212 48.2153L42.1494 34.027L43.4188 33.3506L70.6337 47.8421Z" fill="#FAFAFA"/>
<path d="M34.4492 35.3564L59.8617 48.8373V93.2604L34.4492 79.7718V35.3564Z" fill="#EBEBEB"/>
<path d="M59.0404 49.5761L34.4488 36.6084C32.9448 38.0733 30.975 39.0639 28.8213 39.4383L53.2098 52.3516C53.2098 52.3516 54.7838 52.0095 59.0404 49.5761Z" fill="white"/>
<path d="M50.8492 52.3127C51.5821 52.65 52.3905 52.8256 53.2102 52.8256C54.0299 52.8256 54.8383 52.65 55.5712 52.3127L59.7008 50.0893C61.004 49.3973 61.004 48.2856 59.7008 47.5937L35.4731 34.8125L34.4491 35.3567L58.2876 48.0057C58.4634 48.0528 58.6178 48.151 58.7276 48.2856C58.8375 48.4202 58.8969 48.5838 58.8969 48.7521C58.8969 48.9203 58.8375 49.0839 58.7276 49.2185C58.6178 49.3531 58.4634 49.4513 58.2876 49.4984L54.4372 51.5353C53.9974 51.7384 53.512 51.8441 53.0198 51.8441C52.5275 51.8441 52.0421 51.7384 51.6023 51.5353L27.7723 38.8785L26.6045 39.4927L50.8492 52.3127Z" fill="#FAFAFA"/>
<path d="M26.6133 39.4932V83.9085L50.8495 96.6896C51.5824 97.0269 52.3908 97.2025 53.2105 97.2025C54.0302 97.2025 54.8386 97.0269 55.5715 96.6896L59.7181 94.505C59.9876 94.3958 60.2202 94.222 60.3914 94.0017C60.5626 93.7815 60.6662 93.523 60.6912 93.2533V48.838C60.665 49.1085 60.5589 49.3672 60.3844 49.5864C60.2099 49.8056 59.9737 49.9769 59.7011 50.0819L55.5715 52.3132C54.8386 52.6504 54.0302 52.826 53.2105 52.826C52.3908 52.826 51.5824 52.6504 50.8495 52.3132L26.6133 39.4932Z" fill="#EBEBEB"/>
<path d="M53.2103 52.7873C54.0318 52.8022 54.8441 52.6256 55.5713 52.2742L59.7009 50.0818C59.9703 49.9746 60.2031 49.8023 60.3744 49.5833C60.5458 49.3643 60.6494 49.1067 60.6741 48.8379V93.2532C60.649 93.5229 60.5455 93.7814 60.3742 94.0016C60.203 94.2218 59.9704 94.3957 59.7009 94.5049L55.5544 96.6895C54.8271 97.0409 54.0149 97.2175 53.1934 97.2026L53.2103 52.7873Z" fill="#F0F0F0"/>
<path d="M257.356 214.021C257.229 212.054 256.942 209.698 256.595 206.962C255.3 196.575 253.531 182.348 258.219 168.719C261.071 160.424 267.943 150.589 278.673 147.86C281.059 147.254 286.831 146.36 289.048 151.063C289.359 151.743 289.545 152.466 289.598 153.201C289.826 156.187 288.362 158.822 286.738 161.225C284.867 164.016 282.701 166.667 280.602 169.248C278.622 171.689 276.566 174.208 274.772 176.82C272.834 179.658 271.137 182.629 269.694 185.706L269.009 185.434C270.449 182.326 272.146 179.324 274.086 176.455C275.889 173.819 277.954 171.285 279.951 168.836C282.032 166.27 284.182 163.627 286.044 160.867C287.601 158.535 289.005 156.039 288.794 153.248C288.748 152.59 288.582 151.943 288.303 151.336C286.323 147.13 281.009 147.969 278.817 148.521C268.374 151.18 261.664 160.805 258.871 168.921C254.234 182.418 255.994 196.559 257.28 206.884C257.619 209.628 257.915 211.999 258.042 213.982L257.356 214.021Z" fill="#C7C7C7"/>
<path d="M258.118 225.325C258.062 225.332 258.005 225.332 257.949 225.325C257.786 225.296 257.634 225.232 257.503 225.139C257.372 225.046 257.267 224.926 257.196 224.788C257.048 224.403 257.048 223.984 257.196 223.599C257.315 222.854 257.315 222.097 257.196 221.352C257.196 220.932 257.12 220.489 257.12 220.093V215.265C257.795 206.592 260.562 198.166 265.218 190.596C269.348 183.996 273.917 179.603 279.604 176.758C282.67 175.21 286.031 174.22 289.505 173.842C292.572 173.531 295.655 174.279 298.154 175.942C300.735 177.815 301.894 181.026 300.921 183.568C300.235 185.349 298.67 186.678 297.07 187.883C294.219 190.021 291.104 191.934 288.1 193.784C285.604 195.339 283.023 196.894 280.611 198.604C273.233 203.836 267.043 210.347 262.392 217.768C261.63 218.973 260.911 220.217 260.251 221.461L259.98 221.951C259.716 222.395 259.484 222.854 259.286 223.327C259.244 223.428 259.201 223.638 259.142 223.879C259.099 224.322 258.946 224.75 258.694 225.13C258.535 225.259 258.33 225.328 258.118 225.325ZM290.724 174.488C290.343 174.488 289.962 174.488 289.573 174.534C286.202 174.896 282.939 175.857 279.968 177.364C274.417 180.14 269.94 184.455 265.878 190.938C261.284 198.414 258.553 206.733 257.881 215.296V220.077C257.881 220.45 257.881 220.854 257.957 221.282C258.093 222.096 258.093 222.925 257.957 223.739C257.866 223.991 257.866 224.264 257.957 224.516C257.979 224.556 258.01 224.59 258.048 224.617C258.086 224.644 258.13 224.663 258.177 224.672C258.328 224.384 258.431 224.078 258.482 223.762C258.522 223.546 258.579 223.333 258.651 223.125C258.858 222.625 259.101 222.14 259.379 221.671L259.641 221.189C260.318 219.929 261.046 218.678 261.808 217.457C263.39 214.941 265.145 212.521 267.063 210.211C270.854 205.66 275.278 201.586 280.222 198.091C282.659 196.381 285.249 194.787 287.753 193.247C290.749 191.405 293.838 189.5 296.673 187.386C298.179 186.258 299.66 184.991 300.286 183.374C301.132 181.096 300.091 178.212 297.747 176.509C295.724 175.123 293.247 174.41 290.724 174.488Z" fill="#C7C7C7"/>
<path d="M257.483 218.685H257.39C257.342 218.675 257.297 218.657 257.257 218.63C257.218 218.604 257.184 218.57 257.159 218.532C257.134 218.494 257.117 218.451 257.11 218.406C257.103 218.362 257.106 218.317 257.119 218.273C264.1 192.695 283.403 181.282 293.71 178.569C293.804 178.545 293.905 178.556 293.991 178.6C294.076 178.643 294.139 178.716 294.167 178.802C294.193 178.89 294.182 178.984 294.134 179.063C294.087 179.143 294.008 179.203 293.913 179.23C283.758 181.897 264.743 193.162 257.846 218.436C257.823 218.508 257.775 218.571 257.709 218.616C257.644 218.661 257.564 218.685 257.483 218.685Z" fill="#C7C7C7"/>
<path d="M257.442 197.694C257.342 197.686 257.25 197.643 257.185 197.573C257.12 197.503 257.088 197.413 257.095 197.321C259.32 169.699 278.987 154.562 281.221 152.937C281.259 152.908 281.303 152.886 281.35 152.873C281.397 152.86 281.447 152.855 281.496 152.861C281.545 152.866 281.592 152.88 281.635 152.902C281.678 152.925 281.716 152.955 281.746 152.991C281.776 153.026 281.799 153.067 281.813 153.11C281.826 153.153 281.831 153.199 281.825 153.244C281.82 153.288 281.804 153.332 281.781 153.371C281.757 153.411 281.725 153.445 281.686 153.473C279.478 155.083 260.04 170.041 257.848 197.376C257.837 197.466 257.789 197.55 257.714 197.609C257.638 197.668 257.541 197.699 257.442 197.694Z" fill="#C7C7C7"/>
<path d="M255.099 101.361L208.04 76.4133C207.676 76.1733 207.25 76.026 206.804 75.9864C206.358 75.9468 205.909 76.0163 205.501 76.1878L202.116 77.9837C201.744 78.2218 201.448 78.5471 201.259 78.9258C201.07 79.3045 200.995 79.7228 201.042 80.1372V198.472C201.111 199.625 201.475 200.747 202.104 201.746C202.733 202.746 203.61 203.595 204.664 204.225L251.714 229.142C252.077 229.383 252.504 229.532 252.95 229.573C253.395 229.614 253.845 229.546 254.253 229.375L257.638 227.572C258.006 227.332 258.298 227.007 258.483 226.63C258.669 226.253 258.743 225.838 258.696 225.426V107.115C258.63 105.963 258.27 104.843 257.646 103.843C257.021 102.844 256.148 101.994 255.099 101.361Z" fill="#263238"/>
<path d="M211.178 200.5L207.793 202.296V212.138C207.81 212.427 207.901 212.707 208.058 212.957C208.216 213.207 208.435 213.419 208.698 213.577L210.281 214.416C210.562 214.547 210.872 214.615 211.186 214.615C211.501 214.615 211.811 214.547 212.092 214.416L213.674 213.577C214.237 213.243 214.671 212.756 214.918 212.185L217.973 204.1L211.178 200.5Z" fill="#263238"/>
<path d="M207.793 212.139C207.81 212.428 207.901 212.708 208.058 212.958C208.216 213.208 208.435 213.42 208.698 213.578L210.281 214.417C210.39 214.478 210.513 214.515 210.64 214.526C210.768 214.537 210.896 214.521 211.016 214.48C211.135 214.439 211.243 214.374 211.332 214.289C211.42 214.204 211.486 214.101 211.525 213.99L214.563 205.896L207.793 202.297V212.139Z" fill="#37474F"/>
<path d="M245.13 218.452L241.745 220.256V230.09C241.761 230.379 241.85 230.661 242.006 230.912C242.162 231.163 242.38 231.377 242.642 231.537L244.233 232.376C244.512 232.507 244.821 232.575 245.134 232.575C245.448 232.575 245.756 232.507 246.036 232.376L247.626 231.537C248.189 231.203 248.624 230.716 248.87 230.145L251.917 222.052L245.13 218.452Z" fill="#263238"/>
<path d="M241.745 230.091C241.761 230.379 241.85 230.661 242.006 230.912C242.162 231.163 242.38 231.377 242.642 231.537L244.233 232.376C244.342 232.437 244.465 232.474 244.593 232.485C244.72 232.496 244.848 232.48 244.968 232.439C245.087 232.398 245.195 232.333 245.284 232.248C245.372 232.163 245.438 232.06 245.477 231.949L248.532 223.855L241.762 220.256L241.745 230.091Z" fill="#37474F"/>
<path d="M204.882 78.3019L251.933 103.18C252.986 103.812 253.863 104.662 254.492 105.663C255.121 106.664 255.485 107.787 255.555 108.941V227.276C255.644 227.691 255.59 228.122 255.399 228.508C255.209 228.894 254.891 229.215 254.492 229.427C254.092 229.639 253.631 229.73 253.172 229.689C252.713 229.647 252.28 229.475 251.933 229.196L204.882 204.271C203.83 203.641 202.954 202.791 202.326 201.791C201.698 200.792 201.336 199.67 201.268 198.518V80.2144C201.178 79.7995 201.231 79.3689 201.421 78.9835C201.611 78.598 201.928 78.277 202.327 78.0658C202.727 77.8545 203.188 77.7637 203.646 77.8061C204.104 77.8484 204.537 78.0218 204.882 78.3019Z" fill="#37474F"/>
<path d="M136.558 240.049L187.45 267.042L258.703 229.251L255.31 227.447L204.417 200.454L136.558 236.45V240.049Z" fill="#455A64"/>
<path d="M187.45 267.042V263.443L258.703 225.651V229.251L187.45 267.042Z" fill="#263238"/>
<path d="M187.772 261.802L187.256 261.484C196.285 248.928 196.226 227.237 195.49 221.795C195.431 221.43 195.388 221.204 195.38 221.119L195.997 221.025C195.997 221.196 196.065 221.399 196.099 221.64C196.759 225.488 200.491 246.393 204.908 252.737L204.384 253.048C200.889 248.065 197.902 234.615 196.404 226.856C196.497 235.665 195.1 251.672 187.772 261.802Z" fill="#FAFAFA"/>
<path d="M217.493 242.631C216.723 242.421 198.732 237.414 197.073 230.121L197.691 230.005C199.265 236.963 217.484 242.032 217.671 242.086L217.493 242.631Z" fill="#FAFAFA"/>
<path d="M199.331 239.676L198.875 237.896C198.812 237.569 198.631 237.271 198.36 237.05C198.09 236.83 197.746 236.701 197.385 236.683C197.087 236.643 196.783 236.688 196.514 236.811C196.244 236.935 196.023 237.132 195.879 237.375L195.295 237.149C195.491 236.794 195.802 236.502 196.185 236.316C196.569 236.129 197.006 236.056 197.436 236.107C197.747 236.125 198.051 236.204 198.327 236.338C198.602 236.472 198.844 236.659 199.035 236.885C199.137 236.148 199.547 235.476 200.178 235.011C200.417 234.896 200.685 234.84 200.954 234.848C201.224 234.857 201.487 234.929 201.718 235.058L201.439 235.571C201.298 235.488 201.136 235.439 200.968 235.429C200.801 235.42 200.634 235.45 200.482 235.517C199.763 235.89 199.484 237.328 199.441 237.849L199.331 239.676Z" fill="#FAFAFA"/>
<path d="M201.101 245.608L200.542 243.991C199.908 242.164 198.85 241.114 197.598 241.044C197.074 241.035 196.559 241.166 196.116 241.422C195.673 241.677 195.32 242.046 195.101 242.483L194.534 242.234C194.802 241.688 195.24 241.227 195.793 240.91C196.346 240.593 196.989 240.434 197.64 240.453C198.393 240.492 199.688 240.865 200.652 242.669C200.864 241.246 201.499 238.961 203.132 238.004C203.718 237.709 204.377 237.558 205.046 237.565C205.714 237.571 206.369 237.736 206.948 238.043L206.686 238.564C206.201 238.301 205.651 238.156 205.088 238.144C204.525 238.132 203.968 238.252 203.47 238.494C201.296 239.738 201.152 243.851 201.152 243.897L201.101 245.608Z" fill="#FAFAFA"/>
<path d="M193.459 249.557L192.9 249.292C194.153 247.077 196.903 245.483 199.289 245.592C199.796 245.597 200.294 245.707 200.748 245.913C201.202 246.119 201.6 246.415 201.913 246.781C202.143 245.663 202.616 244.598 203.306 243.652C203.995 242.706 204.886 241.898 205.924 241.277C207.038 240.597 208.324 240.192 209.658 240.101C210.992 240.01 212.329 240.235 213.54 240.756L213.295 241.277C212.179 240.802 210.949 240.598 209.723 240.682C208.497 240.766 207.314 241.137 206.288 241.759C205.19 242.413 204.274 243.293 203.613 244.33C202.952 245.366 202.564 246.531 202.48 247.73V249.199L201.887 247.831C201.691 247.344 201.338 246.925 200.876 246.627C200.413 246.33 199.863 246.17 199.298 246.167C197.106 246.066 194.61 247.528 193.459 249.557Z" fill="#FAFAFA"/>
<path d="M190.023 258.14L189.473 257.86C190.234 256.585 194.288 250.179 199.086 249.021C199.763 248.843 200.474 248.798 201.171 248.891C201.868 248.983 202.536 249.21 203.131 249.557L202.809 250.047C202.285 249.743 201.697 249.543 201.083 249.461C200.469 249.38 199.843 249.418 199.247 249.573C195.726 250.428 192.088 254.72 190.023 258.14Z" fill="#FAFAFA"/>
<path d="M251.917 189.655V193.254L187.45 227.446L136.558 200.454V196.854L201.024 162.662L251.917 189.655Z" fill="#263238"/>
<path d="M251.917 189.655L187.45 223.847L136.558 196.854L201.024 162.662L251.917 189.655Z" fill="#455A64"/>
<path d="M251.917 150.068V153.66L187.45 187.859L136.558 160.859V157.267L201.024 123.067L251.917 150.068Z" fill="#263238"/>
<path d="M251.917 150.068L187.45 184.26L136.558 157.267L201.024 123.067L251.917 150.068Z" fill="#455A64"/>
<path d="M187.23 137.31L140.18 112.393C139.817 112.151 139.39 112.003 138.945 111.962C138.499 111.921 138.049 111.989 137.641 112.159C137.032 112.478 134.865 113.637 134.256 113.955C133.885 114.194 133.591 114.52 133.404 114.899C133.216 115.277 133.142 115.695 133.19 116.109V234.412C133.259 235.565 133.623 236.687 134.252 237.687C134.881 238.686 135.758 239.535 136.812 240.165L183.862 265.09C184.226 265.331 184.652 265.48 185.098 265.521C185.543 265.562 185.993 265.494 186.401 265.323C187.01 264.997 189.194 263.846 189.786 263.512C190.158 263.276 190.455 262.952 190.646 262.575C190.836 262.197 190.913 261.78 190.869 261.366V143.071C190.8 141.915 190.434 140.791 189.801 139.79C189.169 138.788 188.288 137.939 187.23 137.31Z" fill="#263238"/>
<path opacity="0.2" d="M187.451 155.47L190.853 153.667V142.86L187.442 144.664L187.451 155.47Z" fill="black"/>
<path opacity="0.2" d="M255.319 119.475L258.721 117.68V106.873L255.311 108.677L255.319 119.475Z" fill="black"/>
<path d="M143.345 236.449L139.96 238.245V248.088C139.977 248.376 140.068 248.656 140.225 248.906C140.383 249.156 140.602 249.368 140.865 249.526L142.448 250.365C142.729 250.496 143.039 250.564 143.353 250.564C143.668 250.564 143.978 250.496 144.259 250.365L145.841 249.526C146.401 249.193 146.836 248.71 147.085 248.142L150.14 240.049L143.345 236.449Z" fill="#263238"/>
<path d="M139.952 248.088C139.969 248.376 140.06 248.656 140.218 248.906C140.375 249.156 140.594 249.368 140.858 249.526L142.44 250.365C142.549 250.426 142.672 250.464 142.8 250.474C142.927 250.485 143.055 250.47 143.175 250.428C143.295 250.387 143.403 250.322 143.491 250.237C143.579 250.152 143.645 250.05 143.684 249.938L146.739 241.845L139.969 238.245L139.952 248.088Z" fill="#37474F"/>
<path d="M177.272 254.447L173.887 256.243V266.086C173.902 266.373 173.992 266.654 174.147 266.904C174.303 267.154 174.521 267.366 174.784 267.524L176.375 268.363C176.654 268.494 176.963 268.562 177.276 268.562C177.589 268.562 177.898 268.494 178.177 268.363L179.768 267.524C180.326 267.189 180.76 266.707 181.012 266.14L184.058 258.047L177.272 254.447Z" fill="#263238"/>
<path d="M173.887 266.047C173.902 266.334 173.992 266.615 174.147 266.864C174.303 267.114 174.521 267.327 174.784 267.485L176.375 268.324C176.484 268.385 176.607 268.422 176.734 268.433C176.861 268.444 176.99 268.429 177.109 268.387C177.229 268.346 177.337 268.281 177.425 268.196C177.513 268.111 177.58 268.009 177.619 267.897L180.665 259.804L173.895 256.204L173.887 266.047Z" fill="#37474F"/>
<path d="M136.778 114.196L183.838 139.113C184.89 139.746 185.766 140.596 186.393 141.597C187.021 142.598 187.384 143.721 187.451 144.874V267.042C187.451 267.042 184.836 265.619 183.838 265.09L136.787 240.166C135.733 239.536 134.857 238.686 134.227 237.687C133.598 236.687 133.234 235.565 133.165 234.412V116.109C133.074 115.694 133.128 115.263 133.318 114.878C133.508 114.493 133.825 114.172 134.224 113.96C134.623 113.749 135.084 113.658 135.543 113.701C136.001 113.743 136.433 113.916 136.778 114.196Z" fill="#37474F"/>
<path opacity="0.2" d="M183.838 139.113L136.778 114.196C136.433 113.916 136.001 113.743 135.543 113.701C135.084 113.658 134.623 113.749 134.224 113.96C133.825 114.172 133.508 114.493 133.318 114.878C133.128 115.263 133.074 115.694 133.165 116.109V126.674L187.451 155.44V144.874C187.384 143.721 187.021 142.598 186.393 141.597C185.766 140.596 184.89 139.746 183.838 139.113Z" fill="black"/>
<path d="M248.523 150.355C248.441 150.353 248.363 150.322 248.304 150.269C248.246 150.215 248.212 150.143 248.21 150.068V114.57L211.357 134.115C211.322 134.135 211.283 134.149 211.243 134.155C211.202 134.161 211.161 134.159 211.121 134.15C211.081 134.14 211.044 134.123 211.012 134.1C210.979 134.076 210.953 134.047 210.933 134.014C210.912 133.981 210.898 133.945 210.892 133.907C210.886 133.869 210.888 133.831 210.898 133.794C210.909 133.757 210.927 133.723 210.952 133.692C210.977 133.662 211.008 133.636 211.043 133.617L248.413 113.823C248.46 113.796 248.515 113.782 248.57 113.782C248.625 113.782 248.679 113.796 248.726 113.823C248.773 113.849 248.812 113.886 248.839 113.929C248.865 113.973 248.879 114.022 248.879 114.072V150.068C248.879 150.109 248.87 150.15 248.852 150.188C248.833 150.225 248.806 150.259 248.773 150.286C248.739 150.314 248.699 150.334 248.656 150.346C248.613 150.358 248.568 150.361 248.523 150.355Z" fill="#FAFAFA"/>
<path d="M241.737 141.353H241.644C241.563 141.336 241.493 141.291 241.449 141.227C241.404 141.163 241.389 141.085 241.407 141.011L247.72 115.892L235.196 135.817C235.176 135.851 235.15 135.88 235.118 135.904C235.086 135.927 235.049 135.945 235.009 135.955C234.97 135.965 234.928 135.968 234.888 135.963C234.847 135.958 234.808 135.945 234.772 135.926C234.736 135.908 234.704 135.883 234.678 135.853C234.653 135.822 234.634 135.788 234.622 135.751C234.611 135.714 234.609 135.675 234.614 135.637C234.619 135.6 234.633 135.563 234.654 135.53L248.194 113.932C248.233 113.873 248.293 113.828 248.364 113.805C248.435 113.783 248.513 113.784 248.583 113.808C248.653 113.834 248.71 113.882 248.744 113.943C248.778 114.005 248.787 114.075 248.769 114.142L241.999 141.143C241.984 141.198 241.951 141.248 241.904 141.286C241.857 141.323 241.799 141.347 241.737 141.353Z" fill="#FAFAFA"/>
<path d="M228.171 132.389C228.128 132.389 228.086 132.381 228.046 132.365C228.007 132.349 227.972 132.325 227.943 132.296C227.885 132.242 227.853 132.169 227.853 132.093C227.853 132.018 227.885 131.945 227.943 131.891L248.303 113.894C248.362 113.84 248.441 113.811 248.523 113.811C248.606 113.811 248.685 113.84 248.743 113.894C248.802 113.949 248.834 114.023 248.834 114.1C248.834 114.177 248.802 114.25 248.743 114.306L228.383 132.296C228.356 132.323 228.324 132.346 228.287 132.362C228.251 132.378 228.212 132.387 228.171 132.389Z" fill="#FAFAFA"/>
<path d="M248.524 144.61C248.442 144.608 248.363 144.577 248.305 144.524C248.247 144.47 248.213 144.398 248.211 144.322C248.211 139.611 242.49 139.292 242.245 139.285C242.199 139.281 242.154 139.27 242.113 139.249C242.072 139.229 242.036 139.202 242.008 139.168C241.981 139.135 241.963 139.097 241.954 139.057C241.945 139.016 241.946 138.975 241.957 138.935C242.166 137.972 242.095 136.976 241.752 136.047C241.409 135.117 240.805 134.287 240.002 133.64C239.709 133.371 239.356 133.163 238.968 133.029C238.58 132.895 238.165 132.838 237.751 132.863C237.531 132.897 237.32 132.975 237.135 133.09C236.95 133.205 236.793 133.356 236.677 133.531C236.641 133.588 236.586 133.632 236.52 133.656C236.454 133.68 236.381 133.683 236.313 133.664C236.245 133.644 236.187 133.605 236.147 133.551C236.107 133.498 236.088 133.433 236.093 133.368C236.093 133.189 236.44 128.999 232.428 128.587C232.377 128.581 232.328 128.564 232.285 128.537C232.242 128.51 232.207 128.474 232.183 128.431C232.16 128.391 232.148 128.345 232.148 128.299C232.148 128.253 232.16 128.208 232.183 128.167C232.183 128.167 233.96 125.112 233.275 123.611C233.196 123.435 233.072 123.279 232.915 123.154C232.758 123.03 232.571 122.942 232.369 122.896C232.329 122.886 232.292 122.869 232.259 122.846C232.226 122.822 232.199 122.793 232.18 122.759C232.16 122.726 232.148 122.689 232.144 122.651C232.14 122.613 232.145 122.575 232.158 122.538C232.183 122.466 232.238 122.406 232.31 122.37C232.383 122.334 232.467 122.324 232.547 122.344C232.839 122.413 233.108 122.544 233.335 122.726C233.561 122.908 233.738 123.137 233.85 123.394C234.502 124.816 233.402 127.172 232.928 128.058C236.042 128.61 236.617 131.308 236.702 132.645C236.98 132.464 237.298 132.339 237.633 132.28C238.141 132.235 238.655 132.296 239.134 132.459C239.613 132.621 240.046 132.882 240.4 133.221C241.241 133.902 241.884 134.764 242.273 135.73C242.661 136.696 242.783 137.736 242.626 138.756C243.997 138.919 248.837 139.798 248.829 144.338C248.824 144.41 248.791 144.478 248.734 144.529C248.678 144.579 248.603 144.608 248.524 144.61Z" fill="#FAFAFA"/>
<path d="M248.524 136.851C248.446 136.851 248.369 136.824 248.311 136.775C248.253 136.726 248.218 136.659 248.211 136.587C248.076 134.938 247.035 132.808 245.723 132.28C245.463 132.173 245.175 132.138 244.894 132.18C244.613 132.221 244.351 132.337 244.141 132.513C244.089 132.543 244.029 132.56 243.967 132.56C243.906 132.56 243.846 132.543 243.794 132.513C243.74 132.486 243.696 132.445 243.668 132.395C243.639 132.345 243.627 132.289 243.633 132.233C243.633 132.233 243.912 129.318 242.482 128.113C242.172 127.875 241.804 127.708 241.41 127.627C241.015 127.546 240.605 127.552 240.214 127.646C240.16 127.657 240.104 127.653 240.052 127.637C240 127.621 239.954 127.591 239.918 127.553C239.882 127.514 239.857 127.467 239.847 127.416C239.837 127.366 239.841 127.314 239.859 127.265C240.147 126.542 240.705 124.513 239.952 123.79C239.597 123.456 238.945 123.425 238.006 123.704C237.942 123.724 237.872 123.724 237.808 123.704C237.744 123.685 237.689 123.647 237.65 123.596C237.612 123.546 237.591 123.486 237.591 123.425C237.591 123.363 237.612 123.303 237.65 123.254C238.175 122.647 239.47 120.875 239.148 120.027C239.095 119.91 239.009 119.808 238.899 119.732C238.789 119.655 238.659 119.607 238.522 119.592C238.482 119.583 238.444 119.566 238.411 119.544C238.378 119.521 238.35 119.493 238.328 119.46C238.307 119.428 238.293 119.392 238.287 119.354C238.281 119.317 238.283 119.279 238.293 119.242C238.301 119.205 238.317 119.17 238.341 119.139C238.364 119.108 238.394 119.081 238.429 119.062C238.464 119.042 238.503 119.029 238.544 119.024C238.585 119.019 238.626 119.022 238.666 119.032C238.903 119.064 239.128 119.152 239.316 119.289C239.505 119.425 239.651 119.605 239.74 119.809C240.087 120.735 239.241 122.142 238.649 122.919C238.954 122.853 239.272 122.855 239.576 122.927C239.88 122.999 240.16 123.138 240.392 123.331C241.323 124.218 240.874 126.091 240.595 126.97C241.008 126.924 241.426 126.96 241.823 127.074C242.22 127.188 242.586 127.377 242.897 127.631C244.158 128.688 244.293 130.74 244.276 131.681C244.541 131.567 244.83 131.507 245.122 131.507C245.415 131.507 245.704 131.567 245.969 131.681C247.568 132.326 248.677 134.62 248.837 136.478C248.841 136.515 248.836 136.553 248.823 136.589C248.811 136.624 248.79 136.657 248.764 136.685C248.737 136.714 248.704 136.737 248.667 136.753C248.63 136.77 248.591 136.779 248.55 136.781L248.524 136.851Z" fill="#FAFAFA"/>
<path d="M266.752 101.478C266.712 101.065 266.553 100.669 266.291 100.332C266.029 99.9943 265.674 99.727 265.263 99.5573L214.818 72.7978C213.697 72.2765 212.458 72.0049 211.201 72.0049C209.944 72.0049 208.705 72.2765 207.583 72.7978L130 113.956C129.589 114.125 129.234 114.393 128.972 114.73C128.71 115.068 128.551 115.463 128.511 115.876V119.475C128.551 119.888 128.71 120.284 128.972 120.621C129.234 120.959 129.589 121.226 130 121.396L180.444 148.148C181.565 148.672 182.804 148.946 184.062 148.946C185.32 148.946 186.559 148.672 187.68 148.148L265.263 106.997C265.674 106.828 266.029 106.56 266.291 106.223C266.553 105.885 266.712 105.49 266.752 105.077V101.478Z" fill="#37474F"/>
<path d="M180.444 144.548L130 117.796C128.003 116.731 128.003 115.013 130 113.956L207.583 72.7978C208.704 72.2765 209.944 72.0049 211.2 72.0049C212.457 72.0049 213.697 72.2765 214.818 72.7978L265.262 99.5573C267.268 100.622 267.268 102.333 265.262 103.398L187.679 144.548C186.559 145.073 185.319 145.346 184.062 145.346C182.804 145.346 181.564 145.073 180.444 144.548Z" fill="#455A64"/>
<path opacity="0.1" d="M255.309 112.269L231.564 139.269L190.851 160.867L190.843 146.468L255.309 112.269Z" fill="black"/>
<path opacity="0.1" d="M251.916 153.659L231.564 178.856L190.852 200.461V186.055L251.916 153.659Z" fill="black"/>
<path opacity="0.1" d="M251.916 193.255L231.564 218.452L190.852 240.057V225.651L251.916 193.255Z" fill="black"/>
<path d="M158.523 271.893L96.1048 305.005L25.8164 267.633L88.2348 234.529L158.523 271.893Z" fill="#C7C7C7"/>
<path opacity="0.5" d="M158.523 271.893L96.1048 305.005L25.8164 267.633L88.2348 234.529L158.523 271.893Z" fill="black"/>
<path d="M88.2348 189.647V234.529L25.8164 267.633V222.759L88.2348 189.647Z" fill="#C7C7C7"/>
<path opacity="0.23" d="M88.2348 189.647V234.529L25.8164 267.633V222.759L88.2348 189.647Z" fill="black"/>
<path d="M96.1048 260.123V305.004L25.8164 267.633V222.759L96.1048 260.123Z" fill="#C7C7C7"/>
<path opacity="0.38" d="M96.1048 260.123V305.004L25.8164 267.633V222.759L96.1048 260.123Z" fill="black"/>
<path d="M158.525 227.011V271.893L88.2363 234.529V189.647L158.525 227.011Z" fill="#C7C7C7"/>
<path opacity="0.4" d="M158.525 227.011V271.893L88.2363 234.529V189.647L158.525 227.011Z" fill="black"/>
<path d="M158.525 271.894V227.012L96.1064 260.123V305.005L158.525 271.894Z" fill="#C7C7C7"/>
<path opacity="0.23" d="M158.525 271.894V227.012L96.1064 260.123V305.005L158.525 271.894Z" fill="black"/>
<path d="M88.2363 189.648L88.321 164.801L158.44 202.211L158.525 227.012L88.2363 189.648Z" fill="#C7C7C7"/>
<path opacity="0.2" d="M88.2363 189.648L88.321 164.801L158.44 202.211L158.525 227.012L88.2363 189.648Z" fill="black"/>
<path d="M96.1064 260.124L101.962 238.386L163.814 205.578L158.525 227.012L96.1064 260.124Z" fill="#C7C7C7"/>
<path opacity="0.3" d="M96.1064 260.124L101.962 238.386L163.814 205.578L158.525 227.012L96.1064 260.124Z" fill="black"/>
<path d="M25.818 222.759L18.3711 200.213L80.7895 167.109L88.2364 189.647L25.818 222.759Z" fill="#C7C7C7"/>
<path opacity="0.1" d="M25.818 222.759L18.3711 200.213L80.7895 167.109L88.2364 189.647L25.818 222.759Z" fill="black"/>
<path d="M25.8176 222.759L11.127 204.124L81.4238 241.488L96.106 260.123L25.8176 222.759Z" fill="#C7C7C7"/>
<path opacity="0.45" d="M25.8176 222.759L11.127 204.124L81.4238 241.488L96.106 260.123L25.8176 222.759Z" fill="black"/>
<g opacity="0.7">
<path d="M114.486 291.656C114.384 291.656 114.286 291.62 114.214 291.554C114.141 291.489 114.099 291.4 114.097 291.306V283.407C114.099 283.313 114.141 283.223 114.213 283.157C114.286 283.09 114.383 283.052 114.486 283.05C114.588 283.052 114.685 283.09 114.756 283.157C114.827 283.224 114.867 283.314 114.867 283.407V291.306C114.867 291.399 114.827 291.488 114.755 291.554C114.684 291.619 114.587 291.656 114.486 291.656Z" fill="white"/>
<path d="M113.361 286.144C113.31 286.151 113.259 286.151 113.209 286.144C113.116 286.105 113.044 286.034 113.006 285.948C112.968 285.861 112.968 285.764 113.006 285.677L114.376 282.777L115.9 284.394C115.954 284.467 115.978 284.555 115.966 284.642C115.954 284.73 115.907 284.81 115.835 284.868C115.763 284.925 115.67 284.957 115.574 284.955C115.478 284.954 115.386 284.921 115.316 284.861L114.596 284.083L113.75 285.949C113.714 286.014 113.657 286.066 113.588 286.101C113.518 286.135 113.44 286.15 113.361 286.144Z" fill="white"/>
<path d="M118.033 289.798C117.931 289.796 117.835 289.757 117.763 289.69C117.692 289.623 117.652 289.534 117.652 289.44V281.549C117.652 281.456 117.692 281.367 117.764 281.302C117.835 281.236 117.932 281.199 118.033 281.199C118.134 281.199 118.231 281.236 118.302 281.302C118.374 281.367 118.414 281.456 118.414 281.549V289.432C118.415 289.479 118.406 289.526 118.388 289.57C118.369 289.614 118.341 289.654 118.306 289.688C118.271 289.721 118.228 289.749 118.181 289.768C118.135 289.786 118.084 289.797 118.033 289.798Z" fill="white"/>
<path d="M116.907 284.286C116.856 284.293 116.805 284.293 116.755 284.286C116.708 284.268 116.666 284.241 116.631 284.207C116.596 284.173 116.569 284.134 116.551 284.09C116.532 284.047 116.524 284.001 116.526 283.954C116.527 283.908 116.539 283.862 116.56 283.82L117.922 280.881L119.446 282.49C119.516 282.557 119.555 282.646 119.555 282.739C119.555 282.832 119.516 282.921 119.446 282.988C119.41 283.021 119.368 283.047 119.322 283.065C119.275 283.082 119.225 283.092 119.175 283.092C119.124 283.092 119.075 283.082 119.028 283.065C118.982 283.047 118.939 283.021 118.904 282.988L118.185 282.21L117.338 284.076C117.303 284.151 117.241 284.213 117.163 284.251C117.084 284.289 116.994 284.302 116.907 284.286Z" fill="white"/>
</g>
<g opacity="0.7">
<path d="M104.254 297.013C104.11 297.015 103.967 296.983 103.84 296.92C103.687 296.829 103.563 296.703 103.481 296.554C103.399 296.405 103.362 296.239 103.374 296.072V295.1C103.377 295.007 103.419 294.918 103.491 294.852C103.564 294.787 103.662 294.75 103.764 294.75C103.865 294.75 103.961 294.787 104.033 294.853C104.104 294.919 104.144 295.008 104.144 295.1V296.072C104.144 296.212 104.144 296.29 104.221 296.305C104.297 296.321 104.339 296.305 104.466 296.243C104.704 296.041 104.892 295.794 105.016 295.519C105.14 295.244 105.198 294.947 105.185 294.649V290.607C105.185 290.514 105.225 290.425 105.297 290.359C105.368 290.294 105.465 290.257 105.566 290.257C105.667 290.257 105.764 290.294 105.835 290.359C105.907 290.425 105.947 290.514 105.947 290.607V294.649C105.966 295.069 105.877 295.487 105.687 295.869C105.497 296.252 105.212 296.587 104.855 296.85C104.674 296.952 104.467 297.009 104.254 297.013Z" fill="white"/>
<path d="M100.218 293.755V293.149C100.318 291.592 100.814 290.078 101.665 288.728C102.515 287.378 103.698 286.23 105.117 285.374C106.505 284.643 107.825 284.535 108.841 285.079C109.383 285.42 109.814 285.889 110.091 286.436C110.368 286.983 110.48 287.588 110.415 288.189V288.391L100.218 293.755ZM107.419 285.405C106.742 285.434 106.083 285.621 105.507 285.949C104.29 286.685 103.26 287.652 102.486 288.786C101.712 289.919 101.213 291.192 101.022 292.519L109.628 287.948C109.665 287.497 109.574 287.046 109.365 286.637C109.156 286.229 108.836 285.877 108.435 285.615C108.122 285.465 107.772 285.392 107.419 285.405Z" fill="white"/>
</g>
<path opacity="0.7" d="M11.127 204.124L81.4238 241.488L96.106 260.123L80.6453 242.149L11.127 204.124Z" fill="white"/>
<path opacity="0.7" d="M158.525 227.012L96.1064 260.123V305.005L97.2742 261.025L158.525 227.012Z" fill="white"/>
<path d="M66.9287 209.061C73.3686 208.206 79.2499 204.396 83.0072 199.607C84.7594 197.37 86.0501 194.856 86.8153 192.19C87.6278 189.698 87.7615 187.06 87.2045 184.509C86.0452 180.241 81.7463 177.714 77.202 177.186C74.8961 176.907 72.5513 177.117 70.3475 177.8C68.0624 178.52 66.0798 179.88 64.6777 181.687C63.7986 182.65 63.2455 183.828 63.0868 185.077C63.0733 185.566 63.2609 186.041 63.6122 186.409C63.9636 186.776 64.4528 187.009 64.9823 187.059C66.345 187.165 67.7067 186.847 68.8496 186.157C70.2433 185.439 71.4708 184.478 72.4631 183.327C74.5916 180.914 76.1844 178.141 77.1512 175.164C77.8297 172.61 77.8297 169.944 77.1512 167.39C76.6359 164.718 75.3067 162.236 73.3178 160.23C71.0377 158.325 68.1443 157.154 65.0754 156.894C62.0211 156.509 58.9112 156.775 55.9869 157.672C54.7024 158.03 53.5124 158.628 52.4919 159.429C51.7641 160.051 50.9348 161.077 51.231 162.088C51.5272 163.098 53.135 163.549 54.2267 163.417C55.8423 163.139 57.3222 162.402 58.4579 161.31C59.7235 160.166 60.7985 158.856 61.6482 157.423C62.2795 156.393 62.609 155.231 62.6044 154.049C62.4944 149.12 56.5623 145.932 51.9165 145.031C50.6623 144.79 49.3777 144.711 48.0999 144.797C47.6683 144.797 47.9307 145.45 48.2776 145.427C50.7777 145.323 53.2622 145.838 55.4707 146.92C57.6495 147.84 59.4795 149.337 60.7258 151.219C61.2812 152.147 61.5554 153.195 61.5196 154.253C61.4839 155.312 61.1396 156.342 60.5227 157.237C59.6941 158.562 58.6624 159.772 57.4593 160.828C56.4523 161.668 54.9206 162.64 53.5074 162.546C53.2741 162.546 53.0456 162.485 52.8481 162.371C52.6505 162.257 52.4919 162.094 52.3903 161.901C52.3477 161.646 52.3706 161.385 52.4573 161.139C52.544 160.894 52.6921 160.67 52.8896 160.486C53.6369 159.747 54.5611 159.177 55.5891 158.822C58.1279 157.853 60.8769 157.438 63.6199 157.61C66.4468 157.657 69.1959 158.468 71.5238 159.942C73.5517 161.489 74.9919 163.588 75.6365 165.936C76.4529 168.321 76.7068 170.839 76.3812 173.322C75.8786 175.82 74.8339 178.199 73.3093 180.319C71.7438 182.698 69.7805 184.983 66.8356 185.916C66.1078 186.157 64.5846 186.507 64.2969 185.535C64.0092 184.564 64.8385 183.366 65.3716 182.612C66.5505 180.908 68.2693 179.576 70.2967 178.795C72.2531 178.075 74.3651 177.782 76.4658 177.94C80.4516 178.212 84.4966 180.124 85.8844 183.763C86.5806 185.937 86.6563 188.24 86.1044 190.449C85.6066 192.87 84.6591 195.195 83.3034 197.321C80.3872 201.839 75.9708 205.379 70.7029 207.42C69.4505 207.918 68.1642 208.338 66.8525 208.727C66.7171 208.773 66.7764 209.084 66.9287 209.061Z" fill="#E0E0E0"/>
<path d="M40.0261 141.563C36.6411 141.337 31.9784 143.786 33.637 145.574C35.2956 147.362 39.696 144.47 39.696 144.47C39.696 144.47 39.2814 148.085 40.72 148.498C42.1586 148.91 44.1049 145.458 42.6663 143.25C43.3601 143.501 44.1118 143.587 44.8515 143.5C45.5912 143.413 46.295 143.156 46.8975 142.752C48.9454 141.368 46.779 140.062 43.8934 140.296C43.8934 140.296 45.9582 134.076 41.7863 135.265C39.696 135.849 38.9598 138.095 40.0261 141.563Z" fill="#C7C7C7"/>
<path opacity="0.65" d="M40.0261 141.563C36.6411 141.337 31.9784 143.786 33.637 145.574C35.2956 147.362 39.696 144.47 39.696 144.47C39.696 144.47 39.2814 148.085 40.72 148.498C42.1586 148.91 44.1049 145.458 42.6663 143.25C43.3601 143.501 44.1118 143.587 44.8515 143.5C45.5912 143.413 46.295 143.156 46.8975 142.752C48.9454 141.368 46.779 140.062 43.8934 140.296C43.8934 140.296 45.9582 134.076 41.7863 135.265C39.696 135.849 38.9598 138.095 40.0261 141.563Z" fill="white"/>
<path d="M43.1743 142.885C42.987 142.716 42.7892 142.558 42.582 142.41C42.2858 142.2 41.9727 141.998 41.6765 141.796C41.3881 141.604 41.0856 141.429 40.771 141.275C40.59 141.183 40.4035 141.1 40.2125 141.027C39.9488 140.913 39.6555 140.87 39.3663 140.902C39.2905 140.904 39.2166 140.925 39.1525 140.962C39.0884 140.999 39.0363 141.051 39.0017 141.113C38.9671 141.175 38.9513 141.245 38.9559 141.314C38.9604 141.384 38.9853 141.451 39.0278 141.509C39.2604 141.74 39.5508 141.916 39.874 142.022L40.331 142.247C40.6441 142.418 40.9233 142.612 41.1772 142.807C41.4311 143.001 41.7696 143.188 42.0234 143.382C42.46 143.707 42.9479 143.97 43.4705 144.16C43.4939 144.171 43.5201 144.177 43.5467 144.177C43.5733 144.177 43.5994 144.171 43.6228 144.16C44.0544 143.849 43.4197 143.11 43.1743 142.885Z" fill="#455A64"/>
<path d="M312.964 56.0359C309.266 60.6073 304.316 85.742 302.445 93.8041C293.45 93.5631 281.417 93.1744 276.864 92.739C271.786 92.2492 260.946 91.2929 255.623 91.9615C242.413 93.5164 242.93 101.493 243.251 103.577C243.598 105.956 245.451 107.044 252.56 105.559C254.15 105.238 255.772 105.063 257.4 105.038C258.086 105.038 259.533 104.719 260.074 105.256C260.921 106.033 258.475 107.339 257.866 107.697C256.926 108.257 255.945 108.964 255.75 109.975C255.694 110.16 255.697 110.355 255.759 110.539C255.82 110.722 255.938 110.885 256.097 111.009C256.442 111.138 256.827 111.138 257.172 111.009C260.416 110.302 263.546 109.206 266.48 107.751C267.587 107.139 268.751 106.618 269.958 106.197C271.795 105.652 273.69 105.971 275.535 105.971C279.504 105.971 300.482 107.884 309.808 108.754C316.265 109.353 316.95 103.499 319.176 97.5669C321.909 90.2123 328.383 51.5345 328.383 51.5345C321.85 50.6638 317.365 50.6093 312.964 56.0359Z" fill="#FFA8A7"/>
<path d="M328.484 50.9288C325.362 50.4001 318.33 49.5993 314.505 53.5254C310.68 57.4515 309.774 61.5719 308.09 67.5194C306.406 73.4668 303.419 84.1178 303.419 84.1178C303.419 84.1178 308.352 90.625 323.796 88.7825L328.484 50.9288Z" fill="#37474F"/>
<path d="M367.267 256.5L356.41 256.508L353.287 234.856L366.988 234.358L367.267 256.5Z" fill="#FFA8A7"/>
<path d="M331.218 245.686C329.373 248.632 323.441 248.391 318.524 247.349L317.957 226.063L332.47 225.534L331.218 245.686Z" fill="#FFA8A7"/>
<path d="M366.531 119.686C366.921 128.898 365.592 183.374 365.592 183.374C365.956 186.017 368.935 190.627 369.552 200.167C370.458 214.021 367.386 243.564 367.386 243.564C367.386 243.564 361.166 246.549 354.464 244.263C354.464 244.263 347.643 201.504 345.155 187.836C343.006 175.942 340.247 144.035 340.247 144.035L334.891 184.929C335.873 189.769 336.278 194.694 336.101 199.615C335.881 205.974 331.937 236.854 331.937 236.854C327.438 238.206 322.606 238.312 318.042 237.157C318.042 237.157 314.809 189.236 314.437 183.428C314.014 176.804 314.302 118.333 314.302 118.333L366.531 119.686Z" fill="#C7C7C7"/>
<path opacity="0.2" d="M340.264 144.051C340.264 144.051 330.778 141.579 324.312 136.276C324.312 136.276 327.342 141.027 335.923 145.24L335.432 180.933L340.264 144.051Z" fill="black"/>
<path d="M344.039 274.559C343.692 274.886 343.895 277.039 344.318 277.599C344.741 278.159 347.33 280.056 351.824 280.196C356.114 280.32 359.906 279.652 362.351 278.097C364.797 276.542 365.948 274.886 366.092 272.655C366.235 270.423 365.872 268.254 366.938 266.49C367.945 264.865 369.578 263.007 369.908 262.128C370.644 260.223 369.747 257.572 369.747 257.572L344.039 274.559Z" fill="#263238"/>
<path d="M354.87 254.603C354.876 255.453 354.744 256.3 354.481 257.115C353.562 259.766 352.182 262.263 350.393 264.508C349.158 265.962 347.601 267.182 346.289 268.59C344.886 269.924 344.025 271.662 343.852 273.511C343.801 276.621 347.491 277.515 350.309 277.872C353.364 278.242 356.47 277.977 359.397 277.095C360.94 276.668 362.314 275.84 363.356 274.712C364.398 273.584 365.063 272.203 365.27 270.735C365.389 269.872 365.27 269.002 365.372 268.139C365.659 266.157 366.476 264.271 367.75 262.65C368.487 261.712 369.117 260.706 369.628 259.649C370.415 257.705 369.628 255.583 368.985 253.709C368.435 252.084 367.809 250.242 367.191 250.421C367.191 251.284 367.191 251.361 366.59 251.976C365.744 252.753 365.787 253.834 364.898 254.51C365.155 253.793 365.331 253.053 365.423 252.302C365.464 251.996 365.383 251.686 365.194 251.431C364.889 251.203 364.529 251.044 364.145 250.965C362.806 250.602 361.431 250.365 360.041 250.257C358.717 250.098 357.373 250.137 356.063 250.374C355.676 250.457 355.33 250.656 355.082 250.942C354.864 251.26 354.755 251.631 354.769 252.007C354.769 252.512 354.862 253.779 354.87 254.603Z" fill="#455A64"/>
<path d="M351.655 262.789C352.873 261.887 355.666 261.771 357.206 261.872C358.766 261.937 360.283 262.365 361.615 263.116C361.811 263.236 362.048 263.288 362.282 263.262C362.516 263.237 362.733 263.135 362.893 262.976C362.986 262.885 363.057 262.777 363.101 262.659C363.144 262.54 363.159 262.415 363.145 262.29C363.13 262.166 363.086 262.046 363.017 261.939C362.947 261.832 362.853 261.74 362.74 261.67C361.27 260.754 359.548 260.237 357.773 260.177C353.999 260.076 352.924 260.706 352.924 260.706C352.924 260.706 351.24 261.779 351.655 262.789Z" fill="#F5F5F5"/>
<path d="M348.911 266.054C350.443 265.145 353.532 265.152 355.063 265.277C356.598 265.366 358.081 265.825 359.362 266.606C359.557 266.726 359.792 266.778 360.025 266.752C360.258 266.727 360.473 266.625 360.631 266.466C360.727 266.377 360.799 266.269 360.845 266.151C360.89 266.033 360.906 265.907 360.892 265.782C360.878 265.658 360.835 265.538 360.765 265.43C360.695 265.323 360.601 265.23 360.488 265.16C358.992 264.197 357.234 263.637 355.41 263.543C351.628 263.434 350.68 264.173 350.68 264.173C350.25 264.344 349.868 264.602 349.561 264.928C349.255 265.254 349.033 265.639 348.911 266.054Z" fill="#F5F5F5"/>
<path d="M359.127 256.818C357.53 256.618 355.903 256.8 354.405 257.347C353.762 257.712 353.364 258.692 353.796 258.902C355.107 258.361 356.543 258.126 357.976 258.218C359.392 258.294 360.783 258.594 362.089 259.104C362.419 259.221 362.808 259.392 363.147 259.547C363.255 259.598 363.373 259.628 363.495 259.636C363.616 259.643 363.738 259.628 363.853 259.591C363.968 259.554 364.073 259.496 364.163 259.42C364.252 259.344 364.324 259.253 364.374 259.151C364.454 258.974 364.46 258.776 364.391 258.595C364.323 258.415 364.184 258.264 364.001 258.171C362.501 257.404 360.839 256.942 359.127 256.818Z" fill="#F5F5F5"/>
<path d="M293.711 258.965C293.327 259.853 293.327 260.844 293.711 261.732C294.084 262.564 298.569 265.145 304.797 265.036C309.429 264.933 313.946 263.693 317.88 261.445C320.325 260.107 322.805 259.944 325.885 259.89C328.965 259.835 333.078 258.63 333.823 257.34C334.567 256.049 333.907 253.74 333.907 253.74L293.711 258.965Z" fill="#263238"/>
<path d="M319.693 242.249L319.211 242.132C318.937 242.056 318.649 242.032 318.364 242.062C318.059 242.13 317.785 242.282 317.577 242.498C316.937 243.187 316.37 243.932 315.885 244.721C314.489 246.61 311.654 248.111 308.607 249.456C306.525 250.366 304.503 251.057 302.362 251.827C300.221 252.597 297.285 253.032 295.592 253.996C293.053 255.403 292.571 259.174 295.262 260.791C297.598 262.19 303.826 263.862 310.494 262.431C314.142 261.654 318.322 258.295 323.061 258.163C326.082 258.078 331.803 257.549 333.842 255.536C334.612 254.641 333.842 251.648 333.156 249.067C332.446 246.253 332.767 242.07 331.396 242.07L331.312 243.477C331.185 243.897 330.11 244.309 329.772 244.636L328.553 245.818C328.054 246.365 327.445 246.819 326.759 247.155C325.549 247.652 324.136 247.357 322.841 247.046C322.79 247.046 323.492 244.885 323.569 244.675C323.645 244.511 323.668 244.33 323.636 244.154C323.571 243.981 323.443 243.836 323.272 243.742C322.204 243.023 320.985 242.514 319.693 242.249Z" fill="#455A64"/>
<path d="M311.499 248.072C311.736 247.702 312.07 247.392 312.47 247.171C312.871 246.949 313.325 246.824 313.792 246.805C315.172 246.634 317.533 247.66 318.98 248.865C319.116 248.978 319.221 249.12 319.284 249.278C319.347 249.437 319.366 249.607 319.341 249.774C319.316 249.941 319.247 250.1 319.14 250.237C319.033 250.374 318.89 250.485 318.726 250.56C318.519 250.654 318.286 250.686 318.059 250.653C317.831 250.619 317.621 250.522 317.457 250.373C315.872 248.924 313.735 248.098 311.499 248.072Z" fill="#F5F5F5"/>
<path d="M307.15 250.071C307.468 249.698 307.878 249.401 308.346 249.205C308.814 249.009 309.327 248.919 309.841 248.943C309.841 248.943 313.413 249.192 315.52 251.182C315.65 251.291 315.749 251.428 315.809 251.58C315.87 251.732 315.889 251.895 315.866 252.056C315.842 252.216 315.777 252.369 315.676 252.501C315.574 252.633 315.439 252.741 315.283 252.815C315.083 252.904 314.858 252.935 314.639 252.903C314.419 252.871 314.216 252.778 314.056 252.636C313.188 251.759 312.117 251.073 310.922 250.629C309.726 250.185 308.437 249.994 307.15 250.071Z" fill="#F5F5F5"/>
<path d="M302.369 251.828C302.729 251.486 303.164 251.219 303.646 251.046C304.128 250.873 304.645 250.798 305.162 250.825C307.185 251.03 309.086 251.816 310.595 253.072C310.725 253.181 310.824 253.319 310.884 253.471C310.944 253.624 310.964 253.787 310.94 253.948C310.917 254.109 310.852 254.263 310.751 254.396C310.649 254.529 310.514 254.637 310.358 254.712C310.158 254.803 309.932 254.834 309.711 254.8C309.491 254.767 309.288 254.671 309.131 254.525C308.309 253.624 307.27 252.911 306.097 252.443C304.923 251.974 303.647 251.764 302.369 251.828Z" fill="#F5F5F5"/>
<path d="M346.576 51.0993C350.571 51.5192 355.293 51.7446 359.109 52.2033C364.026 52.7942 367.859 57.4666 369.061 64.6968C370.381 72.6578 364.83 95.4836 364.83 95.4836L366.598 122.399C359.397 127.273 328.729 129.831 313.446 119.693C313.446 119.693 313.802 73.8862 314.995 66.827C316.637 57.1478 319.226 51.1382 331.073 50.4463L346.576 51.0993Z" fill="#455A64"/>
<path d="M373.885 109.407C372.59 111.398 371.287 113.388 369.95 115.355C369.459 116.086 368.96 116.809 368.444 117.524C368.164 117.874 367.837 118.19 367.471 118.465C366.827 118.869 365.49 118.612 364.712 118.636C360.887 118.755 357.073 119.014 353.271 119.413C352.953 119.404 352.636 119.459 352.344 119.575C352.051 119.69 351.79 119.863 351.578 120.082C351.422 120.383 351.391 120.726 351.491 121.047C351.59 121.367 351.814 121.643 352.12 121.823C352.743 122.167 353.45 122.359 354.176 122.383L357.477 122.741C357.947 122.755 358.404 122.89 358.797 123.129C359.998 124.023 357.705 125.096 357.02 125.532C355.641 126.411 354.17 127.162 352.628 127.771C345.748 130.43 344.91 132.358 346.179 134.55C347.279 136.455 352.035 143.382 364.119 137.419C368.985 135.016 376.39 127.429 379.766 123.759C384.624 118.465 392.841 106.655 392.841 106.655C397.512 100.762 398.113 98.3445 398.223 95.8955C398.333 93.4466 383.837 74.6091 378.912 67.9931C373.987 61.3771 371.643 53.3305 359.11 52.2266C359.11 52.2266 354.337 66.1272 362.241 75.1223L380.494 98.5155C380.494 98.5155 375.662 106.679 373.885 109.407Z" fill="#FFA8A7"/>
<path d="M387.128 76.9652C384.784 73.8555 382.338 70.6524 379.977 67.4804C370.034 54.1473 370.871 51.7061 356.536 51.5195C355.267 53.3077 354.514 61.0043 356.426 68.7321C358.026 75.2238 364.042 79.8029 364.042 79.8029L371.218 88.7357C371.218 88.7357 375.61 88.6113 380.874 85.0662C383.914 83.1099 386.123 80.2477 387.128 76.9652Z" fill="#37474F"/>
<path d="M356.03 16.06C355.309 15.0734 354.311 14.2849 353.141 13.7784C351.971 13.2718 350.674 13.0662 349.387 13.1834L348.642 29.8751L347.424 36.0402L347.635 42.9051C348.343 42.8132 349.013 42.5582 349.584 42.164C350.156 41.7697 350.609 41.2491 350.902 40.6505C352.019 38.6758 355.133 29.1288 355.133 29.1288C357.926 21.2844 357.333 17.7392 356.03 16.06Z" fill="#263238"/>
<path d="M347.794 29.9534C348.108 28.9389 348.713 28.0206 349.546 27.2945C350.587 26.2683 354.733 25.1566 356.62 28.3907C358.507 31.6249 355.326 35.8931 352.872 37.1992C349.732 38.8784 347.887 36.5928 347.887 36.5928L347.963 51.9628C346.499 55.0726 339.89 57.8403 335.955 57.4049C332.824 57.0395 329.939 54.7771 332.74 51.4808L332.511 47.096C332.511 47.096 328.322 47.8735 326.249 47.6791C322.805 47.3526 320.511 44.9658 319.293 41.6073C317.33 36.2118 316.458 31.827 317.287 21.005C318.201 9.14902 333.12 8.34825 341.439 12.6397C349.757 16.9312 347.794 29.9534 347.794 29.9534Z" fill="#FFA8A7"/>
<path d="M312.541 8.68997C312.16 6.10108 313.133 3.32561 316.086 2.40823C317.17 1.99171 318.36 1.86485 319.519 2.04228C320.677 2.21971 321.758 2.69421 322.636 3.41113C323.006 2.49779 323.647 1.69743 324.485 1.09998C325.323 0.502529 326.326 0.131679 327.381 0.0291042C328.436 -0.0734707 329.501 0.0962952 330.457 0.519324C331.412 0.942353 332.221 1.60188 332.791 2.42378C333.575 1.32912 334.787 0.552718 336.176 0.254712C337.032 0.0790159 337.918 0.0627946 338.782 0.207008C339.645 0.351222 340.468 0.652944 341.203 1.09435C342.404 1.91066 343.817 3.42668 343.462 5.39361C345.84 4.5151 348.319 5.24589 350.088 7.17395C351.141 8.35462 351.736 9.82327 351.781 11.3488C351.842 12.1412 351.718 12.9365 351.417 13.6812C351.078 14.3886 350.384 14.8551 350.181 15.6559C349.886 16.3604 349.734 17.1088 349.733 17.8638C349.927 19.1699 350.24 20.476 350.427 21.751C350.627 23.0209 350.743 24.3009 350.773 25.5838C350.729 25.8855 350.615 26.175 350.438 26.4325C350.262 26.6901 350.027 26.9097 349.75 27.0765C348.96 27.7113 348.347 28.5112 347.964 29.4088C347.668 29.9686 347.38 31.3524 346.796 31.7412C344.994 32.8995 344.791 29.1523 344.706 28.4292C344.59 26.7698 344.59 25.1053 344.706 23.4458C343.797 23.4351 342.9 23.2496 342.074 22.9015C341.248 22.5534 340.51 22.0503 339.908 21.4245C339.283 20.7213 338.872 19.8792 338.715 18.9833C338.617 18.47 338.572 17.9495 338.579 17.4284C337.403 19.2165 334.67 19.9473 332.723 19.7608C329.457 19.4887 328.331 18.2059 327.807 17.2652C327.6 18.1924 327.156 19.0612 326.512 19.7996C325.677 20.52 324.672 21.0523 323.575 21.3545C322.629 21.5864 321.633 21.5772 320.692 21.328C319.751 21.0787 318.902 20.5987 318.236 19.9396C316.907 21.6888 313.539 20.9114 312.794 20.4216C311.102 19.2943 310.552 17.9493 310.366 16.029C310.18 14.1087 311.026 11.9164 313.344 11.1622C312.927 10.3857 312.655 9.54984 312.541 8.68997Z" fill="#263238"/>
<path d="M332.513 47.0726C332.513 47.0726 340.078 45.3156 342.668 43.8851C344.199 43.0611 345.423 41.8307 346.179 40.3555C345.853 41.8107 345.211 43.1907 344.292 44.4137C342.464 46.8005 332.597 48.9462 332.597 48.9462L332.513 47.0726Z" fill="#F28F8F"/>
<path d="M332.936 29.44C332.965 29.7345 333.087 30.0147 333.288 30.246C333.488 30.4772 333.758 30.6492 334.064 30.7405C334.37 30.8319 334.699 30.8386 335.009 30.7598C335.319 30.681 335.597 30.5202 335.809 30.2974C336.02 30.0745 336.156 29.7995 336.199 29.5065C336.242 29.2135 336.19 28.9153 336.049 28.6492C335.909 28.3831 335.687 28.1606 335.41 28.0096C335.134 27.8585 334.815 27.7855 334.494 27.7996C334.052 27.8314 333.642 28.021 333.35 28.3277C333.059 28.6344 332.911 29.0337 332.936 29.44Z" fill="#263238"/>
<path d="M330.404 40.6895C330.443 41.0688 330.602 41.4292 330.862 41.7261C331.122 42.023 331.471 42.2431 331.866 42.3592C332.261 42.4753 332.684 42.4822 333.083 42.3791C333.482 42.276 333.84 42.0673 334.111 41.7791C334.382 41.4909 334.555 41.1359 334.608 40.7581C334.662 40.3803 334.593 39.9965 334.411 39.6543C334.229 39.312 333.941 39.0265 333.584 38.8332C333.227 38.6399 332.815 38.5474 332.401 38.567C331.832 38.6088 331.303 38.8549 330.929 39.2521C330.555 39.6492 330.367 40.1656 330.404 40.6895Z" fill="#F28F8F"/>
<path d="M334.297 24.2626L337.783 25.8175C338.001 25.3785 338.026 24.8796 337.854 24.4239C337.683 23.9682 337.327 23.5904 336.861 23.3686C336.63 23.267 336.378 23.2096 336.122 23.1998C335.866 23.1899 335.61 23.228 335.371 23.3116C335.131 23.3951 334.912 23.5225 334.728 23.686C334.543 23.8495 334.397 24.0456 334.297 24.2626Z" fill="#263238"/>
<path d="M319.133 25.6073L322.103 23.275C321.948 23.0889 321.754 22.9339 321.531 22.8195C321.309 22.7051 321.063 22.6337 320.81 22.6097C320.556 22.5856 320.3 22.6095 320.056 22.6798C319.813 22.7501 319.588 22.8653 319.395 23.0184C318.999 23.337 318.751 23.7832 318.702 24.2648C318.653 24.7465 318.808 25.227 319.133 25.6073Z" fill="#263238"/>
<path d="M320.022 29.1369C320.042 29.4245 320.154 29.7001 320.345 29.9291C320.535 30.1581 320.795 30.3302 321.092 30.4239C321.389 30.5176 321.709 30.5286 322.012 30.4555C322.316 30.3825 322.589 30.2287 322.797 30.0134C323.006 29.7981 323.141 29.531 323.184 29.2456C323.228 28.9602 323.179 28.6693 323.043 28.4095C322.908 28.1496 322.691 27.9324 322.422 27.7852C322.152 27.638 321.841 27.5673 321.528 27.582C321.105 27.608 320.71 27.7855 320.428 28.0764C320.147 28.3672 320.001 28.748 320.022 29.1369Z" fill="#263238"/>
<path d="M327.875 27.4111L327.824 36.6083L322.526 35.2089L327.875 27.4111Z" fill="#F28F8F"/>
<path d="M314.581 40.2776C314.63 40.2677 314.676 40.2488 314.716 40.2221C314.757 40.1953 314.792 40.1614 314.818 40.1221C314.848 40.0837 314.869 40.0401 314.88 39.9939C314.891 39.9477 314.892 39.8999 314.883 39.8534C314.873 39.8069 314.854 39.7626 314.825 39.7233C314.796 39.684 314.759 39.6504 314.716 39.6246L310.113 36.8102C310.07 36.784 310.022 36.7658 309.971 36.7567C309.921 36.7476 309.869 36.7478 309.819 36.7572C309.769 36.7666 309.721 36.785 309.678 36.8115C309.636 36.8379 309.599 36.8719 309.571 36.9113C309.541 36.9502 309.521 36.9943 309.51 37.0408C309.499 37.0873 309.499 37.1353 309.51 37.1818C309.52 37.2284 309.54 37.2725 309.57 37.3115C309.599 37.3506 309.637 37.3837 309.681 37.4089L314.276 40.2232C314.319 40.2524 314.369 40.2724 314.422 40.2818C314.474 40.2912 314.529 40.2898 314.581 40.2776Z" fill="#E0E0E0"/>
<path d="M314.09 42.0965C314.162 42.0801 314.227 42.0462 314.279 41.9982C314.332 41.9503 314.369 41.8902 314.386 41.8244C314.409 41.7306 314.391 41.6324 314.336 41.5509C314.28 41.4694 314.192 41.4112 314.09 41.389L308.708 40.2462C308.658 40.2346 308.606 40.2323 308.555 40.2393C308.504 40.2464 308.455 40.2627 308.411 40.2873C308.367 40.3119 308.329 40.3443 308.298 40.3826C308.268 40.4209 308.246 40.4644 308.234 40.5105C308.211 40.6043 308.23 40.7026 308.285 40.784C308.341 40.8655 308.429 40.9237 308.53 40.9459L313.912 42.0965C313.971 42.1043 314.031 42.1043 314.09 42.0965Z" fill="#E0E0E0"/>
<path d="M309.089 45.3853H309.139L314.327 43.6438C314.425 43.6108 314.504 43.5436 314.548 43.4568C314.591 43.3701 314.596 43.271 314.56 43.1813C314.524 43.0916 314.45 43.0187 314.356 42.9786C314.262 42.9385 314.154 42.9345 314.056 42.9675L308.869 44.7089C308.82 44.7253 308.775 44.7505 308.737 44.783C308.699 44.8154 308.669 44.8545 308.648 44.898C308.626 44.9414 308.615 44.9884 308.613 45.036C308.612 45.0837 308.621 45.131 308.64 45.1754C308.676 45.2535 308.74 45.3175 308.823 45.3559C308.905 45.3944 308.999 45.4048 309.089 45.3853Z" fill="#E0E0E0"/>
<path d="M265.202 82.6789C265.309 82.8762 265.477 83.0403 265.684 83.1509C265.892 83.2616 266.13 83.314 266.369 83.3016C266.609 83.2892 266.839 83.2125 267.032 83.0811C267.224 82.9497 267.371 82.7693 267.453 82.5623L271.312 73.8161C271.374 73.6758 271.406 73.5255 271.404 73.3739C271.402 73.2224 271.366 73.0727 271.3 72.934C271.233 72.7953 271.137 72.6703 271.017 72.5665C270.897 72.4627 270.755 72.3823 270.6 72.33C270.445 72.2777 270.281 72.2546 270.116 72.2621C269.951 72.2697 269.79 72.3076 269.641 72.3738C269.493 72.4399 269.36 72.5329 269.252 72.6471C269.143 72.7614 269.061 72.8945 269.01 73.0386L265.143 81.7848C265.086 81.9297 265.061 82.0837 265.072 82.2375C265.082 82.3913 265.126 82.5415 265.202 82.6789Z" fill="#E0E0E0"/>
<path d="M258.848 82.6322C258.971 82.8614 259.175 83.0454 259.427 83.1538C259.679 83.2623 259.964 83.2889 260.235 83.2293C260.505 83.1696 260.746 83.0272 260.916 82.8255C261.087 82.6238 261.179 82.3747 261.175 82.1191L261.048 71.2349C261.023 70.9531 260.883 70.6904 260.656 70.4989C260.43 70.3075 260.133 70.2012 259.825 70.2012C259.518 70.2012 259.221 70.3075 258.994 70.4989C258.768 70.6904 258.628 70.9531 258.603 71.2349L258.721 82.1191C258.719 82.297 258.762 82.4728 258.848 82.6322Z" fill="#E0E0E0"/>
<path d="M248.076 76.5762L248.152 76.7084L253.982 84.4828C254.163 84.729 254.442 84.8997 254.759 84.9579C255.076 85.0161 255.405 84.9571 255.675 84.7938C255.938 84.624 256.119 84.3673 256.181 84.0774C256.242 83.7875 256.179 83.487 256.005 83.2389L250.174 75.4645C250.004 75.2233 249.74 75.0514 249.436 74.9842C249.132 74.917 248.812 74.9597 248.541 75.1035C248.271 75.2473 248.07 75.4812 247.982 75.7567C247.894 76.0323 247.924 76.3285 248.067 76.584L248.076 76.5762Z" fill="#E0E0E0"/>
</svg>
