<svg width="74" height="62" viewBox="0 0 74 62" fill="none" xmlns="http://www.w3.org/2000/svg">
<g clip-path="url(#clip0_2828_1441)">
<path d="M60.5534 15.4595L26.2784 17.937C24.8344 18.0413 23.5957 18.9148 23.0457 20.2164C22.4957 21.5181 22.7452 22.9855 23.6969 24.0458L31.2135 32.4205L43.5632 26.3611C44.1315 26.0823 44.8249 26.3039 45.1119 26.8562C45.3988 27.4084 45.1707 28.0823 44.6024 28.3611L32.2527 34.4205L34.7246 45.2703C35.0376 46.6442 36.1045 47.7105 37.5089 48.0532C38.9161 48.3965 40.3737 47.9439 41.3158 46.8786L63.7168 21.5478C64.7367 20.3945 64.9321 18.8348 64.2268 17.4774C63.5215 16.1199 62.114 15.3466 60.5534 15.4595Z" fill="#41BE90"/>
</g>
<line x1="1.36544" y1="-1.36544" x2="18.9785" y2="-1.36544" transform="matrix(0.897758 -0.440489 0.461055 0.887372 7.30664 40.2654)" stroke="#41BE90" stroke-width="2.73088" stroke-linecap="round"/>
<line x1="1.36544" y1="-1.36544" x2="12.7188" y2="-1.36544" transform="matrix(0.897758 -0.440489 0.461055 0.887372 15.0547 41.6039)" stroke="#FBA333" stroke-width="2.73088" stroke-linecap="round"/>
<line x1="1.36544" y1="-1.36544" x2="7.2416" y2="-1.36544" transform="matrix(0.897758 -0.440489 0.461055 0.887372 22.0996 43.2868)" stroke="#41BE90" stroke-width="2.73088" stroke-linecap="round"/>
<defs>
<clipPath id="clip0_2828_1441">
<rect width="39.1229" height="38.4635" fill="white" transform="matrix(0.897758 -0.440489 0.461055 0.887372 20.2373 17.6448)"/>
</clipPath>
</defs>
</svg>
