<svg width="277" height="230" viewBox="0 0 277 230" fill="none" xmlns="http://www.w3.org/2000/svg">
<path d="M138.5 229.861C197.824 229.861 245.915 226.745 245.915 222.901C245.915 219.056 197.824 215.94 138.5 215.94C79.1763 215.94 31.085 219.056 31.085 222.901C31.085 226.745 79.1763 229.861 138.5 229.861Z" fill="#F5F5F5"/>
<path d="M127.492 221.29C127.548 221.479 127.561 221.681 127.531 221.878C127.501 222.075 127.429 222.26 127.32 222.419C127.211 222.577 127.068 222.704 126.905 222.788C126.742 222.872 126.563 222.911 126.384 222.901H49.2117C46.8018 222.901 46.8018 205.481 49.2117 205.481H126.406C126.585 205.472 126.763 205.51 126.926 205.594C127.088 205.678 127.23 205.804 127.339 205.962C127.448 206.119 127.521 206.304 127.551 206.5C127.582 206.696 127.569 206.897 127.514 207.086C126.55 210.406 126.55 217.976 127.492 221.29Z" fill="#407BFF"/>
<path opacity="0.8" d="M127.381 207.516H80.5516C78.7068 207.516 78.7068 220.865 80.5516 220.865H127.381C126.589 217.514 126.589 210.861 127.381 207.516Z" fill="white"/>
<path opacity="0.2" d="M78.2192 221.29C78.2751 221.479 78.2886 221.681 78.2586 221.878C78.2286 222.075 78.156 222.26 78.0469 222.419C77.9379 222.577 77.7957 222.704 77.6327 222.788C77.4696 222.872 77.2907 222.911 77.1112 222.901H49.2117C46.8018 222.901 46.8018 205.481 49.2117 205.481H77.1333C77.3122 205.472 77.4905 205.51 77.6529 205.594C77.8153 205.678 77.9571 205.804 78.066 205.962C78.1749 206.119 78.2478 206.304 78.2783 206.5C78.3088 206.696 78.2961 206.897 78.2413 207.086C77.2774 210.406 77.2774 217.976 78.2192 221.29Z" fill="black"/>
<path d="M61.1117 205.481H54.7352C52.3253 205.481 52.3253 222.901 54.7352 222.901H61.1117C58.724 222.901 58.724 205.481 61.1117 205.481Z" fill="#407BFF"/>
<path d="M66.1357 205.481H63.6316C61.2217 205.481 61.2217 222.901 63.6316 222.901H66.1357C63.7092 222.901 63.7092 205.481 66.1357 205.481Z" fill="#407BFF"/>
<path d="M44.7139 204.036C44.448 204.75 45.1017 205.481 45.9881 205.481H115.393C118.224 205.481 118.224 189.82 115.393 189.82H45.9826C45.0962 189.82 44.4425 190.546 44.7084 191.265C45.8164 194.247 45.8164 201.054 44.7139 204.036Z" fill="#263238"/>
<path opacity="0.2" d="M44.7139 204.036C44.448 204.75 45.1017 205.481 45.9881 205.481H80.0203C82.8513 205.481 82.8513 189.82 80.0203 189.82H45.9826C45.0962 189.82 44.4425 190.546 44.7084 191.265C45.8164 194.247 45.8164 201.054 44.7139 204.036Z" fill="black"/>
<path opacity="0.8" d="M44.835 191.646H78.629C80.7951 191.646 80.7951 203.649 78.629 203.649H44.835C45.7657 200.618 45.7657 194.659 44.835 191.646Z" fill="white"/>
<path opacity="0.2" d="M89.8524 193.313C89.6419 192.618 90.2513 191.942 91.0934 191.942H110.522C112.583 191.942 112.583 203.354 110.522 203.354H91.0934C90.2513 203.354 89.6419 202.684 89.8524 201.989C90.5173 199.144 90.5173 196.158 89.8524 193.313Z" fill="white"/>
<path d="M230.315 197.045C230.376 197.253 230.394 197.474 230.366 197.691C230.339 197.907 230.267 198.114 230.156 198.295C230.045 198.476 229.899 198.627 229.728 198.735C229.556 198.843 229.365 198.907 229.168 198.92H147.619C145.071 198.92 145.071 178.63 147.619 178.63H229.168C229.362 178.644 229.55 178.707 229.718 178.814C229.887 178.921 230.032 179.068 230.142 179.245C230.252 179.422 230.325 179.625 230.355 179.838C230.385 180.051 230.371 180.268 230.315 180.474C229.323 184.379 229.323 193.19 230.315 197.045Z" fill="#407BFF"/>
<path opacity="0.5" d="M230.315 197.045C230.376 197.253 230.394 197.474 230.366 197.691C230.339 197.907 230.267 198.114 230.156 198.295C230.045 198.476 229.899 198.627 229.728 198.735C229.556 198.843 229.365 198.907 229.168 198.92H147.619C145.071 198.92 145.071 178.63 147.619 178.63H229.168C229.362 178.644 229.55 178.707 229.718 178.814C229.887 178.921 230.032 179.068 230.142 179.245C230.252 179.422 230.325 179.625 230.355 179.838C230.385 180.051 230.371 180.268 230.315 180.474C229.323 184.379 229.323 193.19 230.315 197.045Z" fill="white"/>
<path opacity="0.8" d="M230.203 181.015H180.725C178.775 181.015 178.775 196.547 180.725 196.547H230.203C229.355 192.655 229.355 184.914 230.203 181.015Z" fill="white"/>
<path opacity="0.6" d="M178.261 197.045C178.322 197.253 178.34 197.474 178.312 197.691C178.285 197.907 178.213 198.114 178.102 198.295C177.992 198.476 177.845 198.627 177.674 198.735C177.502 198.843 177.311 198.907 177.114 198.92H147.619C145.071 198.92 145.071 178.63 147.619 178.63H177.114C177.308 178.644 177.496 178.707 177.665 178.814C177.833 178.921 177.978 179.068 178.088 179.245C178.198 179.422 178.271 179.625 178.301 179.838C178.331 180.051 178.317 180.268 178.261 180.474C177.28 184.379 177.28 193.19 178.261 197.045Z" fill="#407BFF"/>
<path opacity="0.5" d="M166.295 180.148C166.353 179.989 166.376 179.818 166.363 179.647C166.35 179.476 166.302 179.311 166.221 179.165C166.14 179.019 166.029 178.897 165.898 178.807C165.767 178.717 165.618 178.662 165.464 178.648H154.218C151.67 178.648 151.67 198.939 154.218 198.939H165.464C165.618 198.923 165.767 198.868 165.898 198.778C166.029 198.687 166.14 198.564 166.221 198.417C166.301 198.271 166.35 198.106 166.363 197.935C166.376 197.764 166.353 197.592 166.295 197.432C165.159 193.663 165.159 183.905 166.295 180.148Z" fill="white"/>
<path d="M224.464 220.669C224.53 220.938 224.537 221.221 224.484 221.495C224.432 221.768 224.321 222.023 224.162 222.239C224.003 222.456 223.799 222.627 223.569 222.739C223.338 222.85 223.087 222.9 222.836 222.882H138.107C134.489 222.882 134.484 198.902 138.107 198.902H222.869C223.12 198.885 223.371 198.934 223.602 199.045C223.833 199.157 224.036 199.328 224.195 199.545C224.354 199.761 224.465 200.016 224.517 200.29C224.57 200.563 224.563 200.846 224.498 201.116C223.052 205.684 223.057 216.106 224.464 220.669Z" fill="#407BFF"/>
<path opacity="0.2" d="M224.464 220.669C224.53 220.938 224.537 221.221 224.484 221.495C224.432 221.768 224.321 222.023 224.162 222.239C224.003 222.456 223.799 222.627 223.569 222.739C223.338 222.85 223.087 222.9 222.836 222.882H138.107C134.489 222.882 134.484 198.902 138.107 198.902H222.869C223.12 198.885 223.371 198.934 223.602 199.045C223.833 199.157 224.036 199.328 224.195 199.545C224.354 199.761 224.465 200.016 224.517 200.29C224.57 200.563 224.563 200.846 224.498 201.116C223.052 205.684 223.057 216.106 224.464 220.669Z" fill="white"/>
<path opacity="0.8" d="M224.298 201.706H173.07C170.3 201.706 170.3 220.078 173.07 220.078H224.304C223.118 215.473 223.118 206.317 224.298 201.706Z" fill="white"/>
<path opacity="0.6" d="M169.569 220.681C169.635 220.95 169.643 221.233 169.591 221.507C169.539 221.78 169.43 222.035 169.271 222.252C169.112 222.468 168.909 222.64 168.678 222.752C168.448 222.863 168.196 222.912 167.945 222.895H138.107C134.489 222.895 134.484 198.914 138.107 198.914H167.945C168.197 198.897 168.448 198.946 168.678 199.058C168.909 199.17 169.112 199.341 169.272 199.557C169.431 199.773 169.541 200.029 169.594 200.302C169.646 200.575 169.64 200.858 169.574 201.128C168.161 205.696 168.161 216.112 169.569 220.681Z" fill="#407BFF"/>
<path opacity="0.5" d="M151.696 199.751C151.742 199.663 151.766 199.562 151.764 199.461C151.762 199.359 151.735 199.26 151.686 199.174C151.637 199.088 151.567 199.019 151.485 198.975C151.403 198.93 151.311 198.911 151.22 198.92H146.15C142.538 198.92 142.538 222.901 146.15 222.901H151.242C151.333 222.91 151.425 222.891 151.507 222.847C151.589 222.802 151.659 222.733 151.708 222.647C151.757 222.561 151.784 222.462 151.786 222.36C151.788 222.259 151.764 222.158 151.718 222.071C149.519 218.363 149.519 203.452 151.696 199.751Z" fill="white"/>
<path opacity="0.5" d="M159.608 199.751C159.654 199.662 159.677 199.562 159.675 199.46C159.673 199.358 159.646 199.259 159.597 199.173C159.548 199.087 159.479 199.018 159.397 198.972C159.315 198.926 159.223 198.906 159.132 198.914H154.063C150.45 198.914 150.45 222.894 154.063 222.894H159.132C159.222 222.903 159.314 222.883 159.395 222.838C159.476 222.792 159.545 222.723 159.594 222.638C159.642 222.552 159.669 222.454 159.67 222.352C159.672 222.251 159.648 222.152 159.603 222.064C157.431 218.363 157.431 203.446 159.608 199.751Z" fill="white"/>
<path d="M223.634 165.889C223.535 164.182 223.174 162.505 222.564 160.933L223.063 160.663C223.696 162.301 224.071 164.048 224.171 165.828L223.634 165.889Z" fill="#407BFF"/>
<path d="M220.16 158.271H206.398V158.886H220.16V158.271Z" fill="#407BFF"/>
<path d="M130.472 176.969C130.189 177.806 130.882 178.648 131.818 178.648H220.159C223.145 178.648 223.145 160.423 220.159 160.423H131.818C130.882 160.423 130.189 161.271 130.472 162.108C131.635 165.569 131.635 173.495 130.472 176.969Z" fill="#407BFF"/>
<path opacity="0.2" d="M130.472 176.969C130.189 177.806 130.882 178.648 131.818 178.648H182.786C185.778 178.648 185.778 160.423 182.786 160.423H131.818C130.882 160.423 130.189 161.271 130.472 162.108C131.635 165.569 131.635 173.495 130.472 176.969Z" fill="black"/>
<path opacity="0.8" d="M130.606 162.557H181.309C183.602 162.557 183.602 176.52 181.309 176.52H130.606C131.587 173.016 131.587 166.061 130.606 162.557Z" fill="white"/>
<path opacity="0.2" d="M193.174 164.487C192.952 163.682 193.595 162.901 194.481 162.901H215.013C217.19 162.901 217.19 176.176 215.013 176.176H194.481C193.595 176.176 192.952 175.395 193.174 174.584C193.9 172.032 193.9 167.045 193.174 164.487Z" fill="white"/>
<path d="M122.211 27.2222C119.712 30.192 113.613 27.2222 112.682 35.4001C111.674 44.2174 115.497 48.4539 110.56 50.772C102.804 54.369 97.2644 68.7448 108.034 74.1373C118.804 79.5298 141.74 73.8791 139.158 62.8912C136.576 51.9034 137.086 46.0067 140.133 40.8294C144.149 33.9858 143.291 25.1931 140.017 22.008C134.92 17.0275 127.878 20.4585 122.211 27.2222Z" fill="#263238"/>
<path d="M135.54 62.596C135.498 62.5978 135.457 62.5817 135.425 62.5508C135.393 62.52 135.373 62.4768 135.369 62.43C135.365 62.4053 135.365 62.38 135.371 62.3555C135.376 62.3311 135.386 62.3081 135.399 62.288C135.412 62.2678 135.43 62.251 135.449 62.2384C135.469 62.2258 135.49 62.2178 135.513 62.2148C137.651 61.8889 138.925 61.3048 139.524 60.3702C140.266 59.2081 139.945 57.4803 139.524 55.2913C138.87 51.7312 137.967 46.8552 140.848 40.6941C144.344 33.2234 143.064 25.0332 139.79 22.3523C139.753 22.3228 139.729 22.2785 139.721 22.229C139.714 22.1795 139.725 22.1288 139.751 22.0879C139.778 22.047 139.819 22.0196 139.865 22.0116C139.91 22.0036 139.957 22.0155 139.995 22.0449C143.407 24.818 144.726 33.2295 141.152 40.8724C138.333 46.9105 139.219 51.7127 139.862 55.2175C140.283 57.4926 140.615 59.2941 139.784 60.5915C139.13 61.6184 137.784 62.2517 135.546 62.596H135.54Z" fill="#263238"/>
<path d="M107.608 51.9464C107.258 51.9448 106.909 51.9201 106.561 51.8726C106.539 51.8696 106.517 51.8616 106.497 51.8491C106.477 51.8366 106.46 51.8198 106.446 51.7998C106.432 51.7798 106.422 51.7569 106.416 51.7324C106.41 51.708 106.409 51.6825 106.412 51.6574C106.414 51.6323 106.422 51.608 106.433 51.586C106.444 51.564 106.459 51.5448 106.477 51.5293C106.495 51.5138 106.516 51.5025 106.538 51.496C106.56 51.4895 106.583 51.4879 106.606 51.4914C108.179 51.7066 109.32 51.4483 110.09 50.6982C111.531 49.2901 111.553 46.3449 111.569 42.9323C111.569 39.0709 111.619 34.6991 113.874 31.7169C113.889 31.6976 113.907 31.6816 113.927 31.6698C113.947 31.6581 113.969 31.6509 113.991 31.6486C114.014 31.6463 114.037 31.649 114.059 31.6565C114.08 31.664 114.1 31.6762 114.118 31.6923C114.135 31.7085 114.15 31.7283 114.16 31.7506C114.171 31.773 114.177 31.7974 114.179 31.8225C114.182 31.8476 114.179 31.873 114.172 31.8971C114.166 31.9211 114.155 31.9435 114.14 31.9629C111.963 34.8405 111.924 39.1385 111.924 42.9384C111.924 46.4371 111.885 49.4623 110.329 50.9872C109.561 51.6715 108.591 52.0135 107.608 51.9464Z" fill="#263238"/>
<path d="M161.984 160.411C158.289 160.361 156.837 160.103 155.137 160.134C153.436 160.165 153.031 160.497 151.259 160.411C150.062 160.355 150.056 158.775 150.516 157.693C150.876 156.844 151.319 155.99 151.729 154.932L156.416 155.313C157.048 157.293 160.183 158.142 162.931 158.843C164.023 159.132 163.463 160.429 161.984 160.411Z" fill="#407BFF"/>
<path d="M137.547 84.873C137.547 84.873 149.945 96.7094 162.477 109.265C167.773 114.584 156.665 155.135 156.665 155.135C156.433 156.002 152.3 154.766 151.679 154.084C151.679 154.084 151.048 122.608 153.735 116.269C125.946 108.472 121.603 93.3276 121.603 93.3276L123.597 83.9323L137.547 84.873Z" fill="#263238"/>
<path opacity="0.2" d="M123.436 97.0599C124.991 99.4729 126.834 101.641 128.915 103.504C131.685 99.9068 130.909 94.0962 130.909 94.0962L123.436 97.0599Z" fill="black"/>
<path d="M157.629 153.383C157.551 153.998 157.419 155.086 157.347 155.891C157.335 156.022 157.28 156.143 157.191 156.229C157.103 156.316 156.988 156.362 156.87 156.359C155.016 156.197 153.18 155.843 151.385 155.301C151.299 155.275 151.223 155.218 151.168 155.139C151.113 155.06 151.082 154.964 151.081 154.864L151.042 152.62C151.042 152.547 151.055 152.475 151.082 152.408C151.108 152.341 151.147 152.281 151.195 152.232C151.244 152.183 151.301 152.145 151.363 152.122C151.426 152.099 151.492 152.091 151.557 152.098L157.274 152.866C157.329 152.873 157.381 152.892 157.429 152.922C157.477 152.952 157.518 152.992 157.551 153.04C157.584 153.088 157.608 153.144 157.622 153.203C157.635 153.261 157.638 153.323 157.629 153.383Z" fill="#263238"/>
<path opacity="0.3" d="M157.629 153.383C157.551 153.998 157.419 155.086 157.347 155.891C157.335 156.022 157.28 156.143 157.191 156.229C157.103 156.316 156.988 156.362 156.87 156.359C155.016 156.197 153.18 155.843 151.385 155.301C151.299 155.275 151.223 155.218 151.168 155.139C151.113 155.06 151.082 154.964 151.081 154.864L151.042 152.62C151.042 152.547 151.055 152.475 151.082 152.408C151.108 152.341 151.147 152.281 151.195 152.232C151.244 152.183 151.301 152.145 151.363 152.122C151.426 152.099 151.492 152.091 151.557 152.098L157.274 152.866C157.329 152.873 157.381 152.892 157.429 152.922C157.477 152.952 157.518 152.992 157.551 153.04C157.584 153.088 157.608 153.144 157.622 153.203C157.635 153.261 157.638 153.323 157.629 153.383Z" fill="white"/>
<path d="M107.735 189.82C103.979 189.82 102.749 188.252 100.65 187.822C98.8769 187.453 98.406 187.625 96.9767 187.349C95.78 187.115 95.6859 186.205 96.4227 184.858C96.9034 183.927 97.3111 182.952 97.6415 181.944L103.337 182.362C103.929 184.053 105.298 187.49 107.386 187.896C109.353 188.32 109.231 189.82 107.735 189.82Z" fill="#407BFF"/>
<path d="M136.687 84.8361C136.687 84.8361 123.585 110.692 118.311 126.685C112.771 143.483 103.952 170.956 103.314 182.362C102.373 182.86 99.2813 182.669 97.6193 181.944C97.6193 181.944 96.0792 142.592 106.744 126.826C109.287 93.0632 113.508 87.6646 117.995 83.551L136.687 84.8361Z" fill="#263238"/>
<path d="M104.001 180.031C103.933 180.81 103.915 181.593 103.946 182.374C103.954 182.51 103.913 182.644 103.832 182.746C103.751 182.849 103.636 182.912 103.514 182.921C101.392 183.137 98.4338 182.38 97.4975 182.122C97.4105 182.098 97.3331 182.043 97.277 181.965C97.221 181.887 97.1895 181.791 97.1873 181.692L97.1153 179.49C97.1144 179.418 97.127 179.346 97.1524 179.279C97.1777 179.213 97.2153 179.153 97.2627 179.103C97.3101 179.053 97.3663 179.015 97.4277 178.991C97.4891 178.966 97.5544 178.956 97.6194 178.962L103.625 179.533C103.679 179.538 103.732 179.555 103.781 179.582C103.829 179.61 103.872 179.648 103.907 179.694C103.943 179.741 103.969 179.795 103.985 179.852C104.001 179.91 104.007 179.971 104.001 180.031Z" fill="#263238"/>
<path opacity="0.3" d="M104.001 180.031C103.933 180.81 103.915 181.593 103.946 182.374C103.954 182.51 103.913 182.644 103.832 182.746C103.751 182.849 103.636 182.912 103.514 182.921C101.392 183.137 98.4338 182.38 97.4975 182.122C97.4105 182.098 97.3331 182.043 97.277 181.965C97.221 181.887 97.1895 181.791 97.1873 181.692L97.1153 179.49C97.1144 179.418 97.127 179.346 97.1524 179.279C97.1777 179.213 97.2153 179.153 97.2627 179.103C97.3101 179.053 97.3663 179.015 97.4277 178.991C97.4891 178.966 97.5544 178.956 97.6194 178.962L103.625 179.533C103.679 179.538 103.732 179.555 103.781 179.582C103.829 179.61 103.872 179.648 103.907 179.694C103.943 179.741 103.969 179.795 103.985 179.852C104.001 179.91 104.007 179.971 104.001 180.031Z" fill="white"/>
<path d="M140.161 59.4725C140.715 60.6346 141.314 61.932 141.923 63.1617C142.532 64.3915 143.147 65.6212 143.768 66.8202C145.02 69.2367 146.327 71.604 147.729 73.836L146.976 73.092C147.532 73.5257 148.144 73.8617 148.793 74.0881C149.577 74.38 150.381 74.6021 151.197 74.7522C152.05 74.9243 152.937 75.0412 153.84 75.1334C154.743 75.2256 155.69 75.281 156.554 75.3424H156.671C157.03 75.3654 157.372 75.5267 157.636 75.7986C157.901 76.0706 158.071 76.4362 158.119 76.8327C158.167 77.2292 158.089 77.6318 157.898 77.9714C157.708 78.311 157.417 78.5663 157.075 78.6935C156.085 79.0591 155.072 79.3427 154.045 79.5421C153.012 79.7459 151.968 79.8712 150.92 79.9171C149.808 79.9645 148.695 79.8904 147.596 79.6958C146.356 79.4884 145.157 79.0475 144.05 78.3922C143.82 78.2528 143.616 78.0672 143.447 77.845L143.297 77.6482C142.416 76.48 141.557 75.2871 140.771 74.0635C139.984 72.8399 139.214 71.604 138.499 70.3742C137.785 69.1445 137.092 67.8348 136.438 66.5374C135.785 65.24 135.164 63.9549 134.572 62.5346C134.26 61.7274 134.239 60.8189 134.511 59.9946C134.783 59.1703 135.329 58.4926 136.036 58.1C136.744 57.7074 137.56 57.6295 138.317 57.8823C139.075 58.1352 139.716 58.6996 140.112 59.4602L140.161 59.4725Z" fill="#FFB573"/>
<path d="M137.102 54.5105C140.72 55.8325 141.307 57.6341 143.29 64.287C141.972 68.2776 136.642 70.3005 136.642 70.3005C136.642 70.3005 130.349 58.9253 137.102 54.5105Z" fill="#407BFF"/>
<path d="M142.055 63.1678C141.851 65.3691 141.341 67.9946 140.272 73.1534C139.441 77.5314 139.43 86.0658 138.1 86.5147C135.546 87.9166 129.153 87.3755 117.995 83.551C118.35 77.1563 119.02 72.8152 117.103 58.1443C116.983 57.3752 117.018 56.5859 117.207 55.8338C117.396 55.0818 117.733 54.386 118.195 53.797C118.657 53.208 119.231 52.7407 119.876 52.4291C120.521 52.1174 121.22 51.9693 121.923 51.9955C122.732 51.9955 123.585 52.0693 124.455 52.1554C127.523 52.3602 130.575 52.8103 133.585 53.502C134.565 53.7479 135.579 54.0369 136.543 54.332C138.241 54.8702 139.718 56.0448 140.723 57.6558C141.728 59.2669 142.199 61.2148 142.055 63.1678Z" fill="#407BFF"/>
<path d="M102.999 88.5993L104.107 87.474C104.314 87.2648 104.472 87.0038 104.568 86.7127C104.664 86.4217 104.696 86.1092 104.661 85.8016L104.357 82.8686C104.298 82.2922 104.117 81.7394 103.828 81.2561C103.539 80.7728 103.151 80.3729 102.695 80.0894L102.141 79.7389C100.163 81.4667 99.1713 84.9469 99.1713 84.9469L98.7891 85.9061C98.705 86.1 98.6566 86.3106 98.6465 86.5254C98.6364 86.7403 98.665 86.9553 98.7304 87.1579C98.7959 87.3604 98.897 87.5465 99.0279 87.7053C99.1587 87.864 99.3167 87.9924 99.4926 88.0828L101.193 88.9436C101.492 89.0851 101.822 89.1278 102.142 89.0668C102.462 89.0057 102.76 88.8434 102.999 88.5993Z" fill="#FFB573"/>
<path d="M161.153 73.8298L159.735 73.215C159.472 73.1049 159.19 73.0664 158.911 73.1028C158.633 73.1392 158.366 73.2493 158.134 73.424L155.918 75.0719C155.483 75.3966 155.124 75.8325 154.873 76.3429C154.621 76.8532 154.484 77.4232 154.472 78.0049V78.7366C156.76 79.8925 160.012 79.2654 160.012 79.2654L160.953 79.2039C161.147 79.1967 161.338 79.1471 161.514 79.0578C161.691 78.9684 161.849 78.8412 161.981 78.6834C162.113 78.5256 162.216 78.3404 162.283 78.1385C162.35 77.9365 162.38 77.7218 162.372 77.5068L162.283 75.4347C162.257 75.0736 162.137 74.7288 161.936 74.4434C161.735 74.158 161.462 73.9446 161.153 73.8298Z" fill="#FFB573"/>
<path d="M120.405 60.1242L119.696 60.487L118.92 60.8805C118.405 61.1572 117.895 61.4462 117.385 61.7414C116.36 62.3562 115.363 62.9711 114.383 63.6167C113.402 64.2624 112.455 64.9818 111.535 65.7135C110.615 66.4452 109.762 67.2445 108.931 68.0623L109.297 67.5458C109.027 67.9868 108.79 68.4515 108.588 68.9354C108.344 69.495 108.117 70.1037 107.895 70.7247C107.452 71.9545 107.02 73.2703 106.621 74.5923C106.222 75.9143 105.818 77.2547 105.424 78.5951L104.228 82.6349C104.112 83.0317 103.87 83.3682 103.547 83.582C103.224 83.7957 102.843 83.8721 102.473 83.797C102.103 83.7218 101.771 83.5002 101.537 83.1734C101.303 82.8465 101.185 82.4367 101.203 82.02C101.264 80.5381 101.386 79.0993 101.535 77.6482C101.685 76.1971 101.873 74.7522 102.089 73.301C102.305 71.8499 102.588 70.3927 102.948 68.917C103.125 68.1791 103.319 67.4413 103.563 66.6665C103.821 65.8137 104.151 64.9902 104.549 64.207C104.619 64.0787 104.699 63.9574 104.787 63.8442L104.92 63.6905C105.833 62.5738 106.81 61.5243 107.845 60.5485C108.866 59.5859 109.935 58.6888 111.048 57.8615C112.145 57.0355 113.283 56.276 114.455 55.5864C115.042 55.2421 115.635 54.9162 116.239 54.5965C116.543 54.4428 116.842 54.2829 117.158 54.1353C117.474 53.9878 117.762 53.8586 118.155 53.6926C118.91 53.3579 119.753 53.3656 120.502 53.7141C121.251 54.0627 121.847 54.7241 122.161 55.5559C122.475 56.3876 122.482 57.323 122.181 58.1603C121.879 58.9976 121.293 59.6698 120.549 60.032L120.405 60.1242Z" fill="#FFB573"/>
<path d="M125.757 53.5942C123.042 51.436 121.392 51.2024 114.821 54.369C114.04 58.956 116.599 65.6889 116.599 65.6889C116.599 65.6889 125.342 60.6346 125.757 53.5942Z" fill="#407BFF"/>
<path d="M126.466 40.8171C126.87 44.1928 127.131 50.3108 124.959 52.2047C124.959 52.2047 127.795 52.1493 133.219 57.0745C135.252 54.615 134.089 53.5512 134.089 53.5512C130.859 52.1924 131.086 49.4808 131.79 47.0028L126.466 40.8171Z" fill="#FFB573"/>
<path d="M132.072 56.0784C130.095 56.0784 129.092 59.2696 129.092 59.2696C129.092 59.2696 124.339 55.0638 123.69 52.1063C124.321 51.8238 124.939 51.5057 125.541 51.1532C125.541 51.1532 131.086 54.6641 132.072 56.0784Z" fill="white"/>
<path d="M133.967 55.9985C133.967 55.9985 135.463 56.6133 135.956 59.0728C136.97 54.3875 134.992 53.6496 134.992 53.6496C134.497 53.2372 133.88 53.0443 133.264 53.1085C133.668 53.4218 133.96 53.8831 134.089 54.4115C134.217 54.9399 134.174 55.5018 133.967 55.9985Z" fill="white"/>
<path opacity="0.2" d="M128.638 43.3381L131.785 47.0274C131.613 47.6041 131.489 48.1968 131.414 48.7982C130.173 48.4109 128.533 46.6216 128.477 45.109C128.432 44.5128 128.487 43.9124 128.638 43.3381Z" fill="black"/>
<path d="M123.053 35.9043C124.161 41.1553 124.566 43.3996 127.408 45.7976C131.679 49.4008 137.225 47.0643 137.524 41.6288C137.79 36.7098 135.895 28.9623 130.876 27.4866C129.812 27.1317 128.682 27.0985 127.603 27.3902C126.524 27.682 125.535 28.2882 124.738 29.1462C123.94 30.0043 123.364 31.083 123.068 32.2711C122.771 33.4591 122.767 34.7134 123.053 35.9043Z" fill="#FFB573"/>
<path d="M123.978 39.6795C125.718 38.7326 127.563 34.078 125.086 31.8767C127.131 32.301 129.474 31.6923 131.64 29.8354C134.466 27.3758 138.626 33.4816 137.258 29.8968C135.286 24.7319 129.341 23.4406 123.962 27.7325C118.582 32.0243 118.965 37.2446 123.978 39.6795Z" fill="#263238"/>
<path d="M122.506 38.6282C122.487 38.6261 122.469 38.6174 122.455 38.6032C122.441 38.5891 122.431 38.5703 122.428 38.5496C122.424 38.529 122.426 38.5076 122.434 38.4885C122.442 38.4694 122.456 38.4538 122.472 38.4438C123.857 37.7797 129.735 36.3901 129.985 36.3347C129.996 36.3311 130.008 36.3301 130.019 36.332C130.031 36.3338 130.042 36.3383 130.052 36.3453C130.062 36.3523 130.071 36.3615 130.077 36.3724C130.084 36.3833 130.088 36.3956 130.09 36.4085C130.093 36.4329 130.088 36.4577 130.076 36.4782C130.064 36.4987 130.045 36.5133 130.023 36.5192C129.962 36.5192 123.929 37.9642 122.539 38.6221L122.506 38.6282Z" fill="white"/>
<path opacity="0.2" d="M129.634 36.4454C129.04 36.1556 128.367 36.1379 127.762 36.3962C128.377 36.5474 129.013 36.5641 129.634 36.4454Z" fill="black"/>
<path opacity="0.2" d="M129.585 36.9126C129.297 36.8451 128.999 36.8481 128.712 36.9214C128.425 36.9947 128.155 37.1365 127.923 37.3369C128.498 37.3267 129.064 37.1821 129.585 36.9126Z" fill="black"/>
<path d="M130.665 36.3716C130.743 36.8205 131.014 37.1525 131.274 37.1156C131.535 37.0787 131.679 36.6913 131.601 36.2425C131.524 35.7936 131.247 35.4677 130.992 35.4985C130.737 35.5292 130.587 35.9289 130.665 36.3716Z" fill="#263238"/>
<path d="M135.531 35.7875C135.608 36.2302 135.885 36.5622 136.14 36.5315C136.395 36.5008 136.545 36.1011 136.467 35.6584C136.389 35.2157 136.118 34.8775 135.858 34.9144C135.597 34.9513 135.453 35.3386 135.531 35.7875Z" fill="#263238"/>
<path d="M135.729 34.9574L136.627 34.5146C136.627 34.5146 136.283 35.4185 135.729 34.9574Z" fill="#263238"/>
<path d="M134.621 36.6422C135.101 37.6453 135.693 38.5771 136.383 39.4153C136.194 39.5913 135.972 39.7185 135.734 39.7876C135.495 39.8568 135.246 39.8661 135.003 39.815L134.621 36.6422Z" fill="#ED893E"/>
<path d="M132.876 41.8009C133.099 41.822 133.323 41.822 133.546 41.8009C133.562 41.7988 133.576 41.7931 133.589 41.7844C133.602 41.7756 133.614 41.7639 133.623 41.7501C133.632 41.7362 133.638 41.7204 133.641 41.7038C133.644 41.6872 133.644 41.67 133.641 41.6534C133.635 41.618 133.618 41.5863 133.592 41.5646C133.566 41.543 133.534 41.5329 133.502 41.5365C133.001 41.604 132.492 41.5468 132.013 41.3692C131.534 41.1916 131.096 40.898 130.732 40.5097C130.721 40.4974 130.708 40.4877 130.694 40.481C130.68 40.4744 130.665 40.4709 130.649 40.4709C130.634 40.4709 130.618 40.4744 130.604 40.481C130.59 40.4877 130.577 40.4974 130.566 40.5097C130.545 40.5347 130.533 40.5677 130.533 40.6019C130.533 40.6362 130.545 40.6691 130.566 40.6942C131.189 41.3627 132.01 41.7562 132.876 41.8009Z" fill="#263238"/>
<path d="M121.928 40.6081C122.195 41.0309 122.538 41.3875 122.935 41.6553C123.333 41.9231 123.777 42.0962 124.238 42.1637C125.39 42.2683 125.639 40.7803 125.052 39.4583C124.526 38.2716 123.29 36.7774 122.282 37.2939C121.274 37.8104 121.18 39.5198 121.928 40.6081Z" fill="#FFB573"/>
<path d="M129.109 32.9835C129.14 32.9836 129.17 32.9758 129.198 32.9609C129.226 32.946 129.25 32.9243 129.27 32.8975C129.448 32.6442 129.68 32.4437 129.944 32.3139C130.209 32.1841 130.499 32.129 130.788 32.1535C130.818 32.1586 130.848 32.1569 130.878 32.1485C130.907 32.14 130.934 32.1249 130.958 32.1041C130.982 32.0834 131.002 32.0574 131.016 32.0278C131.031 31.9982 131.04 31.9656 131.042 31.9321C131.045 31.8615 131.024 31.7923 130.985 31.737C130.945 31.6817 130.889 31.644 130.826 31.6308C130.462 31.595 130.095 31.6599 129.759 31.8197C129.422 31.9796 129.127 32.2295 128.898 32.547C128.872 32.5889 128.856 32.6383 128.853 32.6897C128.85 32.741 128.86 32.7922 128.882 32.8375C128.904 32.8829 128.937 32.9205 128.977 32.9463C129.017 32.9721 129.063 32.985 129.109 32.9835Z" fill="#263238"/>
<path d="M136.427 32.756C136.456 32.7597 136.486 32.7567 136.515 32.7472C136.543 32.7376 136.57 32.7218 136.593 32.7007C136.615 32.6766 136.632 32.6479 136.644 32.6163C136.656 32.5846 136.663 32.5506 136.663 32.5162C136.663 32.4819 136.656 32.4478 136.644 32.4162C136.632 32.3845 136.615 32.3558 136.593 32.3318C136.353 31.9981 136.048 31.7302 135.7 31.5489C135.352 31.3676 134.972 31.2778 134.587 31.2865C134.557 31.2892 134.527 31.2992 134.5 31.3157C134.473 31.3322 134.45 31.3549 134.431 31.3823C134.413 31.4096 134.4 31.441 134.394 31.4743C134.387 31.5076 134.387 31.5421 134.393 31.5755C134.403 31.645 134.435 31.708 134.485 31.7524C134.534 31.7967 134.596 31.8191 134.659 31.8153C134.964 31.8116 135.265 31.8857 135.54 32.0317C135.815 32.1778 136.055 32.3919 136.244 32.6576C136.266 32.688 136.294 32.7125 136.325 32.7295C136.357 32.7466 136.391 32.7556 136.427 32.756Z" fill="#263238"/>
<path d="M132.166 39.1569C130.997 39.1569 129.983 37.7796 129.873 36.0149C129.805 35.1837 129.978 34.3504 130.366 33.6353C130.519 33.3322 130.735 33.0741 130.996 32.8826C131.257 32.6911 131.556 32.5718 131.867 32.5347C133.091 32.4424 134.166 33.8505 134.282 35.6767C134.399 37.5029 133.496 39.0585 132.282 39.1508L132.166 39.1569ZM131.983 32.756H131.884C131.599 32.7923 131.325 32.9032 131.086 33.0796C130.848 33.256 130.65 33.4928 130.51 33.7706C130.142 34.4508 129.979 35.2434 130.044 36.0333C130.15 37.7488 131.152 39.0708 132.26 38.9909C133.368 38.911 134.205 37.4353 134.1 35.7197C133.994 34.0042 133.064 32.756 131.983 32.756Z" fill="white"/>
<path d="M137.346 38.825C136.178 38.825 135.158 37.4538 135.047 35.6891C134.983 34.8581 135.155 34.0257 135.54 33.3095C135.695 33.0062 135.912 32.7482 136.174 32.5568C136.436 32.3653 136.735 32.2461 137.047 32.2089C138.261 32.1166 139.346 33.5247 139.457 35.3447C139.522 36.1757 139.349 37.0081 138.964 37.7243C138.811 38.0282 138.594 38.2868 138.332 38.4783C138.069 38.6699 137.769 38.7887 137.457 38.825H137.346ZM137.164 32.3995H137.058C136.773 32.4358 136.5 32.5467 136.261 32.723C136.022 32.8994 135.825 33.1363 135.684 33.414C135.322 34.0964 135.159 34.8872 135.219 35.6768C135.324 37.3369 136.266 38.6343 137.346 38.6343H137.446C137.732 38.5995 138.005 38.4892 138.244 38.3127C138.484 38.1362 138.681 37.8985 138.82 37.6198C139.185 36.9406 139.348 36.151 139.285 35.3632C139.18 33.6969 138.238 32.3995 137.164 32.3995Z" fill="white"/>
<path d="M135.175 35.9411C135.16 35.9402 135.146 35.9352 135.133 35.9267C135.121 35.9181 135.11 35.9061 135.103 35.8919C134.892 35.523 134.277 35.9227 134.272 35.9227C134.262 35.9293 134.252 35.9338 134.241 35.9359C134.23 35.938 134.219 35.9376 134.208 35.9347C134.197 35.9318 134.187 35.9266 134.178 35.9192C134.169 35.9119 134.161 35.9026 134.156 35.8919C134.142 35.874 134.134 35.8511 134.134 35.8273C134.134 35.8036 134.142 35.7807 134.156 35.7628C134.189 35.7628 134.92 35.2586 135.219 35.7628C135.226 35.7729 135.231 35.7846 135.233 35.797C135.236 35.8094 135.235 35.8223 135.233 35.8346C135.23 35.8469 135.225 35.8585 135.218 35.8684C135.211 35.8783 135.202 35.8863 135.192 35.8919C135.192 35.9009 135.191 35.9099 135.188 35.9184C135.185 35.9268 135.18 35.9345 135.175 35.9411Z" fill="white"/>
<path d="M130.881 35.5414L131.773 35.1049C131.773 35.1049 131.435 36.0087 130.881 35.5414Z" fill="#263238"/>
</svg>
