<svg width="178" height="173" viewBox="0 0 178 173" fill="none" xmlns="http://www.w3.org/2000/svg">
<path d="M177.4 172.811C120.577 173.063 56.8397 173.063 0 172.811C56.8228 172.564 120.56 172.564 177.4 172.811Z" fill="#263238"/>
<path d="M102.845 130.713C102.845 130.713 102.845 130.738 102.845 130.786C102.846 130.804 102.846 130.821 102.845 130.839C102.845 130.88 102.845 130.92 102.82 130.981V131.074C102.803 131.141 102.79 131.209 102.782 131.277C102.782 131.325 102.782 131.374 102.756 131.427C102.731 131.479 102.718 131.646 102.689 131.771C102.651 131.97 102.608 132.197 102.562 132.448L102.317 133.729C102.292 133.863 102.262 134.013 102.237 134.162C102.211 134.312 102.161 134.568 102.114 134.787C102.068 135.005 102.025 135.269 101.979 135.528C101.945 135.707 101.907 135.893 101.873 136.08C101.768 136.643 101.658 137.239 101.536 137.879C101.532 137.895 101.532 137.912 101.536 137.928C101.405 138.641 101.261 139.407 101.113 140.21C101.075 140.416 101.033 140.615 100.986 140.838C100.94 141.061 100.902 141.28 100.864 141.498C100.839 141.636 100.813 141.774 100.779 141.904C100.572 143.022 100.357 144.202 100.108 145.45C100.028 145.855 99.9516 146.293 99.8671 146.723C99.7108 147.562 99.5461 148.421 99.3771 149.309C99.3307 149.515 99.2927 149.714 99.2631 149.929C99.0139 151.213 98.7647 152.551 98.5028 153.933C98.469 154.075 98.4479 154.217 98.4183 154.359C98.2916 155.011 98.1691 155.668 98.0466 156.336C98.0313 156.388 98.02 156.441 98.0128 156.494L97.8355 157.447C97.5947 158.728 97.3497 160.041 97.0921 161.378C97.0245 161.707 96.9611 162.043 96.8978 162.383C96.7753 163.06 96.6443 163.741 96.5134 164.43C96.3487 165.285 96.1839 166.145 96.0192 167.02C95.8545 167.896 95.694 168.771 95.5208 169.659L95.2674 170.996L94.9633 172.617H47.7285C53.5574 149.39 58.4696 130.673 58.4696 130.673L102.845 130.713Z" fill="#263238"/>
<path d="M95.7053 135.929C93.3399 148.169 90.9465 160.408 88.5248 172.645H87.8701C90.3791 160.377 92.964 148.133 95.5363 135.88C95.5701 135.795 95.7222 135.84 95.7053 135.929Z" fill="#37474F"/>
<path d="M102.84 130.713C102.837 130.737 102.837 130.762 102.84 130.786C102.842 130.804 102.842 130.821 102.84 130.839C102.84 130.875 102.84 130.92 102.815 130.981V131.074C102.798 131.141 102.786 131.208 102.777 131.276C102.777 131.325 102.777 131.374 102.751 131.426C102.726 131.479 102.705 131.645 102.684 131.771C102.646 131.969 102.604 132.196 102.557 132.448C102.481 132.821 102.405 133.258 102.312 133.728C102.287 133.862 102.257 134.012 102.232 134.162C102.207 134.312 102.156 134.567 102.109 134.786C102.063 135.005 102.021 135.269 101.974 135.528C101.94 135.706 101.902 135.893 101.869 136.079C101.759 136.643 101.649 137.238 101.531 137.879C101.527 137.895 101.527 137.911 101.531 137.927L101.108 140.197C101.066 140.408 101.024 140.623 100.986 140.837C100.948 141.052 100.901 141.279 100.863 141.498C100.83 141.636 100.809 141.774 100.779 141.903C100.568 143.014 100.357 144.201 100.107 145.45C100.027 145.855 99.9511 146.293 99.8666 146.722C99.7019 147.561 99.5414 148.421 99.3767 149.308C99.3302 149.515 99.2922 149.713 99.2626 149.928C99.0092 151.217 98.7558 152.555 98.5023 153.933C98.4685 154.074 98.4474 154.216 98.4179 154.358C98.2911 155.011 98.1686 155.667 98.0462 156.336C98.0309 156.388 98.0196 156.441 98.0124 156.494L97.835 157.447C97.59 158.727 97.3408 160.04 97.0916 161.378C97.024 161.706 96.9606 162.043 96.8973 162.383C96.7663 163.06 96.6439 163.741 96.5129 164.43C96.3482 165.285 96.1835 166.144 96.0187 167.02C95.854 167.895 95.685 168.771 95.5203 169.658L95.2669 170.996C95.1655 171.531 95.0642 172.066 94.9586 172.617H71.3053L69.4088 153.973L69.2694 153.357L69.1934 152.644L68.8217 148.996L68.5007 145.839L66.959 130.709L102.84 130.713Z" fill="#37474F"/>
<path d="M129.67 172.658H78.7351C78.6464 168.159 78.5534 163.806 78.4394 159.688C78.4394 159.591 78.4394 159.49 78.4394 159.392C78.4394 159.392 72.4923 156.012 69.2864 153.366C68.7437 152.935 68.2432 152.457 67.7912 151.939C65.7427 149.43 63.6857 139.78 59.4365 130.726H121.721C129.247 148.409 129.67 170.684 129.67 172.658Z" fill="#263238"/>
<path d="M66.3123 151.294C69.345 152.486 72.0693 154.318 74.7599 156.081C77.556 157.917 80.1157 160.037 82.7851 162.002C82.8907 162.079 82.7851 162.242 82.6753 162.169C79.8411 160.434 76.876 158.906 74.0714 157.119C71.3471 155.384 68.5171 153.694 66.156 151.509C66.08 151.424 66.1814 151.246 66.3123 151.294Z" fill="#37474F"/>
<path d="M65.9238 134.478C66.2871 136.342 66.7686 138.182 67.191 140.035C67.5838 141.769 67.8752 143.54 68.3525 145.259C68.7442 146.92 69.6237 148.439 70.8868 149.636C71.5964 150.268 72.3778 150.828 73.1381 151.407C73.5605 151.723 73.9829 152.023 74.4052 152.34C74.3503 152.092 74.3039 151.841 74.2574 151.59C74.1307 150.884 74.004 150.175 73.8815 149.47C73.5999 147.9 73.338 146.33 73.0959 144.76C72.6059 141.672 72.1497 138.551 71.4781 135.491C71.4756 135.467 71.4822 135.443 71.4968 135.423C71.5114 135.403 71.533 135.389 71.5576 135.383C71.5822 135.377 71.6082 135.38 71.6308 135.391C71.6535 135.402 71.6712 135.42 71.6809 135.443C72.4834 138.474 73.3704 141.473 74.0673 144.529C74.4095 146.029 75.6301 153.426 75.685 153.953C75.74 154.479 75.7864 155.035 75.8075 155.574C75.8836 156.125 75.8836 156.684 75.8075 157.236C75.778 157.369 75.6048 157.349 75.5457 157.256C75.3109 156.738 75.1463 156.193 75.0557 155.635C74.9163 155.108 74.7896 154.569 74.6925 154.034C74.6544 153.839 74.6291 153.628 74.5995 153.442C73.8392 153 73.1339 152.412 72.4243 151.922C71.7147 151.432 70.8784 150.872 70.1519 150.301C68.8146 149.217 67.8502 147.77 67.3853 146.151C66.9184 144.408 66.6145 142.628 66.4772 140.833C66.2322 138.73 66.0548 136.614 65.7464 134.519C65.7042 134.405 65.8901 134.352 65.9238 134.478Z" fill="#37474F"/>
<path d="M118.32 149.58C117.509 149.175 114.358 149.896 108.626 148.952C107.502 148.81 106.435 148.391 105.53 147.736C104.035 146.565 102.903 144.684 101.999 143.075C100.92 141.266 100.091 139.33 99.5323 137.316C99.5027 137.198 99.3169 137.255 99.3422 137.372C99.5534 138.511 99.6717 139.646 99.9842 140.773C100.295 141.832 100.691 142.866 101.171 143.865C102.037 145.734 103.051 147.736 104.795 148.996C106.624 150.322 109.179 150.569 111.397 150.719C112.664 150.804 117.712 150.674 118.387 149.985C118.414 149.956 118.434 149.921 118.445 149.883C118.456 149.846 118.459 149.806 118.452 149.768C118.446 149.729 118.431 149.692 118.408 149.66C118.385 149.627 118.355 149.6 118.32 149.58Z" fill="#37474F"/>
<path d="M116.115 133.449C116.694 135.03 117.256 136.606 117.725 138.211C118.193 139.816 118.662 141.417 119.089 143.026C119.919 146.251 120.567 149.515 121.032 152.806C121.511 156.089 121.748 159.401 121.741 162.716L121.699 165.204C121.665 166.015 121.572 166.862 121.513 167.689L121.429 168.937C121.382 169.342 121.311 169.748 121.251 170.173C121.125 170.984 121.011 171.827 120.905 172.658C121.867 169.426 122.434 166.098 122.595 162.74C122.757 159.375 122.597 156.002 122.117 152.664C121.638 149.333 120.9 146.041 119.908 142.816C118.936 139.592 117.667 136.457 116.115 133.449Z" fill="#37474F"/>
<path d="M69.8351 64.8923C45.6158 82.6606 26.047 109.378 29.7344 118.85C33.6456 128.897 54.866 113.297 55.7783 111.83C58.773 107.007 69.9154 90.9774 80.6058 72.8686C91.2962 54.7599 75.8287 60.4989 69.8351 64.8923Z" fill="#F7A9A0"/>
<path d="M58.5964 111.566C62.9342 106.127 76.3025 81.7324 81.9413 71.2878C87.0099 61.9092 84.3953 56.2107 74.9509 61.1756C57.5658 70.3111 36.8227 91.5933 28.43 108.665C20.3456 125.107 34.8375 130.251 42.0475 125.971C52.4043 119.826 55.1075 115.932 58.5964 111.566Z" fill="#455A64"/>
<path d="M69.7588 70.8339C69.397 70.8339 69.0434 70.9368 68.7427 71.1296C68.4419 71.3225 68.2075 71.5965 68.0691 71.9172C67.9307 72.2379 67.8944 72.5908 67.965 72.9312C68.0356 73.2716 68.2098 73.5843 68.4655 73.8297C68.7213 74.0752 69.0472 74.2423 69.402 74.31C69.7567 74.3777 70.1245 74.343 70.4587 74.2102C70.7928 74.0773 71.0785 73.8524 71.2794 73.5638C71.4804 73.2752 71.5877 72.9359 71.5877 72.5888C71.5877 72.3583 71.5404 72.1301 71.4485 71.9172C71.3565 71.7043 71.2218 71.5108 71.052 71.3479C70.8822 71.1849 70.6805 71.0556 70.4587 70.9674C70.2368 70.8793 69.9989 70.8339 69.7588 70.8339ZM69.7588 73.5291C69.5639 73.5291 69.3735 73.4736 69.2116 73.3697C69.0496 73.2657 68.9235 73.118 68.8491 72.9452C68.7748 72.7724 68.7555 72.5823 68.7938 72.399C68.8322 72.2157 68.9263 72.0475 69.0644 71.9156C69.2024 71.7837 69.3782 71.694 69.5694 71.6581C69.7605 71.6221 69.9586 71.6414 70.1383 71.7135C70.3181 71.7856 70.4715 71.9072 70.5791 72.0631C70.6867 72.2189 70.7437 72.4019 70.7429 72.5888C70.7385 72.8361 70.6327 73.0717 70.4485 73.2447C70.2643 73.4176 70.0165 73.514 69.7588 73.5129V73.5291ZM78.7259 59.6476C78.0386 59.8317 77.3666 60.0647 76.7154 60.3447C76.4984 60.6515 76.3883 61.0164 76.4008 61.3869C76.4133 61.7575 76.5478 62.1147 76.785 62.4074C77.0222 62.7001 77.3498 62.9132 77.721 63.0161C78.0922 63.119 78.4878 63.1065 78.8512 62.9803C79.2145 62.8541 79.5268 62.6208 79.7434 62.3137C79.9599 62.0067 80.0696 61.6417 80.0566 61.2712C80.0437 60.9006 79.9087 60.5436 79.6712 60.2512C79.4336 59.9588 79.1057 59.746 78.7343 59.6436L78.7259 59.6476ZM78.2233 62.2699C78.0283 62.2707 77.8374 62.2159 77.6749 62.1124C77.5124 62.009 77.3856 61.8615 77.3106 61.6888C77.2356 61.5161 77.2158 61.3259 77.2536 61.1423C77.2914 60.9588 77.3853 60.7901 77.5232 60.6578C77.661 60.5255 77.8368 60.4355 78.0281 60.3992C78.2194 60.3628 78.4176 60.3819 78.5976 60.4539C78.7776 60.5258 78.9313 60.6475 79.0391 60.8034C79.1469 60.9593 79.204 61.1425 79.2032 61.3296C79.2021 61.5787 79.0985 61.8172 78.9149 61.9933C78.7314 62.1694 78.4828 62.2688 78.2233 62.2699ZM37.189 94.8195L36.6864 95.4923C36.8012 95.6323 36.8723 95.8007 36.8916 95.9779C36.9109 96.1551 36.8775 96.334 36.7954 96.4938C36.7132 96.6536 36.5856 96.7878 36.4273 96.881C36.269 96.9741 36.0865 97.0224 35.9008 97.0202C35.799 97.0202 35.6979 97.0052 35.6009 96.9756L35.1109 97.6565C35.3567 97.7722 35.627 97.8318 35.9008 97.8308C36.3851 97.8298 36.8492 97.6444 37.1913 97.3154C37.5334 96.9864 37.7255 96.5406 37.7255 96.0759C37.7289 95.8426 37.6832 95.611 37.591 95.3951C37.4988 95.1792 37.3621 94.9834 37.189 94.8195ZM52.8171 94.3128C52.455 94.312 52.1008 94.4144 51.7994 94.6069C51.498 94.7994 51.263 95.0735 51.124 95.3943C50.9851 95.7151 50.9485 96.0683 51.0189 96.4091C51.0893 96.75 51.2636 97.063 51.5197 97.3087C51.7757 97.5544 52.102 97.7216 52.4571 97.7892C52.8123 97.8568 53.1804 97.8217 53.5147 97.6883C53.8491 97.555 54.1347 97.3295 54.3353 97.0402C54.536 96.751 54.6426 96.4112 54.6418 96.0637C54.6407 95.6025 54.4504 95.1602 54.1121 94.8325C53.7738 94.5048 53.3147 94.3182 52.834 94.3128H52.8171ZM52.8171 97.0081C52.6223 97.0089 52.4316 96.9542 52.2692 96.8509C52.1068 96.7476 51.98 96.6004 51.9049 96.4279C51.8297 96.2554 51.8096 96.0654 51.8471 95.882C51.8846 95.6985 51.978 95.5299 52.1155 95.3974C52.253 95.2649 52.4283 95.1746 52.6193 95.1378C52.8103 95.1011 53.0084 95.1195 53.1885 95.1909C53.3686 95.2622 53.5225 95.3833 53.6309 95.5386C53.7392 95.694 53.797 95.8768 53.797 96.0637C53.7993 96.1872 53.7761 96.3099 53.7289 96.4248C53.6817 96.5397 53.6114 96.6446 53.522 96.7334C53.4326 96.8222 53.3258 96.8933 53.2077 96.9425C53.0897 96.9917 52.9627 97.0181 52.834 97.0202L52.8171 97.0081ZM67.9172 96.0637C67.9166 96.2001 67.9322 96.336 67.9636 96.469C68.3522 95.7962 68.745 95.1153 69.1336 94.4425C68.7863 94.5646 68.4857 94.7849 68.2715 95.0744C68.0574 95.3638 67.9397 95.7088 67.9341 96.0637H67.9172ZM46.0928 84.2695C45.814 84.5654 45.5395 84.8653 45.2481 85.1652C45.1636 85.3563 45.0149 85.5147 44.8257 85.6151L44.0063 86.527C44.1134 86.5467 44.2224 86.5562 44.3315 86.5554C44.8158 86.5554 45.2804 86.3711 45.6232 86.0428C45.9661 85.7146 46.1593 85.2693 46.1604 84.8045C46.173 84.6247 46.1559 84.4442 46.1097 84.2695H46.0928ZM61.2985 83.0536C60.9366 83.0528 60.5826 83.1551 60.2813 83.3474C59.9799 83.5398 59.7449 83.8136 59.6058 84.1342C59.4667 84.4548 59.4299 84.8078 59.5 85.1484C59.5701 85.4891 59.7439 85.8022 59.9995 86.0481C60.2551 86.2939 60.581 86.4614 60.9359 86.5295C61.2908 86.5975 61.6587 86.563 61.9932 86.4303C62.3276 86.2976 62.6135 86.0727 62.8147 85.784C63.0158 85.4953 63.1232 85.1558 63.1232 84.8086C63.1232 84.3438 62.9311 83.8981 62.589 83.5691C62.2469 83.2401 61.7828 83.0547 61.2985 83.0536ZM61.2985 85.7489C61.1035 85.7497 60.9126 85.6949 60.7501 85.5914C60.5877 85.4879 60.4609 85.3405 60.3859 85.1678C60.3108 84.9951 60.291 84.8048 60.3288 84.6213C60.3667 84.4377 60.4605 84.2691 60.5984 84.1368C60.7363 84.0045 60.912 83.9144 61.1033 83.8781C61.2946 83.8418 61.4928 83.8609 61.6728 83.9328C61.8528 84.0048 62.0065 84.1265 62.1143 84.2824C62.2221 84.4383 62.2792 84.6214 62.2784 84.8086C62.2784 85.0579 62.1752 85.2971 61.9914 85.4735C61.8076 85.6498 61.5584 85.7489 61.2985 85.7489ZM35.9008 117.792C35.5387 117.791 35.1845 117.893 34.8831 118.086C34.5817 118.278 34.3466 118.552 34.2077 118.873C34.0687 119.194 34.0322 119.547 34.1026 119.888C34.173 120.229 34.3473 120.542 34.6033 120.788C34.8594 121.033 35.1856 121.201 35.5408 121.268C35.896 121.336 36.264 121.301 36.5984 121.167C36.9328 121.034 37.2184 120.808 37.419 120.519C37.6196 120.23 37.7263 119.89 37.7255 119.543C37.7255 119.078 37.5332 118.633 37.191 118.305C36.8488 117.976 36.3847 117.792 35.9008 117.792ZM35.9008 120.487C35.706 120.488 35.5153 120.433 35.3529 120.33C35.1905 120.227 35.0637 120.079 34.9885 119.907C34.9134 119.734 34.8933 119.544 34.9308 119.361C34.9683 119.178 35.0617 119.009 35.1992 118.876C35.3366 118.744 35.512 118.654 35.703 118.617C35.894 118.58 36.0921 118.598 36.2722 118.67C36.4523 118.741 36.6062 118.862 36.7146 119.018C36.8229 119.173 36.8807 119.356 36.8807 119.543C36.8807 119.792 36.7776 120.032 36.594 120.209C36.4103 120.386 36.1611 120.486 35.9008 120.487ZM52.8256 117.792C52.342 117.793 51.8785 117.978 51.5365 118.306C51.1946 118.634 51.002 119.079 51.0009 119.543C50.9944 119.618 50.9944 119.694 51.0009 119.77C51.7992 119.101 52.513 118.456 53.1592 117.824C53.052 117.805 52.9432 117.794 52.834 117.792H52.8256ZM29.0582 107.461C28.8428 107.866 28.6358 108.271 28.4458 108.677C28.2557 109.082 28.0234 109.576 27.8291 110.01C28.1056 109.953 28.3647 109.836 28.5858 109.667C28.807 109.498 28.9841 109.282 29.1033 109.036C29.2225 108.79 29.2805 108.52 29.2726 108.249C29.2648 107.978 29.1914 107.712 29.0582 107.473V107.461ZM44.3695 106.533C44.0076 106.533 43.6538 106.636 43.353 106.829C43.0521 107.022 42.8177 107.296 42.6794 107.617C42.5411 107.938 42.5051 108.291 42.5761 108.631C42.647 108.972 42.8216 109.285 43.0778 109.53C43.334 109.775 43.6602 109.942 44.0153 110.009C44.3703 110.077 44.7382 110.041 45.0723 109.908C45.4064 109.774 45.6918 109.549 45.8922 109.26C46.0927 108.97 46.1992 108.631 46.1984 108.283C46.1973 107.819 46.0041 107.373 45.6612 107.045C45.3184 106.717 44.8538 106.533 44.3695 106.533ZM44.3695 109.228C44.1749 109.228 43.9846 109.172 43.8227 109.069C43.6609 108.965 43.5348 108.817 43.4603 108.645C43.3858 108.472 43.3663 108.282 43.4043 108.099C43.4422 107.916 43.536 107.748 43.6736 107.616C43.8112 107.484 43.9866 107.394 44.1775 107.357C44.3684 107.321 44.5663 107.34 44.7461 107.411C44.9259 107.482 45.0796 107.604 45.1878 107.759C45.2959 107.914 45.3537 108.097 45.3537 108.283C45.3542 108.408 45.3291 108.531 45.2799 108.646C45.2306 108.76 45.1581 108.865 45.0666 108.952C44.9751 109.04 44.8664 109.11 44.7468 109.157C44.6271 109.204 44.4989 109.228 44.3695 109.228ZM61.2985 106.533C60.8142 106.533 60.3496 106.717 60.0068 107.045C59.6639 107.373 59.4707 107.819 59.4696 108.283C59.4689 108.523 59.52 108.76 59.6196 108.98C59.7192 109.2 59.8651 109.397 60.0482 109.56L60.5129 108.855C60.3826 108.691 60.3128 108.49 60.3144 108.283C60.3143 108.16 60.3398 108.037 60.3893 107.923C60.4389 107.808 60.5114 107.705 60.6029 107.617C60.6943 107.53 60.8028 107.461 60.9222 107.414C61.0416 107.367 61.1695 107.343 61.2985 107.343C61.3589 107.337 61.4198 107.337 61.4801 107.343C61.6279 107.112 61.78 106.873 61.9278 106.63C61.7261 106.56 61.5127 106.527 61.2985 106.533Z" fill="#37474F"/>
<path opacity="0.1" d="M81.9404 71.2885C76.2847 81.733 62.9333 106.144 58.5786 111.567C55.1066 115.904 52.4245 119.778 42.2451 125.854L81.0956 59.3281C85.2645 59.5308 85.67 64.4187 81.9404 71.2885Z" fill="black"/>
<path d="M52.2903 148.064H128.424C128.424 148.064 119.554 80.5008 96.5262 60.0615C93.3288 57.2245 83.7027 57.0502 78.5919 62.1083C64.59 75.9452 52.096 147.829 52.2903 148.064Z" fill="#455A64"/>
<path d="M86.6838 70.8344C86.3221 70.8344 85.9685 70.9373 85.6677 71.1302C85.3669 71.323 85.1325 71.5971 84.9941 71.9178C84.8557 72.2384 84.8195 72.5913 84.89 72.9317C84.9606 73.2721 85.1348 73.5848 85.3906 73.8303C85.6463 74.0757 85.9722 74.2429 86.327 74.3106C86.6818 74.3783 87.0495 74.3435 87.3837 74.2107C87.7179 74.0779 88.0035 73.8529 88.2045 73.5643C88.4054 73.2757 88.5127 72.9364 88.5127 72.5893C88.5127 72.1239 88.32 71.6775 87.977 71.3484C87.634 71.0193 87.1688 70.8344 86.6838 70.8344ZM86.6838 73.5296C86.489 73.5296 86.2985 73.4742 86.1366 73.3702C85.9747 73.2663 85.8485 73.1185 85.7742 72.9457C85.6998 72.7729 85.6806 72.5829 85.7189 72.3996C85.7572 72.2163 85.8513 72.048 85.9894 71.9161C86.1275 71.7842 86.3032 71.6946 86.4944 71.6586C86.6856 71.6226 86.8836 71.6419 87.0633 71.714C87.2431 71.7861 87.3965 71.9078 87.5041 72.0636C87.6118 72.2194 87.6688 72.4024 87.6679 72.5893C87.6635 72.8366 87.5577 73.0722 87.3735 73.2452C87.1893 73.4182 86.9415 73.5145 86.6838 73.5134V73.5296ZM103.609 70.8344C103.247 70.8344 102.893 70.9373 102.592 71.1302C102.292 71.323 102.057 71.5971 101.919 71.9178C101.78 72.2384 101.744 72.5913 101.815 72.9317C101.885 73.2721 102.06 73.5848 102.315 73.8303C102.571 74.0757 102.897 74.2429 103.252 74.3106C103.607 74.3783 103.974 74.3435 104.308 74.2107C104.643 74.0779 104.928 73.8529 105.129 73.5643C105.33 73.2757 105.437 72.9364 105.437 72.5893C105.437 72.1239 105.245 71.6775 104.902 71.3484C104.559 71.0193 104.094 70.8344 103.609 70.8344ZM103.609 73.5296C103.414 73.5296 103.223 73.4742 103.061 73.3702C102.899 73.2663 102.773 73.1185 102.699 72.9457C102.625 72.7729 102.605 72.5829 102.644 72.3996C102.682 72.2163 102.776 72.048 102.914 71.9161C103.052 71.7842 103.228 71.6946 103.419 71.6586C103.61 71.6226 103.808 71.6419 103.988 71.714C104.168 71.7861 104.321 71.9078 104.429 72.0636C104.537 72.2194 104.594 72.4024 104.593 72.5893C104.588 72.8366 104.482 73.0722 104.298 73.2452C104.114 73.4182 103.866 73.5145 103.609 73.5134V73.5296ZM79.9975 60.9208C79.7103 61.1275 79.4357 61.3261 79.1527 61.5733C79.1074 61.7354 79.0177 61.8829 78.8929 62.0005C78.7682 62.1181 78.6129 62.2015 78.4432 62.2421C78.2024 62.4852 77.9659 62.7446 77.7251 63.0202C77.882 63.0614 78.044 63.0818 78.2066 63.081C78.6902 63.08 79.1537 62.8952 79.4956 62.567C79.8376 62.2389 80.0302 61.7942 80.0313 61.3301C80.0374 61.1929 80.0261 61.0554 79.9975 60.9208ZM95.1483 59.5752C94.7864 59.5744 94.4324 59.6766 94.131 59.869C93.8297 60.0613 93.5947 60.3351 93.4556 60.6557C93.3165 60.9763 93.2797 61.3293 93.3498 61.67C93.4199 62.0107 93.5937 62.3238 93.8493 62.5696C94.1049 62.8155 94.4308 62.983 94.7857 63.0511C95.1406 63.1191 95.5085 63.0846 95.843 62.9519C96.1774 62.8192 96.4633 62.5942 96.6644 62.3056C96.8656 62.0169 96.973 61.6774 96.973 61.3301C96.973 60.8654 96.7809 60.4196 96.4388 60.0906C96.0967 59.7616 95.6326 59.5763 95.1483 59.5752ZM95.1483 62.2704C94.9533 62.2712 94.7624 62.2164 94.5999 62.113C94.4374 62.0095 94.3106 61.8621 94.2356 61.6894C94.1606 61.5166 94.1408 61.3264 94.1786 61.1429C94.2165 60.9593 94.3103 60.7907 94.4482 60.6583C94.5861 60.526 94.7618 60.436 94.9531 60.3997C95.1444 60.3634 95.3426 60.3824 95.5226 60.4544C95.7026 60.5264 95.8563 60.6481 95.9641 60.804C96.0719 60.9599 96.129 61.143 96.1282 61.3301C96.1271 61.5792 96.0235 61.8177 95.84 61.9939C95.6564 62.17 95.4078 62.2694 95.1483 62.2704ZM69.759 94.3134C69.3971 94.3134 69.0433 94.4164 68.7425 94.6094C68.4416 94.8024 68.2072 95.0768 68.0689 95.3977C67.9306 95.7186 67.8947 96.0716 67.9656 96.4122C68.0365 96.7527 68.2111 97.0654 68.4673 97.3107C68.7235 97.556 69.0498 97.7228 69.4048 97.79C69.7599 97.8573 70.1277 97.822 70.4618 97.6885C70.796 97.5551 71.0813 97.3295 71.2818 97.0404C71.4822 96.7512 71.5888 96.4115 71.5879 96.0643C71.5868 95.5995 71.3936 95.1542 71.0508 94.826C70.7079 94.4977 70.2433 94.3134 69.759 94.3134ZM69.759 97.0086C69.5644 97.0086 69.3741 96.9532 69.2123 96.8495C69.0504 96.7457 68.9243 96.5982 68.8498 96.4256C68.7753 96.2531 68.7558 96.0632 68.7938 95.88C68.8318 95.6968 68.9255 95.5286 69.0631 95.3965C69.2008 95.2644 69.3761 95.1745 69.567 95.1381C69.7579 95.1016 69.9558 95.1203 70.1356 95.1918C70.3155 95.2633 70.4692 95.3843 70.5773 95.5396C70.6854 95.6949 70.7432 95.8775 70.7432 96.0643C70.7454 96.1895 70.7216 96.3138 70.6731 96.43C70.6246 96.5463 70.5524 96.652 70.4607 96.7411C70.369 96.8302 70.2598 96.9008 70.1393 96.9489C70.0188 96.9969 69.8895 97.0213 69.759 97.0208V97.0086ZM86.6838 94.3134C86.3219 94.3134 85.9681 94.4164 85.6673 94.6094C85.3664 94.8024 85.132 95.0768 84.9937 95.3977C84.8554 95.7186 84.8194 96.0716 84.8903 96.4122C84.9613 96.7527 85.1359 97.0654 85.3921 97.3107C85.6483 97.556 85.9745 97.7228 86.3296 97.79C86.6846 97.8573 87.0525 97.822 87.3866 97.6885C87.7207 97.5551 88.0061 97.3295 88.2065 97.0404C88.407 96.7512 88.5135 96.4115 88.5127 96.0643C88.5116 95.5995 88.3184 95.1542 87.9755 94.826C87.6327 94.4977 87.1681 94.3134 86.6838 94.3134ZM86.6838 97.0086C86.4891 97.0086 86.2989 96.9532 86.137 96.8495C85.9752 96.7457 85.849 96.5982 85.7746 96.4256C85.7001 96.2531 85.6806 96.0632 85.7185 95.88C85.7565 95.6968 85.8503 95.5286 85.9879 95.3965C86.1255 95.2644 86.3009 95.1745 86.4918 95.1381C86.6827 95.1016 86.8806 95.1203 87.0604 95.1918C87.2402 95.2633 87.3939 95.3843 87.5021 95.5396C87.6102 95.6949 87.6679 95.8775 87.6679 96.0643C87.6702 96.1895 87.6464 96.3138 87.5979 96.43C87.5494 96.5463 87.4772 96.652 87.3855 96.7411C87.2938 96.8302 87.1845 96.9008 87.064 96.9489C86.9435 96.9969 86.8143 97.0213 86.6838 97.0208V97.0086ZM103.609 94.3134C103.247 94.3134 102.893 94.4164 102.592 94.6094C102.291 94.8024 102.057 95.0768 101.918 95.3977C101.78 95.7186 101.744 96.0716 101.815 96.4122C101.886 96.7527 102.061 97.0654 102.317 97.3107C102.573 97.556 102.899 97.7228 103.254 97.79C103.609 97.8573 103.977 97.822 104.311 97.6885C104.645 97.5551 104.931 97.3295 105.131 97.0404C105.332 96.7512 105.438 96.4115 105.437 96.0643C105.436 95.5995 105.243 95.1542 104.9 94.826C104.557 94.4977 104.093 94.3134 103.609 94.3134ZM103.609 97.0086C103.414 97.0086 103.224 96.9532 103.062 96.8495C102.9 96.7457 102.774 96.5982 102.699 96.4256C102.625 96.2531 102.605 96.0632 102.643 95.88C102.681 95.6968 102.775 95.5286 102.913 95.3965C103.05 95.2644 103.226 95.1745 103.417 95.1381C103.607 95.1016 103.805 95.1203 103.985 95.1918C104.165 95.2633 104.319 95.3843 104.427 95.5396C104.535 95.6949 104.593 95.8775 104.593 96.0643C104.595 96.1895 104.571 96.3138 104.523 96.43C104.474 96.5463 104.402 96.652 104.31 96.7411C104.219 96.8302 104.109 96.9008 103.989 96.9489C103.868 96.9969 103.739 97.0213 103.609 97.0208V97.0086ZM78.2235 83.0542C77.8616 83.0534 77.5076 83.1556 77.2063 83.348C76.905 83.5403 76.6699 83.8141 76.5308 84.1347C76.3917 84.4553 76.3549 84.8083 76.425 85.149C76.4951 85.4897 76.669 85.8028 76.9246 86.0486C77.1802 86.2944 77.506 86.462 77.8609 86.53C78.2158 86.5981 78.5838 86.5636 78.9182 86.4309C79.2526 86.2982 79.5385 86.0732 79.7397 85.7845C79.9408 85.4958 80.0482 85.1564 80.0482 84.8091C80.0482 84.3444 79.8561 83.8986 79.514 83.5696C79.1719 83.2406 78.7078 83.0552 78.2235 83.0542ZM78.2235 85.7494C78.0285 85.7502 77.8377 85.6954 77.6752 85.5919C77.5127 85.4885 77.3859 85.341 77.3109 85.1683C77.2359 84.9956 77.216 84.8054 77.2539 84.6218C77.2917 84.4383 77.3855 84.2696 77.5234 84.1373C77.6613 84.005 77.837 83.915 78.0283 83.8787C78.2196 83.8424 78.4179 83.8614 78.5979 83.9334C78.7779 84.0054 78.9315 84.127 79.0393 84.2829C79.1472 84.4389 79.2043 84.622 79.2034 84.8091C79.2023 85.0582 79.0987 85.2967 78.9152 85.4728C78.7317 85.6489 78.4831 85.7483 78.2235 85.7494ZM95.1483 83.0542C94.7864 83.0534 94.4324 83.1556 94.131 83.348C93.8297 83.5403 93.5947 83.8141 93.4556 84.1347C93.3165 84.4553 93.2797 84.8083 93.3498 85.149C93.4199 85.4897 93.5937 85.8028 93.8493 86.0486C94.1049 86.2944 94.4308 86.462 94.7857 86.53C95.1406 86.5981 95.5085 86.5636 95.843 86.4309C96.1774 86.2982 96.4633 86.0732 96.6644 85.7845C96.8656 85.4958 96.973 85.1564 96.973 84.8091C96.973 84.3444 96.7809 83.8986 96.4388 83.5696C96.0967 83.2406 95.6326 83.0552 95.1483 83.0542ZM95.1483 85.7494C94.9533 85.7502 94.7624 85.6954 94.5999 85.5919C94.4374 85.4885 94.3106 85.341 94.2356 85.1683C94.1606 84.9956 94.1408 84.8054 94.1786 84.6218C94.2165 84.4383 94.3103 84.2696 94.4482 84.1373C94.5861 84.005 94.7618 83.915 94.9531 83.8787C95.1444 83.8424 95.3426 83.8614 95.5226 83.9334C95.7026 84.0054 95.8563 84.127 95.9641 84.2829C96.0719 84.4389 96.129 84.622 96.1282 84.8091C96.1271 85.0582 96.0235 85.2967 95.84 85.4728C95.6564 85.6489 95.4078 85.7483 95.1483 85.7494ZM112.58 85.6116C112.428 85.7027 112.252 85.7504 112.073 85.7494C111.83 85.7526 111.594 85.6688 111.411 85.5141C111.229 85.3595 111.112 85.1452 111.086 84.913C111.059 84.6808 111.123 84.4473 111.266 84.258C111.408 84.0688 111.619 83.9372 111.858 83.8891L111.528 83.1312C111.112 83.257 110.756 83.5216 110.525 83.8771C110.294 84.2325 110.204 84.6555 110.27 85.0696C110.335 85.4837 110.553 85.8615 110.884 86.1348C111.215 86.4082 111.637 86.559 112.073 86.56C112.357 86.56 112.636 86.4946 112.888 86.3695C112.774 86.1142 112.681 85.8629 112.58 85.6116ZM69.759 117.792C69.3971 117.792 69.0433 117.895 68.7425 118.088C68.4416 118.281 68.2072 118.556 68.0689 118.877C67.9306 119.198 67.8947 119.551 67.9656 119.891C68.0365 120.232 68.2111 120.544 68.4673 120.79C68.7235 121.035 69.0498 121.202 69.4048 121.269C69.7599 121.336 70.1277 121.301 70.4618 121.167C70.796 121.034 71.0813 120.808 71.2818 120.519C71.4822 120.23 71.5888 119.891 71.5879 119.543C71.5868 119.078 71.3936 118.633 71.0508 118.305C70.7079 117.977 70.2433 117.792 69.759 117.792ZM69.759 120.488C69.5644 120.488 69.3741 120.432 69.2123 120.328C69.0504 120.225 68.9243 120.077 68.8498 119.905C68.7753 119.732 68.7558 119.542 68.7938 119.359C68.8318 119.176 68.9255 119.008 69.0631 118.875C69.2008 118.743 69.3761 118.653 69.567 118.617C69.7579 118.581 69.9558 118.599 70.1356 118.671C70.3155 118.742 70.4692 118.863 70.5773 119.019C70.6854 119.174 70.7432 119.356 70.7432 119.543C70.7432 119.794 70.6395 120.034 70.4549 120.211C70.2704 120.388 70.02 120.488 69.759 120.488ZM86.6838 117.792C86.3219 117.792 85.9681 117.895 85.6673 118.088C85.3664 118.281 85.132 118.556 84.9937 118.877C84.8554 119.198 84.8194 119.551 84.8903 119.891C84.9613 120.232 85.1359 120.544 85.3921 120.79C85.6483 121.035 85.9745 121.202 86.3296 121.269C86.6846 121.336 87.0525 121.301 87.3866 121.167C87.7207 121.034 88.0061 120.808 88.2065 120.519C88.407 120.23 88.5135 119.891 88.5127 119.543C88.5116 119.078 88.3184 118.633 87.9755 118.305C87.6327 117.977 87.1681 117.792 86.6838 117.792ZM86.6838 120.488C86.4891 120.488 86.2989 120.432 86.137 120.328C85.9752 120.225 85.849 120.077 85.7746 119.905C85.7001 119.732 85.6806 119.542 85.7185 119.359C85.7565 119.176 85.8503 119.008 85.9879 118.875C86.1255 118.743 86.3009 118.653 86.4918 118.617C86.6827 118.581 86.8806 118.599 87.0604 118.671C87.2402 118.742 87.3939 118.863 87.5021 119.019C87.6102 119.174 87.6679 119.356 87.6679 119.543C87.6679 119.794 87.5642 120.034 87.3797 120.211C87.1951 120.388 86.9448 120.488 86.6838 120.488ZM103.609 117.792C103.247 117.792 102.893 117.895 102.592 118.088C102.291 118.281 102.057 118.556 101.918 118.877C101.78 119.198 101.744 119.551 101.815 119.891C101.886 120.232 102.061 120.544 102.317 120.79C102.573 121.035 102.899 121.202 103.254 121.269C103.609 121.336 103.977 121.301 104.311 121.167C104.645 121.034 104.931 120.808 105.131 120.519C105.332 120.23 105.438 119.891 105.437 119.543C105.436 119.078 105.243 118.633 104.9 118.305C104.557 117.977 104.093 117.792 103.609 117.792ZM103.609 120.488C103.414 120.488 103.224 120.432 103.062 120.328C102.9 120.225 102.774 120.077 102.699 119.905C102.625 119.732 102.605 119.542 102.643 119.359C102.681 119.176 102.775 119.008 102.913 118.875C103.05 118.743 103.226 118.653 103.417 118.617C103.607 118.581 103.805 118.599 103.985 118.671C104.165 118.742 104.319 118.863 104.427 119.019C104.535 119.174 104.593 119.356 104.593 119.543C104.593 119.794 104.489 120.034 104.304 120.211C104.12 120.388 103.87 120.488 103.609 120.488ZM120.533 117.792C120.171 117.792 119.818 117.895 119.517 118.088C119.216 118.281 118.982 118.556 118.843 118.877C118.705 119.198 118.669 119.551 118.74 119.891C118.811 120.232 118.985 120.544 119.242 120.79C119.498 121.035 119.824 121.202 120.179 121.269C120.534 121.336 120.902 121.301 121.236 121.167C121.57 121.034 121.856 120.808 122.056 120.519C122.257 120.23 122.363 119.891 122.362 119.543C122.361 119.078 122.168 118.633 121.825 118.305C121.482 117.977 121.018 117.792 120.533 117.792ZM120.533 120.488C120.339 120.488 120.148 120.432 119.987 120.328C119.825 120.225 119.699 120.077 119.624 119.905C119.55 119.732 119.53 119.542 119.568 119.359C119.606 119.176 119.7 119.008 119.837 118.875C119.975 118.743 120.15 118.653 120.341 118.617C120.532 118.581 120.73 118.599 120.91 118.671C121.09 118.742 121.243 118.863 121.352 119.019C121.46 119.174 121.517 119.356 121.517 119.543C121.517 119.794 121.414 120.034 121.229 120.211C121.045 120.388 120.794 120.488 120.533 120.488ZM61.2987 106.533C61.2088 106.527 61.1184 106.527 61.0284 106.533C60.9524 106.841 60.8721 107.149 60.7961 107.457C60.9624 107.361 61.1547 107.314 61.3487 107.323C61.5427 107.331 61.7297 107.395 61.8863 107.505C62.0428 107.615 62.1619 107.767 62.2285 107.942C62.2951 108.117 62.3062 108.307 62.2605 108.488C62.2148 108.67 62.1142 108.834 61.9716 108.96C61.8289 109.086 61.6504 109.169 61.4586 109.199C61.2669 109.228 61.0704 109.202 60.8938 109.125C60.7173 109.047 60.5687 108.921 60.4667 108.762L60.2386 109.686C60.5473 109.903 60.9203 110.02 61.303 110.019C61.7723 109.997 62.2149 109.803 62.539 109.477C62.8632 109.15 63.044 108.717 63.044 108.266C63.044 107.815 62.8632 107.381 62.539 107.055C62.2149 106.729 61.7723 106.535 61.303 106.513L61.2987 106.533ZM78.2235 106.533C77.8614 106.532 77.5072 106.635 77.2058 106.827C76.9044 107.02 76.6694 107.294 76.5304 107.615C76.3915 107.935 76.3549 108.289 76.4253 108.629C76.4958 108.97 76.67 109.283 76.9261 109.529C77.1821 109.775 77.5084 109.942 77.8635 110.009C78.2187 110.077 78.5868 110.042 78.9211 109.909C79.2555 109.775 79.5411 109.55 79.7417 109.261C79.9424 108.971 80.049 108.631 80.0482 108.284C80.0471 107.82 79.8545 107.375 79.5125 107.047C79.1706 106.719 78.7071 106.534 78.2235 106.533ZM78.2235 109.228C78.0287 109.229 77.838 109.174 77.6756 109.071C77.5132 108.968 77.3864 108.821 77.3113 108.648C77.2361 108.476 77.2161 108.286 77.2535 108.102C77.291 107.919 77.3844 107.75 77.5219 107.618C77.6594 107.485 77.8347 107.395 78.0257 107.358C78.2168 107.321 78.4149 107.34 78.5949 107.411C78.775 107.483 78.929 107.604 79.0373 107.759C79.1456 107.914 79.2034 108.097 79.2034 108.284C79.2034 108.534 79.1003 108.773 78.9167 108.95C78.733 109.127 78.4838 109.227 78.2235 109.228ZM95.1483 106.533C94.7862 106.532 94.432 106.635 94.1306 106.827C93.8292 107.02 93.5941 107.294 93.4552 107.615C93.3162 107.935 93.2797 108.289 93.3501 108.629C93.4205 108.97 93.5948 109.283 93.8508 109.529C94.1069 109.775 94.4331 109.942 94.7883 110.009C95.1435 110.077 95.5115 110.042 95.8459 109.909C96.1803 109.775 96.4659 109.55 96.6665 109.261C96.8671 108.971 96.9738 108.631 96.973 108.284C96.9718 107.82 96.7792 107.375 96.4373 107.047C96.0953 106.719 95.6319 106.534 95.1483 106.533ZM95.1483 109.228C94.9535 109.229 94.7628 109.174 94.6004 109.071C94.438 108.968 94.3112 108.821 94.236 108.648C94.1609 108.476 94.1408 108.286 94.1783 108.102C94.2158 107.919 94.3092 107.75 94.4467 107.618C94.5841 107.485 94.7595 107.395 94.9505 107.358C95.1415 107.321 95.3396 107.34 95.5197 107.411C95.6998 107.483 95.8537 107.604 95.962 107.759C96.0704 107.914 96.1282 108.097 96.1282 108.284C96.1282 108.534 96.0251 108.773 95.8414 108.95C95.6578 109.127 95.4086 109.227 95.1483 109.228ZM112.073 106.533C111.711 106.532 111.357 106.635 111.055 106.827C110.754 107.02 110.519 107.294 110.38 107.615C110.241 107.935 110.204 108.289 110.275 108.629C110.345 108.97 110.52 109.283 110.776 109.529C111.032 109.775 111.358 109.942 111.713 110.009C112.068 110.077 112.436 110.042 112.771 109.909C113.105 109.775 113.391 109.55 113.591 109.261C113.792 108.971 113.899 108.631 113.898 108.284C113.898 107.82 113.705 107.374 113.363 107.046C113.021 106.718 112.557 106.533 112.073 106.533ZM112.073 109.228C111.878 109.229 111.688 109.174 111.525 109.071C111.363 108.968 111.236 108.821 111.161 108.648C111.086 108.476 111.066 108.286 111.103 108.102C111.141 107.919 111.234 107.75 111.371 107.618C111.509 107.485 111.684 107.395 111.875 107.358C112.066 107.321 112.264 107.34 112.444 107.411C112.625 107.483 112.778 107.604 112.887 107.759C112.995 107.914 113.053 108.097 113.053 108.284C113.054 108.408 113.029 108.531 112.98 108.645C112.931 108.76 112.859 108.864 112.767 108.952C112.676 109.039 112.568 109.109 112.449 109.156C112.33 109.204 112.202 109.228 112.073 109.228ZM53.4214 141.365C53.3679 141.635 53.3172 141.905 53.2693 142.175C53.4599 142.264 53.6151 142.411 53.7117 142.592C53.8082 142.773 53.8408 142.98 53.8046 143.18C53.7685 143.381 53.6654 143.565 53.511 143.704C53.3566 143.844 53.1591 143.932 52.9483 143.954C52.8976 144.238 52.8511 144.51 52.8047 144.765H52.8343C53.2665 144.765 53.6848 144.618 54.0144 144.349C54.3441 144.081 54.5637 143.709 54.6342 143.3C54.7047 142.89 54.6214 142.47 54.3993 142.114C54.1772 141.759 53.8306 141.49 53.4214 141.356V141.365ZM69.759 141.271C69.3983 141.272 69.0459 141.375 68.7464 141.568C68.4469 141.761 68.2137 142.035 68.0762 142.355C67.9388 142.675 67.9033 143.027 67.9741 143.366C68.045 143.706 68.2191 144.017 68.4745 144.262C68.7298 144.506 69.055 144.673 69.4088 144.74C69.7627 144.807 70.1293 144.772 70.4625 144.639C70.7957 144.507 71.0804 144.282 71.2807 143.995C71.481 143.707 71.5879 143.368 71.5879 143.022C71.5868 142.557 71.3936 142.112 71.0508 141.784C70.7079 141.456 70.2433 141.271 69.759 141.271ZM69.759 143.963C69.5654 143.962 69.3763 143.906 69.2158 143.802C69.0552 143.698 68.9302 143.551 68.8567 143.379C68.7832 143.207 68.7644 143.018 68.8027 142.836C68.841 142.654 68.9346 142.487 69.0718 142.356C69.209 142.225 69.3836 142.136 69.5736 142.1C69.7636 142.064 69.9604 142.083 70.1392 142.154C70.318 142.225 70.4708 142.346 70.5783 142.5C70.6858 142.655 70.7432 142.836 70.7432 143.022C70.7432 143.146 70.7177 143.269 70.6682 143.383C70.6187 143.497 70.5461 143.601 70.4547 143.689C70.3632 143.776 70.2547 143.845 70.1353 143.892C70.0159 143.939 69.8881 143.963 69.759 143.963ZM86.6838 141.271C86.3231 141.272 85.9707 141.375 85.6712 141.568C85.3717 141.761 85.1385 142.035 85.001 142.355C84.8636 142.675 84.828 143.027 84.8989 143.366C84.9698 143.706 85.1439 144.017 85.3993 144.262C85.6546 144.506 85.9797 144.673 86.3336 144.74C86.6874 144.807 87.0541 144.772 87.3873 144.639C87.7204 144.507 88.0052 144.282 88.2055 143.995C88.4058 143.707 88.5127 143.368 88.5127 143.022C88.5116 142.557 88.3184 142.112 87.9755 141.784C87.6327 141.456 87.1681 141.271 86.6838 141.271ZM86.6838 143.963C86.4902 143.962 86.3011 143.906 86.1405 143.802C85.9799 143.698 85.855 143.551 85.7815 143.379C85.708 143.207 85.6891 143.018 85.7274 142.836C85.7657 142.654 85.8594 142.487 85.9966 142.356C86.1338 142.225 86.3084 142.136 86.4984 142.1C86.6884 142.064 86.8852 142.083 87.064 142.154C87.2428 142.225 87.3956 142.346 87.5031 142.5C87.6106 142.655 87.6679 142.836 87.6679 143.022C87.6679 143.146 87.6424 143.269 87.5929 143.383C87.5434 143.497 87.4709 143.601 87.3794 143.689C87.288 143.776 87.1795 143.845 87.0601 143.892C86.9407 143.939 86.8128 143.963 86.6838 143.963ZM103.609 141.271C103.248 141.272 102.895 141.375 102.596 141.568C102.296 141.761 102.063 142.035 101.926 142.355C101.788 142.675 101.753 143.027 101.824 143.366C101.895 143.706 102.069 144.017 102.324 144.262C102.579 144.506 102.905 144.673 103.258 144.74C103.612 144.807 103.979 144.772 104.312 144.639C104.645 144.507 104.93 144.282 105.13 143.995C105.331 143.707 105.437 143.368 105.437 143.022C105.436 142.557 105.243 142.112 104.9 141.784C104.557 141.456 104.093 141.271 103.609 141.271ZM103.609 143.963C103.415 143.962 103.226 143.906 103.065 143.802C102.905 143.698 102.78 143.551 102.706 143.379C102.633 143.207 102.614 143.018 102.652 142.836C102.69 142.654 102.784 142.487 102.921 142.356C103.059 142.225 103.233 142.136 103.423 142.1C103.613 142.064 103.81 142.083 103.989 142.154C104.168 142.225 104.32 142.346 104.428 142.5C104.535 142.655 104.593 142.836 104.593 143.022C104.593 143.146 104.567 143.269 104.518 143.383C104.468 143.497 104.396 143.601 104.304 143.689C104.213 143.776 104.104 143.845 103.985 143.892C103.865 143.939 103.738 143.963 103.609 143.963ZM120.533 141.271C120.173 141.272 119.82 141.375 119.521 141.568C119.221 141.761 118.988 142.035 118.851 142.355C118.713 142.675 118.678 143.027 118.748 143.366C118.819 143.706 118.993 144.017 119.249 144.262C119.504 144.506 119.829 144.673 120.183 144.74C120.537 144.807 120.904 144.772 121.237 144.639C121.57 144.507 121.855 144.282 122.055 143.995C122.255 143.707 122.362 143.368 122.362 143.022C122.361 142.557 122.168 142.112 121.825 141.784C121.482 141.456 121.018 141.271 120.533 141.271ZM120.533 143.963C120.34 143.962 120.151 143.906 119.99 143.802C119.829 143.698 119.705 143.551 119.631 143.379C119.557 143.207 119.539 143.018 119.577 142.836C119.615 142.654 119.709 142.487 119.846 142.356C119.983 142.225 120.158 142.136 120.348 142.1C120.538 142.064 120.735 142.083 120.914 142.154C121.092 142.225 121.245 142.346 121.353 142.5C121.46 142.655 121.517 142.836 121.517 143.022C121.517 143.146 121.492 143.269 121.442 143.383C121.393 143.497 121.32 143.601 121.229 143.689C121.138 143.776 121.029 143.845 120.91 143.892C120.79 143.939 120.662 143.963 120.533 143.963ZM61.2987 130.012C60.9367 130.011 60.5825 130.114 60.2811 130.306C59.9797 130.499 59.7446 130.773 59.6056 131.094C59.4667 131.414 59.4301 131.768 59.5006 132.108C59.571 132.449 59.7453 132.762 60.0013 133.008C60.2573 133.254 60.5836 133.421 60.9388 133.488C61.2939 133.556 61.662 133.521 61.9964 133.388C62.3307 133.254 62.6163 133.029 62.817 132.74C63.0176 132.45 63.1243 132.11 63.1234 131.763C63.1223 131.299 62.9297 130.854 62.5878 130.526C62.2458 130.198 61.7823 130.013 61.2987 130.012ZM61.2987 132.707C61.1039 132.708 60.9132 132.653 60.7508 132.55C60.5884 132.447 60.4616 132.3 60.3865 132.127C60.3114 131.955 60.2913 131.765 60.3288 131.581C60.3663 131.398 60.4597 131.229 60.5971 131.097C60.7346 130.964 60.9099 130.874 61.101 130.837C61.292 130.8 61.4901 130.819 61.6702 130.89C61.8502 130.962 62.0042 131.083 62.1125 131.238C62.2208 131.393 62.2787 131.576 62.2787 131.763C62.2787 132.013 62.1756 132.252 61.9919 132.429C61.8083 132.606 61.559 132.706 61.2987 132.707ZM78.2235 130.012C77.8614 130.011 77.5072 130.114 77.2058 130.306C76.9044 130.499 76.6694 130.773 76.5304 131.094C76.3915 131.414 76.3549 131.768 76.4253 132.108C76.4958 132.449 76.67 132.762 76.9261 133.008C77.1821 133.254 77.5084 133.421 77.8635 133.488C78.2187 133.556 78.5868 133.521 78.9211 133.388C79.2555 133.254 79.5411 133.029 79.7417 132.74C79.9424 132.45 80.049 132.11 80.0482 131.763C80.0471 131.299 79.8545 130.854 79.5125 130.526C79.1706 130.198 78.7071 130.013 78.2235 130.012ZM78.2235 132.707C78.0287 132.708 77.838 132.653 77.6756 132.55C77.5132 132.447 77.3864 132.3 77.3113 132.127C77.2361 131.955 77.2161 131.765 77.2535 131.581C77.291 131.398 77.3844 131.229 77.5219 131.097C77.6594 130.964 77.8347 130.874 78.0257 130.837C78.2168 130.8 78.4149 130.819 78.5949 130.89C78.775 130.962 78.929 131.083 79.0373 131.238C79.1456 131.393 79.2034 131.576 79.2034 131.763C79.2023 132.012 79.0989 132.251 78.9155 132.428C78.732 132.605 78.4834 132.705 78.2235 132.707ZM95.1483 130.012C94.7862 130.011 94.432 130.114 94.1306 130.306C93.8292 130.499 93.5941 130.773 93.4552 131.094C93.3162 131.414 93.2797 131.768 93.3501 132.108C93.4205 132.449 93.5948 132.762 93.8508 133.008C94.1069 133.254 94.4331 133.421 94.7883 133.488C95.1435 133.556 95.5115 133.521 95.8459 133.388C96.1803 133.254 96.4659 133.029 96.6665 132.74C96.8671 132.45 96.9738 132.11 96.973 131.763C96.9718 131.299 96.7792 130.854 96.4373 130.526C96.0953 130.198 95.6319 130.013 95.1483 130.012ZM95.1483 132.707C94.9535 132.708 94.7628 132.653 94.6004 132.55C94.438 132.447 94.3112 132.3 94.236 132.127C94.1609 131.955 94.1408 131.765 94.1783 131.581C94.2158 131.398 94.3092 131.229 94.4467 131.097C94.5841 130.964 94.7595 130.874 94.9505 130.837C95.1415 130.8 95.3396 130.819 95.5197 130.89C95.6998 130.962 95.8537 131.083 95.962 131.238C96.0704 131.393 96.1282 131.576 96.1282 131.763C96.1271 132.012 96.0236 132.251 95.8402 132.428C95.6568 132.605 95.4082 132.705 95.1483 132.707ZM112.073 130.012C111.711 130.011 111.357 130.114 111.055 130.306C110.754 130.499 110.519 130.773 110.38 131.094C110.241 131.414 110.204 131.768 110.275 132.108C110.345 132.449 110.52 132.762 110.776 133.008C111.032 133.254 111.358 133.421 111.713 133.488C112.068 133.556 112.436 133.521 112.771 133.388C113.105 133.254 113.391 133.029 113.591 132.74C113.792 132.45 113.899 132.11 113.898 131.763C113.898 131.299 113.705 130.853 113.363 130.525C113.021 130.197 112.557 130.012 112.073 130.012ZM112.073 132.707C111.878 132.708 111.688 132.653 111.525 132.55C111.363 132.447 111.236 132.3 111.161 132.127C111.086 131.955 111.066 131.765 111.103 131.581C111.141 131.398 111.234 131.229 111.371 131.097C111.509 130.964 111.684 130.874 111.875 130.837C112.066 130.8 112.264 130.819 112.444 130.89C112.625 130.962 112.778 131.083 112.887 131.238C112.995 131.393 113.053 131.576 113.053 131.763C113.053 132.013 112.95 132.252 112.766 132.429C112.583 132.606 112.333 132.706 112.073 132.707Z" fill="#37474F"/>
<path d="M34.7144 126.202C41.1261 123.186 44.4924 118.906 54.1438 93.3725C55.4828 89.8424 32.3575 74.8341 30.7271 78.5386C28.6743 83.2036 20.8349 101.43 20.5055 102.856C17.76 114.793 30.3596 128.228 34.7144 126.202Z" fill="#EB9481"/>
<path d="M31.1699 78.5719C31.1699 78.5719 37.9871 72.8977 40.0399 70.4902C42.0927 68.0828 50.4516 59.2594 55.3132 57.2329C60.4958 55.0727 68.0606 53.0583 69.5178 55.5428C71.8831 59.5715 61.7756 62.133 60.5253 63.515C58.084 66.2103 56.3776 68.2165 55.668 70.7213C54.4473 75.0255 55.3047 79.7473 55.8411 81.0726C57.9742 86.3091 63.765 76.9467 67.0638 75.4795C73.6994 72.5248 74.4977 78.8475 68.6773 84.6433C64.3099 88.9921 64.614 93.2032 59.3258 96.2308C50.0334 101.544 50.498 102.866 50.498 102.866L31.1699 78.5719Z" fill="#EB9481"/>
<path d="M42.9473 76.0749C43.9863 72.3299 44.2482 67.3367 46.7022 64.0254C47.8722 62.4487 53.7729 57.9135 55.8932 56.5881C58.7781 54.7886 65.4137 52.4743 66.1528 54.4806C67.5636 58.2904 60.2775 60.9005 59.2934 61.8124C58.3726 62.6636 54.4613 67.515 54.2628 67.8919C53.8785 68.5688 51.3315 84.574 51.3315 84.574L42.9473 76.0749Z" fill="#EB9481"/>
<path d="M39.8838 78.2917C40.7285 74.4981 40.7286 69.5008 43.0179 66.076C44.1034 64.4548 49.7759 59.6398 51.816 58.2172C54.6037 56.284 61.1084 53.6617 61.9531 55.6314C63.5582 59.3683 56.4157 62.3189 55.4738 63.2754C54.5995 64.167 50.9417 69.2009 50.7601 69.5616C50.4137 70.2587 48.682 86.3612 48.682 86.3612L39.8838 78.2917Z" fill="#EB9481"/>
<path d="M30.0264 80.2822C31.5216 74.0771 39.9819 66.0522 42.5119 63.3123C46.1697 59.3485 54.4779 54.8781 56.0281 56.7303C58.9552 60.1915 49.3249 66.9762 49.0673 67.6247C48.9574 67.9044 47.4115 73.1895 47.3313 76.4805C47.2933 77.8869 58.499 98.9908 43.9945 101.848L30.0264 80.2822Z" fill="#EB9481"/>
<path d="M66.127 54.4116C66.127 54.3792 66.0468 54.3914 66.0595 54.4116C66.6254 56.1787 65.447 57.654 64.1292 58.7564C63.4433 59.3278 62.6822 59.8102 61.8652 60.1912C61.0351 60.5304 60.2367 60.9372 59.4788 61.4071C58.0047 62.4325 56.9445 63.9524 55.8548 65.3182C55.2614 65.994 54.7127 66.7046 54.2117 67.446C53.8052 68.1765 53.5526 68.9767 53.4683 69.8008C53.1346 71.9408 53.1684 72.6947 52.8896 74.8427C52.8928 74.8528 52.8992 74.8616 52.9079 74.8678C52.9167 74.8741 52.9273 74.8775 52.9382 74.8775C52.9491 74.8775 52.9598 74.8741 52.9685 74.8678C52.9773 74.8616 52.9837 74.8528 52.9868 74.8427C53.198 72.9216 54.1357 68.5728 54.651 67.7257C55.1612 66.9612 55.7257 66.2313 56.3405 65.5411C57.4598 64.1591 58.5411 62.5379 60.0997 61.5692C60.9149 61.0626 61.8568 60.7789 62.7058 60.329C63.4821 59.9239 64.1935 59.4134 64.8177 58.8132C65.8905 57.7837 67.0732 55.8869 66.127 54.4116Z" fill="#263238"/>
<path d="M61.5056 55.1085C60.8762 54.76 59.7063 54.7721 58.7939 55.141C58.7601 55.141 58.739 55.1896 58.8699 55.1612C59.795 54.9545 61.2057 54.914 61.6619 55.6516C61.8654 56.0319 61.9608 56.4569 61.9385 56.8838C61.9163 57.3108 61.7772 57.7245 61.5352 58.0834C61.0034 58.841 60.3217 59.491 59.5289 59.9964L57.0157 61.8608C56.1709 62.4688 55.3262 63.0038 54.6926 63.8144C54.059 64.625 53.493 65.4356 52.9102 66.2462C52.3273 67.0568 51.6684 67.916 51.0981 68.7793C50.5871 69.5493 50.5068 70.4005 50.3801 71.2719C50.2154 72.4229 49.9155 76.3259 49.8057 76.9177C49.8057 76.9785 49.8944 76.9866 49.9028 76.9177C50.0169 75.7707 51.0306 70.5788 51.115 70.0722C51.2259 69.5513 51.46 69.0618 51.7993 68.6415C52.454 67.7376 53.1298 66.846 53.7803 65.9381C54.4307 65.0303 55.0178 63.9562 55.8922 63.251C56.7665 62.5458 57.7337 61.8892 58.6588 61.2245C60.0948 60.1869 62.0927 59.048 62.3546 57.1715C62.4813 56.3325 62.2954 55.5503 61.5056 55.1085Z" fill="#263238"/>
<path d="M56.34 57.03C56.1478 56.7355 55.8724 56.4994 55.5459 56.3491C55.246 56.2154 55.2291 56.3005 55.2925 56.3491C57.0158 57.4678 56.0908 59.2916 55.4657 60.3089C54.7955 61.3151 54.0367 62.2642 53.1975 63.146C52.3303 64.1321 51.4067 65.0711 50.4309 65.9588C49.9857 66.309 49.5756 66.6984 49.206 67.122C48.9038 67.5776 48.7078 68.0905 48.6316 68.6256C48.35 69.9577 48.0684 71.2912 47.7868 72.6259L47.3644 74.5916C47.2057 75.2143 47.1179 75.8517 47.1025 76.4925C47.1321 77.7692 47.8333 78.9 48.3232 80.0551C48.8427 81.271 49.3243 82.5233 49.7297 83.7879C50.1901 85.2105 50.5745 86.6574 50.8828 88.1165C51.2375 89.6124 51.4537 91.1355 51.5291 92.668C51.5291 92.6798 51.534 92.6911 51.5427 92.6995C51.5514 92.7079 51.5632 92.7126 51.5755 92.7126C51.5879 92.7126 51.5997 92.7079 51.6084 92.6995C51.6171 92.6911 51.622 92.6798 51.622 92.668C51.5249 91.3426 51.4742 90.0173 51.3179 88.696C51.1596 87.3774 50.9141 86.0697 50.5829 84.7809C50.2529 83.4916 49.8439 82.2222 49.358 80.9791C49.1215 80.3712 48.8639 79.7633 48.5851 79.1756C48.256 78.5666 47.9736 77.9353 47.7403 77.2869C47.3644 76.0102 47.8839 74.5714 48.1627 73.3149C48.4443 71.9802 48.7259 70.6454 49.0075 69.3106C49.0762 68.6607 49.2695 68.0287 49.5777 67.4462C49.9853 66.9626 50.4486 66.5248 50.9589 66.1412C51.9008 65.286 52.8089 64.3943 53.6706 63.4621C55.2122 61.7599 57.4424 59.0525 56.34 57.03Z" fill="#263238"/>
<path d="M54.3296 73.5136C53.1508 74.5442 51.8896 75.4847 50.5578 76.3264C50.0087 76.7109 49.4969 77.1423 49.0288 77.6153C48.6079 78.0639 48.2797 78.5852 48.0615 79.1513C48.0615 79.2081 48.1291 79.2365 48.1544 79.1838C48.4604 78.5815 48.923 78.065 49.4976 77.6842C50.034 77.2789 50.6338 76.9789 51.2083 76.6263C51.8123 76.2885 52.364 75.8711 52.8471 75.3861C53.4007 74.8111 53.9197 74.2062 54.4015 73.5744C54.431 73.5136 54.3719 73.4569 54.3296 73.5136Z" fill="#263238"/>
<path d="M24.497 81.4531L53.3497 106.833C53.3497 106.833 41.4766 125.959 34.6341 126.664C28.273 127.317 17.5742 115.279 19.9733 102.261L24.497 81.4531Z" fill="#455A64"/>
<path d="M35.9021 94.313C35.54 94.3122 35.1858 94.4145 34.8844 94.607C34.583 94.7995 34.3479 95.0736 34.209 95.3944C34.07 95.7153 34.0334 96.0685 34.1039 96.4093C34.1743 96.7501 34.3486 97.0631 34.6046 97.3088C34.8606 97.5545 35.1869 97.7217 35.5421 97.7893C35.8972 97.8569 36.2653 97.8218 36.5997 97.6885C36.934 97.5551 37.2196 97.3296 37.4203 97.0404C37.6209 96.7511 37.7276 96.4113 37.7267 96.0638C37.7267 95.5995 37.5345 95.1541 37.1923 94.8258C36.8501 94.4974 36.386 94.313 35.9021 94.313ZM35.9021 97.0082C35.7072 97.009 35.5165 96.9543 35.3541 96.851C35.1917 96.7477 35.065 96.6005 34.9898 96.428C34.9147 96.2556 34.8946 96.0656 34.9321 95.8821C34.9696 95.6986 35.063 95.53 35.2004 95.3975C35.3379 95.2651 35.5133 95.1747 35.7043 95.1379C35.8953 95.1012 36.0934 95.1196 36.2735 95.191C36.4535 95.2624 36.6075 95.3834 36.7158 95.5388C36.8241 95.6942 36.882 95.8769 36.882 96.0638C36.8842 96.1887 36.8605 96.3127 36.8123 96.4286C36.764 96.5446 36.6922 96.6502 36.601 96.7392C36.5098 96.8283 36.401 96.899 36.281 96.9472C36.161 96.9955 36.0322 97.0204 35.9021 97.0203V97.0082ZM28.4259 84.8979C28.4088 85.0728 28.3411 85.2397 28.2305 85.3798C28.1199 85.5198 27.9708 85.6275 27.7999 85.6906C27.629 85.7538 27.4431 85.77 27.2632 85.7373C27.0832 85.7046 26.9164 85.6244 26.7813 85.5058C26.6463 85.3871 26.5485 85.2346 26.4988 85.0654C26.4492 84.8963 26.4497 84.7172 26.5003 84.5483C26.551 84.3794 26.6497 84.2275 26.7854 84.1095C26.9211 83.9915 27.0885 83.9122 27.2686 83.8806L26.5717 83.2686C26.3125 83.3995 26.0899 83.5882 25.9226 83.8188C25.7553 84.0494 25.6481 84.3152 25.6102 84.5939C25.5722 84.8725 25.6045 85.1558 25.7044 85.42C25.8043 85.6842 25.9688 85.9215 26.1841 86.1119C26.3995 86.3024 26.6593 86.4404 26.9419 86.5144C27.2244 86.5884 27.5213 86.5963 27.8076 86.5373C28.0939 86.4783 28.3613 86.3542 28.5873 86.1754C28.8132 85.9966 28.9911 85.7683 29.106 85.5099L28.4259 84.8979ZM35.9021 117.792C35.54 117.791 35.1858 117.893 34.8844 118.086C34.583 118.279 34.3479 118.553 34.209 118.873C34.07 119.194 34.0334 119.547 34.1039 119.888C34.1743 120.229 34.3486 120.542 34.6046 120.788C34.8606 121.033 35.1869 121.201 35.5421 121.268C35.8972 121.336 36.2653 121.301 36.5997 121.167C36.934 121.034 37.2196 120.809 37.4203 120.519C37.6209 120.23 37.7276 119.89 37.7267 119.543C37.7267 119.078 37.5345 118.633 37.1923 118.305C36.8501 117.976 36.386 117.792 35.9021 117.792ZM35.9021 120.487C35.7072 120.488 35.5165 120.433 35.3541 120.33C35.1917 120.227 35.065 120.079 34.9898 119.907C34.9147 119.735 34.8946 119.545 34.9321 119.361C34.9696 119.178 35.063 119.009 35.2004 118.876C35.3379 118.744 35.5133 118.654 35.7043 118.617C35.8953 118.58 36.0934 118.599 36.2735 118.67C36.4535 118.741 36.6075 118.862 36.7158 119.018C36.8241 119.173 36.882 119.356 36.882 119.543C36.882 119.793 36.7789 120.032 36.5952 120.209C36.4116 120.386 36.1623 120.486 35.9021 120.487ZM27.4545 106.533C27.0926 106.533 26.7388 106.636 26.4379 106.829C26.1371 107.022 25.9027 107.296 25.7644 107.617C25.6261 107.938 25.5901 108.291 25.661 108.632C25.7319 108.972 25.9065 109.285 26.1627 109.53C26.4189 109.775 26.7452 109.942 27.1002 110.009C27.4553 110.077 27.8232 110.041 28.1573 109.908C28.4914 109.774 28.7767 109.549 28.9772 109.26C29.1776 108.971 29.2842 108.631 29.2834 108.284C29.2822 107.819 29.0891 107.374 28.7462 107.045C28.4033 106.717 27.9388 106.533 27.4545 106.533ZM27.4545 109.228C27.2598 109.228 27.0695 109.173 26.9077 109.069C26.7458 108.965 26.6197 108.818 26.5452 108.645C26.4707 108.472 26.4512 108.283 26.4892 108.099C26.5272 107.916 26.6209 107.748 26.7586 107.616C26.8962 107.484 27.0716 107.394 27.2625 107.357C27.4534 107.321 27.6512 107.34 27.8311 107.411C28.0109 107.483 28.1646 107.604 28.2727 107.759C28.3809 107.914 28.4386 108.097 28.4386 108.284C28.4392 108.408 28.4141 108.531 28.3648 108.646C28.3156 108.76 28.2431 108.865 28.1516 108.953C28.0601 109.04 27.9514 109.11 27.8317 109.157C27.7121 109.204 27.5838 109.228 27.4545 109.228ZM44.3792 106.533C44.0173 106.533 43.6636 106.636 43.3627 106.829C43.0618 107.022 42.8274 107.296 42.6891 107.617C42.5508 107.938 42.5149 108.291 42.5858 108.632C42.6567 108.972 42.8313 109.285 43.0875 109.53C43.3437 109.775 43.67 109.942 44.025 110.009C44.3801 110.077 44.7479 110.041 45.082 109.908C45.4162 109.774 45.7015 109.549 45.902 109.26C46.1024 108.971 46.209 108.631 46.2081 108.284C46.2076 108.053 46.1596 107.824 46.0669 107.611C45.9742 107.398 45.8386 107.205 45.668 107.042C45.4973 106.88 45.2949 106.751 45.0723 106.664C44.8497 106.576 44.6113 106.532 44.3708 106.533H44.3792ZM44.3792 109.228C44.1846 109.228 43.9943 109.173 43.8325 109.069C43.6706 108.965 43.5445 108.818 43.47 108.645C43.3955 108.472 43.376 108.283 43.414 108.099C43.452 107.916 43.5457 107.748 43.6833 107.616C43.821 107.484 43.9963 107.394 44.1872 107.357C44.3781 107.321 44.576 107.34 44.7558 107.411C44.9357 107.483 45.0894 107.604 45.1975 107.759C45.3056 107.914 45.3634 108.097 45.3634 108.284C45.3639 108.408 45.3386 108.532 45.2888 108.648C45.239 108.763 45.1658 108.868 45.0734 108.955C44.981 109.043 44.8713 109.113 44.7507 109.16C44.63 109.206 44.5009 109.23 44.3708 109.228H44.3792Z" fill="#37474F"/>
<path d="M46.2875 113.184C43.2886 110.541 40.4207 107.745 37.5611 104.944C34.7016 102.144 31.8295 99.343 29.0291 96.4694C27.4452 94.8482 25.857 93.227 24.3238 91.5572C24.2857 91.5167 24.3238 91.4397 24.3871 91.4802C27.3776 94.1187 30.2624 96.9031 33.1346 99.6835C36.0068 102.464 38.8579 105.285 41.7005 108.126C43.2971 109.747 44.8725 111.368 46.4058 113.038C46.4607 113.119 46.372 113.261 46.2875 113.184Z" fill="#263238"/>
<path d="M50.3383 104.174C51.4872 105.009 52.598 105.88 53.6962 106.768C52.8515 108.324 51.9391 109.832 50.9845 111.319C48.1842 115.542 45.1261 119.749 41.0713 122.959C44.5306 119.21 47.4366 115.068 50.3045 110.902C51.2633 109.516 52.201 108.109 53.1302 106.707L53.1809 107.023C52.2137 106.091 51.2591 105.147 50.3383 104.186V104.174Z" fill="#263238"/>
<path d="M47.9564 115.522C47.2277 117.632 46.0496 119.572 44.4971 121.221C45.5446 119.243 46.7315 117.399 47.9564 115.522Z" fill="#263238"/>
<path d="M107.947 64.4301C132.516 81.7688 152.579 108.138 149.074 117.69C145.357 127.823 123.841 112.584 122.886 111.133C119.794 106.362 108.348 90.5355 97.311 72.6293C86.2742 54.7232 101.868 60.138 107.947 64.4301Z" fill="#F7A9A0"/>
<path d="M120.082 110.902C115.63 105.531 101.793 81.3838 95.9513 71.0406C90.6969 61.7552 93.2058 56.0121 102.743 60.8068C120.302 69.6342 141.45 90.5435 150.168 107.465C158.565 123.766 144.174 129.164 136.884 125.01C126.426 119.048 123.651 115.202 120.082 110.902Z" fill="#455A64"/>
<path d="M103.609 70.8344C103.247 70.8344 102.894 70.9373 102.593 71.1302C102.292 71.323 102.058 71.5971 101.919 71.9178C101.781 72.2384 101.745 72.5913 101.815 72.9317C101.886 73.2721 102.06 73.5848 102.316 73.8303C102.571 74.0757 102.897 74.2429 103.252 74.3106C103.607 74.3783 103.975 74.3435 104.309 74.2107C104.643 74.0779 104.929 73.8529 105.13 73.5643C105.331 73.2757 105.438 72.9364 105.438 72.5893C105.438 72.1239 105.245 71.6775 104.902 71.3484C104.559 71.0193 104.094 70.8344 103.609 70.8344ZM103.609 73.5296C103.414 73.5296 103.224 73.4741 103.062 73.3702C102.9 73.2663 102.774 73.1185 102.699 72.9457C102.625 72.7729 102.606 72.5829 102.644 72.3996C102.682 72.2163 102.777 72.048 102.915 71.9161C103.053 71.7842 103.228 71.6946 103.42 71.6586C103.611 71.6226 103.809 71.6419 103.989 71.714C104.168 71.7861 104.322 71.9078 104.429 72.0636C104.537 72.2194 104.594 72.4024 104.593 72.5893C104.589 72.8366 104.483 73.0722 104.299 73.2452C104.114 73.4182 103.867 73.5145 103.609 73.5134V73.5296ZM121.18 73.2986C121.001 73.4492 120.771 73.5314 120.534 73.5296C120.357 73.5325 120.183 73.4895 120.029 73.405C119.876 73.3206 119.749 73.1979 119.663 73.05C119.576 72.9021 119.533 72.7345 119.537 72.5649C119.542 72.3954 119.594 72.2301 119.689 72.0868L119.043 71.5599C118.775 71.9157 118.657 72.3548 118.711 72.7904C118.764 73.226 118.987 73.6264 119.334 73.9122C119.68 74.1981 120.126 74.3486 120.583 74.3341C121.04 74.3195 121.475 74.1409 121.801 73.8336C121.607 73.6512 121.391 73.4729 121.18 73.2986ZM95.1487 59.5752C95.0352 59.5758 94.9221 59.5866 94.8108 59.6076C94.4303 59.854 94.1067 60.173 93.8604 60.5446C93.614 60.9163 93.4501 61.3327 93.3789 61.7679C93.4649 62.0844 93.6416 62.3715 93.889 62.5966C94.1364 62.8217 94.4446 62.9758 94.7785 63.0414C95.1125 63.107 95.459 63.0815 95.7787 62.9678C96.0983 62.8542 96.3784 62.6568 96.5872 62.3982C96.7959 62.1396 96.925 61.83 96.9597 61.5046C96.9945 61.1791 96.9335 60.8509 96.7838 60.557C96.634 60.2631 96.4015 60.0154 96.1125 59.8418C95.8235 59.6683 95.4896 59.5759 95.1487 59.5752ZM95.1487 62.2704C94.9537 62.2712 94.7628 62.2164 94.6003 62.113C94.4379 62.0095 94.3111 61.8621 94.236 61.6893C94.161 61.5166 94.1412 61.3264 94.179 61.1429C94.2169 60.9593 94.3107 60.7907 94.4486 60.6583C94.5865 60.526 94.7622 60.436 94.9535 60.3997C95.1448 60.3634 95.343 60.3824 95.523 60.4544C95.703 60.5264 95.8567 60.6481 95.9645 60.804C96.0723 60.9599 96.1294 61.143 96.1286 61.3301C96.1275 61.5792 96.0239 61.8177 95.8404 61.9938C95.6568 62.17 95.4082 62.2694 95.1487 62.2704ZM120.534 94.3134C120.172 94.3134 119.818 94.4164 119.517 94.6094C119.216 94.8024 118.982 95.0768 118.844 95.3977C118.705 95.7186 118.669 96.0716 118.74 96.4122C118.811 96.7527 118.986 97.0654 119.242 97.3107C119.498 97.5559 119.824 97.7228 120.18 97.79C120.535 97.8573 120.902 97.822 121.237 97.6885C121.571 97.5551 121.856 97.3295 122.056 97.0404C122.257 96.7512 122.363 96.4115 122.363 96.0643C122.362 95.5995 122.168 95.1542 121.825 94.8259C121.483 94.4977 121.018 94.3134 120.534 94.3134ZM120.534 97.0086C120.339 97.0086 120.149 96.9532 119.987 96.8495C119.825 96.7457 119.699 96.5982 119.624 96.4256C119.55 96.2531 119.531 96.0632 119.568 95.88C119.606 95.6968 119.7 95.5286 119.838 95.3965C119.975 95.2644 120.151 95.1745 120.342 95.1381C120.533 95.1016 120.731 95.1203 120.91 95.1918C121.09 95.2633 121.244 95.3843 121.352 95.5396C121.46 95.6949 121.518 95.8775 121.518 96.0643C121.52 96.1894 121.496 96.3138 121.448 96.43C121.399 96.5462 121.327 96.652 121.235 96.7411C121.144 96.8302 121.034 96.9008 120.914 96.9489C120.793 96.9969 120.664 97.0213 120.534 97.0208V97.0086ZM137.463 94.3134C137.101 94.3126 136.746 94.4149 136.445 94.6074C136.144 94.8 135.909 95.074 135.77 95.3948C135.631 95.7157 135.594 96.0689 135.665 96.4097C135.735 96.7505 135.909 97.0636 136.165 97.3092C136.421 97.5549 136.748 97.7221 137.103 97.7897C137.458 97.8573 137.826 97.8222 138.16 97.6889C138.495 97.5556 138.78 97.33 138.981 97.0408C139.182 96.7516 139.288 96.4117 139.287 96.0643C139.286 95.6002 139.094 95.1555 138.752 94.8274C138.41 94.4993 137.946 94.3144 137.463 94.3134ZM137.463 97.0086C137.268 97.0094 137.077 96.9547 136.915 96.8514C136.752 96.7481 136.626 96.6009 136.55 96.4285C136.475 96.256 136.455 96.066 136.493 95.8825C136.53 95.6991 136.624 95.5304 136.761 95.3979C136.899 95.2655 137.074 95.1751 137.265 95.1384C137.456 95.1016 137.654 95.1201 137.834 95.1914C138.014 95.2628 138.168 95.3838 138.276 95.5392C138.385 95.6946 138.443 95.8773 138.443 96.0643C138.444 96.189 138.42 96.3127 138.372 96.4284C138.323 96.5442 138.252 96.6495 138.16 96.7384C138.069 96.8274 137.961 96.8981 137.841 96.9466C137.721 96.995 137.593 97.0202 137.463 97.0208V97.0086ZM112.073 83.0542C111.712 83.0534 111.358 83.1556 111.056 83.348C110.755 83.5403 110.52 83.8141 110.381 84.1347C110.242 84.4553 110.205 84.8083 110.275 85.149C110.345 85.4897 110.519 85.8028 110.774 86.0486C111.03 86.2944 111.356 86.462 111.711 86.53C112.066 86.5981 112.434 86.5636 112.768 86.4309C113.103 86.2981 113.388 86.0732 113.59 85.7845C113.791 85.4958 113.898 85.1564 113.898 84.8091C113.899 84.5788 113.852 84.3507 113.76 84.1378C113.669 83.9249 113.535 83.7314 113.365 83.5684C113.196 83.4054 112.994 83.2761 112.773 83.1878C112.551 83.0996 112.313 83.0542 112.073 83.0542ZM112.073 85.7494C111.878 85.7502 111.688 85.6954 111.525 85.5919C111.363 85.4885 111.236 85.341 111.161 85.1683C111.086 84.9956 111.066 84.8054 111.104 84.6218C111.142 84.4383 111.235 84.2696 111.373 84.1373C111.511 84.005 111.687 83.915 111.878 83.8787C112.07 83.8424 112.268 83.8614 112.448 83.9334C112.628 84.0054 112.781 84.127 112.889 84.2829C112.997 84.4389 113.054 84.622 113.053 84.8091C113.053 84.9326 113.028 85.0549 112.979 85.1689C112.93 85.283 112.857 85.3867 112.766 85.474C112.675 85.5613 112.567 85.6306 112.448 85.6778C112.33 85.7251 112.202 85.7494 112.073 85.7494ZM128.998 83.0542C128.636 83.0534 128.282 83.1556 127.981 83.348C127.68 83.5403 127.445 83.8141 127.306 84.1347C127.166 84.4553 127.13 84.8083 127.2 85.149C127.27 85.4897 127.444 85.8028 127.699 86.0486C127.955 86.2944 128.281 86.462 128.636 86.53C128.991 86.5981 129.358 86.5636 129.693 86.4309C130.027 86.2981 130.313 86.0732 130.514 85.7845C130.716 85.4958 130.823 85.1564 130.823 84.8091C130.823 84.3444 130.631 83.8986 130.289 83.5696C129.947 83.2406 129.483 83.0552 128.998 83.0542ZM128.998 85.7494C128.803 85.7502 128.612 85.6954 128.45 85.5919C128.287 85.4885 128.161 85.341 128.086 85.1683C128.011 84.9956 127.991 84.8054 128.029 84.6218C128.066 84.4383 128.16 84.2696 128.298 84.1373C128.436 84.005 128.612 83.915 128.803 83.8787C128.994 83.8424 129.193 83.8614 129.373 83.9334C129.553 84.0054 129.706 84.127 129.814 84.2829C129.922 84.4389 129.979 84.622 129.978 84.8091C129.978 85.0585 129.875 85.2977 129.691 85.474C129.507 85.6503 129.258 85.7494 128.998 85.7494ZM137.446 117.792C137.084 117.792 136.73 117.894 136.428 118.086C136.127 118.279 135.892 118.553 135.753 118.874C135.614 119.195 135.577 119.548 135.648 119.889C135.718 120.229 135.892 120.543 136.148 120.788C136.404 121.034 136.731 121.201 137.086 121.269C137.441 121.336 137.809 121.301 138.143 121.168C138.478 121.035 138.763 120.809 138.964 120.52C139.165 120.231 139.271 119.891 139.271 119.543C139.269 119.082 139.079 118.64 138.741 118.312C138.403 117.984 137.943 117.798 137.463 117.792H137.446ZM137.446 120.488C137.251 120.488 137.06 120.434 136.898 120.33C136.736 120.227 136.609 120.08 136.534 119.907C136.458 119.735 136.438 119.545 136.476 119.361C136.513 119.178 136.607 119.009 136.744 118.877C136.882 118.744 137.057 118.654 137.248 118.617C137.439 118.581 137.637 118.599 137.817 118.67C137.997 118.742 138.151 118.863 138.26 119.018C138.368 119.174 138.426 119.356 138.426 119.543C138.426 119.79 138.325 120.027 138.145 120.204C137.965 120.38 137.72 120.482 137.463 120.488H137.446ZM128.998 106.533C128.636 106.532 128.282 106.635 127.981 106.827C127.679 107.02 127.444 107.294 127.305 107.615C127.166 107.935 127.13 108.289 127.2 108.629C127.27 108.97 127.445 109.283 127.701 109.529C127.957 109.775 128.283 109.942 128.638 110.009C128.993 110.077 129.361 110.042 129.696 109.909C130.03 109.775 130.316 109.55 130.516 109.261C130.717 108.971 130.824 108.631 130.823 108.284C130.822 107.82 130.629 107.375 130.287 107.047C129.945 106.719 129.482 106.534 128.998 106.533ZM128.998 109.228C128.803 109.229 128.613 109.174 128.45 109.071C128.288 108.968 128.161 108.821 128.086 108.648C128.011 108.476 127.991 108.286 128.028 108.102C128.066 107.919 128.159 107.75 128.297 107.618C128.434 107.485 128.609 107.395 128.8 107.358C128.991 107.321 129.19 107.34 129.37 107.411C129.55 107.483 129.704 107.604 129.812 107.759C129.92 107.914 129.978 108.097 129.978 108.284C129.979 108.408 129.954 108.531 129.905 108.645C129.856 108.76 129.784 108.864 129.693 108.952C129.602 109.039 129.493 109.109 129.374 109.156C129.255 109.204 129.127 109.228 128.998 109.228ZM145.923 106.533C145.561 106.533 145.207 106.636 144.906 106.829C144.606 107.022 144.371 107.297 144.233 107.617C144.095 107.938 144.059 108.291 144.13 108.632C144.2 108.972 144.375 109.285 144.631 109.53C144.887 109.776 145.214 109.943 145.569 110.01C145.924 110.077 146.292 110.042 146.626 109.908C146.96 109.775 147.245 109.549 147.446 109.26C147.646 108.971 147.753 108.631 147.752 108.284C147.751 107.819 147.558 107.374 147.215 107.046C146.872 106.717 146.407 106.533 145.923 106.533ZM145.923 109.228C145.728 109.228 145.538 109.173 145.376 109.069C145.214 108.965 145.088 108.818 145.014 108.645C144.939 108.473 144.92 108.283 144.958 108.1C144.996 107.917 145.089 107.748 145.227 107.616C145.365 107.484 145.54 107.394 145.731 107.358C145.922 107.321 146.12 107.34 146.3 107.412C146.479 107.483 146.633 107.604 146.741 107.759C146.849 107.915 146.907 108.097 146.907 108.284C146.908 108.408 146.883 108.531 146.833 108.646C146.784 108.761 146.712 108.865 146.62 108.953C146.529 109.041 146.42 109.11 146.3 109.158C146.181 109.205 146.052 109.229 145.923 109.228Z" fill="#37474F"/>
<path d="M127.279 118.538C115.976 107.671 106.325 88.1401 98.667 77.2295C105.277 88.74 111.283 101.231 120.061 111.348C125.366 117.459 127.279 118.538 127.279 118.538Z" fill="#263238"/>
<path d="M103.482 84.8336C102.195 83.1999 100.681 81.7423 98.9834 80.501C100.16 82.2235 101.691 83.6978 103.482 84.8336Z" fill="#263238"/>
<path d="M83.2588 70.6271C87.5164 71.4864 94.6124 65.0664 97.3114 59.9597C97.493 59.6071 96.8341 55.9918 96.2512 51.5578C95.9049 48.8666 95.5881 45.8634 95.5078 43.1033C95.5078 42.5359 77.582 47.8048 77.582 47.8048C77.582 47.8048 79.5292 53.5478 79.6432 58.3628C79.6511 58.7429 79.6214 59.1229 79.5546 59.4976C79.5546 59.5503 79.5546 59.6152 79.5546 59.6881C79.2335 61.8484 79.1406 69.8084 83.2588 70.6271Z" fill="#EB9481"/>
<path d="M94.397 43.2051C93.7001 47.8944 91.0179 59.259 81.3877 59.7332C80.7708 59.7683 80.1519 59.7534 79.5377 59.6886C79.5373 59.6245 79.5444 59.5606 79.5588 59.4981C79.6207 59.1227 79.6518 58.7433 79.6517 58.3633C79.5334 53.5402 77.582 47.8012 77.582 47.8012C77.582 47.8012 90.5026 43.9995 94.397 43.2051Z" fill="#263238"/>
<path d="M98.7087 22.5628C100.584 28.7274 96.9854 46.435 92.373 50.342C85.6994 56.0162 74.8864 56.4215 69.9024 48.7573C65.0703 41.3201 70.1854 18.3234 75.3173 14.7852C82.8863 9.57302 95.9336 13.4558 98.7087 22.5628Z" fill="#EB9481"/>
<path d="M98.7087 22.5628C100.584 28.7274 96.9854 46.435 92.373 50.342C85.6994 56.0162 74.8864 56.4215 69.9024 48.7573C65.0703 41.3201 70.1854 18.3234 75.3173 14.7852C82.8863 9.57302 95.9336 13.4558 98.7087 22.5628Z" fill="#EB9481"/>
<path d="M83.9209 33.5792C83.9209 33.5347 84.0096 33.6522 83.9969 33.7008C83.7477 34.9167 83.6717 36.3069 84.7361 36.8865C84.7656 36.9067 84.7361 36.9675 84.7107 36.9554C83.3633 36.546 83.4816 34.6736 83.9209 33.5792Z" fill="#263238"/>
<path d="M85.2612 32.5052C87.3013 32.6835 86.7776 36.5866 84.8895 36.4204C83.0015 36.2542 83.5506 32.3552 85.2612 32.5052Z" fill="#263238"/>
<path d="M76.1785 32.6797C76.1785 32.631 76.0729 32.7243 76.0644 32.7729C75.9461 33.9888 75.5913 35.3587 74.4002 35.61C74.3622 35.61 74.358 35.6789 74.4002 35.6789C75.8152 35.6708 76.2629 33.8469 76.1785 32.6797Z" fill="#263238"/>
<path d="M75.2208 31.2766C73.2145 30.8713 72.5387 34.7622 74.376 35.127C76.2134 35.4917 76.9019 31.609 75.2208 31.2766Z" fill="#263238"/>
<path d="M87.4822 30.681C86.9289 30.5926 86.3805 30.4776 85.8392 30.3365C85.2098 30.1946 84.6903 30.146 84.2299 29.6758C84.1131 29.5299 84.0498 29.3511 84.0498 29.1672C84.0498 28.9832 84.1131 28.8044 84.2299 28.6585C84.7748 28.0708 85.59 28.0546 86.3418 28.1924C87.1181 28.3069 87.8217 28.6958 88.3143 29.2827C88.8634 29.8785 88.2341 30.7701 87.4822 30.681Z" fill="#263238"/>
<path d="M73.6666 29.441C74.2271 29.5102 74.7911 29.5508 75.3561 29.5625C76.0023 29.6031 76.5134 29.6963 77.0963 29.372C77.2527 29.2657 77.3667 29.1115 77.4197 28.9347C77.4726 28.7579 77.4614 28.5691 77.3877 28.3993C77.0456 27.682 76.2684 27.4469 75.4955 27.3658C74.7174 27.2621 73.927 27.4398 73.278 27.8643C72.581 28.294 72.9189 29.3356 73.6666 29.441Z" fill="#263238"/>
<path d="M83.4484 44.737C83.1232 44.9964 82.7853 45.3652 82.3249 45.3652C81.8552 45.3217 81.4004 45.1836 80.9902 44.9599C80.9522 44.9599 80.9057 44.9801 80.9311 45.0166C81.0897 45.2712 81.3182 45.4792 81.5915 45.6178C81.8648 45.7565 82.1726 45.8205 82.4812 45.8029C82.7443 45.7592 82.988 45.6415 83.1812 45.4647C83.3745 45.2879 83.5087 45.06 83.5667 44.8099C83.5921 44.737 83.4991 44.7005 83.4484 44.737Z" fill="#263238"/>
<path d="M82.3244 43.2215C79.8366 42.6703 76.8926 42.4758 76.8799 42.342L77.3446 39.5495C76.9771 39.6914 75.0933 40.3318 75.1651 39.8454C75.7606 35.8208 76.4322 31.3341 77.9063 27.4635C77.9166 27.4384 77.936 27.4176 77.9609 27.4049C77.9857 27.3922 78.0145 27.3884 78.042 27.3943C78.0695 27.4002 78.094 27.4153 78.1109 27.4369C78.1278 27.4585 78.1362 27.4852 78.1344 27.5122C77.712 31.403 76.5927 35.2128 76.1154 39.0956C76.711 38.9294 77.6909 38.6133 78.1978 38.6619C78.3329 38.7146 77.7374 41.8314 77.7458 41.8597C79.3261 42.0208 80.8779 42.3777 82.3624 42.9216C82.5187 43.0229 82.4469 43.2459 82.3244 43.2215Z" fill="#263238"/>
<path d="M100.052 36.5419C95.1358 36.9472 92.4495 31.3703 93.5392 26.8148C93.5392 26.8148 80.4835 28.6994 79.6767 18.6318C79.6767 18.6318 76.6145 23.24 70.6843 23.4954L69.6452 26.831C68.2978 26.4824 67.0138 23.0576 70.245 20.1314C70.245 20.1314 70.3844 15.1057 74.1858 12.0254C75.2143 11.1447 76.4853 10.5667 77.847 10.3604C79.2086 10.1541 80.6034 10.3283 81.8647 10.8622C84.1133 9.24519 86.9289 8.53016 89.7167 8.86812C94.5487 9.3788 96.6099 13.5655 96.6099 13.5655C96.6099 13.5655 103.11 14.6436 104.293 19.0452C104.656 20.2864 104.741 21.587 104.545 22.8622C104.348 24.1374 103.874 25.3585 103.153 26.4459C103.153 26.4459 104.808 28.1522 104.048 31.9377C103.562 34.3655 101.526 36.4203 100.052 36.5419Z" fill="#263238"/>
<path d="M79.9516 17.7363C79.8629 18.5542 79.8629 19.3786 79.9516 20.1965C80.024 21.0054 80.1985 21.803 80.4712 22.5715C80.9969 24.0916 82.1011 25.3653 83.563 26.1382C84.9906 26.9812 86.7393 27.0906 88.4077 27.2203C89.2524 27.1798 90.0972 27.2203 90.942 27.1149C91.7867 27.0096 92.6315 26.9001 93.5058 26.8191C92.661 27.0298 91.8163 27.2041 90.9715 27.3946C90.1268 27.5851 89.2482 27.5729 88.3781 27.6662C86.6506 27.6256 84.8259 27.5162 83.242 26.6448C81.6658 25.7887 80.5015 24.3747 79.9981 22.7053C79.5482 21.079 79.5322 19.3701 79.9516 17.7363Z" fill="#263238"/>
<path d="M73.3115 23.6613C74.7365 23.1723 76.0658 22.4572 77.2439 21.5457C77.8134 21.1009 78.319 20.5858 78.7476 20.0136C79.1829 19.4076 79.5457 18.7564 79.8288 18.0723C79.7667 18.8293 79.5393 19.5653 79.1615 20.2325C78.7818 20.9102 78.2682 21.5104 77.6494 21.9996C77.0359 22.4881 76.346 22.8807 75.605 23.1628C74.8751 23.4513 74.0998 23.6198 73.3115 23.6613Z" fill="#263238"/>
<path d="M94.8489 37.2468C94.8489 37.2468 99.2163 31.6375 101.882 33.1493C104.547 34.661 101.13 42.8764 97.9069 43.9221C97.5034 44.0832 97.07 44.1642 96.6329 44.1602C96.1958 44.1562 95.7641 44.0672 95.3638 43.8986C94.9635 43.7301 94.603 43.4854 94.304 43.1795C94.005 42.8735 93.7737 42.5126 93.624 42.1185L94.8489 37.2468Z" fill="#EB9481"/>
<path d="M100.842 35.4844C100.893 35.4844 100.901 35.5492 100.842 35.5654C98.5825 36.376 97.3407 38.3174 96.4495 40.352C97.138 39.5779 98.0588 39.1726 99.1401 39.9467C99.195 39.9913 99.1401 40.0764 99.0725 40.0602C98.6842 39.9286 98.2629 39.9156 97.8666 40.023C97.4703 40.1304 97.1184 40.353 96.8592 40.66C96.4311 41.1784 96.0602 41.738 95.7526 42.3299C95.6428 42.5204 95.2837 42.4069 95.3682 42.188L95.3893 42.1394C95.4569 39.4198 97.7758 35.6668 100.842 35.4844Z" fill="#263238"/>
<path d="M79.5122 57.921L84.0063 67.9725L96.796 54.9502L100.597 58.9748C100.597 58.9748 88.2512 79.4992 88.1541 78.5872L83.6304 69.9787L77.5059 76.1473L77.6875 60.9527L79.5122 57.921Z" fill="#DBDBDB"/>
<path d="M77.1465 68.6494C77.2648 66.1406 77.307 63.6116 77.5478 61.1109C77.5478 61.0258 77.6998 60.9812 77.7252 61.0866C78.2996 63.494 77.797 73.0834 77.8561 75.3774L77.8814 75.349C78.1391 75.0856 83.5667 69.914 83.6216 69.995C84.5888 71.3568 87.9045 77.6228 88.1326 78.1942C90.084 74.9518 97.5812 63.0766 99.9086 59.9842C99.9198 59.9643 99.9387 59.9495 99.9613 59.943C99.9839 59.9365 100.008 59.939 100.029 59.9497C100.05 59.9605 100.065 59.9787 100.072 60.0003C100.079 60.022 100.076 60.0453 100.065 60.0652C98.3542 63.5022 88.4409 79.4709 88.2847 79.4304C88.1791 79.5115 84.0609 71.7905 83.5582 70.3274C82.6417 71.446 77.1803 77.2702 77.1507 76.8973C76.9994 74.15 76.998 71.3969 77.1465 68.6494Z" fill="#263238"/>
<path d="M142.683 126.202C136.271 123.186 132.905 118.906 123.253 93.3725C121.914 89.8424 145.04 74.8341 146.67 78.5386C148.723 83.2036 156.562 101.43 156.892 102.856C159.658 114.793 147.037 128.228 142.683 126.202Z" fill="#EB9481"/>
<path d="M146.227 78.5719C146.227 78.5719 139.41 72.8977 137.378 70.4902C135.347 68.0828 126.967 59.2594 122.105 57.2329C116.922 55.0727 109.358 53.0583 107.9 55.5428C105.535 59.5715 115.643 62.133 116.893 63.515C119.334 66.2103 121.041 68.2165 121.75 70.7213C122.971 75.0255 122.113 79.7473 121.577 81.0726C119.465 86.3091 113.653 76.9467 110.354 75.4795C103.719 72.5248 102.921 78.8475 108.741 84.6433C113.108 88.9921 112.804 93.2032 118.092 96.2308C127.385 101.544 126.92 102.866 126.92 102.866L146.227 78.5719Z" fill="#EB9481"/>
<path d="M134.451 76.0749C133.412 72.3299 133.15 67.3367 130.696 64.0254C129.526 62.4487 123.625 57.9135 121.505 56.5881C118.62 54.7886 111.984 52.4743 111.245 54.4806C109.834 58.2904 117.12 60.9005 118.105 61.8124C119.025 62.6636 122.937 67.515 123.135 67.8919C123.519 68.5688 126.066 84.574 126.066 84.574L134.451 76.0749Z" fill="#EB9481"/>
<path d="M137.513 78.2917C136.669 74.4981 136.669 69.5008 134.379 66.076C133.294 64.4548 127.621 59.6398 125.581 58.2172C122.793 56.284 116.289 53.6617 115.444 55.6314C113.839 59.3683 120.981 62.3189 121.923 63.2754C122.798 64.167 126.455 69.2009 126.637 69.5616C126.983 70.2587 128.715 86.3612 128.715 86.3612L137.513 78.2917Z" fill="#EB9481"/>
<path d="M147.371 80.2822C145.876 74.0771 137.416 66.0522 134.886 63.3123C131.228 59.3485 122.92 54.8781 121.37 56.7303C118.442 60.1915 128.073 66.9762 128.33 67.6247C128.44 67.9044 129.986 73.1895 130.066 76.4805C130.104 77.8869 118.899 98.9908 133.403 101.848L147.371 80.2822Z" fill="#EB9481"/>
<path d="M111.271 54.4116C111.293 54.3792 111.352 54.3914 111.339 54.4116C110.773 56.1787 111.951 57.654 113.269 58.7564C113.955 59.3278 114.716 59.8102 115.533 60.1912C116.363 60.5304 117.162 60.9372 117.92 61.4071C119.394 62.4325 120.454 63.9524 121.544 65.3182C122.137 65.994 122.686 66.7046 123.187 67.446C123.593 68.1765 123.846 68.9767 123.93 69.8008C124.264 71.9408 124.23 72.6947 124.509 74.8427C124.506 74.8528 124.499 74.8616 124.491 74.8678C124.482 74.8741 124.471 74.8775 124.46 74.8775C124.449 74.8775 124.439 74.8741 124.43 74.8678C124.421 74.8616 124.415 74.8528 124.412 74.8427C124.2 72.9216 123.263 68.5728 122.747 67.7257C122.237 66.9612 121.673 66.2313 121.058 65.5411C119.939 64.1591 118.857 62.5379 117.299 61.5692C116.484 61.0626 115.542 60.7789 114.693 60.329C113.916 59.9239 113.205 59.4134 112.581 58.8132C111.508 57.7837 110.325 55.8869 111.271 54.4116Z" fill="#263238"/>
<path d="M115.891 55.1085C116.521 54.76 117.691 54.7721 118.603 55.141C118.637 55.141 118.658 55.1896 118.527 55.1612C117.602 54.9545 116.191 54.914 115.735 55.6516C115.531 56.0319 115.436 56.4569 115.458 56.8838C115.481 57.3108 115.62 57.7245 115.862 58.0834C116.393 58.841 117.075 59.491 117.868 59.9964L120.381 61.8608C121.205 62.4688 122.071 63.0038 122.704 63.8144C123.338 64.625 123.904 65.4356 124.487 66.2462C125.07 67.0568 125.728 67.916 126.299 68.7793C126.81 69.5493 126.89 70.4005 127.017 71.2719C127.181 72.4229 127.481 76.3259 127.591 76.9177C127.591 76.9785 127.502 76.9866 127.494 76.9177C127.38 75.7707 126.366 70.5788 126.282 70.0722C126.171 69.5513 125.937 69.0618 125.598 68.6415C124.943 67.7376 124.267 66.846 123.617 65.9381C122.966 65.0303 122.379 63.9562 121.505 63.251C120.63 62.5458 119.663 61.8892 118.738 61.2245C117.302 60.1869 115.304 59.048 115.042 57.1715C114.916 56.3325 115.101 55.5503 115.891 55.1085Z" fill="#263238"/>
<path d="M121.058 57.03C121.25 56.7355 121.525 56.4994 121.852 56.3491C122.152 56.2154 122.169 56.3005 122.105 56.3491C120.382 57.4678 121.307 59.2916 121.932 60.3089C122.602 61.3151 123.361 62.2642 124.2 63.146C125.067 64.1321 125.991 65.0711 126.967 65.9588C127.412 66.309 127.822 66.6984 128.192 67.122C128.494 67.5776 128.69 68.0905 128.766 68.6256C129.048 69.9577 129.329 71.2912 129.611 72.6259L130.033 74.5916C130.192 75.2143 130.28 75.8517 130.295 76.4925C130.266 77.7692 129.565 78.9 129.075 80.0551C128.555 81.271 128.074 82.5233 127.668 83.7879C127.208 85.2105 126.823 86.6574 126.515 88.1165C126.16 89.6124 125.944 91.1355 125.869 92.668C125.869 92.6798 125.864 92.6911 125.855 92.6995C125.846 92.7079 125.835 92.7126 125.822 92.7126C125.81 92.7126 125.798 92.7079 125.789 92.6995C125.781 92.6911 125.776 92.6798 125.776 92.668C125.873 91.3426 125.924 90.0173 126.08 88.696C126.238 87.3774 126.484 86.0697 126.815 84.7809C127.145 83.4916 127.554 82.2222 128.04 80.9791C128.276 80.3712 128.534 79.7633 128.813 79.1756C129.142 78.5666 129.424 77.9353 129.658 77.2869C130.033 76.0102 129.514 74.5714 129.235 73.3149C128.954 71.9802 128.672 70.6454 128.39 69.3106C128.322 68.6607 128.128 68.0287 127.82 67.4462C127.413 66.9626 126.949 66.5248 126.439 66.1412C125.497 65.286 124.589 64.3943 123.727 63.4621C122.186 61.7599 119.977 59.0525 121.058 57.03Z" fill="#263238"/>
<path d="M123.068 73.5136C124.247 74.5442 125.508 75.4847 126.84 76.3264C127.389 76.7109 127.901 77.1423 128.369 77.6153C128.79 78.0639 129.118 78.5852 129.336 79.1513C129.357 79.2081 129.269 79.2365 129.243 79.1838C128.937 78.5815 128.475 78.065 127.9 77.6842C127.364 77.2789 126.764 76.9789 126.189 76.6263C125.585 76.2885 125.034 75.8711 124.551 75.3861C123.997 74.8111 123.478 74.2062 122.996 73.5744C122.967 73.5136 123.026 73.4569 123.068 73.5136Z" fill="#263238"/>
<path d="M152.901 81.4531L124.048 106.833C124.048 106.833 135.921 125.959 142.764 126.664C149.125 127.317 159.823 115.279 157.424 102.261L152.901 81.4531Z" fill="#455A64"/>
<path d="M138.117 94.4345L137.323 95.1316H137.45C137.645 95.1316 137.835 95.1871 137.997 95.2911C138.159 95.395 138.285 95.5428 138.36 95.7156C138.434 95.8883 138.453 96.0784 138.415 96.2617C138.377 96.445 138.282 96.6133 138.144 96.7452C138.006 96.8771 137.831 96.9667 137.639 97.0027C137.448 97.0387 137.25 97.0194 137.07 96.9473C136.891 96.8752 136.737 96.7535 136.63 96.5977C136.522 96.4419 136.465 96.2589 136.466 96.0719C136.466 96.0066 136.473 95.9414 136.487 95.8774L135.697 96.5705C135.785 96.8561 135.947 97.1156 136.169 97.3244C136.39 97.5332 136.663 97.6845 136.963 97.7641C137.262 97.8437 137.577 97.8488 137.879 97.7791C138.181 97.7094 138.459 97.5672 138.688 97.3657C138.916 97.1643 139.088 96.9103 139.186 96.6277C139.284 96.3451 139.306 96.0431 139.249 95.7503C139.192 95.4575 139.058 95.1835 138.86 94.954C138.662 94.7245 138.406 94.5471 138.117 94.4386V94.4345ZM155.857 94.9938C155.69 94.7781 155.472 94.603 155.221 94.4826C154.97 94.3623 154.693 94.3 154.413 94.3008C154.07 94.2998 153.733 94.3914 153.442 94.5652C153.15 94.7389 152.916 94.9879 152.765 95.2835C152.614 95.5791 152.553 95.9095 152.588 96.237C152.623 96.5644 152.754 96.8757 152.965 97.1353C153.176 97.3949 153.459 97.5922 153.782 97.7048C154.104 97.8174 154.453 97.8407 154.788 97.7721C155.124 97.7035 155.433 97.5457 155.679 97.3167C155.926 97.0877 156.1 96.7968 156.183 96.4772L155.857 94.9938ZM154.387 97.0203C154.193 97.0211 154.002 96.9664 153.84 96.8632C153.677 96.7599 153.55 96.6127 153.475 96.4402C153.4 96.2677 153.38 96.0777 153.417 95.8943C153.455 95.7108 153.548 95.5422 153.686 95.4097C153.823 95.2772 153.999 95.1869 154.19 95.1501C154.381 95.1133 154.579 95.1318 154.759 95.2032C154.939 95.2745 155.093 95.3955 155.201 95.5509C155.31 95.7063 155.367 95.8891 155.367 96.076C155.367 96.3258 155.264 96.5653 155.081 96.7423C154.897 96.9193 154.648 97.0193 154.387 97.0203ZM137.463 117.804C137.101 117.803 136.746 117.906 136.445 118.098C136.144 118.291 135.909 118.565 135.77 118.886C135.631 119.206 135.594 119.56 135.664 119.9C135.735 120.241 135.909 120.554 136.165 120.8C136.421 121.046 136.748 121.213 137.103 121.28C137.458 121.348 137.826 121.313 138.16 121.18C138.495 121.046 138.78 120.821 138.981 120.531C139.182 120.242 139.288 119.902 139.287 119.555C139.288 119.324 139.242 119.095 139.151 118.882C139.06 118.668 138.926 118.474 138.756 118.31C138.587 118.146 138.385 118.016 138.163 117.927C137.941 117.838 137.703 117.792 137.463 117.792V117.804ZM137.463 120.499C137.268 120.5 137.077 120.445 136.915 120.342C136.752 120.239 136.626 120.092 136.55 119.919C136.475 119.747 136.455 119.557 136.493 119.373C136.53 119.19 136.624 119.021 136.761 118.889C136.899 118.756 137.074 118.666 137.265 118.629C137.456 118.592 137.654 118.611 137.834 118.682C138.014 118.753 138.168 118.875 138.276 119.03C138.385 119.185 138.443 119.368 138.443 119.555C138.439 119.803 138.335 120.039 138.151 120.213C137.968 120.388 137.721 120.486 137.463 120.487V120.499ZM154.387 117.804C154.07 117.803 153.757 117.881 153.481 118.031C153.205 118.182 152.974 118.399 152.812 118.661C152.65 118.923 152.563 119.221 152.558 119.526C152.554 119.831 152.633 120.131 152.787 120.398C152.998 120.122 153.209 119.839 153.403 119.547C153.405 119.372 153.458 119.201 153.556 119.054C153.653 118.906 153.792 118.788 153.957 118.712C154.142 118.416 154.328 118.116 154.501 117.808L154.387 117.804ZM128.998 106.545C128.636 106.544 128.282 106.646 127.98 106.839C127.679 107.031 127.444 107.306 127.305 107.626C127.166 107.947 127.13 108.3 127.2 108.641C127.27 108.982 127.445 109.295 127.701 109.541C127.957 109.786 128.283 109.954 128.638 110.021C128.993 110.089 129.361 110.054 129.696 109.92C130.03 109.787 130.316 109.561 130.516 109.272C130.717 108.983 130.824 108.643 130.823 108.296C130.824 108.065 130.778 107.836 130.686 107.623C130.595 107.409 130.461 107.215 130.292 107.051C130.122 106.887 129.921 106.757 129.699 106.668C129.477 106.579 129.239 106.533 128.998 106.533V106.545ZM128.998 109.24C128.803 109.241 128.613 109.186 128.45 109.083C128.288 108.98 128.161 108.832 128.086 108.66C128.011 108.487 127.991 108.297 128.028 108.114C128.066 107.931 128.159 107.762 128.297 107.629C128.434 107.497 128.609 107.407 128.8 107.37C128.991 107.333 129.19 107.352 129.37 107.423C129.55 107.494 129.704 107.615 129.812 107.771C129.92 107.926 129.978 108.109 129.978 108.296C129.976 108.544 129.872 108.781 129.688 108.955C129.505 109.13 129.257 109.228 128.998 109.228V109.24ZM145.923 106.545C145.561 106.545 145.207 106.648 144.906 106.841C144.606 107.034 144.371 107.308 144.233 107.629C144.095 107.95 144.059 108.303 144.129 108.644C144.2 108.984 144.375 109.297 144.631 109.542C144.887 109.787 145.214 109.954 145.569 110.022C145.924 110.089 146.292 110.053 146.626 109.92C146.96 109.787 147.245 109.561 147.446 109.272C147.646 108.983 147.753 108.643 147.752 108.296C147.753 108.065 147.706 107.836 147.615 107.622C147.524 107.408 147.389 107.213 147.219 107.05C147.049 106.886 146.847 106.756 146.625 106.667C146.402 106.578 146.164 106.533 145.923 106.533V106.545ZM145.923 109.24C145.728 109.24 145.538 109.185 145.376 109.081C145.214 108.977 145.088 108.83 145.014 108.657C144.939 108.485 144.92 108.295 144.958 108.112C144.996 107.928 145.089 107.76 145.227 107.628C145.365 107.496 145.54 107.406 145.731 107.37C145.922 107.333 146.12 107.352 146.3 107.423C146.479 107.495 146.633 107.616 146.741 107.771C146.849 107.926 146.907 108.109 146.907 108.296C146.905 108.544 146.8 108.782 146.616 108.957C146.431 109.132 146.182 109.229 145.923 109.228V109.24Z" fill="#37474F"/>
<path d="M131.11 113.184C134.109 110.541 136.977 107.745 139.836 104.944C142.696 102.144 145.568 99.343 148.368 96.4694C149.952 94.8482 151.54 93.227 153.074 91.5572C153.112 91.5167 153.074 91.4397 153.01 91.4802C150.02 94.1187 147.135 96.9031 144.263 99.6835C141.391 102.464 138.54 105.285 135.697 108.126C134.1 109.747 132.525 111.368 130.992 113.038C130.937 113.119 131.025 113.261 131.11 113.184Z" fill="#263238"/>
<path d="M127.06 104.174C126.139 105.147 125.185 106.091 124.217 107.011L124.268 106.695C125.197 108.098 126.135 109.504 127.094 110.89C129.962 115.057 132.868 119.199 136.327 122.948C132.272 119.738 129.214 115.531 126.414 111.308C125.459 109.82 124.538 108.312 123.702 106.756C124.8 105.868 125.911 104.997 127.06 104.162V104.174Z" fill="#263238"/>
<path d="M129.441 115.522C130.666 117.399 131.853 119.243 132.901 121.221C131.348 119.572 130.17 117.632 129.441 115.522Z" fill="#263238"/>
<path d="M125.435 95.1019C127.614 75.6345 112.934 58.1582 92.6463 56.0674C72.3585 53.9766 54.1456 68.0631 51.9667 87.5305C49.7878 106.998 64.468 124.474 84.7558 126.565C105.044 128.656 123.256 114.569 125.435 95.1019Z" fill="#907ECF"/>
<path d="M88.7005 123.527C80.137 123.534 71.8944 120.401 65.6578 114.77C59.4211 109.139 55.6615 101.435 55.1475 93.2323C54.6335 85.0299 57.404 76.9489 62.8925 70.6414C68.381 64.3338 76.1731 60.2761 84.6756 59.2977C93.1782 58.3194 101.749 60.4943 108.636 65.3779C115.523 70.2614 120.206 77.4848 121.728 85.5712C123.249 93.6576 121.495 101.996 116.822 108.883C112.15 115.769 104.913 120.683 96.5906 122.619C94.0072 123.22 91.3587 123.525 88.7005 123.527ZM88.7005 59.8953C81.8967 59.8944 75.2619 61.9285 69.7189 65.7143C64.1759 69.5002 60.0004 74.8497 57.7733 81.0187C55.5462 87.1876 55.3782 93.8693 57.2927 100.134C59.2072 106.399 63.109 111.935 68.4553 115.973C73.8015 120.011 80.3265 122.35 87.1224 122.664C93.9183 122.978 100.647 121.252 106.373 117.725C112.099 114.199 116.537 109.048 119.07 102.989C121.603 96.9293 122.105 90.2631 120.506 83.9173C118.766 77.0794 114.687 70.9985 108.921 66.6468C103.156 62.295 96.036 59.9236 88.7005 59.9115V59.8953Z" fill="white"/>
<path d="M116.53 87.042H60.8691V95.5857H116.53V87.042Z" fill="white"/>
</svg>
