<svg width="112" height="83" viewBox="0 0 112 83" fill="none" xmlns="http://www.w3.org/2000/svg">
<path d="M111.391 72.939H0V72.9947H111.391V72.939Z" fill="#EBEBEB"/>
<path d="M100.23 76.5234H92.8513V76.5791H100.23V76.5234Z" fill="#EBEBEB"/>
<path d="M73.7902 77.1299H71.8542V77.1856H73.7902V77.1299Z" fill="#EBEBEB"/>
<path d="M92.6287 74.4565H88.3535V74.5122H92.6287V74.4565Z" fill="#EBEBEB"/>
<path d="M21.3092 74.8306H11.6873V74.8863H21.3092V74.8306Z" fill="#EBEBEB"/>
<path d="M24.7044 74.8306H23.2942V74.8863H24.7044V74.8306Z" fill="#EBEBEB"/>
<path d="M50.1596 75.771H29.2893V75.8267H50.1596V75.771Z" fill="#EBEBEB"/>
<path d="M52.7997 63.003H9.78256C9.44556 63.0024 9.12258 62.8681 8.88449 62.6296C8.64641 62.3911 8.51269 62.0679 8.5127 61.7309V1.26095C8.51563 0.925891 8.65064 0.605519 8.88841 0.369423C9.12617 0.133326 9.44749 0.000573975 9.78256 0H52.7997C53.1371 0 53.4607 0.134023 53.6992 0.372587C53.9378 0.61115 54.0718 0.934711 54.0718 1.27209V61.7309C54.0718 62.0683 53.9378 62.3919 53.6992 62.6304C53.4607 62.869 53.1371 63.003 52.7997 63.003ZM9.78256 0.0445568C9.46034 0.0451469 9.15151 0.173562 8.92388 0.401617C8.69624 0.629671 8.56839 0.938729 8.56839 1.26095V61.7309C8.56839 62.0531 8.69624 62.3622 8.92388 62.5902C9.15151 62.8183 9.46034 62.9467 9.78256 62.9473H52.7997C53.1221 62.9467 53.4312 62.8184 53.6592 62.5904C53.8872 62.3624 54.0155 62.0533 54.0161 61.7309V1.26095C54.0155 0.938524 53.8872 0.629471 53.6592 0.401481C53.4312 0.17349 53.1221 0.0451457 52.7997 0.0445568H9.78256Z" fill="#EBEBEB"/>
<path d="M100.99 63.003H57.9703C57.6331 63.0024 57.3099 62.8682 57.0715 62.6298C56.833 62.3913 56.6988 62.0681 56.6982 61.7309V1.26095C56.7018 0.925688 56.8373 0.605318 57.0754 0.369283C57.3135 0.133248 57.635 0.000567715 57.9703 0H100.99C101.324 0.00115947 101.645 0.134171 101.882 0.370205C102.12 0.606238 102.254 0.926276 102.257 1.26095V61.7309C102.257 62.0675 102.124 62.3904 101.886 62.6288C101.649 62.8673 101.326 63.0018 100.99 63.003ZM57.9703 0.0445568C57.6479 0.0451457 57.3389 0.17349 57.1109 0.401481C56.8829 0.629471 56.7545 0.938524 56.7539 1.26095V61.7309C56.7545 62.0533 56.8829 62.3624 57.1109 62.5904C57.3389 62.8184 57.6479 62.9467 57.9703 62.9473H100.99C101.312 62.9467 101.621 62.8184 101.849 62.5904C102.077 62.3624 102.206 62.0533 102.206 61.7309V1.26095C102.206 0.938524 102.077 0.629471 101.849 0.401481C101.621 0.17349 101.312 0.0451457 100.99 0.0445568H57.9703Z" fill="#EBEBEB"/>
<path d="M58.7769 48.9309C64.1292 48.0621 67.7637 43.0189 66.8949 37.6666C66.0261 32.3143 60.983 28.6797 55.6307 29.5485C50.2784 30.4173 46.6438 35.4605 47.5126 40.8128C48.3814 46.1651 53.4246 49.7997 58.7769 48.9309Z" fill="#F0F0F0"/>
<path d="M59.7058 45.0021C61.5615 43.5161 67.0576 43.4426 69.6552 45.6704C72.2529 47.8982 75.8196 51.5363 77.0828 51.9818C78.346 52.4274 82.5521 50.7944 85.9451 50.4224C89.3381 50.0503 90.6726 53.5413 91.9335 55.4729C93.1945 57.4044 94.5334 57.4779 95.1282 60.002C95.7231 62.5262 96.8348 64.3842 98.5435 66.4627C100.252 68.5413 105.227 71.364 105.746 72.939H50.9415L50.3489 51.4628C51.8237 49.9768 57.8388 46.488 59.7058 45.0021Z" fill="#EBEBEB"/>
<path d="M15.8779 53.5413C17.0297 52.3784 20.7524 51.612 22.8844 47.0071C25.0164 42.4021 32.0185 32.8225 34.6919 31.4969C37.3653 30.1714 40.3216 24.3679 41.391 23.5413C42.4603 22.7148 43.8416 24.9516 44.2114 26.2883C45.1738 29.6879 49.781 39.3589 52.5212 41.2147C55.2614 43.0705 55.453 47.0806 56.2172 49.3842C56.9813 51.6877 61.6664 53.0222 62.7313 55.9919C63.7962 58.9616 75.6528 72.939 75.6528 72.939H4.90137C8.42579 70.3792 11.4423 58.0214 15.8779 53.5413Z" fill="#F5F5F5"/>
<path d="M41.5023 26.7338C41.5023 27.8767 41.157 33.17 39.9673 34.4577C38.7776 35.7454 39.8269 32.8737 37.8174 34.4577C35.8079 36.0417 34.9213 39.3077 31.5506 40.4484C28.1799 41.589 28.4828 38.7151 30.1158 37.0799C31.7488 35.4447 33.6804 32.5752 35.2176 31.7331C36.7548 30.891 41.5023 23.2183 41.5023 26.7338Z" fill="#F0F0F0"/>
<path d="M33.1947 50.3978C34.7965 48.1833 27.6006 50.7453 25.4218 49.9522C23.243 49.1591 24.9272 48.0719 21.757 50.8433C18.5868 53.6147 13.0952 56.2904 16.0649 57.2305C19.0346 58.1707 30.2139 54.5081 33.1947 50.3978Z" fill="#F0F0F0"/>
<path d="M74.2134 51.5009C72.9836 50.0305 71.5779 47.268 69.7577 46.7845C67.9376 46.3011 66.7145 46.0048 67.0844 47.1187C67.4542 48.2326 76.1293 53.7866 74.2134 51.5009Z" fill="#F0F0F0"/>
<path d="M94.1414 59.4093C93.8251 58.3778 92.8537 58.4068 92.0005 56.7715C91.1472 55.1363 89.884 52.3538 87.8032 52.2424C85.7224 52.131 82.4297 52.9486 85.2056 55.0272C87.9815 57.1057 95.242 63.0095 94.1414 59.4093Z" fill="#F0F0F0"/>
<path d="M90.1157 12.1305H47.787C42.4402 12.1305 57.4402 11.0166 65.6831 9.16084C73.9261 7.30506 74.5945 6.71022 77.3414 8.71527C80.0883 10.7203 88.2577 6.26466 92.1943 8.93805C96.1309 11.6114 97.169 12.1305 90.1157 12.1305Z" fill="#FAFAFA"/>
<path d="M31.4458 19.2949C36.7258 19.2949 46.8022 18.865 42.761 17.0849C38.7197 15.3049 35.7277 18.8672 33.9633 17.3545C32.1988 15.8418 29.3427 15.6301 26.9723 17.0849C24.6019 18.5397 25.3059 16.2762 22.4476 17.0849C18.4375 18.2189 5.59631 19.2949 16.526 19.2949H31.4458Z" fill="#FAFAFA"/>
<path d="M76.0203 38.4545C80.0527 38.4545 87.7454 38.1248 84.6598 36.7681C81.5743 35.4113 79.2907 38.1248 77.9451 36.973C76.5995 35.8213 74.4163 35.6564 72.5983 36.7681C70.7804 37.8798 71.3263 36.151 69.143 36.7681C66.0886 37.6325 56.2795 38.4545 64.6227 38.4545H76.0203Z" fill="#FAFAFA"/>
<path d="M55.6959 82.9999C79.552 82.9999 98.8913 81.8708 98.8913 80.478C98.8913 79.0851 79.552 77.9561 55.6959 77.9561C31.8397 77.9561 12.5005 79.0851 12.5005 80.478C12.5005 81.8708 31.8397 82.9999 55.6959 82.9999Z" fill="#F5F5F5"/>
<path d="M52.5903 80.0018C55.3818 80.0018 57.6452 75.5194 57.6452 69.9899C57.6452 64.4604 55.3818 59.978 52.5903 59.978H46.1162V80.0018H52.5903Z" fill="#263238"/>
<path d="M46.0825 80.0018C48.8743 80.0018 51.1375 75.5193 51.1375 69.9899C51.1375 64.4605 48.8743 59.978 46.0825 59.978C43.2908 59.978 41.0276 64.4605 41.0276 69.9899C41.0276 75.5193 43.2908 80.0018 46.0825 80.0018Z" fill="#263238"/>
<path d="M89.6546 80.0018C92.4461 80.0018 94.7074 75.5194 94.7074 69.9899C94.7074 64.4604 92.455 59.978 89.6546 59.978H83.1694V80.0018H89.6546Z" fill="#263238"/>
<path d="M83.1448 80.0018C85.9366 80.0018 88.1997 75.5193 88.1997 69.9899C88.1997 64.4605 85.9366 59.978 83.1448 59.978C80.353 59.978 78.0898 64.4605 78.0898 69.9899C78.0898 75.5193 80.353 80.0018 83.1448 80.0018Z" fill="#263238"/>
<path d="M19.4579 74.96L15.9959 74.1067C15.41 73.9633 14.8627 73.6933 14.3924 73.3158C13.9221 72.9382 13.5401 72.4622 13.2734 71.9212C13.0373 71.4438 12.7113 71.0164 12.3133 70.6625L11.4622 69.9051C10.9762 69.4723 10.5991 68.9311 10.3614 68.3253C10.1237 67.7196 10.0322 67.0663 10.0943 66.4185L10.5622 61.5173C10.6406 60.6955 10.9629 59.916 11.4877 59.2789C12.0125 58.6417 12.7159 58.176 13.5074 57.9416L15.9825 57.2109L24.9116 56.5737L19.4579 74.96Z" fill="#90CAF9"/>
<path d="M27.0079 80.0018C29.7994 80.0018 32.0628 75.5194 32.0628 69.9899C32.0628 64.4604 29.7994 59.978 27.0079 59.978H20.5249V80.0018H27.0079Z" fill="#263238"/>
<path d="M20.5005 80.0018C23.2923 80.0018 25.5554 75.5193 25.5554 69.9899C25.5554 64.4605 23.2923 59.978 20.5005 59.978C17.7087 59.978 15.4456 64.4605 15.4456 69.9899C15.4456 75.5193 17.7087 80.0018 20.5005 80.0018Z" fill="#263238"/>
<path d="M20.5006 77.9032C22.4594 77.9032 24.0473 74.3603 24.0473 69.9899C24.0473 65.6195 22.4594 62.0767 20.5006 62.0767C18.5418 62.0767 16.9539 65.6195 16.9539 69.9899C16.9539 74.3603 18.5418 77.9032 20.5006 77.9032Z" fill="#90CAF9"/>
<path d="M71.7917 74.9601L80.5203 55.4532C80.5203 55.4532 67.4608 45.731 50.8902 45.731C24.0337 45.731 24.9561 49.3512 15.969 57.211L19.8922 59.9779C26.872 59.9779 27.4535 71.0413 28.5696 74.1536C28.653 74.3895 28.8075 74.5937 29.0117 74.7381C29.216 74.8826 29.4601 74.9601 29.7102 74.9601H71.7917Z" fill="#90CAF9"/>
<path d="M64.0724 80.0018C66.8638 80.0018 69.1251 75.5194 69.1251 69.9899C69.1251 64.4604 66.8638 59.978 64.0724 59.978H57.5872V80.0018H64.0724Z" fill="#263238"/>
<path d="M57.5628 80.0018C60.3545 80.0018 62.6177 75.5193 62.6177 69.9899C62.6177 64.4605 60.3545 59.978 57.5628 59.978C54.771 59.978 52.5078 64.4605 52.5078 69.9899C52.5078 75.5193 54.771 80.0018 57.5628 80.0018Z" fill="#263238"/>
<path d="M57.5628 77.9032C59.5216 77.9032 61.1095 74.3603 61.1095 69.9899C61.1095 65.6195 59.5216 62.0767 57.5628 62.0767C55.604 62.0767 54.0161 65.6195 54.0161 69.9899C54.0161 74.3603 55.604 77.9032 57.5628 77.9032Z" fill="#90CAF9"/>
<path d="M66.5832 73.3491C65.779 69.6955 61.9338 59.9821 57.3244 59.9821L52.3296 55.4463H80.5205C82.4721 55.4463 91.1406 56.6449 96.053 59.971C100.021 62.6578 100.509 66.7369 101.079 72.6964C101.197 73.9128 100.132 74.9576 98.7865 74.9598C87.4914 74.9598 73.8215 75.0022 68.8445 75.0178C67.7462 75.0289 66.7993 74.3271 66.5832 73.3491Z" fill="#90CAF9"/>
<path opacity="0.8" d="M78.482 55.4532H60.1047C59.6796 55.4549 59.2606 55.3524 58.8842 55.1547C58.5079 54.9571 58.1857 54.6702 57.9459 54.3192C55.9008 51.2894 52.2805 48.2194 49.6272 46.7646C68.2073 46.7646 78.482 55.4532 78.482 55.4532Z" fill="white"/>
<path opacity="0.8" d="M49.1726 47.6757C51.4004 49.2887 53.9357 51.7883 55.3593 54.2723C55.4282 54.3908 55.4649 54.5253 55.4656 54.6624C55.4664 54.7994 55.4312 54.9343 55.3636 55.0536C55.296 55.1728 55.1983 55.2722 55.0802 55.3419C54.9622 55.4116 54.828 55.4492 54.6909 55.4508H24.5729C21.3782 55.4508 22.4386 47.493 39.1273 46.896C40.7001 46.7601 44.3671 46.7556 46.3945 46.7645C47.3931 46.77 48.3648 47.0887 49.1726 47.6757Z" fill="white"/>
<path d="M69.7691 70.6223L79.4222 71.3508C79.5727 71.3621 79.7134 71.4299 79.8159 71.5407C79.9184 71.6514 79.9752 71.7969 79.9747 71.9479V72.6162C79.9747 72.7746 79.9118 72.9264 79.7999 73.0384C79.6879 73.1504 79.536 73.2133 79.3777 73.2133H69.7312C69.5726 73.2133 69.4205 73.1504 69.3082 73.0385C69.1959 72.9266 69.1325 72.7748 69.1319 72.6162V71.2283C69.1308 71.1457 69.1468 71.0638 69.1788 70.9877C69.2109 70.9117 69.2583 70.843 69.3181 70.7861C69.378 70.7292 69.4489 70.6853 69.5265 70.6571C69.6041 70.6289 69.6867 70.6171 69.7691 70.6223Z" fill="#263238"/>
<path d="M100.453 70.7562L97.8018 71.2909C97.6661 71.3177 97.544 71.3908 97.4562 71.4977C97.3685 71.6045 97.3205 71.7385 97.3206 71.8768V72.6008C97.3206 72.6794 97.3361 72.7573 97.3662 72.8298C97.3964 72.9024 97.4405 72.9683 97.4962 73.0238C97.5519 73.0793 97.618 73.1232 97.6907 73.1531C97.7634 73.183 97.8412 73.1982 97.9198 73.1979H100.727C100.812 73.1982 100.895 73.1805 100.972 73.146C101.05 73.1115 101.119 73.061 101.175 72.9978C101.231 72.9346 101.273 72.8602 101.299 72.7794C101.324 72.6987 101.332 72.6135 101.322 72.5296L101.172 71.2731C101.163 71.1902 101.136 71.1103 101.094 71.0385C101.051 70.9666 100.995 70.9044 100.927 70.8557C100.859 70.8071 100.782 70.7731 100.7 70.756C100.619 70.7388 100.534 70.7389 100.453 70.7562Z" fill="#263238"/>
<path opacity="0.8" d="M77.7134 59.3898L64.235 58.7349C64.235 58.7349 64.0969 61.1231 69.0917 61.631C72.1388 61.9103 75.1879 61.1177 77.7134 59.3898Z" fill="white"/>
<path opacity="0.3" d="M10.5598 61.515C10.5975 61.1234 10.6913 60.7393 10.8383 60.3744L11.7517 60.3477C11.7517 60.3477 11.7941 63.852 10.4707 63.6315C10.4336 63.6257 10.3971 63.6168 10.3616 63.6047L10.5598 61.515Z" fill="black"/>
<path opacity="0.8" d="M94.7252 59.1758C95.1802 59.4199 95.6226 59.6869 96.0508 59.9756C96.702 60.4117 97.2968 60.9265 97.8219 61.5083C97.6336 61.5619 97.4424 61.605 97.2493 61.6375C94.2574 62.1522 92.083 59.3897 92.083 59.3897L94.7252 59.1758Z" fill="white"/>
<path d="M81.8882 63.1549H91.4256C91.7599 63.1568 92.0857 63.2609 92.359 63.4534L94.0254 64.623C94.2146 64.7541 94.3746 64.9229 94.4954 65.1189C94.6161 65.3148 94.6951 65.5336 94.7272 65.7614L95.1527 68.9183C95.1845 69.1226 95.1713 69.3313 95.1141 69.53C95.0569 69.7287 94.9571 69.9125 94.8216 70.0686C94.686 70.2247 94.5181 70.3493 94.3294 70.4339C94.1407 70.5184 93.9359 70.5607 93.7292 70.558H83.5302C83.2252 70.5538 82.9271 70.4665 82.6681 70.3055C82.409 70.1446 82.1987 69.9161 82.0598 69.6445L80.155 65.9308C80.0176 65.6777 79.9559 65.3904 79.9773 65.1033C79.9986 64.8161 80.102 64.5411 80.2753 64.3111L80.752 63.6985C80.887 63.5268 81.0597 63.3884 81.2568 63.2942C81.4538 63.1999 81.6698 63.1523 81.8882 63.1549Z" fill="#263238"/>
<path opacity="0.1" d="M31.6131 70.8565H50.2645C50.3263 70.8562 50.3875 70.8689 50.4442 70.8936C50.5009 70.9183 50.5518 70.9546 50.5937 71.0001C50.6356 71.0455 50.6676 71.0992 50.6876 71.1577C50.7077 71.2163 50.7153 71.2783 50.71 71.3399L50.6142 72.4249C50.6042 72.5359 50.5529 72.6392 50.4704 72.7143C50.3879 72.7894 50.2802 72.8308 50.1687 72.8303H31.515C31.4532 72.8305 31.392 72.8179 31.3353 72.7932C31.2786 72.7685 31.2277 72.7322 31.1858 72.6867C31.1439 72.6413 31.1119 72.5876 31.0919 72.5291C31.0719 72.4705 31.0642 72.4085 31.0695 72.3469L31.1653 71.2597C31.1759 71.1486 31.2278 71.0456 31.3107 70.9709C31.3936 70.8962 31.5015 70.8554 31.6131 70.8565Z" fill="black"/>
<path d="M37.559 46.7649L38.6751 46.5488L36.3916 56.5741H35.3223L37.559 46.7649Z" fill="#90CAF9"/>
<path d="M41.6336 57.7012H37.8129L37.7149 58.1022C37.6849 58.1903 37.677 58.2843 37.6918 58.3761C37.7066 58.468 37.7436 58.5548 37.7996 58.629C37.8556 58.7033 37.929 58.7627 38.0132 58.8021C38.0974 58.8415 38.19 58.8598 38.2829 58.8552H40.5932C40.8093 58.845 41.0167 58.7667 41.1856 58.6314C41.3545 58.4961 41.4762 58.3109 41.5333 58.1022L41.6336 57.7012Z" fill="#263238"/>
<path d="M28.4917 57.7012H24.6732L24.5752 58.1022C24.5453 58.1903 24.5374 58.2843 24.5522 58.3761C24.5669 58.468 24.6039 58.5548 24.66 58.629C24.716 58.7033 24.7893 58.7627 24.8735 58.8021C24.9578 58.8415 25.0504 58.8598 25.1433 58.8552H27.4536C27.6697 58.845 27.8771 58.7667 28.0459 58.6314C28.2148 58.4961 28.3366 58.3109 28.3937 58.1022L28.4917 57.7012Z" fill="#263238"/>
<path opacity="0.1" d="M35.9707 69.5598C35.9374 69.5598 35.9054 69.5467 35.8817 69.5234C35.8579 69.5001 35.8443 69.4684 35.8437 69.4351L35.563 56.3087C35.5629 56.275 35.5759 56.2425 35.5991 56.218C35.6223 56.1936 35.6541 56.179 35.6877 56.1772C35.721 56.1772 35.753 56.1903 35.7768 56.2136C35.8005 56.237 35.8141 56.2687 35.8147 56.302L36.091 69.4306C36.091 69.4641 36.078 69.4963 36.0547 69.5204C36.0314 69.5445 35.9997 69.5587 35.9662 69.5598H35.9707Z" fill="black"/>
<path d="M43.5318 79.1283L42.2152 79.1083L41.8364 76.0562L43.1531 76.0762L43.5318 79.1283Z" fill="#FF8B7B"/>
<path d="M35.5182 79.0969L34.3152 78.4263L35.213 75.5947L36.416 76.2653L35.5182 79.0969Z" fill="#FF8B7B"/>
<path d="M34.2015 78.2683L35.5961 79.0614C35.6189 79.0737 35.6367 79.0936 35.6465 79.1176C35.6563 79.1415 35.6574 79.1682 35.6496 79.1929L35.2976 80.3402C35.289 80.3681 35.2741 80.3936 35.2541 80.4149C35.2342 80.4361 35.2096 80.4526 35.1823 80.4629C35.155 80.4732 35.1257 80.4771 35.0967 80.4744C35.0676 80.4717 35.0396 80.4624 35.0147 80.4472C34.5691 80.1865 34.2572 79.9726 33.6913 79.6518C33.3438 79.4558 32.2744 78.8966 31.7955 78.6248C31.3165 78.353 31.5214 77.8406 31.742 77.9097C32.7334 78.2171 33.5488 78.3285 33.9698 78.2349C34.0485 78.2167 34.1312 78.2286 34.2015 78.2683Z" fill="#263238"/>
<path d="M42.1885 78.9566L43.6254 78.9788C43.6517 78.9788 43.6772 78.9879 43.6975 79.0046C43.7178 79.0213 43.7317 79.0444 43.7368 79.0702L43.9774 80.2442C43.9824 80.2719 43.9812 80.3004 43.9738 80.3276C43.9663 80.3547 43.953 80.3799 43.9346 80.4012C43.9163 80.4225 43.8934 80.4395 43.8677 80.4509C43.8419 80.4623 43.814 80.4678 43.7858 80.467C43.2668 80.4514 42.5182 80.4091 41.8677 80.398C41.1058 80.3868 40.4463 80.418 39.553 80.398C39.0138 80.398 38.8846 79.841 39.1074 79.7942C40.1411 79.5848 40.981 79.5714 41.8788 79.039C41.9728 78.9842 42.0797 78.9558 42.1885 78.9566Z" fill="#263238"/>
<path d="M41.5667 40.5308C40.8121 41.1483 40.0253 41.7254 39.2097 42.2596C38.7998 42.5247 38.3831 42.7876 37.9398 43.0282C37.4764 43.2908 36.9893 43.5094 36.485 43.681C36.3346 43.729 36.1813 43.7677 36.0261 43.7968C35.9414 43.8124 35.8434 43.8236 35.7499 43.8325C35.6438 43.8413 35.5373 43.8413 35.4313 43.8325C35.1977 43.8135 34.9704 43.7476 34.7629 43.6387C34.5645 43.5329 34.3877 43.3908 34.2416 43.2198C34.0164 42.9493 33.8509 42.6342 33.7559 42.2953C33.679 42.0214 33.6275 41.741 33.6022 41.4576C33.535 40.4439 33.632 39.4261 33.8896 38.4434L34.8676 38.5793C34.8631 39.4643 34.9497 40.3475 35.1261 41.2148C35.1679 41.3981 35.2268 41.5771 35.3021 41.7495C35.3459 41.8651 35.4152 41.9694 35.5048 42.0547C35.5315 42.0725 35.5427 42.0703 35.5449 42.0547C35.5471 42.0391 35.5449 42.0435 35.5449 42.0391C35.6578 42.0143 35.7681 41.9793 35.8746 41.9344C36.2543 41.7704 36.6202 41.576 36.9685 41.3529C37.3428 41.1301 37.7193 40.8695 38.0824 40.6066C38.8265 40.0853 39.5773 39.5239 40.2924 38.9714L41.5667 40.5308Z" fill="#FF8B7B"/>
<path d="M41.9678 39.9251C41.3685 41.2774 39.0583 42.6764 37.7773 43.2668C37.3985 43.4406 37.4475 43.9485 37.2225 43.728C37.2225 43.728 36.2356 41.9167 36.2356 41.5469C36.2356 41.1771 36.5631 41.3977 36.8304 41.1481C37.7929 40.257 39.8068 38.2988 41.0633 38.0827C42.7074 37.793 42.5292 38.6641 41.9678 39.9251Z" fill="#90CAF9"/>
<path d="M36.3735 41.3064C36.2466 41.1193 35.7208 41.6094 35.5537 41.8144C35.3866 42.0193 35.8456 42.7634 35.9837 43.1511C36.1218 43.5387 35.85 43.9509 36.2733 44.011C36.4961 44.0422 37.131 43.9598 37.2535 43.7882C37.5409 43.4206 36.6788 41.7565 36.3735 41.3064Z" fill="#263238"/>
<path opacity="0.2" d="M39.3967 42.3755C40.475 41.696 41.58 40.8004 41.9699 39.9249C41.9944 39.8647 42.0233 39.809 42.0456 39.7511L42.0679 39.5283C40.6042 39.7778 39.6106 41.2571 39.3967 42.3755Z" fill="black"/>
<path d="M34.6785 38.9872L35.5273 37.7285L34.1416 37.1626C34.1416 37.1626 33.3574 38.0537 33.9188 38.8312L34.6785 38.9872Z" fill="#FF8B7B"/>
<path d="M35.8835 36.3607L34.6092 36.3184L34.1414 37.1516L35.5271 37.7174L35.8835 36.3607Z" fill="#FF8B7B"/>
<path opacity="0.2" d="M41.8364 76.0562L42.0325 77.629L43.3491 77.6513L43.1531 76.0784L41.8364 76.0562Z" fill="black"/>
<path opacity="0.2" d="M36.4161 76.2653L35.2131 75.5947L34.752 77.0562L35.9528 77.7268L36.4161 76.2653Z" fill="black"/>
<path d="M48.4174 38.5591C46.9983 43.5583 47.2857 48.8628 47.1565 49.9366C46.1272 49.8631 42.2553 49.5735 40.1388 49.4153C39.4705 41.8964 41.0612 38.0779 41.0612 38.0779C41.0612 38.0779 41.5067 37.991 42.1261 37.9286C42.3176 37.9085 42.5248 37.8907 42.7409 37.8796C42.8612 37.8796 42.9815 37.8684 43.1041 37.8662C44.1026 37.8831 45.0994 37.9575 46.0894 38.089C46.2765 38.1113 46.4659 38.1402 46.6508 38.1692C46.8357 38.1982 46.9894 38.2293 47.1476 38.2605C47.8627 38.4031 48.4174 38.5591 48.4174 38.5591Z" fill="#90CAF9"/>
<path d="M43.104 37.873C42.5136 38.1894 42.3421 39.3479 43.4849 39.3924C44.6278 39.437 45.7618 38.6327 46.0893 38.0936L43.104 37.873Z" fill="#263238"/>
<path opacity="0.2" d="M46.918 40.7046C46.7932 41.188 46.9358 43.3936 47.4415 43.9394C47.5106 43.2332 47.6019 42.4935 47.7245 41.7405L46.918 40.7046Z" fill="black"/>
<path d="M46.0425 34.7075C45.7841 35.6521 45.4655 37.3965 46.0893 38.0871C45.5279 38.5684 44.884 38.9047 43.7412 38.8602C42.5983 38.8156 42.7743 38.2587 43.104 37.8666C44.1956 37.6906 44.2179 36.893 44.0954 36.1333L46.0425 34.7075Z" fill="#FF8B7B"/>
<path opacity="0.2" d="M45.2492 35.2891L44.0952 36.1334C44.1282 36.3105 44.1461 36.4902 44.1487 36.6703C44.5608 36.6414 45.1579 36.2248 45.2314 35.8081C45.2685 35.6376 45.2745 35.4618 45.2492 35.2891Z" fill="black"/>
<path d="M43.0707 34.3445C43.0707 34.3445 42.2642 33.2106 42.5003 32.3239C42.8033 31.1899 44.6301 32.5801 43.0707 34.3445Z" fill="#263238"/>
<path d="M46.2653 33.2704C46.0871 34.5648 46.0425 35.3312 45.3452 35.9438C44.2825 36.875 42.7231 36.1666 42.5092 34.8299C42.3154 33.6425 42.6362 31.7243 43.9484 31.3032C44.2381 31.2081 44.5475 31.189 44.8467 31.2476C45.146 31.3062 45.4253 31.4406 45.6577 31.638C45.8902 31.8354 46.0681 32.0891 46.1745 32.3749C46.2809 32.6607 46.3122 32.9691 46.2653 33.2704Z" fill="#FF8B7B"/>
<path d="M43.2022 34.6383C43.2022 34.8366 43.0195 34.8834 42.8724 34.9725C42.7703 35.0434 42.6845 35.1353 42.6207 35.2421C42.6207 35.2421 42.4313 35.1797 42.5093 34.8433C42.5873 34.5069 43.2022 34.4534 43.2022 34.6383Z" fill="#263238"/>
<path d="M43.2935 34.6449C43.2935 34.9858 43.67 34.939 43.9618 35.0326C44.1985 35.1064 44.4069 35.251 44.5589 35.447C44.5968 35.3614 44.6093 35.2666 44.5946 35.1741C44.58 35.0816 44.539 34.9953 44.4764 34.9256C44.1111 34.4467 43.2935 34.46 43.2935 34.6449Z" fill="#263238"/>
<path d="M45.2649 32.101C44.4539 32.3416 42.1793 32.5934 42.4578 31.4327C42.8454 29.8086 43.8702 30.6552 44.0173 30.8869C44.67 30.4146 47.5506 30.8267 46.9758 31.7602C47.6019 31.856 47.965 32.5377 47.515 32.8741C47.065 33.2105 46.5191 34.5828 46.2184 34.5427C45.8545 34.4925 45.4993 34.3928 45.1624 34.2464L45.7817 33.4177C45.7817 33.4177 45.0309 32.7048 45.2649 32.101Z" fill="#263238"/>
<path d="M46.6841 31.9023C47.1296 31.7931 47.5462 31.7441 47.9072 32.0783C47.8804 31.5169 47.1118 31.4389 46.6841 31.9023Z" fill="#263238"/>
<path d="M46.7443 34.7544C46.648 34.8851 46.5267 34.9956 46.3876 35.0793C46.2484 35.163 46.094 35.2184 45.9334 35.2423C45.5012 35.3046 45.343 34.9059 45.5101 34.5294C45.6594 34.1885 46.0648 33.7474 46.4747 33.861C46.5633 33.8875 46.6439 33.9356 46.7094 34.0009C46.7748 34.0662 46.8231 34.1467 46.8498 34.2352C46.8765 34.3237 46.8808 34.4175 46.8624 34.5081C46.844 34.5987 46.8034 34.6833 46.7443 34.7544Z" fill="#FF8B7B"/>
<path d="M41.5423 77.3192L43.7701 77.3526C43.7701 77.3526 42.4846 68.5504 42.6851 64.4557C42.7453 63.2103 42.5448 61.4682 42.8745 59.6013C43.2911 57.2464 43.4916 56.3085 44.0285 53.3344C44.4117 51.2135 44.7526 49.7698 44.7526 49.7698L40.1387 49.4268C40.1387 49.4268 38.6305 60.0335 38.675 64.0502C38.7218 68.214 41.5423 77.3192 41.5423 77.3192Z" fill="#90CAF9"/>
<path opacity="0.6" d="M41.5423 77.3192L43.7701 77.3526C43.7701 77.3526 42.4846 68.5504 42.6851 64.4557C42.7453 63.2103 42.5448 61.4682 42.8745 59.6013C43.2911 57.2464 43.4916 56.3085 44.0285 53.3344C44.4117 51.2135 44.7526 49.7698 44.7526 49.7698L40.1387 49.4268C40.1387 49.4268 38.6305 60.0335 38.675 64.0502C38.7218 68.214 41.5423 77.3192 41.5423 77.3192Z" fill="black"/>
<path opacity="0.2" d="M42.8745 59.6011C42.718 60.5776 42.6531 61.5666 42.6807 62.5552C42.2975 63.6379 41.9633 64.6649 41.7294 65.5783C41.3217 67.1757 40.6756 69.5996 40.0474 71.9276C39.3634 69.2008 38.6973 66.0484 38.6772 64.0389L42.8745 59.6011Z" fill="black"/>
<path d="M42.6272 49.6006C42.6272 49.6006 39.3122 57.9772 38.0557 61.6309C36.6789 65.6231 34.4578 76.3991 34.4578 76.3991L36.5542 77.5866C36.5542 77.5866 39.8201 68.7042 41.1724 64.8167C42.7141 60.3877 46.9648 53.3901 47.1564 49.9481L42.6272 49.6006Z" fill="#90CAF9"/>
<path opacity="0.6" d="M42.6272 49.6006C42.6272 49.6006 39.3122 57.9772 38.0557 61.6309C36.6789 65.6231 34.4578 76.3991 34.4578 76.3991L36.5542 77.5866C36.5542 77.5866 39.8201 68.7042 41.1724 64.8167C42.7141 60.3877 46.9648 53.3901 47.1564 49.9481L42.6272 49.6006Z" fill="black"/>
<path d="M34.1816 76.2918L36.6501 77.6931L37.0689 76.9557L34.3354 75.3428L34.1816 76.2918Z" fill="#90CAF9"/>
<path d="M41.2617 77.366L43.9172 77.4083L43.9306 76.5506L40.9631 76.457L41.2617 77.366Z" fill="#90CAF9"/>
<path d="M44.5321 33.4868C44.5321 33.5937 44.4608 33.6739 44.3917 33.6695C44.3226 33.665 44.2736 33.5737 44.2825 33.469C44.2915 33.3643 44.3516 33.2818 44.4207 33.2863C44.4897 33.2908 44.541 33.3821 44.5321 33.4868Z" fill="#263238"/>
<path d="M43.1241 33.3975C43.1241 33.5044 43.055 33.5846 42.9859 33.5801C42.9169 33.5757 42.8656 33.4843 42.8745 33.3796C42.8835 33.2749 42.9436 33.1925 43.0127 33.1969C43.0817 33.2014 43.133 33.2927 43.1241 33.3975Z" fill="#263238"/>
<path d="M43.4427 33.48C43.2919 33.7939 43.0984 34.0855 42.8679 34.3466C42.9363 34.4039 43.0165 34.4455 43.1027 34.4686C43.1889 34.4917 43.2791 34.4957 43.367 34.4803L43.4427 33.48Z" fill="#FF5652"/>
<path d="M43.3268 35.162C43.446 35.1571 43.5629 35.1277 43.6703 35.0756C43.7776 35.0235 43.873 34.9497 43.9506 34.859C43.9535 34.8561 43.9559 34.8526 43.9575 34.8488C43.9591 34.845 43.9599 34.8409 43.9599 34.8367C43.9599 34.8326 43.9591 34.8285 43.9575 34.8246C43.9559 34.8208 43.9535 34.8173 43.9506 34.8144C43.9448 34.8091 43.9372 34.8062 43.9294 34.8062C43.9215 34.8062 43.914 34.8091 43.9082 34.8144C43.8201 34.9128 43.71 34.9891 43.587 35.0371C43.4639 35.0851 43.3313 35.1034 43.1998 35.0907C43.1916 35.0906 43.1837 35.0935 43.1776 35.0988C43.1714 35.1042 43.1674 35.1116 43.1664 35.1196C43.1657 35.1238 43.166 35.1281 43.1671 35.1321C43.1683 35.1361 43.1703 35.1399 43.1731 35.1431C43.1758 35.1463 43.1793 35.1488 43.1831 35.1505C43.1869 35.1522 43.1911 35.1531 43.1953 35.1531C43.2389 35.159 43.2828 35.162 43.3268 35.162Z" fill="#263238"/>
<path d="M44.7547 33.1281C44.7643 33.13 44.7741 33.13 44.7837 33.1281C44.7906 33.1236 44.7965 33.1177 44.8012 33.1109C44.8058 33.1041 44.8091 33.0964 44.8107 33.0883C44.8124 33.0803 44.8124 33.0719 44.8108 33.0638C44.8093 33.0557 44.8061 33.048 44.8015 33.0412C44.75 32.9569 44.679 32.8862 44.5945 32.835C44.51 32.7838 44.4144 32.7537 44.3158 32.7471C44.3076 32.7468 44.2993 32.7482 44.2916 32.7512C44.2839 32.7542 44.2769 32.7588 44.271 32.7647C44.2652 32.7705 44.2606 32.7775 44.2576 32.7853C44.2545 32.793 44.2531 32.8012 44.2535 32.8095C44.2535 32.826 44.26 32.8419 44.2717 32.8536C44.2834 32.8653 44.2993 32.8719 44.3158 32.8719C44.3934 32.8785 44.4684 32.9033 44.5346 32.9443C44.6008 32.9853 44.6564 33.0414 44.6968 33.108C44.7039 33.1161 44.713 33.1221 44.7231 33.1256C44.7333 33.1292 44.7442 33.13 44.7547 33.1281Z" fill="#263238"/>
<path d="M42.6027 32.9272C42.6131 32.9281 42.6236 32.9265 42.6332 32.9227C42.6429 32.9188 42.6515 32.9127 42.6584 32.9049C42.7079 32.8443 42.771 32.7963 42.8427 32.7649C42.9144 32.7335 42.9925 32.7197 43.0706 32.7245C43.0868 32.7264 43.1031 32.7219 43.116 32.7119C43.1289 32.7019 43.1374 32.6872 43.1396 32.671C43.1409 32.6628 43.1405 32.6544 43.1385 32.6464C43.1365 32.6383 43.1329 32.6308 43.1279 32.6241C43.1229 32.6175 43.1167 32.6119 43.1095 32.6077C43.1023 32.6035 43.0944 32.6008 43.0862 32.5997C42.9878 32.5927 42.8892 32.6092 42.7985 32.648C42.7079 32.6867 42.6278 32.7466 42.5649 32.8225C42.5589 32.8283 42.5542 32.8352 42.551 32.8429C42.5478 32.8506 42.5461 32.8588 42.5461 32.8671C42.5461 32.8754 42.5478 32.8836 42.551 32.8912C42.5542 32.8989 42.5589 32.9058 42.5649 32.9116C42.5758 32.9202 42.5889 32.9256 42.6027 32.9272Z" fill="#263238"/>
<path d="M33.7092 78.255C33.8113 78.3104 33.9198 78.353 34.0323 78.382C34.0368 78.3853 34.0423 78.387 34.0479 78.387C34.0534 78.387 34.0589 78.3853 34.0634 78.382C34.0666 78.3766 34.0682 78.3704 34.0682 78.3642C34.0682 78.3579 34.0666 78.3518 34.0634 78.3464C34.0367 78.2974 33.7961 77.8607 33.6312 77.854C33.6132 77.8537 33.5953 77.8583 33.5796 77.8673C33.5639 77.8764 33.551 77.8895 33.5421 77.9053C33.5238 77.9298 33.5119 77.9586 33.5076 77.989C33.5034 78.0194 33.5068 78.0503 33.5176 78.079C33.5604 78.1571 33.6278 78.219 33.7092 78.255ZM33.9743 78.2996C33.7515 78.2283 33.6134 78.137 33.58 78.0501C33.5727 78.0301 33.5705 78.0087 33.5736 77.9876C33.5767 77.9666 33.585 77.9467 33.5978 77.9298C33.6011 77.9231 33.6062 77.9175 33.6125 77.9136C33.6188 77.9096 33.6261 77.9075 33.6335 77.9075C33.7181 77.9119 33.8741 78.128 33.9743 78.2996Z" fill="#90CAF9"/>
<path d="M34.0256 78.3798H34.0411C34.0469 78.3798 34.0525 78.3781 34.0572 78.3749C34.062 78.3717 34.0657 78.3672 34.0679 78.3619C34.0679 78.3463 34.235 78.001 34.1637 77.8183C34.1557 77.7955 34.1431 77.7747 34.1266 77.757C34.1101 77.7394 34.0901 77.7253 34.0679 77.7159C34.0472 77.7053 34.0236 77.7017 34.0007 77.7057C33.9777 77.7097 33.9568 77.7211 33.9409 77.7381C33.8451 77.854 33.9409 78.2327 34.0144 78.3642C34.0161 78.3706 34.02 78.3761 34.0256 78.3798ZM34.0567 77.7849C34.0798 77.7985 34.0972 77.8198 34.1058 77.8451C34.1266 77.9935 34.1026 78.1448 34.0367 78.2795C33.9699 78.1236 33.932 77.8518 33.9899 77.7849C33.9899 77.7849 34.0055 77.7626 34.0434 77.7849H34.0567Z" fill="#90CAF9"/>
<path d="M42.0568 79.1347C42.0623 79.1332 42.0672 79.1301 42.0708 79.1257C42.0744 79.1213 42.0765 79.1158 42.0768 79.1102C42.0784 79.104 42.0777 79.0974 42.0748 79.0917C42.072 79.0859 42.0672 79.0814 42.0612 79.079C42.0033 79.0455 41.4776 78.7693 41.3172 78.8562C41.3021 78.8643 41.2892 78.8762 41.2799 78.8906C41.2706 78.905 41.265 78.9215 41.2637 78.9386C41.2604 78.9668 41.2637 78.9954 41.2734 79.0221C41.283 79.0487 41.2988 79.0728 41.3194 79.0923C41.462 79.2215 41.8407 79.1748 42.0523 79.1369L42.0568 79.1347ZM41.3573 78.9119C41.5668 78.9234 41.7702 78.9861 41.9499 79.0946C41.7549 79.1515 41.5459 79.1357 41.3617 79.05C41.3482 79.0374 41.3379 79.0217 41.3317 79.0042C41.3255 78.9868 41.3236 78.9681 41.3261 78.9498C41.3258 78.9428 41.3276 78.936 41.3311 78.9301C41.3347 78.9241 41.3399 78.9194 41.3461 78.9163L41.3573 78.9119Z" fill="#90CAF9"/>
<path d="M42.0569 79.1351C42.0613 79.1316 42.0647 79.1272 42.067 79.1222C42.0694 79.1171 42.0705 79.1116 42.0703 79.1061C42.0594 78.9195 41.99 78.741 41.872 78.5959C41.8489 78.5752 41.8217 78.5595 41.7921 78.5499C41.7626 78.5404 41.7314 78.5371 41.7005 78.5402C41.6158 78.5402 41.5891 78.5893 41.5846 78.6249C41.5579 78.7742 41.8676 79.0705 42.0302 79.1373C42.0391 79.1398 42.0486 79.139 42.0569 79.1351ZM41.6827 78.6048H41.7161C41.7385 78.6025 41.7612 78.6049 41.7827 78.6118C41.8041 78.6187 41.824 78.63 41.8408 78.6449C41.9382 78.7606 41.9967 78.9041 42.0079 79.0549C41.8475 78.9546 41.6381 78.7274 41.6537 78.6383C41.6544 78.6304 41.6576 78.6229 41.6628 78.6169C41.668 78.6109 41.6749 78.6067 41.6827 78.6048Z" fill="#90CAF9"/>
<path d="M48.7427 39.3545C49.0323 39.8936 49.2818 40.4261 49.5402 40.9674C49.7986 41.5088 50.0237 42.0613 50.2509 42.6183C50.4781 43.1752 50.6831 43.7322 50.8725 44.3292L51.0084 44.7748L51.1287 45.2204C51.1688 45.3719 51.1999 45.5323 51.2356 45.686L51.2623 45.8063L51.2868 45.9667C51.3015 46.0642 51.3111 46.1623 51.3158 46.2608C51.3295 46.5978 51.3153 46.9353 51.2735 47.27C51.2378 47.5863 51.1933 47.8915 51.1398 48.1923C51.0306 48.7938 50.897 49.3797 50.7477 49.959C50.4506 51.1127 50.0944 52.2504 49.6806 53.3675L48.7293 53.1047C48.9276 51.964 49.1192 50.8078 49.2885 49.6693C49.3709 49.1012 49.4466 48.5331 49.4979 47.9717C49.5246 47.6933 49.5447 47.417 49.5536 47.1474C49.5654 46.8985 49.5587 46.649 49.5335 46.4011C49.5335 46.3543 49.5224 46.292 49.5113 46.2608L49.4979 46.2028L49.4712 46.1093C49.4311 45.9823 49.3999 45.8553 49.3553 45.7261L49.2239 45.3384L49.0791 44.9486C48.8808 44.425 48.658 43.9037 48.433 43.3891C48.208 42.8745 47.9585 42.3465 47.7112 41.8296C47.4639 41.3128 47.2099 40.787 46.9648 40.2835L48.7427 39.3545Z" fill="#FF8B7B"/>
<path d="M48.4151 38.5614C49.3597 38.8555 50.6095 42.772 51.104 44.4385C51.4182 44.7214 51.26 45.2382 51.26 45.2382L49.3374 46.0871C48.8918 45.8643 48.6156 45.3987 48.7826 45.1692C47.7757 43.2688 46.9848 41.8475 46.6038 40.7135C46.0402 39.0337 46.9625 38.0958 48.4151 38.5614Z" fill="#90CAF9"/>
<path d="M48.8674 45.6213C48.6736 45.7371 49.2684 46.3476 49.46 46.5258C49.6516 46.704 50.291 46.2384 50.6898 46.1226C51.0886 46.0067 51.4807 46.3052 51.5653 45.8864C51.6121 45.6636 51.5653 45.0265 51.4116 44.8928C51.0485 44.5854 49.3353 45.345 48.8674 45.6213Z" fill="#263238"/>
<path d="M48.9787 52.5435L47.9517 53.3989L49.2304 54.3213C49.2304 54.3213 50.0703 53.4301 49.6938 52.8999L48.9787 52.5435Z" fill="#FF8B7B"/>
<path d="M47.3657 54.5953L48.6311 55.2102L49.2304 54.3212L47.9516 53.3989L47.3657 54.5953Z" fill="#FF8B7B"/>
</svg>
