<svg width="192" height="143" viewBox="0 0 192 143" fill="none" xmlns="http://www.w3.org/2000/svg">
<path d="M191.958 125.666H0.0424805V125.762H191.958V125.666Z" fill="#EBEBEB"/>
<path d="M172.728 131.842H160.015V131.938H172.728V131.842Z" fill="#EBEBEB"/>
<path d="M127.175 132.886H123.839V132.982H127.175V132.886Z" fill="#EBEBEB"/>
<path d="M159.632 128.28H152.266V128.376H159.632V128.28Z" fill="#EBEBEB"/>
<path d="M36.7559 128.925H20.1782V129.021H36.7559V128.925Z" fill="#EBEBEB"/>
<path d="M42.6054 128.925H40.1758V129.021H42.6054V128.925Z" fill="#EBEBEB"/>
<path d="M86.4619 130.545H50.5046V130.641H86.4619V130.545Z" fill="#EBEBEB"/>
<path d="M91.0102 108.547H16.8963C16.3157 108.546 15.7593 108.315 15.3491 107.904C14.9389 107.493 14.7085 106.936 14.7085 106.356V2.17248C14.7136 1.59521 14.9462 1.04324 15.3558 0.636475C15.7654 0.229707 16.319 0.000988897 16.8963 0H91.0102C91.5915 0 92.1489 0.230908 92.56 0.641927C92.971 1.05295 93.2019 1.61041 93.2019 2.19167V106.356C93.2019 106.937 92.971 107.494 92.56 107.905C92.1489 108.316 91.5915 108.547 91.0102 108.547ZM16.8963 0.0767665C16.3412 0.0777832 15.8091 0.299029 15.4169 0.691942C15.0247 1.08485 14.8045 1.61733 14.8045 2.17248V106.356C14.8045 106.911 15.0247 107.443 15.4169 107.836C15.8091 108.229 16.3412 108.45 16.8963 108.451H91.0102C91.5657 108.45 92.0982 108.229 92.491 107.836C92.8838 107.444 93.1049 106.911 93.1059 106.356V2.17248C93.1049 1.61698 92.8838 1.08451 92.491 0.691708C92.0982 0.298905 91.5657 0.0777811 91.0102 0.0767665H16.8963Z" fill="#EBEBEB"/>
<path d="M174.037 108.547H99.919C99.338 108.546 98.7811 108.315 98.3703 107.904C97.9595 107.494 97.7283 106.937 97.7273 106.356V2.17248C97.7334 1.59486 97.9668 1.0429 98.3771 0.636235C98.7873 0.229573 99.3413 0.000978112 99.919 0H174.037C174.613 0.00199765 175.166 0.231162 175.575 0.637822C175.984 1.04448 176.216 1.59587 176.221 2.17248V106.356C176.221 106.936 175.991 107.492 175.581 107.903C175.172 108.314 174.617 108.545 174.037 108.547ZM99.919 0.0767665C99.3635 0.0777811 98.831 0.298905 98.4382 0.691708C98.0454 1.08451 97.8243 1.61698 97.8233 2.17248V106.356C97.8243 106.911 98.0454 107.444 98.4382 107.836C98.831 108.229 99.3635 108.45 99.919 108.451H174.037C174.592 108.45 175.125 108.229 175.517 107.836C175.91 107.444 176.131 106.911 176.132 106.356V2.17248C176.131 1.61698 175.91 1.08451 175.517 0.691708C175.125 0.298905 174.592 0.0777811 174.037 0.0767665H99.919Z" fill="#EBEBEB"/>
<path d="M101.309 84.3026C110.53 82.8058 116.792 74.1169 115.295 64.8954C113.798 55.674 105.109 49.412 95.888 50.9089C86.6666 52.4057 80.4046 61.0946 81.9014 70.316C83.3983 79.5375 92.0872 85.7995 101.309 84.3026Z" fill="#F0F0F0"/>
<path d="M102.909 77.534C106.107 74.9738 115.576 74.8472 120.051 78.6855C124.527 82.5238 130.672 88.7917 132.848 89.5594C135.024 90.3271 142.271 87.5136 148.117 86.8726C153.963 86.2316 156.262 92.2462 158.434 95.574C160.607 98.9018 162.913 99.0285 163.938 103.377C164.963 107.726 166.878 110.927 169.822 114.508C172.766 118.09 181.337 122.953 182.232 125.666H87.8093L86.7883 88.6651C89.3293 86.1049 99.6927 80.0941 102.909 77.534Z" fill="#EBEBEB"/>
<path d="M27.3982 92.2462C29.3826 90.2426 35.7964 88.9222 39.4696 80.9885C43.1429 73.0547 55.2067 56.55 59.8127 54.2662C64.4186 51.9824 69.5121 41.9836 71.3545 40.5596C73.1968 39.1356 75.5766 42.9892 76.2138 45.2922C77.8719 51.1495 85.8095 67.8116 90.5306 71.0089C95.2518 74.2062 95.5819 81.1151 96.8984 85.0839C98.2149 89.0528 106.287 91.3519 108.122 96.4684C109.956 101.585 130.384 125.666 130.384 125.666H8.48682C14.559 121.256 19.7561 99.9651 27.3982 92.2462Z" fill="#F5F5F5"/>
<path d="M71.5462 46.0599C71.5462 48.029 70.9513 57.1488 68.9016 59.3673C66.852 61.5859 68.6598 56.6383 65.1977 59.3673C61.7355 62.0964 60.2079 67.7233 54.4005 69.6885C48.5931 71.6538 49.1152 66.7023 51.9286 63.885C54.7421 61.0677 58.0699 56.124 60.7184 54.6731C63.3668 53.2222 71.5462 40.0031 71.5462 46.0599Z" fill="#F0F0F0"/>
<path d="M57.2334 86.8301C59.9932 83.0148 47.5954 87.4289 43.8416 86.0624C40.0877 84.696 42.9895 82.8229 37.5275 87.5978C32.0656 92.3726 22.6042 96.9824 27.7207 98.6022C32.8371 100.222 52.0978 93.9118 57.2334 86.8301Z" fill="#F0F0F0"/>
<path d="M127.904 88.7304C125.785 86.1971 123.363 81.4376 120.228 80.6046C117.092 79.7717 114.984 79.2612 115.622 81.1804C116.259 83.0995 131.205 92.6685 127.904 88.7304Z" fill="#F0F0F0"/>
<path d="M162.238 102.356C161.693 100.579 160.019 100.629 158.549 97.8116C157.079 94.9943 154.903 90.2003 151.318 90.0083C147.733 89.8164 142.06 91.2251 146.842 94.8062C151.625 98.3874 164.134 108.559 162.238 102.356Z" fill="#F0F0F0"/>
<path d="M155.302 20.8997H82.3743C73.1623 20.8997 99.0056 18.9805 113.207 15.7832C127.409 12.5859 128.561 11.5611 133.293 15.0155C138.026 18.47 152.101 10.7934 158.883 15.3994C165.666 20.0053 167.454 20.8997 155.302 20.8997Z" fill="#FAFAFA"/>
<path d="M54.2204 33.2435C63.3172 33.2435 80.6778 32.5027 73.7151 29.4359C66.7524 26.3691 61.5976 32.5065 58.5577 29.9003C55.5177 27.2941 50.597 26.9294 46.5131 29.4359C42.4291 31.9423 43.642 28.0426 38.7174 29.4359C31.8085 31.3896 9.68449 33.2435 28.5152 33.2435H54.2204Z" fill="#FAFAFA"/>
<path d="M131.017 66.2529C137.964 66.2529 151.218 65.6848 145.902 63.3473C140.586 61.0098 136.652 65.6848 134.333 63.7004C132.015 61.716 128.253 61.432 125.121 63.3473C121.989 65.2626 122.93 62.2841 119.168 63.3473C113.906 64.8366 97.0058 66.2529 111.38 66.2529H131.017Z" fill="#FAFAFA"/>
<path d="M96.0001 143C137.102 143 170.421 141.055 170.421 138.655C170.421 136.255 137.102 134.31 96.0001 134.31C54.8985 134.31 21.5791 136.255 21.5791 138.655C21.5791 141.055 54.8985 143 96.0001 143Z" fill="#F5F5F5"/>
<path d="M90.6497 137.834C95.4591 137.834 99.3588 130.111 99.3588 120.584C99.3588 111.058 95.4591 103.335 90.6497 103.335H79.4956V137.834H90.6497Z" fill="#263238"/>
<path d="M79.4379 137.834C84.2478 137.834 88.147 130.111 88.147 120.584C88.147 111.058 84.2478 103.335 79.4379 103.335C74.628 103.335 70.7288 111.058 70.7288 120.584C70.7288 130.111 74.628 137.834 79.4379 137.834Z" fill="#263238"/>
<path d="M154.508 137.834C159.317 137.834 163.213 130.111 163.213 120.584C163.213 111.058 159.332 103.335 154.508 103.335H143.334V137.834H154.508Z" fill="#263238"/>
<path d="M143.292 137.834C148.102 137.834 152.001 130.111 152.001 120.584C152.001 111.058 148.102 103.335 143.292 103.335C138.482 103.335 134.583 111.058 134.583 120.584C134.583 130.111 138.482 137.834 143.292 137.834Z" fill="#263238"/>
<path d="M33.5663 129.148L27.6016 127.678C26.5923 127.431 25.6493 126.965 24.839 126.315C24.0287 125.664 23.3707 124.844 22.9112 123.912C22.5043 123.09 21.9426 122.353 21.2569 121.744L19.7906 120.439C18.9533 119.693 18.3035 118.761 17.894 117.717C17.4846 116.673 17.3269 115.548 17.4339 114.432L18.24 105.987C18.3751 104.572 18.9304 103.229 19.8346 102.131C20.7388 101.033 21.9506 100.231 23.3142 99.8269L27.5786 98.568L42.9625 97.4702L33.5663 129.148Z" fill="#90CAF9"/>
<path d="M46.5743 137.834C51.3837 137.834 55.2834 130.111 55.2834 120.584C55.2834 111.058 51.3837 103.335 46.5743 103.335H35.4048V137.834H46.5743Z" fill="#263238"/>
<path d="M35.3624 137.834C40.1724 137.834 44.0716 130.111 44.0716 120.584C44.0716 111.058 40.1724 103.335 35.3624 103.335C30.5525 103.335 26.6533 111.058 26.6533 120.584C26.6533 130.111 30.5525 137.834 35.3624 137.834Z" fill="#263238"/>
<path d="M35.3625 134.218C38.7373 134.218 41.4731 128.114 41.4731 120.584C41.4731 113.055 38.7373 106.951 35.3625 106.951C31.9878 106.951 29.252 113.055 29.252 120.584C29.252 128.114 31.9878 134.218 35.3625 134.218Z" fill="#90CAF9"/>
<path d="M123.732 129.148L138.771 95.5394C138.771 95.5394 116.27 78.7891 87.7211 78.7891C41.4503 78.7891 43.0394 85.0263 27.5557 98.5679L34.3149 103.335C46.3403 103.335 47.3421 122.396 49.2651 127.758C49.4088 128.165 49.675 128.516 50.0269 128.765C50.3789 129.014 50.7993 129.148 51.2303 129.148H123.732Z" fill="#90CAF9"/>
<path d="M110.432 137.834C115.242 137.834 119.138 130.111 119.138 120.584C119.138 111.058 115.242 103.335 110.432 103.335H99.259V137.834H110.432Z" fill="#263238"/>
<path d="M99.2167 137.834C104.027 137.834 107.926 130.111 107.926 120.584C107.926 111.058 104.027 103.335 99.2167 103.335C94.4068 103.335 90.5076 111.058 90.5076 120.584C90.5076 130.111 94.4068 137.834 99.2167 137.834Z" fill="#263238"/>
<path d="M99.2168 134.218C102.592 134.218 105.327 128.114 105.327 120.584C105.327 113.055 102.592 106.951 99.2168 106.951C95.842 106.951 93.1062 113.055 93.1062 120.584C93.1062 128.114 95.842 134.218 99.2168 134.218Z" fill="#90CAF9"/>
<path d="M114.758 126.372C113.373 120.078 106.748 103.343 98.8062 103.343L90.2007 95.5278H138.771C142.133 95.5278 157.068 97.5928 165.531 103.323C172.367 107.952 173.208 114.98 174.191 125.248C174.394 127.344 172.559 129.144 170.241 129.148C150.781 129.148 127.229 129.22 118.654 129.247C116.762 129.267 115.13 128.057 114.758 126.372Z" fill="#90CAF9"/>
<path opacity="0.8" d="M135.258 95.5392H103.596C102.864 95.5421 102.142 95.3656 101.494 95.025C100.845 94.6844 100.29 94.1902 99.8769 93.5855C96.3534 88.3654 90.1161 83.0762 85.5447 80.5698C117.556 80.5698 135.258 95.5392 135.258 95.5392Z" fill="white"/>
<path opacity="0.8" d="M84.7614 82.1397C88.5997 84.9186 92.9677 89.2252 95.4204 93.5049C95.5392 93.709 95.6024 93.9407 95.6037 94.1769C95.605 94.4131 95.5444 94.6454 95.4279 94.8509C95.3114 95.0563 95.1431 95.2276 94.9397 95.3477C94.7364 95.4678 94.5051 95.5325 94.2689 95.5354H42.3788C36.8747 95.5354 38.7017 81.8249 67.4545 80.7963C70.1644 80.5621 76.4822 80.5545 79.9751 80.5698C81.6955 80.5792 83.3697 81.1283 84.7614 82.1397Z" fill="white"/>
<path d="M120.247 121.674L136.878 122.93C137.137 122.949 137.38 123.066 137.556 123.257C137.733 123.448 137.831 123.698 137.83 123.958V125.11C137.83 125.383 137.722 125.644 137.529 125.837C137.336 126.03 137.074 126.138 136.801 126.138H120.182C119.908 126.138 119.646 126.03 119.453 125.837C119.259 125.645 119.15 125.383 119.149 125.11V122.718C119.147 122.576 119.175 122.435 119.23 122.304C119.285 122.173 119.367 122.055 119.47 121.957C119.573 121.859 119.695 121.783 119.829 121.734C119.963 121.686 120.105 121.665 120.247 121.674Z" fill="#263238"/>
<path d="M173.112 121.905L168.544 122.826C168.31 122.872 168.1 122.998 167.949 123.182C167.798 123.366 167.715 123.597 167.715 123.835V125.083C167.715 125.218 167.742 125.352 167.794 125.477C167.846 125.602 167.922 125.716 168.018 125.812C168.114 125.907 168.228 125.983 168.353 126.034C168.478 126.086 168.612 126.112 168.748 126.112H173.584C173.73 126.112 173.874 126.082 174.007 126.022C174.14 125.963 174.259 125.876 174.356 125.767C174.453 125.658 174.525 125.53 174.569 125.391C174.613 125.252 174.626 125.105 174.609 124.96L174.352 122.795C174.335 122.653 174.289 122.515 174.216 122.391C174.143 122.267 174.045 122.16 173.928 122.076C173.812 121.992 173.679 121.934 173.538 121.904C173.398 121.875 173.252 121.875 173.112 121.905Z" fill="#263238"/>
<path opacity="0.8" d="M133.934 102.322L110.713 101.193C110.713 101.193 110.475 105.308 119.08 106.183C124.33 106.664 129.583 105.299 133.934 102.322Z" fill="white"/>
<path opacity="0.3" d="M18.2361 105.983C18.301 105.309 18.4626 104.647 18.7159 104.018L20.2896 103.972C20.2896 103.972 20.3626 110.01 18.0826 109.63C18.0187 109.62 17.9558 109.605 17.8945 109.584L18.2361 105.983Z" fill="black"/>
<path opacity="0.8" d="M163.244 101.953C164.028 102.374 164.79 102.834 165.527 103.331C166.649 104.082 167.674 104.969 168.579 105.972C168.254 106.064 167.925 106.138 167.592 106.194C162.438 107.081 158.691 102.322 158.691 102.322L163.244 101.953Z" fill="white"/>
<path d="M141.127 108.808H157.559C158.135 108.812 158.696 108.991 159.167 109.323L162.038 111.338C162.364 111.564 162.64 111.854 162.848 112.192C163.056 112.53 163.192 112.906 163.247 113.299L163.98 118.738C164.035 119.09 164.012 119.45 163.914 119.792C163.815 120.134 163.643 120.451 163.41 120.72C163.176 120.989 162.887 121.204 162.562 121.349C162.237 121.495 161.884 121.568 161.528 121.563H143.956C143.431 121.556 142.917 121.405 142.471 121.128C142.024 120.851 141.662 120.457 141.423 119.989L138.141 113.591C137.904 113.155 137.798 112.66 137.835 112.165C137.871 111.67 138.05 111.197 138.348 110.8L139.17 109.745C139.402 109.449 139.7 109.211 140.039 109.048C140.379 108.886 140.751 108.804 141.127 108.808Z" fill="#263238"/>
<path opacity="0.1" d="M54.5082 122.078H86.6425C86.749 122.077 86.8545 122.099 86.9522 122.142C87.0498 122.184 87.1375 122.247 87.2097 122.325C87.282 122.403 87.3371 122.496 87.3716 122.597C87.4061 122.698 87.4192 122.804 87.4101 122.911L87.2451 124.78C87.2278 124.971 87.1394 125.149 86.9972 125.279C86.8551 125.408 86.6696 125.479 86.4774 125.478H54.3393C54.2327 125.479 54.1273 125.457 54.0296 125.414C53.932 125.372 53.8442 125.309 53.772 125.231C53.6998 125.153 53.6447 125.06 53.6102 124.959C53.5757 124.859 53.5626 124.752 53.5716 124.646L53.7367 122.772C53.7549 122.581 53.8443 122.403 53.9872 122.275C54.13 122.146 54.3159 122.076 54.5082 122.078Z" fill="black"/>
<path d="M64.7526 80.5701L66.6756 80.1978L62.7413 97.4701H60.8989L64.7526 80.5701Z" fill="#90CAF9"/>
<path d="M71.7728 99.4121H65.1901L65.0212 100.103C64.9696 100.255 64.956 100.417 64.9815 100.575C65.0069 100.733 65.0707 100.883 65.1672 101.011C65.2637 101.139 65.39 101.241 65.5352 101.309C65.6803 101.377 65.8399 101.408 65.9999 101.4H69.9803C70.3526 101.383 70.7099 101.248 71.0009 101.015C71.2918 100.782 71.5016 100.463 71.6 100.103L71.7728 99.4121Z" fill="#263238"/>
<path d="M49.1305 99.4121H42.5516L42.3827 100.103C42.3312 100.255 42.3176 100.417 42.343 100.575C42.3685 100.733 42.4322 100.883 42.5288 101.011C42.6253 101.139 42.7516 101.241 42.8968 101.309C43.0419 101.377 43.2015 101.408 43.3615 101.4H47.3418C47.7142 101.383 48.0715 101.248 48.3624 101.015C48.6534 100.782 48.8631 100.463 48.9616 100.103L49.1305 99.4121Z" fill="#263238"/>
<path opacity="0.1" d="M62.0159 119.844C61.9585 119.844 61.9034 119.821 61.8625 119.781C61.8216 119.741 61.7981 119.686 61.7971 119.629L61.3135 97.0136C61.3134 96.9554 61.3357 96.8995 61.3757 96.8574C61.4157 96.8152 61.4704 96.7901 61.5284 96.7871C61.5858 96.7871 61.6409 96.8096 61.6818 96.8498C61.7227 96.89 61.7462 96.9447 61.7472 97.0021L62.2232 119.621C62.2232 119.679 62.2008 119.734 62.1607 119.776C62.1206 119.818 62.0659 119.842 62.0082 119.844H62.0159Z" fill="black"/>
<path d="M75.043 136.329L72.7746 136.295L72.1221 131.036L74.3905 131.071L75.043 136.329Z" fill="#FF8B7B"/>
<path d="M61.2365 136.276L59.1638 135.12L60.7107 130.242L62.7833 131.397L61.2365 136.276Z" fill="#FF8B7B"/>
<path d="M58.9681 134.848L61.3709 136.214C61.4102 136.235 61.4409 136.269 61.4577 136.311C61.4745 136.352 61.4764 136.398 61.463 136.441L60.8566 138.417C60.8417 138.465 60.8161 138.509 60.7817 138.546C60.7472 138.583 60.7049 138.611 60.6579 138.629C60.6108 138.646 60.5604 138.653 60.5103 138.648C60.4603 138.644 60.412 138.628 60.3691 138.602C59.6014 138.152 59.0641 137.784 58.0891 137.231C57.4904 136.893 55.648 135.93 54.8227 135.462C53.9975 134.993 54.3506 134.111 54.7306 134.23C56.4387 134.759 57.8435 134.951 58.5689 134.79C58.7045 134.759 58.8469 134.779 58.9681 134.848Z" fill="#263238"/>
<path d="M72.7285 136.034L75.2042 136.072C75.2495 136.072 75.2933 136.088 75.3283 136.116C75.3633 136.145 75.3873 136.185 75.3961 136.229L75.8107 138.252C75.8192 138.3 75.8171 138.349 75.8043 138.396C75.7916 138.443 75.7685 138.486 75.7369 138.523C75.7053 138.559 75.6659 138.589 75.6215 138.608C75.5772 138.628 75.529 138.637 75.4806 138.636C74.5862 138.609 73.2966 138.536 72.1758 138.517C70.8631 138.498 69.7269 138.552 68.1878 138.517C67.2589 138.517 67.0363 137.558 67.4201 137.477C69.2011 137.116 70.6481 137.093 72.195 136.176C72.3569 136.081 72.5411 136.032 72.7285 136.034Z" fill="#263238"/>
<path d="M71.6575 69.8304C70.3574 70.8942 69.0019 71.8885 67.5966 72.8089C66.8903 73.2657 66.1725 73.7186 65.4087 74.1331C64.6102 74.5855 63.7711 74.9621 62.9023 75.2578C62.6431 75.3405 62.379 75.4072 62.1116 75.4573C61.9658 75.4842 61.7969 75.5034 61.6357 75.5188C61.453 75.534 61.2694 75.534 61.0868 75.5188C60.6844 75.486 60.2928 75.3724 59.9353 75.1848C59.5934 75.0026 59.2888 74.7578 59.0371 74.4632C58.6491 73.9972 58.3639 73.4543 58.2004 72.8703C58.0677 72.3985 57.9791 71.9153 57.9355 71.4271C57.8197 69.6807 57.9869 67.927 58.4307 66.2339L60.1157 66.468C60.108 67.9929 60.2572 69.5144 60.5609 71.0087C60.633 71.3246 60.7345 71.633 60.8642 71.9299C60.9397 72.1292 61.059 72.3089 61.2135 72.4558C61.2595 72.4865 61.2787 72.4827 61.2825 72.4558C61.2864 72.4289 61.2825 72.4366 61.2825 72.4289C61.477 72.3863 61.6672 72.3259 61.8506 72.2485C62.5049 71.9661 63.1351 71.631 63.7352 71.2467C64.3801 70.8629 65.0287 70.4138 65.6544 69.9609C66.9364 69.0627 68.2299 68.0955 69.462 67.1436L71.6575 69.8304Z" fill="#FF8B7B"/>
<path d="M72.3484 68.7865C71.3159 71.1164 67.3356 73.5268 65.1285 74.544C64.476 74.8434 64.5605 75.7185 64.1728 75.3385C64.1728 75.3385 62.4724 72.218 62.4724 71.5808C62.4724 70.9437 63.0366 71.3236 63.4972 70.8938C65.1554 69.3584 68.6252 65.9846 70.79 65.6122C73.6227 65.1133 73.3156 66.614 72.3484 68.7865Z" fill="#90CAF9"/>
<path d="M62.7103 71.1662C62.4916 70.8438 61.5857 71.6882 61.2978 72.0414C61.01 72.3945 61.8007 73.6765 62.0386 74.3444C62.2766 75.0122 61.8083 75.7223 62.5376 75.8259C62.9215 75.8797 64.0154 75.7377 64.2265 75.4421C64.7216 74.8088 63.2362 71.9416 62.7103 71.1662Z" fill="#263238"/>
<path opacity="0.2" d="M67.9189 73.0084C69.7767 71.8377 71.6805 70.2947 72.3522 68.7863C72.3944 68.6826 72.4443 68.5867 72.4827 68.4869L72.5211 68.103C69.9993 68.5329 68.2874 71.0816 67.9189 73.0084Z" fill="black"/>
<path d="M59.7895 67.1704L61.2519 65.0018L58.8645 64.0269C58.8645 64.0269 57.5134 65.5622 58.4807 66.9018L59.7895 67.1704Z" fill="#FF8B7B"/>
<path d="M61.8661 62.6452L59.6705 62.5723L58.8645 64.0078L61.2519 64.9827L61.8661 62.6452Z" fill="#FF8B7B"/>
<path opacity="0.2" d="M72.1221 131.036L72.4598 133.746L74.7283 133.784L74.3905 131.075L72.1221 131.036Z" fill="black"/>
<path opacity="0.2" d="M62.7835 131.397L60.7108 130.242L59.9163 132.76L61.9851 133.915L62.7835 131.397Z" fill="black"/>
<path d="M83.4605 66.4335C81.0155 75.0466 81.5106 84.1856 81.288 86.0357C79.5147 85.909 72.8437 85.4101 69.1973 85.1375C68.0458 72.1832 70.7864 65.6044 70.7864 65.6044C70.7864 65.6044 71.554 65.4547 72.6211 65.3472C72.9512 65.3127 73.3081 65.282 73.6805 65.2628C73.8877 65.2628 74.095 65.2436 74.3061 65.2397C76.0265 65.2688 77.7438 65.397 79.4494 65.6236C79.7718 65.662 80.0981 65.7119 80.4167 65.7618C80.7353 65.8117 81.0001 65.8654 81.2726 65.9191C82.5047 66.1648 83.4605 66.4335 83.4605 66.4335Z" fill="#90CAF9"/>
<path d="M74.306 65.2515C73.2889 65.7965 72.9933 67.7924 74.9624 67.8692C76.9314 67.946 78.8851 66.5603 79.4494 65.6315L74.306 65.2515Z" fill="#263238"/>
<path opacity="0.2" d="M80.8772 70.1299C80.6623 70.9628 80.9079 74.7627 81.7792 75.7031C81.8982 74.4864 82.0556 73.212 82.2667 71.9147L80.8772 70.1299Z" fill="black"/>
<path d="M79.3688 59.7969C78.9236 61.4243 78.3747 64.4297 79.4494 65.6196C78.4822 66.4487 77.3729 67.0282 75.4038 66.9515C73.4348 66.8747 73.738 65.9151 74.3061 65.2396C76.1869 64.9364 76.2252 63.5623 76.0141 62.2534L79.3688 59.7969Z" fill="#FF8B7B"/>
<path opacity="0.2" d="M78.0022 60.7988L76.0139 62.2536C76.0708 62.5587 76.1016 62.8682 76.106 63.1786C76.8161 63.1287 77.8448 62.4109 77.9715 61.6932C78.0353 61.3993 78.0457 61.0964 78.0022 60.7988Z" fill="black"/>
<path d="M74.2484 59.1715C74.2484 59.1715 72.8589 57.2178 73.2658 55.6902C73.7878 53.7365 76.9352 56.1316 74.2484 59.1715Z" fill="#263238"/>
<path d="M79.7525 57.3212C79.4454 59.5512 79.3687 60.8716 78.1673 61.9272C76.3364 63.5316 73.6496 62.311 73.2811 60.008C72.9472 57.9622 73.4999 54.6574 75.7607 53.932C76.2599 53.7681 76.7928 53.7351 77.3084 53.8361C77.8241 53.937 78.3052 54.1686 78.7057 54.5087C79.1062 54.8488 79.4128 55.2859 79.5961 55.7784C79.7794 56.2708 79.8332 56.802 79.7525 57.3212Z" fill="#FF8B7B"/>
<path d="M74.4749 59.6782C74.4749 60.0198 74.1602 60.1004 73.9069 60.2539C73.7309 60.3761 73.583 60.5344 73.4731 60.7183C73.4731 60.7183 73.1469 60.6109 73.2812 60.0313C73.4156 59.4517 74.4749 59.3596 74.4749 59.6782Z" fill="#263238"/>
<path d="M74.6323 59.6895C74.6323 60.2768 75.281 60.1961 75.7838 60.3574C76.1917 60.4845 76.5507 60.7337 76.8125 61.0713C76.8779 60.9238 76.8993 60.7606 76.8741 60.6012C76.8489 60.4419 76.7782 60.2932 76.6705 60.1731C76.041 59.3479 74.6323 59.3709 74.6323 59.6895Z" fill="#263238"/>
<path d="M78.0291 55.3063C76.6319 55.7208 72.713 56.1545 73.1928 54.1548C73.8607 51.3566 75.6263 52.8152 75.8796 53.2144C77.0042 52.4007 81.9672 53.1107 80.9769 54.719C82.0554 54.884 82.6811 56.0586 81.9058 56.6381C81.1304 57.2177 80.19 59.5821 79.6719 59.513C79.045 59.4264 78.4329 59.2547 77.8525 59.0025L78.9195 57.5747C78.9195 57.5747 77.626 56.3464 78.0291 55.3063Z" fill="#263238"/>
<path d="M80.4741 54.9645C81.2418 54.7764 81.9595 54.692 82.5813 55.2677C82.5353 54.3005 81.2111 54.1661 80.4741 54.9645Z" fill="#263238"/>
<path d="M80.5777 59.8777C80.4118 60.103 80.2029 60.2932 79.9631 60.4375C79.7233 60.5818 79.4574 60.6772 79.1806 60.7183C78.436 60.8258 78.1634 60.1387 78.4513 59.49C78.7085 58.9028 79.4071 58.1428 80.1133 58.3385C80.2659 58.3842 80.4048 58.467 80.5176 58.5795C80.6304 58.692 80.7135 58.8307 80.7595 58.9832C80.8055 59.1357 80.813 59.2972 80.7813 59.4533C80.7495 59.6094 80.6796 59.7552 80.5777 59.8777Z" fill="#FF8B7B"/>
<path d="M71.6154 133.212L75.4537 133.27C75.4537 133.27 73.239 118.105 73.5844 111.05C73.6881 108.904 73.3426 105.903 73.9107 102.686C74.6285 98.6292 74.9739 97.0133 75.8989 91.8891C76.5591 88.2351 77.1464 85.7478 77.1464 85.7478L69.1973 85.1567C69.1973 85.1567 66.5987 103.431 66.6755 110.351C66.7561 117.525 71.6154 133.212 71.6154 133.212Z" fill="#90CAF9"/>
<path opacity="0.6" d="M71.6154 133.212L75.4537 133.27C75.4537 133.27 73.239 118.105 73.5844 111.05C73.6881 108.904 73.3426 105.903 73.9107 102.686C74.6285 98.6292 74.9739 97.0133 75.8989 91.8891C76.5591 88.2351 77.1464 85.7478 77.1464 85.7478L69.1973 85.1567C69.1973 85.1567 66.5987 103.431 66.6755 110.351C66.7561 117.525 71.6154 133.212 71.6154 133.212Z" fill="black"/>
<path opacity="0.2" d="M73.9106 102.687C73.641 104.369 73.5292 106.073 73.5766 107.776C72.9165 109.642 72.3407 111.411 71.9377 112.985C71.2353 115.737 70.1222 119.913 69.0398 123.924C67.8614 119.226 66.7137 113.795 66.6792 110.332L73.9106 102.687Z" fill="black"/>
<path d="M73.4845 85.4561C73.4845 85.4561 67.7731 99.8881 65.6083 106.183C63.2362 113.061 59.4094 131.627 59.4094 131.627L63.0213 133.673C63.0213 133.673 68.6482 118.37 70.9781 111.672C73.6342 104.041 80.9577 91.985 81.2878 86.0548L73.4845 85.4561Z" fill="#90CAF9"/>
<path opacity="0.6" d="M73.4845 85.4561C73.4845 85.4561 67.7731 99.8881 65.6083 106.183C63.2362 113.061 59.4094 131.627 59.4094 131.627L63.0213 133.673C63.0213 133.673 68.6482 118.37 70.9781 111.672C73.6342 104.041 80.9577 91.985 81.2878 86.0548L73.4845 85.4561Z" fill="black"/>
<path d="M58.9336 131.443L63.1864 133.857L63.908 132.587L59.1984 129.808L58.9336 131.443Z" fill="#90CAF9"/>
<path d="M71.1318 133.293L75.707 133.366L75.7301 131.888L70.6174 131.727L71.1318 133.293Z" fill="#90CAF9"/>
<path d="M76.7664 57.6939C76.7664 57.8781 76.6436 58.0163 76.5246 58.0086C76.4056 58.001 76.3212 57.8436 76.3365 57.6632C76.3519 57.4828 76.4555 57.3408 76.5745 57.3484C76.6935 57.3561 76.7818 57.5135 76.7664 57.6939Z" fill="#263238"/>
<path d="M74.3406 57.5401C74.3406 57.7243 74.2216 57.8625 74.1026 57.8548C73.9836 57.8471 73.8953 57.6898 73.9107 57.5094C73.926 57.329 74.0297 57.187 74.1487 57.1946C74.2676 57.2023 74.3559 57.3597 74.3406 57.5401Z" fill="#263238"/>
<path d="M74.8895 57.6821C74.6296 58.223 74.2963 58.7254 73.8992 59.1752C74.0171 59.2739 74.1551 59.3457 74.3036 59.3854C74.4521 59.4252 74.6075 59.4321 74.759 59.4055L74.8895 57.6821Z" fill="#FF5652"/>
<path d="M74.6898 60.5803C74.8952 60.572 75.0967 60.5213 75.2816 60.4315C75.4666 60.3417 75.631 60.2146 75.7645 60.0583C75.7696 60.0533 75.7737 60.0473 75.7765 60.0408C75.7792 60.0342 75.7807 60.0271 75.7807 60.0199C75.7807 60.0128 75.7792 60.0057 75.7765 59.9991C75.7737 59.9925 75.7696 59.9866 75.7645 59.9816C75.7546 59.9724 75.7416 59.9673 75.7281 59.9673C75.7145 59.9673 75.7015 59.9724 75.6916 59.9816C75.5397 60.1511 75.3501 60.2825 75.1381 60.3651C74.9261 60.4478 74.6975 60.4795 74.471 60.4575C74.457 60.4574 74.4434 60.4624 74.4328 60.4716C74.4222 60.4808 74.4153 60.4935 74.4134 60.5074C74.4123 60.5146 74.4128 60.5219 74.4148 60.5289C74.4168 60.5358 74.4203 60.5423 74.425 60.5478C74.4298 60.5532 74.4357 60.5576 74.4423 60.5606C74.4489 60.5636 74.4561 60.5651 74.4633 60.565C74.5384 60.5753 74.614 60.5804 74.6898 60.5803Z" fill="#263238"/>
<path d="M77.1501 57.0759C77.1665 57.0792 77.1835 57.0792 77.2 57.0759C77.2119 57.0681 77.2221 57.058 77.2301 57.0463C77.2381 57.0346 77.2437 57.0213 77.2466 57.0074C77.2494 56.9935 77.2495 56.9791 77.2468 56.9652C77.244 56.9512 77.2386 56.938 77.2307 56.9262C77.1419 56.7809 77.0196 56.6591 76.874 56.5709C76.7284 56.4827 76.5638 56.4308 76.3939 56.4195C76.3797 56.419 76.3654 56.4214 76.3522 56.4266C76.3389 56.4318 76.3268 56.4397 76.3167 56.4498C76.3066 56.4599 76.2987 56.4719 76.2935 56.4852C76.2883 56.4985 76.2859 56.5127 76.2865 56.527C76.2865 56.5555 76.2978 56.5828 76.3179 56.603C76.3381 56.6231 76.3654 56.6345 76.3939 56.6345C76.5276 56.6458 76.6568 56.6886 76.7708 56.7593C76.8849 56.83 76.9806 56.9266 77.0503 57.0413C77.0625 57.0552 77.0782 57.0656 77.0956 57.0717C77.1131 57.0777 77.1319 57.0792 77.1501 57.0759Z" fill="#263238"/>
<path d="M73.4425 56.73C73.4604 56.7316 73.4783 56.7289 73.495 56.7222C73.5117 56.7156 73.5265 56.7051 73.5384 56.6917C73.6236 56.5871 73.7324 56.5044 73.8559 56.4504C73.9794 56.3963 74.114 56.3724 74.2485 56.3808C74.2765 56.384 74.3046 56.3762 74.3268 56.359C74.3491 56.3418 74.3637 56.3165 74.3675 56.2886C74.3697 56.2745 74.369 56.2601 74.3655 56.2462C74.3621 56.2323 74.3558 56.2193 74.3473 56.2079C74.3387 56.1964 74.3279 56.1868 74.3156 56.1796C74.3032 56.1724 74.2896 56.1677 74.2754 56.1658C74.1059 56.1537 73.936 56.1822 73.7798 56.2489C73.6236 56.3157 73.4856 56.4188 73.3772 56.5496C73.367 56.5597 73.3589 56.5716 73.3534 56.5848C73.3478 56.598 73.345 56.6121 73.345 56.6264C73.345 56.6407 73.3478 56.6549 73.3534 56.668C73.3589 56.6812 73.367 56.6932 73.3772 56.7032C73.3961 56.718 73.4187 56.7273 73.4425 56.73Z" fill="#263238"/>
<path d="M58.1199 134.825C58.2958 134.92 58.4827 134.994 58.6765 135.043C58.6843 135.049 58.6937 135.052 58.7033 135.052C58.713 135.052 58.7224 135.049 58.7302 135.043C58.7356 135.034 58.7384 135.024 58.7384 135.013C58.7384 135.002 58.7356 134.991 58.7302 134.982C58.6841 134.898 58.2696 134.145 57.9856 134.134C57.9544 134.133 57.9236 134.141 57.8966 134.157C57.8696 134.172 57.8473 134.195 57.832 134.222C57.8004 134.264 57.78 134.314 57.7726 134.366C57.7652 134.419 57.7711 134.472 57.7898 134.521C57.8635 134.656 57.9795 134.763 58.1199 134.825ZM58.5767 134.901C58.1928 134.779 57.9549 134.621 57.8973 134.472C57.8846 134.437 57.8808 134.4 57.8862 134.364C57.8916 134.328 57.9059 134.294 57.928 134.264C57.9337 134.253 57.9424 134.243 57.9533 134.236C57.9641 134.23 57.9766 134.226 57.9894 134.226C58.1353 134.234 58.4039 134.606 58.5767 134.901Z" fill="#90CAF9"/>
<path d="M58.6649 135.04H58.6918C58.7016 135.04 58.7113 135.037 58.7195 135.031C58.7277 135.026 58.7341 135.018 58.7379 135.009C58.7379 134.982 59.0257 134.387 58.9029 134.072C58.8892 134.033 58.8674 133.997 58.839 133.967C58.8106 133.936 58.7761 133.912 58.7379 133.896C58.7022 133.877 58.6615 133.871 58.622 133.878C58.5825 133.885 58.5464 133.905 58.5191 133.934C58.354 134.134 58.5191 134.786 58.6457 135.013C58.6486 135.024 58.6554 135.033 58.6649 135.04ZM58.7187 134.015C58.7583 134.038 58.7883 134.075 58.8031 134.118C58.8391 134.374 58.7976 134.635 58.6841 134.867C58.569 134.598 58.5037 134.13 58.6035 134.015C58.6035 134.015 58.6304 133.976 58.6956 134.015H58.7187Z" fill="#90CAF9"/>
<path d="M72.5019 136.341C72.5114 136.338 72.5198 136.333 72.5261 136.325C72.5323 136.318 72.5359 136.308 72.5364 136.299C72.5391 136.288 72.5379 136.277 72.5329 136.267C72.528 136.257 72.5197 136.249 72.5095 136.245C72.4097 136.187 71.5039 135.711 71.2276 135.861C71.2015 135.875 71.1795 135.895 71.1634 135.92C71.1473 135.945 71.1377 135.974 71.1354 136.003C71.1298 136.052 71.1355 136.101 71.1521 136.147C71.1688 136.193 71.1959 136.234 71.2314 136.268C71.477 136.491 72.1295 136.41 72.4942 136.345L72.5019 136.341ZM71.2966 135.957C71.6576 135.977 72.0081 136.085 72.3176 136.272C71.9817 136.37 71.6216 136.343 71.3043 136.195C71.281 136.173 71.2633 136.146 71.2526 136.116C71.2419 136.086 71.2386 136.054 71.2429 136.022C71.2424 136.01 71.2455 135.999 71.2516 135.988C71.2577 135.978 71.2667 135.97 71.2774 135.965L71.2966 135.957Z" fill="#90CAF9"/>
<path d="M72.5021 136.341C72.5095 136.335 72.5155 136.327 72.5195 136.319C72.5235 136.31 72.5254 136.3 72.5251 136.291C72.5063 135.969 72.3867 135.662 72.1835 135.412C72.1436 135.376 72.0968 135.349 72.0459 135.333C71.995 135.316 71.9412 135.311 71.8879 135.316C71.7421 135.316 71.696 135.4 71.6883 135.462C71.6423 135.719 72.1758 136.23 72.456 136.345C72.4713 136.349 72.4877 136.348 72.5021 136.341ZM71.8572 135.427H71.9148C71.9535 135.423 71.9925 135.427 72.0295 135.439C72.0666 135.451 72.1007 135.471 72.1297 135.496C72.2975 135.696 72.3983 135.943 72.4176 136.203C72.1413 136.03 71.7805 135.638 71.8073 135.485C71.8086 135.471 71.8141 135.458 71.823 135.448C71.832 135.438 71.8439 135.43 71.8572 135.427Z" fill="#90CAF9"/>
<path d="M84.0207 67.8037C84.5197 68.7326 84.9496 69.6499 85.3948 70.5826C85.8401 71.5154 86.2278 72.4673 86.6193 73.4268C87.0108 74.3864 87.3639 75.346 87.6902 76.3747L87.9243 77.1423L88.1316 77.91C88.2007 78.171 88.2544 78.4473 88.3158 78.7122L88.3619 78.9194L88.4041 79.1958C88.4293 79.3637 88.4459 79.5328 88.454 79.7025C88.4776 80.2831 88.4532 80.8646 88.381 81.4412C88.3196 81.9863 88.2429 82.5121 88.1508 83.0303C87.9627 84.0666 87.7324 85.0761 87.4752 86.0741C86.9633 88.0618 86.3496 90.0219 85.6367 91.9467L83.9977 91.4937C84.3393 89.5285 84.6694 87.5365 84.9611 85.5751C85.1031 84.5963 85.2336 83.6175 85.3219 82.6503C85.368 82.1705 85.4025 81.6946 85.4179 81.2301C85.4383 80.8012 85.4268 80.3714 85.3833 79.9443C85.3833 79.8637 85.3641 79.7562 85.345 79.7025L85.3219 79.6027L85.2759 79.4415C85.2068 79.2227 85.153 79.0039 85.0763 78.7813L84.8498 78.1134L84.6003 77.4417C84.2587 76.5397 83.8749 75.6415 83.4872 74.7549C83.0995 73.8682 82.6697 72.9586 82.2436 72.0681C81.8175 71.1776 81.38 70.2717 80.9578 69.4043L84.0207 67.8037Z" fill="#FF8B7B"/>
<path d="M83.4566 66.4376C85.084 66.9442 87.2373 73.692 88.0894 76.563C88.6306 77.0505 88.3581 77.941 88.3581 77.941L85.0456 79.4034C84.278 79.0195 83.802 78.2173 84.0899 77.822C82.355 74.5479 80.9924 72.0991 80.336 70.1454C79.3649 67.2513 80.954 65.6353 83.4566 66.4376Z" fill="#90CAF9"/>
<path d="M84.2357 78.6008C83.9018 78.8004 84.9266 79.8521 85.2567 80.1592C85.5868 80.4663 86.6884 79.6641 87.3754 79.4645C88.0625 79.2649 88.738 79.7792 88.8839 79.0576C88.9645 78.6738 88.8839 77.576 88.619 77.3457C87.9934 76.816 85.0417 78.1249 84.2357 78.6008Z" fill="#263238"/>
<path d="M84.4277 90.5264L82.6582 92.0003L84.8614 93.5893C84.8614 93.5893 86.3084 92.054 85.6598 91.1405L84.4277 90.5264Z" fill="#FF8B7B"/>
<path d="M81.6487 94.0617L83.8288 95.121L84.8613 93.5895L82.6582 92.0005L81.6487 94.0617Z" fill="#FF8B7B"/>
</svg>
