<svg width="372" height="457" viewBox="0 0 372 457" fill="none" xmlns="http://www.w3.org/2000/svg">
<path d="M245 457C109.904 457 0 354.498 0 228.5C0 102.502 109.904 0 245 0C380.096 0 490 102.502 490 228.5C490 354.498 380.096 457 245 457ZM245 2.88701C111.589 2.88701 3.0648 104.103 3.0648 228.529C3.0648 352.954 111.589 454.17 245 454.17C378.411 454.17 486.935 352.954 486.935 228.529C486.935 104.103 378.411 2.88701 245 2.88701Z" fill="#CFE3E4"/>
<path d="M245 434.932C122.96 434.932 23.6606 342.32 23.6606 228.499C23.6606 114.677 122.96 22.0654 245 22.0654C367.041 22.0654 466.34 114.677 466.34 228.499C466.34 342.348 367.071 434.932 245 434.932ZM245 27.8108C126.331 27.8108 29.7902 117.85 29.7902 228.527C29.7902 339.204 126.331 429.244 245 429.244C363.669 429.244 460.211 339.204 460.211 228.527C460.211 117.85 363.669 27.8108 245 27.8108Z" fill="#CFE3E4"/>
<path d="M245 377.623C156.857 377.623 85.1406 310.737 85.1406 228.529C85.1406 146.322 156.857 79.4355 245 79.4355C333.144 79.4355 404.86 146.322 404.86 228.529C404.891 310.737 333.175 377.623 245 377.623ZM245 85.1237C160.228 85.1237 91.2702 149.438 91.2702 228.501C91.2702 307.564 160.228 371.878 245 371.878C329.773 371.878 398.731 307.564 398.731 228.501C398.761 149.466 329.773 85.1237 245 85.1237Z" fill="#CFE3E4"/>
<path d="M245 351.983C171.997 351.983 112.601 296.587 112.601 228.5C112.601 160.413 171.997 105.018 245 105.018C318.004 105.018 377.4 160.413 377.4 228.5C377.4 296.616 318.035 351.983 245 351.983ZM245 107.904C173.683 107.904 115.666 162.014 115.666 228.529C115.666 295.044 173.683 349.153 245 349.153C316.318 349.153 374.335 295.044 374.335 228.529C374.335 162.014 316.318 107.904 245 107.904Z" fill="#CFE3E4"/>
<path d="M245 305.334C199.579 305.334 162.648 270.89 162.648 228.529C162.648 186.167 199.579 151.724 245 151.724C290.42 151.724 327.351 186.167 327.351 228.529C327.381 270.861 290.42 305.334 245 305.334ZM245 157.412C202.981 157.412 168.778 189.311 168.778 228.5C168.778 267.689 202.981 299.588 245 299.588C287.018 299.588 321.221 267.689 321.221 228.5C321.252 189.311 287.049 157.412 245 157.412Z" fill="#CFE3E4"/>
<path d="M244.999 266.688C222.443 266.688 204.084 249.566 204.084 228.528C204.084 207.49 222.443 190.34 244.999 190.34C267.556 190.34 285.945 207.462 285.945 228.528C285.945 249.566 267.587 266.688 244.999 266.688ZM244.999 193.198C224.128 193.198 207.149 209.034 207.149 228.528C207.149 248.022 224.128 263.829 244.999 263.829C265.871 263.829 282.881 247.994 282.881 228.528C282.881 209.062 265.901 193.198 244.999 193.198Z" fill="#CFE3E4"/>
</svg>
