<svg width="299" height="646" viewBox="0 0 299 646" fill="none" xmlns="http://www.w3.org/2000/svg">
<path d="M280.425 465.784C253.005 449.814 222.385 440.174 194.035 425.914C165.685 411.654 138.455 391.274 126.255 361.974C104.565 309.914 135.625 244.524 106.685 196.114C92.9254 173.094 68.3654 159.244 46.4054 143.844C24.4454 128.444 2.71542 107.834 0.225433 81.1238C-1.86456 58.7438 10.8054 36.7337 28.8054 23.2638C46.7954 9.78375 69.3854 3.79375 91.7254 1.35375C172.935 -7.53625 255.165 28.1437 313.535 85.3037C371.905 142.464 408.255 219.104 428.735 298.194C449.215 377.274 454.815 459.374 459.095 540.954C460.045 559.024 460.905 577.374 456.865 595.014C452.825 612.654 443.185 629.794 427.525 638.874C416.445 645.304 394.805 649.774 386.865 636.584C380.525 626.044 382.035 606.904 378.745 594.944C369.345 560.704 351.365 528.864 327.045 503.014C313.375 488.484 297.675 475.834 280.425 465.784Z" fill="#D0EBFF"/>
</svg>
