<svg width="441" height="335" viewBox="0 0 441 335" fill="none" xmlns="http://www.w3.org/2000/svg">
<path d="M222.617 228.883C198.441 211.071 139.532 263.634 103.732 238.465C71.2567 215.637 73.3823 158.04 93.5712 124.559C123.63 74.7246 195.266 47.2859 228.094 74.0132C266.179 105.027 229.267 148.197 250.1 172.899C270.527 197.122 273.984 180.715 319.055 172.286C360.976 164.443 388.274 206.74 362.714 240.824C311.011 309.777 262.73 315.234 237.893 292.082C214.097 269.893 235.547 238.411 222.617 228.883Z" fill="#9D78D9"/>
<path opacity="0.9" d="M222.617 228.883C198.441 211.071 139.532 263.634 103.732 238.465C71.2567 215.637 73.3823 158.04 93.5712 124.559C123.63 74.7246 195.266 47.2859 228.094 74.0132C266.179 105.027 229.267 148.197 250.1 172.899C270.527 197.122 273.984 180.715 319.055 172.286C360.976 164.443 388.274 206.74 362.714 240.824C311.011 309.777 262.73 315.234 237.893 292.082C214.097 269.893 235.547 238.411 222.617 228.883Z" fill="white"/>
<path d="M220.5 335C314.947 335 391.511 330.436 391.511 324.806C391.511 319.176 314.947 314.612 220.5 314.612C126.053 314.612 49.4893 319.176 49.4893 324.806C49.4893 330.436 126.053 335 220.5 335Z" fill="#F5F5F5"/>
<path d="M340.452 190.197C338.688 188.667 336.924 187.1 335.16 185.506L329.938 180.733C328.993 179.911 328.367 178.771 328.174 177.518C328.045 176.496 328.163 175.457 328.518 174.492C329.043 173.108 329.804 171.831 330.767 170.719C332.426 168.781 334.337 167.084 336.448 165.676L338.432 168.054C336.998 169.751 335.691 171.557 334.525 173.457C334.034 174.235 333.67 175.09 333.449 175.987C333.387 176.321 333.449 176.537 333.449 176.51C333.449 176.483 333.396 176.275 333.449 176.303L334.869 177.356L336.289 178.455C337.233 179.193 338.167 179.95 339.076 180.706C340.919 182.219 342.71 183.777 344.465 185.389L340.452 190.197Z" fill="#803E3C"/>
<path d="M343.821 191.872C340.681 192.341 333.431 184.83 333.431 184.83L338.397 179.022C340.823 180.596 343.073 182.435 345.109 184.506C348.002 187.586 347.261 191.359 343.821 191.872Z" fill="#9D78D9"/>
<path opacity="0.7" d="M343.821 191.872C340.681 192.341 333.431 184.83 333.431 184.83L338.397 179.022C340.823 180.596 343.073 182.435 345.109 184.506C348.002 187.586 347.261 191.359 343.821 191.872Z" fill="white"/>
<path d="M335.769 167.027L336.598 162.93L340.214 165.739C340.214 165.739 339.261 169.342 337.462 168.756L335.769 167.027Z" fill="#7F3E3B"/>
<path d="M339.367 159.913L341.669 163.398L340.214 165.74L336.598 162.93L339.367 159.913Z" fill="#7F3E3B"/>
<path opacity="0.2" d="M342.454 187.811C340.99 189.09 337.709 187.937 335.769 187.073C338.053 189.144 341.475 191.872 343.521 191.872C343.759 189.621 343.856 186.604 342.454 187.811Z" fill="black"/>
<path d="M322.953 315.324L318.905 313.82L321.136 303.869L325.185 305.364L322.953 315.324Z" fill="#7F3E3B"/>
<path d="M354.864 320.808H350.578L349.352 310.65H353.647L354.864 320.808Z" fill="#7F3E3B"/>
<path d="M350.013 320.304H355.243C355.329 320.302 355.413 320.33 355.481 320.384C355.548 320.439 355.595 320.515 355.614 320.601L356.496 324.5C356.516 324.595 356.514 324.692 356.492 324.786C356.47 324.88 356.427 324.968 356.366 325.042C356.306 325.117 356.23 325.176 356.144 325.217C356.058 325.257 355.964 325.277 355.869 325.274C354.185 325.274 352.959 325.148 350.833 325.148C349.528 325.148 345.594 325.283 343.777 325.283C341.96 325.283 341.722 323.482 342.463 323.302C345.762 322.564 348.249 321.546 349.298 320.601C349.392 320.505 349.504 320.43 349.626 320.379C349.749 320.328 349.88 320.302 350.013 320.304Z" fill="#9D78D9"/>
<path d="M318.764 312.982L323.359 313.991C323.442 314.011 323.516 314.057 323.57 314.124C323.624 314.191 323.655 314.274 323.659 314.36L323.721 318.349C323.723 318.446 323.704 318.542 323.664 318.629C323.625 318.717 323.566 318.794 323.493 318.855C323.42 318.916 323.334 318.959 323.242 318.981C323.15 319.002 323.054 319.002 322.962 318.98C321.313 318.593 318.931 317.962 316.85 317.512C314.415 316.972 312.907 316.476 310.05 315.846C308.286 315.468 308.197 313.586 308.956 313.577C312.396 313.577 314.477 314.252 317.679 313.09C318.023 312.952 318.399 312.914 318.764 312.982Z" fill="#9D78D9"/>
<path opacity="0.2" d="M321.136 303.869L319.99 309.002L324.038 310.497L325.185 305.373L321.136 303.869Z" fill="black"/>
<path opacity="0.2" d="M353.647 310.659H349.352L349.987 315.891H354.282L353.647 310.659Z" fill="black"/>
<path d="M367.424 187.424C365.606 192.262 364.133 197.228 363.014 202.282C362.211 205.605 361.585 208.793 361.091 211.693C359.927 218.492 359.459 223.724 359.054 225.462L336.518 220.806C336.351 195.592 343.768 183.66 343.768 183.66C345.602 183.561 347.44 183.576 349.272 183.705L350.454 183.813C353.682 184.283 356.88 184.944 360.033 185.794C360.632 185.947 361.241 186.118 361.797 186.298C363.633 186.854 365.517 187.23 367.424 187.424Z" fill="#9D78D9"/>
<path opacity="0.7" d="M367.424 187.424C365.606 192.262 364.133 197.228 363.014 202.282C362.211 205.605 361.585 208.793 361.091 211.693C359.927 218.492 359.459 223.724 359.054 225.462L336.518 220.806C336.351 195.592 343.768 183.66 343.768 183.66C345.602 183.561 347.44 183.576 349.272 183.705L350.454 183.813C353.682 184.283 356.88 184.944 360.033 185.794C360.632 185.947 361.241 186.118 361.797 186.298C363.633 186.854 365.517 187.23 367.424 187.424Z" fill="white"/>
<path d="M350.78 188.595C349.898 190.333 344.606 211.801 343.222 216.447C343.389 217.483 343.61 218.528 343.874 219.581C344.598 218.681 345.365 217.78 346.159 216.925C347.129 212.422 350.851 190.99 351.83 188.757L350.78 188.595Z" fill="#9D78D9"/>
<path d="M350.754 189.936L350.383 187.613L352.041 187.253L353.047 188.198L350.754 189.936Z" fill="#9D78D9"/>
<path d="M361.188 174.574C359.988 177.599 358.295 183.245 360.059 185.794C358.916 186.606 357.616 187.157 356.246 187.41C354.877 187.663 353.47 187.613 352.121 187.262C349.475 186.658 349.704 184.74 350.489 183.813C354.088 183.678 354.485 181.057 354.352 178.491L361.188 174.574Z" fill="#7F3E3B"/>
<path d="M352.042 187.244C352.042 187.244 352.782 188.766 353.7 190.305C355.64 189.738 360.226 188.09 360.553 185.713C360.416 185.179 360.105 184.709 359.671 184.38C357.296 185.749 354.719 186.716 352.042 187.244Z" fill="white"/>
<path d="M352.042 187.244C351.021 187.807 350.08 188.51 349.246 189.333C348.178 188.171 349.793 183.975 350.366 183.597C350.935 183.335 351.571 183.263 352.183 183.39C352.183 183.39 350.154 186.307 352.042 187.244Z" fill="white"/>
<path opacity="0.2" d="M358.392 176.176L354.343 178.491C354.397 179.09 354.397 179.693 354.343 180.292C355.693 180.373 357.774 179.274 358.18 177.896C358.355 177.342 358.427 176.758 358.392 176.176Z" fill="black"/>
<path d="M353.373 163.632C352.2 164.938 351.018 168.198 353.585 168.135C356.152 168.072 355.384 161.39 353.373 163.632Z" fill="#263238"/>
<path d="M363.225 170.836C361.655 174.88 360.941 177.329 358.224 178.743C354.141 180.877 349.766 177.275 350.119 172.827C350.436 168.819 352.941 162.921 357.422 162.597C358.413 162.535 359.403 162.73 360.3 163.164C361.196 163.599 361.971 164.258 362.551 165.081C363.13 165.904 363.496 166.864 363.614 167.87C363.732 168.877 363.598 169.897 363.225 170.836Z" fill="#7F3E3B"/>
<path d="M354.449 165.226C351.803 163.866 350.921 160.084 355.331 159.112L355.631 159.049C355.864 159.02 356.099 159.039 356.325 159.104C356.55 159.169 356.761 159.28 356.944 159.429C357.127 159.578 357.279 159.763 357.391 159.973C357.504 160.183 357.574 160.414 357.598 160.652C357.613 160.741 357.637 160.828 357.668 160.913C358.418 160.193 359.386 159.758 360.411 159.679C360.653 159.672 360.892 159.718 361.115 159.815C361.337 159.911 361.536 160.055 361.698 160.237C361.861 160.419 361.983 160.635 362.056 160.87C362.129 161.105 362.152 161.353 362.123 161.597C362.09 161.769 362.095 161.947 362.138 162.117C362.18 162.287 362.259 162.445 362.369 162.58C362.479 162.716 362.616 162.824 362.772 162.899C362.927 162.973 363.097 163.011 363.269 163.011C365.571 163.074 368.261 164.812 366.921 167.153C368.87 169.648 365.827 173.106 361.523 173.457C360.35 171.044 362.246 167.468 362.246 167.468C359.53 167.24 356.882 166.479 354.449 165.226Z" fill="#263238"/>
<path d="M366.303 167.243C366.546 167.226 366.782 167.15 366.991 167.021C367.199 166.891 367.374 166.713 367.501 166.5C367.628 166.288 367.703 166.047 367.72 165.799C367.738 165.551 367.696 165.302 367.6 165.073C369.073 166.325 367.997 167.496 366.303 167.243Z" fill="#263238"/>
<path d="M365.897 167.55C366.127 167.463 366.373 167.434 366.615 167.465C366.858 167.495 367.089 167.585 367.291 167.726C367.492 167.868 367.657 168.056 367.772 168.276C367.888 168.496 367.949 168.741 367.953 168.99C368.79 167.225 367.344 166.595 365.897 167.55Z" fill="#263238"/>
<path d="M363.684 174.799C363.373 175.239 362.978 175.611 362.524 175.892C362.069 176.174 361.564 176.359 361.038 176.438C359.636 176.645 359.106 175.312 359.636 174.051C360.165 172.791 361.4 171.44 362.749 171.809C363.042 171.894 363.31 172.051 363.529 172.267C363.747 172.483 363.91 172.751 364.003 173.047C364.096 173.344 364.115 173.658 364.059 173.964C364.004 174.27 363.875 174.556 363.684 174.799Z" fill="#7F3E3B"/>
<path d="M318.799 307.48L325.652 310.02C325.652 310.02 331.006 285.958 333.846 272.621C335.114 267.342 336.674 262.141 338.52 257.043C341.113 249.55 344.218 241.491 346.723 235.187C349.369 228.55 351.336 223.868 351.336 223.868L336.518 220.806C336.518 220.806 325.22 254.017 322.68 267.137C320.042 280.789 318.799 307.48 318.799 307.48Z" fill="#263238"/>
<path opacity="0.6" d="M338.521 257.043C341.114 249.55 344.218 241.491 346.723 235.187L345.577 231.585C341.334 235.574 338.688 249.37 338.521 257.043Z" fill="black"/>
<path d="M344.518 222.427C344.518 222.427 341.872 260.248 341.713 273.153C341.537 287.246 347.984 314.837 347.984 314.837H355.851C355.851 314.837 352.712 289.938 353.761 275.98C354.925 260.374 359.053 225.435 359.053 225.435L344.518 222.427Z" fill="#263238"/>
<path d="M347.049 315.054H356.31L356.284 312.226L346.617 311.65L347.049 315.054Z" fill="#263238"/>
<path d="M317.881 307.399L326.093 310.299L326.984 307.597L318.014 304.266L317.881 307.399Z" fill="#263238"/>
<path d="M356.734 169.882C356.628 170.224 356.363 170.431 356.151 170.359C355.94 170.287 355.852 169.954 355.957 169.621C356.063 169.288 356.319 169.071 356.54 169.143C356.76 169.215 356.839 169.549 356.734 169.882Z" fill="#263238"/>
<path d="M353.02 168.612C352.914 168.945 352.65 169.152 352.438 169.08C352.226 169.008 352.138 168.675 352.244 168.342C352.35 168.009 352.606 167.793 352.826 167.865C353.047 167.937 353.126 168.27 353.02 168.612Z" fill="#263238"/>
<path d="M354.149 169.179C353.424 170.034 352.588 170.783 351.662 171.404C351.84 171.637 352.064 171.829 352.319 171.968C352.574 172.108 352.855 172.192 353.144 172.214L354.149 169.179Z" fill="#630F0F"/>
<path d="M358.268 169.053C358.233 169.049 358.2 169.034 358.173 169.01C358.146 168.986 358.127 168.954 358.118 168.918C358.042 168.667 357.909 168.438 357.729 168.248C357.55 168.059 357.33 167.915 357.086 167.829C357.06 167.823 357.036 167.811 357.015 167.795C356.993 167.778 356.975 167.758 356.962 167.734C356.949 167.71 356.941 167.684 356.938 167.657C356.935 167.63 356.937 167.603 356.945 167.577C356.958 167.525 356.99 167.48 357.034 167.451C357.079 167.422 357.132 167.413 357.184 167.423C357.492 167.528 357.772 167.706 358 167.943C358.229 168.179 358.399 168.467 358.498 168.783C358.515 168.835 358.511 168.891 358.488 168.94C358.465 168.988 358.424 169.026 358.374 169.044C358.341 169.06 358.304 169.064 358.268 169.053Z" fill="#263238"/>
<path d="M351.838 166.748C351.799 166.741 351.762 166.722 351.733 166.694C351.697 166.653 351.678 166.6 351.678 166.545C351.678 166.491 351.697 166.438 351.733 166.397C351.956 166.155 352.232 165.972 352.539 165.862C352.846 165.752 353.175 165.72 353.497 165.767C353.548 165.779 353.593 165.812 353.622 165.857C353.652 165.902 353.663 165.956 353.655 166.01C353.651 166.037 353.642 166.063 353.627 166.086C353.613 166.109 353.594 166.129 353.571 166.144C353.549 166.159 353.524 166.17 353.497 166.175C353.471 166.179 353.443 166.178 353.417 166.172C353.164 166.138 352.906 166.168 352.666 166.259C352.426 166.35 352.212 166.499 352.041 166.694C352.019 166.725 351.986 166.748 351.949 166.757C351.912 166.767 351.873 166.764 351.838 166.748Z" fill="#263238"/>
<path d="M348.593 321.069C348.3 321.088 348.009 321.009 347.764 320.844C347.687 320.777 347.628 320.692 347.591 320.596C347.554 320.5 347.541 320.397 347.552 320.295C347.553 320.235 347.569 320.176 347.598 320.124C347.627 320.072 347.669 320.028 347.72 319.997C348.196 319.754 349.59 320.619 349.748 320.718C349.759 320.734 349.764 320.753 349.764 320.772C349.764 320.791 349.759 320.81 349.748 320.826C349.745 320.845 349.736 320.862 349.724 320.876C349.711 320.89 349.696 320.901 349.678 320.907C349.323 321 348.959 321.054 348.593 321.069ZM347.949 320.169C347.906 320.158 347.86 320.158 347.817 320.169C347.817 320.169 347.755 320.169 347.755 320.286C347.746 320.356 347.754 320.427 347.779 320.493C347.803 320.559 347.844 320.618 347.896 320.664C348.375 320.893 348.923 320.922 349.422 320.745C348.973 320.455 348.473 320.256 347.949 320.16V320.169Z" fill="#9D78D9"/>
<path d="M349.695 320.916H349.642C349.201 320.673 348.328 319.709 348.416 319.223C348.431 319.147 348.47 319.079 348.528 319.03C348.586 318.981 348.659 318.954 348.734 318.953C348.812 318.94 348.892 318.945 348.968 318.966C349.044 318.988 349.115 319.027 349.175 319.079C349.548 319.581 349.763 320.187 349.792 320.817C349.801 320.832 349.805 320.849 349.805 320.866C349.805 320.884 349.801 320.901 349.792 320.916H349.695ZM348.813 319.115H348.76C348.628 319.115 348.619 319.196 348.619 319.223C348.566 319.511 349.122 320.241 349.563 320.583C349.529 320.081 349.347 319.601 349.043 319.205C348.977 319.154 348.896 319.128 348.813 319.133V319.115Z" fill="#9D78D9"/>
<path d="M318.226 313.478C317.52 313.478 316.277 313.37 315.897 312.847C315.842 312.773 315.805 312.685 315.79 312.593C315.774 312.5 315.781 312.405 315.809 312.316C315.824 312.261 315.852 312.211 315.89 312.171C315.929 312.13 315.977 312.099 316.03 312.082C316.603 311.902 318.111 313.145 318.288 313.289C318.3 313.306 318.306 313.326 318.306 313.347C318.306 313.368 318.3 313.389 318.288 313.406C318.285 313.422 318.278 313.438 318.267 313.451C318.256 313.464 318.242 313.473 318.226 313.478ZM316.118 312.28C316.096 312.288 316.077 312.301 316.062 312.319C316.046 312.336 316.035 312.357 316.03 312.379C316.011 312.438 316.007 312.501 316.017 312.563C316.028 312.624 316.054 312.681 316.091 312.73C316.628 313.125 317.285 313.31 317.944 313.253C317.423 312.779 316.796 312.445 316.118 312.28Z" fill="#9D78D9"/>
<path d="M318.226 313.478C318.215 313.484 318.203 313.487 318.19 313.487C318.178 313.487 318.166 313.484 318.155 313.478C317.696 313.136 316.876 311.992 317.044 311.524C317.088 311.416 317.194 311.289 317.476 311.317C317.68 311.344 317.867 311.45 317.996 311.614C318.285 312.165 318.396 312.795 318.314 313.415C318.312 313.434 318.306 313.453 318.295 313.468C318.284 313.484 318.269 313.497 318.252 313.505L318.226 313.478ZM317.344 311.506C317.255 311.506 317.238 311.56 317.229 311.578C317.123 311.857 317.661 312.739 318.111 313.172C318.158 312.669 318.056 312.165 317.82 311.722C317.726 311.602 317.59 311.524 317.441 311.506H317.344Z" fill="#9D78D9"/>
<path opacity="0.2" d="M364.795 189.936L361.761 191.242V193.196C361.761 193.196 362.29 197.14 363.94 198.599C364.61 195.979 365.377 193.196 366.268 190.585C365.793 190.333 365.301 190.116 364.795 189.936Z" fill="black"/>
<path d="M365.43 188.604C366.665 188.405 367.997 188.225 369.267 187.991C370.537 187.757 371.825 187.55 373.068 187.28C374.259 187.043 375.437 186.742 376.596 186.379C377.041 186.225 377.477 186.045 377.902 185.839C377.942 185.806 377.987 185.779 378.034 185.758C377.973 185.828 377.917 185.904 377.866 185.983C377.743 186.235 377.813 186.199 377.866 186.082C377.954 185.629 377.986 185.166 377.963 184.704C377.949 184.102 377.902 183.5 377.822 182.903C377.69 181.634 377.452 180.337 377.214 179.022C376.976 177.707 376.693 176.393 376.385 175.069C376.076 173.745 375.785 172.367 375.503 171.107L378.369 169.999C379.013 171.269 379.56 172.547 380.133 173.844C380.706 175.141 381.156 176.465 381.624 177.806C382.103 179.176 382.509 180.571 382.841 181.985C383.017 182.739 383.153 183.503 383.247 184.272C383.376 185.167 383.39 186.075 383.291 186.974C383.198 187.697 382.961 188.392 382.594 189.018C382.459 189.243 382.302 189.454 382.126 189.648C381.959 189.837 381.879 189.891 381.756 190.017C381.544 190.218 381.321 190.404 381.086 190.576C380.357 191.084 379.58 191.515 378.766 191.863C377.391 192.444 375.976 192.92 374.532 193.286C371.801 194.011 369.021 194.529 366.215 194.835L365.43 188.604Z" fill="#803E3C"/>
<path d="M362.908 194.358C365.413 196.312 374.559 194.295 374.559 194.295L373.086 186.235C370.334 186.472 367.61 186.963 364.945 187.703C360.659 188.955 359.856 191.998 362.908 194.358Z" fill="#9D78D9"/>
<path opacity="0.7" d="M362.908 194.358C365.413 196.312 374.559 194.295 374.559 194.295L373.086 186.235C370.334 186.472 367.61 186.963 364.945 187.703C360.659 188.955 359.856 191.998 362.908 194.358Z" fill="white"/>
<path d="M378.793 170.999L379.101 166.757L374.171 168.666C374.171 168.666 374.7 172.331 376.64 172.268L378.793 170.999Z" fill="#7F3E3B"/>
<path d="M377.205 163.848L373.201 165.631L374.171 168.666L379.101 166.757L377.205 163.848Z" fill="#7F3E3B"/>
<path d="M352.271 173.673C353.535 173.577 354.806 173.611 356.063 173.772C355.857 174.263 355.493 174.668 355.031 174.918C354.569 175.169 354.037 175.251 353.523 175.15C353.342 175.148 353.164 175.106 353 175.029C352.836 174.951 352.69 174.839 352.572 174.699C352.453 174.559 352.365 174.396 352.314 174.219C352.262 174.042 352.247 173.856 352.271 173.673Z" fill="white"/>
<path d="M192.805 53.3284H203.01L219.186 239.275H208.981C206.661 239.231 204.437 238.322 202.728 236.72C201.019 235.118 199.943 232.933 199.702 230.576L185.035 62.0364C184.914 60.9285 185.026 59.8071 185.364 58.747C185.701 57.6869 186.256 56.7123 186.991 55.8883C187.726 55.0643 188.625 54.4098 189.628 53.9684C190.63 53.527 191.714 53.3088 192.805 53.3284Z" fill="#9D78D9"/>
<path d="M323.42 239.275H212.006C209.406 239.237 206.91 238.223 204.995 236.426C203.08 234.629 201.881 232.175 201.625 229.532L187.363 63.081C187.229 61.8393 187.355 60.5827 187.734 59.3949C188.113 58.2071 188.735 57.1153 189.56 56.1925C190.384 55.2696 191.392 54.5368 192.516 54.043C193.64 53.5491 194.854 53.3055 196.077 53.3284H307.483C310.082 53.3782 312.574 54.3975 314.488 56.1941C316.402 57.9908 317.606 60.4404 317.873 63.081L332.135 229.532C332.268 230.773 332.14 232.028 331.761 233.215C331.381 234.402 330.759 235.492 329.934 236.414C329.11 237.336 328.102 238.068 326.979 238.561C325.856 239.055 324.643 239.298 323.42 239.275Z" fill="#9D78D9"/>
<path opacity="0.5" d="M323.42 239.275H212.006C209.406 239.237 206.91 238.223 204.995 236.426C203.08 234.629 201.881 232.175 201.625 229.532L187.363 63.081C187.229 61.8393 187.355 60.5827 187.734 59.3949C188.113 58.2071 188.735 57.1153 189.56 56.1925C190.384 55.2696 191.392 54.5368 192.516 54.043C193.64 53.5491 194.854 53.3055 196.077 53.3284H307.483C310.082 53.3782 312.574 54.3975 314.488 56.1941C316.402 57.9908 317.606 60.4404 317.873 63.081L332.135 229.532C332.268 230.773 332.14 232.028 331.761 233.215C331.381 234.402 330.759 235.492 329.934 236.414C329.11 237.336 328.102 238.068 326.979 238.561C325.856 239.055 324.643 239.298 323.42 239.275Z" fill="white"/>
<path opacity="0.2" d="M213.118 218.032H322.248L308.444 59.4609H199.314L213.118 218.032Z" fill="black"/>
<path d="M217.889 215.862H327.019L308.444 59.4609H199.314L217.889 215.862Z" fill="#9D78D9"/>
<path opacity="0.8" d="M217.889 215.862H327.019L308.444 59.4609H199.314L217.889 215.862Z" fill="white"/>
<path d="M301.75 102.749H233.483C233.099 102.74 232.732 102.589 232.45 102.324C232.167 102.058 231.989 101.697 231.948 101.308C231.928 101.124 231.947 100.938 232.003 100.762C232.058 100.585 232.15 100.424 232.272 100.286C232.394 100.149 232.543 100.04 232.709 99.9664C232.875 99.8925 233.055 99.8555 233.236 99.8579H301.503C301.889 99.8648 302.26 100.016 302.544 100.283C302.829 100.551 303.007 100.915 303.046 101.308C303.065 101.492 303.045 101.678 302.988 101.853C302.931 102.029 302.839 102.19 302.716 102.326C302.593 102.463 302.444 102.571 302.277 102.644C302.111 102.716 301.931 102.752 301.75 102.749Z" fill="#263238"/>
<path d="M299.624 110.952H222.14C221.755 110.945 221.385 110.794 221.102 110.526C220.819 110.259 220.642 109.894 220.606 109.502C220.584 109.319 220.602 109.132 220.657 108.956C220.712 108.78 220.804 108.618 220.926 108.481C221.048 108.344 221.198 108.236 221.365 108.164C221.532 108.091 221.712 108.056 221.893 108.062H299.377C299.762 108.066 300.131 108.216 300.415 108.482C300.698 108.748 300.875 109.111 300.912 109.502C300.933 109.687 300.916 109.873 300.861 110.05C300.805 110.227 300.714 110.389 300.591 110.527C300.469 110.664 300.32 110.773 300.153 110.847C299.986 110.92 299.806 110.956 299.624 110.952Z" fill="#263238"/>
<path d="M303.161 119.147H222.846C222.461 119.142 222.09 118.993 221.805 118.727C221.521 118.461 221.342 118.098 221.303 117.706C221.283 117.521 221.301 117.334 221.358 117.158C221.414 116.981 221.507 116.819 221.629 116.681C221.752 116.544 221.902 116.435 222.069 116.362C222.237 116.289 222.417 116.253 222.599 116.256H302.914C303.3 116.263 303.669 116.415 303.952 116.682C304.235 116.95 304.412 117.314 304.449 117.706C304.471 117.89 304.453 118.076 304.398 118.253C304.342 118.429 304.251 118.591 304.128 118.728C304.006 118.864 303.856 118.973 303.69 119.045C303.523 119.117 303.342 119.152 303.161 119.147Z" fill="#263238"/>
<path d="M293.944 127.351H223.552C223.165 127.344 222.795 127.192 222.51 126.925C222.226 126.658 222.047 126.293 222.008 125.901C221.99 125.718 222.009 125.532 222.066 125.357C222.122 125.182 222.214 125.022 222.336 124.885C222.457 124.749 222.606 124.641 222.771 124.568C222.937 124.494 223.116 124.458 223.296 124.46H293.706C294.09 124.467 294.459 124.617 294.742 124.883C295.024 125.148 295.202 125.51 295.241 125.901C295.261 126.085 295.242 126.272 295.186 126.449C295.13 126.626 295.037 126.788 294.914 126.926C294.791 127.063 294.641 127.172 294.474 127.245C294.307 127.318 294.126 127.354 293.944 127.351Z" fill="#263238"/>
<path d="M304.564 135.554H236.297C235.91 135.547 235.54 135.396 235.255 135.129C234.971 134.862 234.792 134.497 234.753 134.104C234.735 133.92 234.754 133.734 234.811 133.558C234.868 133.382 234.961 133.22 235.083 133.083C235.206 132.946 235.355 132.837 235.522 132.763C235.688 132.689 235.868 132.652 236.05 132.655H304.29C304.677 132.661 305.047 132.813 305.332 133.08C305.616 133.347 305.795 133.712 305.834 134.104C305.854 134.287 305.836 134.472 305.781 134.646C305.726 134.821 305.636 134.982 305.516 135.119C305.396 135.256 305.249 135.365 305.085 135.44C304.921 135.515 304.743 135.554 304.564 135.554Z" fill="#263238"/>
<path d="M301.723 143.749H224.989C224.604 143.742 224.235 143.592 223.95 143.327C223.666 143.062 223.487 142.699 223.446 142.308C223.426 142.123 223.444 141.936 223.501 141.76C223.557 141.583 223.65 141.421 223.772 141.283C223.895 141.146 224.045 141.037 224.212 140.964C224.38 140.891 224.56 140.855 224.742 140.858H301.476C301.863 140.865 302.233 141.016 302.518 141.284C302.802 141.551 302.981 141.915 303.02 142.308C303.039 142.492 303.019 142.678 302.962 142.854C302.905 143.029 302.812 143.191 302.69 143.327C302.567 143.463 302.418 143.571 302.251 143.644C302.084 143.717 301.904 143.752 301.723 143.749Z" fill="#263238"/>
<path d="M305.966 151.953H225.704C225.317 151.946 224.947 151.794 224.662 151.527C224.378 151.26 224.199 150.896 224.16 150.503C224.14 150.319 224.159 150.133 224.214 149.957C224.27 149.781 224.362 149.619 224.484 149.481C224.606 149.344 224.755 149.235 224.921 149.161C225.087 149.088 225.267 149.051 225.448 149.053H305.763C306.149 149.06 306.52 149.211 306.804 149.478C307.089 149.746 307.268 150.11 307.306 150.503C307.327 150.691 307.307 150.882 307.248 151.062C307.19 151.242 307.093 151.407 306.965 151.545C306.838 151.683 306.682 151.791 306.51 151.862C306.337 151.932 306.151 151.963 305.966 151.953Z" fill="#263238"/>
<path d="M301 160.147H226.357C225.972 160.142 225.602 159.993 225.319 159.727C225.036 159.461 224.859 159.098 224.822 158.706C224.8 158.522 224.818 158.335 224.873 158.159C224.928 157.982 225.02 157.819 225.142 157.682C225.264 157.545 225.414 157.436 225.581 157.362C225.748 157.289 225.928 157.253 226.11 157.257H300.762C301.149 157.263 301.519 157.415 301.804 157.682C302.088 157.949 302.267 158.314 302.306 158.706C302.326 158.892 302.307 159.079 302.25 159.256C302.193 159.433 302.1 159.595 301.976 159.732C301.852 159.869 301.701 159.976 301.532 160.048C301.364 160.12 301.183 160.154 301 160.147Z" fill="#263238"/>
<g opacity="0.3">
<path d="M301.75 102.749H233.483C233.1 102.74 232.732 102.589 232.45 102.324C232.168 102.058 231.989 101.697 231.949 101.308C231.929 101.124 231.947 100.938 232.003 100.762C232.059 100.585 232.151 100.424 232.272 100.286C232.394 100.149 232.543 100.04 232.709 99.9664C232.876 99.8925 233.055 99.8556 233.236 99.858H301.503C301.89 99.8648 302.26 100.016 302.545 100.283C302.829 100.551 303.008 100.915 303.047 101.308C303.066 101.492 303.046 101.678 302.989 101.853C302.932 102.029 302.839 102.19 302.717 102.327C302.594 102.463 302.444 102.571 302.278 102.644C302.111 102.716 301.931 102.752 301.75 102.749Z" fill="white"/>
<path d="M299.625 110.952H222.141C221.755 110.945 221.386 110.794 221.103 110.526C220.82 110.259 220.643 109.894 220.606 109.502C220.585 109.319 220.602 109.132 220.657 108.956C220.713 108.78 220.805 108.618 220.927 108.481C221.049 108.344 221.199 108.236 221.366 108.164C221.532 108.091 221.713 108.056 221.894 108.062H299.378C299.762 108.066 300.132 108.216 300.415 108.482C300.698 108.748 300.875 109.111 300.912 109.502C300.934 109.687 300.916 109.873 300.861 110.05C300.806 110.227 300.714 110.389 300.592 110.527C300.47 110.664 300.32 110.773 300.153 110.847C299.987 110.92 299.806 110.956 299.625 110.952Z" fill="white"/>
<path d="M303.161 119.147H222.846C222.461 119.142 222.09 118.993 221.805 118.727C221.521 118.461 221.342 118.098 221.303 117.706C221.283 117.521 221.301 117.334 221.358 117.158C221.414 116.981 221.507 116.819 221.629 116.681C221.752 116.544 221.902 116.435 222.069 116.362C222.237 116.289 222.417 116.253 222.599 116.256H302.914C303.3 116.263 303.669 116.415 303.952 116.682C304.235 116.95 304.412 117.314 304.449 117.706C304.471 117.89 304.453 118.076 304.398 118.253C304.342 118.429 304.251 118.591 304.128 118.728C304.006 118.864 303.856 118.973 303.69 119.045C303.523 119.117 303.342 119.152 303.161 119.147Z" fill="white"/>
<path d="M293.944 127.351H223.552C223.165 127.344 222.795 127.192 222.51 126.925C222.226 126.658 222.047 126.293 222.008 125.901C221.99 125.718 222.009 125.532 222.066 125.357C222.122 125.182 222.214 125.022 222.336 124.885C222.457 124.749 222.606 124.641 222.771 124.568C222.937 124.494 223.116 124.458 223.296 124.46H293.706C294.09 124.467 294.459 124.617 294.742 124.883C295.024 125.148 295.202 125.511 295.241 125.901C295.261 126.086 295.242 126.272 295.186 126.449C295.13 126.626 295.037 126.788 294.914 126.926C294.791 127.063 294.641 127.172 294.474 127.245C294.307 127.318 294.126 127.354 293.944 127.351Z" fill="white"/>
<path d="M304.564 135.554H236.297C235.91 135.547 235.54 135.396 235.255 135.129C234.971 134.862 234.792 134.497 234.753 134.104C234.735 133.92 234.754 133.734 234.811 133.558C234.868 133.382 234.961 133.22 235.083 133.083C235.206 132.946 235.355 132.837 235.522 132.763C235.688 132.689 235.868 132.652 236.05 132.655H304.29C304.677 132.661 305.047 132.813 305.332 133.08C305.616 133.347 305.795 133.712 305.834 134.104C305.854 134.287 305.836 134.472 305.781 134.646C305.726 134.821 305.636 134.982 305.516 135.119C305.396 135.256 305.249 135.365 305.085 135.44C304.921 135.515 304.743 135.554 304.564 135.554Z" fill="white"/>
<path d="M301.724 143.749H224.99C224.605 143.742 224.235 143.592 223.951 143.327C223.667 143.062 223.487 142.699 223.446 142.308C223.426 142.123 223.445 141.936 223.501 141.76C223.558 141.583 223.65 141.421 223.773 141.283C223.896 141.146 224.046 141.037 224.213 140.964C224.38 140.891 224.561 140.855 224.743 140.858H301.477C301.863 140.865 302.234 141.017 302.518 141.284C302.803 141.551 302.982 141.915 303.02 142.308C303.039 142.492 303.019 142.678 302.962 142.854C302.906 143.029 302.813 143.191 302.69 143.327C302.568 143.463 302.418 143.571 302.251 143.644C302.085 143.717 301.905 143.753 301.724 143.749Z" fill="white"/>
<path d="M305.966 151.953H225.704C225.318 151.946 224.947 151.794 224.663 151.527C224.378 151.26 224.199 150.896 224.161 150.503C224.141 150.319 224.159 150.133 224.215 149.957C224.271 149.781 224.363 149.619 224.484 149.482C224.606 149.344 224.755 149.235 224.921 149.161C225.087 149.088 225.267 149.051 225.448 149.053H305.763C306.15 149.06 306.52 149.211 306.805 149.478C307.089 149.746 307.268 150.11 307.307 150.503C307.328 150.691 307.308 150.882 307.249 151.062C307.19 151.242 307.093 151.407 306.966 151.545C306.838 151.683 306.683 151.791 306.51 151.862C306.337 151.932 306.152 151.963 305.966 151.953Z" fill="white"/>
<path d="M301 160.147H226.357C225.972 160.142 225.602 159.993 225.319 159.727C225.036 159.461 224.859 159.098 224.822 158.707C224.8 158.522 224.818 158.336 224.873 158.159C224.928 157.982 225.02 157.819 225.142 157.682C225.264 157.545 225.414 157.436 225.581 157.362C225.748 157.289 225.928 157.253 226.11 157.257H300.762C301.149 157.264 301.519 157.415 301.804 157.682C302.088 157.949 302.267 158.314 302.306 158.707C302.326 158.892 302.307 159.079 302.25 159.256C302.193 159.433 302.1 159.595 301.976 159.732C301.852 159.869 301.701 159.976 301.532 160.048C301.364 160.12 301.183 160.154 301 160.147Z" fill="white"/>
</g>
<path d="M238.44 77.8764H240.53L241.165 85.3597H245.699L245.849 87.0977H239.225L238.44 77.8764Z" fill="#263238"/>
<path d="M248.662 86.6294C247.893 86.2366 247.235 85.651 246.748 84.9274C246.25 84.2067 245.946 83.3653 245.866 82.4871C245.774 81.6451 245.924 80.7939 246.298 80.0377C246.658 79.3189 247.22 78.7262 247.912 78.3357C248.675 77.9113 249.532 77.6971 250.4 77.7143C251.298 77.7052 252.184 77.9184 252.984 78.3357C253.748 78.7361 254.405 79.3202 254.898 80.0377C255.4 80.7598 255.704 81.6052 255.78 82.4871C255.872 83.3262 255.722 84.1745 255.348 84.9274C254.984 85.6466 254.419 86.239 253.725 86.6294C252.967 87.0558 252.112 87.2702 251.246 87.2508C250.349 87.2599 249.462 87.0467 248.662 86.6294ZM252.508 85.0625C252.895 84.8057 253.202 84.4398 253.39 84.0089C253.599 83.532 253.678 83.0062 253.619 82.4871C253.583 81.9425 253.413 81.416 253.125 80.9562C252.848 80.517 252.466 80.1564 252.016 79.9077C251.566 79.659 251.062 79.5302 250.55 79.5334C250.051 79.5236 249.56 79.6545 249.13 79.9116C248.74 80.1615 248.432 80.5255 248.248 80.9562C248.031 81.4341 247.949 81.9641 248.01 82.4871C248.046 83.0288 248.216 83.5524 248.503 84.0089C248.78 84.4479 249.159 84.8099 249.606 85.0625C250.063 85.3077 250.572 85.4345 251.088 85.4317C251.585 85.442 252.076 85.3144 252.508 85.0625Z" fill="#263238"/>
<path d="M263.4 85.1166H259.211L258.576 87.0977H256.433L259.67 77.8764H261.733L266.567 87.0977H264.371L263.4 85.1166ZM262.607 83.4956L260.843 79.9656L259.714 83.4956H262.607Z" fill="#263238"/>
<path d="M274.999 77.8764L275.784 87.0977H274.073L269.089 81.4965L269.566 87.0977H267.502L266.717 77.8764H268.481L273.446 83.4686L272.97 77.8764H274.999Z" fill="#263238"/>
<g opacity="0.3">
<path d="M238.44 77.8764H240.53L241.165 85.3597H245.699L245.849 87.0977H239.225L238.44 77.8764Z" fill="white"/>
<path d="M248.662 86.6294C247.893 86.2365 247.235 85.6509 246.748 84.9274C246.25 84.2067 245.946 83.3652 245.866 82.487C245.774 81.645 245.924 80.7939 246.298 80.0376C246.658 79.3188 247.22 78.7262 247.912 78.3357C248.675 77.9113 249.532 77.6971 250.4 77.7143C251.298 77.7052 252.184 77.9184 252.984 78.3357C253.748 78.7361 254.405 79.3202 254.898 80.0376C255.4 80.7597 255.704 81.6051 255.78 82.487C255.872 83.3261 255.722 84.1745 255.348 84.9274C254.984 85.6465 254.419 86.239 253.725 86.6294C252.967 87.0558 252.112 87.2701 251.246 87.2507C250.349 87.2599 249.462 87.0467 248.662 86.6294ZM252.508 85.0625C252.895 84.8057 253.202 84.4397 253.39 84.0089C253.599 83.532 253.678 83.0062 253.619 82.487C253.583 81.9425 253.413 81.416 253.125 80.9561C252.848 80.517 252.466 80.1563 252.016 79.9076C251.566 79.6589 251.062 79.5302 250.55 79.5333C250.051 79.5236 249.56 79.6544 249.13 79.9116C248.74 80.1614 248.432 80.5254 248.248 80.9561C248.031 81.4341 247.949 81.9641 248.01 82.487C248.046 83.0288 248.216 83.5523 248.503 84.0089C248.78 84.4479 249.159 84.8099 249.606 85.0625C250.063 85.3077 250.572 85.4345 251.088 85.4317C251.585 85.4419 252.076 85.3143 252.508 85.0625Z" fill="white"/>
<path d="M263.4 85.1165H259.211L258.576 87.0977H256.433L259.67 77.8764H261.733L266.567 87.0977H264.371L263.4 85.1165ZM262.607 83.4956L260.843 79.9656L259.714 83.4956H262.607Z" fill="white"/>
<path d="M274.999 77.8764L275.784 87.0977H274.073L269.089 81.4965L269.566 87.0977H267.502L266.717 77.8764H268.481L273.446 83.4686L272.97 77.8764H274.999Z" fill="white"/>
</g>
<path d="M304.916 204.525H280.961C280.576 204.518 280.206 204.368 279.922 204.103C279.638 203.837 279.458 203.475 279.417 203.084C279.399 202.899 279.419 202.713 279.475 202.537C279.532 202.361 279.625 202.199 279.747 202.062C279.87 201.925 280.019 201.816 280.186 201.743C280.352 201.669 280.532 201.632 280.714 201.634H304.669C305.056 201.641 305.426 201.792 305.711 202.059C305.995 202.327 306.174 202.691 306.213 203.084C306.231 203.268 306.212 203.454 306.155 203.629C306.098 203.805 306.005 203.966 305.882 204.103C305.76 204.239 305.61 204.347 305.444 204.42C305.277 204.492 305.097 204.528 304.916 204.525Z" fill="#263238"/>
<path d="M279.215 199.527C279.167 199.469 279.131 199.401 279.109 199.329C279.087 199.256 279.079 199.18 279.087 199.104C279.094 199.029 279.116 198.956 279.152 198.889C279.188 198.822 279.236 198.764 279.294 198.716C280.988 197.447 282.822 195.952 284.586 194.457C285.127 191.467 286.542 188.714 288.644 186.559C290.02 185.344 291.043 185.488 291.66 185.83C291.864 185.934 292.04 186.088 292.172 186.278C292.305 186.468 292.389 186.688 292.419 186.92C292.639 188.721 289.129 192.179 285.671 195.15C285.601 195.637 285.644 196.133 285.795 196.6C285.861 196.781 285.982 196.936 286.141 197.042C286.3 197.147 286.488 197.198 286.677 197.185C288.617 197.312 289.676 196.285 290.69 195.258C291.845 194.115 293.027 192.944 295.197 194.025C297.102 194.988 297.146 195.952 297.04 196.78C297.024 196.876 297.024 196.973 297.04 197.068C297.577 197.333 298.164 197.475 298.76 197.483C299.9 197.614 301.052 197.392 302.066 196.846C303.081 196.3 303.911 195.455 304.449 194.421C304.524 194.301 304.64 194.216 304.775 194.182C304.91 194.149 305.052 194.17 305.172 194.241C305.246 194.275 305.312 194.325 305.366 194.386C305.421 194.448 305.462 194.52 305.489 194.598C305.515 194.676 305.526 194.759 305.52 194.842C305.514 194.924 305.492 195.005 305.455 195.078C304.817 196.302 303.833 197.3 302.631 197.943C301.428 198.586 300.064 198.843 298.716 198.68C297.234 198.491 296.52 198.23 296.141 197.78C296.02 197.611 295.937 197.417 295.898 197.211C295.858 197.006 295.863 196.794 295.911 196.591C295.973 196.123 296.017 195.763 294.773 195.132C293.53 194.502 292.727 195.024 291.554 196.195C290.381 197.366 289.146 198.581 286.721 198.419C286.299 198.407 285.889 198.268 285.545 198.017C285.201 197.767 284.938 197.418 284.789 197.014C284.682 196.744 284.613 196.459 284.586 196.168C282.734 197.708 281.058 199.022 280.053 199.77C279.982 199.811 279.905 199.838 279.824 199.848C279.744 199.858 279.662 199.851 279.584 199.829C279.506 199.806 279.433 199.768 279.37 199.716C279.306 199.664 279.254 199.6 279.215 199.527ZM290.857 186.758C290.333 186.836 289.847 187.085 289.473 187.469C287.93 189.048 286.786 190.985 286.139 193.115C289.12 190.414 291.431 187.973 291.298 186.956C291.298 186.911 291.298 186.884 291.21 186.839C291.101 186.781 290.98 186.753 290.857 186.758Z" fill="#263238"/>
<g opacity="0.3">
<path d="M304.917 204.525H280.961C280.576 204.518 280.207 204.368 279.923 204.102C279.638 203.837 279.459 203.475 279.418 203.084C279.399 202.899 279.419 202.713 279.476 202.537C279.533 202.361 279.625 202.199 279.748 202.062C279.87 201.925 280.02 201.816 280.186 201.742C280.353 201.669 280.533 201.632 280.714 201.634H304.67C305.056 201.641 305.427 201.792 305.711 202.059C305.996 202.327 306.174 202.691 306.213 203.084C306.232 203.268 306.212 203.454 306.155 203.629C306.098 203.805 306.005 203.966 305.883 204.102C305.76 204.239 305.611 204.347 305.444 204.42C305.278 204.492 305.098 204.528 304.917 204.525Z" fill="white"/>
<path d="M279.215 199.527C279.167 199.469 279.131 199.401 279.109 199.329C279.087 199.256 279.079 199.18 279.087 199.104C279.094 199.029 279.116 198.955 279.152 198.889C279.188 198.822 279.236 198.764 279.294 198.716C280.988 197.447 282.822 195.952 284.586 194.457C285.127 191.467 286.542 188.714 288.644 186.559C290.02 185.344 291.043 185.488 291.66 185.83C291.864 185.934 292.04 186.088 292.172 186.278C292.305 186.468 292.389 186.688 292.419 186.92C292.639 188.721 289.129 192.179 285.671 195.15C285.601 195.637 285.644 196.133 285.795 196.6C285.861 196.781 285.982 196.936 286.141 197.042C286.3 197.147 286.488 197.198 286.677 197.185C288.617 197.311 289.676 196.285 290.69 195.258C291.845 194.115 293.027 192.944 295.197 194.025C297.102 194.988 297.146 195.952 297.04 196.78C297.024 196.875 297.024 196.973 297.04 197.068C297.577 197.333 298.164 197.475 298.76 197.483C299.9 197.614 301.052 197.392 302.066 196.846C303.081 196.3 303.911 195.455 304.449 194.421C304.524 194.301 304.64 194.216 304.775 194.182C304.91 194.149 305.052 194.17 305.172 194.241C305.246 194.275 305.312 194.325 305.366 194.386C305.421 194.448 305.462 194.52 305.489 194.598C305.515 194.676 305.526 194.759 305.52 194.842C305.514 194.924 305.492 195.005 305.455 195.078C304.817 196.302 303.833 197.3 302.631 197.943C301.428 198.585 300.064 198.843 298.716 198.68C297.234 198.491 296.52 198.23 296.141 197.78C296.02 197.611 295.937 197.417 295.898 197.211C295.858 197.006 295.863 196.794 295.911 196.591C295.973 196.123 296.017 195.763 294.773 195.132C293.53 194.502 292.727 195.024 291.554 196.195C290.381 197.366 289.146 198.581 286.721 198.419C286.299 198.407 285.889 198.268 285.545 198.017C285.201 197.767 284.938 197.418 284.789 197.014C284.682 196.744 284.613 196.459 284.586 196.168C282.734 197.708 281.058 199.022 280.053 199.77C279.982 199.811 279.905 199.838 279.824 199.848C279.744 199.858 279.662 199.851 279.584 199.829C279.506 199.806 279.433 199.768 279.37 199.716C279.306 199.664 279.254 199.6 279.215 199.527ZM290.857 186.757C290.333 186.835 289.847 187.085 289.473 187.469C287.93 189.048 286.786 190.985 286.139 193.115C289.12 190.414 291.431 187.973 291.298 186.956C291.298 186.911 291.298 186.884 291.21 186.839C291.101 186.781 290.98 186.753 290.857 186.757Z" fill="white"/>
</g>
<path d="M232.742 48.9699H241.289L242.674 64.891H234.127C232.706 64.8655 231.343 64.3089 230.296 63.3265C229.249 62.3441 228.591 61.0041 228.447 59.56L227.988 54.301C227.914 53.6229 227.983 52.9366 228.189 52.2876C228.395 51.6387 228.735 51.0421 229.184 50.5376C229.634 50.0331 230.184 49.6324 230.798 49.3621C231.411 49.0917 232.074 48.9581 232.742 48.9699Z" fill="#263238"/>
<path d="M270.774 64.891H236.244C234.652 64.862 233.126 64.2384 231.954 63.1382C230.782 62.038 230.046 60.5376 229.885 58.9206L229.541 54.9403C229.462 54.1808 229.542 53.4129 229.775 52.6872C230.009 51.9616 230.39 51.2947 230.894 50.7305C231.398 50.1663 232.014 49.7177 232.701 49.4143C233.387 49.1108 234.129 48.9593 234.877 48.9699H269.416C271.007 48.999 272.534 49.6226 273.705 50.7227C274.877 51.8229 275.613 53.3234 275.775 54.9403L276.119 58.9206C276.198 59.6809 276.117 60.4496 275.884 61.1759C275.65 61.9022 275.268 62.5695 274.762 63.1339C274.257 63.6982 273.64 64.1466 272.953 64.4495C272.265 64.7524 271.523 64.9029 270.774 64.891Z" fill="#263238"/>
<path opacity="0.5" d="M270.774 64.891H236.244C234.652 64.862 233.126 64.2384 231.954 63.1382C230.782 62.038 230.046 60.5376 229.885 58.9206L229.541 54.9403C229.462 54.1808 229.542 53.4129 229.775 52.6872C230.009 51.9616 230.39 51.2947 230.894 50.7305C231.398 50.1663 232.014 49.7177 232.701 49.4143C233.387 49.1108 234.129 48.9593 234.877 48.9699H269.416C271.007 48.999 272.534 49.6226 273.705 50.7227C274.877 51.8229 275.613 53.3234 275.775 54.9403L276.119 58.9206C276.198 59.6809 276.117 60.4496 275.884 61.1759C275.65 61.9022 275.268 62.5695 274.762 63.1339C274.257 63.6982 273.64 64.1466 272.953 64.4495C272.265 64.7524 271.523 64.9029 270.774 64.891Z" fill="white"/>
<path d="M270.51 58.6144C270.532 58.8136 270.513 59.0154 270.453 59.2063C270.393 59.3972 270.294 59.5727 270.162 59.7212C270.03 59.8696 269.868 59.9875 269.688 60.0668C269.507 60.1462 269.312 60.1853 269.116 60.1813C268.697 60.1748 268.296 60.0117 267.987 59.7229C267.678 59.4341 267.483 59.0397 267.44 58.6144C267.419 58.4148 267.44 58.2128 267.501 58.0219C267.562 57.8311 267.662 57.6556 267.795 57.5074C267.927 57.3591 268.089 57.2415 268.27 57.1622C268.451 57.0829 268.646 57.0438 268.843 57.0475C269.26 57.0543 269.661 57.2177 269.969 57.5067C270.276 57.7956 270.469 58.1899 270.51 58.6144Z" fill="#263238"/>
<path d="M238.502 58.6144C238.525 58.8136 238.505 59.0154 238.445 59.2063C238.385 59.3972 238.286 59.5727 238.154 59.7212C238.022 59.8696 237.86 59.9875 237.68 60.0668C237.499 60.1462 237.305 60.1853 237.108 60.1813C236.69 60.1748 236.288 60.0117 235.979 59.7229C235.67 59.4341 235.476 59.0397 235.432 58.6144C235.411 58.4148 235.432 58.2128 235.493 58.0219C235.554 57.8311 235.654 57.6556 235.787 57.5074C235.92 57.3591 236.082 57.2415 236.262 57.1622C236.443 57.0829 236.638 57.0438 236.835 57.0475C237.253 57.0543 237.653 57.2177 237.961 57.5067C238.268 57.7956 238.461 58.1899 238.502 58.6144Z" fill="#263238"/>
<path d="M277.318 190.855C275.821 190.823 274.378 190.27 273.23 189.287C272.082 188.305 271.296 186.952 271.003 185.452L270.792 184.29C270.621 183.539 270.61 182.759 270.759 182.003C270.908 181.247 271.214 180.533 271.656 179.907C272.098 179.282 272.666 178.761 273.321 178.378C273.977 177.995 274.705 177.761 275.457 177.689L304.925 174.492C306.504 174.343 308.08 174.809 309.335 175.798C310.629 176.784 311.518 178.225 311.831 179.842L312.052 181.003C312.209 181.761 312.212 182.544 312.06 183.303C311.908 184.062 311.605 184.781 311.17 185.416C310.728 186.032 310.163 186.546 309.512 186.923C308.861 187.3 308.14 187.532 307.395 187.604L277.936 190.801C277.733 190.846 277.521 190.855 277.318 190.855ZM305.639 175.546C305.469 175.537 305.298 175.537 305.128 175.546L275.66 178.743C275.049 178.801 274.456 178.992 273.922 179.303C273.388 179.613 272.925 180.036 272.564 180.544C272.207 181.061 271.957 181.647 271.831 182.267C271.705 182.887 271.706 183.526 271.832 184.146L272.044 185.299C272.307 186.612 273.029 187.783 274.076 188.592C275.123 189.401 276.423 189.792 277.733 189.693L307.192 186.496C307.804 186.44 308.398 186.251 308.932 185.94C309.466 185.629 309.928 185.205 310.288 184.695C310.646 184.179 310.896 183.592 311.024 182.973C311.151 182.353 311.153 181.713 311.028 181.093L310.817 179.941C310.556 178.612 309.824 177.429 308.762 176.618C307.855 175.945 306.76 175.588 305.639 175.6V175.546Z" fill="#9D78D9"/>
<path d="M277.354 185.308L275.113 185.551L274.858 186.685L274.231 186.748L275.325 182.201L275.925 182.138L278.659 186.271L278.024 186.343L277.354 185.308ZM277.054 184.83L275.74 182.804L275.228 185.028L277.054 184.83Z" fill="#9D78D9"/>
<path d="M281.472 181.949C281.653 182.066 281.808 182.221 281.925 182.405C282.042 182.588 282.119 182.795 282.152 183.011C282.202 183.212 282.204 183.423 282.158 183.625C282.112 183.827 282.019 184.015 281.887 184.173C281.565 184.501 281.134 184.694 280.679 184.713L279.638 184.821L279.885 186.136L279.285 186.208L278.465 181.859L280.105 181.688C280.577 181.611 281.06 181.703 281.472 181.949ZM281.384 183.831C281.466 183.725 281.523 183.603 281.552 183.472C281.581 183.341 281.581 183.205 281.552 183.074C281.53 182.934 281.48 182.799 281.404 182.679C281.328 182.56 281.228 182.458 281.111 182.381C280.841 182.234 280.531 182.181 280.229 182.228L279.206 182.336L279.567 184.281L280.59 184.173C280.876 184.149 281.147 184.029 281.358 183.831H281.384Z" fill="#9D78D9"/>
<path d="M285.768 181.48C285.948 181.599 286.102 181.754 286.219 181.937C286.336 182.121 286.414 182.327 286.447 182.543C286.497 182.744 286.499 182.955 286.453 183.157C286.407 183.359 286.314 183.547 286.182 183.705C285.863 184.038 285.43 184.231 284.974 184.245L283.933 184.362L284.18 185.677L283.581 185.74L282.76 181.399L284.401 181.219C284.872 181.142 285.355 181.235 285.768 181.48ZM285.68 183.362C285.761 183.257 285.818 183.135 285.847 183.004C285.876 182.873 285.876 182.737 285.847 182.606C285.826 182.466 285.775 182.333 285.699 182.215C285.623 182.097 285.523 181.997 285.406 181.922C285.137 181.772 284.828 181.715 284.524 181.76L283.501 181.868L283.863 183.822L284.886 183.705C285.178 183.686 285.456 183.566 285.671 183.362H285.68Z" fill="#9D78D9"/>
<path d="M290.672 184.974L289.517 183.705L289.252 183.75L288.211 183.867L288.458 185.182L287.858 185.254L287.038 180.904L288.679 180.724C289.151 180.654 289.633 180.749 290.046 180.994C290.226 181.11 290.379 181.265 290.496 181.446C290.614 181.628 290.691 181.833 290.725 182.048C290.795 182.349 290.767 182.665 290.645 182.948C290.522 183.21 290.313 183.421 290.055 183.543L291.333 184.893L290.672 184.974ZM289.958 182.903C290.039 182.798 290.096 182.675 290.125 182.544C290.154 182.414 290.154 182.278 290.125 182.147C290.104 182.006 290.053 181.871 289.977 181.752C289.901 181.632 289.801 181.531 289.684 181.453C289.414 181.307 289.105 181.253 288.802 181.3L287.779 181.408L288.141 183.363L289.173 183.254C289.466 183.234 289.744 183.11 289.958 182.903Z" fill="#9D78D9"/>
<path d="M292.939 184.479C292.567 184.329 292.239 184.084 291.986 183.768C291.73 183.451 291.558 183.073 291.483 182.669C291.402 182.279 291.429 181.873 291.563 181.498C291.681 181.135 291.91 180.82 292.216 180.598C292.537 180.363 292.915 180.219 293.309 180.184C293.713 180.137 294.122 180.195 294.498 180.352C294.875 180.51 295.206 180.761 295.461 181.084C295.719 181.403 295.892 181.785 295.964 182.192C296.046 182.582 296.018 182.988 295.885 183.363C295.766 183.726 295.538 184.041 295.232 184.263C294.913 184.496 294.538 184.636 294.147 184.668C293.735 184.716 293.318 184.65 292.939 184.479ZM294.835 183.786C295.054 183.621 295.217 183.392 295.303 183.128C295.404 182.839 295.422 182.527 295.355 182.228C295.304 181.924 295.176 181.639 294.985 181.399C294.798 181.168 294.559 180.986 294.288 180.868C294.011 180.743 293.706 180.7 293.406 180.742C293.116 180.764 292.837 180.87 292.604 181.048C292.385 181.215 292.22 181.444 292.127 181.706C292.026 181.994 292.008 182.307 292.074 182.606C292.132 182.908 292.259 183.192 292.445 183.435C292.635 183.667 292.877 183.849 293.15 183.966C293.429 184.084 293.733 184.128 294.032 184.092C294.323 184.067 294.6 183.961 294.835 183.786Z" fill="#9D78D9"/>
<path d="M300.004 179.526L298.998 184.074L298.398 184.137L295.752 179.995L296.405 179.923L298.592 183.326L299.474 179.589L300.004 179.526Z" fill="#9D78D9"/>
<path d="M304.29 182.939L304.387 183.48L301.327 183.813L300.506 179.472L303.488 179.148L303.585 179.688L301.212 179.95L301.468 181.282L303.576 181.048L303.682 181.58L301.565 181.805L301.829 183.209L304.29 182.939Z" fill="#9D78D9"/>
<path d="M304.572 179.031L306.336 178.842C306.756 178.792 307.182 178.841 307.58 178.986C307.947 179.123 308.272 179.356 308.524 179.661C308.783 179.98 308.956 180.361 309.026 180.769C309.106 181.156 309.082 181.557 308.956 181.931C308.835 182.295 308.603 182.611 308.294 182.831C307.954 183.06 307.563 183.196 307.157 183.227L305.393 183.426L304.572 179.031ZM307.033 182.633C307.348 182.61 307.652 182.505 307.915 182.327C308.143 182.173 308.316 181.949 308.409 181.688C308.508 181.398 308.526 181.086 308.462 180.787C308.411 180.481 308.28 180.195 308.083 179.959C307.897 179.725 307.653 179.548 307.377 179.445C307.078 179.336 306.758 179.299 306.442 179.337L305.304 179.463L305.922 182.723L307.033 182.633Z" fill="#9D78D9"/>
<path d="M191.235 181.553L190.433 179.977C190.137 179.401 190.043 178.74 190.167 178.103C190.291 177.466 190.624 176.891 191.112 176.474L192.549 175.24C193.037 174.823 193.37 174.247 193.493 173.61L194.71 167.351C194.836 166.715 194.743 166.053 194.446 165.478L193.158 162.993C192.863 162.418 192.769 161.756 192.892 161.119C193.016 160.482 193.349 159.907 193.837 159.49L196.254 157.419C196.748 157.004 197.087 156.429 197.215 155.789L199.191 145.667L192.276 144.244L185.388 142.839L183.456 152.961C183.334 153.598 183.428 154.258 183.721 154.834L185.176 157.698C185.468 158.274 185.56 158.934 185.437 159.571C185.313 160.207 184.982 160.782 184.497 161.201L182.371 163.002C181.886 163.418 181.553 163.989 181.427 164.623L180.21 170.926C180.085 171.562 180.175 172.223 180.466 172.8L181.348 174.502C181.643 175.077 181.737 175.738 181.614 176.375C181.49 177.013 181.157 177.587 180.669 178.005L179.337 179.148C178.849 179.565 178.516 180.14 178.392 180.777C178.269 181.415 178.362 182.076 178.658 182.651L179.196 183.714C179.491 184.289 179.585 184.95 179.462 185.588C179.338 186.225 179.005 186.8 178.517 187.217C178.029 187.634 177.695 188.208 177.57 188.845C177.445 189.482 177.536 190.143 177.829 190.72L179.522 194.043L182.521 194.646L185.52 195.258L188.325 192.845C188.813 192.428 189.147 191.854 189.272 191.217C189.397 190.58 189.305 189.919 189.013 189.342C188.717 188.767 188.623 188.105 188.747 187.468C188.871 186.831 189.204 186.256 189.692 185.839L190.574 185.074C191.06 184.651 191.391 184.072 191.511 183.432C191.631 182.792 191.534 182.129 191.235 181.553Z" fill="#263238"/>
<path opacity="0.6" d="M191.235 181.553L190.433 179.977C190.137 179.401 190.043 178.74 190.167 178.103C190.291 177.466 190.624 176.891 191.112 176.474L192.549 175.24C193.037 174.823 193.37 174.247 193.493 173.61L194.71 167.351C194.836 166.715 194.743 166.053 194.446 165.478L193.158 162.993C192.863 162.418 192.769 161.756 192.892 161.119C193.016 160.482 193.349 159.907 193.837 159.49L196.254 157.419C196.748 157.004 197.087 156.429 197.215 155.789L199.191 145.667L192.276 144.244L185.388 142.839L183.456 152.961C183.334 153.598 183.428 154.258 183.721 154.834L185.176 157.698C185.468 158.274 185.56 158.934 185.437 159.571C185.313 160.207 184.982 160.782 184.497 161.201L182.371 163.002C181.886 163.418 181.553 163.989 181.427 164.623L180.21 170.926C180.085 171.562 180.175 172.223 180.466 172.8L181.348 174.502C181.643 175.077 181.737 175.738 181.614 176.375C181.49 177.013 181.157 177.587 180.669 178.005L179.337 179.148C178.849 179.565 178.516 180.14 178.392 180.777C178.269 181.415 178.362 182.076 178.658 182.651L179.196 183.714C179.491 184.289 179.585 184.95 179.462 185.588C179.338 186.225 179.005 186.8 178.517 187.217C178.029 187.634 177.695 188.208 177.57 188.845C177.445 189.482 177.536 190.143 177.829 190.72L179.522 194.043L182.521 194.646L185.52 195.258L188.325 192.845C188.813 192.428 189.147 191.854 189.272 191.217C189.397 190.58 189.305 189.919 189.013 189.342C188.717 188.767 188.623 188.105 188.747 187.468C188.871 186.831 189.204 186.256 189.692 185.839L190.574 185.074C191.06 184.651 191.391 184.072 191.511 183.432C191.631 182.792 191.534 182.129 191.235 181.553Z" fill="white"/>
<path opacity="0.2" d="M196.272 157.392C196.754 156.981 197.087 156.416 197.215 155.789L199.191 145.667L195.742 144.974L192.294 144.271L185.405 142.866L183.932 150.386L190.83 151.791L182.477 194.646L185.476 195.258L188.281 192.845C188.769 192.428 189.103 191.854 189.228 191.217C189.353 190.58 189.261 189.919 188.969 189.342C188.673 188.767 188.579 188.105 188.703 187.468C188.827 186.831 189.16 186.256 189.648 185.839L190.53 185.074C191.016 184.656 191.349 184.081 191.474 183.445C191.599 182.809 191.509 182.148 191.218 181.571L190.415 179.995C190.12 179.419 190.026 178.758 190.149 178.121C190.273 177.484 190.606 176.909 191.094 176.492L192.532 175.258C193.019 174.841 193.352 174.265 193.476 173.628L194.693 167.369C194.818 166.734 194.728 166.073 194.437 165.496L193.158 162.993C192.863 162.418 192.769 161.756 192.892 161.119C193.016 160.482 193.349 159.907 193.837 159.49L196.272 157.392Z" fill="black"/>
<path d="M213.444 131.835C211.618 129.62 203.548 125.532 199.217 124.694C194.887 123.857 185.908 124.397 183.394 125.73C177.811 128.683 174.336 139.138 179.866 143.875C182.098 145.784 190.653 147.945 194.507 148.891C198.362 149.836 207.058 150.818 209.916 149.972C216.972 147.9 217.466 136.743 213.444 131.835ZM204.042 132.736L191.694 130.232C190.812 130.052 190.68 128.918 191.553 128.692C194.199 128.017 196.907 127.684 198.521 128.008C200.135 128.332 202.507 129.701 204.695 131.367C205.435 131.916 204.906 132.916 204.007 132.736H204.042Z" fill="#263238"/>
<path opacity="0.6" d="M213.444 131.835C211.618 129.62 203.548 125.532 199.217 124.694C194.887 123.857 185.908 124.397 183.394 125.73C177.811 128.683 174.336 139.138 179.866 143.875C182.098 145.784 190.653 147.945 194.507 148.891C198.362 149.836 207.058 150.818 209.916 149.972C216.972 147.9 217.466 136.743 213.444 131.835ZM204.042 132.736L191.694 130.232C190.812 130.052 190.68 128.918 191.553 128.692C194.199 128.017 196.907 127.684 198.521 128.008C200.135 128.332 202.507 129.701 204.695 131.367C205.435 131.916 204.906 132.916 204.007 132.736H204.042Z" fill="black"/>
<path d="M210.41 131.223C208.584 129.017 200.514 124.964 196.174 124.091C191.835 123.217 182.865 123.794 180.351 125.117C174.768 128.071 171.302 138.526 176.823 143.263C179.064 145.181 187.619 147.333 191.473 148.279C195.328 149.224 204.015 150.206 206.882 149.368C213.947 147.288 214.458 136.131 210.41 131.223ZM200.999 132.123L188.748 129.674C187.866 129.485 187.734 128.35 188.598 128.134C191.244 127.45 193.961 127.117 195.575 127.45C197.189 127.783 199.552 129.134 201.749 130.8C202.437 131.304 201.907 132.303 200.999 132.123Z" fill="#263238"/>
<path d="M193.034 131.646C191.518 135.317 188.671 138.246 185.088 139.823C181.504 141.399 177.463 141.5 173.809 140.104C170.154 138.709 167.17 135.924 165.48 132.334C163.79 128.744 163.525 124.625 164.74 120.84C167.659 112.051 177.538 107.179 185.282 110.448L186.464 110.952C186.734 111.068 186.949 111.288 187.062 111.565C187.174 111.841 187.175 112.152 187.063 112.429C186.95 112.705 186.735 112.925 186.464 113.04C186.193 113.154 185.888 113.155 185.617 113.041L184.435 112.537C177.926 109.782 169.609 113.861 166.945 121.236C165.796 124.471 165.933 128.036 167.325 131.169C168.717 134.303 171.255 136.756 174.396 138.004C177.536 139.252 181.03 139.196 184.131 137.848C187.232 136.5 189.693 133.967 190.988 130.791C194.04 123.37 188.66 117.967 183.156 115.653L181.533 114.96C181.263 114.844 181.048 114.624 180.935 114.347C180.823 114.071 180.822 113.76 180.933 113.483C180.989 113.346 181.071 113.222 181.174 113.117C181.277 113.013 181.4 112.93 181.534 112.874C181.668 112.818 181.812 112.79 181.957 112.791C182.103 112.792 182.246 112.822 182.38 112.879L184.012 113.564C192.364 117.067 195.989 124.361 193.034 131.646Z" fill="#263238"/>
<g opacity="0.5">
<path d="M193.034 131.646C191.518 135.317 188.671 138.246 185.088 139.823C181.504 141.399 177.463 141.5 173.809 140.104C170.154 138.709 167.17 135.924 165.48 132.334C163.79 128.744 163.525 124.625 164.74 120.84C167.659 112.051 177.538 107.179 185.282 110.448L186.464 110.952C186.734 111.068 186.949 111.288 187.062 111.565C187.174 111.841 187.175 112.152 187.063 112.429C186.95 112.705 186.735 112.925 186.464 113.04C186.193 113.154 185.888 113.155 185.617 113.041L184.435 112.537C177.926 109.782 169.609 113.861 166.945 121.236C165.796 124.471 165.933 128.036 167.325 131.169C168.717 134.303 171.255 136.756 174.396 138.004C177.536 139.252 181.03 139.196 184.131 137.848C187.232 136.5 189.693 133.967 190.988 130.791C194.04 123.37 188.66 117.967 183.156 115.653L181.533 114.96C181.263 114.844 181.048 114.624 180.935 114.347C180.823 114.071 180.822 113.76 180.933 113.483C180.989 113.346 181.071 113.222 181.174 113.117C181.277 113.013 181.4 112.93 181.534 112.874C181.668 112.818 181.812 112.79 181.957 112.791C182.103 112.792 182.246 112.822 182.38 112.879L184.012 113.564C192.364 117.067 195.989 124.361 193.034 131.646Z" fill="white"/>
</g>
<path d="M182.574 147.306C181.992 142.803 175.888 134.699 171.805 132.97C167.721 131.241 157.772 132.583 154.262 135.329C146.465 141.435 136.269 162.831 139.224 172.394C140.423 176.267 148.22 180.499 151.757 182.39C155.294 184.281 163.955 186.127 167.536 184.371C176.4 180.013 183.888 157.248 182.574 147.306ZM175.209 141.381L163.629 136.482C163.432 136.416 163.264 136.282 163.154 136.103C163.044 135.924 163 135.711 163.028 135.502C163.057 135.293 163.156 135.1 163.309 134.959C163.463 134.817 163.66 134.734 163.867 134.726C166.68 134.411 169.441 134.501 170.923 135.14C172.404 135.779 174.451 137.716 176.215 139.967C176.341 140.121 176.413 140.313 176.42 140.514C176.427 140.715 176.368 140.912 176.253 141.074C176.137 141.237 175.972 141.355 175.782 141.411C175.593 141.466 175.392 141.456 175.209 141.381Z" fill="#263238"/>
<path opacity="0.6" d="M182.574 147.306C181.992 142.803 175.888 134.699 171.805 132.97C167.721 131.241 157.772 132.583 154.262 135.329C146.465 141.435 136.269 162.831 139.224 172.394C140.423 176.267 148.22 180.499 151.757 182.39C155.294 184.281 163.955 186.127 167.536 184.371C176.4 180.013 183.888 157.248 182.574 147.306ZM175.209 141.381L163.629 136.482C163.432 136.416 163.264 136.282 163.154 136.103C163.044 135.924 163 135.711 163.028 135.502C163.057 135.293 163.156 135.1 163.309 134.959C163.463 134.817 163.66 134.734 163.867 134.726C166.68 134.411 169.441 134.501 170.923 135.14C172.404 135.779 174.451 137.716 176.215 139.967C176.341 140.121 176.413 140.313 176.42 140.514C176.427 140.715 176.368 140.912 176.253 141.074C176.137 141.237 175.972 141.355 175.782 141.411C175.593 141.466 175.392 141.456 175.209 141.381Z" fill="black"/>
<path d="M179.778 146.108C179.205 141.606 173.093 133.501 169.009 131.781C164.925 130.061 154.976 131.385 151.466 134.132C143.678 140.237 133.473 161.633 136.472 171.197C137.671 175.069 145.477 179.301 149.005 181.201C152.533 183.101 161.203 184.929 164.784 183.173C173.595 178.815 181.057 156.05 179.778 146.108ZM172.387 140.183L160.797 135.284C160.601 135.219 160.433 135.085 160.323 134.906C160.213 134.727 160.169 134.514 160.197 134.304C160.225 134.095 160.325 133.903 160.478 133.761C160.632 133.619 160.829 133.537 161.036 133.528C163.849 133.213 166.61 133.303 168.092 133.942C169.573 134.582 171.62 136.518 173.384 138.769C173.508 138.923 173.578 139.114 173.585 139.313C173.591 139.511 173.533 139.707 173.419 139.868C173.305 140.03 173.142 140.148 172.956 140.205C172.769 140.262 172.569 140.254 172.387 140.183Z" fill="#263238"/>
<path d="M171.69 158.211L148.873 148.585C147.186 151.423 145.746 154.406 144.569 157.5L168.612 167.667C169.909 164.614 170.939 161.449 171.69 158.211Z" fill="#9D78D9"/>
<path d="M143.669 160.039C142.461 163.857 141.905 167.342 142.602 169.504C142.681 169.684 143.687 171.665 151.519 175.807C154.306 177.284 160.339 178.113 161.68 177.473C163.647 176.501 165.693 173.673 167.474 170.107L143.669 160.039Z" fill="#9D78D9"/>
<path d="M172.228 155.501C172.607 153.508 172.708 151.471 172.528 149.449C172.21 147.018 167.809 141.156 165.595 140.219C163.382 139.282 156.202 140.219 154.297 141.732C152.78 143.034 151.453 144.55 150.354 146.234L172.228 155.501Z" fill="#9D78D9"/>
<path d="M160.975 158.549L156.282 156.564L154.864 160.058L159.558 162.043L160.975 158.549Z" fill="white"/>
<path d="M160.004 159.103L159.369 158.833L160.065 157.113C160.143 156.965 160.188 156.802 160.2 156.635C160.212 156.468 160.189 156.3 160.133 156.142C160.077 155.985 159.99 155.841 159.876 155.72C159.763 155.599 159.625 155.504 159.473 155.441C159.321 155.377 159.158 155.347 158.994 155.352C158.83 155.358 158.669 155.398 158.521 155.471C158.373 155.543 158.242 155.647 158.136 155.775C158.03 155.902 157.951 156.051 157.905 156.212L157.208 157.932L156.573 157.662L157.27 155.942C157.351 155.695 157.481 155.468 157.652 155.274C157.822 155.081 158.03 154.925 158.263 154.817C158.495 154.709 158.746 154.651 159.001 154.646C159.257 154.642 159.51 154.691 159.746 154.79C159.981 154.89 160.195 155.038 160.372 155.225C160.549 155.413 160.687 155.635 160.777 155.879C160.866 156.123 160.906 156.383 160.893 156.644C160.879 156.904 160.814 157.158 160.701 157.392L160.004 159.103Z" fill="white"/>
<path d="M156.27 170.101L151.576 168.116L150.159 171.61L154.852 173.595L156.27 170.101Z" fill="white"/>
<path d="M152.524 169.477L151.889 169.207L152.586 167.496C152.667 167.249 152.797 167.021 152.968 166.828C153.139 166.634 153.347 166.479 153.579 166.371C153.811 166.263 154.063 166.204 154.318 166.2C154.573 166.195 154.826 166.244 155.062 166.344C155.298 166.444 155.511 166.592 155.688 166.779C155.866 166.966 156.003 167.189 156.093 167.433C156.183 167.677 156.222 167.937 156.209 168.197C156.196 168.457 156.13 168.712 156.017 168.945L155.373 168.675C155.44 168.529 155.477 168.371 155.482 168.211C155.487 168.05 155.46 167.89 155.403 167.74C155.345 167.59 155.259 167.453 155.148 167.339C155.038 167.224 154.905 167.133 154.76 167.072C154.614 167.011 154.457 166.981 154.3 166.984C154.142 166.986 153.987 167.021 153.843 167.087C153.699 167.153 153.57 167.248 153.463 167.366C153.356 167.484 153.274 167.623 153.221 167.775L152.524 169.477Z" fill="white"/>
<path d="M167.704 146.739L165.755 145.91L164.123 143.209L161.68 149.233L164.705 148.495L166.654 149.323L167.704 146.739Z" fill="white"/>
<path d="M159.166 148.071C158.724 146.972 158.725 145.739 159.169 144.641C159.614 143.543 160.465 142.669 161.538 142.209L161.891 143.11C161.469 143.288 161.086 143.55 160.764 143.879C160.441 144.209 160.185 144.6 160.011 145.031C159.836 145.462 159.747 145.923 159.747 146.389C159.747 146.855 159.837 147.317 160.012 147.747L159.166 148.071Z" fill="white"/>
<path d="M161.168 147.225C160.942 146.668 160.942 146.043 161.167 145.486C161.392 144.929 161.823 144.486 162.367 144.253L162.72 145.154C162.401 145.294 162.148 145.555 162.015 145.883C161.949 146.044 161.915 146.217 161.915 146.392C161.915 146.567 161.949 146.74 162.015 146.901L161.168 147.225Z" fill="white"/>
<path d="M72.4035 306.607L127.696 308.453H250.003L302.773 305.715V293.946L296.008 283.968L277.61 277.331L254.263 283.968L245.002 292.892L140.273 293.946L119.758 278.682L103.723 272.775L80.218 278.979L74.485 289.713L71.0981 300.519L72.4035 306.607Z" fill="#263238"/>
<path opacity="0.6" d="M72.4035 306.607L127.696 308.453H250.003L302.773 305.715V293.946L296.008 283.968L277.61 277.331L254.263 283.968L245.002 292.892L140.273 293.946L119.758 278.682L103.723 272.775L80.218 278.979L74.485 289.713L71.0981 300.519L72.4035 306.607Z" fill="black"/>
<path d="M75.6227 297.683C77.616 292.757 85.4306 284.562 90.2375 282.509C94.9121 280.51 106.008 280.132 110.523 282.509C115.286 285.022 121.31 295.116 122.942 300.348C123.542 302.275 123.365 306.904 123.171 309.957L253.707 311.362C253.434 307.66 253.249 302.555 254.104 300.42C256.08 295.504 263.912 287.309 268.719 285.256C273.394 283.248 284.489 282.878 289.005 285.256C293.768 287.759 299.801 297.863 301.432 303.095C301.826 305.088 301.956 307.127 301.82 309.155C302.822 308.403 303.713 307.509 304.466 306.499L305.692 304.806C307.331 302.553 308.216 299.822 308.215 297.016V292.667C308.214 290.27 307.571 287.918 306.354 285.868L303.214 280.6V244.796C303.215 243.035 302.867 241.292 302.191 239.672L289.649 209.568C288.694 207.275 287.117 205.308 285.105 203.9C283.092 202.491 280.727 201.699 278.289 201.616C264.821 201.148 238.396 200.337 227.662 200.715C212.05 201.256 170.191 205.614 157.71 206.938C155.406 207.184 153.241 208.182 151.536 209.784L114.492 244.543L77.616 260.924C76.0769 261.615 74.7173 262.664 73.6454 263.986C72.5735 265.309 71.819 266.869 71.442 268.542L67.967 283.851L66.8115 285.391C65.1018 287.679 64.3329 290.557 64.6683 293.414L65.3827 299.376C65.7215 302.201 67.1186 304.783 69.2811 306.58L69.7398 306.958C71.327 308.281 73.2522 309.112 75.2876 309.353C74.97 305.643 74.7054 299.952 75.6227 297.683Z" fill="#9D78D9"/>
<path d="M98.6783 327.084C109.76 327.084 118.744 317.912 118.744 306.598C118.744 295.283 109.76 286.111 98.6783 286.111C87.5964 286.111 78.6128 295.283 78.6128 306.598C78.6128 317.912 87.5964 327.084 98.6783 327.084Z" fill="#263238"/>
<path opacity="0.5" d="M98.6779 320.871C106.399 320.871 112.658 314.481 112.658 306.598C112.658 298.715 106.399 292.325 98.6779 292.325C90.9572 292.325 84.6982 298.715 84.6982 306.598C84.6982 314.481 90.9572 320.871 98.6779 320.871Z" fill="white"/>
<g opacity="0.5">
<path d="M93.4918 301.906L92.5216 298.934C92.4196 298.617 92.2379 298.332 91.9948 298.108C91.7516 297.884 91.4554 297.729 91.1354 297.658C90.8153 297.587 90.4827 297.602 90.1705 297.703C89.8582 297.804 89.5772 297.986 89.3552 298.232C88.2647 299.492 87.4311 300.962 86.9033 302.555C86.8044 302.875 86.7892 303.215 86.859 303.543C86.9289 303.871 87.0814 304.175 87.3015 304.424C87.5215 304.674 87.8016 304.86 88.1138 304.965C88.4261 305.069 88.7598 305.089 89.0818 305.022L92.0806 304.401C92.3424 304.347 92.59 304.237 92.8069 304.078C93.0238 303.919 93.2051 303.715 93.3386 303.479C93.4722 303.243 93.5549 302.981 93.5813 302.71C93.6077 302.438 93.5772 302.164 93.4918 301.906Z" fill="black"/>
<path d="M100.089 299.7L102.118 297.349C102.337 297.102 102.489 296.8 102.558 296.474C102.627 296.148 102.611 295.809 102.512 295.491C102.413 295.173 102.234 294.887 101.993 294.662C101.752 294.437 101.458 294.28 101.139 294.207C99.516 293.859 97.8401 293.859 96.2173 294.207C95.8998 294.282 95.6072 294.441 95.3683 294.667C95.1295 294.893 94.9527 295.18 94.8555 295.497C94.7584 295.815 94.7442 296.153 94.8144 296.478C94.8847 296.803 95.0369 297.103 95.2559 297.349L97.2933 299.7C97.4688 299.901 97.684 300.063 97.925 300.173C98.166 300.284 98.4271 300.341 98.6913 300.341C98.9555 300.341 99.2166 300.284 99.4576 300.173C99.6985 300.063 99.9138 299.901 100.089 299.7Z" fill="black"/>
<path d="M105.231 304.374L108.239 304.995C108.561 305.063 108.895 305.044 109.207 304.939C109.519 304.835 109.799 304.648 110.019 304.398C110.238 304.148 110.39 303.844 110.458 303.516C110.527 303.188 110.51 302.847 110.409 302.527C109.885 300.935 109.054 299.465 107.966 298.205C107.744 297.959 107.463 297.777 107.15 297.676C106.838 297.575 106.505 297.56 106.185 297.631C105.865 297.702 105.569 297.857 105.326 298.081C105.083 298.305 104.901 298.59 104.799 298.907L103.82 301.879C103.736 302.137 103.707 302.411 103.734 302.682C103.761 302.952 103.844 303.214 103.977 303.45C104.111 303.685 104.291 303.89 104.507 304.049C104.724 304.208 104.97 304.319 105.231 304.374Z" fill="black"/>
<path d="M103.82 311.298L104.799 314.27C104.901 314.588 105.083 314.873 105.326 315.097C105.569 315.321 105.865 315.476 106.185 315.547C106.505 315.618 106.838 315.602 107.15 315.501C107.463 315.401 107.744 315.218 107.966 314.973C109.054 313.712 109.885 312.243 110.409 310.65C110.51 310.331 110.527 309.99 110.458 309.662C110.39 309.333 110.238 309.029 110.019 308.779C109.799 308.53 109.519 308.343 109.207 308.238C108.895 308.134 108.561 308.114 108.239 308.183L105.231 308.804C104.97 308.859 104.724 308.97 104.507 309.129C104.291 309.288 104.111 309.492 103.977 309.728C103.844 309.963 103.761 310.225 103.734 310.496C103.707 310.767 103.736 311.04 103.82 311.298Z" fill="black"/>
<path d="M97.2668 313.505L95.2558 315.855C95.0367 316.103 94.8853 316.406 94.8166 316.732C94.7479 317.059 94.7643 317.398 94.8643 317.717C94.9643 318.035 95.1443 318.32 95.3864 318.545C95.6284 318.77 95.924 318.926 96.2436 318.998C97.8665 319.346 99.5424 319.346 101.165 318.998C101.484 318.925 101.779 318.768 102.02 318.543C102.261 318.317 102.44 318.031 102.539 317.713C102.638 317.396 102.653 317.057 102.584 316.731C102.515 316.404 102.363 316.103 102.144 315.855L100.116 313.505C99.9401 313.294 99.7218 313.125 99.4758 313.009C99.2299 312.893 98.9622 312.832 98.6912 312.832C98.4202 312.832 98.1525 312.893 97.9066 313.009C97.6606 313.125 97.4423 313.294 97.2668 313.505Z" fill="black"/>
<path d="M92.1162 308.804L89.1174 308.183C88.7924 308.113 88.4552 308.132 88.1398 308.238C87.8244 308.344 87.542 308.533 87.321 308.786C87.1 309.039 86.9483 309.347 86.8812 309.679C86.8141 310.011 86.834 310.355 86.9388 310.677C87.4667 312.27 88.3002 313.739 89.3908 315C89.6127 315.245 89.8938 315.428 90.206 315.528C90.5183 315.629 90.8509 315.645 91.1709 315.574C91.4909 315.503 91.7872 315.348 92.0303 315.124C92.2735 314.9 92.4551 314.615 92.5572 314.297L93.5274 311.325C93.6173 311.066 93.6513 310.789 93.6271 310.515C93.6029 310.24 93.521 309.974 93.3871 309.735C93.2532 309.496 93.0704 309.289 92.851 309.128C92.6317 308.967 92.3811 308.857 92.1162 308.804Z" fill="black"/>
</g>
<g opacity="0.5">
<path d="M96.8612 305.715C97.3824 305.715 97.805 305.284 97.805 304.752C97.805 304.22 97.3824 303.788 96.8612 303.788C96.34 303.788 95.9175 304.22 95.9175 304.752C95.9175 305.284 96.34 305.715 96.8612 305.715Z" fill="white"/>
<path d="M101.43 304.752C101.43 304.942 101.375 305.129 101.271 305.287C101.167 305.446 101.02 305.569 100.847 305.642C100.675 305.715 100.485 305.734 100.302 305.697C100.119 305.66 99.9509 305.568 99.8189 305.433C99.6869 305.298 99.597 305.127 99.5606 304.94C99.5242 304.753 99.5429 304.559 99.6143 304.383C99.6857 304.207 99.8067 304.057 99.9619 303.951C100.117 303.845 100.3 303.788 100.486 303.788C100.737 303.788 100.977 303.89 101.154 304.07C101.331 304.251 101.43 304.496 101.43 304.752Z" fill="white"/>
<path d="M97.805 308.453C97.805 308.643 97.7496 308.83 97.6459 308.988C97.5422 309.147 97.3948 309.27 97.2224 309.343C97.0499 309.416 96.8602 309.435 96.6771 309.398C96.494 309.361 96.3259 309.269 96.1939 309.134C96.0619 308.999 95.972 308.828 95.9356 308.641C95.8992 308.454 95.9179 308.26 95.9893 308.084C96.0607 307.908 96.1817 307.758 96.3369 307.652C96.4921 307.546 96.6746 307.489 96.8612 307.489C97.1115 307.489 97.3516 307.591 97.5285 307.772C97.7055 307.952 97.805 308.197 97.805 308.453Z" fill="white"/>
<path d="M101.43 308.453C101.43 308.643 101.375 308.83 101.271 308.988C101.167 309.147 101.02 309.27 100.847 309.343C100.675 309.416 100.485 309.435 100.302 309.398C100.119 309.361 99.9509 309.269 99.8189 309.134C99.6869 308.999 99.597 308.828 99.5606 308.641C99.5242 308.454 99.5429 308.26 99.6143 308.084C99.6857 307.908 99.8067 307.758 99.9619 307.652C100.117 307.546 100.3 307.489 100.486 307.489C100.737 307.489 100.977 307.591 101.154 307.772C101.331 307.952 101.43 308.197 101.43 308.453Z" fill="white"/>
</g>
<path d="M278.482 327.084C289.564 327.084 298.548 317.912 298.548 306.598C298.548 295.283 289.564 286.111 278.482 286.111C267.401 286.111 258.417 295.283 258.417 306.598C258.417 317.912 267.401 327.084 278.482 327.084Z" fill="#263238"/>
<path opacity="0.5" d="M278.483 320.871C286.203 320.871 292.462 314.481 292.462 306.598C292.462 298.715 286.203 292.325 278.483 292.325C270.762 292.325 264.503 298.715 264.503 306.598C264.503 314.481 270.762 320.871 278.483 320.871Z" fill="white"/>
<g opacity="0.5">
<path d="M273.332 301.906L272.361 298.934C272.259 298.617 272.078 298.332 271.835 298.108C271.591 297.884 271.295 297.729 270.975 297.658C270.655 297.587 270.323 297.602 270.01 297.703C269.698 297.804 269.417 297.986 269.195 298.232C268.105 299.492 267.271 300.962 266.743 302.555C266.644 302.875 266.629 303.215 266.699 303.543C266.769 303.871 266.921 304.175 267.141 304.424C267.361 304.674 267.641 304.86 267.954 304.965C268.266 305.069 268.6 305.089 268.922 305.022L271.92 304.401C272.182 304.347 272.43 304.237 272.647 304.078C272.864 303.919 273.045 303.715 273.178 303.479C273.312 303.243 273.395 302.981 273.421 302.71C273.448 302.438 273.417 302.164 273.332 301.906Z" fill="black"/>
<path d="M279.894 299.7L281.923 297.349C282.142 297.102 282.293 296.8 282.363 296.474C282.432 296.148 282.416 295.809 282.317 295.491C282.218 295.173 282.039 294.887 281.798 294.662C281.557 294.437 281.262 294.28 280.944 294.207C279.321 293.859 277.645 293.859 276.022 294.207C275.702 294.278 275.407 294.434 275.165 294.659C274.923 294.884 274.743 295.17 274.643 295.488C274.543 295.806 274.526 296.145 274.595 296.472C274.664 296.799 274.815 297.101 275.034 297.349L277.072 299.7C277.247 299.906 277.464 300.071 277.707 300.185C277.951 300.298 278.215 300.356 278.483 300.356C278.75 300.356 279.015 300.298 279.258 300.185C279.502 300.071 279.718 299.906 279.894 299.7Z" fill="black"/>
<path d="M285.036 304.373L288.044 304.995C288.358 305.052 288.682 305.027 288.984 304.921C289.286 304.815 289.557 304.632 289.77 304.389C289.984 304.147 290.134 303.853 290.205 303.535C290.276 303.217 290.267 302.886 290.178 302.572C289.654 300.98 288.823 299.51 287.735 298.25C287.513 298.004 287.232 297.822 286.92 297.721C286.607 297.62 286.275 297.605 285.955 297.676C285.635 297.747 285.339 297.902 285.095 298.126C284.852 298.35 284.671 298.635 284.569 298.952L283.59 301.924C283.513 302.182 283.491 302.454 283.523 302.721C283.556 302.989 283.644 303.246 283.78 303.477C283.916 303.708 284.098 303.907 284.315 304.061C284.531 304.216 284.777 304.322 285.036 304.373Z" fill="black"/>
<path d="M283.624 311.298L284.603 314.27C284.706 314.588 284.887 314.873 285.13 315.097C285.373 315.321 285.67 315.476 285.99 315.547C286.31 315.618 286.642 315.602 286.955 315.501C287.267 315.401 287.548 315.218 287.77 314.973C288.843 313.717 289.661 312.257 290.178 310.677C290.279 310.358 290.296 310.017 290.227 309.689C290.159 309.36 290.007 309.056 289.788 308.806C289.568 308.557 289.288 308.37 288.976 308.265C288.664 308.161 288.33 308.141 288.008 308.21L285 308.831C284.746 308.891 284.506 309.004 284.296 309.163C284.086 309.322 283.911 309.524 283.781 309.756C283.652 309.988 283.571 310.245 283.544 310.51C283.517 310.776 283.545 311.044 283.624 311.298Z" fill="black"/>
<path d="M277.072 313.505L275.034 315.855C274.815 316.103 274.664 316.406 274.595 316.732C274.526 317.059 274.543 317.398 274.643 317.717C274.743 318.035 274.923 318.32 275.165 318.545C275.407 318.77 275.702 318.926 276.022 318.998C277.645 319.346 279.321 319.346 280.944 318.998C281.262 318.925 281.557 318.768 281.798 318.543C282.039 318.317 282.218 318.031 282.317 317.713C282.416 317.396 282.432 317.057 282.363 316.731C282.293 316.404 282.142 316.103 281.923 315.855L279.894 313.505C279.718 313.299 279.502 313.133 279.258 313.02C279.015 312.907 278.75 312.848 278.483 312.848C278.215 312.848 277.951 312.907 277.707 313.02C277.464 313.133 277.247 313.299 277.072 313.505Z" fill="black"/>
<path d="M271.92 308.804L268.922 308.183C268.6 308.115 268.266 308.135 267.954 308.24C267.641 308.345 267.361 308.531 267.141 308.78C266.921 309.03 266.769 309.333 266.699 309.661C266.629 309.989 266.644 310.33 266.743 310.65C267.271 312.243 268.105 313.712 269.195 314.973C269.417 315.218 269.698 315.401 270.01 315.501C270.323 315.602 270.655 315.618 270.975 315.547C271.295 315.476 271.591 315.321 271.835 315.097C272.078 314.873 272.259 314.588 272.361 314.27L273.332 311.298C273.417 311.04 273.448 310.766 273.421 310.495C273.395 310.224 273.312 309.961 273.178 309.725C273.045 309.489 272.864 309.285 272.647 309.126C272.43 308.967 272.182 308.858 271.92 308.804Z" fill="black"/>
</g>
<g opacity="0.5">
<path d="M277.61 304.752C277.61 304.942 277.554 305.129 277.451 305.287C277.347 305.446 277.2 305.569 277.027 305.642C276.855 305.715 276.665 305.734 276.482 305.697C276.299 305.66 276.131 305.568 275.999 305.433C275.867 305.298 275.777 305.127 275.74 304.94C275.704 304.753 275.723 304.559 275.794 304.383C275.865 304.207 275.986 304.056 276.142 303.951C276.297 303.845 276.479 303.788 276.666 303.788C276.916 303.788 277.156 303.89 277.333 304.07C277.51 304.251 277.61 304.496 277.61 304.752Z" fill="white"/>
<path d="M280.291 305.715C280.812 305.715 281.235 305.284 281.235 304.752C281.235 304.22 280.812 303.788 280.291 303.788C279.77 303.788 279.347 304.22 279.347 304.752C279.347 305.284 279.77 305.715 280.291 305.715Z" fill="white"/>
<path d="M277.61 308.453C277.61 308.643 277.554 308.83 277.451 308.988C277.347 309.147 277.2 309.27 277.027 309.343C276.855 309.416 276.665 309.435 276.482 309.398C276.299 309.361 276.131 309.269 275.999 309.134C275.867 308.999 275.777 308.828 275.74 308.641C275.704 308.454 275.723 308.26 275.794 308.084C275.865 307.908 275.986 307.758 276.142 307.652C276.297 307.546 276.479 307.489 276.666 307.489C276.916 307.489 277.156 307.591 277.333 307.772C277.51 307.952 277.61 308.197 277.61 308.453Z" fill="white"/>
<path d="M281.235 308.453C281.235 308.643 281.179 308.83 281.076 308.988C280.972 309.147 280.824 309.27 280.652 309.343C280.48 309.416 280.29 309.435 280.107 309.398C279.924 309.361 279.756 309.269 279.624 309.134C279.492 308.999 279.402 308.828 279.365 308.641C279.329 308.454 279.348 308.26 279.419 308.084C279.49 307.908 279.611 307.758 279.767 307.652C279.922 307.546 280.104 307.489 280.291 307.489C280.541 307.489 280.781 307.591 280.958 307.772C281.135 307.952 281.235 308.197 281.235 308.453Z" fill="white"/>
</g>
<path d="M150.39 215.61C151.073 214.97 151.482 214.081 151.528 213.136C151.574 212.19 151.254 211.264 150.637 210.558L114.404 244.534L113.346 245.003C113.416 245.093 113.469 245.183 113.549 245.273C114.181 245.976 115.062 246.394 115.996 246.434C116.931 246.475 117.843 246.135 118.532 245.489L150.39 215.61Z" fill="#263238"/>
<path opacity="0.5" d="M72.8091 286.111C72.7527 286.111 72.6969 286.1 72.6453 286.076C72.5936 286.053 72.5472 286.02 72.509 285.977C72.4708 285.935 72.4417 285.885 72.4235 285.83C72.4054 285.776 72.3985 285.718 72.4034 285.661L74.088 268.155C74.0942 268.093 74.1139 268.034 74.1454 267.981C74.177 267.929 74.2197 267.884 74.2705 267.85C74.3212 267.817 74.3787 267.795 74.4387 267.787C74.4987 267.779 74.5597 267.785 74.6172 267.804L76.1519 268.326C77.0789 268.624 77.8637 269.265 78.353 270.123C78.8422 270.98 79.0009 271.993 78.7979 272.964L76.6811 282.959C76.4932 283.861 76.0044 284.669 75.2982 285.243C74.592 285.818 73.7122 286.125 72.8091 286.111Z" fill="white"/>
<g opacity="0.2">
<path d="M82.3611 274.549C82.3576 274.371 82.3884 274.195 82.4516 274.03C82.5149 273.864 82.6094 273.713 82.7298 273.585C82.8502 273.457 82.9941 273.355 83.1533 273.284C83.3125 273.213 83.4839 273.174 83.6577 273.171L293.283 269.019C293.632 269.017 293.969 269.154 294.221 269.401C294.473 269.648 294.621 269.986 294.632 270.343C294.637 270.702 294.502 271.049 294.258 271.307C294.013 271.565 293.678 271.714 293.327 271.721L83.7106 275.872C83.5365 275.877 83.3633 275.847 83.2009 275.782C83.0385 275.718 82.8902 275.622 82.7647 275.499C82.6391 275.375 82.5388 275.228 82.4695 275.065C82.4002 274.902 82.3634 274.726 82.3611 274.549Z" fill="white"/>
</g>
<path d="M214.688 249.253L253.699 248.56C254.695 248.542 255.676 248.308 256.576 247.873C257.476 247.438 258.276 246.812 258.92 246.036C259.564 245.261 260.039 244.353 260.313 243.376C260.587 242.398 260.653 241.371 260.508 240.365L256.662 213.566C256.55 212.806 256.179 212.111 255.614 211.604C255.049 211.097 254.327 210.809 253.575 210.792C246.81 210.63 240.027 210.513 234.638 210.513C231.992 210.513 229.761 210.513 227.971 210.603C224.443 210.729 218.877 211.134 212.359 211.693C211.6 211.756 210.889 212.095 210.355 212.649C209.821 213.203 209.499 213.934 209.449 214.709L207.623 241.608C207.556 242.593 207.689 243.581 208.015 244.511C208.341 245.441 208.851 246.292 209.515 247.01C210.179 247.728 210.981 248.299 211.871 248.685C212.762 249.071 213.721 249.264 214.688 249.253Z" fill="#263238"/>
<path d="M292.965 242.985L280.617 213.449C280.386 212.89 280.004 212.411 279.514 212.068C279.025 211.725 278.45 211.532 277.857 211.513C275.696 211.441 272.944 211.341 269.839 211.251C269.373 211.236 268.909 211.325 268.48 211.512C268.051 211.7 267.667 211.982 267.357 212.337C267.046 212.693 266.816 213.114 266.683 213.571C266.549 214.027 266.516 214.508 266.585 214.98L270.509 241.995C270.77 243.708 271.627 245.267 272.924 246.387C274.22 247.507 275.868 248.112 277.565 248.091L289.596 247.884C290.392 247.89 291.169 247.628 291.806 247.141C292.443 246.653 292.906 245.965 293.124 245.183C293.297 244.451 293.242 243.683 292.965 242.985Z" fill="#263238"/>
<path d="M196.069 213.179C181.78 214.547 167.28 216.078 161.106 216.781C159.108 216.992 157.23 217.857 155.752 219.248L134.117 239.537C133.191 240.416 132.548 241.561 132.273 242.821C131.998 244.081 132.103 245.396 132.575 246.594C133.047 247.791 133.863 248.815 134.916 249.529C135.969 250.243 137.21 250.615 138.474 250.595L190.909 249.694C192.661 249.665 194.339 248.964 195.61 247.732C196.88 246.499 197.652 244.825 197.771 243.04L199.535 216.664C199.57 216.192 199.504 215.718 199.342 215.275C199.179 214.833 198.924 214.431 198.594 214.099C198.264 213.768 197.867 213.513 197.431 213.354C196.995 213.195 196.53 213.135 196.069 213.179Z" fill="#263238"/>
<path d="M255.939 256.223L246.828 256.403C246.482 256.41 246.152 256.556 245.909 256.808C245.667 257.061 245.531 257.4 245.531 257.754C245.531 257.934 245.566 258.111 245.634 258.277C245.703 258.443 245.802 258.593 245.928 258.719C246.054 258.845 246.203 258.943 246.366 259.01C246.53 259.076 246.705 259.108 246.881 259.105L255.992 258.925C256.338 258.918 256.668 258.772 256.91 258.52C257.153 258.267 257.288 257.927 257.288 257.574C257.288 257.394 257.253 257.216 257.185 257.051C257.117 256.885 257.017 256.735 256.891 256.609C256.766 256.483 256.617 256.384 256.453 256.318C256.29 256.252 256.115 256.219 255.939 256.223Z" fill="#263238"/>
<path d="M192.02 258.862C192.02 258.682 191.985 258.504 191.917 258.338C191.849 258.173 191.749 258.023 191.623 257.897C191.498 257.771 191.349 257.672 191.185 257.606C191.022 257.54 190.847 257.507 190.671 257.511L181.56 257.691C181.213 257.698 180.884 257.843 180.641 258.096C180.399 258.349 180.263 258.688 180.263 259.042C180.263 259.221 180.298 259.399 180.366 259.565C180.434 259.731 180.534 259.881 180.66 260.007C180.786 260.132 180.935 260.231 181.098 260.297C181.262 260.364 181.437 260.396 181.613 260.392L190.724 260.212C191.071 260.208 191.402 260.063 191.645 259.81C191.888 259.557 192.023 259.216 192.02 258.862Z" fill="#263238"/>
<g opacity="0.2">
<path d="M75.623 297.683C76.5946 295.569 77.8601 293.61 79.3803 291.865L68.3465 292.081C67.6015 292.093 66.8709 291.872 66.2517 291.449C65.6325 291.026 65.1541 290.421 64.8802 289.713C64.6085 290.926 64.5428 292.178 64.6862 293.414L65.4006 299.376C65.7393 302.201 67.1365 304.783 69.299 306.58L69.7577 306.958C71.3448 308.281 73.27 309.112 75.3054 309.353C74.9703 305.643 74.7057 299.952 75.623 297.683Z" fill="black"/>
<path d="M253.698 311.361C253.425 307.66 253.24 302.554 254.095 300.42C255.515 296.872 259.996 291.622 264.177 288.2L118.329 291.091C120.224 293.976 121.77 297.084 122.933 300.348C123.533 302.275 123.356 306.904 123.162 309.957L253.698 311.361Z" fill="black"/>
<path d="M301.406 303.095C301.799 305.088 301.93 307.126 301.794 309.155C302.796 308.403 303.687 307.509 304.44 306.499L305.666 304.806C307.305 302.553 308.189 299.822 308.189 297.016V292.667C308.188 290.27 307.544 287.918 306.327 285.868L305.172 283.968C305.113 284.893 304.72 285.764 304.068 286.409C303.416 287.055 302.552 287.43 301.644 287.462L292.039 287.651C296.131 292.116 299.315 297.365 301.406 303.095Z" fill="black"/>
</g>
<g opacity="0.2">
<path d="M131.162 298.754C131.162 298.277 131.348 297.819 131.679 297.481C132.01 297.143 132.458 296.953 132.926 296.953L245.196 294.693C245.664 294.693 246.112 294.883 246.443 295.221C246.774 295.558 246.96 296.016 246.96 296.494C246.96 296.972 246.774 297.43 246.443 297.768C246.112 298.105 245.664 298.295 245.196 298.295L132.873 300.519C132.421 300.506 131.991 300.315 131.672 299.986C131.354 299.658 131.171 299.217 131.162 298.754Z" fill="white"/>
</g>
<path opacity="0.6" d="M140.282 233.719L134.108 239.501C133.169 240.378 132.514 241.527 132.231 242.794C131.949 244.061 132.051 245.386 132.526 246.592C133.001 247.798 133.824 248.828 134.887 249.543C135.95 250.258 137.202 250.625 138.474 250.595H140.3L140.282 233.719Z" fill="black"/>
<path d="M148.714 235.223H145.6C144.852 235.223 144.134 235.527 143.605 236.067C143.075 236.608 142.778 237.341 142.778 238.105V242.535L137.592 243.562C137.278 243.623 136.995 243.794 136.792 244.046C136.589 244.297 136.479 244.614 136.48 244.94V246.191C136.479 246.42 136.533 246.645 136.637 246.847C136.74 247.049 136.891 247.222 137.076 247.351C137.26 247.48 137.473 247.561 137.695 247.586C137.917 247.612 138.142 247.581 138.35 247.497L143.298 245.543C143.612 246.023 144.06 246.395 144.584 246.611C145.108 246.828 145.683 246.879 146.235 246.759L149.172 246.092C149.617 245.989 150.013 245.735 150.298 245.372C150.583 245.009 150.74 244.558 150.742 244.093V237.267C150.742 236.997 150.69 236.728 150.588 236.479C150.485 236.229 150.335 236.002 150.147 235.812C149.958 235.622 149.734 235.472 149.488 235.371C149.242 235.27 148.979 235.22 148.714 235.223Z" fill="#9D78D9"/>
</svg>
