<svg width="332" height="248" viewBox="0 0 332 248" fill="none" xmlns="http://www.w3.org/2000/svg">
<path d="M165.773 247.042C236.779 247.042 294.34 243.681 294.34 239.536C294.34 235.39 236.779 232.029 165.773 232.029C94.7675 232.029 37.2061 235.39 37.2061 239.536C37.2061 243.681 94.7675 247.042 165.773 247.042Z" fill="#F5F5F5"/>
<path d="M147.498 96.1484C146.651 95.5799 145.654 95.2774 144.634 95.2798C144.05 94.4907 144.634 93.3767 145.25 92.6274C145.867 91.8781 146.676 91.036 146.49 90.0679C146.218 88.6157 144.203 88.4632 142.737 88.6754C142.24 87.7736 142.306 86.6861 142.074 85.6848C141.842 84.6835 141.119 83.6093 140.085 83.6955C139.05 83.7817 138.487 84.8162 137.538 85.0217C136.438 85.2207 135.549 84.2128 134.72 83.4502C134.618 83.355 134.509 83.2664 134.395 83.185C134.72 80.2077 137.545 80.8243 139.992 80.5326C141.902 80.3071 137.121 75.2809 141.013 73.9017C141.768 73.7314 142.442 73.3079 142.923 72.7015C143.129 72.2461 143.172 71.7333 143.044 71.25C142.916 70.7666 142.625 70.3424 142.22 70.0491C141.37 69.4815 140.371 69.1792 139.349 69.1804C138.765 68.3914 139.349 67.2774 139.965 66.5281C140.582 65.7788 141.391 64.9366 141.205 63.9685C140.934 62.5164 138.924 62.3638 137.452 62.576C136.955 61.6742 137.021 60.5868 136.789 59.5855C136.557 58.5842 135.841 57.51 134.8 57.5962C133.759 57.6824 133.202 58.7168 132.247 58.9224C131.146 59.1213 130.258 58.1134 129.429 57.3509C128.6 56.5883 127.141 56.0645 126.505 56.9862C126.127 57.5365 126.299 58.3124 125.901 58.8892C125.238 59.8308 123.746 59.1545 122.844 58.4185C121.943 57.6824 120.484 56.9862 119.781 57.9145C119.601 58.2221 119.463 58.5521 119.37 58.8959C119.266 59.1343 119.13 59.3574 118.965 59.559C118.813 58.8959 118.793 58.1598 118.647 57.4769C118.435 56.4756 117.699 55.3947 116.658 55.4876C115.617 55.5804 115.053 56.6082 114.105 56.7806C113.004 56.9862 112.116 55.9783 111.287 55.2157C110.458 54.4532 108.999 53.8895 108.362 54.851C107.978 55.4014 108.15 56.1772 107.759 56.7475C107.675 56.8683 107.567 56.97 107.441 57.0458C107.122 56.9928 106.778 56.9596 106.479 56.9331C105.889 56.1507 106.479 55.03 107.096 54.2807C107.713 53.5315 108.515 52.6893 108.329 51.7278C108.057 50.269 106.048 50.1232 104.576 50.3287C104.085 49.4335 104.145 48.3394 103.913 47.3448C103.681 46.3502 102.965 45.2627 101.924 45.3555C100.883 45.4484 100.326 46.4762 99.3775 46.6817C98.2701 46.8873 97.3882 45.8794 96.5594 45.1168C95.7305 44.3543 94.2651 43.7906 93.6285 44.7521C93.2505 45.3025 93.4229 46.0783 93.0317 46.6486C92.3686 47.5901 90.87 46.9138 89.9682 46.1778C89.0664 45.4417 87.6076 44.7455 86.9047 45.6738C86.7262 45.9819 86.588 46.3118 86.4936 46.6552C85.9897 47.9084 84.5839 48.4787 83.4699 49.2479C82.3559 50.0171 81.421 51.5952 82.283 52.6363C82.7074 53.1535 83.4898 53.3922 83.6821 54.0288C83.9208 54.8311 83.0853 55.4942 82.4222 56.018C81.9929 56.4564 81.6923 57.0042 81.5531 57.6017C81.414 58.1993 81.4417 58.8236 81.6332 59.4065C81.3012 59.6849 80.9117 59.8864 80.4926 59.9966C79.3919 60.1955 78.5034 59.1876 77.6745 58.4251C76.8456 57.6625 75.3868 57.1387 74.7503 58.0604C74.3723 58.6107 74.5447 59.4197 74.1468 59.9634C73.4837 60.905 71.9918 60.2287 71.09 59.4927C70.1882 58.7566 68.7294 58.0604 68.0265 58.9821C67.8461 59.2893 67.7079 59.6194 67.6154 59.9634C67.1114 61.2233 65.699 61.787 64.585 62.5561C63.4711 63.3253 62.5427 64.9101 63.4047 65.9512C63.8092 66.4419 64.5386 66.6872 64.7707 67.2774C64.028 66.9458 63.2124 66.8928 62.7814 67.5227C62.3504 68.1526 62.5692 68.8489 62.178 69.4258C61.5149 70.3674 60.0163 69.691 59.1212 68.955C58.226 68.219 56.7606 67.5227 56.0577 68.451C55.8752 68.7572 55.7368 69.0876 55.6466 69.4324C55.1426 70.6857 53.7302 71.2493 52.6162 72.0185C51.5022 72.7877 50.5739 74.3725 51.4359 75.4135C51.8603 75.9307 52.6361 76.1628 52.8284 76.806C53.0671 77.6017 52.2316 78.2648 51.5752 78.7953C50.4744 79.644 50.1495 82.3163 51.5155 83.1187C52.0858 83.4568 52.9411 83.5961 53.0539 84.2459C53.1666 84.8957 52.5433 85.2538 52.1322 85.6782C51.8708 85.9832 51.6788 86.3414 51.5696 86.728C51.4604 87.1145 51.4364 87.5202 51.4995 87.9169C51.5626 88.3136 51.7111 88.6919 51.9349 89.0255C52.1586 89.3591 52.4522 89.6401 52.7953 89.849C53.1202 90.0281 53.5247 90.1806 53.6308 90.5121C53.6722 90.7762 53.6329 91.0466 53.518 91.2879C53.3582 91.7662 53.2863 92.2694 53.3058 92.7733C53.2941 92.9472 53.3513 93.1187 53.465 93.2507C53.5909 93.3469 53.7442 93.4004 53.9026 93.4032C55.8919 93.5889 56.9197 92.9192 58.0668 94.7294C58.1662 94.9098 58.3016 95.0678 58.4647 95.1936C58.6338 95.2884 58.8217 95.345 59.0151 95.3593C60.3943 95.5384 61.3425 94.6962 62.6157 94.6233C64.3861 94.4841 64.711 95.4058 66.2229 96.2081C68.6034 97.4746 69.8168 96.8248 70.354 95.1869C70.5003 94.7231 70.5981 94.2453 70.6457 93.7613C70.6573 93.4006 70.7469 93.0467 70.9083 92.7239C71.0697 92.4011 71.2991 92.1171 71.5807 91.8914H71.6271C72.9135 92.0571 73.8219 91.3675 74.9426 91.1885L75.6587 91.1487C77.0247 91.2018 77.4358 92.0174 78.8018 92.7401C79.4292 93.1111 80.1314 93.3376 80.8573 93.4032C81.0231 94.1658 80.1942 94.8023 79.5908 95.2997C78.4901 96.1418 78.1652 98.8207 79.5312 99.623C80.1014 99.9612 80.9568 100.094 81.0695 100.75C81.1823 101.407 80.5589 101.758 80.1478 102.183C79.8875 102.488 79.6965 102.846 79.5879 103.233C79.4793 103.619 79.4557 104.024 79.5187 104.421C79.5817 104.817 79.7299 105.195 79.9529 105.529C80.176 105.862 80.4687 106.144 80.8109 106.353C81.1358 106.532 81.5403 106.685 81.6464 107.017C81.6879 107.281 81.6486 107.551 81.5337 107.792C81.374 108.273 81.3021 108.778 81.3215 109.284C81.3074 109.367 81.3128 109.452 81.3374 109.532C81.362 109.612 81.405 109.686 81.463 109.746C81.521 109.807 81.5924 109.853 81.6715 109.881C81.7505 109.909 81.8351 109.918 81.9183 109.908C83.9076 110.093 84.9354 109.43 86.0825 111.234C86.1799 111.417 86.3156 111.578 86.4804 111.705C86.6495 111.799 86.8374 111.856 87.0307 111.87C88.41 112.049 89.3582 111.207 90.6313 111.128C92.4018 110.988 92.7267 111.917 94.2385 112.719C96.619 113.979 97.8325 113.329 98.3696 111.698C98.516 111.232 98.6137 110.752 98.6614 110.266C98.9797 107.288 101.811 107.898 104.258 107.613C104.342 107.611 104.425 107.586 104.497 107.542C104.569 107.498 104.628 107.436 104.669 107.361H104.822C106.201 107.54 107.149 106.698 108.422 106.619C110.186 106.479 110.517 107.408 112.029 108.21C114.41 109.47 115.623 108.827 116.16 107.189C116.308 106.723 116.403 106.243 116.446 105.757C116.698 103.442 118.468 103.297 120.424 103.21C120.434 103.666 120.561 104.112 120.793 104.505C121.025 104.898 121.355 105.224 121.75 105.452C122.075 105.631 122.48 105.783 122.592 106.115C122.628 106.379 122.586 106.649 122.473 106.891C122.312 107.368 122.243 107.872 122.267 108.376C122.254 108.458 122.259 108.542 122.283 108.622C122.307 108.701 122.35 108.774 122.407 108.835C122.464 108.895 122.535 108.942 122.613 108.97C122.691 108.999 122.775 109.009 122.858 108.999C124.847 109.191 125.881 108.522 127.022 110.325C127.121 110.506 127.257 110.664 127.42 110.79C127.589 110.884 127.777 110.941 127.97 110.955C129.349 111.134 130.298 110.292 131.571 110.219C133.341 110.08 133.666 111.002 135.185 111.804C137.558 113.071 138.778 112.421 139.316 110.783C139.457 110.316 139.553 109.836 139.601 109.351C139.926 106.373 142.75 106.99 145.197 106.698C147.107 106.473 142.319 101.447 146.218 100.067C147.012 99.9017 147.717 99.4511 148.201 98.8008C148.409 98.3456 148.453 97.8325 148.324 97.3488C148.196 96.8651 147.904 96.4409 147.498 96.1484ZM121.704 99.1986C121.804 99.26 121.891 99.3409 121.959 99.4366C122.028 99.5323 122.076 99.6408 122.102 99.7556C122.13 99.9365 122.095 100.122 122.002 100.279C121.878 99.9243 121.778 99.5609 121.704 99.192V99.1986ZM96.8113 73.0728C96.0639 72.8724 95.3939 72.452 94.8884 71.866C95.5682 72.2027 96.2125 72.6071 96.8113 73.0728ZM116.485 80.2342C116.584 79.938 116.742 79.665 116.949 79.4319C117.165 79.5271 117.334 79.7034 117.42 79.9225C117.43 79.9885 117.43 80.0555 117.42 80.1215C117.284 80.0847 117.143 80.0712 117.003 80.0817C116.823 80.1019 116.647 80.1536 116.485 80.2342ZM119.138 82.8401C120.272 82.8401 121.034 82.8401 121.876 84.1663C121.973 84.3482 122.109 84.5067 122.274 84.6305C122.441 84.7244 122.627 84.781 122.818 84.7963C123.533 84.8576 124.251 84.7366 124.907 84.4448C124.84 84.6305 124.787 84.8228 124.714 85.0085C124.431 85.6235 123.969 86.1388 123.388 86.4872C123.116 85.0284 121.107 84.8825 119.635 85.088C119.317 84.3682 119.141 83.5936 119.118 82.807L119.138 82.8401ZM128.189 84.5111C128.057 84.4026 127.92 84.3008 127.778 84.2061C128.353 84.4921 128.895 84.8388 129.396 85.2405C128.952 85.0471 128.539 84.7902 128.169 84.478L128.189 84.5111Z" fill="#A08CE6"/>
<path d="M74.8496 122.539C74.1777 122.1 73.3911 121.87 72.5885 121.876C72.1309 121.253 72.5885 120.378 73.0725 119.794C73.5566 119.211 74.1931 118.541 74.0539 117.805C73.8351 116.658 72.2503 116.538 71.0965 116.704C70.7053 116.001 70.7583 115.146 70.5859 114.357C70.4135 113.568 69.8433 112.719 69.0343 112.779C68.2253 112.838 67.7744 113.661 67.045 113.8C66.1764 113.959 65.4669 113.137 64.8237 112.56C64.1805 111.983 63.02 111.552 62.5227 112.275C62.2177 112.712 62.3569 113.342 62.0453 113.773C61.5082 114.516 60.3478 113.979 59.6383 113.402C58.9288 112.825 57.7816 112.275 57.2246 113.004C57.0815 113.247 56.9722 113.508 56.8997 113.78C56.5018 114.761 55.3945 115.212 54.5192 115.816C53.6439 116.419 52.9079 117.666 53.5842 118.468C53.9224 118.873 54.5325 119.058 54.685 119.562C54.8773 120.192 54.2142 120.716 53.697 121.114C52.8283 121.777 52.5763 123.892 53.6505 124.522C54.0948 124.787 54.7712 124.893 54.8574 125.411C54.9436 125.928 54.4595 126.2 54.1346 126.538C53.9236 126.778 53.7678 127.062 53.6782 127.369C53.5887 127.676 53.5675 127.999 53.6161 128.315C53.6648 128.631 53.7822 128.932 53.96 129.198C54.1378 129.464 54.3716 129.688 54.6452 129.853C54.9038 129.993 55.2221 130.112 55.3083 130.397C55.3397 130.605 55.3073 130.818 55.2154 131.007C55.091 131.385 55.0348 131.783 55.0497 132.181C55.0427 132.316 55.0878 132.449 55.1757 132.552C55.2749 132.628 55.3957 132.67 55.5205 132.672C57.1053 132.817 57.901 132.294 58.7961 133.719C58.8764 133.863 58.9846 133.989 59.1144 134.091C59.2473 134.163 59.3943 134.206 59.5454 134.217C60.6329 134.362 61.3756 133.713 62.3835 133.633C63.776 133.527 64.0346 134.256 65.2215 134.886C67.0981 135.881 68.0529 135.37 68.4773 134.084C68.5893 133.716 68.6648 133.339 68.7027 132.957C68.9547 130.609 71.1827 131.093 73.1123 130.868C74.6109 130.689 70.8445 126.73 73.9146 125.663C74.5073 125.53 75.0362 125.197 75.4132 124.721C75.598 124.351 75.6428 123.926 75.5392 123.525C75.4356 123.124 75.1907 122.774 74.8496 122.539Z" fill="#A08CE6"/>
<g opacity="0.3">
<path d="M147.498 96.1484C146.651 95.5799 145.654 95.2774 144.634 95.2798C144.05 94.4907 144.634 93.3767 145.25 92.6274C145.867 91.8781 146.676 91.036 146.49 90.0679C146.218 88.6157 144.203 88.4632 142.737 88.6754C142.24 87.7736 142.306 86.6861 142.074 85.6848C141.842 84.6835 141.119 83.6093 140.085 83.6955C139.05 83.7817 138.487 84.8162 137.538 85.0217C136.438 85.2207 135.549 84.2128 134.72 83.4502C134.618 83.355 134.509 83.2664 134.395 83.185C134.72 80.2077 137.545 80.8243 139.992 80.5326C141.902 80.3071 137.121 75.2809 141.013 73.9017C141.768 73.7314 142.442 73.3079 142.923 72.7015C143.129 72.2461 143.172 71.7333 143.044 71.25C142.916 70.7666 142.625 70.3424 142.22 70.0491C141.37 69.4815 140.371 69.1792 139.349 69.1804C138.765 68.3914 139.349 67.2774 139.965 66.5281C140.582 65.7788 141.391 64.9366 141.205 63.9685C140.934 62.5164 138.924 62.3638 137.452 62.576C136.955 61.6742 137.021 60.5868 136.789 59.5855C136.557 58.5842 135.841 57.51 134.8 57.5962C133.759 57.6824 133.202 58.7168 132.247 58.9224C131.146 59.1213 130.258 58.1134 129.429 57.3509C128.6 56.5883 127.141 56.0645 126.505 56.9862C126.127 57.5365 126.299 58.3124 125.901 58.8892C125.238 59.8308 123.746 59.1545 122.844 58.4185C121.943 57.6824 120.484 56.9862 119.781 57.9145C119.601 58.2221 119.463 58.5521 119.37 58.8959C119.266 59.1343 119.13 59.3574 118.965 59.559C118.813 58.8959 118.793 58.1598 118.647 57.4769C118.435 56.4756 117.699 55.3947 116.658 55.4876C115.617 55.5804 115.053 56.6082 114.105 56.7806C113.004 56.9862 112.116 55.9783 111.287 55.2157C110.458 54.4532 108.999 53.8895 108.362 54.851C107.978 55.4014 108.15 56.1772 107.759 56.7475C107.675 56.8683 107.567 56.97 107.441 57.0458C107.122 56.9928 106.778 56.9596 106.479 56.9331C105.889 56.1507 106.479 55.03 107.096 54.2807C107.713 53.5315 108.515 52.6893 108.329 51.7278C108.057 50.269 106.048 50.1232 104.576 50.3287C104.085 49.4335 104.145 48.3394 103.913 47.3448C103.681 46.3502 102.965 45.2627 101.924 45.3555C100.883 45.4484 100.326 46.4762 99.3775 46.6817C98.2701 46.8873 97.3882 45.8794 96.5594 45.1168C95.7305 44.3543 94.2651 43.7906 93.6285 44.7521C93.2505 45.3025 93.4229 46.0783 93.0317 46.6486C92.3686 47.5901 90.87 46.9138 89.9682 46.1778C89.0664 45.4417 87.6076 44.7455 86.9047 45.6738C86.7262 45.9819 86.588 46.3118 86.4936 46.6552C85.9897 47.9084 84.5839 48.4787 83.4699 49.2479C82.3559 50.0171 81.421 51.5952 82.283 52.6363C82.7074 53.1535 83.4898 53.3922 83.6821 54.0288C83.9208 54.8311 83.0853 55.4942 82.4222 56.018C81.9929 56.4564 81.6923 57.0042 81.5531 57.6017C81.414 58.1993 81.4417 58.8236 81.6332 59.4065C81.3012 59.6849 80.9117 59.8864 80.4926 59.9966C79.3919 60.1955 78.5034 59.1876 77.6745 58.4251C76.8456 57.6625 75.3868 57.1387 74.7503 58.0604C74.3723 58.6107 74.5447 59.4197 74.1468 59.9634C73.4837 60.905 71.9918 60.2287 71.09 59.4927C70.1882 58.7566 68.7294 58.0604 68.0265 58.9821C67.8461 59.2893 67.7079 59.6194 67.6154 59.9634C67.1114 61.2233 65.699 61.787 64.585 62.5561C63.4711 63.3253 62.5427 64.9101 63.4047 65.9512C63.8092 66.4419 64.5386 66.6872 64.7707 67.2774C64.028 66.9458 63.2124 66.8928 62.7814 67.5227C62.3504 68.1526 62.5692 68.8489 62.178 69.4258C61.5149 70.3674 60.0163 69.691 59.1212 68.955C58.226 68.219 56.7606 67.5227 56.0577 68.451C55.8752 68.7572 55.7368 69.0876 55.6466 69.4324C55.1426 70.6857 53.7302 71.2493 52.6162 72.0185C51.5022 72.7877 50.5739 74.3725 51.4359 75.4135C51.8603 75.9307 52.6361 76.1628 52.8284 76.806C53.0671 77.6017 52.2316 78.2648 51.5752 78.7953C50.4744 79.644 50.1495 82.3163 51.5155 83.1187C52.0858 83.4568 52.9411 83.5961 53.0539 84.2459C53.1666 84.8957 52.5433 85.2538 52.1322 85.6782C51.8708 85.9832 51.6788 86.3414 51.5696 86.728C51.4604 87.1145 51.4364 87.5202 51.4995 87.9169C51.5626 88.3136 51.7111 88.6919 51.9349 89.0255C52.1586 89.3591 52.4522 89.6401 52.7953 89.849C53.1202 90.0281 53.5247 90.1806 53.6308 90.5121C53.6722 90.7762 53.6329 91.0466 53.518 91.2879C53.3582 91.7662 53.2863 92.2694 53.3058 92.7733C53.2941 92.9472 53.3513 93.1187 53.465 93.2507C53.5909 93.3469 53.7442 93.4004 53.9026 93.4032C55.8919 93.5889 56.9197 92.9192 58.0668 94.7294C58.1662 94.9098 58.3016 95.0678 58.4647 95.1936C58.6338 95.2884 58.8217 95.345 59.0151 95.3593C60.3943 95.5384 61.3425 94.6962 62.6157 94.6233C64.3861 94.4841 64.711 95.4058 66.2229 96.2081C68.6034 97.4746 69.8168 96.8248 70.354 95.1869C70.5003 94.7231 70.5981 94.2453 70.6457 93.7613C70.6573 93.4006 70.7469 93.0467 70.9083 92.7239C71.0697 92.4011 71.2991 92.1171 71.5807 91.8914H71.6271C72.9135 92.0571 73.8219 91.3675 74.9426 91.1885L75.6587 91.1487C77.0247 91.2018 77.4358 92.0174 78.8018 92.7401C79.4292 93.1111 80.1314 93.3376 80.8573 93.4032C81.0231 94.1658 80.1942 94.8023 79.5908 95.2997C78.4901 96.1418 78.1652 98.8207 79.5312 99.623C80.1014 99.9612 80.9568 100.094 81.0695 100.75C81.1823 101.407 80.5589 101.758 80.1478 102.183C79.8875 102.488 79.6965 102.846 79.5879 103.233C79.4793 103.619 79.4557 104.024 79.5187 104.421C79.5817 104.817 79.7299 105.195 79.9529 105.529C80.176 105.862 80.4687 106.144 80.8109 106.353C81.1358 106.532 81.5403 106.685 81.6464 107.017C81.6879 107.281 81.6486 107.551 81.5337 107.792C81.374 108.273 81.3021 108.778 81.3215 109.284C81.3074 109.367 81.3128 109.452 81.3374 109.532C81.362 109.612 81.405 109.686 81.463 109.746C81.521 109.807 81.5924 109.853 81.6715 109.881C81.7505 109.909 81.8351 109.918 81.9183 109.908C83.9076 110.093 84.9354 109.43 86.0825 111.234C86.1799 111.417 86.3156 111.578 86.4804 111.705C86.6495 111.799 86.8374 111.856 87.0307 111.87C88.41 112.049 89.3582 111.207 90.6313 111.128C92.4018 110.988 92.7267 111.917 94.2385 112.719C96.619 113.979 97.8325 113.329 98.3696 111.698C98.516 111.232 98.6137 110.752 98.6614 110.266C98.9797 107.288 101.811 107.898 104.258 107.613C104.342 107.611 104.425 107.586 104.497 107.542C104.569 107.498 104.628 107.436 104.669 107.361H104.822C106.201 107.54 107.149 106.698 108.422 106.619C110.186 106.479 110.517 107.408 112.029 108.21C114.41 109.47 115.623 108.827 116.16 107.189C116.308 106.723 116.403 106.243 116.446 105.757C116.698 103.442 118.468 103.297 120.424 103.21C120.434 103.666 120.561 104.112 120.793 104.505C121.025 104.898 121.355 105.224 121.75 105.452C122.075 105.631 122.48 105.783 122.592 106.115C122.628 106.379 122.586 106.649 122.473 106.891C122.312 107.368 122.243 107.872 122.267 108.376C122.254 108.458 122.259 108.542 122.283 108.622C122.307 108.701 122.35 108.774 122.407 108.835C122.464 108.895 122.535 108.942 122.613 108.97C122.691 108.999 122.775 109.009 122.858 108.999C124.847 109.191 125.881 108.522 127.022 110.325C127.121 110.506 127.257 110.664 127.42 110.79C127.589 110.884 127.777 110.941 127.97 110.955C129.349 111.134 130.298 110.292 131.571 110.219C133.341 110.08 133.666 111.002 135.185 111.804C137.558 113.071 138.778 112.421 139.316 110.783C139.457 110.316 139.553 109.836 139.601 109.351C139.926 106.373 142.75 106.99 145.197 106.698C147.107 106.473 142.319 101.447 146.218 100.067C147.012 99.9017 147.717 99.4511 148.201 98.8008C148.409 98.3456 148.453 97.8325 148.324 97.3488C148.196 96.8651 147.904 96.4409 147.498 96.1484ZM121.704 99.1986C121.804 99.26 121.891 99.3409 121.959 99.4366C122.028 99.5323 122.076 99.6408 122.102 99.7556C122.13 99.9365 122.095 100.122 122.002 100.279C121.878 99.9243 121.778 99.5609 121.704 99.192V99.1986ZM96.8113 73.0728C96.0639 72.8724 95.3939 72.452 94.8884 71.866C95.5682 72.2027 96.2125 72.6071 96.8113 73.0728ZM116.485 80.2342C116.584 79.938 116.742 79.665 116.949 79.4319C117.165 79.5271 117.334 79.7034 117.42 79.9225C117.43 79.9885 117.43 80.0555 117.42 80.1215C117.284 80.0847 117.143 80.0712 117.003 80.0817C116.823 80.1019 116.647 80.1536 116.485 80.2342ZM119.138 82.8401C120.272 82.8401 121.034 82.8401 121.876 84.1663C121.973 84.3482 122.109 84.5067 122.274 84.6305C122.441 84.7244 122.627 84.781 122.818 84.7963C123.533 84.8576 124.251 84.7366 124.907 84.4448C124.84 84.6305 124.787 84.8228 124.714 85.0085C124.431 85.6235 123.969 86.1388 123.388 86.4872C123.116 85.0284 121.107 84.8825 119.635 85.088C119.317 84.3682 119.141 83.5936 119.118 82.807L119.138 82.8401ZM128.189 84.5111C128.057 84.4026 127.92 84.3008 127.778 84.2061C128.353 84.4921 128.895 84.8388 129.396 85.2405C128.952 85.0471 128.539 84.7902 128.169 84.478L128.189 84.5111Z" fill="white"/>
<path d="M74.8496 122.539C74.1777 122.1 73.3911 121.87 72.5885 121.876C72.1309 121.253 72.5885 120.378 73.0725 119.794C73.5566 119.211 74.1931 118.541 74.0539 117.805C73.8351 116.658 72.2503 116.538 71.0965 116.704C70.7053 116.001 70.7583 115.146 70.5859 114.357C70.4135 113.568 69.8433 112.719 69.0343 112.779C68.2253 112.838 67.7744 113.661 67.045 113.8C66.1764 113.959 65.4669 113.137 64.8237 112.56C64.1805 111.983 63.02 111.552 62.5227 112.275C62.2177 112.712 62.3569 113.342 62.0453 113.773C61.5082 114.516 60.3478 113.979 59.6383 113.402C58.9288 112.825 57.7816 112.275 57.2246 113.004C57.0815 113.247 56.9722 113.508 56.8997 113.78C56.5018 114.761 55.3945 115.212 54.5192 115.816C53.6439 116.419 52.9079 117.666 53.5842 118.468C53.9224 118.873 54.5325 119.058 54.685 119.562C54.8773 120.192 54.2142 120.716 53.697 121.114C52.8283 121.777 52.5763 123.892 53.6505 124.522C54.0948 124.787 54.7712 124.893 54.8574 125.411C54.9436 125.928 54.4595 126.2 54.1346 126.538C53.9236 126.778 53.7678 127.062 53.6782 127.369C53.5887 127.676 53.5675 127.999 53.6161 128.315C53.6648 128.631 53.7822 128.932 53.96 129.198C54.1378 129.464 54.3716 129.688 54.6452 129.853C54.9038 129.993 55.2221 130.112 55.3083 130.397C55.3397 130.605 55.3073 130.818 55.2154 131.007C55.091 131.385 55.0348 131.783 55.0497 132.181C55.0427 132.316 55.0878 132.449 55.1757 132.552C55.2749 132.628 55.3957 132.67 55.5205 132.672C57.1053 132.817 57.901 132.294 58.7961 133.719C58.8764 133.863 58.9846 133.989 59.1144 134.091C59.2473 134.163 59.3943 134.206 59.5454 134.217C60.6329 134.362 61.3756 133.713 62.3835 133.633C63.776 133.527 64.0346 134.256 65.2215 134.886C67.0981 135.881 68.0529 135.37 68.4773 134.084C68.5893 133.716 68.6648 133.339 68.7027 132.957C68.9547 130.609 71.1827 131.093 73.1123 130.868C74.6109 130.689 70.8445 126.73 73.9146 125.663C74.5073 125.53 75.0362 125.197 75.4132 124.721C75.598 124.351 75.6428 123.926 75.5392 123.525C75.4356 123.124 75.1907 122.774 74.8496 122.539Z" fill="white"/>
</g>
<path d="M117.752 108.449L121.346 98.6814L127.818 91.1553L126.817 90.2336L120.769 96.2015L120.232 86.2551L117.944 86.1424C117.944 86.1424 120.418 97.6205 118.229 101.844C118.229 101.844 109.158 120.02 104.616 123.726C104.365 123.946 104.143 124.195 103.953 124.469C102.816 121.063 101.278 117.804 99.3711 114.761C101.301 110.451 105.445 100.956 106.95 95.8766C108.126 91.9139 109.06 87.8838 109.748 83.8083L108.084 82.807C108.084 82.807 103.363 102.474 96.2678 110.829C94.3753 108.922 92.2044 107.312 89.8292 106.055C89.4247 103.35 89.4181 98.6748 91.5466 91.467L90.2867 90.1872C90.2867 90.1872 87.1569 97.0966 87.0309 104.477C86.0528 103.922 85.1134 103.302 84.2194 102.62C78.0063 97.7863 73.8818 89.3915 73.8818 89.3915L71.4416 89.2722C71.4416 89.2722 77.4095 102.925 84.8626 107.328C92.3158 111.731 96.7983 121.777 97.0635 124.37C97.1431 125.112 96.9309 132.877 96.5994 143.599C88.4831 138.129 68.5373 124.642 67.5095 123.707L67.3901 126.193L96.3938 149.859C95.5915 174.771 94.3382 209.696 94.1327 215.3L105.982 215.876C106.493 208.151 109.298 163.008 106.731 138.135C106.884 137.393 107.05 136.544 107.229 135.556C108.86 126.273 118.243 112.633 120.093 110.458C121.943 108.283 127.314 101.413 127.314 101.413L126.352 99.7954L117.752 108.449Z" fill="#263238"/>
<path opacity="0.6" d="M117.752 108.449L121.346 98.6814L127.818 91.1553L126.817 90.2336L120.769 96.2015L120.232 86.2551L117.944 86.1424C117.944 86.1424 120.418 97.6205 118.229 101.844C118.229 101.844 109.158 120.02 104.616 123.726C104.365 123.946 104.143 124.195 103.953 124.469C102.816 121.063 101.278 117.804 99.3711 114.761C101.301 110.451 105.445 100.956 106.95 95.8766C108.126 91.9139 109.06 87.8838 109.748 83.8083L108.084 82.807C108.084 82.807 103.363 102.474 96.2678 110.829C94.3753 108.922 92.2044 107.312 89.8292 106.055C89.4247 103.35 89.4181 98.6748 91.5466 91.467L90.2867 90.1872C90.2867 90.1872 87.1569 97.0966 87.0309 104.477C86.0528 103.922 85.1134 103.302 84.2194 102.62C78.0063 97.7863 73.8818 89.3915 73.8818 89.3915L71.4416 89.2722C71.4416 89.2722 77.4095 102.925 84.8626 107.328C92.3158 111.731 96.7983 121.777 97.0635 124.37C97.1431 125.112 96.9309 132.877 96.5994 143.599C88.4831 138.129 68.5373 124.642 67.5095 123.707L67.3901 126.193L96.3938 149.859C95.5915 174.771 94.3382 209.696 94.1327 215.3L105.982 215.876C106.493 208.151 109.298 163.008 106.731 138.135C106.884 137.393 107.05 136.544 107.229 135.556C108.86 126.273 118.243 112.633 120.093 110.458C121.943 108.283 127.314 101.413 127.314 101.413L126.352 99.7954L117.752 108.449Z" fill="white"/>
<path d="M242.155 216.99C242.155 216.99 240.431 211.208 243.925 210.054C247.42 208.901 249.489 206.202 249.369 203.138C249.25 200.075 252.93 197.104 255.682 199.975C258.434 202.847 258.069 197.767 261.749 196.534C265.429 195.301 268.539 198.291 267.531 201.023C266.523 203.755 270.184 205.466 274.494 203.138C278.804 200.811 283.618 205.041 282.696 208.35C281.775 211.659 282.53 212.024 285.276 210.923C288.021 209.822 292.941 212.946 291.244 216.99C289.546 221.035 242.155 216.99 242.155 216.99Z" fill="#A08CE6"/>
<path d="M61.0775 217.6C57.9809 215.498 60.7659 211.924 63.8691 211.5C66.9724 211.076 70.0823 207.382 70.2282 205.028C70.3741 202.674 75.9573 195.427 84.6372 199.903C93.3171 204.378 90.678 200.566 96.9575 199.306C103.237 198.046 107.196 201.666 104.444 204.378C104.444 204.378 110.75 203.304 113.349 207.296C115.948 211.288 113.349 213.774 113.349 213.774C113.349 213.774 125.212 213.536 124.144 218.509C123.077 223.482 61.0775 217.6 61.0775 217.6Z" fill="#A08CE6"/>
<path d="M50.2225 215.127C50.2225 215.127 55.8521 204.153 54.4331 203.079C53.0141 202.005 50.2291 212.249 50.2225 211.447C50.2159 210.645 50.3816 196.693 47.7823 197.25C45.183 197.807 47.7823 210.651 47.7823 210.651C47.7823 210.651 44.2878 204.087 42.9152 204.584C41.5426 205.081 46.9601 212.886 46.9601 212.886C46.9601 212.886 43.7242 210.936 42.9152 211.082C42.1062 211.228 46.9601 215.127 46.9601 215.127H50.2225Z" fill="#A08CE6"/>
<path d="M208.543 216.467C208.543 216.467 202.913 205.486 204.332 204.412C205.751 203.337 208.536 213.582 208.543 212.786C208.549 211.991 208.383 198.033 210.983 198.59C213.582 199.147 210.983 211.991 210.983 211.991C210.983 211.991 214.477 205.426 215.85 205.923C217.222 206.421 211.805 214.225 211.805 214.225C211.805 214.225 215.041 212.269 215.85 212.422C216.659 212.574 211.805 216.467 211.805 216.467H208.543Z" fill="#A08CE6"/>
<path opacity="0.6" d="M242.155 216.99C242.155 216.99 240.431 211.208 243.925 210.054C247.42 208.901 249.489 206.202 249.369 203.138C249.25 200.075 252.93 197.104 255.682 199.975C258.434 202.847 258.069 197.767 261.749 196.534C265.429 195.301 268.539 198.291 267.531 201.023C266.523 203.755 270.184 205.466 274.494 203.138C278.804 200.811 283.618 205.041 282.696 208.35C281.775 211.659 282.53 212.024 285.276 210.923C288.021 209.822 292.941 212.946 291.244 216.99C289.546 221.035 242.155 216.99 242.155 216.99Z" fill="white"/>
<path opacity="0.6" d="M61.0775 217.6C57.9809 215.498 60.7659 211.924 63.8691 211.5C66.9724 211.076 70.0823 207.382 70.2282 205.028C70.3741 202.674 75.9573 195.427 84.6372 199.903C93.3171 204.378 90.678 200.566 96.9575 199.306C103.237 198.046 107.196 201.666 104.444 204.378C104.444 204.378 110.75 203.304 113.349 207.296C115.948 211.288 113.349 213.774 113.349 213.774C113.349 213.774 125.212 213.536 124.144 218.509C123.077 223.482 61.0775 217.6 61.0775 217.6Z" fill="white"/>
<path opacity="0.6" d="M50.2225 215.127C50.2225 215.127 55.8521 204.153 54.4331 203.079C53.0141 202.005 50.2291 212.249 50.2225 211.447C50.2159 210.645 50.3816 196.693 47.7823 197.25C45.183 197.807 47.7823 210.651 47.7823 210.651C47.7823 210.651 44.2878 204.087 42.9152 204.584C41.5426 205.081 46.9601 212.886 46.9601 212.886C46.9601 212.886 43.7242 210.936 42.9152 211.082C42.1062 211.228 46.9601 215.127 46.9601 215.127H50.2225Z" fill="white"/>
<path opacity="0.6" d="M208.543 216.467C208.543 216.467 202.913 205.486 204.332 204.412C205.751 203.337 208.536 213.582 208.543 212.786C208.549 211.991 208.383 198.033 210.983 198.59C213.582 199.147 210.983 211.991 210.983 211.991C210.983 211.991 214.477 205.426 215.85 205.923C217.222 206.421 211.805 214.225 211.805 214.225C211.805 214.225 215.041 212.269 215.85 212.422C216.659 212.574 211.805 216.467 211.805 216.467H208.543Z" fill="white"/>
<path d="M173.584 216.115C173.584 216.115 179.983 210.485 178.067 209.531C176.151 208.576 173.823 213.788 173.584 213.005C173.346 212.223 174.838 205.048 171.29 205.565C167.742 206.083 171.29 213.005 171.29 213.005C171.29 213.005 168.638 210.154 167.736 210.605C166.834 211.056 170.534 216.115 170.534 216.115H173.584Z" fill="#A08CE6"/>
<path opacity="0.6" d="M173.584 216.115C173.584 216.115 179.983 210.485 178.067 209.531C176.151 208.576 173.823 213.788 173.584 213.005C173.346 212.223 174.838 205.048 171.29 205.565C167.742 206.083 171.29 213.005 171.29 213.005C171.29 213.005 168.638 210.154 167.736 210.605C166.834 211.056 170.534 216.115 170.534 216.115H173.584Z" fill="white"/>
<path d="M33.818 214.252H296.131C296.482 214.252 296.82 214.392 297.069 214.64C297.317 214.889 297.457 215.226 297.457 215.578V227.686H32.4918V215.591C32.49 215.416 32.523 215.242 32.5889 215.08C32.6547 214.917 32.7522 214.77 32.8755 214.645C32.9988 214.52 33.1456 214.422 33.3074 214.354C33.4691 214.287 33.6427 214.252 33.818 214.252Z" fill="#263238"/>
<path opacity="0.5" d="M33.818 214.252H296.131C296.482 214.252 296.82 214.392 297.069 214.64C297.317 214.889 297.457 215.226 297.457 215.578V227.686H32.4918V215.591C32.49 215.416 32.523 215.242 32.5889 215.08C32.6547 214.917 32.7522 214.77 32.8755 214.645C32.9988 214.52 33.1456 214.422 33.3074 214.354C33.4691 214.287 33.6427 214.252 33.818 214.252Z" fill="white"/>
<path opacity="0.2" d="M296.171 216.944H278.817V226.055H296.171V216.944Z" fill="white"/>
<path opacity="0.2" d="M277.889 216.075H260.536V225.186H277.889V216.075Z" fill="white"/>
<path opacity="0.2" d="M259.793 219.391H248.501V225.186H259.793V219.391Z" fill="white"/>
<path opacity="0.2" d="M48.0679 220.14H36.7754V225.936H48.0679V220.14Z" fill="white"/>
<path opacity="0.2" d="M247.592 216.5H235.716V224.43H247.592V216.5Z" fill="white"/>
<path opacity="0.2" d="M234.848 215.426H226.765V223.356H234.848V215.426Z" fill="white"/>
<path opacity="0.2" d="M57.4571 216.944H49.374V224.875H57.4571V216.944Z" fill="white"/>
<path opacity="0.2" d="M200.805 216.944H192.722V224.875H200.805V216.944Z" fill="white"/>
<path opacity="0.2" d="M209.286 215.426H201.203V220.909H209.286V215.426Z" fill="white"/>
<path opacity="0.2" d="M225.936 217.534H212.634V225.465H225.936V217.534Z" fill="white"/>
<path opacity="0.2" d="M191.8 216.5H178.498V224.43H191.8V216.5Z" fill="white"/>
<path opacity="0.2" d="M259.011 216.075H250.444V218.628H259.011V216.075Z" fill="white"/>
<path opacity="0.2" d="M45.3425 216.254H36.7754V218.807H45.3425V216.254Z" fill="white"/>
<path opacity="0.2" d="M211.076 222.083H202.509V224.636H211.076V222.083Z" fill="white"/>
<path opacity="0.2" d="M177.324 216.944H159.971V226.055H177.324V216.944Z" fill="white"/>
<path opacity="0.2" d="M159.043 216.075H141.69V225.186H159.043V216.075Z" fill="white"/>
<path opacity="0.2" d="M140.947 219.391H129.655V225.186H140.947V219.391Z" fill="white"/>
<path opacity="0.2" d="M128.753 216.5H116.877V224.43H128.753V216.5Z" fill="white"/>
<path opacity="0.2" d="M116.008 215.426H107.925V223.356H116.008V215.426Z" fill="white"/>
<path opacity="0.2" d="M81.9586 216.944H73.8755V224.875H81.9586V216.944Z" fill="white"/>
<path opacity="0.2" d="M90.4459 215.426H82.3628V220.909H90.4459V215.426Z" fill="white"/>
<path opacity="0.2" d="M107.097 217.534H93.7949V225.465H107.097V217.534Z" fill="white"/>
<path opacity="0.2" d="M72.9603 216.5H59.6587V224.43H72.9603V216.5Z" fill="white"/>
<path opacity="0.2" d="M140.165 216.075H131.598V218.628H140.165V216.075Z" fill="white"/>
<path opacity="0.2" d="M92.2298 222.083H83.6626V224.636H92.2298V222.083Z" fill="white"/>
<path opacity="0.2" d="M87.913 201.945H69.2867C68.6349 201.945 68.1064 202.473 68.1064 203.125V211.082C68.1064 211.734 68.6349 212.263 69.2867 212.263H87.913C88.5649 212.263 89.0933 211.734 89.0933 211.082V203.125C89.0933 202.473 88.5649 201.945 87.913 201.945Z" fill="white"/>
<path d="M248.872 42.6501C248.872 42.6501 249.17 39.2948 249.96 38.771C250.749 38.2471 255.576 36.974 255.576 36.974C255.576 36.974 253.666 42.1461 252.506 42.7429C251.345 43.3397 248.872 42.6501 248.872 42.6501Z" fill="#A08CE6"/>
<path opacity="0.5" d="M255.576 36.974C255.516 37.1331 253.646 42.1594 252.506 42.7429C251.741 43.0087 250.919 43.0637 250.125 42.902C249.703 42.8424 249.285 42.7583 248.872 42.6501C248.872 42.6501 249.177 39.2882 249.96 38.771C250.742 38.2538 255.132 37.0867 255.549 36.9806L255.576 36.974Z" fill="white"/>
<path opacity="0.2" d="M255.576 36.974C255.516 37.1331 253.646 42.1594 252.506 42.7429C251.741 43.0087 250.919 43.0637 250.125 42.902C249.018 42.1594 251.352 41.3504 251.703 41.0918C252.055 40.8332 251.829 40.568 251.703 40.3757C251.577 40.1834 252.008 39.7126 252.493 39.5534C252.977 39.3943 253.156 38.9964 253.016 38.4328C252.877 37.8692 255.238 37.1066 255.536 36.9806L255.576 36.974Z" fill="black"/>
<path d="M246.412 40.6343C247.506 40.6343 249.999 41.8279 250.822 41.8876C251.644 41.9472 255.729 39.1357 256.604 38.6716C257.479 38.2074 265.178 37.173 265.178 37.173C265.178 37.173 260.072 42.3981 256.604 42.5507C256.604 42.5507 259.17 43.2668 259.919 43.0745C262.295 42.5849 264.715 42.3492 267.14 42.3716L262.393 43.9166L266.563 44.4272C264.633 44.7705 262.665 44.8441 260.715 44.646C259.225 45.1921 257.692 45.6157 256.133 45.9125C255.062 46.1871 253.942 46.2146 252.859 45.9929C251.776 45.7712 250.757 45.3061 249.88 44.6328C248.381 43.4193 243.441 42.0467 243.441 42.0467L245.126 41.4499C245.246 41.2101 245.429 41.0074 245.656 40.8637C245.882 40.7201 246.144 40.6408 246.412 40.6343Z" fill="#A08CE6"/>
<path opacity="0.6" d="M262.393 43.9165L266.563 44.4271C264.631 44.7705 262.661 44.8441 260.708 44.6459C259.51 45.0927 258.28 45.4495 257.028 45.7135L256.133 45.9124C255.062 46.187 253.942 46.2145 252.859 45.9928C251.776 45.7711 250.757 45.306 249.88 44.6327C248.962 44.0165 247.965 43.5279 246.916 43.1805L246.359 42.9749L245.941 42.8291L245.053 42.5373C244.124 42.2389 243.441 42.0466 243.441 42.0466L245.126 41.4432C245.246 41.1937 245.434 40.983 245.669 40.8353C245.903 40.6876 246.175 40.6087 246.452 40.6077C247.519 40.7558 248.561 41.0504 249.548 41.483C249.975 41.6583 250.42 41.7851 250.875 41.861C251.697 41.9273 255.782 39.1091 256.657 38.645C258.1 38.2309 259.575 37.9338 261.066 37.7564C263.175 37.4249 265.231 37.1464 265.231 37.1464C265.231 37.1464 261.696 40.7669 258.507 42.0665C257.982 42.2908 257.429 42.4403 256.862 42.5108H256.663H256.703C257.035 42.597 259.289 43.1739 259.979 43.0214C260.509 42.8887 261.073 42.776 261.65 42.6898C263.484 42.4332 265.335 42.3091 267.187 42.3185L262.393 43.9165Z" fill="white"/>
<path opacity="0.2" d="M249.509 41.5096C248.997 41.4618 248.484 41.5779 248.043 41.8411C247.712 42.1859 247.413 42.922 246.883 43.2071L246.326 43.0015L245.908 42.8556L245.019 42.5639C244.985 42.1976 245.01 41.8282 245.092 41.4698C245.213 41.2202 245.401 41.0096 245.636 40.8619C245.87 40.7141 246.141 40.6353 246.419 40.6343C247.484 40.783 248.524 41.0775 249.509 41.5096Z" fill="black"/>
<path opacity="0.2" d="M265.178 37.173C265.178 37.173 261.643 40.7935 258.454 42.0931C257.919 42.2855 257.369 42.4341 256.809 42.5374H256.65C254.071 42.9353 253.772 42.5374 253.772 42.5374C253.772 42.5374 254.648 42.2854 254.734 42.2854C254.82 42.2854 254.369 42.0003 254.926 41.7881C255.483 41.5759 255.404 41.2974 255.404 41.2974C255.961 41.1356 256.499 40.9132 257.008 40.6343C257.061 40.4619 256.809 40.1834 257.512 40.0442C258.215 39.9049 257.512 39.5336 258.633 39.1424C259.754 38.7511 259.449 38.5257 259.449 38.5257C260.034 38.4365 260.58 38.1784 261.02 37.783C263.122 37.4515 265.178 37.173 265.178 37.173Z" fill="black"/>
<path opacity="0.2" d="M262.393 43.9166L266.564 44.4272C264.631 44.7706 262.661 44.8442 260.709 44.646C259.51 45.0928 258.28 45.4496 257.028 45.7136C256.551 45.4616 257.904 45.0505 258.494 44.7322C259.25 44.341 259.157 44.4272 258.859 44.2283C258.56 44.0294 258.859 43.9763 259.76 43.7774C260.662 43.5785 260.423 43.3862 260.967 42.9817C261.171 42.8556 261.396 42.7659 261.63 42.7164C263.465 42.4598 265.315 42.3357 267.167 42.3451L262.393 43.9166Z" fill="black"/>
<path d="M245.092 41.4697L245.57 41.8145L245.285 42.65L243.408 42.0731L245.092 41.4697Z" fill="#A08CE6"/>
<path d="M191.946 76.9784C192.675 76.5209 195.679 79.7568 197.098 80.1613C196.088 80.5086 194.993 80.5226 193.975 80.201C192.41 79.6507 191.176 77.4558 191.946 76.9784Z" fill="#A08CE6"/>
<path opacity="0.4" d="M197.098 80.1612C196.088 80.5052 194.995 80.5215 193.975 80.2076C192.41 79.6572 191.176 77.4558 191.946 76.9783C192.118 76.8656 192.416 76.9783 192.794 77.1839C194.008 77.8934 196.017 79.8495 197.098 80.1612Z" fill="white"/>
<path opacity="0.2" d="M197.098 80.1612C197.098 80.1612 195.818 80.3005 195.639 80.1082C195.549 80.0099 195.438 79.9333 195.314 79.8839C195.19 79.8346 195.056 79.8138 194.923 79.8231C194.565 79.8231 194.426 79.644 194.492 79.286C194.558 78.9279 194.041 79.1202 193.743 79.0008C193.444 78.8815 193.776 78.7688 193.783 78.5168C193.789 78.2648 193.173 78.2383 193.119 78.0327C193.066 77.8272 193.325 77.8802 193.192 77.668C193.06 77.4558 192.616 77.3829 192.775 77.184C194.008 77.8935 196.017 79.8496 197.098 80.1612Z" fill="black"/>
<path d="M189.579 76.3551C190.315 76.1894 192.151 76.6999 192.715 76.6403C193.279 76.5806 196.694 76.3485 196.694 76.3485C197.46 76.432 198.235 76.4075 198.994 76.2756C200.532 75.6433 202.132 75.1765 203.769 74.8831L200.765 76.5275L203.623 76.3618C202.365 76.8426 201.046 77.1461 199.704 77.2636C198.768 77.8164 197.79 78.2953 196.78 78.6958C196.094 79.0193 195.342 79.1815 194.584 79.17C193.825 79.1585 193.079 78.9737 192.403 78.6295C191.236 78.0062 187.729 77.7078 187.729 77.7078L188.789 77.0912C188.838 76.9067 188.938 76.7397 189.078 76.6095C189.218 76.4793 189.391 76.3912 189.579 76.3551Z" fill="#A08CE6"/>
<path opacity="0.6" d="M200.771 76.5341L203.629 76.3617C202.371 76.8425 201.052 77.146 199.71 77.2635L199.571 77.3497C198.857 77.7561 198.119 78.1214 197.363 78.4438C197.184 78.53 196.992 78.6096 196.786 78.6958C196.079 79.002 195.316 79.16 194.545 79.16C193.801 79.1602 193.068 78.9781 192.41 78.6295C191.712 78.3333 190.979 78.1304 190.228 78.0261L189.824 77.9598L189.525 77.92L188.862 77.8338L187.708 77.7078L188.769 77.0911C188.818 76.9075 188.917 76.7412 189.055 76.611C189.194 76.4809 189.366 76.3922 189.552 76.3551C190.289 76.3179 191.027 76.3826 191.747 76.5474C192.056 76.6119 192.372 76.643 192.688 76.6402C193.252 76.5739 196.713 76.3418 196.667 76.3485H196.7C197.456 76.4341 198.219 76.4095 198.968 76.2755C199.323 76.1136 199.686 75.9698 200.055 75.8445C201.26 75.4384 202.492 75.1193 203.742 74.8896L200.771 76.5341Z" fill="white"/>
<path opacity="0.2" d="M191.78 76.5474C191.429 76.583 191.098 76.7266 190.832 76.9585C190.653 77.237 190.547 77.7675 190.228 78.0261L189.824 77.9598L189.519 77.92L188.889 77.8338C188.818 77.5929 188.787 77.3421 188.796 77.0911C188.846 76.9082 188.945 76.7426 189.084 76.6127C189.222 76.4828 189.393 76.3937 189.579 76.3551C190.318 76.3181 191.058 76.3828 191.78 76.5474Z" fill="black"/>
<path opacity="0.2" d="M200.771 76.5275L203.629 76.3617C202.371 76.8425 201.052 77.146 199.71 77.2635C198.959 77.7136 198.177 78.1102 197.37 78.4504C197.011 78.3377 197.873 77.8802 198.232 77.6017C198.689 77.237 198.623 77.3099 198.411 77.2104C198.198 77.111 198.411 77.038 198.961 76.7927C199.511 76.5473 199.359 76.4413 199.67 76.1296C199.793 76.022 199.932 75.9347 200.082 75.871C201.286 75.4649 202.518 75.1458 203.768 74.9161L200.771 76.5275Z" fill="black"/>
<path d="M188.796 77.0911L189.161 77.2568L189.074 77.8536L187.735 77.7077L188.796 77.0911Z" fill="#A08CE6"/>
<path opacity="0.3" d="M199.591 77.3497C198.876 77.7561 198.139 78.1214 197.383 78.4438C197.204 78.53 197.011 78.6095 196.806 78.6957C196.098 79.0019 195.336 79.1599 194.565 79.1599C194.149 78.7338 193.804 78.2435 193.543 77.7077C193.543 77.7077 193.749 77.0911 194.817 76.7065C195.506 76.4611 197.966 76.9651 199.591 77.3497Z" fill="black"/>
<path d="M193.544 76.6667C194.87 75.9638 202.522 79.0207 205.665 79.1599C203.559 79.8181 201.349 80.0811 199.147 79.9358C195.613 79.6639 192.131 77.4027 193.544 76.6667Z" fill="#A08CE6"/>
<path opacity="0.6" d="M205.665 79.16C203.559 79.8181 201.349 80.0811 199.147 79.9358C195.646 79.6639 192.131 77.4028 193.544 76.6667C194.157 76.5114 194.801 76.5252 195.407 76.7065C198.265 77.2436 203.265 79.0539 205.665 79.16Z" fill="white"/>
<path opacity="0.2" d="M205.665 79.16C205.665 79.16 203.013 79.6175 202.588 79.4385C202.073 79.241 201.514 79.186 200.97 79.2793C200.221 79.3457 199.856 79.1799 199.836 78.7489C199.817 78.3179 198.829 78.6627 198.146 78.5897C197.463 78.5168 198.146 78.3179 198.033 78.0261C197.92 77.7343 196.647 77.8404 196.488 77.6083C196.329 77.3763 196.846 77.3829 196.488 77.1707C196.13 76.9585 195.162 76.9784 195.407 76.7065C198.265 77.2436 203.265 79.0539 205.665 79.16Z" fill="black"/>
<path d="M92.0239 158.791C92.0239 160.117 105.611 162.365 105.823 162.365C106.035 162.365 108.681 161.907 108.681 161.907L113.515 162.365C113.662 162.216 113.783 162.044 113.873 161.854C114.066 161.451 114.181 161.014 114.211 160.568C114.211 160.435 114.211 160.296 114.211 160.143C114.199 159.084 114.052 158.03 113.773 157.007C112.781 157.096 111.78 156.985 110.831 156.68C109.882 156.374 109.004 155.881 108.25 155.23C107.547 153.493 106.592 151.603 105.544 150.787C105.544 150.787 95.9958 151.45 93.9999 152.604C92.0372 153.765 92.0239 158.791 92.0239 158.791Z" fill="#A08CE6"/>
<g opacity="0.2">
<path d="M92.0239 158.791C92.0239 160.117 105.611 162.365 105.823 162.365C106.035 162.365 108.681 161.907 108.681 161.907L113.515 162.365C113.662 162.216 113.783 162.044 113.873 161.854C114.066 161.451 114.181 161.014 114.211 160.568C114.211 160.435 114.211 160.296 114.211 160.143C114.199 159.084 114.052 158.03 113.773 157.007C112.781 157.096 111.78 156.985 110.831 156.68C109.882 156.374 109.004 155.881 108.25 155.23C107.547 153.493 106.592 151.603 105.544 150.787C105.544 150.787 95.9958 151.45 93.9999 152.604C92.0372 153.765 92.0239 158.791 92.0239 158.791Z" fill="black"/>
</g>
<path d="M97.1162 159.023C97.1162 159.023 104.768 142.737 134.607 118.654C134.607 118.654 198.755 109.908 240.795 118.753C240.795 118.753 257.711 142.008 259.554 153.645C261.397 165.282 97.1162 159.023 97.1162 159.023Z" fill="#263238"/>
<g opacity="0.7">
<path d="M217.222 118.03C217.726 121.896 218.774 132.068 219.013 151.656C195.234 154.069 176.986 157 176.986 157C182.516 135.868 197.396 119.635 197.396 119.635C203.962 118.663 210.585 118.127 217.222 118.03Z" fill="white"/>
<path d="M256.889 148.864C253.142 149.017 249.382 149.209 245.656 149.448L244.781 149.501L243.136 149.614L242.354 149.66C235.371 150.131 228.502 150.721 221.997 151.357C221.745 143.228 221.135 128.149 219.789 118.017C226.548 117.966 233.298 118.496 239.966 119.602L240.185 119.642C240.187 119.655 240.187 119.668 240.185 119.682C240.371 119.907 240.557 120.146 240.742 120.345L240.955 120.623C250.589 132.983 256.889 148.864 256.889 148.864Z" fill="white"/>
<path d="M100.996 154.169C100.996 154.169 125.126 149.527 171.356 154.169C171.356 154.169 180.673 133.235 192.967 119.642C192.967 119.642 163.068 115.119 134.429 119.642C121.963 129.794 110.741 141.383 100.996 154.169Z" fill="white"/>
</g>
<path opacity="0.2" d="M184.26 117.633C184.26 117.633 158.399 116.247 144.13 117.54C129.86 118.833 127.38 124.694 127.38 124.694C131.186 123.183 135.115 122.001 139.123 121.16C139.123 122.42 139.176 124.31 139.694 125.046C140.085 125.596 146.086 124.854 147.312 124.171C148.141 123.706 149.196 121.412 149.792 119.967C162.457 118.972 184.26 117.633 184.26 117.633ZM146.729 123.229C146.245 123.428 141.756 124.283 140.562 124.078C140.217 124.018 140.158 122.36 140.171 120.968C140.88 120.842 141.597 120.729 142.306 120.643C143.632 120.49 145.774 120.292 148.466 120.073C147.869 121.478 147.153 123.05 146.729 123.229Z" fill="black"/>
<path opacity="0.2" d="M248.819 142.969C247.964 141.354 246.524 140.128 244.794 139.541C244.794 139.541 245.974 131.955 244.794 130.782C243.613 129.608 233.335 129.926 231.028 130.782C229.363 131.392 228.157 135.503 227.613 137.751H194.83C195.101 135.43 195.406 131.591 194.597 130.782C193.417 129.601 183.133 129.926 180.825 130.782C178.517 131.637 177.085 139.249 177.085 139.249C175.231 139.607 173.49 140.408 172.013 141.584C169.36 143.573 167.033 163.121 167.033 163.121H248.063C248.063 163.121 250.072 145.569 248.819 142.969Z" fill="black"/>
<path d="M140.178 161.907C140.178 161.907 142.538 142.379 145.151 140.37C146.63 139.191 148.373 138.388 150.23 138.029C150.23 138.029 151.663 130.45 153.97 129.595C156.278 128.739 166.569 128.421 167.736 129.595C168.903 130.768 167.736 138.354 167.736 138.354C169.465 138.94 170.904 140.167 171.754 141.782C173.014 144.388 171.005 161.907 171.005 161.907H140.178Z" fill="#263238"/>
<path opacity="0.4" d="M140.178 161.907C140.178 161.907 142.538 142.379 145.151 140.37C146.63 139.191 148.373 138.388 150.23 138.029C150.23 138.029 151.663 130.45 153.97 129.595C156.278 128.739 166.569 128.421 167.736 129.595C168.903 130.768 167.736 138.354 167.736 138.354C169.465 138.94 170.904 140.167 171.754 141.782C173.014 144.388 171.005 161.907 171.005 161.907H140.178Z" fill="white"/>
<path d="M148.022 149.196C147.517 148.948 147.026 148.674 146.55 148.374C146.092 148.082 145.635 147.79 145.224 147.459C144.32 146.779 143.483 146.015 142.724 145.177C141.878 144.236 141.227 143.136 140.808 141.942C140.704 141.607 140.622 141.266 140.562 140.92L140.45 140.019C140.416 139.468 140.39 138.918 140.397 138.401C140.42 136.385 140.56 134.373 140.814 132.373C141.04 130.384 141.318 128.448 141.703 126.485C141.755 126.209 141.908 125.961 142.133 125.792C142.357 125.622 142.637 125.542 142.917 125.567C143.197 125.591 143.458 125.719 143.649 125.926C143.84 126.132 143.948 126.403 143.951 126.684L144.083 132.526C144.15 134.455 144.176 136.405 144.342 138.242C144.356 139.008 144.495 139.767 144.753 140.489C145.072 141.114 145.496 141.679 146.006 142.16C146.593 142.748 147.235 143.279 147.923 143.745C148.281 143.991 148.632 144.243 149.01 144.468C149.388 144.693 149.786 144.939 150.084 145.131L150.171 145.184C150.699 145.47 151.093 145.952 151.268 146.526C151.443 147.1 151.385 147.721 151.106 148.252C150.826 148.784 150.349 149.183 149.776 149.365C149.204 149.547 148.583 149.495 148.049 149.222L148.022 149.196Z" fill="#E4897B"/>
<path d="M145.217 123.481L145.575 124.549C145.641 124.747 145.659 124.957 145.627 125.164C145.596 125.37 145.517 125.566 145.396 125.736L144.229 127.314C144.001 127.628 143.702 127.883 143.356 128.058C143.01 128.234 142.627 128.324 142.24 128.322H141.756C141.033 126.591 141.53 124.197 141.53 124.197L141.596 123.501C141.606 123.357 141.645 123.217 141.709 123.088C141.774 122.959 141.863 122.844 141.972 122.75C142.081 122.655 142.208 122.584 142.345 122.539C142.482 122.493 142.626 122.476 142.77 122.486L144.156 122.599C144.399 122.627 144.629 122.725 144.818 122.882C145.006 123.039 145.145 123.247 145.217 123.481Z" fill="#E4897B"/>
<path d="M151.006 144.209C151.006 144.209 145.741 141.245 145.151 140.37C144.561 139.495 144.295 132.751 144.295 132.751L140.178 134.608C140.178 134.608 139.481 140.576 140.178 142.916C140.874 145.257 146.145 150.794 146.145 150.794L151.006 144.209Z" fill="white"/>
<path d="M151.729 128.507C148.572 131.08 148.944 138.454 152.491 143.341C152.491 143.341 160.057 144.004 164.261 142.094C168.465 140.184 163.817 128.229 159.374 127.281C156.762 126.712 154.032 127.15 151.729 128.507Z" fill="#263238"/>
<path d="M151.907 136.199C150.754 134.21 149.607 128.832 154.414 127.168C160.382 125.099 163.101 128.918 163.618 132.711C164.135 136.504 162 139.342 158.034 139.084C154.069 138.825 152.71 137.578 151.907 136.199Z" fill="#263238"/>
<path d="M145.469 151.357C144.886 154.129 145.913 160.641 146.079 165.587L160.21 167.219C160.312 164.73 160.718 162.263 161.416 159.872C161.947 157.789 162.703 155.23 163.744 152.133C163.896 151.669 164.049 151.198 164.221 150.708C164.406 150.217 164.479 149.692 164.435 149.17C164.391 148.648 164.231 148.142 163.966 147.69C163.702 147.238 163.34 146.85 162.907 146.555C162.474 146.261 161.981 146.066 161.463 145.986C160.873 145.894 160.236 145.814 159.593 145.748C157.08 145.496 155.681 144.959 153.433 145.045C152.69 145.045 151.192 144.382 150.442 144.468C147.77 144.693 146.019 148.758 145.469 151.357Z" fill="#A08CE6"/>
<path d="M159.52 138.029C158.811 140.198 157.869 144.183 159.215 145.728C159.215 145.728 157.153 145.303 152.584 147.803C151.404 145.9 152.385 145.363 152.385 145.363C154.912 144.912 155.084 143.095 154.872 141.385L159.52 138.029Z" fill="#E4897B"/>
<path opacity="0.2" d="M157.623 139.395L154.872 141.385C154.927 141.789 154.947 142.197 154.931 142.605C155.886 142.518 157.299 141.564 157.524 140.615C157.635 140.219 157.669 139.805 157.623 139.395Z" fill="black"/>
<path d="M160.468 132.97C160.515 136.59 160.614 138.116 158.93 140.098C156.404 143.082 151.954 142.353 150.827 138.825C149.812 135.649 149.905 130.271 153.32 128.574C154.071 128.196 154.907 128.017 155.747 128.053C156.586 128.089 157.403 128.339 158.119 128.78C158.836 129.22 159.427 129.836 159.838 130.57C160.249 131.303 160.466 132.129 160.468 132.97Z" fill="#E4897B"/>
<path d="M157.398 129.588C156.397 130.848 158.684 134.807 160.481 135.476C163.976 134.329 160.388 125.842 157.398 129.588Z" fill="#263238"/>
<path d="M153.121 127.904C151.795 128.494 150.542 130.994 150.376 131.922C152.365 132.075 157.451 129.787 157.451 129.787C157.451 129.787 161.039 130.45 159.109 128.826C157.179 127.201 153.121 127.904 153.121 127.904Z" fill="#263238"/>
<path d="M154.454 134.442C154.454 134.734 154.335 134.986 154.149 134.999C153.964 135.012 153.785 134.787 153.758 134.495C153.731 134.203 153.877 133.951 154.07 133.938C154.262 133.925 154.434 134.15 154.454 134.442Z" fill="#263238"/>
<path d="M151.138 134.694C151.138 134.986 151.026 135.231 150.833 135.251C150.641 135.271 150.469 135.039 150.449 134.747C150.429 134.455 150.561 134.203 150.754 134.19C150.946 134.177 151.118 134.402 151.138 134.694Z" fill="#263238"/>
<path d="M150.84 134.197L150.124 134.044C150.124 134.044 150.522 134.568 150.84 134.197Z" fill="#263238"/>
<path d="M152.544 135.059C152.333 135.746 152.03 136.402 151.643 137.008C151.8 137.104 151.977 137.164 152.16 137.184C152.343 137.205 152.529 137.186 152.704 137.128L152.544 135.059Z" fill="#DE5753"/>
<path d="M154.388 138.155C154.246 138.186 154.102 138.206 153.957 138.215C153.946 138.216 153.934 138.215 153.923 138.211C153.913 138.208 153.903 138.202 153.894 138.195C153.885 138.187 153.878 138.178 153.873 138.168C153.868 138.158 153.865 138.147 153.864 138.135C153.863 138.124 153.864 138.113 153.868 138.102C153.872 138.091 153.877 138.081 153.885 138.072C153.892 138.064 153.901 138.057 153.911 138.052C153.921 138.047 153.932 138.043 153.944 138.043C154.309 138.025 154.665 137.921 154.982 137.739C155.299 137.556 155.568 137.302 155.767 136.995C155.779 136.975 155.798 136.96 155.82 136.954C155.842 136.947 155.866 136.95 155.886 136.962C155.907 136.973 155.922 136.992 155.928 137.015C155.934 137.037 155.931 137.061 155.92 137.081C155.748 137.352 155.524 137.587 155.261 137.771C154.998 137.955 154.701 138.086 154.388 138.155Z" fill="#263238"/>
<path d="M161.688 136.199C161.491 136.872 161.036 137.439 160.422 137.777C159.606 138.215 158.996 137.532 159.056 136.657C159.115 135.781 159.593 134.667 160.488 134.608C160.685 134.595 160.882 134.632 161.062 134.714C161.242 134.797 161.398 134.923 161.517 135.08C161.636 135.238 161.714 135.423 161.744 135.618C161.774 135.813 161.755 136.013 161.688 136.199Z" fill="#E4897B"/>
<path d="M156.079 133.587C156.042 133.594 156.005 133.591 155.97 133.576C155.936 133.562 155.907 133.538 155.887 133.507C155.712 133.286 155.493 133.103 155.244 132.971C154.996 132.838 154.722 132.759 154.441 132.738C154.395 132.738 154.351 132.72 154.319 132.687C154.287 132.655 154.269 132.611 154.269 132.565C154.269 132.52 154.287 132.476 154.319 132.444C154.351 132.411 154.395 132.393 154.441 132.393C154.777 132.418 155.104 132.515 155.4 132.676C155.696 132.837 155.955 133.059 156.158 133.328C156.17 133.348 156.178 133.369 156.182 133.392C156.185 133.415 156.184 133.438 156.179 133.46C156.173 133.482 156.163 133.503 156.149 133.521C156.136 133.54 156.118 133.555 156.099 133.567L156.079 133.587Z" fill="#263238"/>
<path d="M150.376 133.149C150.347 133.156 150.316 133.156 150.287 133.148C150.258 133.14 150.231 133.124 150.21 133.103C150.179 133.069 150.162 133.025 150.162 132.98C150.162 132.934 150.179 132.89 150.21 132.857C150.403 132.663 150.64 132.518 150.901 132.434C151.162 132.351 151.439 132.333 151.709 132.38C151.734 132.382 151.758 132.389 151.779 132.402C151.801 132.414 151.819 132.431 151.834 132.451C151.848 132.471 151.858 132.494 151.863 132.518C151.868 132.543 151.867 132.568 151.862 132.592C151.856 132.616 151.845 132.639 151.83 132.658C151.814 132.678 151.795 132.694 151.773 132.705C151.751 132.716 151.727 132.723 151.702 132.724C151.677 132.725 151.652 132.721 151.629 132.711C151.415 132.681 151.197 132.701 150.992 132.77C150.787 132.839 150.601 132.955 150.449 133.109C150.427 133.127 150.403 133.14 150.376 133.149Z" fill="#263238"/>
<path d="M154.155 133.945L153.433 133.792C153.433 133.792 153.837 134.323 154.155 133.945Z" fill="#263238"/>
<path opacity="0.2" d="M155.972 154.016C156.881 156.669 159.195 158.691 161.416 159.872C161.947 157.789 162.703 155.23 163.744 152.133C162.345 150.184 160.395 148.818 157.915 149.176C157.915 149.196 155.051 151.304 155.972 154.016Z" fill="black"/>
<path d="M161.038 166.131C160.866 167.882 163.213 173.425 163.213 173.425H161.343C161.343 173.425 160.196 169.977 159.043 165.866C158.545 164.122 158.055 162.252 157.65 160.475C157.458 159.646 157.285 158.837 157.139 158.075C156.994 157.312 156.854 156.424 156.775 155.707C156.578 153.926 156.733 152.124 157.232 150.403C157.703 148.714 158.506 147.136 159.593 145.761H159.222C162.756 145.721 164.659 146.948 164.904 149.149C164.828 150.668 164.583 152.174 164.175 153.639C163.154 158.015 161.43 164.056 161.091 165.839C161.069 165.936 161.051 166.033 161.038 166.131Z" fill="white"/>
<path d="M151.643 144.468C151.643 144.468 147.405 151.371 146.404 153.877C145.403 156.384 145.973 163.558 145.973 163.558C145.973 163.558 144.063 154.938 145.31 150.648C146.557 146.358 148.712 142.916 151.643 144.468Z" fill="white"/>
<path opacity="0.2" d="M164.175 153.605C163.154 157.982 161.43 164.023 161.092 165.806C160.376 165.839 159.666 165.859 159.043 165.866C158.545 164.122 158.055 162.252 157.65 160.475C157.458 159.646 157.286 158.837 157.14 158.075C158.015 157.73 159.215 157.246 159.679 157.007C160.435 156.629 160.177 149.541 160.177 149.541C161.827 150.542 163.201 151.939 164.175 153.605Z" fill="black"/>
<path d="M146.808 163.121L147.823 163.605C148.01 163.696 148.216 163.741 148.424 163.735C148.632 163.729 148.835 163.673 149.017 163.572L150.747 162.617C151.087 162.427 151.377 162.159 151.593 161.835C151.808 161.511 151.944 161.14 151.987 160.754L152.04 160.269C150.416 159.348 147.982 159.553 147.982 159.553H147.279C147.136 159.546 146.992 159.567 146.856 159.616C146.721 159.664 146.596 159.739 146.49 159.836C146.383 159.933 146.297 160.049 146.235 160.179C146.174 160.31 146.139 160.451 146.132 160.594L146.079 161.98C146.079 162.22 146.147 162.455 146.277 162.657C146.406 162.86 146.59 163.02 146.808 163.121Z" fill="#E4897B"/>
<path d="M164.878 149.03C165.346 151.005 165.639 153.018 165.753 155.044C165.824 156.132 165.791 157.225 165.654 158.307C165.572 158.974 165.4 159.628 165.143 160.25C164.954 160.681 164.702 161.081 164.394 161.436C164.201 161.663 163.978 161.861 163.731 162.027C163.598 162.115 163.458 162.193 163.313 162.259L163.074 162.358C161.975 162.74 160.823 162.946 159.659 162.968C158.637 163.005 157.614 162.979 156.596 162.889C154.623 162.718 152.667 162.39 150.747 161.907C150.479 161.841 150.245 161.68 150.088 161.453C149.93 161.226 149.861 160.95 149.893 160.676C149.924 160.402 150.055 160.149 150.26 159.964C150.465 159.78 150.73 159.676 151.006 159.673H151.046C151.967 159.673 152.922 159.673 153.851 159.613C154.779 159.553 155.714 159.553 156.629 159.48C157.544 159.407 158.439 159.321 159.281 159.189C160.026 159.089 160.753 158.888 161.443 158.592L161.529 158.545L161.423 158.598C161.365 158.629 161.312 158.667 161.264 158.711C161.204 158.764 161.218 158.744 161.264 158.671C161.334 158.396 161.376 158.113 161.39 157.829C161.421 157.008 161.394 156.186 161.31 155.369C161.231 154.501 161.098 153.605 160.952 152.717C160.806 151.828 160.641 150.9 160.481 150.064V149.992C160.372 149.406 160.496 148.8 160.827 148.305C161.158 147.81 161.67 147.463 162.253 147.34C162.836 147.217 163.444 147.327 163.947 147.647C164.45 147.966 164.808 148.47 164.944 149.05L164.878 149.03Z" fill="#E4897B"/>
<path d="M162.152 146.822C164.009 146.205 165.468 148.294 166.065 151.961C166.661 155.628 166.768 161.337 164.738 162.398C162.709 163.459 158.996 163.273 158.996 163.273L156.848 159.102C156.848 159.102 160.66 158.439 161.012 157.909C161.363 157.378 160.561 152.306 160.263 150.781C159.964 149.255 160.137 147.492 162.152 146.822Z" fill="white"/>
<path d="M182.755 161.907C182.755 161.907 185.115 142.379 187.728 140.37C189.207 139.191 190.95 138.388 192.807 138.029C192.807 138.029 194.24 130.45 196.547 129.595C198.855 128.739 209.146 128.421 210.313 129.595C211.48 130.769 210.313 138.354 210.313 138.354C212.042 138.94 213.481 140.167 214.331 141.783C215.591 144.388 213.582 161.907 213.582 161.907H182.755Z" fill="#263238"/>
<path opacity="0.4" d="M182.755 161.907C182.755 161.907 185.115 142.379 187.728 140.37C189.207 139.191 190.95 138.388 192.807 138.029C192.807 138.029 194.24 130.45 196.547 129.595C198.855 128.739 209.146 128.421 210.313 129.595C211.48 130.769 210.313 138.354 210.313 138.354C212.042 138.94 213.481 140.167 214.331 141.783C215.591 144.388 213.582 161.907 213.582 161.907H182.755Z" fill="white"/>
<path d="M191.634 145.88C190.8 148.034 189.763 150.103 188.537 152.06C187.091 154.269 185.765 156.198 183.279 157.69C179.022 159.858 173.133 158.148 168.916 156.662L169.579 153.924C172.596 154.109 175.733 154.335 178.67 153.924C180.659 153.605 180.991 153.082 182.178 151.576C183.815 149.117 185.212 146.505 186.349 143.778L191.653 145.874L191.634 145.88Z" fill="#FFB573"/>
<path d="M189.081 141.411C187.456 141.782 185.799 143.878 180.912 152.478C180.912 152.478 180.156 153.513 176.893 153.864L176.648 158.963C176.648 158.963 181.223 159.248 182.357 158.625C183.491 158.002 190.971 148.254 190.971 148.254L189.081 141.411Z" fill="#263238"/>
<path opacity="0.2" d="M176.893 153.838L176.648 158.93C176.648 158.93 180.315 159.162 181.9 158.764C182.059 158.73 182.213 158.674 182.357 158.599C183.02 158.24 185.785 154.826 188.007 152.007C189.618 149.958 190.938 148.228 190.938 148.228L189.081 141.385C187.463 141.756 185.799 143.851 180.912 152.452C180.912 152.511 180.156 153.513 176.893 153.838Z" fill="white"/>
<path opacity="0.2" d="M181.899 158.791C182.059 158.756 182.213 158.701 182.357 158.625C183.02 158.267 185.785 154.852 188.006 152.034C187.694 150.27 187.289 148.524 186.793 146.802C186.793 146.802 182.35 153.698 181.899 158.791Z" fill="black"/>
<path d="M170.654 154.282L167.232 152.617L167.159 157.431C167.159 157.431 170.382 158.194 170.965 156.516L170.654 154.282Z" fill="#FFB573"/>
<path d="M164.182 153.267L164.308 157.252L167.159 157.431L167.232 152.617L164.182 153.267Z" fill="#FFB573"/>
<path d="M176.893 153.645L175.017 153.997L175.156 158.99L176.94 159.5L176.893 153.645Z" fill="#263238"/>
<path d="M205.353 171.078L184.857 168.903C184.611 168.874 184.383 168.758 184.215 168.576C184.047 168.393 183.95 168.156 183.942 167.908C183.518 147.803 189.081 141.444 189.081 141.444C190.978 141.112 192.898 140.928 194.823 140.894C197.62 140.968 200.41 141.205 203.178 141.603C205.075 141.85 206.95 142.238 208.788 142.764C209.763 143.301 210.3 147.836 207.827 161.503C207.164 165.084 206.812 168.2 206.64 170.024C206.626 170.178 206.581 170.328 206.509 170.464C206.436 170.601 206.337 170.722 206.217 170.82C206.098 170.918 205.96 170.992 205.811 171.036C205.663 171.08 205.507 171.094 205.353 171.078Z" fill="#263238"/>
<path d="M191.209 148.738L187.257 148.321L186.455 153.002L188.431 154.6L190.672 153.778L191.209 148.738Z" fill="#263238"/>
<path opacity="0.2" d="M183.942 167.875C183.949 168.123 184.045 168.36 184.214 168.541C184.382 168.723 184.611 168.838 184.857 168.863L205.353 171.078C205.507 171.094 205.663 171.08 205.811 171.036C205.96 170.992 206.098 170.918 206.217 170.82C206.337 170.722 206.436 170.601 206.509 170.464C206.581 170.328 206.626 170.178 206.64 170.024C206.812 168.2 207.183 165.084 207.827 161.503C208.185 159.54 208.479 157.759 208.709 156.158C209.181 153.246 209.477 150.307 209.597 147.359C209.663 144.342 209.285 143.042 208.795 142.764C206.954 142.239 205.077 141.851 203.178 141.603C200.409 141.208 197.62 140.971 194.823 140.894C192.898 140.931 190.978 141.115 189.081 141.444C189.081 141.444 183.518 147.77 183.942 167.875Z" fill="white"/>
<path d="M203.019 141.345L196.156 142.903L196.083 140.973C196.465 140.56 196.724 140.048 196.831 139.495C196.937 138.942 196.887 138.37 196.686 137.844L201.646 133.202C201.249 135.821 201.348 139.428 203.019 141.345Z" fill="#FFB573"/>
<path d="M198.484 144.143L197.124 144.541L195.918 145.138C195.918 145.138 193.484 153.639 193.133 160.999L191.747 161.907L190.52 160.687C190.52 160.687 193.617 147.425 194.499 144.872L194.306 144.209L193.829 142.837L195.022 142.373L196.773 142.95L198.02 143.082L198.484 144.143Z" fill="white"/>
<path opacity="0.2" d="M199.624 135.112L196.693 137.844C196.839 138.325 196.946 138.817 197.012 139.316C198.152 139.104 199.664 137.771 199.75 136.564C199.798 136.076 199.755 135.584 199.624 135.112Z" fill="black"/>
<path d="M202.734 140.098C200.728 141.144 198.616 141.971 196.434 142.565C196.307 141.617 196.41 140.653 196.733 139.753L193.656 140.901C193.656 140.901 193.172 143.148 193.716 144.395L196.03 143.069L198.238 145.284C198.238 145.284 202.992 144.01 203.96 141.69L202.734 140.098Z" fill="#263238"/>
<path opacity="0.2" d="M187.184 148.738L185.348 154.302C196.759 163.585 206.567 159.911 208.708 156.125C209.18 153.213 209.477 150.274 209.597 147.326C207.276 146.968 205.168 145.211 204.292 145.728C202.82 146.63 197.661 149.176 195.208 149.501C193.225 149.773 187.184 148.738 187.184 148.738Z" fill="black"/>
<path d="M191.899 126.041C191.296 127.433 191.236 130.41 193.345 129.661C195.453 128.912 192.96 123.653 191.899 126.041Z" fill="#263238"/>
<path d="M202.058 129.058C201.899 132.778 201.991 134.966 200.141 136.882C197.37 139.78 192.741 138.116 191.786 134.409C190.931 131.093 191.336 125.557 194.956 124.051C195.757 123.717 196.63 123.591 197.493 123.686C198.356 123.781 199.18 124.093 199.89 124.593C200.599 125.093 201.17 125.765 201.549 126.546C201.928 127.327 202.103 128.191 202.058 129.058Z" fill="#FFB573"/>
<path d="M204.703 125.55L200.725 124.39L200.062 126.677L200.327 126.604C200.327 126.604 199.763 130.032 201.408 131.657C204.498 130.298 206.049 127.234 204.703 125.55Z" fill="#263238"/>
<path d="M203.569 132.128C203.437 132.571 203.219 132.982 202.926 133.34C202.634 133.697 202.273 133.993 201.865 134.21C200.764 134.78 199.949 133.852 200.035 132.678C200.108 131.624 200.771 130.026 201.985 129.973C202.249 129.96 202.513 130.013 202.752 130.127C202.991 130.24 203.199 130.412 203.355 130.625C203.512 130.838 203.614 131.087 203.651 131.35C203.689 131.612 203.66 131.879 203.569 132.128Z" fill="#FFB573"/>
<path d="M196.428 130.145C196.428 130.444 196.282 130.689 196.083 130.696C195.884 130.702 195.718 130.45 195.712 130.145C195.705 129.84 195.864 129.601 196.063 129.595C196.262 129.588 196.421 129.84 196.428 130.145Z" fill="#263238"/>
<path d="M193.006 130.172C193.006 130.47 192.854 130.722 192.655 130.722C192.456 130.722 192.29 130.477 192.283 130.178C192.277 129.88 192.436 129.628 192.635 129.628C192.834 129.628 193 129.867 193.006 130.172Z" fill="#263238"/>
<path d="M194.094 130.311C193.737 131.208 193.257 132.052 192.668 132.818C192.879 132.956 193.117 133.049 193.366 133.089C193.616 133.129 193.87 133.115 194.114 133.05L194.094 130.311Z" fill="#ED893E"/>
<path d="M195.758 134.197C195.628 134.207 195.497 134.207 195.367 134.197C195.355 134.198 195.343 134.196 195.332 134.192C195.321 134.188 195.311 134.182 195.302 134.174C195.293 134.166 195.286 134.156 195.282 134.145C195.277 134.134 195.274 134.122 195.274 134.11C195.274 134.088 195.284 134.066 195.3 134.05C195.316 134.033 195.338 134.024 195.361 134.024C195.737 134.029 196.109 133.946 196.447 133.78C196.784 133.614 197.078 133.37 197.303 133.069C197.32 133.054 197.341 133.045 197.363 133.045C197.385 133.045 197.407 133.054 197.423 133.069C197.431 133.077 197.438 133.086 197.443 133.096C197.447 133.107 197.45 133.118 197.45 133.129C197.45 133.14 197.447 133.152 197.443 133.162C197.438 133.172 197.431 133.181 197.423 133.189C197.229 133.462 196.981 133.692 196.695 133.865C196.409 134.039 196.09 134.151 195.758 134.197Z" fill="#263238"/>
<path d="M197.469 129.031C197.437 129.035 197.405 129.032 197.374 129.02C197.344 129.008 197.318 128.99 197.297 128.965C197.165 128.784 196.992 128.636 196.793 128.534C196.594 128.432 196.374 128.377 196.15 128.375C196.107 128.372 196.068 128.354 196.038 128.324C196.007 128.294 195.989 128.255 195.985 128.213C195.981 128.171 195.992 128.129 196.016 128.094C196.04 128.059 196.076 128.034 196.116 128.023C196.401 128.019 196.682 128.082 196.936 128.208C197.191 128.333 197.412 128.518 197.582 128.746C197.596 128.764 197.607 128.785 197.613 128.807C197.619 128.83 197.62 128.853 197.617 128.876C197.614 128.899 197.606 128.921 197.595 128.941C197.583 128.96 197.567 128.978 197.549 128.991L197.469 129.031Z" fill="#263238"/>
<path d="M191.508 129.005C191.473 129.014 191.436 129.014 191.402 129.005C191.36 128.983 191.327 128.947 191.311 128.902C191.295 128.858 191.297 128.809 191.315 128.766C191.429 128.508 191.603 128.281 191.824 128.105C192.045 127.93 192.305 127.811 192.582 127.758C192.625 127.758 192.667 127.774 192.699 127.803C192.731 127.832 192.752 127.871 192.758 127.914C192.763 127.956 192.753 128 192.729 128.036C192.706 128.072 192.67 128.098 192.628 128.109C192.409 128.148 192.203 128.241 192.029 128.38C191.855 128.519 191.719 128.7 191.634 128.905C191.623 128.931 191.606 128.954 191.584 128.971C191.561 128.989 191.535 129 191.508 129.005Z" fill="#263238"/>
<path d="M201.355 127.771C201.266 127.817 201.173 127.853 201.076 127.877C200.809 127.963 200.525 127.98 200.25 127.925C199.975 127.87 199.719 127.747 199.505 127.566C198.623 126.83 199.001 123.912 195.805 124.668C195.51 124.518 195.177 124.456 194.848 124.49C194.519 124.524 194.206 124.653 193.948 124.86C193 125.577 192.708 128.978 191.256 128.143C189.804 127.307 190.195 126.896 190.195 126.896C190.195 126.896 190.566 127.281 190.858 127.122C190.675 126.872 190.574 126.571 190.568 126.261C190.562 125.952 190.652 125.648 190.825 125.391C190.825 125.391 191.097 125.928 191.375 125.901C191.435 124.514 191.919 123.179 192.761 122.075C194.213 120.033 199.637 121.883 199.637 121.883C199.637 121.883 200.625 120.888 202.953 122.307C205.28 123.726 205.672 127.029 204.942 128.275" fill="#263238"/>
<path d="M171.144 165.269C169.988 165.264 168.841 165.058 167.756 164.659C165.2 163.689 163.096 161.803 161.855 159.367C160.613 156.932 160.322 154.122 161.038 151.484C161.38 150.214 161.985 149.031 162.813 148.01C163.641 146.989 164.674 146.153 165.845 145.556C167.016 144.96 168.299 144.615 169.612 144.545C170.924 144.475 172.237 144.682 173.465 145.151C176.021 146.121 178.124 148.007 179.366 150.443C180.607 152.878 180.898 155.688 180.182 158.327C179.835 159.594 179.229 160.776 178.402 161.796C177.574 162.817 176.543 163.654 175.375 164.255C174.065 164.923 172.615 165.271 171.144 165.269ZM170.083 146.451C168.91 146.447 167.753 146.722 166.708 147.253C165.774 147.737 164.95 148.409 164.289 149.227C163.628 150.046 163.145 150.992 162.869 152.007C162.286 154.184 162.532 156.5 163.559 158.507C164.585 160.513 166.319 162.067 168.425 162.869C169.407 163.25 170.457 163.42 171.509 163.368C172.56 163.316 173.589 163.042 174.528 162.565C175.466 162.089 176.294 161.419 176.956 160.601C177.619 159.782 178.101 158.833 178.372 157.816C178.959 155.642 178.718 153.328 177.696 151.321C176.675 149.315 174.945 147.759 172.842 146.955C171.959 146.624 171.025 146.453 170.083 146.451Z" fill="#263238"/>
<path d="M207.787 151.941C204.945 153.759 201.901 155.236 198.715 156.344C196.627 157.08 194.531 156.523 192.569 156.006C187.868 154.511 183.359 152.47 179.134 149.925L180.341 147.379C182.556 148.148 184.817 148.904 187.045 149.6C190.108 150.489 193.53 151.702 196.554 151.636C196.978 151.57 196.62 151.636 197.343 151.304L198.835 150.509C200.824 149.415 202.846 148.221 204.803 147.107L207.787 151.941Z" fill="#FFB573"/>
<path d="M180.434 147.326L176.708 146.544L177.822 151.232C177.822 151.232 181.137 151.179 181.289 149.415L180.434 147.326Z" fill="#FFB573"/>
<path d="M173.916 147.929L175.01 151.762L177.822 151.238L176.708 146.55L173.916 147.929Z" fill="#FFB573"/>
<path d="M208.795 142.731C213.151 145.681 210.379 150.449 208.795 152.796C207.21 155.144 196.992 158.194 195.234 158.008C193.477 157.823 185.348 153.957 185.348 153.957L187.397 149.116C187.397 149.116 192.993 150.701 194.823 150.913C196.653 151.125 208.795 142.731 208.795 142.731Z" fill="#263238"/>
<path opacity="0.2" d="M208.795 142.731C213.151 145.681 210.379 150.449 208.795 152.796C207.21 155.144 196.992 158.194 195.234 158.008C193.477 157.823 185.348 153.957 185.348 153.957L187.397 149.116C187.397 149.116 192.993 150.701 194.823 150.913C196.653 151.125 208.795 142.731 208.795 142.731Z" fill="white"/>
<path d="M187.755 148.864L185.832 154.826L184.26 153.811L185.958 148.473L187.755 148.864Z" fill="#263238"/>
<path d="M181.9 162.836C179.857 157.803 172.815 150.94 170.627 149.116C168.439 147.293 162.624 146.603 152.491 146.902C149.136 147.05 145.858 147.957 142.903 149.554C135.092 149.614 122.241 149.779 116.989 150.217C113.11 150.555 102.925 151.636 102.043 155.363C101.161 159.089 106.818 168.001 107.348 168.001H136.299C136.321 168.477 136.415 168.946 136.577 169.394C136.995 169.738 169.321 172.145 169.321 172.145C169.321 172.145 183.942 167.875 181.9 162.836Z" fill="#263238"/>
<path opacity="0.3" d="M181.9 162.836C179.857 157.803 172.815 150.94 170.627 149.116C168.439 147.293 162.624 146.603 152.491 146.902C149.136 147.05 145.858 147.957 142.903 149.554C135.092 149.614 122.241 149.779 116.989 150.217C113.11 150.555 102.925 151.636 102.043 155.363C101.161 159.089 106.818 168.001 107.348 168.001H136.299C136.321 168.477 136.415 168.946 136.577 169.394C136.995 169.738 169.321 172.145 169.321 172.145C169.321 172.145 183.942 167.875 181.9 162.836Z" fill="white"/>
<g opacity="0.3">
<path d="M256.889 148.858C253.142 149.01 249.382 149.209 245.656 149.441L244.781 149.501L243.136 149.607L242.354 149.66C237.182 150.011 232.076 150.422 227.103 150.873C232.056 138.421 235.451 127.493 235.723 126.637C232.779 133.812 226.028 140.861 226.028 140.861C229.47 133.76 232.335 126.393 234.595 118.833C237.487 119.164 239.35 119.496 239.953 119.602L240.172 119.642C240.174 119.655 240.174 119.668 240.172 119.682C240.358 119.907 240.543 120.128 240.729 120.345L240.941 120.623C250.589 132.983 256.889 148.858 256.889 148.858Z" fill="white"/>
<path d="M131.16 138.016C140.96 132.287 150.23 127.513 151.052 127.075C140.589 132.957 128.613 144.136 120.55 152.339C107.6 152.889 100.976 154.169 100.976 154.169C110.725 141.384 121.949 129.795 134.415 119.642C143.903 118.224 153.488 117.559 163.081 117.652C146.285 124.993 131.717 137.539 131.16 138.016Z" fill="white"/>
</g>
<path d="M192.051 192.741H183.212C173.385 192.741 165.421 203.748 165.421 217.329C165.421 230.909 173.378 241.916 183.212 241.916H192.051C201.878 241.916 209.842 230.909 209.842 217.329C209.842 203.748 201.878 192.741 192.051 192.741Z" fill="#263238"/>
<path opacity="0.1" d="M194.836 240.172C203.047 240.172 209.703 229.945 209.703 217.329C209.703 204.712 203.047 194.485 194.836 194.485C186.626 194.485 179.97 204.712 179.97 217.329C179.97 229.945 186.626 240.172 194.836 240.172Z" fill="white"/>
<path opacity="0.6" d="M196.123 204.982C191.687 204.982 188.093 210.512 188.093 217.329C188.093 224.145 191.687 229.675 196.123 229.675C200.559 229.675 204.16 224.145 204.16 217.329C204.16 210.512 200.559 204.982 196.123 204.982Z" fill="#263238"/>
<path d="M90.2865 192.741H81.4475C71.6139 192.741 63.6567 203.748 63.6567 217.329C63.6567 230.909 71.6139 241.916 81.4475 241.916H90.2865C100.114 241.916 108.084 230.909 108.084 217.329C108.084 203.748 100.127 192.741 90.2865 192.741Z" fill="#263238"/>
<path opacity="0.1" d="M93.0716 240.172C101.282 240.172 107.938 229.945 107.938 217.329C107.938 204.712 101.282 194.485 93.0716 194.485C84.8611 194.485 78.2051 204.712 78.2051 217.329C78.2051 229.945 84.8611 240.172 93.0716 240.172Z" fill="white"/>
<path opacity="0.6" d="M94.3645 229.675C98.7994 229.675 102.395 224.148 102.395 217.329C102.395 210.51 98.7994 204.982 94.3645 204.982C89.9296 204.982 86.3345 210.51 86.3345 217.329C86.3345 224.148 89.9296 229.675 94.3645 229.675Z" fill="#263238"/>
<path d="M272.385 190.672L272.511 215.976C272.518 216.938 272.334 217.892 271.971 218.783C271.607 219.675 271.071 220.485 270.393 221.168C269.715 221.851 268.909 222.393 268.02 222.763C267.132 223.133 266.179 223.323 265.217 223.323H200.711C198.027 226.051 194.828 228.218 191.299 229.698C187.77 231.178 183.982 231.941 180.155 231.943H138.871L134.176 224.901H124.78L123.534 226.081C120.072 229.343 115.492 231.155 110.736 231.147C108.241 231.142 105.772 230.636 103.477 229.657C101.181 228.679 99.1061 227.248 97.3748 225.451L96.8111 224.861H75.3402C73.6226 224.862 71.9599 224.256 70.645 223.151C69.3301 222.046 68.4474 220.513 68.1523 218.821L62.4165 185.865L272.385 190.672Z" fill="#263238"/>
<path d="M277.617 185.885L274.175 183.352C271.046 163.572 266.563 154.839 266.563 154.839L258.792 148.208C255.801 137.419 244.973 119.31 239.283 117.221H239.25C238.329 116.983 217.534 112.58 185.016 112.58C144.315 112.58 132.632 119.403 132.632 119.403C116.465 131.299 97.9651 154.361 97.9651 154.361C88.2867 157.935 79.3527 163.267 71.6138 170.09C70.7452 170.866 69.8832 171.681 69.041 172.523C68.3183 173.24 67.6021 173.982 66.9125 174.751C66.382 175.335 65.8582 175.932 65.3476 176.542C63.5424 178.735 61.9857 181.121 60.706 183.657C59.8587 185.318 59.0973 187.023 58.4249 188.763C58.173 189.426 57.9541 190.029 57.7618 190.619C57.6358 190.984 54.6121 194.485 54.6121 194.485C52.8549 195.44 55.1824 209.623 58.3454 216.951C58.5587 217.437 58.9096 217.851 59.3549 218.141C59.8002 218.431 60.3205 218.584 60.8518 218.582H145.35C145.496 201.394 155.681 187.529 168.233 187.529C180.785 187.529 190.957 201.394 191.11 218.582H229.887C230.033 201.394 240.218 187.529 252.771 187.529C255.27 187.537 257.738 188.087 260.005 189.141C268.519 193.033 274.805 203.609 275.568 216.327C275.568 216.533 275.568 216.752 275.608 216.957C275.832 216.723 276.03 216.465 276.198 216.188C276.489 216.042 276.747 215.837 276.955 215.586C277.163 215.335 277.316 215.043 277.405 214.729C280.66 205.897 277.617 185.885 277.617 185.885ZM100.989 154.162C110.741 141.382 121.965 129.796 134.429 119.642C163.068 115.113 192.966 119.642 192.966 119.642C180.673 133.235 171.356 154.162 171.356 154.162C125.125 149.501 100.989 154.162 100.989 154.162ZM176.986 157.007C182.516 135.874 197.396 119.642 197.396 119.642C203.962 118.67 210.585 118.134 217.222 118.037C217.726 121.903 218.774 132.075 219.013 151.663C195.234 154.076 176.986 157.007 176.986 157.007ZM245.656 149.448L244.78 149.501L243.136 149.614L242.354 149.66C235.371 150.131 228.502 150.721 221.997 151.358C221.745 143.228 221.135 128.149 219.789 118.017C226.547 117.966 233.298 118.496 239.966 119.602L240.185 119.642C240.187 119.655 240.187 119.668 240.185 119.682C240.371 119.907 240.557 120.146 240.742 120.345L240.954 120.623C250.563 132.95 256.869 148.831 256.869 148.831C253.142 149.017 249.382 149.196 245.656 149.448Z" fill="#A08CE6"/>
<path d="M168.571 192.741H159.725C149.898 192.741 141.935 203.748 141.935 217.329C141.935 230.909 149.892 241.916 159.725 241.916H168.571C178.391 241.916 186.362 230.909 186.362 217.329C186.362 203.748 178.372 192.741 168.571 192.741Z" fill="#263238"/>
<path opacity="0.2" d="M171.356 240.172C179.567 240.172 186.223 229.945 186.223 217.329C186.223 204.712 179.567 194.485 171.356 194.485C163.146 194.485 156.49 204.712 156.49 217.329C156.49 229.945 163.146 240.172 171.356 240.172Z" fill="white"/>
<path opacity="0.6" d="M172.643 204.982C168.207 204.982 164.606 210.512 164.606 217.329C164.606 224.145 168.207 229.675 172.643 229.675C177.079 229.675 180.673 224.145 180.673 217.329C180.673 210.512 177.079 204.982 172.643 204.982Z" fill="white"/>
<path d="M251.544 192.741H242.692C232.865 192.741 224.901 203.748 224.901 217.329C224.901 230.909 232.858 241.916 242.692 241.916H251.531C261.358 241.916 269.321 230.909 269.321 217.329C269.321 203.748 261.371 192.741 251.544 192.741Z" fill="#263238"/>
<path opacity="0.2" d="M254.329 240.172C262.539 240.172 269.195 229.945 269.195 217.329C269.195 204.712 262.539 194.485 254.329 194.485C246.118 194.485 239.462 204.712 239.462 217.329C239.462 229.945 246.118 240.172 254.329 240.172Z" fill="white"/>
<path opacity="0.6" d="M255.615 229.675C260.05 229.675 263.646 224.148 263.646 217.329C263.646 210.51 260.05 204.982 255.615 204.982C251.181 204.982 247.585 210.51 247.585 217.329C247.585 224.148 251.181 229.675 255.615 229.675Z" fill="white"/>
<path d="M70.6128 219.55L73.1856 207.117C73.3058 206.512 73.6331 205.968 74.1112 205.578C74.5892 205.189 75.1881 204.978 75.8048 204.982H94.2322C95.0849 204.981 95.9207 205.22 96.6433 205.673C97.3659 206.126 97.946 206.773 98.3168 207.541L104.152 219.55H70.6128Z" fill="#263238"/>
<path opacity="0.7" d="M152.18 182.118L139.694 189.983L113.17 195.692H69.2732L57.689 190.619C57.8945 190.029 58.1133 189.412 58.3521 188.763C59.0244 187.023 59.7858 185.318 60.6331 183.657C60.6729 183.577 60.7127 183.498 60.7591 183.418C62.0212 180.969 63.5441 178.664 65.3013 176.542C65.8119 175.932 66.3357 175.335 66.8662 174.751C72.2173 176.078 74.0077 182.118 74.0077 182.118L74.989 191.508L75.2742 194.233H105.365L107.249 191.521L113.8 182.118C113.8 182.118 122.831 177.344 130.463 175.846C136.544 174.652 148.135 174.519 148.135 174.519C151.517 175.839 152.18 182.118 152.18 182.118Z" fill="white"/>
<path d="M134.866 184.254C134.568 186.614 132.811 188.332 130.941 188.099C129.071 187.867 127.798 185.752 128.103 183.392C128.408 181.031 130.158 179.307 132.028 179.546C133.898 179.784 135.165 181.893 134.866 184.254Z" fill="white"/>
<path d="M124.753 189.039C126.211 185.928 125.399 182.472 122.938 181.318C120.478 180.165 117.301 181.751 115.843 184.861C114.385 187.971 115.197 191.428 117.657 192.581C120.118 193.735 123.294 192.149 124.753 189.039Z" fill="white"/>
<path d="M73.2766 189.038C74.7348 185.928 73.9225 182.471 71.4622 181.318C69.0019 180.164 65.8252 181.75 64.367 184.86C62.9087 187.971 63.7211 191.427 66.1814 192.581C68.6417 193.734 71.8183 192.148 73.2766 189.038Z" fill="white"/>
<path d="M66.9721 180.534C66.2101 180.846 65.5216 181.314 64.9507 181.908C64.3798 182.502 63.9391 183.208 63.6567 183.982C63.3384 184.774 63.1763 185.621 63.1792 186.475C63.0882 186.475 62.9981 186.457 62.914 186.422C61.8663 185.997 61.7271 183.876 62.609 181.654C63.4909 179.433 65.0492 177.994 66.0968 178.412C66.6804 178.65 66.9721 179.466 66.9721 180.534Z" fill="white"/>
<path d="M127.254 204.332L128.825 204.71C129.131 204.783 129.398 204.969 129.572 205.232C129.745 205.494 129.813 205.812 129.76 206.122L128.375 214.491C128.326 214.78 128.176 215.043 127.951 215.233C127.726 215.422 127.442 215.526 127.148 215.525H114.715C114.385 215.525 114.069 215.395 113.836 215.162C113.602 214.93 113.47 214.614 113.468 214.285C113.468 213.994 113.569 213.713 113.754 213.489C113.939 213.265 114.197 213.112 114.483 213.058C116.472 212.687 121.18 211.142 125.941 204.809C126.087 204.608 126.29 204.455 126.524 204.369C126.758 204.284 127.012 204.271 127.254 204.332Z" fill="#263238"/>
<path d="M127.254 204.332L117.341 204.299L127.254 206.819V204.332Z" fill="#263238"/>
<path d="M63.657 204.299L56.2568 204.962L59.9569 216.168H65.7523L64.4858 213.324C61.9241 211.835 59.9298 209.538 58.8164 206.792L63.657 204.299Z" fill="#263238"/>
<path opacity="0.7" d="M127.393 212.448C127.393 213.847 126.465 214.981 125.318 214.981C124.171 214.981 123.249 213.847 123.249 212.448C123.249 211.049 124.177 209.915 125.318 209.915C126.458 209.915 127.393 211.049 127.393 212.448Z" fill="white"/>
<path opacity="0.7" d="M61.966 212.508C62.344 213.834 62.145 215.087 61.5217 215.26C60.8984 215.432 60.0894 214.484 59.7115 213.131C59.3335 211.779 59.5324 210.552 60.1558 210.379C60.7791 210.207 61.5947 211.155 61.966 212.508Z" fill="white"/>
<path opacity="0.7" d="M90.9694 185.885H85.8901C85.792 185.885 85.6954 185.909 85.6081 185.954C85.5208 185.998 85.4454 186.063 85.3879 186.143C85.3304 186.222 85.2924 186.314 85.2771 186.411C85.2619 186.508 85.2697 186.607 85.2999 186.7L86.7786 191.309C86.8131 191.417 86.8765 191.514 86.9621 191.589C87.0477 191.664 87.1522 191.714 87.2642 191.734C87.3762 191.754 87.4915 191.743 87.5976 191.702C87.7037 191.66 87.7966 191.591 87.8661 191.501L91.4601 186.893C91.5322 186.801 91.577 186.69 91.5894 186.574C91.6017 186.458 91.5812 186.34 91.53 186.235C91.4788 186.13 91.3991 186.041 91.3 185.979C91.2009 185.918 91.0863 185.885 90.9694 185.885ZM89.4244 186.992L87.6274 189.3C87.5924 189.345 87.5457 189.379 87.4925 189.399C87.4392 189.42 87.3814 189.425 87.3254 189.415C87.2693 189.405 87.2171 189.379 87.1745 189.341C87.1319 189.303 87.1005 189.255 87.0837 189.2L86.341 186.899C86.3266 186.852 86.3234 186.802 86.3315 186.754C86.3396 186.705 86.3589 186.659 86.3878 186.619C86.4168 186.58 86.4545 186.547 86.4982 186.524C86.5418 186.501 86.5902 186.489 86.6394 186.488H89.179C89.2375 186.488 89.2948 186.505 89.3443 186.536C89.3939 186.567 89.4337 186.611 89.4593 186.663C89.4849 186.716 89.4952 186.775 89.489 186.833C89.4829 186.891 89.4604 186.946 89.4244 186.992Z" fill="white"/>
<path opacity="0.2" d="M152.18 182.118L139.694 189.983L113.17 195.692H69.2732L57.689 190.619C57.8945 190.029 58.1133 189.412 58.3521 188.763C59.0547 186.939 59.856 185.155 60.7525 183.418L59.8506 188.981C59.7734 189.456 59.8551 189.943 60.0829 190.366C60.3107 190.789 60.672 191.125 61.1105 191.322L67.7415 194.286C68.2703 194.525 68.8505 194.629 69.4294 194.587C70.0084 194.545 70.5678 194.36 71.0569 194.047L75.0355 191.488L75.3206 194.213H105.412L107.295 191.501L111.486 194.313C111.834 194.548 112.226 194.711 112.638 194.792C113.05 194.873 113.475 194.87 113.886 194.783L137.479 189.784C138.195 189.631 138.858 189.293 139.401 188.803C139.945 188.313 140.35 187.688 140.576 186.992L141.948 182.543C142.135 181.933 142.132 181.281 141.939 180.673C141.746 180.065 141.372 179.531 140.867 179.141L137.472 176.489C143.553 175.295 148.155 174.499 148.155 174.499C151.517 175.839 152.18 182.118 152.18 182.118Z" fill="black"/>
<path d="M75.0156 191.508H76.2689L76.5142 193.504H104.152L105.531 191.508L107.275 191.521L105.392 194.233H75.3008L75.0156 191.508Z" fill="#263238"/>
<path d="M73.8818 195.692L75.0157 194.883H105.531L106.227 195.692H73.8818Z" fill="#263238"/>
<path opacity="0.2" d="M277.617 185.885L274.175 183.352C273.33 177.849 272.194 172.396 270.774 167.013C268.745 159.447 266.941 155.581 266.616 154.912C266.602 154.877 266.584 154.844 266.563 154.812L258.792 148.181C255.801 137.386 244.973 119.284 239.283 117.195H239.25C208.715 113.283 196.149 117.997 196.149 117.997C180.162 137.492 173.604 156.987 173.604 156.987C164.592 161.985 156.082 167.841 148.194 174.473C148.858 180.587 144.554 186.919 144.554 186.919L139.727 189.963L140.237 196.998C137.22 206.54 132.453 218.555 132.453 218.555H145.383C145.529 201.375 155.714 187.509 168.266 187.509C180.819 187.509 190.99 201.375 191.143 218.555H229.921C230.066 201.375 240.252 187.509 252.804 187.509C255.303 187.515 257.771 188.063 260.038 189.114C268.552 193.006 274.839 203.589 275.601 216.301C275.601 216.513 275.601 216.725 275.641 216.964C275.865 216.727 276.063 216.467 276.231 216.188C276.523 216.044 276.781 215.841 276.989 215.591C277.197 215.34 277.35 215.049 277.438 214.736C280.66 205.897 277.617 185.885 277.617 185.885ZM176.986 157.007C182.516 135.874 197.396 119.642 197.396 119.642C203.962 118.671 210.585 118.133 217.222 118.03C217.726 121.903 218.774 132.075 219.013 151.663C195.234 154.076 176.986 157.007 176.986 157.007ZM245.656 149.441L244.781 149.501L243.136 149.607L242.354 149.66C235.371 150.131 228.502 150.721 221.997 151.358C221.745 143.228 221.135 128.109 219.789 118.017C226.548 117.962 233.299 118.493 239.966 119.602L240.185 119.642C240.187 119.655 240.187 119.668 240.185 119.682C240.371 119.907 240.557 120.128 240.742 120.345L240.954 120.623C250.563 132.95 256.869 148.824 256.869 148.824C253.142 149.01 249.382 149.196 245.656 149.441Z" fill="black"/>
<path d="M245.656 149.448L244.78 149.501C242.718 132.618 241.007 123.892 239.966 119.602L240.185 119.642C240.187 119.655 240.187 119.668 240.185 119.682C240.371 119.907 240.556 120.146 240.742 120.345C243.355 131.836 244.873 142.91 245.656 149.448Z" fill="#263238"/>
<path d="M137.87 218.575H143.924C145.218 218.579 146.474 218.145 147.49 217.345C148.506 216.544 149.222 215.424 149.521 214.166C151.092 207.535 155.694 195.367 168.571 192.741C182.138 189.976 186.621 206.136 188.007 214.199C188.215 215.422 188.849 216.532 189.796 217.333C190.744 218.134 191.944 218.574 193.185 218.575H194.637C194.637 218.575 194.637 179.201 166.257 182.291C146.232 184.479 140.576 214.312 140.576 214.312L137.87 218.575Z" fill="#A08CE6"/>
<path opacity="0.2" d="M137.87 218.575H143.924C145.218 218.579 146.474 218.145 147.49 217.345C148.506 216.544 149.222 215.424 149.521 214.166C151.092 207.535 155.694 195.367 168.571 192.741C182.138 189.976 186.621 206.136 188.007 214.199C188.215 215.422 188.849 216.532 189.796 217.333C190.744 218.134 191.944 218.574 193.185 218.575H194.637C194.637 218.575 194.637 179.201 166.257 182.291C146.232 184.479 140.576 214.312 140.576 214.312L137.87 218.575Z" fill="black"/>
<path d="M220.843 218.575H226.903C228.196 218.577 229.451 218.143 230.465 217.343C231.48 216.542 232.195 215.423 232.493 214.166C234.071 207.535 238.673 195.367 251.544 192.741C265.111 189.976 269.6 206.136 270.986 214.199C271.191 215.423 271.825 216.535 272.773 217.336C273.721 218.138 274.923 218.577 276.165 218.575H277.617C277.617 218.575 277.617 179.201 249.23 182.291C229.211 184.479 223.548 214.312 223.548 214.312L220.843 218.575Z" fill="#A08CE6"/>
<path opacity="0.2" d="M220.843 218.575H226.903C228.196 218.577 229.451 218.143 230.465 217.343C231.48 216.542 232.195 215.423 232.493 214.166C234.071 207.535 238.673 195.367 251.544 192.741C265.111 189.976 269.6 206.136 270.986 214.199C271.191 215.423 271.825 216.535 272.773 217.336C273.721 218.138 274.923 218.577 276.165 218.575H277.617C277.617 218.575 277.617 179.201 249.23 182.291C229.211 184.479 223.548 214.312 223.548 214.312L220.843 218.575Z" fill="black"/>
<path opacity="0.2" d="M170.554 182.158C174.061 181.873 177.596 183.04 180.613 184.877C183.622 186.802 186.189 189.342 188.146 192.33C190.106 195.296 191.683 198.497 192.84 201.859C193.983 205.204 194.869 208.631 195.493 212.11L194.617 211.381L209.756 211.314L224.894 211.367L224.012 212.07C224.919 208.544 226.139 205.107 227.659 201.799C229.163 198.486 231.033 195.352 233.236 192.456C235.432 189.546 238.153 187.072 241.259 185.162C242.826 184.242 244.495 183.507 246.232 182.974C247.96 182.484 249.742 182.21 251.537 182.158C249.764 182.365 248.019 182.763 246.332 183.345C244.674 183.967 243.094 184.779 241.624 185.765C238.737 187.798 236.23 190.323 234.217 193.225C232.181 196.114 230.464 199.215 229.098 202.475C227.69 205.708 226.569 209.058 225.75 212.488L225.584 213.191H224.874L209.736 213.244L194.597 213.178H193.888L193.769 212.448C193.208 209.042 192.404 205.68 191.362 202.389C190.332 199.108 188.912 195.962 187.131 193.02C185.355 190.074 183.008 187.513 180.228 185.487C177.409 183.434 174.039 182.274 170.554 182.158Z" fill="black"/>
<path d="M140.204 197.018C140.204 197.018 158.857 179.685 176.986 183.624C176.986 183.624 168.598 179.327 152.18 182.118L137.87 191.508L140.204 197.018Z" fill="#A08CE6"/>
<path d="M178.372 161.907C178.372 161.907 250.722 153.347 266.563 154.812L260.317 149.507C260.317 149.507 187.323 154.726 178.372 161.907Z" fill="#A08CE6"/>
<path opacity="0.7" d="M270.774 167.013C267.299 160.555 263.652 158.731 263.652 158.731L259.541 152.803C262.05 152.831 264.501 153.562 266.616 154.912C266.941 155.581 268.745 159.447 270.774 167.013Z" fill="white"/>
<path d="M198.749 158.791C198.749 160.117 185.169 162.365 184.95 162.365C184.731 162.365 182.092 161.907 182.092 161.907L177.265 162.365C177.117 162.216 176.996 162.044 176.906 161.854C176.713 161.451 176.598 161.014 176.568 160.568C176.561 160.426 176.561 160.285 176.568 160.143C176.584 159.084 176.731 158.03 177.006 157.007C178 157.097 179.002 156.986 179.952 156.681C180.902 156.375 181.781 155.882 182.536 155.23C183.239 153.493 184.194 151.603 185.242 150.787C185.242 150.787 194.79 151.45 196.786 152.604C198.742 153.765 198.749 158.791 198.749 158.791Z" fill="#263238"/>
<path d="M198.749 158.791L198.232 158.346C198.232 158.346 183.352 161.364 183.232 158.346C183.113 155.329 185.222 150.787 185.222 150.787C185.222 150.787 194.83 151.45 196.786 152.617C198.742 153.784 198.749 158.791 198.749 158.791Z" fill="#A08CE6"/>
<path opacity="0.2" d="M198.749 158.791C198.749 160.117 185.169 162.365 184.95 162.365C184.731 162.365 182.092 161.907 182.092 161.907L177.265 162.365C177.117 162.216 176.996 162.044 176.907 161.854C176.713 161.451 176.598 161.014 176.568 160.568L182.092 159.494L183.279 158.015C187.271 157.966 191.256 157.682 195.215 157.166C195.452 157.131 195.668 157.01 195.823 156.827C195.978 156.644 196.061 156.411 196.057 156.172C196.057 155.369 196.057 154.182 196.057 153.639C196.139 153.222 196.376 152.853 196.72 152.604C198.742 153.765 198.749 158.791 198.749 158.791Z" fill="black"/>
</svg>
