<svg width="97" height="198" viewBox="0 0 97 198" fill="none" xmlns="http://www.w3.org/2000/svg">
<path d="M0 106.451V103.344C2.59184 103.344 4.70256 101.199 4.70256 98.5658C4.70256 95.9321 2.59184 93.8031 0 93.8031V90.6963C4.28352 90.6963 7.76 94.2289 7.76 98.5658C7.76 102.918 4.28352 106.451 0 106.451Z" fill="#5CAAE6"/>
<path d="M0 124.587V121.48C12.447 121.48 22.5506 111.214 22.5506 98.5658C22.5506 85.9336 12.447 75.667 0 75.667V72.5602C14.1232 72.5602 25.608 84.2304 25.608 98.5658C25.608 112.917 14.1232 124.587 0 124.587Z" fill="#5CAAE6"/>
<path d="M0 142.723V139.617C22.2867 139.617 40.3986 121.212 40.3986 98.5659C40.3986 75.9352 22.2867 57.531 0 57.531V54.4242C23.9629 54.4242 43.456 74.232 43.456 98.5659C43.456 122.916 23.9629 142.723 0 142.723Z" fill="#5CAAE6"/>
<path d="M97 98.5658C97 152.927 53.4974 197.132 0 197.132V194.041C51.8058 194.041 93.958 151.208 93.958 98.5658C93.958 45.9395 51.8058 3.10679 0 3.10679V0C53.4974 0 97 44.2206 97 98.5658Z" fill="#5CAAE6"/>
<path d="M0 160.859V157.753C32.1264 157.753 58.2466 131.211 58.2466 98.5658C58.2466 65.9366 32.1264 39.3948 0 39.3948V36.288C33.8026 36.288 61.304 64.2176 61.304 98.5658C61.304 132.914 33.8026 160.859 0 160.859Z" fill="#5CAAE6"/>
<path d="M0 178.996V175.905C41.9661 175.905 76.0946 141.209 76.0946 98.5659C76.0946 55.9382 41.9661 21.243 0 21.243V18.152C43.6578 18.152 79.152 54.2192 79.152 98.5659C79.152 142.928 43.6578 178.996 0 178.996Z" fill="#5CAAE6"/>
</svg>
