<svg width="729" height="607" viewBox="0 0 729 607" fill="none" xmlns="http://www.w3.org/2000/svg">
<path opacity="0.5" fill-rule="evenodd" clip-rule="evenodd" d="M419.474 39.5954C513.232 28.5725 612.011 -27.9303 691.278 17.2945C776.031 65.6495 794.598 166.822 797.681 255.378C800.875 347.121 780.709 442.03 708.376 508.439C634.64 576.137 524.038 621.737 419.474 602.614C324.292 585.206 301.035 479.528 230.374 421.018C155.347 358.892 4.90753 345.717 0.128779 255.378C-4.62739 165.466 123.399 119.233 211.999 73.6424C275.067 41.1893 346.979 48.1185 419.474 39.5954Z" fill="#A7C1B4" fill-opacity="0.4"/>
<path d="M379.002 253.337C380.66 253.337 382.004 251.919 382.004 250.169C382.004 248.419 380.66 247 379.002 247C377.344 247 376 248.419 376 250.169C376 251.919 377.344 253.337 379.002 253.337Z" fill="#7869AD"/>
<path d="M406.002 253.337C407.66 253.337 409.004 251.919 409.004 250.169C409.004 248.419 407.66 247 406.002 247C404.344 247 403 248.419 403 250.169C403 251.919 404.344 253.337 406.002 253.337Z" fill="#7869AD"/>
<path d="M433.001 253.337C434.659 253.337 436.003 251.919 436.003 250.169C436.003 248.419 434.659 247 433.001 247C431.343 247 429.999 248.419 429.999 250.169C429.999 251.919 431.343 253.337 433.001 253.337Z" fill="#7869AD"/>
<path d="M463.003 250.169C463.003 251.912 461.653 253.337 460.001 253.337C458.349 253.337 456.999 251.912 456.999 250.169C456.999 248.425 458.349 247 460.001 247C461.653 247 463.003 248.425 463.003 250.169Z" fill="#7869AD"/>
<path d="M490.002 250.169C490.002 251.912 488.652 253.337 487 253.337C485.348 253.337 483.998 251.912 483.998 250.169C483.998 248.425 485.348 247 487 247C488.652 247 490.002 248.425 490.002 250.169Z" fill="#7869AD"/>
<path d="M514 253.337C515.658 253.337 517.002 251.919 517.002 250.169C517.002 248.419 515.658 247 514 247C512.342 247 510.998 248.419 510.998 250.169C510.998 251.919 512.342 253.337 514 253.337Z" fill="#7869AD"/>
<path d="M541 253.337C542.658 253.337 544.002 251.919 544.002 250.169C544.002 248.419 542.658 247 541 247C539.342 247 537.998 248.419 537.998 250.169C537.998 251.919 539.342 253.337 541 253.337Z" fill="#7869AD"/>
<path d="M567.999 253.337C569.657 253.337 571.001 251.919 571.001 250.169C571.001 248.419 569.657 247 567.999 247C566.341 247 564.997 248.419 564.997 250.169C564.997 251.919 566.341 253.337 567.999 253.337Z" fill="#7869AD"/>
<path d="M594.999 253.337C596.657 253.337 598.001 251.919 598.001 250.169C598.001 248.419 596.657 247 594.999 247C593.341 247 591.997 248.419 591.997 250.169C591.997 251.919 593.341 253.337 594.999 253.337Z" fill="#7869AD"/>
<path d="M621.999 253.337C623.657 253.337 625.001 251.919 625.001 250.169C625.001 248.419 623.657 247 621.999 247C620.341 247 618.997 248.419 618.997 250.169C618.997 251.919 620.341 253.337 621.999 253.337Z" fill="#7869AD"/>
<path d="M648.998 253.337C650.656 253.337 652 251.919 652 250.169C652 248.419 650.656 247 648.998 247C647.34 247 645.996 248.419 645.996 250.169C645.996 251.919 647.34 253.337 648.998 253.337Z" fill="#7869AD"/>
<path d="M379.002 278.669C380.66 278.669 382.004 277.25 382.004 275.5C382.004 273.75 380.66 272.331 379.002 272.331C377.344 272.331 376 273.75 376 275.5C376 277.25 377.344 278.669 379.002 278.669Z" fill="#7869AD"/>
<path d="M406.002 278.669C407.66 278.669 409.004 277.25 409.004 275.5C409.004 273.75 407.66 272.331 406.002 272.331C404.344 272.331 403 273.75 403 275.5C403 277.25 404.344 278.669 406.002 278.669Z" fill="#7869AD"/>
<path d="M433.001 278.669C434.659 278.669 436.003 277.25 436.003 275.5C436.003 273.75 434.659 272.331 433.001 272.331C431.343 272.331 429.999 273.75 429.999 275.5C429.999 277.25 431.343 278.669 433.001 278.669Z" fill="#7869AD"/>
<path d="M463.003 275.5C463.003 277.244 461.653 278.669 460.001 278.669C458.349 278.669 456.999 277.244 456.999 275.5C456.999 273.756 458.349 272.331 460.001 272.331C461.653 272.331 463.003 273.756 463.003 275.5Z" fill="#7869AD"/>
<path d="M490.002 275.5C490.002 277.244 488.652 278.669 487 278.669C485.348 278.669 483.998 277.244 483.998 275.5C483.998 273.756 485.348 272.331 487 272.331C488.652 272.331 490.002 273.756 490.002 275.5Z" fill="#7869AD"/>
<path d="M514 278.669C515.658 278.669 517.002 277.25 517.002 275.5C517.002 273.75 515.658 272.331 514 272.331C512.342 272.331 510.998 273.75 510.998 275.5C510.998 277.25 512.342 278.669 514 278.669Z" fill="#7869AD"/>
<path d="M541 278.669C542.658 278.669 544.002 277.25 544.002 275.5C544.002 273.75 542.658 272.331 541 272.331C539.342 272.331 537.998 273.75 537.998 275.5C537.998 277.25 539.342 278.669 541 278.669Z" fill="#7869AD"/>
<path d="M567.999 278.669C569.657 278.669 571.001 277.25 571.001 275.5C571.001 273.75 569.657 272.331 567.999 272.331C566.341 272.331 564.997 273.75 564.997 275.5C564.997 277.25 566.341 278.669 567.999 278.669Z" fill="#7869AD"/>
<path d="M594.999 278.669C596.657 278.669 598.001 277.25 598.001 275.5C598.001 273.75 596.657 272.331 594.999 272.331C593.341 272.331 591.997 273.75 591.997 275.5C591.997 277.25 593.341 278.669 594.999 278.669Z" fill="#7869AD"/>
<path d="M621.999 278.669C623.657 278.669 625.001 277.25 625.001 275.5C625.001 273.75 623.657 272.331 621.999 272.331C620.341 272.331 618.997 273.75 618.997 275.5C618.997 277.25 620.341 278.669 621.999 278.669Z" fill="#7869AD"/>
<path d="M648.998 278.669C650.656 278.669 652 277.25 652 275.5C652 273.75 650.656 272.331 648.998 272.331C647.34 272.331 645.996 273.75 645.996 275.5C645.996 277.25 647.34 278.669 648.998 278.669Z" fill="#7869AD"/>
<path d="M379.002 304C380.66 304 382.004 302.581 382.004 300.831C382.004 299.081 380.66 297.663 379.002 297.663C377.344 297.663 376 299.081 376 300.831C376 302.581 377.344 304 379.002 304Z" fill="#7869AD"/>
<path d="M406.002 304C407.66 304 409.004 302.581 409.004 300.831C409.004 299.081 407.66 297.663 406.002 297.663C404.344 297.663 403 299.081 403 300.831C403 302.581 404.344 304 406.002 304Z" fill="#7869AD"/>
<path d="M433.001 304C434.659 304 436.003 302.581 436.003 300.831C436.003 299.081 434.659 297.663 433.001 297.663C431.343 297.663 429.999 299.081 429.999 300.831C429.999 302.581 431.343 304 433.001 304Z" fill="#7869AD"/>
<path d="M463.003 300.831C463.003 302.575 461.653 304 460.001 304C458.349 304 456.999 302.575 456.999 300.831C456.999 299.088 458.349 297.663 460.001 297.663C461.653 297.663 463.003 299.088 463.003 300.831Z" fill="#7869AD"/>
<path d="M490.002 300.831C490.002 302.575 488.652 304 487 304C485.348 304 483.998 302.575 483.998 300.831C483.998 299.088 485.348 297.663 487 297.663C488.652 297.663 490.002 299.088 490.002 300.831Z" fill="#7869AD"/>
<path d="M514 304C515.658 304 517.002 302.581 517.002 300.831C517.002 299.081 515.658 297.663 514 297.663C512.342 297.663 510.998 299.081 510.998 300.831C510.998 302.581 512.342 304 514 304Z" fill="#7869AD"/>
<path d="M541 304C542.658 304 544.002 302.581 544.002 300.831C544.002 299.081 542.658 297.663 541 297.663C539.342 297.663 537.998 299.081 537.998 300.831C537.998 302.581 539.342 304 541 304Z" fill="#7869AD"/>
<path d="M567.999 304C569.657 304 571.001 302.581 571.001 300.831C571.001 299.081 569.657 297.663 567.999 297.663C566.341 297.663 564.997 299.081 564.997 300.831C564.997 302.581 566.341 304 567.999 304Z" fill="#7869AD"/>
<path d="M594.999 304C596.657 304 598.001 302.581 598.001 300.831C598.001 299.081 596.657 297.663 594.999 297.663C593.341 297.663 591.997 299.081 591.997 300.831C591.997 302.581 593.341 304 594.999 304Z" fill="#7869AD"/>
<path d="M621.999 304C623.657 304 625.001 302.581 625.001 300.831C625.001 299.081 623.657 297.663 621.999 297.663C620.341 297.663 618.997 299.081 618.997 300.831C618.997 302.581 620.341 304 621.999 304Z" fill="#7869AD"/>
<path d="M648.998 304C650.656 304 652 302.581 652 300.831C652 299.081 650.656 297.663 648.998 297.663C647.34 297.663 645.996 299.081 645.996 300.831C645.996 302.581 647.34 304 648.998 304Z" fill="#7869AD"/>
<path d="M382.004 326.162C382.004 327.906 380.654 329.331 379.002 329.331C377.35 329.331 376 327.906 376 326.162C376 324.419 377.35 322.994 379.002 322.994C380.654 322.994 382.004 324.419 382.004 326.162Z" fill="#7869AD"/>
<path d="M409.004 326.162C409.004 327.906 407.654 329.331 406.002 329.331C404.35 329.331 403 327.906 403 326.162C403 324.419 404.35 322.994 406.002 322.994C407.654 322.994 409.004 324.419 409.004 326.162Z" fill="#7869AD"/>
<path d="M436.003 326.162C436.003 327.906 434.653 329.331 433.001 329.331C431.349 329.331 429.999 327.906 429.999 326.162C429.999 324.419 431.349 322.994 433.001 322.994C434.653 322.994 436.003 324.419 436.003 326.162Z" fill="#7869AD"/>
<path d="M463.003 326.162C463.003 327.906 461.653 329.331 460.001 329.331C458.349 329.331 456.999 327.906 456.999 326.162C456.999 324.419 458.349 322.994 460.001 322.994C461.653 322.994 463.003 324.419 463.003 326.162Z" fill="#7869AD"/>
<path d="M490.002 326.162C490.002 327.906 488.652 329.331 487 329.331C485.348 329.331 483.998 327.906 483.998 326.162C483.998 324.419 485.348 322.994 487 322.994C488.652 322.994 490.002 324.419 490.002 326.162Z" fill="#7869AD"/>
<path d="M517.002 326.162C517.002 327.906 515.652 329.331 514 329.331C512.348 329.331 510.998 327.906 510.998 326.162C510.998 324.419 512.348 322.994 514 322.994C515.652 322.994 517.002 324.419 517.002 326.162Z" fill="#7869AD"/>
<path d="M544.002 326.162C544.002 327.906 542.652 329.331 541 329.331C539.348 329.331 537.998 327.906 537.998 326.162C537.998 324.419 539.348 322.994 541 322.994C542.652 322.994 544.002 324.419 544.002 326.162Z" fill="#7869AD"/>
<path d="M571.001 326.162C571.001 327.906 569.651 329.331 567.999 329.331C566.347 329.331 564.997 327.906 564.997 326.162C564.997 324.419 566.347 322.994 567.999 322.994C569.651 322.994 571.001 324.419 571.001 326.162Z" fill="#7869AD"/>
<path d="M598.001 326.162C598.001 327.906 596.651 329.331 594.999 329.331C593.347 329.331 591.997 327.906 591.997 326.162C591.997 324.419 593.347 322.994 594.999 322.994C596.651 322.994 598.001 324.419 598.001 326.162Z" fill="#7869AD"/>
<path d="M625.001 326.162C625.001 327.906 623.651 329.331 621.999 329.331C620.347 329.331 618.997 327.906 618.997 326.162C618.997 324.419 620.347 322.994 621.999 322.994C623.651 322.994 625.001 324.419 625.001 326.162Z" fill="#7869AD"/>
<path d="M652 326.162C652 327.906 650.65 329.331 648.998 329.331C647.346 329.331 645.996 327.906 645.996 326.162C645.996 324.419 647.346 322.994 648.998 322.994C650.65 322.994 652 324.419 652 326.162Z" fill="#7869AD"/>
<path d="M382.004 351.494C382.004 353.237 380.654 354.662 379.002 354.662C377.35 354.662 376 353.237 376 351.494C376 349.75 377.35 348.325 379.002 348.325C380.654 348.325 382.004 349.75 382.004 351.494Z" fill="#7869AD"/>
<path d="M409.004 351.494C409.004 353.237 407.654 354.662 406.002 354.662C404.35 354.662 403 353.237 403 351.494C403 349.75 404.35 348.325 406.002 348.325C407.654 348.325 409.004 349.75 409.004 351.494Z" fill="#7869AD"/>
<path d="M436.003 351.494C436.003 353.237 434.653 354.662 433.001 354.662C431.349 354.662 429.999 353.237 429.999 351.494C429.999 349.75 431.349 348.325 433.001 348.325C434.653 348.325 436.003 349.75 436.003 351.494Z" fill="#7869AD"/>
<path d="M463.003 351.494C463.003 353.237 461.653 354.662 460.001 354.662C458.349 354.662 456.999 353.237 456.999 351.494C456.999 349.75 458.349 348.325 460.001 348.325C461.653 348.325 463.003 349.75 463.003 351.494Z" fill="#7869AD"/>
<path d="M490.002 351.494C490.002 353.237 488.652 354.662 487 354.662C485.348 354.662 483.998 353.237 483.998 351.494C483.998 349.75 485.348 348.325 487 348.325C488.652 348.325 490.002 349.75 490.002 351.494Z" fill="#7869AD"/>
<path d="M517.002 351.494C517.002 353.237 515.652 354.662 514 354.662C512.348 354.662 510.998 353.237 510.998 351.494C510.998 349.75 512.348 348.325 514 348.325C515.652 348.325 517.002 349.75 517.002 351.494Z" fill="#7869AD"/>
<path d="M544.002 351.494C544.002 353.237 542.652 354.662 541 354.662C539.348 354.662 537.998 353.237 537.998 351.494C537.998 349.75 539.348 348.325 541 348.325C542.652 348.325 544.002 349.75 544.002 351.494Z" fill="#7869AD"/>
<path d="M571.001 351.494C571.001 353.237 569.651 354.662 567.999 354.662C566.347 354.662 564.997 353.237 564.997 351.494C564.997 349.75 566.347 348.325 567.999 348.325C569.651 348.325 571.001 349.75 571.001 351.494Z" fill="#7869AD"/>
<path d="M598.001 351.494C598.001 353.237 596.651 354.662 594.999 354.662C593.347 354.662 591.997 353.237 591.997 351.494C591.997 349.75 593.347 348.325 594.999 348.325C596.651 348.325 598.001 349.75 598.001 351.494Z" fill="#7869AD"/>
<path d="M625.001 351.494C625.001 353.237 623.651 354.662 621.999 354.662C620.347 354.662 618.997 353.237 618.997 351.494C618.997 349.75 620.347 348.325 621.999 348.325C623.651 348.325 625.001 349.75 625.001 351.494Z" fill="#7869AD"/>
<path d="M652 351.494C652 353.237 650.65 354.662 648.998 354.662C647.346 354.662 645.996 353.237 645.996 351.494C645.996 349.75 647.346 348.325 648.998 348.325C650.65 348.325 652 349.75 652 351.494Z" fill="#7869AD"/>
<path d="M382.004 376.825C382.004 378.569 380.654 379.994 379.002 379.994C377.35 379.994 376 378.569 376 376.825C376 375.081 377.35 373.656 379.002 373.656C380.654 373.656 382.004 375.081 382.004 376.825Z" fill="#7869AD"/>
<path d="M409.004 376.825C409.004 378.569 407.654 379.994 406.002 379.994C404.35 379.994 403 378.569 403 376.825C403 375.081 404.35 373.656 406.002 373.656C407.654 373.656 409.004 375.081 409.004 376.825Z" fill="#7869AD"/>
<path d="M436.003 376.825C436.003 378.569 434.653 379.994 433.001 379.994C431.349 379.994 429.999 378.569 429.999 376.825C429.999 375.081 431.349 373.656 433.001 373.656C434.653 373.656 436.003 375.081 436.003 376.825Z" fill="#7869AD"/>
<path d="M463.003 376.825C463.003 378.569 461.653 379.994 460.001 379.994C458.349 379.994 456.999 378.569 456.999 376.825C456.999 375.081 458.349 373.656 460.001 373.656C461.653 373.656 463.003 375.081 463.003 376.825Z" fill="#7869AD"/>
<path d="M490.002 376.825C490.002 378.569 488.652 379.994 487 379.994C485.348 379.994 483.998 378.569 483.998 376.825C483.998 375.081 485.348 373.656 487 373.656C488.652 373.656 490.002 375.081 490.002 376.825Z" fill="#7869AD"/>
<path d="M517.002 376.825C517.002 378.569 515.652 379.994 514 379.994C512.348 379.994 510.998 378.569 510.998 376.825C510.998 375.081 512.348 373.656 514 373.656C515.652 373.656 517.002 375.081 517.002 376.825Z" fill="#7869AD"/>
<path d="M544.002 376.825C544.002 378.569 542.652 379.994 541 379.994C539.348 379.994 537.998 378.569 537.998 376.825C537.998 375.081 539.348 373.656 541 373.656C542.652 373.656 544.002 375.081 544.002 376.825Z" fill="#7869AD"/>
<path d="M571.001 376.825C571.001 378.569 569.651 379.994 567.999 379.994C566.347 379.994 564.997 378.569 564.997 376.825C564.997 375.081 566.347 373.656 567.999 373.656C569.651 373.656 571.001 375.081 571.001 376.825Z" fill="#7869AD"/>
<path d="M598.001 376.825C598.001 378.569 596.651 379.994 594.999 379.994C593.347 379.994 591.997 378.569 591.997 376.825C591.997 375.081 593.347 373.656 594.999 373.656C596.651 373.656 598.001 375.081 598.001 376.825Z" fill="#7869AD"/>
<path d="M625.001 376.825C625.001 378.569 623.651 379.994 621.999 379.994C620.347 379.994 618.997 378.569 618.997 376.825C618.997 375.081 620.347 373.656 621.999 373.656C623.651 373.656 625.001 375.081 625.001 376.825Z" fill="#7869AD"/>
<path d="M652 376.825C652 378.569 650.65 379.994 648.998 379.994C647.346 379.994 645.996 378.569 645.996 376.825C645.996 375.081 647.346 373.656 648.998 373.656C650.65 373.656 652 375.081 652 376.825Z" fill="#7869AD"/>
<path d="M379.002 405.325C380.66 405.325 382.004 403.906 382.004 402.156C382.004 400.406 380.66 398.988 379.002 398.988C377.344 398.988 376 400.406 376 402.156C376 403.906 377.344 405.325 379.002 405.325Z" fill="#7869AD"/>
<path d="M406.002 405.325C407.66 405.325 409.004 403.906 409.004 402.156C409.004 400.406 407.66 398.988 406.002 398.988C404.344 398.988 403 400.406 403 402.156C403 403.906 404.344 405.325 406.002 405.325Z" fill="#7869AD"/>
<path d="M433.001 405.325C434.659 405.325 436.003 403.906 436.003 402.156C436.003 400.406 434.659 398.988 433.001 398.988C431.343 398.988 429.999 400.406 429.999 402.156C429.999 403.906 431.343 405.325 433.001 405.325Z" fill="#7869AD"/>
<path d="M463.003 402.156C463.003 403.9 461.653 405.325 460.001 405.325C458.349 405.325 456.999 403.9 456.999 402.156C456.999 400.413 458.349 398.988 460.001 398.988C461.653 399.006 463.003 400.413 463.003 402.156Z" fill="#7869AD"/>
<path d="M490.002 402.156C490.002 403.9 488.652 405.325 487 405.325C485.348 405.325 483.998 403.9 483.998 402.156C483.998 400.413 485.348 398.988 487 398.988C488.652 399.006 490.002 400.413 490.002 402.156Z" fill="#7869AD"/>
<path d="M514 405.325C515.658 405.325 517.002 403.906 517.002 402.156C517.002 400.406 515.658 398.988 514 398.988C512.342 398.988 510.998 400.406 510.998 402.156C510.998 403.906 512.342 405.325 514 405.325Z" fill="#7869AD"/>
<path d="M541 405.325C542.658 405.325 544.002 403.906 544.002 402.156C544.002 400.406 542.658 398.988 541 398.988C539.342 398.988 537.998 400.406 537.998 402.156C537.998 403.906 539.342 405.325 541 405.325Z" fill="#7869AD"/>
<path d="M567.999 405.325C569.657 405.325 571.001 403.906 571.001 402.156C571.001 400.406 569.657 398.988 567.999 398.988C566.341 398.988 564.997 400.406 564.997 402.156C564.997 403.906 566.341 405.325 567.999 405.325Z" fill="#7869AD"/>
<path d="M594.999 405.325C596.657 405.325 598.001 403.906 598.001 402.156C598.001 400.406 596.657 398.988 594.999 398.988C593.341 398.988 591.997 400.406 591.997 402.156C591.997 403.906 593.341 405.325 594.999 405.325Z" fill="#7869AD"/>
<path d="M621.999 405.325C623.657 405.325 625.001 403.906 625.001 402.156C625.001 400.406 623.657 398.988 621.999 398.988C620.341 398.988 618.997 400.406 618.997 402.156C618.997 403.906 620.341 405.325 621.999 405.325Z" fill="#7869AD"/>
<path d="M648.998 405.325C650.656 405.325 652 403.906 652 402.156C652 400.406 650.656 398.988 648.998 398.988C647.34 398.988 645.996 400.406 645.996 402.156C645.996 403.906 647.34 405.325 648.998 405.325Z" fill="#7869AD"/>
<path d="M382.004 427.506C382.004 429.25 380.654 430.675 379.002 430.675C377.35 430.675 376 429.25 376 427.506C376 425.762 377.35 424.337 379.002 424.337C380.654 424.337 382.004 425.744 382.004 427.506Z" fill="#7869AD"/>
<path d="M409.004 427.506C409.004 429.25 407.654 430.675 406.002 430.675C404.35 430.675 403 429.25 403 427.506C403 425.762 404.35 424.337 406.002 424.337C407.654 424.337 409.004 425.744 409.004 427.506Z" fill="#7869AD"/>
<path d="M436.003 427.506C436.003 429.25 434.653 430.675 433.001 430.675C431.349 430.675 429.999 429.25 429.999 427.506C429.999 425.762 431.349 424.337 433.001 424.337C434.653 424.337 436.003 425.744 436.003 427.506Z" fill="#7869AD"/>
<path d="M463.003 427.506C463.003 429.25 461.653 430.675 460.001 430.675C458.349 430.675 456.999 429.25 456.999 427.506C456.999 425.762 458.349 424.337 460.001 424.337C461.653 424.337 463.003 425.744 463.003 427.506Z" fill="#7869AD"/>
<path d="M490.002 427.506C490.002 429.25 488.652 430.675 487 430.675C485.348 430.675 483.998 429.25 483.998 427.506C483.998 425.762 485.348 424.337 487 424.337C488.652 424.337 490.002 425.744 490.002 427.506Z" fill="#7869AD"/>
<path d="M517.002 427.506C517.002 429.25 515.652 430.675 514 430.675C512.348 430.675 510.998 429.25 510.998 427.506C510.998 425.762 512.348 424.337 514 424.337C515.652 424.337 517.002 425.744 517.002 427.506Z" fill="#7869AD"/>
<path d="M544.002 427.506C544.002 429.25 542.652 430.675 541 430.675C539.348 430.675 537.998 429.25 537.998 427.506C537.998 425.762 539.348 424.337 541 424.337C542.652 424.337 544.002 425.744 544.002 427.506Z" fill="#7869AD"/>
<path d="M571.001 427.506C571.001 429.25 569.651 430.675 567.999 430.675C566.347 430.675 564.997 429.25 564.997 427.506C564.997 425.762 566.347 424.337 567.999 424.337C569.651 424.337 571.001 425.744 571.001 427.506Z" fill="#7869AD"/>
<path d="M598.001 427.506C598.001 429.25 596.651 430.675 594.999 430.675C593.347 430.675 591.997 429.25 591.997 427.506C591.997 425.762 593.347 424.337 594.999 424.337C596.651 424.337 598.001 425.744 598.001 427.506Z" fill="#7869AD"/>
<path d="M625.001 427.506C625.001 429.25 623.651 430.675 621.999 430.675C620.347 430.675 618.997 429.25 618.997 427.506C618.997 425.762 620.347 424.337 621.999 424.337C623.651 424.337 625.001 425.744 625.001 427.506Z" fill="#7869AD"/>
<path d="M652 427.506C652 429.25 650.65 430.675 648.998 430.675C647.346 430.675 645.996 429.25 645.996 427.506C645.996 425.762 647.346 424.337 648.998 424.337C650.65 424.337 652 425.744 652 427.506Z" fill="#7869AD"/>
<path d="M382.004 452.837C382.004 454.581 380.654 456.006 379.002 456.006C377.35 456.006 376 454.581 376 452.837C376 451.094 377.35 449.669 379.002 449.669C380.654 449.669 382.004 451.075 382.004 452.837Z" fill="#7869AD"/>
<path d="M409.004 452.837C409.004 454.581 407.654 456.006 406.002 456.006C404.35 456.006 403 454.581 403 452.837C403 451.094 404.35 449.669 406.002 449.669C407.654 449.669 409.004 451.075 409.004 452.837Z" fill="#7869AD"/>
<path d="M436.003 452.837C436.003 454.581 434.653 456.006 433.001 456.006C431.349 456.006 429.999 454.581 429.999 452.837C429.999 451.094 431.349 449.669 433.001 449.669C434.653 449.669 436.003 451.075 436.003 452.837Z" fill="#7869AD"/>
<path d="M463.003 452.837C463.003 454.581 461.653 456.006 460.001 456.006C458.349 456.006 456.999 454.581 456.999 452.837C456.999 451.094 458.349 449.669 460.001 449.669C461.653 449.669 463.003 451.075 463.003 452.837Z" fill="#7869AD"/>
<path d="M490.002 452.837C490.002 454.581 488.652 456.006 487 456.006C485.348 456.006 483.998 454.581 483.998 452.837C483.998 451.094 485.348 449.669 487 449.669C488.652 449.669 490.002 451.075 490.002 452.837Z" fill="#7869AD"/>
<path d="M517.002 452.837C517.002 454.581 515.652 456.006 514 456.006C512.348 456.006 510.998 454.581 510.998 452.837C510.998 451.094 512.348 449.669 514 449.669C515.652 449.669 517.002 451.075 517.002 452.837Z" fill="#7869AD"/>
<path d="M544.002 452.837C544.002 454.581 542.652 456.006 541 456.006C539.348 456.006 537.998 454.581 537.998 452.837C537.998 451.094 539.348 449.669 541 449.669C542.652 449.669 544.002 451.075 544.002 452.837Z" fill="#7869AD"/>
<path d="M571.001 452.837C571.001 454.581 569.651 456.006 567.999 456.006C566.347 456.006 564.997 454.581 564.997 452.837C564.997 451.094 566.347 449.669 567.999 449.669C569.651 449.669 571.001 451.075 571.001 452.837Z" fill="#7869AD"/>
<path d="M598.001 452.837C598.001 454.581 596.651 456.006 594.999 456.006C593.347 456.006 591.997 454.581 591.997 452.837C591.997 451.094 593.347 449.669 594.999 449.669C596.651 449.669 598.001 451.075 598.001 452.837Z" fill="#7869AD"/>
<path d="M625.001 452.837C625.001 454.581 623.651 456.006 621.999 456.006C620.347 456.006 618.997 454.581 618.997 452.837C618.997 451.094 620.347 449.669 621.999 449.669C623.651 449.669 625.001 451.075 625.001 452.837Z" fill="#7869AD"/>
<path d="M652 452.837C652 454.581 650.65 456.006 648.998 456.006C647.346 456.006 645.996 454.581 645.996 452.837C645.996 451.094 647.346 449.669 648.998 449.669C650.65 449.669 652 451.075 652 452.837Z" fill="#7869AD"/>
<path d="M382.004 478.169C382.004 479.913 380.654 481.338 379.002 481.338C377.35 481.338 376 479.913 376 478.169C376 476.425 377.35 475 379.002 475C380.654 475 382.004 476.425 382.004 478.169Z" fill="#7869AD"/>
<path d="M409.004 478.169C409.004 479.913 407.654 481.338 406.002 481.338C404.35 481.338 403 479.913 403 478.169C403 476.425 404.35 475 406.002 475C407.654 475 409.004 476.425 409.004 478.169Z" fill="#7869AD"/>
<path d="M436.003 478.169C436.003 479.913 434.653 481.338 433.001 481.338C431.349 481.338 429.999 479.913 429.999 478.169C429.999 476.425 431.349 475 433.001 475C434.653 475 436.003 476.425 436.003 478.169Z" fill="#7869AD"/>
<path d="M463.003 478.169C463.003 479.913 461.653 481.338 460.001 481.338C458.349 481.338 456.999 479.913 456.999 478.169C456.999 476.425 458.349 475 460.001 475C461.653 475 463.003 476.425 463.003 478.169Z" fill="#7869AD"/>
<path d="M490.002 478.169C490.002 479.913 488.652 481.338 487 481.338C485.348 481.338 483.998 479.913 483.998 478.169C483.998 476.425 485.348 475 487 475C488.652 475 490.002 476.425 490.002 478.169Z" fill="#7869AD"/>
<path d="M517.002 478.169C517.002 479.913 515.652 481.338 514 481.338C512.348 481.338 510.998 479.913 510.998 478.169C510.998 476.425 512.348 475 514 475C515.652 475 517.002 476.425 517.002 478.169Z" fill="#7869AD"/>
<path d="M544.002 478.169C544.002 479.913 542.652 481.338 541 481.338C539.348 481.338 537.998 479.913 537.998 478.169C537.998 476.425 539.348 475 541 475C542.652 475 544.002 476.425 544.002 478.169Z" fill="#7869AD"/>
<path d="M571.001 478.169C571.001 479.913 569.651 481.338 567.999 481.338C566.347 481.338 564.997 479.913 564.997 478.169C564.997 476.425 566.347 475 567.999 475C569.651 475 571.001 476.425 571.001 478.169Z" fill="#7869AD"/>
<path d="M598.001 478.169C598.001 479.913 596.651 481.338 594.999 481.338C593.347 481.338 591.997 479.913 591.997 478.169C591.997 476.425 593.347 475 594.999 475C596.651 475 598.001 476.425 598.001 478.169Z" fill="#7869AD"/>
<path d="M625.001 478.169C625.001 479.913 623.651 481.338 621.999 481.338C620.347 481.338 618.997 479.913 618.997 478.169C618.997 476.425 620.347 475 621.999 475C623.651 475 625.001 476.425 625.001 478.169Z" fill="#7869AD"/>
<path d="M652 478.169C652 479.913 650.65 481.338 648.998 481.338C647.346 481.338 645.996 479.913 645.996 478.169C645.996 476.425 647.346 475 648.998 475C650.65 475 652 476.425 652 478.169Z" fill="#7869AD"/>
<path d="M379.002 506.669C380.66 506.669 382.004 505.25 382.004 503.5C382.004 501.75 380.66 500.331 379.002 500.331C377.344 500.331 376 501.75 376 503.5C376 505.25 377.344 506.669 379.002 506.669Z" fill="#7869AD"/>
<path d="M406.002 506.669C407.66 506.669 409.004 505.25 409.004 503.5C409.004 501.75 407.66 500.331 406.002 500.331C404.344 500.331 403 501.75 403 503.5C403 505.25 404.344 506.669 406.002 506.669Z" fill="#7869AD"/>
<path d="M433.001 506.669C434.659 506.669 436.003 505.25 436.003 503.5C436.003 501.75 434.659 500.331 433.001 500.331C431.343 500.331 429.999 501.75 429.999 503.5C429.999 505.25 431.343 506.669 433.001 506.669Z" fill="#7869AD"/>
<path d="M463.003 503.5C463.003 505.244 461.653 506.669 460.001 506.669C458.349 506.669 456.999 505.244 456.999 503.5C456.999 501.756 458.349 500.331 460.001 500.331C461.653 500.331 463.003 501.756 463.003 503.5Z" fill="#7869AD"/>
<path d="M490.002 503.5C490.002 505.244 488.652 506.669 487 506.669C485.348 506.669 483.998 505.244 483.998 503.5C483.998 501.756 485.348 500.331 487 500.331C488.652 500.331 490.002 501.756 490.002 503.5Z" fill="#7869AD"/>
<path d="M514 506.669C515.658 506.669 517.002 505.25 517.002 503.5C517.002 501.75 515.658 500.331 514 500.331C512.342 500.331 510.998 501.75 510.998 503.5C510.998 505.25 512.342 506.669 514 506.669Z" fill="#7869AD"/>
<path d="M541 506.669C542.658 506.669 544.002 505.25 544.002 503.5C544.002 501.75 542.658 500.331 541 500.331C539.342 500.331 537.998 501.75 537.998 503.5C537.998 505.25 539.342 506.669 541 506.669Z" fill="#7869AD"/>
<path d="M567.999 506.669C569.657 506.669 571.001 505.25 571.001 503.5C571.001 501.75 569.657 500.331 567.999 500.331C566.341 500.331 564.997 501.75 564.997 503.5C564.997 505.25 566.341 506.669 567.999 506.669Z" fill="#7869AD"/>
<path d="M594.999 506.669C596.657 506.669 598.001 505.25 598.001 503.5C598.001 501.75 596.657 500.331 594.999 500.331C593.341 500.331 591.997 501.75 591.997 503.5C591.997 505.25 593.341 506.669 594.999 506.669Z" fill="#7869AD"/>
<path d="M621.999 506.669C623.657 506.669 625.001 505.25 625.001 503.5C625.001 501.75 623.657 500.331 621.999 500.331C620.341 500.331 618.997 501.75 618.997 503.5C618.997 505.25 620.341 506.669 621.999 506.669Z" fill="#7869AD"/>
<path d="M648.998 506.669C650.656 506.669 652 505.25 652 503.5C652 501.75 650.656 500.331 648.998 500.331C647.34 500.331 645.996 501.75 645.996 503.5C645.996 505.25 647.34 506.669 648.998 506.669Z" fill="#7869AD"/>
<path d="M382.004 528.831C382.004 530.575 380.654 532 379.002 532C377.35 532 376 530.575 376 528.831C376 527.088 377.35 525.663 379.002 525.663C380.654 525.663 382.004 527.088 382.004 528.831Z" fill="#7869AD"/>
<path d="M409.004 528.831C409.004 530.575 407.654 532 406.002 532C404.35 532 403 530.575 403 528.831C403 527.088 404.35 525.663 406.002 525.663C407.654 525.663 409.004 527.088 409.004 528.831Z" fill="#7869AD"/>
<path d="M436.003 528.831C436.003 530.575 434.653 532 433.001 532C431.349 532 429.999 530.575 429.999 528.831C429.999 527.088 431.349 525.663 433.001 525.663C434.653 525.663 436.003 527.088 436.003 528.831Z" fill="#7869AD"/>
<path d="M463.003 528.831C463.003 530.575 461.653 532 460.001 532C458.349 532 456.999 530.575 456.999 528.831C456.999 527.088 458.349 525.663 460.001 525.663C461.653 525.663 463.003 527.088 463.003 528.831Z" fill="#7869AD"/>
<path d="M490.002 528.831C490.002 530.575 488.652 532 487 532C485.348 532 483.998 530.575 483.998 528.831C483.998 527.088 485.348 525.663 487 525.663C488.652 525.663 490.002 527.088 490.002 528.831Z" fill="#7869AD"/>
<path d="M517.002 528.831C517.002 530.575 515.652 532 514 532C512.348 532 510.998 530.575 510.998 528.831C510.998 527.088 512.348 525.663 514 525.663C515.652 525.663 517.002 527.088 517.002 528.831Z" fill="#7869AD"/>
<path d="M544.002 528.831C544.002 530.575 542.652 532 541 532C539.348 532 537.998 530.575 537.998 528.831C537.998 527.088 539.348 525.663 541 525.663C542.652 525.663 544.002 527.088 544.002 528.831Z" fill="#7869AD"/>
<path d="M571.001 528.831C571.001 530.575 569.651 532 567.999 532C566.347 532 564.997 530.575 564.997 528.831C564.997 527.088 566.347 525.663 567.999 525.663C569.651 525.663 571.001 527.088 571.001 528.831Z" fill="#7869AD"/>
<path d="M598.001 528.831C598.001 530.575 596.651 532 594.999 532C593.347 532 591.997 530.575 591.997 528.831C591.997 527.088 593.347 525.663 594.999 525.663C596.651 525.663 598.001 527.088 598.001 528.831Z" fill="#7869AD"/>
<path d="M625.001 528.831C625.001 530.575 623.651 532 621.999 532C620.347 532 618.997 530.575 618.997 528.831C618.997 527.088 620.347 525.663 621.999 525.663C623.651 525.663 625.001 527.088 625.001 528.831Z" fill="#7869AD"/>
<path d="M652 528.831C652 530.575 650.65 532 648.998 532C647.346 532 645.996 530.575 645.996 528.831C645.996 527.088 647.346 525.663 648.998 525.663C650.65 525.663 652 527.088 652 528.831Z" fill="#7869AD"/>
</svg>
