<svg width="226" height="153" viewBox="0 0 226 153" fill="none" xmlns="http://www.w3.org/2000/svg">
<path d="M221.744 147.561L194.026 147.705L166.308 147.752L110.872 147.85L55.4361 147.757L27.718 147.705L0 147.561L27.718 147.422L55.4361 147.37L110.872 147.278L166.308 147.37L194.026 147.422L221.744 147.561Z" fill="#263238"/>
<path d="M98.8488 76.5866C101.553 97.1878 108.216 123.597 114.49 129.369C119.559 134.033 147.245 143.955 148.807 144.284C152.675 145.07 162.695 115.801 158.743 114.235C153.77 112.236 129.617 109.196 128.357 107.532C127.098 105.867 119.246 91.9869 110.431 76.0434C104.348 65.0233 97.1646 63.7982 98.8488 76.5866Z" fill="#AD6359"/>
<path d="M145.8 142.348C146.246 142.649 152.563 146.862 156.543 148.52C159.513 149.757 168.152 153.074 169.73 149.676C170.792 147.364 165.941 144.747 162.536 142.822C160.74 141.811 158.615 139.488 159.263 138.24C160.395 136.055 165.006 138.771 167.998 141.048C173.784 145.452 181.355 153.114 185.329 150.098C186.832 148.942 185.377 146.492 183.166 144.013C186.838 147.006 190.796 149.549 192.512 148.353C193.495 147.676 193.617 146.619 193.197 145.382C194.361 145.914 195.423 145.931 196.226 145.151C197.596 143.834 197.145 141.684 195.933 139.372C196.172 139.366 196.405 139.298 196.615 139.174C196.824 139.051 197.004 138.875 197.14 138.662C200.147 134.484 187.789 120.574 183.267 118.962C169.985 114.212 155.427 114.171 155.427 114.171C149.737 118.286 145.789 142.343 145.8 142.348Z" fill="#AD6359"/>
<path d="M166.813 130.583C170.002 131.43 172.989 133.006 175.574 135.206C178.826 137.991 180.887 141.089 183.544 144.267C183.613 144.348 183.496 144.469 183.427 144.388C182.157 142.874 176.86 137.153 175.457 135.836C172.965 133.406 169.996 131.627 166.776 130.635C166.76 130.635 166.776 130.577 166.813 130.583Z" fill="#263238"/>
<path d="M169.846 124.55C173.332 125.937 176.907 127.347 180.074 129.485C183.543 131.826 186.126 135.356 188.671 138.766C190.201 140.811 191.687 142.894 193.128 145.013C193.187 145.099 193.075 145.221 193.011 145.128C190.433 141.615 187.758 138.188 184.989 134.848C182.439 131.731 179.348 129.194 175.893 127.382C173.916 126.347 171.871 125.486 169.831 124.619C169.826 124.618 169.822 124.616 169.819 124.614C169.815 124.611 169.813 124.607 169.81 124.603C169.808 124.599 169.807 124.595 169.806 124.59C169.805 124.585 169.806 124.581 169.807 124.576C169.808 124.572 169.81 124.567 169.812 124.564C169.815 124.56 169.818 124.557 169.822 124.554C169.825 124.552 169.829 124.55 169.834 124.549C169.838 124.549 169.842 124.549 169.846 124.55Z" fill="#263238"/>
<path d="M174.06 119.424C177.465 120.517 180.435 121.453 183.352 123.753C187.209 126.798 190.79 131.664 192.039 133.386C193.42 135.293 194.743 137.246 196.04 139.217C196.093 139.297 195.965 139.401 195.912 139.321C192.93 134.979 189.693 130.852 186.221 126.966C184.594 125.087 182.708 123.494 180.632 122.244C178.516 121.111 176.316 120.175 174.054 119.447C174.054 119.447 174.044 119.419 174.06 119.424Z" fill="#263238"/>
<path d="M104.31 111.519L125.302 98.7307C125.302 98.7307 117.131 82.9374 108.747 71.0332C100.363 59.129 97.021 65.9826 98.227 78.8865C99.4331 91.7904 104.31 111.519 104.31 111.519Z" fill="#8D6DC7"/>
<path d="M122.104 95.535C116.094 98.7773 110.242 102.355 104.571 106.255C104.486 106.312 104.571 106.463 104.662 106.416C110.685 103.182 116.549 99.6097 122.232 95.7141C122.295 95.6506 122.2 95.483 122.104 95.535Z" fill="#263238"/>
<path opacity="0.1" d="M121.594 100.99L104.311 111.519C104.311 111.519 99.4282 91.7963 98.2274 78.8866C97.4623 70.7213 98.5249 64.983 101.532 64.8848L121.594 100.99Z" fill="black"/>
<path d="M45.2562 147.29H124.686C125.701 146.48 116.498 87.9419 104.804 67.7164C102.616 63.9371 92.1276 58.1584 83.919 65.0061C59.1444 85.6767 44.3264 145.995 45.2562 147.29Z" fill="#8D6DC7"/>
<path d="M138.622 103.677C141.243 102.188 143.992 100.983 146.83 100.077C150.629 99.0081 158.965 97.367 160.458 96.6909L162.982 96.5926L146.666 143.4L124.308 148.393L87.1172 138.743L100.4 94.2002L102.961 94.0615C102.961 94.0615 107.684 95.4542 111.578 96.2632C115.473 97.0722 128.978 97.7079 138.622 103.677Z" fill="white"/>
<path d="M120.993 149.589L135.588 104.475L98.7903 93.7437L84.9658 139.8L120.993 149.589Z" fill="#455A64"/>
<path d="M120.993 149.589L126.354 149.913L141.007 104.792L135.588 104.475L120.993 149.589Z" fill="#37474F"/>
<path d="M126.354 149.913L141.008 104.793L164.066 96.1824L147.261 143.857L126.354 149.913Z" fill="#455A64"/>
<path d="M81.6505 67.4274C62.7786 90.7099 38.8328 134.073 42.9717 142.655C48.2209 153.536 84.4717 151.525 92.9141 149.381C96.5216 148.468 84.0466 114.455 80.1628 115.345C76.7837 116.119 73.8669 116.893 73.75 116.385C73.6331 115.876 83.7172 99.6669 89.8591 76.3208C94.0829 60.4062 85.6565 62.5154 81.6505 67.4274Z" fill="#AD6359"/>
<path d="M63.209 131.542C63.209 131.542 64.6169 129.97 70.8013 120.384C75.0517 113.75 89.3969 100.568 109.735 105.937C117.524 108 119.601 114.848 111.154 114.27C105.203 113.859 101.117 113.021 99.1409 113.484C99.1409 113.484 105.91 120.135 105.288 125.844C104.746 130.838 103.878 135.784 102.69 140.644C101.821 140.607 100.955 140.513 100.097 140.361C99.6667 142.588 98.6662 144.638 97.2111 146.274C95.7559 147.91 93.9054 149.065 91.8727 149.607L63.209 131.542Z" fill="#AD6359"/>
<path d="M75.8057 114.761C79.5992 113.744 87.6643 111.739 94.7891 112.594C102.7 113.547 117.704 117.696 117.003 124.041C116.472 128.664 110.627 127.659 110.627 127.659C110.627 127.659 116.498 130.797 115.186 134.888C113.99 138.615 109.501 137.517 109.501 137.517C109.501 137.517 112.763 140.089 110.973 143.441C108.847 147.486 102.344 141.424 96.9196 143.441C95.7082 143.915 75.8057 114.761 75.8057 114.761Z" fill="#AD6359"/>
<path d="M92.4726 121.522C96.1917 121.204 104.778 122.828 110.569 127.492C110.702 127.596 110.696 127.763 110.569 127.694C104.796 124.875 98.7304 122.83 92.5045 121.603C92.4248 121.597 92.4354 121.528 92.4726 121.522Z" fill="#263238"/>
<path d="M91.8252 130.236C95.0502 130.317 103.843 132.426 109.56 137.373C109.688 137.483 109.672 137.645 109.56 137.57C103.923 134.431 97.9769 131.998 91.8359 130.317C91.826 130.319 91.816 130.316 91.808 130.309C91.8 130.303 91.7948 130.293 91.7933 130.283C91.7919 130.272 91.7945 130.261 91.8005 130.252C91.8065 130.244 91.8154 130.238 91.8252 130.236Z" fill="#263238"/>
<path d="M57.5611 127.075C59.8351 123.874 66.7154 118.043 73.7817 116.512C73.9411 116.477 74.0527 116.593 73.9146 116.656C68.109 119.419 62.6336 122.939 57.6089 127.139C57.577 127.168 57.5345 127.11 57.5611 127.075Z" fill="#263238"/>
<path d="M59.373 96.1418L81.8577 105.451C81.8577 105.451 87.7552 88.4965 90.773 73.8705C93.7908 59.2446 86.8148 60.8453 78.4787 70.1259C70.1425 79.4066 59.373 96.1418 59.373 96.1418Z" fill="#8D6DC7"/>
<path d="M88.8227 86.5143C88.8255 86.5079 88.8271 86.5009 88.8274 86.4938C88.8277 86.4867 88.8268 86.4796 88.8245 86.4728C88.8223 86.4661 88.8189 86.46 88.8145 86.4547C88.8101 86.4494 88.8048 86.4451 88.7988 86.4421C88.7929 86.4391 88.7865 86.4373 88.7799 86.437C88.7734 86.4367 88.7668 86.4377 88.7607 86.4401C88.7545 86.4426 88.7488 86.4463 88.744 86.4511C88.7391 86.4559 88.7352 86.4617 88.7324 86.4681L87.5689 88.8547C87.9727 87.2367 88.3481 85.6071 88.6952 83.9659C88.6952 83.9139 88.6262 83.8792 88.6102 83.9312C87.4697 87.4678 86.3522 91.0083 85.2577 94.5526C84.1951 98.1065 82.9306 101.608 81.8786 105.174C81.2304 105.035 80.8798 104.92 80.3963 104.833C80.2847 104.833 80.2156 104.948 80.3166 105.006C80.8988 105.348 81.5207 105.602 82.1655 105.763C83.5894 102.354 84.7423 98.5283 85.8528 94.986C86.3841 93.2523 86.9154 91.4898 87.351 89.7215C87.8965 88.6833 88.3878 87.6126 88.8227 86.5143Z" fill="#263238"/>
<path d="M82.0598 100.73C75.9132 97.7863 69.63 95.192 63.2358 92.9577C63.1402 92.923 63.087 93.0964 63.1773 93.1368C69.323 96.0882 75.6062 98.6883 82.0014 100.927C82.1023 100.967 82.182 100.776 82.0598 100.73Z" fill="#263238"/>
<path d="M88.5576 66.0982C88.5576 67.514 92.6433 77.6556 98.3389 78.7593C100.198 79.1118 102.419 68.1843 102.419 68.1843L102.754 67.4157L107.419 56.6904L95.4645 43.6189C95.4645 43.6189 88.5576 65.503 88.5576 66.0982Z" fill="#AD6359"/>
<path d="M107.418 56.6905L102.753 67.41L102.419 68.1844C102.419 68.1844 102.015 70.1607 101.409 72.4086C93.9709 69.2823 91.7714 62.1398 91.1338 57.4359C93.0943 51.0793 95.4586 43.6248 95.4586 43.6248L107.418 56.6905Z" fill="#263238"/>
<path d="M126.45 39.7587C123.984 65.0406 109.788 66.2946 104.772 65.7109C100.224 65.1793 84.7955 62.7522 84.838 37.3258C84.8805 11.8994 96.4735 5.15564 106.935 5.76819C117.396 6.38073 128.936 14.4767 126.45 39.7587Z" fill="#AD6359"/>
<path d="M120.52 43.5554C123.081 43.9773 122.114 49.5249 119.745 49.1319C117.375 48.739 118.369 43.2029 120.52 43.5554Z" fill="#263238"/>
<path d="M108.667 41.7119C106.117 41.186 105.336 46.7683 107.695 47.2537C110.054 47.7391 110.798 42.1395 108.667 41.7119Z" fill="#263238"/>
<path d="M122.768 40.3829C122.258 40.1913 121.758 39.9715 121.269 39.7242C120.713 39.5725 120.218 39.2252 119.861 38.736C119.776 38.5588 119.748 38.3559 119.781 38.1592C119.814 37.9626 119.905 37.7833 120.042 37.6496C120.653 37.1122 121.423 37.2393 122.125 37.5225C122.84 37.7777 123.441 38.316 123.809 39.0307C123.884 39.1984 123.914 39.3863 123.893 39.5716C123.872 39.757 123.802 39.9318 123.692 40.0749C123.582 40.2181 123.436 40.3234 123.272 40.378C123.108 40.4327 122.933 40.4344 122.768 40.3829Z" fill="#263238"/>
<path d="M106.998 38.1754C107.53 38.21 108.061 38.1407 108.592 38.1176C109.163 38.1837 109.738 38.0436 110.229 37.7188C110.364 37.5839 110.454 37.4043 110.486 37.2079C110.517 37.0116 110.489 36.8093 110.404 36.6324C110.187 36.3099 109.895 36.0563 109.558 35.8978C109.221 35.7393 108.851 35.6817 108.486 35.731C107.733 35.7032 106.997 35.9836 106.425 36.5169C106.3 36.6477 106.213 36.8154 106.175 36.9992C106.137 37.183 106.149 37.3749 106.21 37.5513C106.271 37.7277 106.378 37.8807 106.518 37.9916C106.658 38.1025 106.825 38.1664 106.998 38.1754Z" fill="#263238"/>
<path d="M106.807 56.939C107.094 57.4302 107.339 58.0948 107.87 58.2681C108.45 58.4039 109.049 58.4039 109.629 58.2681C109.64 58.2675 109.651 58.2705 109.661 58.2768C109.671 58.283 109.679 58.2922 109.684 58.3032C109.689 58.3142 109.691 58.3266 109.69 58.3388C109.688 58.3511 109.684 58.3626 109.676 58.3721C109.383 58.6472 109.026 58.8298 108.644 58.9001C108.262 58.9703 107.869 58.9257 107.509 58.7709C107.213 58.5998 106.971 58.337 106.813 58.016C106.655 57.695 106.589 57.3302 106.621 56.9679C106.621 56.8754 106.77 56.8697 106.807 56.939Z" fill="#263238"/>
<path d="M114.384 52.0732C114.384 52.0732 114.283 54.6794 114.081 55.8814C114.081 55.9912 113.789 55.997 113.407 55.945C113.407 55.945 113.38 55.945 113.364 55.945C112.386 55.9444 111.426 55.6515 110.59 55.0981C109.755 54.5447 109.075 53.7522 108.625 52.8071C108.572 52.6742 108.731 52.5817 108.821 52.6742C110.081 54.1247 111.637 54.7372 113.359 55.1128C113.492 54.795 113.407 50.5939 113.571 50.6574C114.283 50.9406 115.516 51.5473 115.973 51.7727C116.074 50.0795 116.143 45.2543 116.334 42.1742C116.334 41.9835 116.621 41.972 116.632 42.1742C116.955 45.7842 117.056 49.4136 116.934 53.0383C116.924 53.2983 114.793 52.3621 114.384 52.0732Z" fill="#263238"/>
<path d="M82.0382 38.5972C88.552 41.2266 94.3485 33.7026 94.662 26.2654C94.662 26.2654 111.664 34.4539 116.674 19.2732C117.353 21.7655 118.588 24.0369 120.268 25.8857C121.949 27.7345 124.023 29.1035 126.306 29.8713L126.747 36.2279C128.718 36.2279 132.161 31.2409 128.904 25.4275C128.904 25.4275 130.674 17.6262 126.699 11.3447C125.649 9.56438 124.148 8.15203 122.377 7.27755C120.606 6.40308 118.64 6.10372 116.716 6.41548C114.288 3.01157 110.739 0.767425 106.818 0.157115C100.055 -0.998631 95.6608 4.60096 95.6608 4.60096C95.6608 4.60096 86.4055 3.63014 83.0902 9.92317C79.7749 16.2162 81.7673 21.7811 81.7673 21.7811C81.7673 21.7811 78.8557 23.7401 78.4148 29.8713C78.1119 33.8182 80.083 37.8055 82.0382 38.5972Z" fill="#263238"/>
<path d="M116.653 17.7764C116.447 19.0712 116.119 20.3396 115.675 21.5614C115.267 22.7858 114.721 23.9504 114.049 25.0287C112.745 27.159 110.748 28.6741 108.46 29.2703C106.191 29.9926 103.779 29.4494 101.457 28.9755C100.32 28.571 99.1516 28.2532 98.0306 27.7793C96.9095 27.3055 95.8044 26.7623 94.6621 26.2884C95.7247 26.9472 96.7873 27.554 97.8499 28.1954C98.9125 28.8369 100.124 29.1662 101.266 29.6632C103.63 30.3047 106.154 30.8767 108.646 30.1717C111.127 29.4903 113.262 27.776 114.591 25.3985C115.853 23.0848 116.561 20.4644 116.653 17.7764Z" fill="#263238"/>
<path d="M95.6393 4.60107C93.3866 3.90615 91.0268 3.72127 88.7058 4.05787C86.301 4.36016 84.0715 5.57572 82.4098 7.49043C81.6462 8.49603 81.0347 9.62741 80.5981 10.8421C80.1271 12.0337 79.8468 13.304 79.7693 14.5983C79.5842 17.1766 80.2888 19.7374 81.7457 21.7812C80.6037 19.6281 80.1392 17.1283 80.4228 14.6618C80.703 12.2448 81.6159 9.96614 83.0527 8.0972C83.7815 7.19738 84.6592 6.45444 85.6401 5.90706C86.6536 5.37699 87.7248 4.98865 88.828 4.75131C91.0768 4.30971 93.3758 4.259 95.6393 4.60107Z" fill="#263238"/>
<path d="M116.716 6.41543C118.564 6.28942 120.418 6.48449 122.209 6.9933C123.959 7.47348 125.565 8.43461 126.874 9.78443C128.137 11.191 129.051 12.9227 129.531 14.8177C130.029 16.758 130.262 18.7674 130.222 20.7814C130.589 18.7512 130.571 16.6608 130.168 14.6386C129.816 12.5443 128.878 10.6194 127.482 9.1269C126.086 7.6344 124.3 6.64709 122.369 6.29986C120.499 5.89375 118.57 5.93318 116.716 6.41543Z" fill="#263238"/>
<path d="M123.363 29.6112C121.618 28.2806 120.091 26.6395 118.847 24.7571C118.243 23.8318 117.758 22.8208 117.407 21.7521C117.06 20.6509 116.824 19.5114 116.706 18.3542C116.498 19.5445 116.521 20.7689 116.775 21.9486C117.023 23.1502 117.489 24.2857 118.146 25.2887C118.787 26.2876 119.569 27.171 120.462 27.9065C121.336 28.6457 122.316 29.2218 123.363 29.6112Z" fill="#263238"/>
<path d="M98.9441 44.8382C98.9228 44.8864 98.893 44.9296 98.8564 44.9652C98.8198 45.0009 98.777 45.0284 98.7307 45.0461C98.6843 45.0638 98.6352 45.0714 98.5861 45.0684C98.537 45.0655 98.489 45.0521 98.4446 45.0289C98.4003 45.0058 98.3607 44.9734 98.3279 44.9335C98.2951 44.8937 98.2698 44.8473 98.2535 44.7968C98.2373 44.7464 98.2303 44.6929 98.233 44.6396C98.2357 44.5862 98.248 44.5339 98.2693 44.4857C98.3123 44.3884 98.3891 44.3136 98.4827 44.2779C98.5764 44.2421 98.6793 44.2483 98.7687 44.295C98.8582 44.3418 98.927 44.4253 98.9598 44.5271C98.9927 44.629 98.9871 44.7409 98.9441 44.8382Z" fill="#AD6359"/>
<path d="M106.218 48.1899C106.182 48.2589 106.128 48.3151 106.063 48.3516C105.998 48.3881 105.925 48.4033 105.853 48.3955C105.78 48.3876 105.711 48.357 105.654 48.3074C105.597 48.2577 105.555 48.1912 105.532 48.1158C105.509 48.0404 105.507 47.9594 105.525 47.8826C105.544 47.8058 105.582 47.7366 105.637 47.6832C105.691 47.6299 105.758 47.5948 105.83 47.5821C105.902 47.5695 105.976 47.5799 106.043 47.612C106.09 47.6359 106.133 47.6702 106.168 47.7128C106.203 47.7553 106.229 47.8053 106.246 47.8595C106.262 47.9137 106.268 47.971 106.263 48.0278C106.259 48.0847 106.243 48.1398 106.218 48.1899Z" fill="#AD6359"/>
<path d="M102.514 49.594C102.493 49.6465 102.462 49.6935 102.423 49.732C102.383 49.7705 102.337 49.7997 102.287 49.8176C102.237 49.8356 102.184 49.842 102.132 49.8363C102.079 49.8306 102.029 49.8131 101.983 49.7847C101.939 49.7589 101.9 49.7237 101.869 49.6812C101.838 49.6387 101.815 49.5899 101.802 49.5376C101.788 49.4853 101.785 49.4306 101.791 49.3767C101.798 49.3229 101.814 49.271 101.839 49.2242C101.861 49.1756 101.891 49.1321 101.928 49.0962C101.965 49.0602 102.008 49.0326 102.055 49.0149C102.102 48.9972 102.152 48.9897 102.201 48.9929C102.251 48.9961 102.299 49.0099 102.344 49.0335C102.39 49.0568 102.431 49.0901 102.465 49.1314C102.499 49.1728 102.525 49.2212 102.541 49.2737C102.557 49.3263 102.563 49.3818 102.558 49.4369C102.553 49.492 102.538 49.5455 102.514 49.594Z" fill="#AD6359"/>
<path d="M100.486 41.8854C100.464 41.9341 100.434 41.9776 100.397 42.0135C100.36 42.0494 100.316 42.077 100.27 42.0947C100.223 42.1125 100.173 42.1199 100.123 42.1167C100.074 42.1135 100.025 42.0998 99.9808 42.0761C99.9138 42.0407 99.8579 41.9844 99.8202 41.9144C99.7826 41.8444 99.7648 41.7639 99.7692 41.6829C99.7736 41.602 99.8 41.5242 99.845 41.4596C99.89 41.3949 99.9516 41.3462 100.022 41.3196C100.092 41.293 100.169 41.2897 100.241 41.3101C100.313 41.3305 100.378 41.3737 100.427 41.4342C100.477 41.4948 100.509 41.5699 100.519 41.6503C100.53 41.7306 100.518 41.8124 100.486 41.8854Z" fill="#AD6359"/>
<path d="M102.902 45.7166C102.871 45.7903 102.82 45.8523 102.756 45.8946C102.692 45.9368 102.618 45.9575 102.543 45.954C102.469 45.9505 102.397 45.9229 102.337 45.8747C102.276 45.8266 102.231 45.7601 102.205 45.6836C102.18 45.6072 102.176 45.5242 102.194 45.4453C102.212 45.3664 102.251 45.2951 102.306 45.2404C102.362 45.1857 102.431 45.1502 102.504 45.1382C102.578 45.1263 102.654 45.1385 102.721 45.1734C102.766 45.1957 102.807 45.2276 102.84 45.2671C102.874 45.3067 102.9 45.3531 102.917 45.4037C102.933 45.4543 102.941 45.508 102.938 45.5617C102.936 45.6154 102.924 45.6681 102.902 45.7166Z" fill="#AD6359"/>
<path d="M122.773 49.5017C122.729 49.5998 122.651 49.675 122.556 49.7108C122.462 49.7465 122.358 49.7399 122.268 49.6924C122.178 49.6449 122.108 49.5604 122.076 49.4574C122.043 49.3545 122.049 49.2415 122.092 49.1434C122.136 49.0453 122.214 48.9701 122.309 48.9344C122.403 48.8986 122.507 48.9052 122.597 48.9527C122.687 49.0002 122.757 49.0848 122.789 49.1877C122.822 49.2907 122.816 49.4036 122.773 49.5017Z" fill="#AD6359"/>
<path d="M119.192 50.2182C119.171 50.2667 119.141 50.3101 119.104 50.3459C119.068 50.3818 119.025 50.4094 118.979 50.4271C118.932 50.4448 118.883 50.4524 118.834 50.4493C118.785 50.4461 118.737 50.4324 118.692 50.4089C118.644 50.3857 118.601 50.3518 118.566 50.3093C118.53 50.2668 118.503 50.2168 118.487 50.1623C118.47 50.1079 118.464 50.0503 118.47 49.9932C118.475 49.9361 118.491 49.8809 118.517 49.8311C118.538 49.7826 118.568 49.7392 118.604 49.7034C118.641 49.6675 118.684 49.6399 118.73 49.6222C118.777 49.6045 118.826 49.5969 118.875 49.6001C118.924 49.6032 118.972 49.6169 119.016 49.6404C119.064 49.6643 119.107 49.6986 119.142 49.7411C119.177 49.7837 119.203 49.8336 119.22 49.8879C119.236 49.9421 119.242 49.9993 119.237 50.0562C119.232 50.113 119.217 50.1682 119.192 50.2182Z" fill="#AD6359"/>
<path d="M118.799 53.0037C118.754 53.1008 118.677 53.1752 118.582 53.2108C118.488 53.2464 118.385 53.2405 118.294 53.1944C118.229 53.1586 118.175 53.1027 118.139 53.0337C118.103 52.9647 118.086 52.8857 118.091 52.8064C118.096 52.7271 118.122 52.6511 118.166 52.588C118.21 52.5248 118.271 52.4772 118.34 52.4511C118.409 52.425 118.483 52.4216 118.554 52.4414C118.625 52.4611 118.689 52.503 118.738 52.562C118.787 52.6209 118.819 52.6942 118.829 52.7728C118.84 52.8513 118.83 52.9317 118.799 53.0037Z" fill="#AD6359"/>
<path d="M121.854 52.5182C121.822 52.5911 121.77 52.6519 121.705 52.6929C121.641 52.7338 121.567 52.7531 121.493 52.7483C121.418 52.7435 121.347 52.7149 121.287 52.6659C121.228 52.617 121.183 52.55 121.159 52.4734C121.134 52.3968 121.131 52.314 121.15 52.2355C121.169 52.157 121.208 52.0864 121.264 52.0324C121.32 51.9785 121.389 51.9437 121.463 51.9324C121.536 51.9212 121.612 51.934 121.679 51.9692C121.768 52.0177 121.836 52.1023 121.869 52.2049C121.902 52.3075 121.897 52.4199 121.854 52.5182Z" fill="#AD6359"/>
<path d="M102.785 50.7846C101.323 50.3015 100.014 49.3815 99.0083 48.1293C98.0026 46.8771 97.3402 45.3431 97.0966 43.7016C96.8529 42.0602 97.0378 40.3774 97.6301 38.8446C98.2224 37.3118 99.1983 35.9906 100.447 35.0314C101.696 34.0721 103.167 33.5133 104.693 33.4185C106.219 33.3237 107.739 33.6968 109.08 34.4952C110.421 35.2937 111.529 36.4855 112.277 37.935C113.026 39.3845 113.386 41.0335 113.316 42.6944C113.214 45.04 112.262 47.2463 110.67 48.8314C109.077 50.4166 106.972 51.2517 104.815 51.1545C104.127 51.1235 103.445 50.9993 102.785 50.7846ZM107.216 34.9278C106.654 34.7401 106.072 34.6314 105.484 34.6042C103.687 34.5151 101.926 35.1746 100.56 36.4483C99.1938 37.7221 98.3255 39.5143 98.1319 41.4599C97.9383 43.4056 98.4338 45.3584 99.5176 46.9205C100.601 48.4827 102.192 49.5368 103.965 49.8681C105.739 50.1995 107.561 49.7831 109.062 48.7039C110.563 47.6246 111.63 45.9636 112.044 44.0592C112.458 42.1548 112.19 40.1502 111.293 38.4536C110.396 36.7571 108.938 35.4962 107.216 34.9278Z" fill="#455A64"/>
<path d="M120.568 54.0612C117.577 53.0731 115.787 48.8604 116.552 44.2894C116.878 42.1026 117.825 40.0818 119.261 38.5107C119.857 37.821 120.597 37.298 121.418 36.9861C122.24 36.6742 123.118 36.5827 123.979 36.7193C125.616 37.0371 126.976 38.2737 127.826 40.1865C128.668 42.2014 128.908 44.453 128.511 46.624C127.714 51.4435 124.383 54.8414 121.073 54.1941C120.902 54.1614 120.734 54.117 120.568 54.0612ZM124.186 37.9964C124.056 37.9502 123.923 37.9154 123.788 37.8923C123.097 37.7901 122.393 37.8707 121.736 38.1272C121.079 38.3837 120.489 38.8086 120.016 39.3659C118.747 40.7641 117.911 42.558 117.625 44.4974C116.934 48.6755 118.565 52.501 121.28 53.0326C123.995 53.5643 126.747 50.594 127.438 46.4217C127.795 44.4959 127.586 42.4969 126.843 40.7066C126.599 40.0782 126.236 39.5125 125.778 39.0457C125.321 38.5789 124.779 38.2215 124.186 37.9964Z" fill="#455A64"/>
<path d="M112.96 43.6652L112.503 42.7926C113.682 42.0587 116.27 41.2612 117.603 43.5091L116.833 44.0523C115.654 42.0356 113.066 43.5958 112.96 43.6652Z" fill="#455A64"/>
<path d="M79.9505 39.1693L79.2227 38.5915C79.483 38.2216 81.8367 34.9798 83.9194 35.0144C85.8639 35.0607 97.797 38.6724 98.3017 38.8284L98.0573 39.7877C94.6357 38.7475 85.407 36.043 83.9034 36.0199C82.5274 35.9621 80.5881 38.2794 79.9505 39.1693Z" fill="#455A64"/>
<path d="M89.03 40.1632C89.03 40.1632 85.4171 31.316 81.8202 32.57C78.2233 33.824 79.966 45.9131 83.5044 48.265C83.9385 48.6012 84.4306 48.8385 84.9512 48.9626C85.4718 49.0867 86.01 49.095 86.5336 48.987C87.0572 48.879 87.5553 48.6571 87.998 48.3344C88.4407 48.0117 88.8188 47.595 89.1097 47.1093L89.03 40.1632Z" fill="#AD6359"/>
<path d="M82.399 36.0256C82.3352 36.0256 82.3087 36.095 82.3565 36.1296C84.8217 37.8633 85.7462 40.8682 86.235 43.8789C85.6293 42.6307 84.6411 41.8101 83.1428 42.5614C83.0631 42.6018 83.1109 42.7347 83.1853 42.7347C83.6849 42.6707 84.1904 42.7769 84.632 43.0388C85.0736 43.3007 85.4295 43.7054 85.6506 44.1968C86.0177 45.0198 86.3009 45.884 86.4953 46.7741C86.575 47.0572 87.0266 47.011 86.9948 46.6932C86.9973 46.6682 86.9973 46.643 86.9948 46.618C87.7173 42.9254 85.9906 37.1698 82.399 36.0256Z" fill="#263238"/>
<path d="M186.886 149.63H122.773V152.756H186.886V149.63Z" fill="#455A64"/>
<path d="M155.039 149.63H122.773V152.756H155.039V149.63Z" fill="#A6A6A6"/>
<path d="M154.29 152.75H216.771L225.601 106.595H163.12L154.29 152.75Z" fill="#C7C7C7"/>
<path d="M185.1 130.704C185.031 131.276 185.075 131.857 185.231 132.409C185.387 132.96 185.651 133.468 186.004 133.898C186.357 134.328 186.791 134.67 187.277 134.901C187.763 135.132 188.289 135.246 188.819 135.235C189.959 135.208 191.052 134.735 191.897 133.903C192.742 133.071 193.283 131.935 193.421 130.704C193.49 130.133 193.446 129.551 193.29 129C193.134 128.449 192.87 127.941 192.517 127.511C192.164 127.08 191.729 126.738 191.244 126.508C190.758 126.277 190.232 126.163 189.701 126.174C188.562 126.202 187.47 126.675 186.625 127.507C185.78 128.339 185.239 129.474 185.1 130.704Z" fill="white"/>
<path d="M62.7253 145.365H9.36133V152.236H62.7253V145.365Z" fill="#37474F"/>
<path d="M22.0065 145.365H19.8281V152.236H22.0065V145.365Z" fill="#455A64"/>
<path d="M56.4464 145.365H51.2344V152.236H56.4464V145.365Z" fill="#455A64"/>
<path d="M32.0808 147.191L30.8057 148.994C30.7934 149.014 30.7767 149.03 30.7573 149.041C30.7378 149.052 30.7161 149.058 30.6941 149.058C30.6712 149.06 30.6482 149.055 30.6276 149.043C30.607 149.032 30.5896 149.015 30.5772 148.994L29.3021 147.197V150.531C29.3014 150.55 29.2973 150.569 29.29 150.586C29.2827 150.603 29.2723 150.619 29.2595 150.632C29.2466 150.645 29.2316 150.655 29.2152 150.661C29.1988 150.668 29.1814 150.671 29.164 150.67C29.1282 150.672 29.0932 150.658 29.0665 150.632C29.0397 150.606 29.0232 150.57 29.0205 150.531V146.769C29.0215 146.747 29.0273 146.726 29.0375 146.707C29.0477 146.688 29.0619 146.671 29.079 146.66C29.1102 146.639 29.1471 146.631 29.1831 146.638C29.2191 146.644 29.2518 146.664 29.2755 146.694L30.6941 148.699L32.1021 146.694C32.1258 146.664 32.1585 146.644 32.1945 146.638C32.2305 146.631 32.2674 146.639 32.2986 146.66L32.3358 146.706C32.3401 146.731 32.3401 146.756 32.3358 146.781V150.543C32.3351 150.562 32.331 150.58 32.3237 150.598C32.3164 150.615 32.306 150.63 32.2932 150.643C32.2804 150.656 32.2653 150.666 32.2489 150.673C32.2326 150.679 32.2151 150.682 32.1977 150.682C32.1802 150.682 32.1628 150.679 32.1464 150.673C32.1301 150.666 32.115 150.656 32.1022 150.643C32.0894 150.63 32.079 150.615 32.0717 150.598C32.0644 150.58 32.0602 150.562 32.0596 150.543L32.0808 147.191Z" fill="white"/>
<path d="M35.6192 149.618H33.8022L33.4515 150.577C33.4407 150.606 33.4222 150.63 33.3984 150.646C33.3747 150.663 33.3469 150.671 33.3187 150.67H33.2709C33.254 150.664 33.2385 150.655 33.2252 150.642C33.2119 150.629 33.2012 150.614 33.1937 150.597C33.1862 150.579 33.1821 150.56 33.1817 150.541C33.1812 150.522 33.1845 150.503 33.1912 150.485L34.5726 146.717C34.5861 146.69 34.6062 146.668 34.6305 146.653C34.6549 146.638 34.6826 146.63 34.7107 146.631C34.7383 146.629 34.7657 146.636 34.7893 146.652C34.813 146.667 34.8319 146.69 34.8435 146.717L36.2302 150.485C36.2425 150.52 36.2415 150.559 36.2276 150.594C36.2137 150.629 36.188 150.656 36.1558 150.67H36.1027C36.0748 150.67 36.0476 150.661 36.0241 150.644C36.0006 150.628 35.9818 150.605 35.9699 150.577L35.6192 149.618ZM33.9031 149.335H35.497L34.6948 147.151L33.9031 149.335Z" fill="white"/>
<path d="M37.5534 146.885H36.3526C36.3333 146.889 36.3134 146.889 36.2943 146.884C36.2752 146.878 36.2574 146.869 36.2421 146.855C36.2269 146.842 36.2146 146.825 36.2062 146.805C36.1977 146.786 36.1934 146.765 36.1934 146.743C36.1934 146.722 36.1977 146.701 36.2062 146.681C36.2146 146.662 36.2269 146.645 36.2421 146.631C36.2574 146.618 36.2752 146.608 36.2943 146.603C36.3134 146.598 36.3333 146.598 36.3526 146.602H39.0091C39.0284 146.598 39.0483 146.598 39.0674 146.603C39.0866 146.608 39.1044 146.618 39.1196 146.631C39.1349 146.645 39.1471 146.662 39.1556 146.681C39.164 146.701 39.1684 146.722 39.1684 146.743C39.1684 146.765 39.164 146.786 39.1556 146.805C39.1471 146.825 39.1349 146.842 39.1196 146.855C39.1044 146.869 39.0866 146.878 39.0674 146.884C39.0483 146.889 39.0284 146.889 39.0091 146.885H37.8084V150.526C37.8084 150.565 37.7938 150.604 37.7679 150.632C37.742 150.66 37.7069 150.676 37.6702 150.676C37.6336 150.676 37.5985 150.66 37.5726 150.632C37.5467 150.604 37.5321 150.565 37.5321 150.526L37.5534 146.885Z" fill="white"/>
<path d="M42.5576 148.78H40.5121V150.514C40.5093 150.553 40.4929 150.589 40.4661 150.615C40.4393 150.641 40.4044 150.654 40.3686 150.653C40.3512 150.653 40.3337 150.65 40.3174 150.644C40.301 150.637 40.2859 150.627 40.2731 150.614C40.2603 150.602 40.2499 150.586 40.2426 150.569C40.2353 150.552 40.2312 150.533 40.2305 150.514V146.729C40.2312 146.71 40.2353 146.691 40.2426 146.674C40.2499 146.657 40.2603 146.641 40.2731 146.628C40.2859 146.616 40.301 146.606 40.3174 146.599C40.3337 146.592 40.3512 146.589 40.3686 146.59C40.4044 146.589 40.4393 146.602 40.4661 146.628C40.4929 146.654 40.5093 146.69 40.5121 146.729V148.463H42.5576V146.729C42.5583 146.71 42.5624 146.691 42.5697 146.674C42.577 146.657 42.5874 146.641 42.6002 146.628C42.613 146.616 42.6281 146.606 42.6445 146.599C42.6608 146.592 42.6783 146.589 42.6957 146.59C42.7315 146.589 42.7664 146.602 42.7932 146.628C42.82 146.654 42.8364 146.69 42.8392 146.729V150.514C42.8364 150.553 42.82 150.589 42.7932 150.615C42.7664 150.641 42.7315 150.654 42.6957 150.653C42.6783 150.653 42.6608 150.65 42.6445 150.644C42.6281 150.637 42.613 150.627 42.6002 150.614C42.5874 150.602 42.577 150.586 42.5697 150.569C42.5624 150.552 42.5583 150.533 42.5576 150.514V148.78Z" fill="white"/>
<path d="M58.4538 108.41H5.08984V117.263H58.4538V108.41Z" fill="#8D6DC7"/>
<path d="M30.906 114.212C30.9297 114.188 30.9611 114.174 30.9937 114.174C31.0263 114.174 31.0577 114.188 31.0813 114.212C31.4563 114.53 31.9134 114.712 32.3883 114.732C32.6984 114.74 33.0036 114.648 33.265 114.466C33.3607 114.407 33.4416 114.324 33.5009 114.223C33.5602 114.122 33.5959 114.008 33.605 113.888C33.6059 113.769 33.576 113.651 33.5188 113.549C33.4615 113.447 33.3791 113.364 33.2809 113.31C32.9953 113.141 32.6839 113.03 32.3618 112.981C32.0312 112.934 31.7119 112.818 31.4214 112.64C31.3018 112.571 31.201 112.469 31.1292 112.344C31.0574 112.22 31.017 112.076 31.0123 111.929C31.0185 111.776 31.0596 111.626 31.1319 111.494C31.2042 111.362 31.3055 111.251 31.4267 111.172C31.7116 110.968 32.0471 110.863 32.3883 110.872C32.8312 110.896 33.2579 111.061 33.6156 111.346C33.6292 111.355 33.6409 111.366 33.6501 111.38C33.6594 111.394 33.6659 111.41 33.6694 111.427C33.6729 111.443 33.6732 111.461 33.6704 111.478C33.6675 111.494 33.6616 111.511 33.6528 111.525C33.6337 111.553 33.6056 111.572 33.5741 111.578C33.5426 111.585 33.51 111.578 33.4828 111.56C33.1633 111.306 32.7833 111.157 32.3883 111.132C32.1015 111.126 31.8192 111.21 31.5754 111.375C31.4822 111.434 31.4044 111.518 31.3495 111.619C31.2946 111.72 31.2645 111.835 31.262 111.952C31.2657 112.057 31.2953 112.158 31.3477 112.246C31.4001 112.333 31.4733 112.404 31.5595 112.449C31.8228 112.608 32.1111 112.712 32.4096 112.756C32.7665 112.807 33.111 112.933 33.4244 113.126C33.5541 113.199 33.6633 113.31 33.7408 113.445C33.8183 113.58 33.8613 113.735 33.8654 113.894C33.8565 114.059 33.8107 114.219 33.7319 114.36C33.6532 114.501 33.544 114.619 33.4138 114.703C33.11 114.922 32.7524 115.034 32.3883 115.027C31.8565 115.003 31.3445 114.801 30.9219 114.449C30.8966 114.445 30.8731 114.432 30.8555 114.412C30.838 114.392 30.8274 114.365 30.8255 114.337C30.8236 114.31 30.8306 114.282 30.8453 114.259C30.8599 114.236 30.8814 114.22 30.906 114.212Z" fill="white"/>
<path d="M36.777 110.849C37.2387 110.847 37.6891 111.005 38.0627 111.3C38.0762 111.312 38.087 111.328 38.0944 111.345C38.1018 111.362 38.1056 111.381 38.1056 111.401C38.1056 111.42 38.1018 111.439 38.0944 111.456C38.087 111.474 38.0762 111.489 38.0627 111.502C38.0406 111.533 38.0083 111.553 37.9725 111.559C37.9368 111.564 37.9005 111.554 37.8715 111.531C37.5469 111.275 37.1564 111.138 36.7557 111.138C36.5305 111.118 36.3039 111.149 36.0902 111.229C35.8766 111.309 35.6805 111.437 35.5144 111.604C35.3483 111.77 35.2157 111.973 35.1251 112.198C35.0344 112.423 34.9876 112.666 34.9876 112.912C34.9876 113.158 35.0344 113.401 35.1251 113.626C35.2157 113.851 35.3483 114.053 35.5144 114.22C35.6805 114.387 35.8766 114.514 36.0902 114.594C36.3039 114.674 36.5305 114.706 36.7557 114.686C37.1542 114.693 37.5433 114.555 37.8608 114.293C37.8757 114.281 37.8927 114.272 37.9107 114.267C37.9288 114.262 37.9476 114.261 37.9659 114.265C37.9843 114.268 38.0018 114.275 38.0176 114.286C38.0333 114.297 38.0468 114.311 38.0574 114.328C38.0717 114.339 38.0833 114.355 38.0913 114.372C38.0993 114.39 38.1035 114.409 38.1035 114.429C38.1035 114.448 38.0993 114.468 38.0913 114.485C38.0833 114.503 38.0717 114.518 38.0574 114.53C37.6833 114.823 37.2329 114.979 36.7717 114.975C36.5106 114.996 36.2484 114.959 36.0013 114.864C35.7543 114.77 35.5277 114.622 35.3358 114.428C35.144 114.235 34.9909 114 34.8862 113.739C34.7816 113.478 34.7275 113.196 34.7275 112.912C34.7275 112.627 34.7816 112.345 34.8862 112.085C34.9909 111.824 35.144 111.589 35.3358 111.395C35.5277 111.202 35.7543 111.053 36.0013 110.959C36.2484 110.865 36.5106 110.828 36.7717 110.849H36.777Z" fill="white"/>
<path d="M39.3057 111.057C39.307 111.018 39.3222 110.981 39.348 110.954C39.3737 110.927 39.4081 110.912 39.4438 110.912C39.4619 110.911 39.4801 110.915 39.4971 110.921C39.5141 110.928 39.5297 110.939 39.5431 110.952C39.5564 110.966 39.5671 110.982 39.5747 111C39.5823 111.018 39.5866 111.037 39.5873 111.057V114.842C39.5845 114.881 39.568 114.917 39.5413 114.943C39.5145 114.969 39.4796 114.982 39.4438 114.98C39.4264 114.981 39.4089 114.978 39.3926 114.972C39.3762 114.965 39.3611 114.955 39.3483 114.942C39.3355 114.929 39.3251 114.914 39.3178 114.897C39.3105 114.879 39.3063 114.861 39.3057 114.842V111.057Z" fill="white"/>
<path d="M41.0009 111.057C41.0022 111.018 41.0174 110.981 41.0432 110.954C41.0689 110.927 41.1033 110.912 41.139 110.912H43.1898C43.2251 110.912 43.2588 110.928 43.2837 110.955C43.3087 110.982 43.3226 111.019 43.3226 111.057C43.3226 111.095 43.3087 111.132 43.2837 111.159C43.2588 111.186 43.2251 111.201 43.1898 111.201H41.2718V112.79H42.9401C42.9594 112.786 42.9793 112.787 42.9984 112.792C43.0175 112.797 43.0354 112.807 43.0506 112.82C43.0658 112.834 43.0781 112.851 43.0866 112.87C43.095 112.889 43.0994 112.911 43.0994 112.932C43.0994 112.953 43.095 112.975 43.0866 112.994C43.0781 113.013 43.0658 113.03 43.0506 113.044C43.0354 113.057 43.0175 113.067 42.9984 113.072C42.9793 113.077 42.9594 113.078 42.9401 113.074H41.2718V114.674H43.1792C43.1973 114.673 43.2154 114.677 43.2322 114.684C43.2491 114.691 43.2643 114.703 43.2769 114.717C43.2895 114.731 43.2991 114.748 43.3052 114.767C43.3112 114.785 43.3136 114.805 43.312 114.825C43.312 114.843 43.3086 114.862 43.3018 114.879C43.2951 114.896 43.2852 114.912 43.2728 114.925C43.2604 114.938 43.2457 114.948 43.2296 114.954C43.2135 114.961 43.1964 114.964 43.1792 114.963H41.1177C41.0843 114.962 41.0527 114.947 41.029 114.921C41.0054 114.895 40.9915 114.861 40.9902 114.825L41.0009 111.057Z" fill="white"/>
<path d="M44.6667 111.508V114.836C44.6667 114.876 44.6522 114.914 44.6263 114.942C44.6004 114.971 44.5652 114.986 44.5286 114.986C44.492 114.986 44.4568 114.971 44.4309 114.942C44.405 114.914 44.3905 114.876 44.3905 114.836V111.109C44.3822 111.079 44.3829 111.048 44.3925 111.019C44.4021 110.989 44.42 110.964 44.4436 110.947C44.4737 110.926 44.51 110.918 44.5454 110.924C44.5808 110.93 44.6127 110.951 44.6349 110.982L47.0523 114.397V111.092C47.0536 111.054 47.068 111.018 47.0926 110.991C47.1173 110.964 47.1503 110.949 47.1851 110.947C47.2214 110.947 47.2563 110.962 47.283 110.989C47.3096 111.015 47.3259 111.052 47.3286 111.092V114.836C47.3258 114.875 47.3094 114.911 47.2826 114.937C47.2558 114.963 47.2209 114.977 47.1851 114.975C47.1649 114.976 47.1449 114.971 47.1265 114.962C47.108 114.953 47.0918 114.94 47.0788 114.923L44.6667 111.508Z" fill="white"/>
<path d="M50.6549 110.849C51.1183 110.847 51.5703 111.004 51.946 111.3C51.9587 111.313 51.9688 111.328 51.9757 111.346C51.9827 111.363 51.9862 111.382 51.9862 111.401C51.9862 111.42 51.9827 111.438 51.9757 111.456C51.9688 111.473 51.9587 111.489 51.946 111.502C51.9239 111.533 51.8915 111.553 51.8557 111.559C51.82 111.564 51.7837 111.554 51.7547 111.531C51.4285 111.274 51.0361 111.137 50.6337 111.138C50.4084 111.118 50.1818 111.149 49.9682 111.229C49.7545 111.309 49.5585 111.437 49.3923 111.604C49.2262 111.77 49.0936 111.973 49.003 112.198C48.9123 112.423 48.8655 112.666 48.8655 112.912C48.8655 113.158 48.9123 113.401 49.003 113.626C49.0936 113.851 49.2262 114.053 49.3923 114.22C49.5585 114.387 49.7545 114.514 49.9682 114.594C50.1818 114.674 50.4084 114.706 50.6337 114.686C51.0323 114.695 51.422 114.556 51.7388 114.293C51.7701 114.27 51.8085 114.26 51.846 114.267C51.8836 114.273 51.9174 114.295 51.9407 114.328C51.9541 114.34 51.9649 114.356 51.9723 114.373C51.9797 114.39 51.9836 114.409 51.9836 114.429C51.9836 114.448 51.9797 114.467 51.9723 114.484C51.9649 114.502 51.9541 114.517 51.9407 114.53C51.5645 114.823 51.1124 114.979 50.6496 114.975C50.3886 114.996 50.1263 114.959 49.8793 114.864C49.6322 114.77 49.4056 114.622 49.2138 114.428C49.0219 114.235 48.8688 114 48.7642 113.739C48.6595 113.478 48.6055 113.196 48.6055 112.912C48.6055 112.627 48.6595 112.345 48.7642 112.085C48.8688 111.824 49.0219 111.589 49.2138 111.395C49.4056 111.202 49.6322 111.053 49.8793 110.959C50.1263 110.865 50.3886 110.828 50.6496 110.849H50.6549Z" fill="white"/>
<path d="M53.1464 111.057C53.1477 111.018 53.1629 110.981 53.1887 110.954C53.2144 110.927 53.2488 110.912 53.2845 110.912H55.3353C55.3706 110.912 55.4043 110.928 55.4293 110.955C55.4542 110.982 55.4682 111.019 55.4682 111.057C55.4682 111.095 55.4542 111.132 55.4293 111.159C55.4043 111.186 55.3706 111.201 55.3353 111.201H53.428V112.79H55.0856C55.1049 112.786 55.1248 112.787 55.1439 112.792C55.1631 112.797 55.1809 112.807 55.1961 112.82C55.2114 112.834 55.2236 112.851 55.2321 112.87C55.2405 112.889 55.2449 112.911 55.2449 112.932C55.2449 112.953 55.2405 112.975 55.2321 112.994C55.2236 113.013 55.2114 113.03 55.1961 113.044C55.1809 113.057 55.1631 113.067 55.1439 113.072C55.1248 113.077 55.1049 113.078 55.0856 113.074H53.4173V114.674H55.3247C55.3428 114.673 55.3609 114.677 55.3778 114.684C55.3946 114.691 55.4098 114.703 55.4224 114.717C55.435 114.731 55.4446 114.748 55.4507 114.767C55.4567 114.785 55.4591 114.805 55.4575 114.825C55.4575 114.843 55.4541 114.862 55.4473 114.879C55.4406 114.896 55.4307 114.912 55.4183 114.925C55.4059 114.938 55.3912 114.948 55.3751 114.954C55.359 114.961 55.3419 114.964 55.3247 114.963H53.2633C53.2299 114.962 53.1982 114.947 53.1745 114.921C53.1509 114.895 53.1371 114.861 53.1357 114.825L53.1464 111.057Z" fill="white"/>
<path d="M22.9901 108.41H9.58008V117.263H22.9901V108.41Z" fill="#455A64"/>
<path d="M20.4715 109.641H12.1035V111.196H20.4715V109.641Z" fill="#8D6DC7"/>
<path d="M20.4715 112.057H12.1035V113.611H20.4715V112.057Z" fill="#8D6DC7"/>
<path d="M20.4715 114.466H12.1035V116.021H20.4715V114.466Z" fill="#8D6DC7"/>
<path d="M61.6264 117.257H7.12012V126.336H61.6264V117.257Z" fill="#37474F"/>
<path d="M51.9829 120.205H38.8916V123.394H51.9829V120.205Z" fill="#8D6DC7"/>
<path d="M58.5494 121.799C58.5772 122.177 58.4996 122.555 58.3267 122.884C58.1538 123.213 57.8937 123.478 57.5803 123.644C57.267 123.81 56.9149 123.869 56.5702 123.813C56.2255 123.758 55.9041 123.591 55.6481 123.334C55.392 123.077 55.2132 122.742 55.135 122.372C55.0568 122.003 55.0828 121.617 55.2097 121.264C55.3366 120.911 55.5584 120.608 55.8461 120.394C56.1339 120.18 56.4742 120.066 56.8227 120.066C57.2618 120.052 57.6886 120.225 58.0114 120.549C58.3342 120.873 58.5273 121.322 58.5494 121.799Z" fill="#8D6DC7"/>
<path d="M12.2041 119.725C12.2048 119.706 12.2089 119.687 12.2162 119.67C12.2235 119.653 12.2339 119.637 12.2467 119.624C12.2596 119.611 12.2746 119.601 12.291 119.595C12.3074 119.588 12.3248 119.585 12.3422 119.586H14.3878C14.407 119.582 14.427 119.582 14.4461 119.587C14.4652 119.593 14.483 119.602 14.4982 119.616C14.5135 119.629 14.5258 119.646 14.5342 119.666C14.5426 119.685 14.547 119.706 14.547 119.728C14.547 119.749 14.5426 119.77 14.5342 119.79C14.5258 119.809 14.5135 119.826 14.4982 119.84C14.483 119.853 14.4652 119.863 14.4461 119.868C14.427 119.873 14.407 119.874 14.3878 119.869H12.4857V121.482H14.1752C14.1945 121.477 14.2144 121.478 14.2336 121.483C14.2527 121.488 14.2705 121.498 14.2857 121.511C14.301 121.525 14.3132 121.542 14.3217 121.561C14.3301 121.581 14.3345 121.602 14.3345 121.623C14.3345 121.645 14.3301 121.666 14.3217 121.685C14.3132 121.704 14.301 121.721 14.2857 121.735C14.2705 121.749 14.2527 121.758 14.2336 121.763C14.2144 121.769 14.1945 121.769 14.1752 121.765H12.4857V123.365H14.3878C14.407 123.361 14.427 123.362 14.4461 123.367C14.4652 123.372 14.483 123.382 14.4982 123.395C14.5135 123.409 14.5258 123.426 14.5342 123.445C14.5426 123.464 14.547 123.486 14.547 123.507C14.547 123.528 14.5426 123.55 14.5342 123.569C14.5258 123.588 14.5135 123.605 14.4982 123.619C14.483 123.632 14.4652 123.642 14.4461 123.647C14.427 123.652 14.407 123.653 14.3878 123.649H12.3316C12.2982 123.647 12.2665 123.632 12.2429 123.606C12.2193 123.581 12.2054 123.546 12.2041 123.51V119.725Z" fill="white"/>
<path d="M15.8704 120.204V123.527C15.8704 123.567 15.8559 123.605 15.83 123.633C15.8041 123.662 15.7689 123.677 15.7323 123.677C15.6957 123.677 15.6605 123.662 15.6346 123.633C15.6087 123.605 15.5942 123.567 15.5942 123.527V119.8C15.5854 119.771 15.5858 119.74 15.5955 119.712C15.6052 119.683 15.6234 119.659 15.6473 119.644C15.6774 119.623 15.7137 119.614 15.7491 119.621C15.7845 119.627 15.8164 119.648 15.8386 119.679L18.256 123.094V119.783C18.2574 119.745 18.272 119.71 18.2967 119.684C18.3215 119.658 18.3545 119.644 18.3888 119.644C18.4246 119.642 18.4595 119.656 18.4863 119.682C18.5131 119.708 18.5295 119.744 18.5323 119.783V123.527C18.5295 123.566 18.5131 123.602 18.4863 123.628C18.4595 123.654 18.4246 123.668 18.3888 123.666C18.3686 123.667 18.3486 123.662 18.3302 123.653C18.3117 123.644 18.2955 123.631 18.2825 123.614L15.8704 120.204Z" fill="white"/>
<path d="M21.5398 121.84C21.5222 121.842 21.5044 121.839 21.4877 121.833C21.471 121.827 21.4557 121.817 21.4427 121.804C21.4297 121.791 21.4193 121.775 21.4123 121.757C21.4052 121.74 21.4016 121.72 21.4016 121.701C21.4016 121.682 21.4052 121.663 21.4122 121.645C21.4192 121.627 21.4295 121.61 21.4424 121.597C21.4553 121.583 21.4706 121.573 21.4873 121.566C21.5041 121.559 21.5219 121.556 21.5398 121.557H22.7883C22.8222 121.56 22.8539 121.576 22.8775 121.603C22.901 121.629 22.9146 121.664 22.9159 121.701V123.117C22.9104 123.158 22.8915 123.195 22.8627 123.221C22.49 123.517 22.0386 123.674 21.577 123.666C21.3136 123.692 21.0481 123.659 20.7975 123.567C20.5468 123.475 20.3164 123.328 20.1211 123.134C19.9257 122.94 19.7697 122.704 19.6629 122.441C19.5561 122.178 19.501 121.894 19.501 121.606C19.501 121.318 19.5561 121.034 19.6629 120.771C19.7697 120.508 19.9257 120.271 20.1211 120.078C20.3164 119.884 20.5468 119.736 20.7975 119.645C21.0481 119.553 21.3136 119.519 21.577 119.546C22.0423 119.542 22.4958 119.704 22.868 120.008C22.8806 120.021 22.8906 120.036 22.8975 120.053C22.9044 120.07 22.9079 120.088 22.9079 120.106C22.9079 120.125 22.9044 120.143 22.8975 120.16C22.8906 120.177 22.8806 120.192 22.868 120.205C22.8409 120.231 22.8059 120.245 22.7697 120.245C22.7336 120.245 22.6986 120.231 22.6715 120.205C22.352 119.942 21.9615 119.802 21.561 119.806C21.3329 119.781 21.1026 119.809 20.885 119.887C20.6673 119.965 20.4671 120.092 20.2972 120.259C20.1273 120.427 19.9916 120.631 19.8987 120.859C19.8057 121.087 19.7577 121.333 19.7577 121.583C19.7577 121.832 19.8057 122.079 19.8987 122.307C19.9916 122.534 20.1273 122.739 20.2972 122.906C20.4671 123.073 20.6673 123.2 20.885 123.278C21.1026 123.357 21.3329 123.384 21.561 123.36C21.9393 123.363 22.3097 123.242 22.6236 123.013V121.817L21.5398 121.84Z" fill="white"/>
<path d="M24.1743 123.666C24.1568 123.667 24.1394 123.664 24.123 123.657C24.1066 123.651 24.0916 123.641 24.0788 123.628C24.0659 123.615 24.0556 123.6 24.0482 123.582C24.0409 123.565 24.0368 123.546 24.0361 123.527V119.725C24.0368 119.706 24.0409 119.687 24.0482 119.67C24.0556 119.653 24.0659 119.637 24.0788 119.624C24.0916 119.612 24.1066 119.602 24.123 119.595C24.1394 119.589 24.1568 119.586 24.1743 119.586C24.21 119.585 24.245 119.598 24.2718 119.624C24.2985 119.65 24.315 119.686 24.3177 119.725V123.366H26.2251C26.2444 123.361 26.2643 123.362 26.2834 123.367C26.3025 123.372 26.3203 123.382 26.3356 123.395C26.3508 123.409 26.3631 123.426 26.3715 123.445C26.38 123.465 26.3844 123.486 26.3844 123.507C26.3844 123.529 26.38 123.55 26.3715 123.569C26.3631 123.588 26.3508 123.605 26.3356 123.619C26.3203 123.633 26.3025 123.642 26.2834 123.647C26.2643 123.653 26.2444 123.653 26.2251 123.649L24.1743 123.666Z" fill="white"/>
<path d="M27.2988 119.725C27.3002 119.688 27.3148 119.652 27.3396 119.627C27.3643 119.601 27.3973 119.586 27.4317 119.586C27.4674 119.585 27.5024 119.598 27.5291 119.624C27.5559 119.65 27.5724 119.686 27.5751 119.725V123.51C27.5724 123.549 27.5559 123.585 27.5291 123.611C27.5024 123.637 27.4674 123.65 27.4317 123.649C27.3973 123.649 27.3643 123.634 27.3396 123.608C27.3148 123.583 27.3002 123.547 27.2988 123.51V119.725Z" fill="white"/>
<path d="M28.8128 122.909C28.8365 122.885 28.8679 122.871 28.9005 122.871C28.9331 122.871 28.9645 122.885 28.9881 122.909C29.3628 123.227 29.8201 123.409 30.2951 123.429C30.6049 123.435 30.9095 123.343 31.1718 123.163C31.2675 123.104 31.3485 123.021 31.4077 122.92C31.467 122.819 31.5027 122.704 31.5118 122.585C31.5133 122.466 31.4837 122.348 31.4264 122.246C31.369 122.143 31.2863 122.061 31.1877 122.007C30.9021 121.838 30.5907 121.727 30.2686 121.678C29.938 121.631 29.6187 121.515 29.3282 121.337C29.2093 121.267 29.1091 121.165 29.0374 121.04C28.9657 120.916 28.9249 120.773 28.9191 120.626C28.9258 120.472 28.967 120.322 29.0393 120.189C29.1115 120.056 29.2125 119.944 29.3335 119.863C29.6199 119.663 29.9548 119.561 30.2951 119.569C30.7375 119.591 31.1643 119.754 31.5225 120.037C31.5361 120.046 31.548 120.059 31.5573 120.073C31.5666 120.087 31.5732 120.104 31.5766 120.121C31.5801 120.138 31.5804 120.156 31.5774 120.173C31.5745 120.191 31.5685 120.207 31.5596 120.222C31.5405 120.25 31.5124 120.269 31.4809 120.275C31.4494 120.282 31.4168 120.275 31.3896 120.256C31.0705 120.001 30.6906 119.85 30.2951 119.823C30.0075 119.816 29.7244 119.903 29.4822 120.072C29.389 120.131 29.3112 120.215 29.2563 120.316C29.2014 120.417 29.1713 120.532 29.1688 120.649C29.1734 120.753 29.2035 120.853 29.2558 120.939C29.3081 121.026 29.3808 121.095 29.4663 121.141C29.7291 121.302 30.0175 121.408 30.3164 121.453C30.6733 121.504 31.0178 121.63 31.3312 121.822C31.4602 121.897 31.5688 122.008 31.6462 122.143C31.7236 122.278 31.767 122.432 31.7722 122.591C31.7633 122.756 31.7175 122.916 31.6387 123.057C31.56 123.198 31.4508 123.316 31.3206 123.4C31.0151 123.614 30.6583 123.724 30.2951 123.718C29.7633 123.694 29.2513 123.492 28.8288 123.14C28.8055 123.134 28.7847 123.121 28.7691 123.101C28.7536 123.081 28.7443 123.057 28.7425 123.031C28.7407 123.005 28.7466 122.979 28.7592 122.957C28.7719 122.935 28.7907 122.918 28.8128 122.909Z" fill="white"/>
<path d="M35.1142 121.776H33.0687V123.51C33.066 123.549 33.0495 123.585 33.0227 123.611C32.996 123.637 32.961 123.65 32.9252 123.649C32.9078 123.65 32.8904 123.647 32.874 123.64C32.8576 123.633 32.8426 123.623 32.8297 123.611C32.8169 123.598 32.8065 123.582 32.7992 123.565C32.7919 123.548 32.7878 123.529 32.7871 123.51V119.725C32.7878 119.706 32.7919 119.687 32.7992 119.67C32.8065 119.653 32.8169 119.637 32.8297 119.624C32.8426 119.612 32.8576 119.602 32.874 119.595C32.8904 119.589 32.9078 119.586 32.9252 119.586C32.961 119.585 32.996 119.598 33.0227 119.624C33.0495 119.65 33.066 119.686 33.0687 119.725V121.459H35.1142V119.725C35.1149 119.706 35.119 119.687 35.1263 119.67C35.1336 119.653 35.144 119.637 35.1568 119.624C35.1697 119.612 35.1847 119.602 35.2011 119.595C35.2175 119.589 35.2349 119.586 35.2524 119.586C35.2881 119.585 35.3231 119.598 35.3498 119.624C35.3766 119.65 35.3931 119.686 35.3958 119.725V123.51C35.3931 123.549 35.3766 123.585 35.3498 123.611C35.3231 123.637 35.2881 123.65 35.2524 123.649C35.2349 123.65 35.2175 123.647 35.2011 123.64C35.1847 123.633 35.1697 123.623 35.1568 123.611C35.144 123.598 35.1336 123.582 35.1263 123.565C35.119 123.548 35.1149 123.529 35.1142 123.51V121.776Z" fill="white"/>
<path d="M32.261 126.336H4.72363V134.351H32.261V126.336Z" fill="#263238"/>
<path d="M57.7154 126.336H32.2607V134.351H57.7154V126.336Z" fill="#263238"/>
<path d="M32.261 127.168H4.72363V133.519H32.261V127.168Z" fill="white"/>
<path d="M7.12012 128.474C10.0033 128.42 12.8865 128.393 15.7697 128.393L19.6854 128.364L28.3403 128.393C31.2253 128.393 29.371 128.439 32.256 128.485C29.371 128.532 31.2253 128.56 28.3403 128.578L19.6854 128.607L15.7697 128.566C12.8865 128.551 10.0033 128.52 7.12012 128.474Z" fill="#DBDBDB"/>
<path d="M7.12012 129.716C10.0033 129.678 12.8883 129.647 15.775 129.624L19.6907 129.595L28.3456 129.624C31.2306 129.624 29.3764 129.676 32.2613 129.716C29.3764 129.763 31.2306 129.797 28.3456 129.809L19.6907 129.838L15.7697 129.809C12.8865 129.797 10.0033 129.766 7.12012 129.716Z" fill="#DBDBDB"/>
<path d="M7.12012 130.965C10.0033 130.918 12.8883 130.888 15.775 130.872L19.6907 130.843L28.3456 130.872C31.2306 130.872 29.3764 130.918 32.2613 130.965C29.3764 131.011 31.2306 131.04 28.3456 131.057L19.6907 131.086L15.7697 131.057C12.8865 131.038 10.0033 131.007 7.12012 130.965Z" fill="#DBDBDB"/>
<path d="M7.12012 132.213C10.0033 132.167 12.8883 132.134 15.775 132.115H19.6907H28.3456C31.2306 132.115 29.3764 132.167 32.2613 132.213C29.3764 132.253 31.2306 132.288 28.3456 132.305H19.6907H15.775C12.8883 132.29 10.0033 132.259 7.12012 132.213Z" fill="#DBDBDB"/>
<path d="M41.4794 126.336H37.8984V134.351H41.4794V126.336Z" fill="#455A64"/>
<path d="M56.398 126.336H53.9912V134.351H56.398V126.336Z" fill="#455A64"/>
<path d="M25.6305 145.359H56.6426V134.345H25.6305V145.359Z" fill="#8D6DC7"/>
<path d="M2.08257 145.359H25.6299V134.345H2.08257V145.359Z" fill="#8D6DC7"/>
<path d="M25.6305 144.215H56.6426V135.489H25.6305V144.215Z" fill="white"/>
<path d="M54.6341 142.424C52.2149 142.466 49.7975 142.497 47.3818 142.516L40.1295 142.545L32.8773 142.516C30.4581 142.516 28.0407 142.485 25.625 142.424C28.0442 142.378 30.4616 142.347 32.8773 142.331L40.1295 142.302L47.3818 142.331C49.801 142.343 52.2184 142.374 54.6341 142.424Z" fill="#DBDBDB"/>
<path d="M54.6341 140.707C52.2149 140.754 49.7975 140.785 47.3818 140.8H40.1295H32.8773C30.4581 140.8 28.0407 140.769 25.625 140.707C28.0442 140.669 30.4616 140.638 32.8773 140.615H40.1295H47.3818C49.801 140.634 52.2184 140.665 54.6341 140.707Z" fill="#DBDBDB"/>
<path d="M54.6341 138.997C52.2149 139.043 49.7975 139.074 47.3818 139.089L40.1295 139.118L32.8773 139.089C30.4581 139.089 28.0407 139.058 25.625 138.997C28.0442 138.951 30.4616 138.92 32.8773 138.904L40.1295 138.875L47.3818 138.904C49.801 138.924 52.2184 138.954 54.6341 138.997Z" fill="#DBDBDB"/>
<path d="M54.6341 137.286C52.2149 137.333 49.7975 137.363 47.3818 137.379L40.1295 137.408L32.8773 137.379C30.4581 137.379 28.0407 137.348 25.625 137.286C28.0442 137.24 30.4616 137.209 32.8773 137.194L40.1295 137.165L47.3818 137.194C49.801 137.213 52.2184 137.244 54.6341 137.286Z" fill="#DBDBDB"/>
<path d="M10.2389 134.345H5.8291V145.359H10.2389V134.345Z" fill="#455A64"/>
</svg>
