<svg width="439" height="293" viewBox="0 0 439 293" fill="none" xmlns="http://www.w3.org/2000/svg">
<path d="M394.683 269.147H365.628V269.351H394.683V269.147Z" fill="#EBEBEB"/>
<path d="M290.569 271.374H282.946V271.578H290.569V271.374Z" fill="#EBEBEB"/>
<path d="M364.75 261.551H347.916V261.755H364.75V261.551Z" fill="#EBEBEB"/>
<path d="M83.9107 262.926H46.0215V263.13H83.9107V262.926Z" fill="#EBEBEB"/>
<path d="M97.2806 262.926H91.7275V263.13H97.2806V262.926Z" fill="#EBEBEB"/>
<path d="M197.516 266.38H115.334V266.584H197.516V266.38Z" fill="#EBEBEB"/>
<path d="M438.634 255.978H0V256.182H438.634V255.978Z" fill="#EBEBEB"/>
<path d="M81.3667 172.318C82.3703 176.786 85.203 180.713 89.2621 183.262C93.3115 185.773 97.985 187.269 102.833 187.608C107.527 188.017 112.571 187.518 116.317 184.85C120.063 182.181 121.896 176.886 119.335 173.194C115.712 167.972 107.93 167.53 101.281 167.98C94.631 168.431 87.6392 170.239 81.3667 172.318Z" fill="#E0E0E0"/>
<path d="M141.048 139.897C144.862 142.756 147.33 146.891 147.925 151.422C148.491 155.93 147.799 160.497 145.916 164.682C144.162 168.774 141.416 172.736 137.144 174.643C132.871 176.55 127.002 175.674 124.643 171.868C121.3 166.491 124.415 159.812 127.845 154.483C131.275 149.155 136.214 144.17 141.048 139.897Z" fill="#E0E0E0"/>
<path d="M68.3218 144.334C68.3451 148.695 70.1891 152.876 73.4626 155.989C76.7385 159.058 80.8044 161.291 85.2706 162.472C89.578 163.7 94.4029 164.109 98.4296 162.3C102.456 160.491 105.281 155.842 103.693 151.938C101.368 146.405 94.1661 144.571 87.8585 143.827C81.551 143.082 74.6206 143.516 68.3218 144.334Z" fill="#E0E0E0"/>
<path d="M130.809 124.625C133.793 127.982 135.256 132.292 134.889 136.64C134.487 140.955 132.904 145.1 130.292 148.68C127.827 152.2 124.423 155.417 120.063 156.448C115.703 157.479 110.36 155.629 108.93 151.619C106.904 145.987 111.185 140.291 115.492 135.92C119.8 131.549 125.449 127.759 130.809 124.625Z" fill="#E0E0E0"/>
<path d="M59.935 116.243C59.584 120.39 60.9815 124.501 63.8301 127.702C66.6764 130.861 70.3474 133.283 74.4889 134.733C78.4717 136.214 83.0247 136.975 87.025 135.551C91.0253 134.127 94.0431 129.928 92.8588 126.089C91.1043 120.671 84.4371 118.428 78.5155 117.225C72.594 116.022 65.9881 115.932 59.935 116.243Z" fill="#E0E0E0"/>
<path d="M120.949 102.181C123.497 105.59 124.517 109.793 123.791 113.894C123.053 117.958 121.208 121.778 118.431 124.985C115.799 128.144 112.29 130.951 108.062 131.606C103.833 132.261 98.9207 130.076 97.9031 126.196C96.4556 120.704 101.009 115.605 105.465 111.782C110.153 107.963 115.359 104.735 120.949 102.181Z" fill="#E0E0E0"/>
<path d="M58.2503 89.7808C57.3847 93.645 58.1718 97.6719 60.4435 101.002C62.7241 104.302 65.8747 106.999 69.5934 108.835C73.1551 110.677 77.3485 111.905 81.3049 111.004C85.2614 110.104 88.6827 106.495 88.0248 102.738C87.0861 97.4337 81.0768 94.5526 75.6466 92.7683C70.0129 91.0664 64.1642 90.062 58.2503 89.7808Z" fill="#E0E0E0"/>
<path d="M117.554 83.3555C119.513 86.8561 119.935 90.9306 118.73 94.7163C117.525 98.4645 115.308 101.861 112.291 104.579C109.396 107.264 105.729 109.49 101.658 109.654C97.5877 109.818 93.2365 107.198 92.7715 103.409C92.1224 98.0721 97.0701 93.7832 101.764 90.6729C106.663 87.603 111.972 85.1431 117.554 83.3555Z" fill="#E0E0E0"/>
<path d="M62.8302 60.5684C61.4289 64.0756 61.5485 67.9544 63.1635 71.3808C64.7925 74.777 67.3338 77.7232 70.5413 79.9341C73.603 82.1359 77.3402 83.8465 81.1914 83.5273C85.0426 83.2081 88.7885 80.2533 88.7446 76.6765C88.6832 71.5772 83.481 68.0904 78.6648 65.684C73.6482 63.342 68.3248 61.6222 62.8302 60.5684Z" fill="#E0E0E0"/>
<path d="M119.422 62.4839C120.727 66.0247 120.501 69.9007 118.791 73.2881C117.065 76.6428 114.443 79.5264 111.176 81.6614C108.062 83.7895 104.281 85.4101 100.438 85.0008C96.596 84.5916 92.929 81.5795 93.0693 77.9781C93.2711 72.8788 98.5698 69.5148 103.447 67.2312C108.527 65.0034 113.898 63.4073 119.422 62.4839Z" fill="#E0E0E0"/>
<path d="M72.0943 33.8359C70.3028 36.9541 69.8873 40.6018 70.9363 44.0017C71.9985 47.3754 73.9744 50.4368 76.6737 52.8906C79.2353 55.3461 82.4987 57.3678 86.1482 57.5234C89.7976 57.6789 93.7102 55.3953 94.1664 52.0149C94.798 47.2348 90.4117 43.3469 86.271 40.5558C81.8834 37.7428 77.1166 35.4833 72.0943 33.8359Z" fill="#E0E0E0"/>
<path d="M124.835 42.373C125.571 45.8456 124.825 49.4489 122.756 52.4161C120.685 55.3536 117.835 57.7417 114.484 59.3488C111.273 60.9858 107.465 62.0416 103.956 61.1986C100.447 60.3555 97.3856 57.1061 98.0173 53.7338C98.8945 48.9947 104.325 46.4737 109.202 44.9104C114.272 43.4297 119.528 42.5767 124.835 42.373Z" fill="#E0E0E0"/>
<path d="M106.001 21.0265C105.785 20.6898 105.437 20.445 105.03 20.3441C104.624 20.2432 104.192 20.2942 103.825 20.4863C100.052 22.2969 96.9432 25.1151 94.8944 28.5813C93.4662 30.9836 93.0382 33.7932 93.6925 36.4716C95.1049 41.9229 102.86 43.6499 106.659 39.2955C109.589 35.9314 110.027 31.2742 109.378 27.0179C109.018 24.7098 107.281 23.0073 106.001 21.0265Z" fill="#E0E0E0"/>
<path d="M187.472 204.306C167.041 202.448 147.381 194.14 130.52 180.348C114.402 167.048 102.374 149.981 95.6751 130.902C85.376 101.011 87.6656 66.2899 102.132 33.1406L103.755 33.7627C89.4816 66.5273 87.1744 100.847 97.377 130.419C110.79 169.339 147.916 199.075 187.665 202.718L187.472 204.306Z" fill="#E0E0E0"/>
<path d="M348.144 172.318C347.142 176.787 344.309 180.714 340.248 183.262C336.195 185.772 331.519 187.268 326.668 187.608C321.984 188.017 316.931 187.518 313.185 184.85C309.439 182.181 307.605 176.886 310.167 173.194C313.79 167.972 321.571 167.53 328.23 167.98C334.888 168.431 341.871 170.239 348.144 172.318Z" fill="#E0E0E0"/>
<path d="M288.463 139.897C284.655 142.759 282.194 146.894 281.603 151.422C281.041 155.929 281.733 160.496 283.611 164.682C285.366 168.774 288.112 172.736 292.384 174.643C296.656 176.55 302.525 175.674 304.885 171.868C308.228 166.491 305.122 159.812 301.683 154.483C298.244 149.155 293.296 144.17 288.463 139.897Z" fill="#E0E0E0"/>
<path d="M361.188 144.334C361.165 148.695 359.321 152.876 356.048 155.989C352.773 159.06 348.707 161.292 344.24 162.472C339.932 163.7 335.107 164.109 331.081 162.3C327.054 160.491 324.229 155.842 325.87 151.938C328.186 146.405 335.388 144.571 341.66 143.827C347.933 143.082 354.89 143.516 361.188 144.334Z" fill="#E0E0E0"/>
<path d="M298.7 124.625C295.716 127.981 294.255 132.293 294.63 136.64C295.024 140.956 296.607 145.104 299.227 148.68C301.683 152.2 305.087 155.417 309.447 156.448C313.807 157.479 319.15 155.629 320.579 151.619C322.606 145.987 318.325 140.291 314.018 135.92C309.71 131.549 304.096 127.759 298.7 124.625Z" fill="#E0E0E0"/>
<path d="M369.575 116.243C369.926 120.39 368.528 124.501 365.68 127.702C362.833 130.861 359.162 133.283 355.021 134.733C351.038 136.214 346.494 136.975 342.485 135.551C338.475 134.127 335.466 129.928 336.66 126.089C338.414 120.671 345.073 118.428 350.994 117.225C356.916 116.022 363.521 115.932 369.575 116.243Z" fill="#E0E0E0"/>
<path d="M308.57 102.181C306.015 105.588 304.992 109.792 305.719 113.894C306.464 117.961 308.319 121.78 311.105 124.985C313.737 128.144 317.246 130.951 321.483 131.606C325.72 132.261 330.616 130.076 331.642 126.196C333.081 120.704 328.536 115.605 324.071 111.782C319.376 107.963 314.165 104.735 308.57 102.181Z" fill="#E0E0E0"/>
<path d="M371.26 89.7808C372.125 93.645 371.338 97.6719 369.066 101.002C366.786 104.302 363.635 106.999 359.916 108.835C356.355 110.677 352.17 111.905 348.205 111.004C344.24 110.104 340.827 106.495 341.485 102.738C342.424 97.4337 348.433 94.5526 353.872 92.7683C359.503 91.066 365.348 90.0616 371.26 89.7808Z" fill="#E0E0E0"/>
<path d="M311.921 83.3555C309.963 86.8561 309.541 90.9306 310.746 94.7163C311.977 98.4706 314.222 101.867 317.264 104.579C320.15 107.264 323.817 109.49 327.888 109.654C331.958 109.818 336.309 107.198 336.774 103.409C337.423 98.0721 332.484 93.7832 327.782 90.6729C322.861 87.5979 317.528 85.1378 311.921 83.3555Z" fill="#E0E0E0"/>
<path d="M366.698 60.5684C368.096 64.0767 367.974 67.9555 366.356 71.3808C364.727 74.777 362.186 77.7232 358.978 79.9341C355.916 82.1359 352.179 83.8465 348.337 83.5273C344.494 83.2081 340.731 80.2533 340.775 76.6765C340.836 71.5772 346.038 68.0904 350.855 65.684C355.874 63.3413 361.2 61.6215 366.698 60.5684Z" fill="#E0E0E0"/>
<path d="M310.088 62.4839C308.783 66.0247 309.009 69.9007 310.719 73.2881C312.445 76.6428 315.067 79.5264 318.334 81.6614C321.448 83.7895 325.229 85.4101 329.072 85.0008C332.914 84.5916 336.581 81.5795 336.441 77.9781C336.239 72.8788 330.949 69.5148 326.063 67.2312C320.983 65.0034 315.612 63.4073 310.088 62.4839Z" fill="#E0E0E0"/>
<path d="M357.416 33.8359C359.208 36.9541 359.623 40.6018 358.574 44.0017C357.517 47.3774 355.54 50.4398 352.837 52.8906C350.275 55.3461 347.012 57.3678 343.362 57.5234C339.713 57.6789 335.8 55.3953 335.344 52.0149C334.713 47.2348 339.099 43.3469 343.283 40.5558C347.657 37.7455 352.409 35.486 357.416 33.8359Z" fill="#E0E0E0"/>
<path d="M304.675 42.373C303.939 45.8456 304.685 49.4489 306.754 52.4161C308.825 55.3536 311.675 57.7417 315.027 59.3488C318.237 60.9858 322.001 62.0416 325.554 61.1986C329.107 60.3555 332.125 57.1061 331.493 53.7338C330.616 48.9947 325.194 46.4737 320.308 44.9104C315.238 43.4297 309.982 42.5767 304.675 42.373Z" fill="#E0E0E0"/>
<path d="M323.51 21.0266C323.727 20.6894 324.077 20.4444 324.484 20.3435C324.892 20.2427 325.326 20.2939 325.694 20.4864C329.462 22.2996 332.568 25.1173 334.616 28.5814C336.044 30.9837 336.472 33.7933 335.818 36.4717C334.405 41.923 326.65 43.65 322.852 39.2956C319.922 35.9315 319.483 31.2743 320.141 27.018C320.492 24.7099 322.229 23.0074 323.51 21.0266Z" fill="#E0E0E0"/>
<path d="M242.038 204.305L241.872 202.668C281.603 199.034 318.755 169.298 332.16 130.419C342.336 100.888 340.055 66.5761 325.756 33.7788L327.388 33.1567C341.845 66.306 344.135 101.027 333.836 130.919C327.139 149.991 315.114 167.053 298.999 180.348C282.164 194.14 262.47 202.447 242.038 204.305Z" fill="#E0E0E0"/>
<path d="M188.937 186.658L183.673 212.466H190.253L199.473 191.88C199.473 191.88 198.815 185.431 188.937 186.658Z" fill="#E0E0E0"/>
<path d="M246.513 186.658L251.776 212.466H245.197L235.985 191.88C235.985 191.88 236.652 185.431 246.513 186.658Z" fill="#E0E0E0"/>
<path d="M265.715 165.113C271.979 140.352 255.543 115.542 229.004 109.698C202.466 103.853 175.874 119.188 169.61 143.949C163.347 168.71 179.783 193.52 206.321 199.364C232.86 205.208 259.451 189.873 265.715 165.113Z" fill="#EBEBEB"/>
<path d="M218.299 190.137C239.37 190.137 256.451 174.2 256.451 154.54C256.451 134.881 239.37 118.944 218.299 118.944C197.228 118.944 180.146 134.881 180.146 154.54C180.146 174.2 197.228 190.137 218.299 190.137Z" fill="white"/>
<path d="M247.494 161.1C251.383 145.728 241.179 130.325 224.703 126.697C208.227 123.069 191.719 132.589 187.83 147.961C183.941 163.333 194.145 178.736 210.621 182.364C227.097 185.992 243.606 176.472 247.494 161.1Z" fill="#E6E6E6"/>
<path d="M217.667 176.64C230.749 176.64 241.353 166.746 241.353 154.54C241.353 142.335 230.749 132.441 217.667 132.441C204.586 132.441 193.981 142.335 193.981 154.54C193.981 166.746 204.586 176.64 217.667 176.64Z" fill="white"/>
<path d="M217.667 160.925C221.446 160.925 224.51 158.067 224.51 154.541C224.51 151.015 221.446 148.156 217.667 148.156C213.888 148.156 210.825 151.015 210.825 154.541C210.825 158.067 213.888 160.925 217.667 160.925Z" fill="#E0E0E0"/>
<path d="M278.349 165.582L268.085 169.666L250.153 164.608L250.145 164.6L257.268 159.476L278.349 165.582Z" fill="#E6E6E6"/>
<path opacity="0.1" d="M278.349 165.582L268.085 169.666L250.153 164.608L250.145 164.6L257.268 159.476L278.349 165.582Z" fill="black"/>
<path d="M217.01 154.663C217.042 154.567 217.094 154.477 217.164 154.399C217.233 154.321 217.318 154.256 217.415 154.209C217.511 154.162 217.616 154.133 217.724 154.124C217.832 154.115 217.941 154.126 218.045 154.156L268.321 168.93L267.848 170.403L217.563 155.621C217.361 155.552 217.193 155.417 217.091 155.24C216.989 155.064 216.96 154.859 217.01 154.663Z" fill="#E0E0E0"/>
<g opacity="0.1">
<path d="M217.01 154.663C217.042 154.567 217.094 154.477 217.164 154.399C217.233 154.321 217.318 154.256 217.415 154.209C217.511 154.162 217.616 154.133 217.724 154.124C217.832 154.115 217.941 154.126 218.045 154.156L268.321 168.93L267.848 170.403L217.563 155.621C217.361 155.552 217.193 155.417 217.091 155.24C216.989 155.064 216.96 154.859 217.01 154.663Z" fill="black"/>
</g>
<path d="M271.803 178.269L254.1 173.243L250.152 164.608L268.084 169.666L271.803 178.269Z" fill="#E6E6E6"/>
<g opacity="0.1">
<path d="M271.803 178.269L254.1 173.243L250.152 164.608L268.084 169.666L271.803 178.269Z" fill="black"/>
</g>
<path d="M154.074 95.6493C154.518 96.238 155.184 96.649 155.938 96.8007C156.692 96.9524 157.48 96.8335 158.145 96.4678L179.962 84.3785C180.438 84.1162 180.98 83.9777 181.533 83.9775L232.984 84.0839L257.618 68.8679L259.916 71.7736L265.61 60.4292L253.039 61.3787L254.486 64.1125L232.423 78.7718L180.831 78.8455C180.321 78.8466 179.821 78.9676 179.375 79.1974L155.118 91.4749C154.736 91.6678 154.403 91.9341 154.139 92.2561C153.876 92.5781 153.689 92.9486 153.59 93.3431C153.491 93.7376 153.484 94.1471 153.567 94.5446C153.65 94.9422 153.823 95.3187 154.074 95.6493Z" fill="#EBEBEB"/>
<path d="M274.532 48.0373H271.9C271.293 48.0443 270.711 48.2648 270.27 48.6548C269.83 49.0447 269.563 49.5754 269.523 50.1409L268.891 61.5017C268.872 61.774 268.913 62.0471 269.012 62.3038C269.111 62.5606 269.266 62.7955 269.467 62.9937C269.668 63.192 269.911 63.3494 270.18 63.456C270.449 63.5627 270.739 63.6162 271.032 63.6134H273.664C274.272 63.6062 274.856 63.3846 275.297 62.9929C275.738 62.6013 276.004 62.0686 276.041 61.5017L276.682 50.1409C276.7 49.8685 276.657 49.5956 276.557 49.3393C276.457 49.0829 276.301 48.8486 276.099 48.6511C275.897 48.4536 275.654 48.2972 275.384 48.1915C275.115 48.0859 274.825 48.0334 274.532 48.0373Z" fill="#EBEBEB"/>
<path d="M295.385 48.0372H287.656L289.411 44.2475C289.594 43.8422 289.663 43.3999 289.612 42.9625L289.253 39.9749C289.185 39.3941 288.888 38.8575 288.419 38.4701C287.95 38.0826 287.344 37.8721 286.717 37.8796H283.647L283.384 42.5041L278.41 48.3564C277.914 48.9363 277.622 49.6455 277.576 50.3863L276.98 61.0268C276.958 61.3614 277.01 61.6967 277.133 62.0118C277.256 62.3269 277.446 62.6153 277.693 62.8591C277.939 63.103 278.237 63.2972 278.567 63.4297C278.897 63.5622 279.252 63.6302 279.612 63.6296H290.376C290.854 63.625 291.325 63.5272 291.76 63.3426C292.196 63.1579 292.584 62.8905 292.902 62.5574L293.902 61.5179C294.324 61.1002 294.62 60.5865 294.762 60.0282L297.131 50.2062L295.385 48.0372Z" fill="#EBEBEB"/>
<path d="M219.317 292.491C313.257 292.491 389.41 288.343 389.41 283.225C389.41 278.108 313.257 273.96 219.317 273.96C125.377 273.96 49.2236 278.108 49.2236 283.225C49.2236 288.343 125.377 292.491 219.317 292.491Z" fill="#F5F5F5"/>
<path d="M304.648 246.794H133.985V290.543H304.648V246.794Z" fill="#263238"/>
<path opacity="0.2" d="M304.648 246.794H133.985V290.551H304.648V246.794Z" fill="white"/>
<path d="M254.215 212.376H180.138V246.761H254.215V212.376Z" fill="#263238"/>
<path opacity="0.2" d="M254.215 212.376H180.138V246.761H254.215V212.376Z" fill="white"/>
<path d="M214.992 222.092L214.22 225.726H218.439L215.027 241.646H219.878L224.036 222.092H214.992Z" fill="#82A186"/>
<g opacity="0.2">
<path d="M215.729 222.092L214.948 225.726H219.142L215.729 241.646H219.843L224.037 222.092H215.729Z" fill="white"/>
</g>
<path d="M197.385 4.49305C197.315 4.49596 197.246 4.48186 197.184 4.45212L190.516 1.17812C190.461 1.15514 190.412 1.12188 190.372 1.08041C190.331 1.03894 190.3 0.990141 190.281 0.937046C190.261 0.883951 190.254 0.827693 190.259 0.771768C190.264 0.715844 190.281 0.661445 190.309 0.611955C190.337 0.562464 190.376 0.518942 190.423 0.484082C190.471 0.449223 190.525 0.423775 190.583 0.409321C190.641 0.394868 190.702 0.391714 190.761 0.40006C190.821 0.408406 190.878 0.428073 190.929 0.457836L197.596 3.73184C197.647 3.75754 197.692 3.79235 197.728 3.83427C197.764 3.87619 197.791 3.9244 197.808 3.97611C197.824 4.02783 197.829 4.08204 197.823 4.13564C197.817 4.18924 197.799 4.24116 197.771 4.28842C197.733 4.35207 197.677 4.40476 197.609 4.44082C197.541 4.47688 197.464 4.49494 197.385 4.49305Z" fill="#82A186"/>
<path d="M201.842 6.71935C201.769 6.72156 201.697 6.70752 201.631 6.67842L199.385 5.56526C199.334 5.54026 199.288 5.50597 199.251 5.46436C199.214 5.42276 199.186 5.37467 199.168 5.3229C199.151 5.27112 199.145 5.21668 199.151 5.16274C199.157 5.1088 199.174 5.05643 199.201 5.00868C199.257 4.91314 199.35 4.84171 199.462 4.8096C199.573 4.7775 199.694 4.78725 199.798 4.83679L202.043 5.94995C202.146 6.00203 202.222 6.08935 202.257 6.19331C202.291 6.29727 202.281 6.40966 202.228 6.50653C202.19 6.57112 202.134 6.62498 202.066 6.66243C201.998 6.69989 201.921 6.71955 201.842 6.71935Z" fill="#82A186"/>
<path d="M197.385 12.7028H180.155C180.039 12.7028 179.928 12.6597 179.845 12.5829C179.763 12.5062 179.717 12.4021 179.717 12.2935C179.717 12.185 179.763 12.0809 179.845 12.0041C179.928 11.9274 180.039 11.8843 180.155 11.8843H197.385C197.501 11.8843 197.613 11.9274 197.695 12.0041C197.777 12.0809 197.824 12.185 197.824 12.2935C197.824 12.4021 197.777 12.5062 197.695 12.5829C197.613 12.6597 197.501 12.7028 197.385 12.7028Z" fill="#82A186"/>
<path d="M176.498 31.2417C176.419 31.2428 176.341 31.2235 176.273 31.1859C176.204 31.1484 176.149 31.094 176.112 31.0289C176.084 30.9811 176.067 30.9287 176.062 30.8748C176.056 30.8209 176.062 30.7664 176.079 30.7146C176.096 30.6629 176.124 30.6148 176.161 30.5732C176.199 30.5316 176.244 30.4973 176.296 30.4723L184.823 26.2488C184.874 26.2232 184.93 26.2073 184.988 26.2021C185.046 26.1969 185.104 26.2024 185.16 26.2184C185.215 26.2344 185.267 26.2605 185.311 26.2952C185.356 26.33 185.393 26.3726 185.419 26.4207C185.447 26.4678 185.464 26.5196 185.469 26.5729C185.475 26.6262 185.469 26.68 185.451 26.7312C185.434 26.7823 185.406 26.8297 185.369 26.8705C185.332 26.9114 185.286 26.9449 185.235 26.9691L176.708 31.1926C176.643 31.2242 176.571 31.241 176.498 31.2417Z" fill="#82A186"/>
<path d="M187.358 25.9622C187.279 25.9633 187.201 25.944 187.133 25.9065C187.065 25.8689 187.009 25.8146 186.972 25.7494C186.917 25.6545 186.904 25.5436 186.935 25.4399C186.967 25.3361 187.039 25.2476 187.139 25.1928L190.692 23.343C190.741 23.3157 190.797 23.298 190.854 23.291C190.911 23.284 190.97 23.2879 191.025 23.3024C191.081 23.3169 191.133 23.3418 191.178 23.3755C191.223 23.4092 191.261 23.451 191.288 23.4985C191.345 23.593 191.359 23.7046 191.328 23.809C191.297 23.9133 191.223 24.0018 191.122 24.0551L187.569 25.9131C187.504 25.9457 187.432 25.9626 187.358 25.9622Z" fill="#82A186"/>
<path d="M192.999 23.065C192.92 23.0661 192.842 23.0469 192.774 23.0093C192.706 22.9718 192.65 22.9174 192.613 22.8522C192.586 22.8045 192.569 22.7521 192.563 22.6982C192.557 22.6442 192.563 22.5898 192.581 22.538C192.598 22.4862 192.626 22.4382 192.663 22.3966C192.7 22.355 192.746 22.3207 192.797 22.2957L201.43 18.0231C201.48 17.9973 201.535 17.9811 201.591 17.9754C201.648 17.9697 201.706 17.9747 201.76 17.9899C201.815 18.0051 201.866 18.0304 201.91 18.0642C201.954 18.098 201.991 18.1397 202.017 18.1868C202.045 18.234 202.063 18.286 202.069 18.3396C202.075 18.3932 202.07 18.4474 202.054 18.4991C202.037 18.5508 202.01 18.599 201.974 18.6409C201.938 18.6829 201.893 18.7177 201.842 18.7434L193.21 23.0159C193.145 23.0476 193.072 23.0644 192.999 23.065Z" fill="#82A186"/>
<path d="M242.372 6.71937C242.293 6.72047 242.215 6.70118 242.147 6.66363C242.079 6.62609 242.023 6.57173 241.986 6.50655C241.959 6.4588 241.942 6.40643 241.936 6.35249C241.931 6.29855 241.936 6.24411 241.954 6.19234C241.971 6.14056 241.999 6.09247 242.036 6.05087C242.073 6.00926 242.119 5.97497 242.17 5.94997L253.329 0.42509C253.38 0.399644 253.435 0.383901 253.492 0.378786C253.55 0.373671 253.607 0.379288 253.662 0.395309C253.717 0.411331 253.768 0.437432 253.811 0.472069C253.855 0.506705 253.891 0.549174 253.917 0.596975C253.945 0.64362 253.962 0.694927 253.968 0.747902C253.974 0.800877 253.969 0.854457 253.953 0.905511C253.936 0.956565 253.909 1.00407 253.873 1.04525C253.837 1.08644 253.792 1.12047 253.742 1.14537L242.583 6.67844C242.517 6.70754 242.445 6.72158 242.372 6.71937Z" fill="#82A186"/>
<path d="M255.803 12.7028H246.872C246.756 12.7028 246.644 12.6597 246.562 12.5829C246.48 12.5062 246.434 12.4021 246.434 12.2935C246.434 12.185 246.48 12.0809 246.562 12.0041C246.644 11.9274 246.756 11.8843 246.872 11.8843H255.803C255.919 11.8843 256.031 11.9274 256.113 12.0041C256.195 12.0809 256.241 12.185 256.241 12.2935C256.241 12.3473 256.23 12.4005 256.208 12.4501C256.186 12.4998 256.154 12.5449 256.113 12.5829C256.072 12.6209 256.024 12.6511 255.971 12.6716C255.917 12.6922 255.86 12.7028 255.803 12.7028Z" fill="#82A186"/>
<path d="M260.952 12.7028H258.969C258.853 12.7028 258.741 12.6597 258.659 12.5829C258.577 12.5062 258.531 12.4021 258.531 12.2935C258.531 12.185 258.577 12.0809 258.659 12.0041C258.741 11.9274 258.853 11.8843 258.969 11.8843H260.952C261.068 11.8864 261.178 11.9302 261.26 12.0065C261.341 12.0828 261.388 12.1856 261.391 12.2935C261.391 12.4021 261.344 12.5062 261.262 12.5829C261.18 12.6597 261.068 12.7028 260.952 12.7028Z" fill="#82A186"/>
<path d="M267.707 12.7028H264.058C263.941 12.7028 263.83 12.6597 263.748 12.5829C263.665 12.5062 263.619 12.4021 263.619 12.2935C263.619 12.185 263.665 12.0809 263.748 12.0041C263.83 11.9274 263.941 11.8843 264.058 11.8843H267.69C267.806 11.8843 267.918 11.9274 268 12.0041C268.082 12.0809 268.128 12.185 268.128 12.2935C268.128 12.3993 268.085 12.501 268.006 12.5773C267.928 12.6536 267.82 12.6985 267.707 12.7028Z" fill="#82A186"/>
<path d="M267.707 31.2419C267.636 31.2423 267.567 31.2254 267.505 31.1928L242.363 18.7434C242.26 18.6913 242.184 18.604 242.149 18.5C242.115 18.3961 242.125 18.2837 242.178 18.1868C242.206 18.1394 242.243 18.0976 242.288 18.0637C242.333 18.0298 242.385 18.0045 242.44 17.9893C242.496 17.9741 242.554 17.9692 242.611 17.975C242.669 17.9808 242.724 17.9972 242.775 18.0231L267.917 30.4725C268.004 30.5159 268.072 30.5848 268.111 30.6684C268.15 30.752 268.158 30.8455 268.134 30.9339C268.11 31.0223 268.055 31.1007 267.977 31.1565C267.9 31.2123 267.805 31.2424 267.707 31.2419Z" fill="#82A186"/>
<path d="M291.516 223.557L289.726 240.933L294.384 241.596L296.411 225.537L291.516 223.557Z" fill="#DD8C6A"/>
<path d="M294.314 240.917C294.503 240.938 294.677 241.024 294.801 241.159C294.925 241.294 294.989 241.468 294.981 241.646C294.921 243.442 294.757 245.235 294.49 247.015C294.253 247.539 279.313 246.639 279.313 246.639C278.787 246.278 279.085 245.902 279.374 245.1C280.41 243.757 284.085 243.766 286.27 243.324C288.858 242.792 288.691 241.466 289.165 240.77C289.242 240.66 289.349 240.572 289.476 240.516C289.603 240.459 289.744 240.437 289.884 240.451L294.314 240.917Z" fill="#82A186"/>
<path d="M315.01 143.745C315.01 143.745 320.352 152.273 316.659 160.319L313.553 165.705C312.223 168.012 311.05 170.396 310.044 172.842L300.649 197.021L300.798 203.192C300.876 206.129 300.641 209.065 300.096 211.959L296.087 235.376L288.06 234.197L288.507 195.94L300.903 143.745H315.01Z" fill="#263238"/>
<g opacity="0.2">
<path d="M315.01 143.745C315.01 143.745 320.352 152.273 316.659 160.319L313.553 165.705C312.223 168.012 311.05 170.396 310.044 172.842L300.649 197.021L300.798 203.192C300.876 206.129 300.641 209.065 300.096 211.959L296.087 235.376L288.06 234.197L288.507 195.94L300.903 143.745H315.01Z" fill="black"/>
</g>
<path d="M287.682 232.732C287.875 232.675 298.683 234.066 298.683 234.066L297.148 236.825L286.735 236.006L287.682 232.732Z" fill="#82A186"/>
<path d="M285.577 111.839L280.19 124.019L263.391 128.529L265.636 132.056C265.636 132.056 280.427 131.238 284.822 128.144C285.805 127.448 292.498 114.229 292.498 114.229L285.577 111.839Z" fill="#DD8C6A"/>
<path d="M263.391 128.529L258.03 128.889C258.03 128.889 254.478 132.057 255.135 132.752C255.793 133.448 258.338 135.764 258.338 135.764C259.653 135.072 261.033 134.491 262.461 134.029C263.557 133.841 265.636 132.04 265.636 132.04L263.391 128.529Z" fill="#DD8C6A"/>
<path d="M301.526 166.884C301.526 166.884 289.244 186.724 288.709 189.524C288.393 191.161 289.709 191.914 290.762 200.688C291.534 207.023 291.981 220.152 291.77 221.412L284.401 222.812C284.401 222.812 276.427 197.618 275.085 191.619C272.514 180.16 289.525 143.614 289.525 143.614L311.132 143.745L311.535 150.399C311.886 156.129 307.675 166.204 301.526 166.884Z" fill="#263238"/>
<path d="M285.656 221.576L287.244 229.703L292.165 228.443L290.621 219.742L285.656 221.576Z" fill="#DD8C6A"/>
<path d="M290.244 227.305C290.728 227.122 291.264 227.089 291.77 227.213C292.276 227.337 292.725 227.611 293.051 227.993C294.076 229.128 295.023 230.322 295.884 231.57C296.069 232.11 283.059 241.474 283.059 241.474C282.418 241.523 281.708 240.442 282.032 240.099C282.778 238.331 284.743 236.276 285.603 234.369C286.166 232.872 286.577 231.329 286.831 229.761C286.898 229.382 287.069 229.025 287.327 228.725C287.586 228.425 287.922 228.193 288.305 228.05L290.244 227.305Z" fill="#82A186"/>
<path d="M282.06 220.839C282.226 220.733 293.71 219.161 293.71 219.161L293.499 222.165L282.033 224.219L282.06 220.839Z" fill="#82A186"/>
<path d="M292.244 89.1343C291.925 90.1675 291.49 91.1662 290.945 92.1136C291.1 92.2823 291.301 92.4076 291.527 92.4755C291.753 92.5435 291.995 92.5514 292.226 92.4983L292.244 89.1343Z" fill="#DF5753"/>
<path d="M292.174 87.6118C291.841 87.6118 291.577 87.9883 291.569 88.4303C291.56 88.8723 291.832 89.2488 292.165 89.2488C292.498 89.2488 292.77 88.8723 292.77 88.4303C292.77 87.9883 292.507 87.6118 292.174 87.6118Z" fill="#263238"/>
<path d="M307.833 94.6919C307.087 98.1623 306.324 104.514 308.921 106.863C308.921 106.863 307.877 110.383 300.955 110.35C293.34 110.35 297.341 106.806 297.341 106.806C301.499 105.897 301.411 103.024 300.701 100.315L307.833 94.6919Z" fill="#E58A7B"/>
<path d="M309.912 86.7852C309.491 92.5884 309.447 95.0521 306.289 98.0151C301.534 102.476 294.007 100.732 292.542 94.962C291.235 89.7318 291.34 82.2344 297.464 79.9589C301.806 78.3219 307.544 79.1404 309.307 83.2329C309.794 84.3591 310.001 85.5736 309.912 86.7852Z" fill="#DD8C6A"/>
<path d="M311.123 107.264C311.176 106.922 311.084 106.574 310.866 106.294C310.648 106.014 310.322 105.825 309.956 105.766C307.149 105.324 300.754 104.408 297.525 104.809C295.13 105.111 294.499 106.405 294.385 107.477C294.353 107.819 294.466 108.16 294.701 108.425C294.936 108.689 295.273 108.858 295.639 108.893H295.867L309.781 108.369C310.106 108.355 310.416 108.238 310.66 108.037C310.904 107.836 311.067 107.563 311.123 107.264Z" fill="#82A186"/>
<path opacity="0.6" d="M311.123 107.264C311.176 106.922 311.084 106.574 310.866 106.294C310.648 106.014 310.322 105.825 309.956 105.766C307.149 105.324 300.754 104.408 297.525 104.809C295.13 105.111 294.499 106.405 294.385 107.477C294.353 107.819 294.466 108.16 294.701 108.425C294.936 108.689 295.273 108.858 295.639 108.893H295.867L309.781 108.369C310.106 108.355 310.416 108.238 310.66 108.037C310.904 107.836 311.067 107.563 311.123 107.264Z" fill="black"/>
<path d="M316.132 103.777L320.677 93.5869L314.115 76.2183L318.501 75.7354C318.501 75.7354 326.554 90.0509 326.598 95.1911C326.598 96.3452 319.449 109.368 319.449 109.368L316.132 103.777Z" fill="#DD8C6A"/>
<path d="M309.754 107.157C309.754 104.661 318.694 97.2207 318.694 97.2207C321.466 99.253 323.627 101.921 324.966 104.964L325.159 105.414C325.159 105.414 320.773 112.78 317.352 112.412C313.764 112.044 309.754 110.284 309.754 107.157Z" fill="#82A186"/>
<path opacity="0.1" d="M309.754 107.157C309.754 104.661 318.694 97.2207 318.694 97.2207C321.466 99.253 323.627 101.921 324.966 104.964L325.159 105.414C325.159 105.414 320.773 112.78 317.352 112.412C313.764 112.044 309.754 110.284 309.754 107.157Z" fill="black"/>
<path d="M288.042 105.095C288.042 105.095 288.779 114.59 289.481 143.565L314.974 143.695C314.65 135.322 315.632 127.432 319.176 112.691C319.421 111.688 319.433 110.649 319.214 109.642C318.994 108.635 318.546 107.683 317.902 106.85C317.257 106.016 316.429 105.321 315.473 104.809C314.518 104.298 313.456 103.982 312.36 103.884C311.658 103.818 310.947 103.769 310.246 103.728C306.392 103.447 302.522 103.428 298.666 103.671C293.683 104.055 288.042 105.095 288.042 105.095Z" fill="#82A186"/>
<path d="M282.752 111.594C281.427 117.135 279.813 119.435 279.813 119.435L289.226 124.592C289.226 124.592 295.893 109.4 294.718 106.356C293.998 104.498 291.849 104.424 290.252 104.931C290.252 104.931 290.209 104.931 290.191 104.931C287.331 103.859 283.91 106.806 282.752 111.594Z" fill="#82A186"/>
<path d="M294.762 81.1864C294.047 84.617 294.759 88.1728 296.753 91.1312C298.016 92.981 299.051 94.9618 300.402 96.6479C300.832 97.1912 301.376 97.6461 302.002 97.9843C302.628 98.3225 303.322 98.5366 304.041 98.6134C304.759 98.6902 305.487 98.628 306.179 98.4307C306.871 98.2333 307.511 97.9051 308.061 97.4664C310.485 95.529 312.006 92.787 312.301 89.8214C312.596 86.8558 311.641 83.8996 309.64 81.5793C308.269 79.9036 306.252 78.7935 304.017 78.4854C302.11 78.4357 300.214 78.7649 298.455 79.4512C297.121 79.9259 296.095 80.7608 294.762 81.1864Z" fill="#263238"/>
<path d="M298.201 89.9771C298.192 91.0779 297.848 92.1538 297.209 93.0792C296.332 94.2742 295.358 93.8158 295.113 92.5308C294.893 91.4094 295.113 89.4123 296.165 88.6429C297.218 87.8735 298.201 88.6756 298.201 89.9771Z" fill="#DD8C6A"/>
<path opacity="0.2" d="M288.761 124.183L292.77 113.542L291.015 125.14C290.206 124.956 289.441 124.631 288.761 124.183Z" fill="black"/>
<path d="M314.114 76.2509L311.149 72.0684C311.149 72.0684 311.675 67.5011 312.667 67.5666C313.658 67.6321 317.176 68.0986 317.176 68.0986C317.395 69.4886 317.744 70.858 318.22 72.1911C318.729 73.1242 318.465 75.7598 318.465 75.7598L314.114 76.2509Z" fill="#DD8C6A"/>
<path d="M289.648 82.1934C289.451 82.6991 289.464 83.2551 289.685 83.752C289.906 84.2489 290.318 84.6506 290.841 84.8781C290.882 85.3754 291.035 85.8591 291.29 86.2974C291.545 86.7357 291.897 87.1188 292.322 87.4216C292.746 87.7245 293.235 87.9403 293.755 88.0549C294.276 88.1695 294.816 88.1803 295.341 88.0867C294.35 87.7347 294.192 86.4496 294.648 85.5247C295.481 83.8877 298.35 82.0216 295.946 80.3846C294.122 79.1322 290.376 80.2454 289.648 82.1934Z" fill="#263238"/>
<path d="M291.253 87.0881C291.545 86.9784 291.861 86.9361 292.174 86.9646C292.487 86.9931 292.788 87.0916 293.051 87.2518L293.122 87.2927C293.178 87.3124 293.241 87.3125 293.298 87.293C293.355 87.2734 293.402 87.2355 293.432 87.1862C293.462 87.1368 293.472 87.0791 293.46 87.0236C293.448 86.9681 293.415 86.9184 293.367 86.8834C293.041 86.6755 292.666 86.5433 292.274 86.4977C291.882 86.4522 291.484 86.4946 291.113 86.6215C291.058 86.6431 291.012 86.6803 290.981 86.7279C290.964 86.7552 290.953 86.7855 290.948 86.8168C290.944 86.8482 290.946 86.8801 290.955 86.9106C290.964 86.9411 290.98 86.9696 291.001 86.9945C291.022 87.0193 291.048 87.04 291.078 87.0553C291.129 87.0864 291.192 87.0981 291.253 87.0881Z" fill="#263238"/>
<path d="M309.324 118.641C309.324 118.592 310.667 116.39 310.474 115.032C310.861 114.726 311.18 114.351 311.412 113.93C311.644 113.508 311.784 113.048 311.825 112.576C311.943 111.585 311.644 110.591 310.991 109.801C311.623 108.846 311.881 107.715 311.721 106.602C311.561 105.489 310.993 104.462 310.114 103.695C311.684 101.96 311.439 98.678 309.307 97.5976C309.991 97.1104 310.451 96.399 310.594 95.6074C310.738 94.8158 310.553 94.0029 310.079 93.3332C309.737 93.3332 309.745 92.9485 309.438 93.0794C308.105 93.7501 306.967 94.7137 306.122 95.8869C304.87 95.1417 303.369 94.8505 301.903 95.0684C301.542 95.4558 301.308 95.9314 301.229 96.439C301.149 96.9465 301.227 97.4648 301.453 97.9324C301.679 98.4 302.044 98.7973 302.505 99.0774C302.965 99.3575 303.502 99.5086 304.052 99.5129C303.613 101.772 304.929 104.252 307.394 104.571C306.289 107.084 307.096 108.868 309.789 109.875C308.614 111.283 308.105 113.526 309.14 115.032C308.704 115.396 308.351 115.839 308.104 116.334C307.857 116.83 307.72 117.367 307.701 117.913C307.517 119.615 309.324 118.641 309.324 118.641Z" fill="#263238"/>
<path d="M308.306 117.896C307.721 117.746 307.097 117.799 306.55 118.044C306.003 118.29 305.569 118.712 305.329 119.232C305.088 119.752 305.058 120.336 305.242 120.875C305.427 121.415 305.814 121.874 306.332 122.169C306.205 122.053 306.108 121.912 306.048 121.756C305.988 121.6 305.968 121.434 305.988 121.269C306.008 121.104 306.069 120.946 306.165 120.807C306.261 120.668 306.391 120.551 306.543 120.466C306.356 120.641 306.227 120.861 306.171 121.102C306.115 121.343 306.135 121.594 306.227 121.825C306.473 122.182 306.742 122.523 307.034 122.848C307.176 123.013 307.264 123.212 307.291 123.421C307.317 123.631 307.28 123.844 307.183 124.035C307.906 123.733 308.553 123.293 309.082 122.743C309.611 122.193 310.01 121.546 310.254 120.843C310.534 120.18 310.534 119.443 310.254 118.78C310.082 118.451 309.797 118.184 309.444 118.024C309.091 117.864 308.69 117.819 308.306 117.896Z" fill="#263238"/>
<path d="M308.307 116.791L305.745 117.757C305.339 117.869 304.913 117.908 304.491 117.872C303.653 116.914 303.247 115.69 303.359 114.459C303.555 113.131 304.248 111.91 305.315 111.013C306.258 111.598 307.119 112.291 307.877 113.075C308.294 113.477 308.739 113.851 309.21 114.197C309.423 114.417 309.554 114.695 309.583 114.991C309.611 115.286 309.536 115.582 309.368 115.834C309.039 116.31 308.574 116.693 308.026 116.939C308.052 116.783 308.28 116.914 308.307 116.791Z" fill="#82A186"/>
<path d="M310.14 117.512L312.36 119.05C312.719 119.258 313.118 119.397 313.535 119.46C314.606 118.733 315.333 117.648 315.562 116.431C315.736 115.101 315.401 113.755 314.615 112.633C313.543 112.976 312.52 113.44 311.57 114.017C311.058 114.302 310.528 114.559 309.983 114.786C309.721 114.947 309.522 115.181 309.413 115.455C309.304 115.729 309.292 116.028 309.377 116.308C309.569 116.848 309.915 117.329 310.377 117.7C310.395 117.569 310.132 117.643 310.14 117.512Z" fill="#82A186"/>
<path opacity="0.4" d="M308.307 116.791L305.745 117.757C305.339 117.869 304.913 117.908 304.491 117.872C303.653 116.914 303.247 115.69 303.359 114.459C303.555 113.131 304.248 111.91 305.315 111.013C306.258 111.598 307.119 112.291 307.877 113.075C308.294 113.477 308.739 113.851 309.21 114.197C309.423 114.417 309.554 114.695 309.583 114.991C309.611 115.286 309.536 115.582 309.368 115.834C309.039 116.31 308.574 116.693 308.026 116.939C308.052 116.783 308.28 116.914 308.307 116.791Z" fill="black"/>
<path opacity="0.4" d="M310.14 117.512L312.36 119.05C312.719 119.258 313.118 119.397 313.535 119.46C314.606 118.733 315.333 117.648 315.562 116.431C315.736 115.101 315.401 113.755 314.615 112.633C313.543 112.976 312.52 113.44 311.57 114.017C311.058 114.302 310.528 114.559 309.983 114.786C309.721 114.947 309.522 115.181 309.413 115.455C309.304 115.729 309.292 116.028 309.377 116.308C309.569 116.848 309.915 117.329 310.377 117.7C310.395 117.569 310.132 117.643 310.14 117.512Z" fill="black"/>
<path d="M201.236 212.049C200.708 211.384 200.054 210.815 199.306 210.371C199.306 210.371 197.482 207.531 198.183 200.442L195.192 198.904C194.682 198.653 194.101 198.554 193.529 198.619C192.957 198.685 192.419 198.913 191.99 199.272C191.867 199.369 191.763 199.485 191.683 199.616C191.327 200.297 191.013 200.996 190.744 201.711C189.891 204.159 189.194 206.651 188.656 209.176L189.226 209.331L190.735 204.691C191.227 203.111 192.06 205.304 191.964 207.105C191.867 208.906 192.165 210.936 195.885 211.91C200.21 213.031 202.078 213.309 201.236 212.049Z" fill="#2E353A"/>
<path d="M197.894 201.171L193.981 200L193.735 194.672L194.455 188.517L201.008 189.196L199.148 196.366L197.894 201.171Z" fill="#FFC3BD"/>
<path d="M198.456 197.872C198.456 197.872 198.281 201.146 198.456 204.854C198.422 206.739 198.78 208.613 199.509 210.371C199.509 210.371 196.57 210.166 195.842 208.112C195.114 206.057 195.105 199.657 192.166 199.297C192.513 198.909 192.904 198.557 193.333 198.249C193.991 197.758 198.456 197.872 198.456 197.872Z" fill="#FFC3BD"/>
<path d="M228.607 19.1527L231.143 21.0107L234.231 19.8157L231.423 17.7449C231.423 17.7449 229.713 16.8036 228.607 19.1527Z" fill="#FFC3BD"/>
<path d="M217.615 19.4308C218.024 19.1349 218.387 18.7879 218.694 18.3995C218.967 18.0269 219.091 17.5762 219.043 17.1269C218.995 16.6776 218.778 16.2586 218.431 15.9439C217.677 15.1851 216.815 14.5269 215.869 13.9877C215.106 13.0055 215.088 11.8023 214.211 10.9183C213.334 10.0344 211.816 10.329 210.702 11.1312C210.702 11.1312 211.079 14.1351 211.965 15.3628C212.501 16.1076 212.913 17.1308 213.825 17.4173C213.86 17.3763 216.755 18.997 217.615 19.4308Z" fill="#FFC3BD"/>
<path d="M214.703 17.7446L211.562 20.2001L214.931 21.9517L218.659 18.5058C218.659 18.5058 217.852 16.1977 214.703 17.7446Z" fill="#FFC3BD"/>
<path d="M229.046 19.4883C228.632 19.1997 228.26 18.8612 227.941 18.4816C227.647 18.1108 227.506 17.654 227.543 17.1943C227.58 16.7346 227.793 16.3026 228.142 15.977C228.875 15.2008 229.719 14.5232 230.651 13.9634C231.38 12.9649 231.371 11.7617 232.231 10.8531C233.09 9.9446 234.608 10.2147 235.74 10.9923C235.74 10.9923 235.441 14.0044 234.59 15.2485C234.073 16.0097 233.713 17.041 232.783 17.3439C232.748 17.3439 229.897 19.03 229.046 19.4883Z" fill="#FFC3BD"/>
<path d="M229.844 55.6248L236.941 62.6148C239.389 59.8237 247.6 47.6772 248.811 36.652C249.206 33.0424 247.337 32.2975 247.337 32.2975L233.204 18.604C229.923 17.7037 230.107 20.5357 230.107 20.5357C230.107 20.5357 241.117 36.2263 240.757 37.1185C240.547 37.626 229.844 55.6248 229.844 55.6248Z" fill="#82A186"/>
<path opacity="0.1" d="M229.844 55.6248L236.941 62.6148C239.389 59.8237 247.6 47.6772 248.811 36.652C249.206 33.0424 247.337 32.2975 247.337 32.2975L233.204 18.604C229.923 17.7037 230.107 20.5357 230.107 20.5357C230.107 20.5357 241.117 36.2263 240.757 37.1185C240.547 37.626 229.844 55.6248 229.844 55.6248Z" fill="black"/>
<path opacity="0.1" d="M229.844 55.6248L236.941 62.6148C239.389 59.8237 247.6 47.6772 248.811 36.652C249.206 33.0424 247.337 32.2975 247.337 32.2975L233.204 18.604C229.923 17.7037 230.107 20.5357 230.107 20.5357C230.107 20.5357 241.117 36.2263 240.757 37.1185C240.547 37.626 229.844 55.6248 229.844 55.6248Z" fill="white"/>
<path d="M213.755 54.7245L213.597 55.3957C212.983 58.0394 209.211 61.9027 206.438 61.1743C204.219 58.2195 196.306 46.1221 195.964 35.0395C195.85 31.4054 197.78 30.7997 197.78 30.7997L213.571 18.1457C216.904 17.7446 216.904 20.4047 216.904 20.4047C216.904 20.4047 203.745 35.1378 204 36.0545C204.149 36.5783 213.755 54.7245 213.755 54.7245Z" fill="#82A186"/>
<g opacity="0.2">
<path d="M213.755 54.7245L213.597 55.3957C212.983 58.0394 209.211 61.9027 206.438 61.1743C204.219 58.2195 196.306 46.1221 195.964 35.0395C195.85 31.4054 197.78 30.7997 197.78 30.7997L213.571 18.1457C216.904 17.7446 216.904 20.4047 216.904 20.4047C216.904 20.4047 203.745 35.1378 204 36.0545C204.149 36.5783 213.755 54.7245 213.755 54.7245Z" fill="white"/>
</g>
<path d="M204.088 57.6796C205.746 60.3397 207.527 63.6301 209.237 66.5603C209.405 66.8435 209.643 67.0849 209.931 67.2637C210.22 67.4426 210.551 67.5536 210.896 67.5874C211.24 67.6211 211.589 67.5766 211.911 67.4576C212.233 67.3387 212.52 67.1487 212.747 66.9041C215.72 63.7283 217.247 58.9646 215.913 55.1013C214.159 54.381 212.22 53.6607 210.501 52.9404C208.018 54.0781 205.518 55.4778 204.088 57.6796Z" fill="#82A186"/>
<path opacity="0.2" d="M204.088 57.6796C205.746 60.3397 207.527 63.6301 209.237 66.5603C209.405 66.8435 209.643 67.0849 209.931 67.2637C210.22 67.4426 210.551 67.5536 210.896 67.5874C211.24 67.6211 211.589 67.5766 211.911 67.4576C212.233 67.3387 212.52 67.1487 212.747 66.9041C215.72 63.7283 217.247 58.9646 215.913 55.1013C214.159 54.381 212.22 53.6607 210.501 52.9404C208.018 54.0781 205.518 55.4778 204.088 57.6796Z" fill="white"/>
<path d="M238.74 70.8982L237.862 73.6156C237.292 76.4313 236.52 79.0996 236.187 81.6124C236.062 86.7359 236.355 91.8609 237.064 96.9429C237.064 96.9429 237.766 108.664 237.739 109.458L204.403 109.327C205.57 95.0849 213.246 82.7501 213.246 80.7693C213.246 78.2565 213.071 79.4925 210.772 72.5843C210.772 72.5843 210.772 72.5434 210.772 72.5025C210.772 72.4616 210.728 72.3551 210.693 72.2815C210.668 72.1787 210.636 72.0776 210.597 71.9786C210.597 71.9132 210.597 71.8477 210.535 71.774L210.281 70.9555C209.693 69.0893 208.693 65.7335 207.719 61.6737C207.088 59.0054 208.597 55.6004 211.448 55.0029L211.93 54.9293C213.422 54.7492 215.071 54.5773 216.755 54.5036C220.52 54.254 224.299 54.254 228.063 54.5036C229.908 54.6208 231.744 54.8312 233.564 55.1339C234.143 55.2157 234.941 55.9524 235.774 56.9346C237.354 58.908 238.441 61.1865 238.954 63.6027C239.467 66.019 239.394 68.5118 238.74 70.8982Z" fill="#82A186"/>
<g opacity="0.2">
<path d="M238.74 70.8982L237.862 73.6156C237.292 76.4313 236.52 79.0996 236.187 81.6124C236.062 86.7359 236.355 91.8609 237.064 96.9429C237.064 96.9429 237.766 108.664 237.739 109.458L204.403 109.327C205.57 95.0849 213.246 82.7501 213.246 80.7693C213.246 78.2565 213.071 79.4925 210.772 72.5843C210.772 72.5843 210.772 72.5434 210.772 72.5025C210.772 72.4616 210.728 72.3551 210.693 72.2815C210.668 72.1787 210.636 72.0776 210.597 71.9786C210.597 71.9132 210.597 71.8477 210.535 71.774L210.281 70.9555C209.693 69.0893 208.693 65.7335 207.719 61.6737C207.088 59.0054 208.597 55.6004 211.448 55.0029L211.93 54.9293C213.422 54.7492 215.071 54.5773 216.755 54.5036C220.52 54.254 224.299 54.254 228.063 54.5036C229.908 54.6208 231.744 54.8312 233.564 55.1339C234.143 55.2157 234.941 55.9524 235.774 56.9346C237.354 58.908 238.441 61.1865 238.954 63.6027C239.467 66.019 239.394 68.5118 238.74 70.8982Z" fill="white"/>
</g>
<path d="M223.44 51.4425C223.598 51.4425 214.36 51.1315 213.29 52.4247C212.903 52.86 212.689 53.4064 212.684 53.9717C212.686 54.2521 212.779 54.5255 212.951 54.7552C213.124 54.9849 213.367 55.1599 213.649 55.2567C212.447 55.9279 210.816 56.6236 211.018 57.9168C211.13 58.3785 211.391 58.797 211.766 59.116C212.141 59.4351 212.611 59.6393 213.114 59.7012C214.125 59.7992 215.147 59.6988 216.114 59.4065C215.98 59.8104 215.987 60.2436 216.134 60.6437C216.28 61.0437 216.559 61.3901 216.93 61.6328C217.654 62.0178 218.475 62.2129 219.308 62.1976C220.846 62.2697 222.388 62.2067 223.913 62.0093C224.387 60.8307 223.782 59.4065 223.115 58.3097C221.545 55.7151 225.326 53.8407 223.44 51.4425Z" fill="#82A186"/>
<path d="M223.44 51.4425C223.598 51.4425 214.36 51.1315 213.29 52.4247C212.903 52.86 212.689 53.4064 212.684 53.9717C212.686 54.2521 212.779 54.5255 212.951 54.7552C213.124 54.9849 213.367 55.1599 213.649 55.2567C212.447 55.9279 210.816 56.6236 211.018 57.9168C211.13 58.3785 211.391 58.797 211.766 59.116C212.141 59.4351 212.611 59.6393 213.114 59.7012C214.125 59.7992 215.147 59.6988 216.114 59.4065C215.98 59.8104 215.987 60.2436 216.134 60.6437C216.28 61.0437 216.559 61.3901 216.93 61.6328C217.654 62.0178 218.475 62.2129 219.308 62.1976C220.846 62.2697 222.388 62.2067 223.913 62.0093C224.387 60.8307 225.668 59.5047 224.966 58.3997C223.396 55.8051 225.326 53.8407 223.44 51.4425Z" fill="white"/>
<path d="M224.475 51.4832C224.318 51.4832 233.143 51.1312 234.213 52.4245C234.607 52.8565 234.824 53.4044 234.827 53.9714C234.822 54.2511 234.728 54.5229 234.556 54.752C234.384 54.981 234.142 55.1567 233.862 55.2565C235.064 55.9276 236.687 56.6234 236.494 57.9166C236.38 58.3789 236.117 58.7977 235.741 59.1166C235.365 59.4356 234.893 59.6395 234.389 59.7009C233.377 59.798 232.356 59.6977 231.388 59.4063C231.526 59.8091 231.522 60.2426 231.377 60.6432C231.232 61.0438 230.953 61.3905 230.581 61.6326C229.855 62.0186 229.031 62.2138 228.195 62.1974C226.66 62.2699 225.121 62.2069 223.598 62.0091C223.124 60.8305 223.73 59.4063 224.388 58.3095C225.958 55.7148 222.589 53.8814 224.475 51.4832Z" fill="white"/>
<path d="M222.87 61.2646L226.423 65.6518L228.616 61.2646H222.87Z" fill="white"/>
<path d="M212.299 38.7886C211.405 39.3287 210.601 39.9877 209.913 40.7448C209.569 41.1262 209.318 41.5722 209.175 42.0524C209.033 42.5326 209.003 43.0358 209.088 43.5277C209.19 44.0158 209.473 44.455 209.886 44.769C210.3 45.0831 210.818 45.252 211.351 45.2465C210.579 46.2124 209.176 47.5302 208.912 48.7088C208.745 49.2914 208.78 49.9086 209.011 50.4717C209.243 51.0348 209.66 51.5151 210.202 51.8437C213.816 51.4999 217.457 51.3035 221.063 50.9597C221.115 49.2245 221.352 47.6857 221.396 45.9668C219.062 43.0857 215.536 40.8348 212.299 38.7886Z" fill="#263238"/>
<path d="M232.09 38.7886C232.981 39.3309 233.785 39.9897 234.476 40.7448C234.818 41.1271 235.069 41.5731 235.211 42.0531C235.353 42.533 235.384 43.0358 235.301 43.5277C235.198 44.0158 234.916 44.455 234.502 44.769C234.089 45.0831 233.57 45.252 233.037 45.2465C233.809 46.2124 235.213 47.5302 235.476 48.7088C235.644 49.2923 235.609 49.9104 235.375 50.4739C235.142 51.0374 234.723 51.5171 234.178 51.8437C230.572 51.4999 226.932 51.3035 223.326 50.9597C223.273 49.2245 223.037 47.6857 222.984 45.9668C225.353 43.0857 228.879 40.8348 232.09 38.7886Z" fill="#263238"/>
<path d="M220.194 42.9385C220.642 46.2125 220.922 52.1302 218.361 54.1356C220.273 56.5911 222.747 58.0153 225.519 60.7327C228.537 56.4601 229.09 54.774 229.09 54.774C225.3 53.6854 225.581 51.0335 226.458 48.5698L220.194 42.9385Z" fill="#FFC3BD"/>
<path opacity="0.2" d="M220.879 43.5522C220.792 45.4702 221.151 47.3829 221.932 49.159C222.476 50.3867 224.16 51.017 225.897 51.2462C225.923 50.3347 226.098 49.4322 226.415 48.5697L220.879 43.5522Z" fill="black"/>
<path d="M214.983 38.5837C216.299 43.8466 216.694 46.0893 220.08 48.4057C225.133 51.827 231.766 49.2242 232.187 43.6829C232.555 38.7719 230.344 30.9634 224.423 29.7193C223.113 29.4397 221.749 29.4765 220.459 29.8262C219.169 30.1759 217.995 30.827 217.05 31.7178C216.105 32.6087 215.419 33.7098 215.058 34.917C214.696 36.1241 214.67 37.3975 214.983 38.6164V38.5837Z" fill="#FFC3BD"/>
<path d="M219.37 28.3034C223.291 25.3649 227.265 26.8955 229.344 28.0742C230.385 28.6663 231.279 29.4563 231.97 30.3928C232.661 31.3293 233.132 32.3911 233.354 33.509C233.52 34.3848 233.126 36.3656 231.31 36.783C230.883 35.7501 230.249 34.8028 229.441 33.9919C228.178 32.9197 225.739 31.5364 224.721 31.7574C223.633 33.7136 221.897 37.3478 218.835 38.0272C216.528 38.5346 218.887 49.4862 214.194 44.9353C208.58 37.7652 211.51 34.2948 213.176 31.4382C214.843 28.5816 219.37 28.3034 219.37 28.3034Z" fill="#263238"/>
<path d="M228.546 43.9204C228.57 43.9059 228.589 43.8848 228.6 43.8599C228.611 43.835 228.614 43.8075 228.607 43.7812C228.599 43.7494 228.578 43.7216 228.549 43.7035C228.52 43.6853 228.484 43.678 228.449 43.683C227.88 43.8031 227.289 43.7961 226.723 43.6624C226.158 43.5287 225.634 43.2721 225.195 42.9136C225.167 42.89 225.131 42.877 225.094 42.877C225.057 42.877 225.021 42.89 224.993 42.9136C224.968 42.9379 224.955 42.9702 224.955 43.0037C224.955 43.0372 224.968 43.0694 224.993 43.0937C225.464 43.4841 226.029 43.7625 226.64 43.905C227.251 44.0475 227.89 44.05 228.502 43.9122L228.546 43.9204Z" fill="#263238"/>
<path d="M229.204 41.5222C229.497 41.5215 229.787 41.462 230.053 41.3476C230.32 41.2332 230.556 41.0666 230.748 40.8592C229.811 40.1804 228.976 39.3876 228.265 38.502L229.204 41.5222Z" fill="#ED893E"/>
<path d="M214.054 43.0118C214.214 43.5097 214.48 43.973 214.833 44.3747C215.187 44.7765 215.623 45.1089 216.115 45.3528C217.431 45.9748 218.387 44.9517 218.273 43.6503C218.168 42.4798 217.396 40.7364 215.922 40.6382C215.673 40.6272 215.423 40.6624 215.188 40.7417C214.953 40.8211 214.737 40.943 214.553 41.1005C214.369 41.2579 214.22 41.4479 214.114 41.6593C214.009 41.8707 213.95 42.0995 213.94 42.3325C213.934 42.5635 213.972 42.7936 214.054 43.0118Z" fill="#FFC3BD"/>
<path d="M210.842 71.0127C210.93 71.3155 211.018 71.5775 211.088 71.8312C211 71.5856 210.921 71.3237 210.833 71.0127H210.842Z" fill="#82A186"/>
<path d="M239.88 203.643L235.467 203.471L233.809 196.907L232.616 190.817L239.108 189.72L239.52 197.087L239.88 203.643Z" fill="#FFC3BD"/>
<path d="M246.513 211.517C245.799 211.018 244.993 210.646 244.135 210.42C244.135 210.42 241.503 208.185 240.029 201.204L236.696 200.524C236.13 200.421 235.545 200.48 235.016 200.695C234.488 200.91 234.043 201.27 233.74 201.727C233.65 201.855 233.585 201.997 233.547 202.145C233.413 202.892 233.328 203.647 233.292 204.404C233.219 206.977 233.313 209.552 233.573 212.114H234.169V207.261C234.169 205.624 235.626 207.498 236.082 209.25C236.538 211.001 237.442 212.859 241.345 212.802C245.811 212.728 247.679 212.499 246.513 211.517Z" fill="#2E353A"/>
<path d="M239.319 198.715C239.319 198.715 240.152 201.899 241.424 205.419C241.971 207.231 242.885 208.929 244.117 210.42C244.117 210.42 241.249 211.001 239.915 209.233C238.582 207.465 236.625 201.326 233.704 201.76C233.913 201.297 234.178 200.858 234.494 200.451C235.002 199.796 239.319 198.715 239.319 198.715Z" fill="#FFC3BD"/>
<path d="M240.415 150.735L239.433 195.081L233.59 195.646C230.781 185.233 228.94 174.613 228.09 163.905C227.853 160.238 228.791 155.973 228.362 153.068C227.976 150.53 226.897 148.975 225.379 143.197C223.545 136.248 221.633 126.925 222.124 119.665C222.124 119.665 214.141 111.889 216.176 101.289L223.291 99.5296L233.748 96.9268H237.038L237.108 98.22L240.415 150.735Z" fill="#263238"/>
<g opacity="0.1">
<path d="M240.415 150.735L239.433 195.081L233.59 195.646C230.781 185.233 228.94 174.613 228.09 163.905C227.853 160.238 228.791 155.973 228.362 153.068C227.976 150.53 226.897 148.975 225.379 143.197C223.545 136.248 221.633 126.925 222.124 119.665C222.124 119.665 214.141 111.889 216.176 101.289L223.291 99.5296L233.748 96.9268H236.687L236.757 98.22L240.415 150.735Z" fill="black"/>
</g>
<path d="M227.625 98.932L214.194 152.184L199.684 194.418L193.876 193.444C194.38 182.703 195.879 172.022 198.359 161.523C199.237 157.938 201.456 154.099 201.93 151.201C202.342 148.664 201.789 146.855 202.096 140.946C202.465 133.792 203.483 124.346 206.176 117.528C206.176 117.528 200.912 107.944 206.097 98.3345L227.625 98.932Z" fill="#263238"/>
<path d="M237.204 99.7505L227.23 100.479L206.096 98.3427L206.833 96.8203L233.756 96.9267L237.037 96.9431H237.073L237.116 98.2363L237.204 99.7505Z" fill="#263238"/>
<path d="M227.037 27.7713H219.317C220.082 27.299 220.661 26.6064 220.966 25.7987C221.405 24.5955 221.738 24.4809 221.94 23.114C222.104 22.0567 222.189 20.9901 222.194 19.9219C222.196 18.4752 221.987 17.035 221.571 15.6411H224.756C224.348 17.0338 224.136 18.47 224.124 19.9137C224.159 21.9283 224.578 23.9211 225.361 25.7987C225.676 26.6081 226.264 27.3003 227.037 27.7713Z" fill="#82A186"/>
<path opacity="0.2" d="M224.782 15.6411C224.651 16.345 224.501 16.9835 224.343 17.5892C223.869 19.539 223.06 21.4046 221.949 23.114C222.112 22.0567 222.197 20.9901 222.203 19.9219C222.205 18.4752 221.995 17.035 221.58 15.6411H224.782Z" fill="black"/>
<path d="M217.782 7.30049L216.773 8.46276L216.264 7.90618C215.561 7.25182 214.624 6.86392 213.632 6.81757H213.404C213.19 6.84724 212.985 6.91603 212.8 7.01997C212.615 7.12392 212.453 7.26097 212.325 7.42327C212.123 7.66697 211.974 7.94497 211.886 8.24177C211.861 8.3252 211.84 8.40991 211.825 8.4955C211.721 9.14631 211.796 9.81113 212.044 10.4272C212.193 10.9605 212.512 11.4391 212.958 11.8001C213.404 12.161 213.957 12.3872 214.544 12.4489H215.264V14.0368H214.544C212.939 14.0368 211.448 12.8745 210.728 11.0738C210.728 10.951 210.641 10.8282 210.606 10.7136C210.337 9.98246 210.258 9.20258 210.374 8.43742C210.49 7.67225 210.798 6.9434 211.272 6.3101C211.539 5.9667 211.886 5.68486 212.288 5.48621C212.689 5.28757 213.134 5.17741 213.588 5.1642C214.214 5.15941 214.833 5.27941 215.404 5.51616C216.098 5.79576 216.724 6.20209 217.246 6.71117L217.782 7.30049Z" fill="#82A186"/>
<path opacity="0.2" d="M215.422 5.54922C215.39 5.63225 215.339 5.70771 215.273 5.77021C215.058 5.95055 214.808 6.08962 214.536 6.17946C214.139 6.34678 213.764 6.55841 213.422 6.80971C213.208 6.83939 213.003 6.90817 212.817 7.01211C212.632 7.11605 212.471 7.25311 212.343 7.4154C212.079 7.74186 211.907 8.12447 211.843 8.52857C211.599 8.90514 211.402 9.30598 211.255 9.72358C211.162 10.117 210.941 10.4742 210.623 10.7467C210.192 9.52099 210.27 8.1887 210.843 7.01434C210.964 6.77575 211.115 6.55063 211.29 6.34317C211.557 5.99977 211.904 5.71792 212.305 5.51928C212.707 5.32064 213.152 5.21048 213.606 5.19727H213.852C214.394 5.22492 214.926 5.34417 215.422 5.54922Z" fill="white"/>
<path opacity="0.3" d="M213.851 5.1891C213.856 5.20525 213.856 5.22207 213.851 5.23821C213.792 5.46679 213.684 5.68179 213.533 5.87028C213.382 6.05877 213.192 6.21685 212.974 6.33501C212.445 6.66444 211.847 6.88488 211.22 6.98162C211.109 6.98974 210.997 6.98974 210.886 6.98162C211.008 6.74304 211.158 6.51791 211.334 6.31045C211.6 5.96705 211.948 5.68521 212.349 5.48656C212.75 5.28792 213.195 5.17776 213.65 5.16455L213.851 5.1891Z" fill="white"/>
<path opacity="0.2" d="M214.702 12.482C214.582 12.6375 214.408 12.7489 214.209 12.7967C214.01 12.8446 213.8 12.8259 213.614 12.7439C213.15 12.5828 212.733 12.3205 212.399 11.9788C212.065 11.6372 211.823 11.226 211.693 10.7795C211.464 9.94592 211.539 9.06503 211.904 8.2749C211.878 8.35834 211.858 8.44305 211.842 8.52864C211.738 9.17946 211.814 9.84427 212.062 10.4603C212.211 10.9936 212.529 11.4723 212.976 11.8332C213.422 12.1941 213.975 12.4204 214.562 12.482H214.702Z" fill="black"/>
<path d="M228.783 7.30049L229.792 8.46276L230.3 7.90618C231.003 7.25182 231.941 6.86392 232.932 6.81757H233.16C233.374 6.84724 233.579 6.91603 233.765 7.01997C233.95 7.12392 234.111 7.26097 234.239 7.42327C234.441 7.66697 234.59 7.94497 234.678 8.24177C234.708 8.32416 234.728 8.40918 234.739 8.4955C234.843 9.14631 234.768 9.81113 234.52 10.4272C234.371 10.9605 234.053 11.4391 233.606 11.8001C233.16 12.161 232.607 12.3872 232.02 12.4489H231.3V14.0368H232.02C233.625 14.0368 235.117 12.8745 235.836 11.0738L235.968 10.7136C236.234 9.98183 236.312 9.2016 236.195 8.43642C236.077 7.67124 235.768 6.94271 235.292 6.3101C235.025 5.9667 234.678 5.68486 234.277 5.48621C233.875 5.28757 233.43 5.17741 232.976 5.1642C232.351 5.15941 231.732 5.27941 231.16 5.51616C230.467 5.79576 229.84 6.20209 229.318 6.71117L228.783 7.30049Z" fill="#82A186"/>
<path opacity="0.2" d="M231.143 5.54922C231.174 5.63225 231.225 5.70771 231.292 5.77021C231.506 5.95055 231.756 6.08962 232.029 6.17946C232.426 6.34678 232.8 6.55841 233.143 6.80971C233.356 6.83939 233.562 6.90817 233.747 7.01211C233.932 7.11605 234.094 7.25311 234.222 7.4154C234.485 7.74186 234.657 8.12447 234.722 8.52857C234.965 8.90514 235.162 9.30598 235.31 9.72358C235.406 10.1178 235.629 10.4749 235.95 10.7467C236.374 9.51945 236.293 8.18862 235.722 7.01434C235.6 6.77575 235.45 6.55063 235.275 6.34317C235.008 5.99977 234.661 5.71792 234.259 5.51928C233.858 5.32064 233.413 5.21048 232.959 5.19727H232.713C232.171 5.22492 231.639 5.34417 231.143 5.54922Z" fill="white"/>
<path opacity="0.3" d="M232.713 5.1891C232.713 5.1891 232.713 5.1891 232.713 5.23821C232.772 5.46679 232.881 5.68179 233.031 5.87028C233.182 6.05877 233.372 6.21685 233.59 6.33501C234.119 6.66444 234.717 6.88488 235.345 6.98162C235.456 6.98974 235.567 6.98974 235.678 6.98162C235.556 6.74304 235.406 6.51791 235.231 6.31045C234.964 5.96705 234.617 5.68521 234.215 5.48656C233.814 5.28792 233.369 5.17776 232.915 5.16455L232.713 5.1891Z" fill="white"/>
<path opacity="0.2" d="M231.861 12.482C231.981 12.6375 232.156 12.7489 232.354 12.7967C232.553 12.8446 232.764 12.8259 232.949 12.7439C233.414 12.5828 233.831 12.3205 234.165 11.9788C234.499 11.6372 234.741 11.226 234.87 10.7795C235.103 9.94625 235.029 9.06411 234.66 8.2749C234.69 8.35729 234.71 8.44232 234.721 8.52864C234.825 9.17946 234.75 9.84427 234.502 10.4603C234.353 10.9936 234.034 11.4723 233.588 11.8332C233.142 12.1941 232.589 12.4204 232.002 12.482H231.861Z" fill="black"/>
<path d="M232.195 12.228C232.177 12.4511 232.142 12.6727 232.089 12.891C231.855 14.1423 231.11 15.26 230.01 16.0095C227.308 17.7038 222.992 18.1867 219.483 17.2291L219.176 17.139C218.297 16.8829 217.466 16.5019 216.711 16.0095C216.245 15.6908 215.844 15.2972 215.527 14.8472C214.959 14.0682 214.615 13.1665 214.527 12.228C214.437 11.3516 214.56 10.4676 214.886 9.64158L215 9.37147C215.188 8.95211 215.427 8.55397 215.711 8.18465C216.062 7.72629 216.474 7.36615 216.799 6.86686C217.143 6.44458 217.32 5.92386 217.299 5.39355L223.352 5.90103L229.405 5.39355C229.384 5.92386 229.561 6.44458 229.905 6.86686C230.23 7.32522 230.642 7.68536 230.993 8.18465C231.361 8.65097 231.656 9.16352 231.87 9.70705C232.169 10.5163 232.28 11.3757 232.195 12.228Z" fill="#82A186"/>
<path opacity="0.1" d="M224.58 10.1001C221.071 11.4915 217.255 10.493 215.667 9.92819C215.414 9.841 215.168 9.73706 214.93 9.61716L214.983 9.4862C215.181 9.01627 215.44 8.57091 215.755 8.16023C216.106 7.70187 216.518 7.34172 216.843 6.84244C217.187 6.42016 217.364 5.89944 217.343 5.36914L223.396 5.87661L228.045 5.58195C228.142 6.16309 228.247 8.63496 224.58 10.1001Z" fill="white"/>
<path opacity="0.1" d="M232.195 12.228C232.147 12.9683 231.926 13.69 231.549 14.343C231.172 14.9959 230.647 15.5646 230.011 16.0094C226.449 18.2439 220.229 18.3667 216.729 16.0094C216.102 15.5565 215.584 14.9859 215.208 14.3346C214.831 13.6833 214.606 12.9657 214.545 12.228C214.527 12.01 214.527 11.7911 214.545 11.5732C216.887 14.1269 221.423 14.9536 225.072 13.2102C227.011 12.3067 228.487 10.7233 229.178 8.80662C229.583 7.69298 229.638 6.49433 229.335 5.35254H229.493C229.472 5.88284 229.649 6.40357 229.993 6.82584C230.318 7.2842 230.73 7.64435 231.081 8.14363C231.971 9.33394 232.367 10.7855 232.195 12.228Z" fill="black"/>
<path opacity="0.1" d="M232.09 12.8913C231.855 14.1426 231.11 15.2603 230.011 16.0098C227.23 17.7532 222.747 18.2116 219.194 17.1393C218.747 16.9756 218.317 16.7874 217.869 16.5827C216.974 16.1609 216.182 15.57 215.545 14.8475C214.977 14.0684 214.633 13.1667 214.545 12.2283C214.459 11.3466 214.582 10.4581 214.904 9.62549C215.948 10.1495 217.064 10.5378 218.22 10.7796C219.081 11.0029 219.962 11.1536 220.852 11.2297C223.265 11.4344 227.993 11.4999 231.827 9.69097C232.152 10.7291 232.241 11.8191 232.09 12.8913Z" fill="black"/>
<path opacity="0.2" d="M232.195 12.2279C232.147 12.9683 231.926 13.6899 231.549 14.3429C231.172 14.9959 230.647 15.5645 230.011 16.0094C226.449 18.2439 220.229 18.3666 216.729 16.0094C216.102 15.5564 215.583 14.9859 215.207 14.3345C214.831 13.6832 214.605 12.9656 214.544 12.2279C214.544 12.0069 215.694 14.4215 215.685 14.1759C218.273 17.098 223.229 17.2535 227.089 15.6165C231.739 13.6357 230.941 9.06847 229.949 6.8667C230.274 7.31687 230.686 7.6852 231.028 8.16811C231.931 9.34519 232.345 10.7875 232.195 12.2279Z" fill="black"/>
<path opacity="0.3" d="M229.624 6.35956C221.869 8.414 216.913 5.54106 216.869 5.16455L223.369 5.88483L229.422 5.37736C229.394 5.7157 229.464 6.05486 229.624 6.35956Z" fill="black"/>
<path d="M230.098 4.55859C230.112 4.89901 230.024 5.23629 229.844 5.53261C226.607 6.6294 219.992 6.56392 216.895 5.53261C216.715 5.23629 216.627 4.89901 216.641 4.55859C217.694 5.21339 221.106 5.37709 223.37 5.4262C225.633 5.47531 229.046 5.18884 230.098 4.55859Z" fill="#82A186"/>
<path opacity="0.1" d="M228.09 6.00734H228.029C224.851 6.48737 221.608 6.4597 218.44 5.92549C217.91 5.83037 217.388 5.69905 216.879 5.53261C216.692 5.2385 216.6 4.90018 216.615 4.55859C217.868 5.04833 219.213 5.30148 220.572 5.30343C221.537 5.37709 222.519 5.40983 223.344 5.4262C224.837 5.40512 226.327 5.30949 227.809 5.13973H227.862C227.967 5.40983 228.029 6.00734 228.09 6.00734Z" fill="#82A186"/>
<path d="M230.098 4.55874C230.151 5.04165 227.142 5.44271 223.369 5.44271C219.597 5.44271 216.588 5.04165 216.641 4.55874C216.693 4.07582 219.702 3.74023 223.369 3.74023C227.036 3.74023 230.045 4.084 230.098 4.55874Z" fill="#82A186"/>
<path opacity="0.2" d="M229.432 4.46851C229.432 4.82865 226.8 5.11513 223.458 5.11513C220.115 5.11513 217.44 4.82865 217.466 4.46851C217.492 4.10837 220.168 3.83008 223.449 3.83008C226.73 3.83008 229.414 4.11656 229.432 4.46851Z" fill="black"/>
<path opacity="0.3" d="M220.019 8.07846C219.943 8.26283 219.808 8.42078 219.632 8.53068C219.456 8.64058 219.248 8.69704 219.037 8.69234C218.876 8.70526 218.715 8.68561 218.563 8.63475C218.412 8.58388 218.274 8.503 218.159 8.39768C218.063 8.30764 217.764 7.85746 218.054 7.57917C218.287 7.45653 218.55 7.39209 218.817 7.39209C219.085 7.39209 219.348 7.45653 219.58 7.57917C220.028 7.80835 220.054 7.93931 220.019 8.07846Z" fill="white"/>
<path opacity="0.3" d="M219.115 7.44006C219.606 7.50554 219.492 8.10304 218.975 8.11123C218.911 8.11843 218.846 8.11843 218.782 8.11123C218.273 8.03756 218.405 7.44006 218.922 7.43187C218.987 7.42649 219.052 7.42925 219.115 7.44006Z" fill="white"/>
<path opacity="0.2" d="M220.527 5.36064C220.184 5.58832 219.792 5.74461 219.378 5.819C219.09 5.88153 218.796 5.91717 218.501 5.92541C217.971 5.83029 217.449 5.69897 216.939 5.53252C216.806 5.31589 216.719 5.07664 216.685 4.82861C216.843 4.87944 217.009 4.90437 217.176 4.90228H217.422C217.422 4.90228 217.422 4.95958 217.545 4.98413L217.773 5.03324L218.545 5.15602L219.194 5.22968L219.755 5.28698L220.527 5.36064Z" fill="white"/>
<path opacity="0.2" d="M224.3 5.44284C223.753 5.95117 223.018 6.24419 222.247 6.26134C221.857 6.30929 221.462 6.30929 221.071 6.26134L220.729 6.21223C220.262 6.13402 219.808 5.99919 219.378 5.81117C219.016 5.69395 218.707 5.46611 218.501 5.16455C219.071 5.23822 219.755 5.30369 220.519 5.3528C221.282 5.40191 222.352 5.43466 223.361 5.43466H224.291L224.3 5.44284Z" fill="white"/>
<path opacity="0.3" d="M219.72 5.30321C219.706 5.35782 219.672 5.40628 219.624 5.44045C219.577 5.47461 219.517 5.49242 219.457 5.49088C219.457 5.49088 219.089 5.49087 219.159 5.24609L219.72 5.30321Z" fill="white"/>
<path d="M232.257 28.541H214.308C216.008 27.6552 217.923 27.1902 219.87 27.1904H226.695C228.642 27.1902 230.557 27.6552 232.257 28.541Z" fill="#82A186"/>
<path opacity="0.3" d="M232.257 28.541H214.308C216.008 27.6552 217.923 27.1902 219.87 27.1904H226.695C228.642 27.1902 230.557 27.6552 232.257 28.541Z" fill="white"/>
<path d="M236.757 94.7576C237.556 105.938 238.582 120.057 239.389 131.246C227.239 133.415 214.786 133.675 202.544 132.016C202.316 127.645 203.939 122.84 202.763 118.6C200.702 111.128 202.649 102.877 207.149 96.3782C214.168 95.8625 217.729 95.4451 224.747 94.9294C227.651 94.7166 236.757 94.7576 236.757 94.7576Z" fill="#82A186"/>
<path opacity="0.2" d="M236.757 94.7576C237.556 105.938 238.582 120.057 239.389 131.246C227.239 133.415 214.786 133.675 202.544 132.016C202.316 127.645 203.939 122.84 202.763 118.6C200.702 111.128 202.649 102.877 207.149 96.3782C214.168 95.8625 217.729 95.4451 224.747 94.9294C227.651 94.7166 236.757 94.7576 236.757 94.7576Z" fill="white"/>
<path d="M221.888 37.6669C221.842 37.6792 221.793 37.6792 221.747 37.6669C221.692 37.642 221.65 37.5984 221.629 37.545C221.607 37.4916 221.609 37.4327 221.633 37.3804C221.848 36.9585 222.162 36.5876 222.553 36.2955C222.943 36.0034 223.4 35.7979 223.888 35.6943C223.917 35.6841 223.947 35.6803 223.978 35.683C224.009 35.6857 224.038 35.6949 224.065 35.7099C224.091 35.7249 224.113 35.7453 224.13 35.7696C224.146 35.7938 224.156 35.8213 224.16 35.8498C224.171 35.906 224.159 35.964 224.126 36.0125C224.094 36.061 224.043 36.0963 223.984 36.1117C223.565 36.1982 223.172 36.374 222.837 36.6253C222.503 36.8766 222.235 37.1966 222.054 37.5605C222.036 37.5879 222.011 37.6115 221.983 37.6298C221.954 37.6481 221.922 37.6607 221.888 37.6669Z" fill="#263238"/>
<path d="M230.239 34.573C230.204 34.581 230.168 34.581 230.134 34.573C229.776 34.4646 229.397 34.4333 229.025 34.4815C228.652 34.5297 228.297 34.6562 227.984 34.8513C227.933 34.8831 227.87 34.8949 227.81 34.8842C227.749 34.8735 227.695 34.8411 227.66 34.794C227.626 34.7473 227.614 34.6901 227.625 34.6349C227.637 34.5797 227.671 34.5309 227.721 34.4994C228.091 34.2655 228.513 34.1137 228.956 34.0555C229.398 33.9974 229.849 34.0344 230.274 34.1638C230.331 34.1825 230.378 34.2209 230.406 34.2711C230.434 34.3214 230.44 34.3796 230.423 34.4339C230.407 34.4693 230.382 34.5005 230.349 34.5247C230.317 34.5489 230.279 34.5655 230.239 34.573Z" fill="#263238"/>
<path d="M225.458 38.4285C225.598 38.8541 225.536 39.247 225.229 39.3779C224.922 39.5089 224.554 39.2388 224.352 38.8132C224.15 38.3875 224.273 37.9946 224.58 37.8637C224.887 37.7327 225.308 38.011 225.458 38.4285Z" fill="#263238"/>
<path d="M224.51 37.929L225.335 37.2251C225.335 37.2251 225.168 38.1746 224.51 37.929Z" fill="#263238"/>
<path d="M230.572 37.2742C230.704 37.6998 230.642 38.0927 230.344 38.2237C230.046 38.3546 229.66 38.0763 229.467 37.6589C229.274 37.2415 229.405 36.8404 229.704 36.7094C230.002 36.5785 230.388 36.824 230.572 37.2742Z" fill="#263238"/>
<path d="M229.598 36.7669L230.432 36.063C230.432 36.063 230.256 37.0043 229.598 36.7669Z" fill="#263238"/>
<path opacity="0.1" d="M219.01 132.605L221.142 124.15C221.16 124.07 221.208 123.998 221.276 123.946C221.345 123.894 221.431 123.866 221.519 123.866C221.607 123.866 221.692 123.894 221.761 123.946C221.83 123.998 221.877 124.07 221.896 124.15L223.133 132.458L219.01 132.605Z" fill="black"/>
<path d="M159.662 229.752L156.899 240.655L162.171 240.966L165.189 230.08L159.662 229.752Z" fill="#FFB573"/>
<path d="M78.6294 243.577L89.9637 231.267L95.8853 235.122L82.1736 247.309L78.6294 243.577Z" fill="#FFB573"/>
<path d="M171.857 247.465C166.979 247.023 165.119 246.786 162.365 246.442C160.014 246.147 159.478 246.385 157.61 246.18C156.039 246 155.908 244.543 156.189 242.857C156.32 242.039 156.724 239.976 156.882 238.617L162.838 238.805C164.075 240.786 169.76 244.101 172.541 244.74C175.322 245.378 173.804 247.629 171.857 247.465Z" fill="#263238"/>
<path d="M83.183 258.015C80.367 254.209 79.3406 252.72 77.8229 250.51C76.5245 248.619 75.9894 248.398 74.9367 246.916C74.0594 245.664 75.1472 244.592 76.6912 243.692C77.4457 243.233 79.323 242.177 80.5073 241.392L84.2182 245.828C83.4549 248.038 84.5252 254.316 85.8236 256.738C87.0781 258.981 84.3059 259.53 83.183 258.015Z" fill="#263238"/>
<path d="M133.678 149.245L148.241 152.216C148.241 152.216 178.349 181.985 180.463 192.732C181.533 198.15 164.742 233.919 164.742 233.919L157.566 233.739C157.566 233.739 161.952 203.118 167.172 195.965L131.011 172.441C131.011 172.441 124.484 154.557 133.678 149.245Z" fill="#82A186"/>
<path opacity="0.5" d="M133.678 149.245L148.241 152.216C148.241 152.216 178.349 181.985 180.463 192.732C181.533 198.15 164.742 233.919 164.742 233.919L157.566 233.739C157.566 233.739 161.952 203.118 167.172 195.965L131.011 172.441C131.011 172.441 124.484 154.557 133.678 149.245Z" fill="white"/>
<path opacity="0.1" d="M154.162 187.264L131.651 164.551L130.915 171.803L154.162 187.264Z" fill="black"/>
<path d="M141.24 150.268C141.24 150.268 125.09 145.144 124.458 144.768C123.826 144.391 115.027 159.394 113.598 169.396C112.168 179.398 113.203 203.119 113.203 203.119C113.203 203.119 104.395 208.177 98.412 215.969L84.7793 235.711L89.9289 240.966L121.861 214.561C125.662 211.729 128.287 207.749 129.283 203.307L141.24 150.268Z" fill="#82A186"/>
<path opacity="0.5" d="M141.24 150.268C141.24 150.268 125.09 145.144 124.458 144.768C123.826 144.391 115.027 159.394 113.598 169.396C112.168 179.398 113.203 203.119 113.203 203.119C113.203 203.119 104.395 208.177 98.412 215.969L84.7793 235.711L89.9289 240.966L121.861 214.561C125.662 211.729 128.287 207.749 129.283 203.307L141.24 150.268Z" fill="white"/>
<path d="M144.109 118.142C144.934 118.527 145.653 118.854 146.434 119.173C147.214 119.492 147.951 119.787 148.75 120.098C150.294 120.671 151.873 121.203 153.513 121.694C156.876 122.764 160.379 123.4 163.926 123.585C164.935 123.618 165.945 123.569 166.944 123.438C168.074 123.3 169.175 123.002 170.208 122.554C172.166 121.684 173.845 120.348 175.076 118.682C176.155 117.224 176.973 115.613 177.498 113.91C177.753 113.104 177.955 112.284 178.103 111.455C178.187 111.047 178.24 110.634 178.261 110.219C178.261 109.793 178.322 109.4 178.349 108.926L174.471 108.328L174.041 109.228L173.576 110.153C173.252 110.775 172.91 111.365 172.532 111.954C171.873 113.033 171.062 114.024 170.12 114.901C169.387 115.601 168.485 116.126 167.488 116.431C167.039 116.553 166.577 116.627 166.111 116.652C165.525 116.672 164.939 116.655 164.356 116.603C162.981 116.463 161.619 116.22 160.286 115.875C158.882 115.539 157.47 115.114 156.048 114.647C154.627 114.18 153.215 113.657 151.794 113.133L149.68 112.314C148.995 112.036 148.25 111.741 147.662 111.496L144.109 118.142Z" fill="#FFB573"/>
<path d="M135.16 115.784C133.774 110.26 138.669 107.117 146.652 109.236C150.932 110.299 155.102 111.718 159.11 113.476L154.399 125.942C146.617 124.321 136.581 121.465 135.16 115.784Z" fill="#82A186"/>
<path opacity="0.1" d="M135.16 115.784C133.774 110.26 138.669 107.117 146.652 109.236C150.932 110.299 155.102 111.718 159.11 113.476L154.399 125.942C146.617 124.321 136.581 121.465 135.16 115.784Z" fill="black"/>
<path d="M173.48 106.928L173.989 104.235L179.042 106.92C179.042 106.92 178.384 111.553 175.945 111.209L174.866 110.251C174.399 109.819 174.035 109.299 173.796 108.727C173.557 108.154 173.45 107.542 173.48 106.928Z" fill="#FFB573"/>
<path d="M175.778 101.723L180.796 102.762L179.024 106.937L173.98 104.252L175.778 101.723Z" fill="#FFB573"/>
<path d="M136.24 107.64L129.353 107.018L120.861 108.074C119.57 108.229 118.369 108.778 117.446 109.635C116.523 110.491 115.929 111.609 115.756 112.813C115.036 117.667 115.756 146.593 117.282 155.375L122.353 155.866C130.696 156.447 141.372 155.162 149.171 152.322C149.171 152.322 149.601 120.523 149.539 114.368C149.529 113.16 149.095 111.989 148.302 111.034C147.51 110.079 146.404 109.392 145.153 109.081L136.24 107.64Z" fill="#82A186"/>
<path d="M124.573 108.091C124.471 109.251 124.841 110.405 125.608 111.324C126.37 112.243 127.254 113.068 128.24 113.779C129.441 114.72 130.871 115.719 132.415 115.465C133.959 115.212 134.626 114.516 135.135 112.903C136.451 114.696 136.547 115.613 137.907 115.678C138.344 115.639 138.767 115.511 139.146 115.303C139.525 115.095 139.851 114.812 140.1 114.475C141.062 113.667 141.645 112.538 141.723 111.332C141.934 108.983 139.802 106.896 137.389 106.167C134.948 105.517 132.427 105.159 129.889 105.103C127.669 104.923 124.906 105.676 124.573 108.091Z" fill="#82A186"/>
<path opacity="0.6" d="M124.573 108.091C124.471 109.251 124.841 110.405 125.608 111.324C126.37 112.243 127.254 113.068 128.24 113.779C129.441 114.72 130.871 115.719 132.415 115.465C133.959 115.212 134.626 114.516 135.135 112.903C136.451 114.696 136.547 115.613 137.907 115.678C138.344 115.639 138.767 115.511 139.146 115.303C139.525 115.095 139.851 114.812 140.1 114.475C141.062 113.667 141.645 112.538 141.723 111.332C141.934 108.983 139.802 106.896 137.389 106.167C134.948 105.517 132.427 105.159 129.889 105.103C127.669 104.923 124.906 105.676 124.573 108.091Z" fill="white"/>
<path d="M130.02 96.6235L133.274 99.8239L137.661 104.186C137.298 104.684 137.033 105.239 136.88 105.823C136.62 106.447 136.611 107.137 136.855 107.766C137.098 108.395 137.578 108.92 138.205 109.245C138.863 109.499 139.336 112.617 135.099 112.462C133.893 112.491 132.693 112.289 131.574 111.866C130.456 111.444 129.443 110.81 128.599 110.006C127.774 109.073 127.546 108.557 128.292 107.469C130.467 104.399 130.441 100.061 130.02 96.6235Z" fill="#FFB573"/>
<path opacity="0.2" d="M136.626 103.106L133.818 99.9385C133.818 100.037 133.757 100.143 133.731 100.258C133.624 100.724 133.557 101.198 133.529 101.674C133.45 103.311 135.178 105.316 136.819 106.143L136.924 105.815C137.084 105.264 137.323 104.735 137.635 104.244L137.714 104.17L136.626 103.106Z" fill="black"/>
<path d="M139.486 95.5918C141.986 90.9182 141.407 88.2908 143.872 85.7698C145.188 85.205 147.53 87.4559 146.039 91.3356C144.548 95.2153 139.486 95.5918 139.486 95.5918Z" fill="#263238"/>
<path d="M130.02 90.4762C129.792 95.8701 129.414 99.0214 132.029 101.935C137.713 106.985 143.345 104.464 145.275 99.2096C147.03 94.4787 147.03 86.4492 141.617 83.9036C140.407 83.3399 139.063 83.0711 137.711 83.1224C136.359 83.1737 135.043 83.5433 133.885 84.1969C132.728 84.8505 131.766 85.7668 131.09 86.8604C130.414 87.954 130.046 89.1895 130.02 90.4517V90.4762Z" fill="#FFB573"/>
<path d="M129.398 95.2727L131.872 95.7229L132.889 92.2443L135.442 90.8528L136.319 87.808C136.403 87.5044 136.417 87.1878 136.361 86.8788C136.305 86.5698 136.179 86.2752 135.993 86.0143C135.807 85.7534 135.564 85.5319 135.28 85.3643C134.996 85.1967 134.678 85.0867 134.346 85.0414C132.731 84.8204 130.784 84.5585 129.722 84.4358C129.012 84.3621 126.555 86.1874 126.213 86.9404C125.749 88.0087 125.614 89.1766 125.821 90.3129C126.029 91.4493 126.572 92.5092 127.389 93.3738C127.993 94.0645 128.665 94.7003 129.398 95.2727Z" fill="#263238"/>
<path d="M127.204 94.4052C127.379 95.5996 128.019 96.6921 129.002 97.4746C130.283 98.4731 131.73 97.2699 131.836 95.7393C131.915 94.3643 131.09 92.408 129.581 92.007C128.072 91.6059 127.028 92.8991 127.204 94.4052Z" fill="#FFB573"/>
<path d="M139.599 93.3083C139.538 93.7585 139.731 94.1268 140.047 94.2087C140.362 94.2905 140.626 93.9467 140.722 93.5047C140.819 93.0628 140.599 92.6862 140.284 92.6044C139.968 92.5225 139.669 92.8663 139.599 93.3083Z" fill="#263238"/>
<path d="M141.749 100.192C141.687 100.634 141.88 101.01 142.187 101.084C142.494 101.158 142.775 100.822 142.872 100.38C142.968 99.9382 142.749 99.5617 142.433 99.4799C142.117 99.398 141.819 99.7418 141.749 100.192Z" fill="#263238"/>
<path d="M144.354 93.9553C144.284 94.4055 144.485 94.7738 144.792 94.8556C145.099 94.9375 145.407 94.5855 145.477 94.1517C145.547 93.7179 145.345 93.3332 145.038 93.2514C144.731 93.1695 144.424 93.5133 144.354 93.9553Z" fill="#263238"/>
<path d="M142.731 94.2168C143.307 95.3706 144.041 96.4492 144.916 97.4253C144.646 97.6209 144.333 97.7583 143.999 97.8277C143.665 97.897 143.319 97.8966 142.986 97.8264L142.731 94.2168Z" fill="#FF5652"/>
<path d="M138.082 92.0724C138.035 92.0619 137.992 92.0392 137.959 92.007C137.906 91.9565 137.877 91.889 137.877 91.8187C137.877 91.7484 137.906 91.6809 137.959 91.6304C138.279 91.3411 138.67 91.1294 139.099 91.0138C139.527 90.8983 139.979 90.8823 140.415 90.9675C140.486 90.9866 140.547 91.0304 140.584 91.0897C140.622 91.149 140.633 91.2195 140.617 91.2867C140.595 91.3535 140.546 91.41 140.481 91.4448C140.416 91.4797 140.339 91.4905 140.266 91.4749C139.924 91.4113 139.57 91.4265 139.235 91.5192C138.9 91.6119 138.595 91.7793 138.345 92.007C138.311 92.0385 138.269 92.0612 138.223 92.0727C138.176 92.0842 138.128 92.0841 138.082 92.0724Z" fill="#263238"/>
<path d="M144.486 92.0563C144.473 92.0108 144.473 91.9627 144.486 91.9172C144.494 91.8831 144.51 91.8509 144.532 91.8225C144.553 91.7941 144.581 91.77 144.613 91.7517C144.645 91.7334 144.68 91.7213 144.717 91.7159C144.754 91.7106 144.792 91.7123 144.828 91.7208C145.264 91.8015 145.673 91.9811 146.017 92.2437C146.361 92.5064 146.631 92.844 146.802 93.2268C146.828 93.2919 146.824 93.3638 146.793 93.4267C146.762 93.4896 146.705 93.5384 146.635 93.5624C146.601 93.5753 146.564 93.5815 146.527 93.5807C146.49 93.5798 146.453 93.5718 146.42 93.5572C146.386 93.5426 146.356 93.5218 146.331 93.4959C146.306 93.4701 146.287 93.4398 146.276 93.4069C146.134 93.1083 145.918 92.8461 145.644 92.6423C145.371 92.4386 145.049 92.2993 144.705 92.2364C144.655 92.2265 144.609 92.2047 144.571 92.1731C144.532 92.1416 144.503 92.1014 144.486 92.0563Z" fill="#263238"/>
<path d="M107.43 106.912C102.693 105.561 99.7888 106.372 98.8589 103.597C97.929 100.822 96.885 85.5243 97.6132 85.3442C96.2622 85.7371 95.0866 86.1627 93.7444 86.5556C93.2532 90.7627 92.7122 94.9671 92.1215 99.1687C91.6916 102.238 91.1653 107.215 92.525 110.038C93.7532 112.584 101.85 114.172 107.711 115.22C109.43 113.615 107.43 106.912 107.43 106.912Z" fill="#FFB573"/>
<path d="M122.352 115.334C126.449 111.119 123.23 107.354 115.194 105.578C110.902 104.564 106.522 103.915 102.105 103.638L100.245 115.473C107.904 117.577 118.159 119.639 122.352 115.334Z" fill="#82A186"/>
<path d="M98.9475 88.9948L100.369 86.7767L93.9734 85.4507C93.9734 85.4507 91.1924 90.3617 93.6751 91.2948L95.2454 90.9592C96.6052 90.6891 98.2544 90.2307 98.9475 88.9948Z" fill="#FFB573"/>
<path d="M99.6311 82.7497L95.8676 82.5942L93.9814 85.4508L100.377 86.7768L99.6311 82.7497Z" fill="#FFB573"/>
<path d="M156.645 231.693C156.847 231.619 167.348 232.29 167.348 232.29L166.47 235.286L155.873 235.114L156.645 231.693Z" fill="#82A186"/>
<path d="M84.6822 234.295C84.884 234.369 92.0688 241.547 92.0688 241.547L89.2001 243.184L81.5854 236.276L84.6822 234.295Z" fill="#82A186"/>
</svg>
