<svg width="437" height="297" viewBox="0 0 437 297" fill="none" xmlns="http://www.w3.org/2000/svg">
<path d="M392.652 275.558H363.747V275.769H392.652V275.558Z" fill="#EBEBEB"/>
<path d="M289.074 277.859H281.49V278.07H289.074V277.859Z" fill="#EBEBEB"/>
<path d="M362.874 267.708H346.126V267.919H362.874V267.708Z" fill="#EBEBEB"/>
<path d="M83.479 269.129H45.7847V269.34H83.479V269.129Z" fill="#EBEBEB"/>
<path d="M96.7799 269.129H91.2554V269.34H96.7799V269.129Z" fill="#EBEBEB"/>
<path d="M196.501 272.699H114.741V272.91H196.501V272.699Z" fill="#EBEBEB"/>
<path d="M436.377 261.947H0V262.159H436.377V261.947Z" fill="#EBEBEB"/>
<path d="M155.953 19.9102H50.5239V262.455H155.953V19.9102Z" fill="#EBEBEB"/>
<path d="M151.467 24.3091H55.001V262.464H151.467V24.3091Z" fill="#F5F5F5"/>
<path d="M100.978 55.7256H62.3059V142.946H100.978V55.7256Z" fill="#FAFAFA"/>
<path d="M144.685 55.7256H106.013V142.946H144.685V55.7256Z" fill="#FAFAFA"/>
<path d="M144.685 169.321H62.3059V256.542H144.685V169.321Z" fill="#EBEBEB"/>
<path d="M77.3871 30.6279H129.604C133.604 30.6279 137.44 32.1679 140.268 34.9092C143.096 37.6504 144.685 41.3684 144.685 45.2451V51.2087H62.3059V45.2451C62.3059 43.3255 62.696 41.4248 63.4539 39.6513C64.2118 37.8779 65.3227 36.2665 66.7231 34.9092C68.1235 33.5519 69.786 32.4752 71.6158 31.7406C73.4455 31.006 75.4066 30.6279 77.3871 30.6279Z" fill="#FAFAFA"/>
<path d="M69.3403 146.871H62.3059V164.635H69.3403V146.871Z" fill="#E6E6E6"/>
<path d="M69.3408 164.635H70.7197V146.871H69.3408V164.635Z" fill="#E0E0E0"/>
<path d="M67.0104 153.85C67.0104 154.419 66.8364 154.975 66.5103 155.448C66.1843 155.92 65.7208 156.289 65.1786 156.507C64.6364 156.724 64.0398 156.781 63.4641 156.67C62.8885 156.56 62.3598 156.286 61.9448 155.883C61.5298 155.481 61.2472 154.969 61.1327 154.411C61.0182 153.853 61.077 153.275 61.3016 152.749C61.5262 152.224 61.9065 151.774 62.3945 151.458C62.8825 151.142 63.4562 150.974 64.0431 150.974C64.83 150.974 65.5848 151.277 66.1413 151.816C66.6978 152.355 67.0104 153.087 67.0104 153.85Z" fill="#E0E0E0"/>
<path d="M66.4431 158.815H64.9158V162.411H66.4431V158.815Z" fill="#E0E0E0"/>
<path d="M61.4332 157.868C63.7227 157.868 65.5788 156.069 65.5788 153.85C65.5788 151.631 63.7227 149.832 61.4332 149.832C59.1436 149.832 57.2876 151.631 57.2876 153.85C57.2876 156.069 59.1436 157.868 61.4332 157.868Z" fill="#EBEBEB"/>
<path d="M258.693 24.2412H226.34V64.9713H258.693V24.2412Z" fill="#F5F5F5"/>
<path d="M256.197 27.3711H228.827V61.8415H256.197V27.3711Z" fill="#EBEBEB"/>
<path d="M254.487 29.5278H230.538V59.6841H254.487V29.5278Z" fill="#FAFAFA"/>
<path d="M288.55 70.4443H256.197V97.1663H288.55V70.4443Z" fill="#EBEBEB"/>
<path d="M286.063 72.4995H258.693V95.1104H286.063V72.4995Z" fill="#F5F5F5"/>
<path d="M284.352 73.9126H260.404V93.6982H284.352V73.9126Z" fill="#FAFAFA"/>
<path d="M293.167 62.6704V41.1084H264.261V62.6704H293.167Z" fill="#E6E6E6"/>
<path d="M290.95 61.0127V42.7666H266.496V61.0127H290.95Z" fill="#F0F0F0"/>
<path d="M289.415 59.8703V43.9082H268.023V59.8703H289.415Z" fill="#EBEBEB"/>
<path d="M378.06 248.311C378.06 254.03 378.985 257.735 380.538 260.103C381.136 260.974 381.949 261.685 382.904 262.173C383.858 262.66 384.923 262.909 386.002 262.895H394.546C395.625 262.91 396.691 262.663 397.646 262.175C398.6 261.687 399.413 260.975 400.01 260.103C401.572 257.735 402.497 254.03 402.497 248.311C402.497 240.021 398.762 233.381 397.548 228.077C397.103 226.166 398.57 220.312 398.57 220.312H381.987C381.987 220.312 383.445 226.166 383.008 228.077C381.786 233.381 378.06 240.021 378.06 248.311Z" fill="#E6E6E6"/>
<path d="M349.818 214.746C349.818 207.548 361.469 210.517 364.402 199.359C365.519 195.13 356.041 185.546 356.041 185.546H385.583C385.583 185.546 376.105 195.13 377.222 199.359C380.155 210.534 391.806 207.548 391.806 214.746C391.806 222.681 375.372 239.193 374.578 257.786C374.508 259.478 377.667 262.861 377.667 262.861H363.939C363.939 262.861 367.098 259.418 367.029 257.786C366.252 239.193 349.818 222.698 349.818 214.746Z" fill="#F0F0F0"/>
<path d="M358.746 233.457C357 229.964 360.579 218.062 360.579 218.062H347.775C347.775 218.062 351.327 229.964 349.608 233.457C348.404 235.927 345.646 237.509 345.646 240.436V258.005C345.646 262.556 349.486 262.895 354.181 262.895C358.877 262.895 362.717 262.556 362.717 258.005V240.461C362.717 237.509 359.959 235.927 358.746 233.457Z" fill="#E6E6E6"/>
<path d="M213.982 296.891C307.439 296.891 383.201 292.604 383.201 287.316C383.201 282.027 307.439 277.74 213.982 277.74C120.526 277.74 44.7639 282.027 44.7639 287.316C44.7639 292.604 120.526 296.891 213.982 296.891Z" fill="#F5F5F5"/>
<path d="M259.12 258.225L240.007 217.157H195.322L202.182 255.586C202.271 256.081 202.247 256.589 202.113 257.075C201.979 257.561 201.737 258.012 201.405 258.399C201.073 258.785 200.658 259.096 200.19 259.312C199.721 259.527 199.21 259.641 198.691 259.646H179.071C178.569 259.646 178.087 259.84 177.732 260.184C177.377 260.528 177.177 260.995 177.177 261.482V263.529C177.177 264.016 177.377 264.483 177.732 264.827C178.087 265.171 178.569 265.365 179.071 265.365H257.742C258.288 265.365 258.812 265.154 259.198 264.78C259.584 264.405 259.801 263.898 259.801 263.368V261.245C259.795 260.203 259.563 259.174 259.12 258.225ZM238.427 253.15H216.975C216.298 253.151 215.643 252.92 215.125 252.497C214.607 252.074 214.261 251.487 214.147 250.84L210.909 232.713C210.838 232.313 210.858 231.902 210.968 231.51C211.078 231.118 211.275 230.754 211.545 230.444C211.815 230.134 212.152 229.884 212.532 229.714C212.913 229.543 213.327 229.455 213.746 229.456H229.97C230.522 229.456 231.063 229.611 231.527 229.9C231.991 230.189 232.36 230.602 232.589 231.089L241.046 249.216C241.242 249.641 241.326 250.106 241.289 250.57C241.253 251.033 241.098 251.481 240.838 251.872C240.578 252.262 240.221 252.584 239.8 252.807C239.379 253.03 238.907 253.148 238.427 253.15Z" fill="#B47867"/>
<path opacity="0.2" d="M259.12 258.225L240.007 217.157H195.322L202.182 255.586C202.271 256.081 202.247 256.589 202.113 257.075C201.979 257.561 201.737 258.012 201.405 258.399C201.073 258.785 200.658 259.096 200.19 259.312C199.721 259.527 199.21 259.641 198.691 259.646H179.071C178.569 259.646 178.087 259.84 177.732 260.184C177.377 260.528 177.177 260.995 177.177 261.482V263.529C177.177 264.016 177.377 264.483 177.732 264.827C178.087 265.171 178.569 265.365 179.071 265.365H257.742C258.288 265.365 258.812 265.154 259.198 264.78C259.584 264.405 259.801 263.898 259.801 263.368V261.245C259.795 260.203 259.563 259.174 259.12 258.225ZM238.427 253.15H216.975C216.298 253.151 215.643 252.92 215.125 252.497C214.607 252.074 214.261 251.487 214.147 250.84L210.909 232.713C210.838 232.313 210.858 231.902 210.968 231.51C211.078 231.118 211.275 230.754 211.545 230.444C211.815 230.134 212.152 229.884 212.532 229.714C212.913 229.543 213.327 229.455 213.746 229.456H229.97C230.522 229.456 231.063 229.611 231.527 229.9C231.991 230.189 232.36 230.602 232.589 231.089L241.046 249.216C241.242 249.641 241.326 250.106 241.289 250.57C241.253 251.033 241.098 251.481 240.838 251.872C240.578 252.262 240.221 252.584 239.8 252.807C239.379 253.03 238.907 253.148 238.427 253.15Z" fill="white"/>
<path d="M216.269 229.414H213.746C213.327 229.413 212.913 229.501 212.533 229.672C212.153 229.842 211.815 230.092 211.545 230.402C211.275 230.712 211.078 231.076 210.968 231.468C210.858 231.86 210.838 232.271 210.91 232.671L214.148 250.798C214.261 251.445 214.608 252.032 215.125 252.455C215.643 252.878 216.299 253.109 216.975 253.108H219.506C218.829 253.109 218.174 252.878 217.656 252.455C217.139 252.032 216.792 251.445 216.679 250.798L213.441 232.671C213.37 232.271 213.389 231.862 213.499 231.47C213.608 231.079 213.804 230.715 214.073 230.405C214.343 230.095 214.679 229.846 215.058 229.674C215.437 229.503 215.85 229.414 216.269 229.414Z" fill="#B47867"/>
<path d="M261.652 258.225L242.521 217.19H240.008L259.121 258.225C259.569 259.185 259.801 260.226 259.802 261.279V263.402C259.802 263.664 259.748 263.924 259.645 264.166C259.541 264.408 259.39 264.628 259.198 264.814C259.007 264.999 258.78 265.146 258.53 265.246C258.28 265.347 258.012 265.398 257.742 265.398H260.273C260.543 265.398 260.811 265.347 261.061 265.246C261.311 265.146 261.538 264.999 261.729 264.814C261.921 264.628 262.072 264.408 262.176 264.166C262.279 263.924 262.333 263.664 262.333 263.402V261.279C262.332 260.226 262.1 259.185 261.652 258.225Z" fill="#B47867"/>
<g opacity="0.2">
<path d="M216.269 229.414H213.746C213.327 229.413 212.913 229.501 212.533 229.671C212.153 229.842 211.815 230.091 211.545 230.401C211.275 230.712 211.078 231.076 210.968 231.468C210.858 231.86 210.838 232.27 210.91 232.67L214.148 250.798C214.261 251.445 214.608 252.032 215.125 252.454C215.643 252.877 216.299 253.109 216.975 253.107H219.506C218.829 253.109 218.174 252.877 217.656 252.454C217.139 252.032 216.792 251.445 216.679 250.798L213.441 232.67C213.37 232.271 213.389 231.861 213.499 231.47C213.608 231.078 213.804 230.715 214.073 230.405C214.343 230.094 214.679 229.845 215.058 229.674C215.437 229.503 215.85 229.414 216.269 229.414Z" fill="black"/>
<path d="M261.652 258.225L242.521 217.19H240.008L259.121 258.225C259.569 259.185 259.801 260.226 259.802 261.279V263.402C259.802 263.664 259.748 263.924 259.645 264.166C259.541 264.408 259.39 264.628 259.198 264.814C259.007 264.999 258.78 265.146 258.53 265.246C258.28 265.347 258.012 265.398 257.742 265.398H260.273C260.543 265.398 260.811 265.347 261.061 265.246C261.311 265.146 261.538 264.999 261.729 264.814C261.921 264.628 262.072 264.408 262.176 264.166C262.279 263.924 262.333 263.664 262.333 263.402V261.279C262.332 260.226 262.1 259.185 261.652 258.225Z" fill="black"/>
</g>
<path opacity="0.2" d="M239.99 217.157H195.304L197.059 226.961H244.563L239.99 217.157Z" fill="black"/>
<path d="M304.094 221.462H113.458C112.564 221.479 111.677 221.31 110.856 220.967C110.036 220.624 109.3 220.116 108.698 219.475C108.097 218.834 107.643 218.076 107.368 217.252C107.093 216.428 107.003 215.556 107.104 214.695L119.148 81.1784C119.338 79.346 120.215 77.6449 121.613 76.3975C123.011 75.1502 124.833 74.4435 126.733 74.4112H317.368C318.262 74.3949 319.149 74.5637 319.97 74.9065C320.791 75.2492 321.527 75.758 322.128 76.3987C322.73 77.0394 323.183 77.7973 323.458 78.6216C323.733 79.446 323.823 80.3177 323.722 81.1784L311.669 214.704C311.479 216.534 310.603 218.233 309.207 219.479C307.811 220.724 305.991 221.43 304.094 221.462Z" fill="#B47867"/>
<path opacity="0.5" d="M304.094 221.462H113.458C112.564 221.479 111.677 221.31 110.856 220.967C110.036 220.624 109.3 220.116 108.698 219.475C108.097 218.834 107.643 218.076 107.368 217.252C107.093 216.428 107.003 215.556 107.104 214.695L119.148 81.1784C119.338 79.346 120.215 77.6449 121.613 76.3975C123.011 75.1502 124.833 74.4435 126.733 74.4112H317.368C318.262 74.3949 319.149 74.5637 319.97 74.9065C320.791 75.2492 321.527 75.758 322.128 76.3987C322.73 77.0394 323.183 77.7973 323.458 78.6216C323.733 79.446 323.823 80.3177 323.722 81.1784L311.669 214.704C311.479 216.534 310.603 218.233 309.207 219.479C307.811 220.724 305.991 221.43 304.094 221.462Z" fill="white"/>
<path d="M108.396 200.272L107.095 214.704C106.995 215.564 107.085 216.436 107.36 217.26C107.634 218.085 108.088 218.842 108.689 219.483C109.291 220.124 110.027 220.633 110.848 220.975C111.669 221.318 112.556 221.487 113.449 221.471H304.094C305.993 221.438 307.813 220.731 309.21 219.484C310.606 218.236 311.481 216.535 311.669 214.704L312.978 200.272H108.396Z" fill="#B47867"/>
<path opacity="0.7" d="M108.396 200.272L107.095 214.704C106.995 215.564 107.085 216.436 107.36 217.26C107.634 218.085 108.088 218.842 108.689 219.483C109.291 220.124 110.027 220.633 110.848 220.975C111.669 221.318 112.556 221.487 113.449 221.471H304.094C305.993 221.438 307.813 220.731 309.21 219.484C310.606 218.236 311.481 216.535 311.669 214.704L312.978 200.272H108.396Z" fill="white"/>
<path d="M306.25 196.187H115.858C115.374 196.196 114.894 196.104 114.449 195.919C114.004 195.734 113.606 195.458 113.279 195.112C112.953 194.765 112.707 194.355 112.557 193.909C112.407 193.463 112.357 192.99 112.411 192.524L122.369 82.1765C122.474 81.1844 122.95 80.2637 123.707 79.5888C124.465 78.9138 125.451 78.5314 126.48 78.5138H316.871C317.355 78.5049 317.836 78.5962 318.28 78.7816C318.725 78.967 319.124 79.2422 319.45 79.5888C319.777 79.9355 320.023 80.3456 320.173 80.7919C320.322 81.2381 320.372 81.7102 320.319 82.1765L310.36 192.524C310.256 193.516 309.78 194.437 309.023 195.112C308.265 195.787 307.279 196.169 306.25 196.187Z" fill="#B47867"/>
<path opacity="0.8" d="M306.25 196.187H115.858C115.374 196.196 114.894 196.104 114.449 195.919C114.004 195.734 113.606 195.458 113.279 195.112C112.953 194.765 112.707 194.355 112.557 193.909C112.407 193.463 112.357 192.99 112.411 192.524L122.369 82.1765C122.474 81.1844 122.95 80.2637 123.707 79.5888C124.465 78.9138 125.451 78.5314 126.48 78.5138H316.871C317.355 78.5049 317.836 78.5962 318.28 78.7816C318.725 78.967 319.124 79.2422 319.45 79.5888C319.777 79.9355 320.023 80.3456 320.173 80.7919C320.322 81.2381 320.372 81.7102 320.319 82.1765L310.36 192.524C310.256 193.516 309.78 194.437 309.023 195.112C308.265 195.787 307.279 196.169 306.25 196.187Z" fill="white"/>
<path d="M321.584 74.4366H317.368C318.262 74.4203 319.149 74.5891 319.97 74.9319C320.791 75.2746 321.527 75.7834 322.128 76.4241C322.73 77.0648 323.183 77.8227 323.458 78.647C323.733 79.4714 323.823 80.3431 323.722 81.2038L311.669 214.704C311.481 216.535 310.606 218.236 309.21 219.484C307.813 220.731 305.993 221.438 304.094 221.471H308.309C310.208 221.438 312.029 220.731 313.425 219.484C314.821 218.236 315.697 216.535 315.885 214.704L327.937 81.1869C328.036 80.3275 327.944 79.4576 327.667 78.6354C327.391 77.8131 326.938 77.0574 326.336 76.4186C325.735 75.7797 325 75.2725 324.181 74.9308C323.361 74.589 322.476 74.4206 321.584 74.4366Z" fill="#B47867"/>
<path opacity="0.2" d="M321.584 74.4366H317.368C318.262 74.4203 319.149 74.5891 319.97 74.9319C320.791 75.2746 321.527 75.7834 322.128 76.4241C322.73 77.0648 323.183 77.8227 323.458 78.647C323.733 79.4714 323.823 80.3431 323.722 81.2038L311.669 214.704C311.481 216.535 310.606 218.236 309.21 219.484C307.813 220.731 305.993 221.438 304.094 221.471H308.309C310.208 221.438 312.029 220.731 313.425 219.484C314.821 218.236 315.697 216.535 315.885 214.704L327.937 81.1869C328.036 80.3275 327.944 79.4576 327.667 78.6354C327.391 77.8131 326.938 77.0574 326.336 76.4186C325.735 75.7797 325 75.2725 324.181 74.9308C323.361 74.589 322.476 74.4206 321.584 74.4366Z" fill="white"/>
<path d="M206.642 145.628C206.74 144.502 206.76 143.372 206.703 142.244L211.293 139.884C211.144 138.549 210.899 137.227 210.56 135.925L205.551 136.01C204.858 133.921 203.856 131.94 202.575 130.131L205.516 125.969C204.682 124.936 203.769 123.967 202.784 123.067L198.272 125.563C196.53 124.172 194.59 123.032 192.512 122.179L193.035 117.332C191.734 116.887 190.401 116.533 189.047 116.275L186.228 120.504C185.071 120.35 183.905 120.274 182.737 120.276C181.569 120.277 180.403 120.353 179.246 120.504L177.195 116.275C175.779 116.537 174.382 116.89 173.014 117.332L172.657 122.179C170.397 123.048 168.257 124.184 166.286 125.563L162.218 123.067C161.074 123.97 159.987 124.939 158.963 125.969L161.162 130.131C159.568 131.919 158.21 133.894 157.122 136.01L152.129 135.925C151.559 137.213 151.075 138.535 150.681 139.884L154.844 142.244C154.585 143.359 154.402 144.489 154.294 145.628C154.193 146.753 154.17 147.883 154.224 149.011L149.642 151.363C149.786 152.698 150.031 154.021 150.375 155.322L155.385 155.245C156.074 157.349 157.076 159.344 158.361 161.167L155.411 165.32C156.248 166.353 157.164 167.322 158.151 168.222L162.664 165.735C164.402 167.126 166.339 168.266 168.415 169.118L167.9 173.965C169.202 174.411 170.534 174.764 171.889 175.023L174.708 170.793C175.865 170.944 177.031 171.02 178.199 171.022C179.366 171.017 180.532 170.94 181.69 170.793L183.741 175.023C185.157 174.761 186.554 174.408 187.921 173.965L188.279 169.118C190.538 168.248 192.678 167.112 194.65 165.735L198.708 168.222C199.857 167.324 200.945 166.355 201.964 165.32L199.773 161.167C201.371 159.365 202.728 157.376 203.814 155.245L208.806 155.322C209.38 154.035 209.864 152.712 210.255 151.363L206.092 149.011C206.35 147.896 206.534 146.766 206.642 145.628ZM179.682 154.256C178.542 154.277 177.41 154.062 176.362 153.625C175.314 153.189 174.374 152.541 173.605 151.724C172.836 150.907 172.255 149.941 171.902 148.89C171.549 147.839 171.431 146.726 171.557 145.628C171.804 143.292 172.925 141.124 174.708 139.534C176.491 137.945 178.813 137.043 181.236 136.999C182.376 136.98 183.507 137.195 184.555 137.632C185.602 138.07 186.541 138.718 187.31 139.534C188.079 140.35 188.659 141.316 189.013 142.367C189.367 143.417 189.485 144.529 189.361 145.628C189.116 147.964 187.996 150.133 186.212 151.723C184.428 153.313 182.105 154.214 179.682 154.256Z" fill="#B47867"/>
<path opacity="0.4" d="M206.642 145.628C206.74 144.502 206.76 143.372 206.703 142.244L211.293 139.884C211.144 138.549 210.899 137.227 210.56 135.925L205.551 136.01C204.858 133.921 203.856 131.94 202.575 130.131L205.516 125.969C204.682 124.936 203.769 123.967 202.784 123.067L198.272 125.563C196.53 124.172 194.59 123.032 192.512 122.179L193.035 117.332C191.734 116.887 190.401 116.533 189.047 116.275L186.228 120.504C185.071 120.35 183.905 120.274 182.737 120.276C181.569 120.277 180.403 120.353 179.246 120.504L177.195 116.275C175.779 116.537 174.382 116.89 173.014 117.332L172.657 122.179C170.397 123.048 168.257 124.184 166.286 125.563L162.218 123.067C161.074 123.97 159.987 124.939 158.963 125.969L161.162 130.131C159.568 131.919 158.21 133.894 157.122 136.01L152.129 135.925C151.559 137.213 151.075 138.535 150.681 139.884L154.844 142.244C154.585 143.359 154.402 144.489 154.294 145.628C154.193 146.753 154.17 147.883 154.224 149.011L149.642 151.363C149.786 152.698 150.031 154.021 150.375 155.322L155.385 155.245C156.074 157.349 157.076 159.344 158.361 161.167L155.411 165.32C156.248 166.353 157.164 167.322 158.151 168.222L162.664 165.735C164.402 167.126 166.339 168.266 168.415 169.118L167.9 173.965C169.202 174.411 170.534 174.764 171.889 175.023L174.708 170.793C175.865 170.944 177.031 171.02 178.199 171.022C179.366 171.017 180.532 170.94 181.69 170.793L183.741 175.023C185.157 174.761 186.554 174.408 187.921 173.965L188.279 169.118C190.538 168.248 192.678 167.112 194.65 165.735L198.708 168.222C199.857 167.324 200.945 166.355 201.964 165.32L199.773 161.167C201.371 159.365 202.728 157.376 203.814 155.245L208.806 155.322C209.38 154.035 209.864 152.712 210.255 151.363L206.092 149.011C206.35 147.896 206.534 146.766 206.642 145.628ZM179.682 154.256C178.542 154.277 177.41 154.062 176.362 153.625C175.314 153.189 174.374 152.541 173.605 151.724C172.836 150.907 172.255 149.941 171.902 148.89C171.549 147.839 171.431 146.726 171.557 145.628C171.804 143.292 172.925 141.124 174.708 139.534C176.491 137.945 178.813 137.043 181.236 136.999C182.376 136.98 183.507 137.195 184.555 137.632C185.602 138.07 186.541 138.718 187.31 139.534C188.079 140.35 188.659 141.316 189.013 142.367C189.367 143.417 189.485 144.529 189.361 145.628C189.116 147.964 187.996 150.133 186.212 151.723C184.428 153.313 182.105 154.214 179.682 154.256Z" fill="white"/>
<path d="M278.086 118.652C278.161 117.808 278.19 116.961 278.173 116.114L285.801 112.198C285.66 111.108 285.459 110.027 285.199 108.958L276.864 109.093C276.292 107.52 275.531 106.018 274.595 104.618L279.5 97.699C278.801 96.8696 278.055 96.0789 277.265 95.3305L269.76 99.4754C268.413 98.4518 266.949 97.5832 265.396 96.8869L266.269 88.8255C265.198 88.4852 264.108 88.2028 263.005 87.9796L258.335 94.9668C257.466 94.8728 256.592 94.8248 255.717 94.823C254.822 94.824 253.928 94.872 253.038 94.9668L249.634 87.9204C248.482 88.1456 247.343 88.428 246.222 88.7663L245.628 96.8277C243.925 97.5307 242.3 98.3979 240.776 99.4162L234.012 95.2713C233.087 96.0241 232.205 96.8108 231.393 97.6398L235.042 104.559C233.869 105.95 232.84 107.449 231.97 109.034L223.661 108.899C223.216 109.956 222.788 111.03 222.474 112.139L229.395 116.055C229.227 116.894 229.101 117.741 229.02 118.593C228.943 119.453 228.914 120.317 228.932 121.181L221.304 125.098C221.441 126.185 221.642 127.264 221.907 128.329L230.233 128.202C230.808 129.774 231.569 131.275 232.502 132.677L227.597 139.588C228.296 140.42 229.042 141.213 229.831 141.965L237.337 137.812C238.681 138.838 240.146 139.706 241.701 140.4L240.828 148.461C241.895 148.806 242.982 149.088 244.083 149.307L248.735 142.337C249.605 142.431 250.479 142.479 251.353 142.481C252.249 142.48 253.143 142.432 254.033 142.337L257.445 149.392C258.598 149.17 259.737 148.887 260.858 148.546L261.451 140.485C263.155 139.783 264.781 138.916 266.304 137.896L273.059 142.05C273.984 141.297 274.874 140.51 275.721 139.673L272.064 132.762C273.242 131.375 274.272 129.876 275.136 128.287L283.445 128.414C283.899 127.357 284.295 126.279 284.632 125.182L277.711 121.266C277.886 120.402 278.011 119.529 278.086 118.652ZM252.584 128.803C251.245 128.827 249.915 128.573 248.686 128.059C247.456 127.544 246.354 126.781 245.454 125.819C244.553 124.858 243.876 123.721 243.466 122.485C243.057 121.248 242.925 119.942 243.08 118.652C243.368 115.914 244.682 113.374 246.773 111.513C248.864 109.651 251.587 108.598 254.425 108.552C255.759 108.531 257.081 108.785 258.305 109.298C259.529 109.811 260.627 110.57 261.525 111.525C262.423 112.48 263.101 113.61 263.514 114.839C263.927 116.067 264.066 117.367 263.921 118.652C263.645 121.397 262.338 123.949 260.247 125.82C258.157 127.692 255.429 128.753 252.584 128.803Z" fill="#B47867"/>
<path opacity="0.3" d="M278.086 118.652C278.161 117.808 278.19 116.961 278.173 116.114L285.801 112.198C285.66 111.108 285.459 110.027 285.199 108.958L276.864 109.093C276.292 107.52 275.531 106.018 274.595 104.618L279.5 97.699C278.801 96.8696 278.055 96.0789 277.265 95.3305L269.76 99.4754C268.413 98.4518 266.949 97.5832 265.396 96.8869L266.269 88.8255C265.198 88.4852 264.108 88.2028 263.005 87.9796L258.335 94.9668C257.466 94.8728 256.592 94.8248 255.717 94.823C254.822 94.824 253.928 94.872 253.038 94.9668L249.634 87.9204C248.482 88.1456 247.343 88.428 246.222 88.7663L245.628 96.8277C243.925 97.5307 242.3 98.3979 240.776 99.4162L234.012 95.2713C233.087 96.0241 232.205 96.8108 231.393 97.6398L235.042 104.559C233.869 105.95 232.84 107.449 231.97 109.034L223.661 108.899C223.216 109.956 222.788 111.03 222.474 112.139L229.395 116.055C229.227 116.894 229.101 117.741 229.02 118.593C228.943 119.453 228.914 120.317 228.932 121.181L221.304 125.098C221.441 126.185 221.642 127.264 221.907 128.329L230.233 128.202C230.808 129.774 231.569 131.275 232.502 132.677L227.597 139.588C228.296 140.42 229.042 141.213 229.831 141.965L237.337 137.812C238.681 138.838 240.146 139.706 241.701 140.4L240.828 148.461C241.895 148.806 242.982 149.088 244.083 149.307L248.735 142.337C249.605 142.431 250.479 142.479 251.353 142.481C252.249 142.48 253.143 142.432 254.033 142.337L257.445 149.392C258.598 149.17 259.737 148.887 260.858 148.546L261.451 140.485C263.155 139.783 264.781 138.916 266.304 137.896L273.059 142.05C273.984 141.297 274.874 140.51 275.721 139.673L272.064 132.762C273.242 131.375 274.272 129.876 275.136 128.287L283.445 128.414C283.899 127.357 284.295 126.279 284.632 125.182L277.711 121.266C277.886 120.402 278.011 119.529 278.086 118.652ZM252.584 128.803C251.245 128.827 249.915 128.573 248.686 128.059C247.456 127.544 246.354 126.781 245.454 125.819C244.553 124.858 243.876 123.721 243.466 122.485C243.057 121.248 242.925 119.942 243.08 118.652C243.368 115.914 244.682 113.374 246.773 111.513C248.864 109.651 251.587 108.598 254.425 108.552C255.759 108.531 257.081 108.785 258.305 109.298C259.529 109.811 260.627 110.57 261.525 111.525C262.423 112.48 263.101 113.61 263.514 114.839C263.927 116.067 264.066 117.367 263.921 118.652C263.645 121.397 262.338 123.949 260.247 125.82C258.157 127.692 255.429 128.753 252.584 128.803Z" fill="white"/>
<path d="M243.673 166.335C243.723 165.772 243.743 165.208 243.734 164.643L248.805 162.038C248.709 161.31 248.569 160.591 248.403 159.889L242.87 159.982C242.484 158.938 241.977 157.939 241.36 157.005L244.616 152.412C244.154 151.859 243.658 151.334 243.132 150.838L238.149 153.587C237.246 152.918 236.268 152.35 235.234 151.896L235.81 146.541C235.1 146.31 234.377 146.118 233.645 145.966L230.538 150.652C229.959 150.588 229.376 150.557 228.793 150.559C228.209 150.557 227.627 150.588 227.047 150.652L224.787 145.966C224.02 146.119 223.263 146.311 222.517 146.541L222.125 151.896C220.994 152.356 219.912 152.922 218.896 153.587L214.357 150.796C213.738 151.295 213.153 151.819 212.612 152.369L215.038 156.963C214.26 157.887 213.579 158.885 213.004 159.94L207.48 159.847C207.183 160.549 206.921 161.268 206.694 161.996L211.294 164.601C211.179 165.16 211.094 165.725 211.041 166.293C210.991 166.855 210.971 167.42 210.98 167.985L205.909 170.582C206.005 171.304 206.139 172.021 206.31 172.73L211.852 172.645C212.232 173.691 212.736 174.69 213.354 175.623L210.098 180.216C210.563 180.767 211.058 181.292 211.582 181.79L216.565 179.032C217.465 179.705 218.444 180.272 219.48 180.724L218.904 186.087C219.611 186.307 220.327 186.501 221.069 186.662L224.176 181.976C224.755 182.036 225.338 182.067 225.921 182.069C226.504 182.067 227.087 182.036 227.667 181.976L229.936 186.662C230.704 186.501 231.454 186.307 232.205 186.087L232.589 180.724C233.722 180.267 234.804 179.7 235.818 179.032L240.304 181.79C240.924 181.291 241.509 180.766 242.05 180.216L239.623 175.623C240.404 174.699 241.088 173.701 241.666 172.645L247.182 172.73C247.485 172.029 247.747 171.311 247.967 170.582L243.368 167.985C243.498 167.44 243.6 166.889 243.673 166.335ZM226.497 175.691C225.262 175.708 224.038 175.472 222.904 174.996C221.771 174.521 220.754 173.818 219.922 172.934C219.089 172.049 218.46 171.004 218.076 169.866C217.691 168.729 217.56 167.525 217.691 166.335C217.959 163.806 219.171 161.459 221.1 159.736C223.029 158.012 225.541 157.032 228.164 156.979C229.399 156.962 230.624 157.199 231.757 157.674C232.891 158.149 233.907 158.852 234.74 159.736C235.572 160.621 236.201 161.666 236.586 162.804C236.97 163.941 237.101 165.145 236.97 166.335C236.703 168.864 235.49 171.211 233.561 172.935C231.632 174.658 229.12 175.638 226.497 175.691Z" fill="#B47867"/>
<path opacity="0.5" d="M243.673 166.335C243.723 165.772 243.743 165.208 243.734 164.643L248.805 162.038C248.709 161.31 248.569 160.591 248.403 159.889L242.87 159.982C242.484 158.938 241.977 157.939 241.36 157.005L244.616 152.412C244.154 151.859 243.658 151.334 243.132 150.838L238.149 153.587C237.246 152.918 236.268 152.35 235.234 151.896L235.81 146.541C235.1 146.31 234.377 146.118 233.645 145.966L230.538 150.652C229.959 150.588 229.376 150.557 228.793 150.559C228.209 150.557 227.627 150.588 227.047 150.652L224.787 145.966C224.02 146.119 223.263 146.311 222.517 146.541L222.125 151.896C220.994 152.356 219.912 152.922 218.896 153.587L214.357 150.796C213.738 151.295 213.153 151.819 212.612 152.369L215.038 156.963C214.26 157.887 213.579 158.885 213.004 159.94L207.48 159.847C207.183 160.549 206.921 161.268 206.694 161.996L211.294 164.601C211.179 165.16 211.094 165.725 211.041 166.293C210.991 166.855 210.971 167.42 210.98 167.985L205.909 170.582C206.005 171.304 206.139 172.021 206.31 172.73L211.852 172.645C212.232 173.691 212.736 174.69 213.354 175.623L210.098 180.216C210.563 180.767 211.058 181.292 211.582 181.79L216.565 179.032C217.465 179.705 218.444 180.272 219.48 180.724L218.904 186.087C219.611 186.307 220.327 186.501 221.069 186.662L224.176 181.976C224.755 182.036 225.338 182.067 225.921 182.069C226.504 182.067 227.087 182.036 227.667 181.976L229.936 186.662C230.704 186.501 231.454 186.307 232.205 186.087L232.589 180.724C233.722 180.267 234.804 179.7 235.818 179.032L240.304 181.79C240.924 181.291 241.509 180.766 242.05 180.216L239.623 175.623C240.404 174.699 241.088 173.701 241.666 172.645L247.182 172.73C247.485 172.029 247.747 171.311 247.967 170.582L243.368 167.985C243.498 167.44 243.6 166.889 243.673 166.335ZM226.497 175.691C225.262 175.708 224.038 175.472 222.904 174.996C221.771 174.521 220.754 173.818 219.922 172.934C219.089 172.049 218.46 171.004 218.076 169.866C217.691 168.729 217.56 167.525 217.691 166.335C217.959 163.806 219.171 161.459 221.1 159.736C223.029 158.012 225.541 157.032 228.164 156.979C229.399 156.962 230.624 157.199 231.757 157.674C232.891 158.149 233.907 158.852 234.74 159.736C235.572 160.621 236.201 161.666 236.586 162.804C236.97 163.941 237.101 165.145 236.97 166.335C236.703 168.864 235.49 171.211 233.561 172.935C231.632 174.658 229.12 175.638 226.497 175.691Z" fill="white"/>
<path d="M207.427 99.3313C207.246 101.161 206.376 102.862 204.984 104.11C203.591 105.357 201.774 106.065 199.878 106.099C198.985 106.115 198.099 105.946 197.279 105.604C196.459 105.261 195.724 104.752 195.123 104.11C194.523 103.469 194.072 102.711 193.799 101.887C193.526 101.063 193.438 100.191 193.542 99.3313C193.724 97.5018 194.594 95.8011 195.986 94.5531C197.378 93.3051 199.195 92.5972 201.091 92.5641C201.984 92.5474 202.871 92.7162 203.691 93.0591C204.511 93.402 205.246 93.9111 205.846 94.5522C206.446 95.1932 206.898 95.9514 207.171 96.7758C207.443 97.6001 207.531 98.4715 207.427 99.3313Z" fill="#B47867"/>
<path opacity="0.4" d="M207.427 99.3313C207.246 101.161 206.376 102.862 204.984 104.11C203.591 105.357 201.774 106.065 199.878 106.099C198.985 106.115 198.099 105.946 197.279 105.604C196.459 105.261 195.724 104.752 195.123 104.11C194.523 103.469 194.072 102.711 193.799 101.887C193.526 101.063 193.438 100.191 193.542 99.3313C193.724 97.5018 194.594 95.8011 195.986 94.5531C197.378 93.3051 199.195 92.5972 201.091 92.5641C201.984 92.5474 202.871 92.7162 203.691 93.0591C204.511 93.402 205.246 93.9111 205.846 94.5522C206.446 95.1932 206.898 95.9514 207.171 96.7758C207.443 97.6001 207.531 98.4715 207.427 99.3313Z" fill="white"/>
<path d="M273.914 180.03C273.728 181.86 272.856 183.559 271.463 184.807C270.07 186.054 268.252 186.763 266.356 186.797C265.463 186.813 264.578 186.643 263.758 186.299C262.939 185.956 262.205 185.447 261.605 184.806C261.005 184.165 260.553 183.408 260.28 182.584C260.006 181.76 259.918 180.89 260.02 180.03C260.202 178.201 261.072 176.5 262.464 175.252C263.856 174.004 265.673 173.296 267.569 173.263C268.463 173.246 269.349 173.415 270.17 173.758C270.99 174.101 271.726 174.61 272.326 175.251C272.927 175.891 273.38 176.65 273.654 177.474C273.928 178.298 274.016 179.17 273.914 180.03Z" fill="#B47867"/>
<path opacity="0.7" d="M273.914 180.03C273.728 181.86 272.856 183.559 271.463 184.807C270.07 186.054 268.252 186.763 266.356 186.797C265.463 186.813 264.578 186.643 263.758 186.299C262.939 185.956 262.205 185.447 261.605 184.806C261.005 184.165 260.553 183.408 260.28 182.584C260.006 181.76 259.918 180.89 260.02 180.03C260.202 178.201 261.072 176.5 262.464 175.252C263.856 174.004 265.673 173.296 267.569 173.263C268.463 173.246 269.349 173.415 270.17 173.758C270.99 174.101 271.726 174.61 272.326 175.251C272.927 175.891 273.38 176.65 273.654 177.474C273.928 178.298 274.016 179.17 273.914 180.03Z" fill="white"/>
<path d="M286.485 164.883C290.876 160.809 291.311 154.344 287.458 150.443C283.605 146.541 276.922 146.681 272.532 150.755C268.141 154.829 267.705 161.294 271.558 165.195C275.412 169.096 282.095 168.956 286.485 164.883Z" fill="#B47867"/>
<path opacity="0.6" d="M286.485 164.883C290.876 160.809 291.311 154.344 287.458 150.443C283.605 146.541 276.922 146.681 272.532 150.755C268.141 154.829 267.705 161.294 271.558 165.195C275.412 169.096 282.095 168.956 286.485 164.883Z" fill="white"/>
<path d="M160.505 113.129C166.908 107.188 167.546 97.762 161.93 92.0756C156.314 86.3892 146.57 86.5956 140.167 92.5367C133.764 98.4778 133.126 107.904 138.742 113.59C144.358 119.276 154.102 119.07 160.505 113.129Z" fill="#B47867"/>
<path opacity="0.6" d="M160.505 113.129C166.908 107.188 167.546 97.762 161.93 92.0756C156.314 86.3892 146.57 86.5956 140.167 92.5367C133.764 98.4778 133.126 107.904 138.742 113.59C144.358 119.276 154.102 119.07 160.505 113.129Z" fill="white"/>
<g opacity="0.3">
<path d="M241.858 78.5137H234.535L208.728 196.195H216.05L241.858 78.5137Z" fill="white"/>
<path d="M201.327 196.195L227.134 78.5137H199.625L173.818 196.195H201.327Z" fill="white"/>
</g>
<path d="M147.644 71.9328H192.006C192.083 71.9204 192.154 71.8818 192.205 71.8237C192.256 71.7656 192.284 71.6918 192.284 71.6156C192.284 71.5393 192.256 71.4656 192.205 71.4074C192.154 71.3493 192.083 71.3107 192.006 71.2983H147.644C147.566 71.3107 147.495 71.3493 147.444 71.4074C147.393 71.4656 147.365 71.5393 147.365 71.6156C147.365 71.6918 147.393 71.7656 147.444 71.8237C147.495 71.8818 147.566 71.9204 147.644 71.9328Z" fill="#B47867"/>
<path d="M198.412 71.9328H206.424C206.502 71.9204 206.572 71.8818 206.623 71.8237C206.674 71.7656 206.702 71.6918 206.702 71.6156C206.702 71.5393 206.674 71.4656 206.623 71.4074C206.572 71.3493 206.502 71.3107 206.424 71.2983H198.412C198.334 71.3107 198.264 71.3493 198.213 71.4074C198.162 71.4656 198.134 71.5393 198.134 71.6156C198.134 71.6918 198.162 71.7656 198.213 71.8237C198.264 71.8818 198.334 71.9204 198.412 71.9328Z" fill="#B47867"/>
<path d="M185.748 200.789H230.145C230.223 200.776 230.293 200.738 230.344 200.68C230.395 200.621 230.423 200.548 230.423 200.472C230.423 200.395 230.395 200.321 230.344 200.263C230.293 200.205 230.223 200.167 230.145 200.154H185.748C185.671 200.167 185.6 200.205 185.549 200.263C185.498 200.321 185.47 200.395 185.47 200.472C185.47 200.548 185.498 200.621 185.549 200.68C185.6 200.738 185.671 200.776 185.748 200.789Z" fill="#B47867"/>
<path d="M236.516 200.789H244.528C244.606 200.776 244.676 200.738 244.727 200.68C244.778 200.621 244.806 200.548 244.806 200.472C244.806 200.395 244.778 200.321 244.727 200.263C244.676 200.205 244.606 200.167 244.528 200.154H236.516C236.439 200.167 236.368 200.205 236.317 200.263C236.266 200.321 236.238 200.395 236.238 200.472C236.238 200.548 236.266 200.621 236.317 200.68C236.368 200.738 236.439 200.776 236.516 200.789Z" fill="#B47867"/>
<path d="M250.559 151.803C250.561 152.29 250.711 152.765 250.991 153.168C251.271 153.572 251.669 153.886 252.133 154.071C252.597 154.256 253.108 154.304 253.6 154.208C254.092 154.112 254.543 153.877 254.898 153.532C255.252 153.188 255.493 152.749 255.59 152.272C255.688 151.794 255.637 151.3 255.444 150.851C255.252 150.401 254.926 150.017 254.509 149.747C254.091 149.477 253.601 149.333 253.099 149.333V151.803H250.559Z" fill="#B47867"/>
<path opacity="0.2" d="M250.559 151.803C250.561 152.29 250.711 152.765 250.991 153.168C251.271 153.572 251.669 153.886 252.133 154.071C252.597 154.256 253.108 154.304 253.6 154.208C254.092 154.112 254.543 153.877 254.898 153.532C255.252 153.188 255.493 152.749 255.59 152.272C255.688 151.794 255.637 151.3 255.444 150.851C255.252 150.401 254.926 150.017 254.509 149.747C254.091 149.477 253.601 149.333 253.099 149.333V151.803H250.559Z" fill="black"/>
<path d="M251.301 160.169C247.749 163.807 241.011 168.383 236.298 164.12C235.469 163.375 234.213 164.585 235.042 165.338C240.584 170.337 248.255 165.777 252.549 161.379C253.335 160.584 252.087 159.366 251.301 160.169Z" fill="#B47867"/>
<g opacity="0.6">
<path d="M251.301 160.169C247.749 163.807 241.011 168.383 236.298 164.12C235.469 163.375 234.213 164.585 235.042 165.338C240.584 170.337 248.255 165.777 252.549 161.379C253.335 160.584 252.087 159.366 251.301 160.169Z" fill="black"/>
</g>
<path d="M262.987 151.262C267.525 147.1 272.221 139.664 267.063 134.301C266.286 133.455 265.038 134.707 265.815 135.511C270.178 140.079 265.483 146.609 261.739 150.052C260.91 150.813 262.158 152.023 262.987 151.262Z" fill="#B47867"/>
<g opacity="0.6">
<path d="M262.987 151.262C267.525 147.1 272.221 139.664 267.063 134.301C266.286 133.455 265.038 134.707 265.815 135.511C270.178 140.079 265.483 146.609 261.739 150.052C260.91 150.813 262.158 152.023 262.987 151.262Z" fill="black"/>
</g>
<path d="M252.068 166.166C250.506 172.045 250.576 180.716 257.881 182.661C258.112 182.718 258.358 182.684 258.563 182.566C258.769 182.448 258.917 182.255 258.976 182.031C259.035 181.807 259 181.569 258.878 181.37C258.756 181.171 258.558 181.027 258.326 180.969C252.095 179.278 252.479 171.462 253.779 166.589C253.838 166.365 253.803 166.127 253.681 165.928C253.559 165.729 253.36 165.585 253.129 165.528C252.897 165.47 252.652 165.505 252.446 165.623C252.241 165.741 252.093 165.933 252.033 166.158L252.068 166.166Z" fill="#B47867"/>
<g opacity="0.6">
<path d="M252.068 166.166C250.506 172.045 250.576 180.716 257.881 182.661C258.112 182.718 258.358 182.684 258.563 182.566C258.769 182.448 258.917 182.255 258.976 182.031C259.035 181.807 259 181.569 258.878 181.37C258.756 181.171 258.558 181.027 258.326 180.969C252.095 179.278 252.479 171.462 253.779 166.589C253.838 166.365 253.803 166.127 253.681 165.928C253.559 165.729 253.36 165.585 253.129 165.528C252.897 165.47 252.652 165.505 252.446 165.623C252.241 165.741 252.093 165.933 252.033 166.158L252.068 166.166Z" fill="black"/>
</g>
<path d="M268.634 152.201C273.687 150.94 281.786 150.568 283.471 156.608C283.53 156.832 283.678 157.025 283.884 157.143C284.089 157.261 284.334 157.295 284.566 157.238C284.797 157.181 284.996 157.037 285.118 156.838C285.24 156.639 285.275 156.401 285.216 156.176C283.209 149.105 274.263 149.037 268.197 150.543C267.966 150.6 267.767 150.744 267.645 150.943C267.524 151.142 267.488 151.38 267.547 151.604C267.606 151.829 267.755 152.021 267.96 152.139C268.166 152.257 268.411 152.292 268.643 152.235L268.634 152.201Z" fill="#B47867"/>
<g opacity="0.6">
<path d="M268.634 152.201C273.687 150.94 281.786 150.568 283.471 156.608C283.53 156.832 283.678 157.025 283.884 157.143C284.089 157.261 284.334 157.295 284.566 157.238C284.797 157.181 284.996 157.037 285.118 156.838C285.24 156.639 285.275 156.401 285.216 156.176C283.209 149.105 274.263 149.037 268.197 150.543C267.966 150.6 267.767 150.744 267.645 150.943C267.524 151.142 267.488 151.38 267.547 151.604C267.606 151.829 267.755 152.021 267.96 152.139C268.166 152.257 268.411 152.292 268.643 152.235L268.634 152.201Z" fill="black"/>
</g>
<path d="M250.122 166.505C251.055 168.331 252.29 169.997 253.779 171.436C260.22 177.679 269.829 178.491 275.231 173.255C280.634 168.019 279.805 158.706 273.364 152.454C271.877 151.013 270.159 149.816 268.276 148.91L250.122 166.505Z" fill="#B47867"/>
<path opacity="0.3" d="M250.122 166.505C251.055 168.331 252.29 169.997 253.779 171.436C260.22 177.679 269.829 178.491 275.231 173.255C280.634 168.019 279.805 158.706 273.364 152.454C271.877 151.013 270.159 149.816 268.276 148.91L250.122 166.505Z" fill="black"/>
<path d="M251.938 164.745L266.461 150.669C261.879 148.479 256.651 148.868 253.369 152.057C250.088 155.246 249.677 160.304 251.938 164.745Z" fill="#B47867"/>
<path opacity="0.5" d="M251.938 164.745L266.461 150.669C261.879 148.479 256.651 148.868 253.369 152.057C250.088 155.246 249.677 160.304 251.938 164.745Z" fill="black"/>
<path opacity="0.2" d="M250.122 166.505C251.055 168.331 252.29 169.997 253.779 171.436C260.22 177.679 269.829 178.491 275.231 173.255L259.208 157.708L250.122 166.505Z" fill="black"/>
<path d="M238.384 158.621C239.026 157.096 239.976 155.71 241.177 154.544C244.319 151.524 248.159 152.124 251.432 154.603C251.65 154.772 251.964 154.476 251.746 154.307C248.726 152.048 245.104 150.991 241.84 153.402C240.116 154.741 238.778 156.489 237.956 158.477C237.843 158.731 238.279 158.841 238.384 158.587V158.621Z" fill="#263238"/>
<path d="M260.028 137.118C257.975 137.915 256.171 139.215 254.792 140.891C252.304 144.055 253.387 147.557 255.717 150.484C255.892 150.704 256.206 150.399 256.031 150.179C253.483 146.982 252.846 143.277 255.961 140.248C257.167 139.085 258.596 138.163 260.168 137.533C260.43 137.431 260.325 137.017 260.063 137.118H260.028Z" fill="#263238"/>
<path d="M259.391 164.441C259.76 164.795 260.013 165.247 260.116 165.74C260.219 166.233 260.169 166.744 259.972 167.21C259.774 167.675 259.439 168.073 259.007 168.353C258.576 168.633 258.069 168.782 257.55 168.782C257.031 168.782 256.524 168.633 256.092 168.353C255.661 168.073 255.326 167.675 255.128 167.21C254.931 166.744 254.881 166.233 254.984 165.74C255.087 165.247 255.339 164.795 255.708 164.441C256.199 163.971 256.86 163.707 257.55 163.707C258.239 163.707 258.901 163.971 259.391 164.441Z" fill="white"/>
<path d="M269.829 154.324C270.198 154.677 270.451 155.13 270.554 155.623C270.657 156.116 270.607 156.627 270.41 157.092C270.212 157.558 269.877 157.956 269.445 158.236C269.014 158.516 268.507 158.665 267.988 158.665C267.469 158.665 266.962 158.516 266.53 158.236C266.099 157.956 265.764 157.558 265.566 157.092C265.369 156.627 265.319 156.116 265.422 155.623C265.525 155.13 265.777 154.677 266.146 154.324C266.637 153.854 267.298 153.59 267.988 153.59C268.677 153.59 269.339 153.854 269.829 154.324Z" fill="white"/>
<path d="M267.551 169.922C267.92 170.276 268.172 170.728 268.276 171.221C268.379 171.714 268.329 172.226 268.131 172.691C267.934 173.156 267.599 173.554 267.167 173.834C266.736 174.114 266.229 174.264 265.71 174.264C265.191 174.264 264.683 174.114 264.252 173.834C263.821 173.554 263.486 173.156 263.288 172.691C263.091 172.226 263.041 171.714 263.144 171.221C263.247 170.728 263.499 170.276 263.868 169.922C264.358 169.452 265.02 169.188 265.71 169.188C266.399 169.188 267.061 169.452 267.551 169.922Z" fill="white"/>
<path d="M275.485 162.233C275.854 162.587 276.106 163.039 276.209 163.532C276.312 164.025 276.262 164.536 276.065 165.002C275.867 165.467 275.532 165.865 275.101 166.145C274.67 166.425 274.162 166.574 273.643 166.574C273.124 166.574 272.617 166.425 272.186 166.145C271.754 165.865 271.419 165.467 271.222 165.002C271.024 164.536 270.974 164.025 271.077 163.532C271.181 163.039 271.433 162.587 271.802 162.233C272.292 161.763 272.954 161.499 273.643 161.499C274.333 161.499 274.994 161.763 275.485 162.233Z" fill="white"/>
<path d="M144.694 184.488C144.263 184.487 143.842 184.609 143.484 184.839C143.125 185.07 142.845 185.398 142.68 185.783C142.514 186.167 142.47 186.591 142.552 187C142.635 187.409 142.842 187.786 143.145 188.081C143.449 188.376 143.836 188.578 144.258 188.66C144.679 188.742 145.117 188.701 145.514 188.541C145.912 188.382 146.252 188.112 146.491 187.766C146.73 187.419 146.858 187.012 146.858 186.595H144.694V184.488Z" fill="#B47867"/>
<path opacity="0.2" d="M144.694 184.488C144.263 184.487 143.842 184.609 143.484 184.839C143.125 185.07 142.845 185.398 142.68 185.783C142.514 186.167 142.47 186.591 142.552 187C142.635 187.409 142.842 187.786 143.145 188.081C143.449 188.376 143.836 188.578 144.258 188.66C144.679 188.742 145.117 188.701 145.514 188.541C145.912 188.382 146.252 188.112 146.491 187.766C146.73 187.419 146.858 187.012 146.858 186.595H144.694V184.488Z" fill="black"/>
<path d="M137.31 185.106C134.107 182.162 130.075 176.588 133.819 172.68C134.482 171.994 133.417 170.988 132.745 171.648C128.338 176.232 132.361 182.577 136.236 186.138C136.935 186.789 137.982 185.757 137.301 185.106H137.31Z" fill="#B47867"/>
<g opacity="0.6">
<path d="M137.31 185.106C134.107 182.162 130.075 176.588 133.819 172.68C134.482 171.994 133.417 170.988 132.745 171.648C128.338 176.232 132.361 182.577 136.236 186.138C136.935 186.789 137.982 185.757 137.301 185.106H137.31Z" fill="black"/>
</g>
<path d="M145.165 194.783C148.831 198.539 155.385 202.396 160.115 198.167C160.831 197.524 159.758 196.475 159.051 197.135C155.019 200.772 149.267 196.864 146.23 193.751C145.558 193.066 144.484 194.098 145.165 194.783Z" fill="#B47867"/>
<g opacity="0.6">
<path d="M145.165 194.783C148.831 198.539 155.385 202.396 160.115 198.167C160.831 197.524 159.758 196.475 159.051 197.135C155.019 200.772 149.267 196.864 146.23 193.751C145.558 193.066 144.484 194.098 145.165 194.783Z" fill="black"/>
</g>
<path d="M132.03 185.74C126.846 184.455 119.192 184.505 117.49 190.554C117.465 190.646 117.459 190.743 117.472 190.838C117.485 190.933 117.518 191.025 117.568 191.108C117.617 191.19 117.684 191.263 117.762 191.321C117.841 191.379 117.931 191.422 118.027 191.446C118.122 191.47 118.222 191.476 118.32 191.463C118.418 191.451 118.513 191.419 118.598 191.371C118.684 191.322 118.759 191.258 118.819 191.182C118.878 191.106 118.922 191.019 118.947 190.926C120.405 185.766 127.326 186.087 131.646 187.153C131.742 187.178 131.841 187.183 131.94 187.171C132.038 187.158 132.132 187.126 132.218 187.078C132.303 187.03 132.378 186.965 132.438 186.889C132.498 186.813 132.542 186.726 132.567 186.633C132.592 186.54 132.598 186.443 132.585 186.348C132.571 186.253 132.539 186.162 132.489 186.079C132.439 185.996 132.373 185.924 132.294 185.865C132.216 185.807 132.126 185.765 132.03 185.74Z" fill="#B47867"/>
<g opacity="0.6">
<path d="M132.03 185.74C126.846 184.455 119.192 184.505 117.49 190.554C117.465 190.646 117.459 190.743 117.472 190.838C117.485 190.933 117.518 191.025 117.568 191.108C117.617 191.19 117.684 191.263 117.762 191.321C117.841 191.379 117.931 191.422 118.027 191.446C118.122 191.47 118.222 191.476 118.32 191.463C118.418 191.451 118.513 191.419 118.598 191.371C118.684 191.322 118.759 191.258 118.819 191.182C118.878 191.106 118.922 191.019 118.947 190.926C120.405 185.766 127.326 186.087 131.646 187.153C131.742 187.178 131.841 187.183 131.94 187.171C132.038 187.158 132.132 187.126 132.218 187.078C132.303 187.03 132.378 186.965 132.438 186.889C132.498 186.813 132.542 186.726 132.567 186.633C132.592 186.54 132.598 186.443 132.585 186.348C132.571 186.253 132.539 186.162 132.489 186.079C132.439 185.996 132.373 185.924 132.294 185.865C132.216 185.807 132.126 185.765 132.03 185.74Z" fill="black"/>
</g>
<path d="M144.336 199.461C145.444 203.64 145.776 210.348 140.452 211.769C140.259 211.818 140.094 211.94 139.993 212.107C139.893 212.275 139.865 212.474 139.915 212.661C139.966 212.849 140.092 213.009 140.265 213.106C140.437 213.204 140.643 213.231 140.836 213.181C147.068 211.49 147.129 204.113 145.802 199.089C145.742 198.911 145.614 198.762 145.444 198.672C145.274 198.583 145.076 198.56 144.889 198.607C144.702 198.654 144.54 198.769 144.438 198.928C144.335 199.087 144.299 199.277 144.336 199.461Z" fill="#B47867"/>
<g opacity="0.6">
<path d="M144.336 199.461C145.444 203.64 145.776 210.348 140.452 211.769C140.259 211.818 140.094 211.94 139.993 212.107C139.893 212.275 139.865 212.474 139.915 212.661C139.966 212.849 140.092 213.009 140.265 213.106C140.437 213.204 140.643 213.231 140.836 213.181C147.068 211.49 147.129 204.113 145.802 199.089C145.742 198.911 145.614 198.762 145.444 198.672C145.274 198.583 145.076 198.56 144.889 198.607C144.702 198.654 144.54 198.769 144.438 198.928C144.335 199.087 144.299 199.277 144.336 199.461Z" fill="black"/>
</g>
<path d="M131.724 184.125C130.109 184.901 128.635 185.926 127.361 187.162C121.862 192.491 121.138 200.451 125.764 204.926C130.389 209.4 138.584 208.707 144.091 203.378C145.368 202.145 146.423 200.716 147.216 199.148L131.724 184.125Z" fill="#B47867"/>
<path opacity="0.3" d="M131.724 184.125C130.109 184.901 128.635 185.926 127.361 187.162C121.862 192.491 121.138 200.451 125.764 204.926C130.389 209.4 138.584 208.707 144.091 203.378C145.368 202.145 146.423 200.716 147.216 199.148L131.724 184.125Z" fill="black"/>
<path d="M133.278 185.63L145.689 197.659C147.617 193.861 147.277 189.538 144.467 186.815C141.657 184.091 137.197 183.786 133.278 185.63Z" fill="#B47867"/>
<path opacity="0.5" d="M133.278 185.63L145.689 197.659C147.617 193.861 147.277 189.538 144.467 186.815C141.657 184.091 137.197 183.786 133.278 185.63Z" fill="black"/>
<path opacity="0.2" d="M131.724 184.125C130.109 184.901 128.635 185.926 127.361 187.162C121.862 192.491 121.138 200.451 125.764 204.926L139.466 191.645L131.724 184.125Z" fill="black"/>
<path d="M138.68 174.405C140.025 174.94 141.247 175.728 142.276 176.723C144.894 179.32 144.397 182.467 142.215 185.182C142.066 185.36 142.337 185.622 142.485 185.436C144.475 182.941 145.4 179.946 143.28 177.239C142.088 175.808 140.538 174.698 138.776 174.016C138.549 173.932 138.453 174.287 138.68 174.372V174.405Z" fill="#263238"/>
<path d="M157.637 192.33C156.935 190.622 155.79 189.118 154.312 187.965C151.519 185.91 148.429 186.807 145.855 188.735C145.663 188.879 145.925 189.141 146.117 188.997C148.944 186.883 152.226 186.358 154.844 188.938C155.866 189.939 156.679 191.123 157.235 192.423C157.323 192.643 157.689 192.55 157.602 192.33H157.637Z" fill="#263238"/>
<path d="M133.531 191.805C133.22 192.107 132.823 192.312 132.392 192.395C131.96 192.477 131.513 192.434 131.106 192.271C130.7 192.108 130.353 191.831 130.108 191.477C129.864 191.122 129.734 190.705 129.734 190.279C129.734 189.852 129.864 189.435 130.108 189.081C130.353 188.726 130.7 188.45 131.106 188.286C131.513 188.123 131.96 188.08 132.392 188.163C132.823 188.246 133.22 188.451 133.531 188.752C133.945 189.159 134.178 189.707 134.178 190.279C134.178 190.85 133.945 191.399 133.531 191.805Z" fill="white"/>
<path d="M142.459 200.451C142.148 200.752 141.751 200.957 141.32 201.04C140.888 201.122 140.441 201.079 140.035 200.916C139.628 200.753 139.281 200.476 139.037 200.122C138.792 199.767 138.662 199.35 138.662 198.924C138.662 198.497 138.792 198.08 139.037 197.726C139.281 197.371 139.628 197.095 140.035 196.931C140.441 196.768 140.888 196.725 141.32 196.808C141.751 196.891 142.148 197.096 142.459 197.397C142.667 197.597 142.831 197.835 142.943 198.097C143.055 198.359 143.113 198.64 143.113 198.924C143.113 199.207 143.055 199.488 142.943 199.75C142.831 200.012 142.667 200.25 142.459 200.451Z" fill="white"/>
<path d="M128.714 198.556C128.403 198.858 128.006 199.064 127.574 199.148C127.142 199.232 126.695 199.19 126.287 199.027C125.88 198.864 125.532 198.587 125.287 198.232C125.043 197.877 124.912 197.46 124.912 197.033C124.912 196.606 125.043 196.189 125.287 195.834C125.532 195.479 125.88 195.202 126.287 195.039C126.695 194.876 127.142 194.834 127.574 194.918C128.006 195.002 128.403 195.208 128.714 195.51C129.129 195.915 129.363 196.462 129.363 197.033C129.363 197.604 129.129 198.151 128.714 198.556Z" fill="white"/>
<path d="M135.495 205.137C135.183 205.438 134.787 205.643 134.355 205.726C133.924 205.809 133.476 205.766 133.07 205.603C132.664 205.439 132.316 205.163 132.072 204.808C131.828 204.453 131.697 204.037 131.697 203.61C131.697 203.184 131.828 202.767 132.072 202.412C132.316 202.058 132.664 201.781 133.07 201.618C133.476 201.454 133.924 201.411 134.355 201.494C134.787 201.577 135.183 201.782 135.495 202.083C135.909 202.49 136.141 203.039 136.141 203.61C136.141 204.182 135.909 204.73 135.495 205.137Z" fill="white"/>
<path d="M173.303 96.8024C173.022 96.6354 172.697 96.5527 172.368 96.5646C172.039 96.5765 171.721 96.6825 171.454 96.8692C171.188 97.056 170.984 97.3151 170.869 97.6139C170.753 97.9128 170.732 98.238 170.807 98.5485C170.883 98.8591 171.051 99.1411 171.291 99.359C171.532 99.577 171.833 99.721 172.158 99.7731C172.483 99.8252 172.816 99.783 173.116 99.6517C173.416 99.5205 173.669 99.3061 173.844 99.0356L172.43 98.1897L173.303 96.8024Z" fill="#B47867"/>
<path opacity="0.2" d="M173.303 96.8024C173.022 96.6354 172.697 96.5527 172.368 96.5646C172.039 96.5765 171.721 96.6825 171.454 96.8692C171.188 97.056 170.984 97.3151 170.869 97.6139C170.753 97.9128 170.732 98.238 170.807 98.5485C170.883 98.8591 171.051 99.1411 171.291 99.359C171.532 99.577 171.833 99.721 172.158 99.7731C172.483 99.8252 172.816 99.783 173.116 99.6517C173.416 99.5205 173.669 99.3061 173.844 99.0356L172.43 98.1897L173.303 96.8024Z" fill="black"/>
<path d="M168.224 94.3157C167.351 91.1351 167.045 85.899 171.13 84.8162C171.845 84.6217 171.584 83.5305 170.859 83.7166C166.068 84.9939 166.042 90.7206 167.089 94.5695C167.281 95.2716 168.416 95.0178 168.224 94.3157Z" fill="#B47867"/>
<g opacity="0.6">
<path d="M168.224 94.3157C167.351 91.1351 167.045 85.899 171.13 84.8162C171.845 84.6217 171.584 83.5305 170.859 83.7166C166.068 84.9939 166.042 90.7206 167.089 94.5695C167.281 95.2716 168.416 95.0178 168.224 94.3157Z" fill="black"/>
</g>
<path d="M169.314 103.722C170.187 107.622 172.805 112.74 177.693 111.801C178.426 111.657 178.155 110.557 177.431 110.701C173.268 111.547 171.138 106.683 170.449 103.46C170.3 102.75 169.166 103.012 169.314 103.722Z" fill="#B47867"/>
<g opacity="0.6">
<path d="M169.314 103.722C170.187 107.621 172.805 112.739 177.693 111.8C178.426 111.656 178.155 110.557 177.431 110.7C173.268 111.546 171.138 106.682 170.449 103.46C170.3 102.749 169.166 103.011 169.314 103.722Z" fill="black"/>
</g>
<path d="M164.496 92.6577C161.642 89.7817 156.641 86.821 152.976 90.12C152.435 90.6107 153.229 91.4312 153.779 90.9659C156.886 88.166 161.285 91.0844 163.658 93.5036C164.173 94.0196 165.02 93.2499 164.531 92.7254L164.496 92.6577Z" fill="#B47867"/>
<g opacity="0.6">
<path d="M164.496 92.6577C161.642 89.7817 156.641 86.821 152.976 90.12C152.435 90.6107 153.229 91.4312 153.779 90.9659C156.886 88.166 161.285 91.0844 163.658 93.5036C164.173 94.0196 165.02 93.2499 164.531 92.7254L164.496 92.6577Z" fill="black"/>
</g>
<path d="M166.827 106.454C165.806 109.626 163.222 114.143 159.147 112.984C159 112.941 158.841 112.955 158.705 113.025C158.569 113.095 158.467 113.214 158.422 113.357C158.377 113.499 158.392 113.653 158.464 113.785C158.536 113.916 158.659 114.015 158.806 114.059C163.58 115.421 166.713 110.599 167.935 106.784C167.958 106.713 167.965 106.639 167.958 106.566C167.951 106.492 167.929 106.421 167.893 106.356C167.858 106.291 167.809 106.233 167.75 106.186C167.692 106.139 167.624 106.104 167.551 106.082C167.404 106.038 167.245 106.053 167.11 106.123C166.974 106.192 166.872 106.312 166.827 106.454Z" fill="#B47867"/>
<g opacity="0.6">
<path d="M166.827 106.454C165.806 109.626 163.222 114.143 159.147 112.984C159 112.941 158.841 112.955 158.705 113.025C158.569 113.095 158.467 113.214 158.422 113.357C158.377 113.499 158.392 113.653 158.464 113.785C158.536 113.916 158.659 114.015 158.806 114.059C163.58 115.421 166.713 110.599 167.935 106.784C167.958 106.713 167.965 106.639 167.958 106.566C167.951 106.492 167.929 106.421 167.893 106.356C167.858 106.291 167.809 106.233 167.75 106.186C167.692 106.139 167.624 106.104 167.551 106.082C167.404 106.038 167.245 106.053 167.11 106.123C166.974 106.192 166.872 106.312 166.827 106.454Z" fill="black"/>
</g>
<path d="M164.95 91.4819C163.573 91.3583 162.185 91.4526 160.84 91.761C155.01 93.0891 151.239 98.0122 152.374 102.758C153.508 107.503 159.19 110.261 165.02 108.933C166.365 108.624 167.65 108.107 168.825 107.402L164.95 91.4819Z" fill="#B47867"/>
<path opacity="0.3" d="M164.95 91.4819C163.573 91.3583 162.185 91.4526 160.84 91.761C155.01 93.0891 151.239 98.0122 152.374 102.758C153.508 107.503 159.19 110.261 165.02 108.933C166.365 108.624 167.65 108.107 168.825 107.402L164.95 91.4819Z" fill="black"/>
<path d="M165.361 93.0723L168.442 105.812C171.287 104.12 172.875 101.117 172.168 98.1984C171.461 95.2801 168.703 93.3852 165.361 93.0723Z" fill="#B47867"/>
<path opacity="0.5" d="M165.361 93.0723L168.442 105.812C171.287 104.12 172.875 101.117 172.168 98.1984C171.461 95.2801 168.703 93.3852 165.361 93.0723Z" fill="black"/>
<path opacity="0.2" d="M164.95 91.4819C163.573 91.3583 162.185 91.4526 160.84 91.761C155.01 93.0891 151.239 98.0122 152.374 102.758L166.888 99.4418L164.95 91.4819Z" fill="black"/>
<path d="M173.582 87.8445C174.239 88.722 174.711 89.7166 174.97 90.7713C175.624 93.5205 173.957 95.3645 171.383 96.3035C171.217 96.3712 171.278 96.6418 171.453 96.5826C173.8 95.7367 175.659 94.1295 175.397 91.5072C175.218 90.1025 174.665 88.7673 173.792 87.633C173.687 87.4892 173.477 87.6838 173.582 87.8276V87.8445Z" fill="#263238"/>
<path d="M178.504 107.004C178.758 105.613 178.635 104.182 178.146 102.851C177.186 100.406 174.786 99.7889 172.29 100.034C172.107 100.034 172.177 100.33 172.36 100.313C175.092 100.034 177.439 100.965 178.111 103.697C178.367 104.754 178.406 105.849 178.225 106.92C178.225 107.097 178.469 107.174 178.504 106.996V107.004Z" fill="#263238"/>
<path d="M162.961 97.2172C162.623 97.3007 162.268 97.2846 161.941 97.1709C161.613 97.0573 161.328 96.8513 161.122 96.5794C160.916 96.3076 160.798 95.9822 160.785 95.6452C160.771 95.3082 160.861 94.9748 161.044 94.688C161.227 94.4011 161.495 94.1739 161.812 94.0354C162.129 93.8969 162.482 93.8535 162.825 93.9108C163.168 93.9681 163.486 94.1234 163.737 94.3569C163.988 94.5903 164.161 94.8912 164.235 95.2209C164.33 95.6488 164.251 96.0958 164.013 96.4681C163.776 96.8404 163.398 97.1089 162.961 97.2172Z" fill="white"/>
<path d="M165.186 106.37C164.849 106.453 164.494 106.437 164.166 106.323C163.839 106.21 163.553 106.004 163.347 105.732C163.141 105.46 163.024 105.135 163.01 104.798C162.996 104.46 163.087 104.127 163.27 103.84C163.453 103.553 163.72 103.326 164.038 103.188C164.355 103.049 164.708 103.006 165.051 103.063C165.394 103.12 165.711 103.276 165.962 103.509C166.214 103.743 166.387 104.044 166.46 104.373C166.556 104.801 166.476 105.248 166.239 105.62C166.001 105.993 165.624 106.261 165.186 106.37Z" fill="white"/>
<path d="M156.982 99.7376C156.645 99.8232 156.289 99.8089 155.96 99.6965C155.631 99.5842 155.344 99.3789 155.137 99.1072C154.93 98.8355 154.811 98.5098 154.796 98.1721C154.782 97.8344 154.872 97.5002 155.055 97.2126C155.238 96.925 155.506 96.6971 155.824 96.5583C156.142 96.4196 156.495 96.3763 156.839 96.4341C157.182 96.4919 157.5 96.6481 157.751 96.8826C158.002 97.1171 158.175 97.4191 158.248 97.7498C158.341 98.1753 158.261 98.6192 158.026 98.9894C157.79 99.3595 157.416 99.6275 156.982 99.7376Z" fill="white"/>
<path d="M158.675 106.7C158.338 106.785 157.983 106.77 157.654 106.658C157.326 106.545 157.04 106.34 156.832 106.069C156.625 105.798 156.506 105.473 156.491 105.136C156.476 104.798 156.566 104.464 156.748 104.177C156.93 103.889 157.197 103.661 157.514 103.522C157.832 103.382 158.185 103.338 158.528 103.395C158.871 103.451 159.189 103.606 159.441 103.839C159.693 104.072 159.867 104.373 159.941 104.703C160.037 105.13 159.958 105.576 159.722 105.948C159.487 106.32 159.111 106.589 158.675 106.7Z" fill="white"/>
<path d="M332.764 161.065C332.764 161.065 329.962 215.524 341.692 235.784C352.052 253.666 366.871 275.287 366.871 275.287L376.314 269.561C376.314 269.561 362.857 239.032 357.044 230.945C353.632 226.208 352.331 219.179 353.893 207.167C355.988 191.095 358.257 172.917 349.992 156.574L332.764 161.065Z" fill="#263238"/>
<path opacity="0.5" d="M339.213 170.878C339.213 170.878 340.487 181.528 333.444 198.59C332.894 190.503 332.755 182.704 332.764 176.723L332.86 176.537L339.213 170.878Z" fill="black"/>
<path d="M374.787 270.601L380.504 279.694L375.337 282.232L369.699 274.255L374.787 270.601Z" fill="#FFC3BD"/>
<path d="M371.287 281.581C370.745 282.011 370.059 282.234 369.359 282.207C369.246 282.159 369.15 282.079 369.085 281.978C369.019 281.877 368.987 281.759 368.992 281.64C368.978 281.433 369.044 281.228 369.175 281.065C369.943 280.219 372.666 280.075 372.745 280.067C372.778 280.065 372.81 280.073 372.838 280.09C372.866 280.107 372.888 280.131 372.902 280.16C372.919 280.186 372.928 280.217 372.928 280.248C372.928 280.28 372.919 280.311 372.902 280.337C372.402 280.796 371.862 281.212 371.287 281.581ZM369.69 281.082C369.604 281.137 369.525 281.202 369.455 281.276C369.406 281.32 369.368 281.374 369.344 281.434C369.32 281.494 369.31 281.559 369.315 281.623C369.315 281.843 369.411 281.902 369.481 281.919C369.978 282.105 371.392 281.225 372.352 280.439C371.432 280.485 370.529 280.697 369.69 281.065V281.082Z" fill="#B47867"/>
<path d="M372.876 280.354H372.815C371.942 280.489 369.821 280.16 369.524 279.508C369.437 279.348 369.437 279.094 369.778 278.832C369.898 278.736 370.038 278.665 370.188 278.623C370.338 278.58 370.495 278.568 370.65 278.586C371.741 278.705 372.876 280.075 372.928 280.134C372.943 280.159 372.95 280.186 372.95 280.215C372.95 280.243 372.943 280.27 372.928 280.295C372.916 280.319 372.898 280.339 372.876 280.354ZM370.048 279.018L369.97 279.06C369.743 279.229 369.786 279.331 369.804 279.373C370.013 279.762 371.549 280.126 372.474 280.092C371.997 279.515 371.348 279.096 370.615 278.891C370.417 278.864 370.214 278.909 370.048 279.018Z" fill="#B47867"/>
<path d="M372.963 279.221L379.072 275.363C379.185 275.293 379.318 275.261 379.451 275.274C379.584 275.286 379.709 275.341 379.805 275.431L384.169 279.559C384.261 279.647 384.334 279.752 384.383 279.867C384.433 279.983 384.458 280.106 384.458 280.231C384.458 280.356 384.433 280.48 384.383 280.596C384.334 280.711 384.261 280.816 384.169 280.904L384.012 281.065C381.778 282.418 379.744 283.535 377.03 285.294C373.792 287.341 374.866 287.197 371.095 289.651C368.818 291.131 366.732 288.864 367.604 288.128C371.698 284.744 371.279 283.179 371.968 280.515C372.126 279.98 372.479 279.52 372.963 279.221Z" fill="#263238"/>
<path opacity="0.1" d="M373.504 268.774L375.651 272.183L370.554 275.287L368.678 272.64L373.504 268.774Z" fill="black"/>
<path d="M375.415 265.221L377.51 269.4L366.557 276.176L363.302 272.487L375.415 265.221Z" fill="#B47867"/>
<path d="M321.854 159.255C321.854 159.255 295.227 209.798 296.929 230.658C298.63 251.518 306.73 278.874 306.73 278.874L317.316 277.318C317.316 277.318 316.251 248.413 312.76 232.316C311.521 226.589 317.037 215.838 323.6 205.856C332.38 192.508 344.948 177.239 340.924 159.264L321.854 159.255Z" fill="#263238"/>
<path d="M314.89 274.89L316.277 285.455L310.491 285.726L308.702 276.218L314.89 274.89Z" fill="#FFC3BD"/>
<path d="M307.21 286.233C306.513 286.306 305.813 286.125 305.246 285.726C305.175 285.628 305.137 285.511 305.137 285.392C305.137 285.272 305.175 285.156 305.246 285.058C305.364 284.883 305.544 284.756 305.752 284.702C306.869 284.415 309.191 285.726 309.295 285.785C309.323 285.802 309.344 285.826 309.356 285.855C309.369 285.884 309.372 285.915 309.365 285.946C309.359 285.977 309.343 286.006 309.32 286.029C309.296 286.051 309.267 286.067 309.234 286.073C308.566 286.184 307.888 286.238 307.21 286.233ZM306.154 284.965C306.055 284.952 305.955 284.952 305.857 284.965C305.79 284.975 305.727 285 305.673 285.038C305.618 285.076 305.573 285.126 305.543 285.184C305.42 285.371 305.464 285.464 305.543 285.514C305.848 285.937 307.532 285.963 308.781 285.827C307.959 285.375 307.055 285.082 306.119 284.965H306.154Z" fill="#B47867"/>
<path d="M309.199 286.064H309.13C308.335 285.709 306.738 284.296 306.887 283.526C306.887 283.357 307.044 283.146 307.48 283.103C307.637 283.089 307.795 283.105 307.945 283.152C308.095 283.198 308.234 283.274 308.353 283.374C309.226 284.059 309.357 285.81 309.365 285.912C309.369 285.94 309.365 285.968 309.353 285.994C309.34 286.019 309.32 286.041 309.295 286.056C309.281 286.064 309.265 286.069 309.248 286.07C309.232 286.072 309.215 286.069 309.199 286.064ZM307.585 283.433H307.489C307.21 283.433 307.192 283.56 307.175 283.602C307.175 284.042 308.178 285.15 308.999 285.633C308.929 284.895 308.624 284.198 308.126 283.636C307.978 283.506 307.784 283.437 307.585 283.442V283.433Z" fill="#B47867"/>
<path d="M309.916 285.167L317.212 285.227C317.346 285.229 317.474 285.276 317.577 285.359C317.68 285.442 317.751 285.556 317.779 285.683L319.045 291.444C319.074 291.566 319.078 291.692 319.057 291.815C319.035 291.938 318.989 292.056 318.92 292.162C318.85 292.267 318.76 292.359 318.654 292.43C318.548 292.501 318.429 292.551 318.303 292.577H318.102C315.484 292.51 313.127 292.357 309.854 292.332C305.988 292.332 306.966 292.755 302.419 292.78C299.678 292.78 299.207 289.769 300.368 289.634C305.691 289.033 306.259 287.477 308.318 285.649C308.774 285.309 309.341 285.138 309.916 285.167Z" fill="#263238"/>
<path opacity="0.1" d="M315.108 276.556L315.623 280.515L309.662 281.327L309.069 278.172L315.108 276.556Z" fill="black"/>
<path d="M318.207 273.959L318.355 278.603L305.499 280.447L304.085 275.795L318.207 273.959Z" fill="#B47867"/>
<path d="M319.315 114.617L312.76 105.312C312.76 105.312 312.708 100.516 311.495 99.0609C310.282 97.606 309.165 98.8664 308.423 98.7818C307.445 98.6634 306.634 95.7873 305.089 97.8259C303.544 99.8646 303.474 101.827 305.307 103.51L308.973 106.894C311.213 111.529 313.704 116.047 316.435 120.428L319.315 114.617Z" fill="#FFC3BD"/>
<path d="M347.304 81.0773C352.573 87.122 357.416 93.5032 361.801 100.178C369.254 111.707 376.228 124.709 388.298 120.344C411.181 112.003 388.594 60.505 388.594 60.505L384.65 59.583L376.489 62.3829L361.513 69.8438L352.148 75.3167L348.151 78.1167L347.304 81.0773Z" fill="#B47867"/>
<path opacity="0.7" d="M347.304 81.0773C352.573 87.122 357.416 93.5032 361.801 100.178C369.254 111.707 376.228 124.709 388.298 120.344C411.181 112.003 388.594 60.505 388.594 60.505L384.65 59.583L376.489 62.3829L361.513 69.8438L352.148 75.3167L348.151 78.1167L347.304 81.0773Z" fill="white"/>
<path opacity="0.1" d="M394.922 115.311C380.294 124.616 373.234 106.006 370.336 99.8647C366.845 92.5392 359.863 79.9945 355.962 73.0835L352.148 75.3167L348.151 78.1166L347.278 81.0772C352.546 87.1219 357.39 93.5031 361.775 100.178C369.228 111.707 376.201 124.709 388.271 120.344C390.982 119.391 393.31 117.628 394.922 115.311Z" fill="black"/>
<path d="M366.199 67.5092C354.801 73.1852 346.353 79.2926 347.33 81.1366C348.308 82.9807 358.353 79.8847 369.751 74.2002C381.15 68.5158 389.607 62.4169 388.62 60.5643C387.634 58.7118 377.606 61.8247 366.199 67.5092Z" fill="#B47867"/>
<path opacity="0.4" d="M366.199 67.5092C354.801 73.1852 346.353 79.2926 347.33 81.1366C348.308 82.9807 358.353 79.8847 369.751 74.2002C381.15 68.5158 389.607 62.4169 388.62 60.5643C387.634 58.7118 377.606 61.8247 366.199 67.5092Z" fill="white"/>
<path d="M365.51 66.6208C360.02 69.37 354.286 72.1023 349.399 75.8158C348.081 76.8139 345.838 78.5734 345.76 80.4597L338.14 84.2578L280.286 113.086C279.579 113.433 280.748 115.624 281.446 115.277L289.903 111.047L346.92 82.6337C348.552 83.6742 351.337 82.9213 352.934 82.4645C358.886 80.7727 364.55 77.8544 370.031 75.1221C375.512 72.3899 381.263 69.6322 386.151 65.9187C387.739 64.7091 390.741 62.366 389.502 59.9974C388.263 57.6289 384.562 58.6609 382.616 59.2107C376.646 60.9618 371.017 63.8886 365.51 66.6208ZM366.68 68.8117C368.582 67.8643 385.723 58.6609 387.207 61.317C388.446 63.5333 370.485 72.1446 368.879 72.9482C367.133 73.8364 349.678 82.9974 348.404 80.5613C347.13 78.1251 364.908 69.6914 366.68 68.8117Z" fill="#B47867"/>
<path opacity="0.2" d="M366.679 68.8115C368.582 67.8641 385.723 58.6607 387.207 61.3168C388.446 63.5331 370.485 72.1443 368.879 72.9479C367.133 73.8361 349.678 82.9972 348.404 80.561C347.13 78.1248 364.908 69.6912 366.679 68.8115Z" fill="white"/>
<path d="M313.171 83.6318C313.171 83.6318 307.489 88.8341 313.511 90.7712L315.161 85.6197L313.171 83.6318Z" fill="#263238"/>
<path d="M312.516 93.6556C312.56 94.197 312.883 94.6199 313.249 94.5945C313.616 94.5692 313.904 94.0786 313.851 93.5456C313.799 93.0127 313.476 92.5813 313.11 92.6151C312.743 92.649 312.446 93.1058 312.516 93.6556Z" fill="#263238"/>
<path d="M314.751 94.2056L311.879 98.4351C312.388 98.7633 312.969 98.9705 313.575 99.0396C314.182 99.1087 314.797 99.0378 315.37 98.8326L314.751 94.2056Z" fill="#ED893E"/>
<path d="M338.088 108.941C338.088 108.941 333.261 109.263 331.839 100.795C331.839 100.795 327.117 99.5855 324.717 102.555C322.317 105.524 328.758 110.464 325.677 113.501C322.596 116.537 338.088 108.941 338.088 108.941Z" fill="#FFC3BD"/>
<path opacity="0.1" d="M327.947 105.541C327.412 106.766 326.723 107.922 325.896 108.983C325.45 107.934 324.874 106.86 324.517 105.837L327.947 105.541Z" fill="black"/>
<path d="M333.89 88.3689C334.806 95.5844 335.356 98.6297 332.336 102.961C327.37 107.715 318.433 109 315.309 102.191C312.499 96.0581 311.477 85.2729 318.137 81.128C319.265 80.4179 320.528 79.9308 321.851 79.6944C323.175 79.458 324.533 79.4771 325.849 79.7506C327.165 80.0241 328.412 80.5465 329.52 81.288C330.627 82.0295 331.572 82.9755 332.301 84.0717C333.164 85.3669 333.708 86.8373 333.89 88.3689Z" fill="#FFC3BD"/>
<path d="M312.132 89.418C312.181 89.4207 312.228 89.4353 312.269 89.4604C312.31 89.4856 312.344 89.5205 312.368 89.5618C312.545 89.8739 312.795 90.1413 313.098 90.3426C313.401 90.5439 313.749 90.6734 314.113 90.7207C314.19 90.727 314.261 90.761 314.313 90.8159C314.364 90.8707 314.393 90.9424 314.393 91.0167C314.39 91.0545 314.38 91.0915 314.363 91.1256C314.346 91.1597 314.323 91.1902 314.293 91.2153C314.264 91.2404 314.23 91.2598 314.193 91.2721C314.156 91.2845 314.117 91.2897 314.078 91.2874C313.614 91.2422 313.169 91.0874 312.781 90.8368C312.393 90.5861 312.074 90.2471 311.853 89.8494C311.833 89.8174 311.819 89.7817 311.814 89.7446C311.808 89.7074 311.81 89.6696 311.82 89.6333C311.83 89.5969 311.847 89.5629 311.871 89.5332C311.894 89.5034 311.924 89.4787 311.958 89.4603C312.011 89.432 312.071 89.4174 312.132 89.418Z" fill="#263238"/>
<path d="M322.125 94.121C322.125 94.121 321.322 88.961 318.765 87.726C318.765 87.726 319.865 90.2637 317.019 89.7223C314.174 89.1809 310.622 85.9496 313.843 81.7539C317.063 77.5583 325.092 74.9021 330.233 79.7238C330.233 79.7238 339.03 81.3563 338.577 94.4847C338.498 96.7517 336.15 97.5553 335.435 99.0018C332.616 104.712 326.227 105.405 324.962 99.1879C324.629 97.2383 323.63 95.4537 322.125 94.121Z" fill="#263238"/>
<path d="M323.033 93.5964C323.033 93.5964 320.24 92.8097 319.542 95.2882C319.568 95.3136 319.071 90.7373 323.033 93.5964Z" fill="#263238"/>
<path d="M337.093 80.502C337.093 80.502 335.051 78.4972 333.201 80.3582C333.201 80.3582 335.077 76.1456 337.093 80.502Z" fill="#263238"/>
<path d="M322.291 93.2749C321.82 93.8521 321.473 94.5145 321.269 95.2232C321.065 95.9319 321.009 96.6729 321.104 97.4029C321.366 99.3569 323.373 99.5853 324.866 98.4095C326.218 97.3437 327.693 95.0259 326.672 93.3934C326.444 93.0342 326.128 92.7356 325.751 92.5248C325.375 92.3139 324.95 92.1973 324.515 92.1856C324.08 92.1738 323.649 92.2672 323.261 92.4574C322.872 92.6476 322.539 92.9286 322.291 93.2749Z" fill="#FFC3BD"/>
<path d="M350.952 155.686C349.861 144.765 355.263 122.848 346.78 112.452C341.133 105.532 317.726 109.161 314.855 115.768C313.336 119.261 317.892 136.23 319.498 142.938C320.371 146.525 321.435 160.025 321.435 160.025C321.435 160.025 328.539 161.438 339.301 160.313C343.149 159.907 347.016 160.025 351.414 158.52C351.414 158.52 351.022 156.388 350.952 155.686Z" fill="#B47867"/>
<path opacity="0.1" d="M314.594 126.866L319.359 121.461L321.532 119.989C321.532 119.989 319.655 128.803 316.81 134.42C315.981 131.967 315.178 129.378 314.594 126.866Z" fill="black"/>
<path d="M315.693 118.094L303.474 128.921L296.213 113.915L294.563 108.755C294.563 108.755 292.102 106.386 291.692 104.712C291.282 103.037 287.599 106.226 287.25 107.596C286.901 108.966 285.076 111.665 287.791 113.162C289.266 113.929 290.583 114.952 291.675 116.182C291.675 116.182 296.684 137.329 301.798 138.175C306.913 139.021 319.114 125.487 319.114 125.487L315.693 118.094Z" fill="#FFC3BD"/>
<path d="M318.067 112.452C318.067 112.452 312.586 113.873 309.845 121.004C309.845 121.004 308.1 120.784 307.437 123.093C310.188 125.663 312.428 128.703 314.043 132.06C314.644 131.927 315.182 131.606 315.576 131.148C315.971 130.689 316.199 130.118 316.225 129.522C316.225 129.522 327.012 118.948 318.067 112.452Z" fill="#B47867"/>
<path d="M127.789 104.534L130.407 99.8054C130.407 99.8054 129.002 96.8871 129.665 94.8907C130.328 92.8944 131.646 92.9959 132.039 91.5748C132.432 90.1537 134.456 89.9507 134.456 89.9507C134.456 89.9507 139.126 94.8907 138.174 97.0309C137.223 99.171 134.256 101.717 134.256 101.717L131.533 107.808L127.789 104.534Z" fill="#FFB573"/>
<path d="M100.149 80.4258C100.149 80.4258 104.801 79.9859 107.855 85.9072C110.91 91.8285 118.913 108.899 121.383 108.687C123.853 108.476 128.164 102.419 128.164 102.419C128.164 102.419 129.971 102.258 133.025 106.488C133.025 106.488 127.789 117.628 119.637 117.628C112.551 117.628 104.661 104.238 104.661 104.238C104.661 104.238 97.6789 86.7785 100.149 80.4258Z" fill="#263238"/>
<path opacity="0.2" d="M103.657 101.548C104.242 103.197 104.661 104.238 104.661 104.238C106.2 106.751 107.951 109.136 109.897 111.369C108.1 103.527 104.094 91.3379 104.094 91.3379L103.657 101.548Z" fill="black"/>
<path d="M77.623 78.8945C80.2413 75.9847 79.3685 70.2156 78.6179 66.2061L86.8306 72.9732C86.0014 76.213 85.8618 78.0994 90.6707 79.216L96.3174 80.3833L97.7749 86.0847C97.7749 86.0847 95.0781 89.1215 93.9872 89.4683C92.8962 89.8151 85.8443 89.8912 85.8443 89.8912L81.2537 89.1891C81.2537 89.1891 75.3713 85.3826 75.2229 85.0273C74.4024 84.0655 73.5283 83.1477 72.6047 82.2781L72.2119 80.0534L76.8026 79.3175C77.117 79.2689 77.4057 79.12 77.623 78.8945Z" fill="#FFB573"/>
<path opacity="0.2" d="M81.9519 68.9468L86.7782 73.0071C86.5675 73.7599 86.4302 74.5302 86.368 75.3079C84.5265 75.0457 81.6464 73.5316 81.2537 71.6029C81.2551 70.675 81.495 69.7622 81.9519 68.9468Z" fill="black"/>
<path d="M73.3111 59.786C75.1527 66.3417 75.7898 69.1501 79.979 71.857C86.289 75.9342 94.1874 72.2968 94.4056 65.3435C94.5976 59.0839 91.543 49.3814 84.2642 48.1295C82.6643 47.8495 81.0172 47.968 79.4773 48.4737C77.9375 48.9795 76.5555 49.8559 75.4607 51.021C74.366 52.186 73.5945 53.6014 73.2185 55.1345C72.8425 56.6676 72.8744 58.2681 73.3111 59.786Z" fill="#FFB573"/>
<path d="M84.6048 59.3206C84.727 59.862 85.111 60.2427 85.4775 60.1665C85.8441 60.0904 86.0448 59.5913 85.9314 59.0499C85.8179 58.5086 85.4164 58.1279 85.0586 58.204C84.7008 58.2802 84.5175 58.8046 84.6048 59.3206Z" fill="#263238"/>
<path d="M90.9063 58.0689C91.0284 58.6187 91.4125 58.9824 91.779 58.9148C92.1456 58.8471 92.3463 58.3395 92.2328 57.7982C92.1194 57.2568 91.7179 56.8846 91.3601 56.9523C91.0023 57.0199 90.7666 57.5275 90.9063 58.0689Z" fill="#263238"/>
<path d="M89.1689 59.439C89.9336 60.5713 90.8558 61.5961 91.9094 62.4842C91.6658 62.7389 91.3678 62.939 91.0362 63.0705C90.7045 63.202 90.3473 63.2617 89.9893 63.2455L89.1689 59.439Z" fill="#ED893E"/>
<path d="M89.894 66.7897C90.173 66.7746 90.4502 66.7378 90.7231 66.6798C90.7663 66.6715 90.8047 66.6478 90.8306 66.6133C90.8565 66.5787 90.868 66.536 90.8628 66.4937C90.8586 66.4723 90.8501 66.452 90.8377 66.434C90.8252 66.4159 90.8091 66.4005 90.7904 66.3887C90.7716 66.3768 90.7506 66.3687 90.7285 66.365C90.7065 66.3612 90.6838 66.3618 90.662 66.3668C89.9712 66.5204 89.2527 66.5146 88.5646 66.3501C87.8764 66.1855 87.2376 65.8668 86.6997 65.4194C86.6685 65.3891 86.6261 65.3721 86.5819 65.3721C86.5377 65.3721 86.4953 65.3891 86.4641 65.4194C86.4328 65.4497 86.4153 65.4907 86.4153 65.5336C86.4153 65.5764 86.4328 65.6175 86.4641 65.6478C86.9289 66.0494 87.4716 66.3573 88.0605 66.5533C88.6494 66.7494 89.2727 66.8298 89.894 66.7897Z" fill="#263238"/>
<path d="M81.8032 58.5931C81.8757 58.59 81.9453 58.5646 82.0018 58.5204C82.0584 58.4763 82.0989 58.4158 82.1174 58.3478C82.3265 57.8614 82.6366 57.4218 83.0285 57.0566C83.4204 56.6913 83.8856 56.4081 84.3953 56.2246C84.4378 56.2104 84.4771 56.1881 84.5107 56.1591C84.5443 56.13 84.5716 56.0948 84.5911 56.0555C84.6106 56.0162 84.6218 55.9735 84.6242 55.9299C84.6265 55.8863 84.6199 55.8427 84.6048 55.8016C84.5751 55.7225 84.5146 55.6578 84.4363 55.6214C84.358 55.585 84.268 55.5799 84.1858 55.6071C83.5751 55.8202 83.0181 56.1567 82.5517 56.5942C82.0853 57.0316 81.7201 57.5602 81.4803 58.1448C81.459 58.2266 81.4718 58.3133 81.5158 58.3861C81.5599 58.4589 81.6318 58.512 81.7159 58.5339C81.7395 58.5603 81.7695 58.5807 81.8032 58.5931Z" fill="#263238"/>
<path d="M92.1891 54.8711C92.2488 54.8679 92.3066 54.8499 92.3571 54.8188C92.4075 54.7877 92.4488 54.7445 92.4771 54.6935C92.4983 54.6558 92.5115 54.6145 92.516 54.5718C92.5204 54.5291 92.516 54.486 92.503 54.445C92.4899 54.4041 92.4686 54.366 92.4402 54.3331C92.4118 54.3003 92.3768 54.2732 92.3375 54.2536C91.8693 53.9947 91.3425 53.8515 90.8036 53.8367C90.2648 53.822 89.7305 53.9361 89.2479 54.169C89.1736 54.207 89.1175 54.2715 89.0914 54.3488C89.0653 54.4262 89.0714 54.5104 89.1083 54.5835C89.1506 54.6569 89.2209 54.7113 89.3041 54.735C89.3873 54.7587 89.4768 54.7499 89.5534 54.7104C89.9365 54.543 90.3548 54.465 90.7746 54.4826C91.1945 54.5002 91.6042 54.613 91.9709 54.8119C92.0354 54.8535 92.1118 54.8742 92.1891 54.8711Z" fill="#263238"/>
<path d="M82.5191 143.521C85.5388 169.516 94.0657 191.737 96.4832 208.097C98.8396 224.228 96.6926 226.462 109.522 276.251L120.528 273.587L112.359 204.544C112.359 204.544 108.868 173.551 105.612 135.392C105.603 135.392 81.8122 137.422 82.5191 143.521Z" fill="#B47867"/>
<path opacity="0.1" d="M87.7554 171.588C89.6143 179.252 91.578 186.4 93.2363 192.947C96.6749 175.302 94.4058 148.013 94.4058 148.013L87.7554 171.588Z" fill="black"/>
<path d="M72.3253 139.258C68.7558 165.185 70.9551 188.734 69.7071 205.179C68.4241 222.097 66.8008 225.759 66.8008 277.08H78.1466L86.0014 205.458C86.0014 205.458 91.8227 174.447 98.22 136.661C98.2112 136.661 73.1632 133.176 72.3253 139.258Z" fill="#B47867"/>
<path d="M74.1141 79.7406C74.1141 79.7406 78.1812 87.9119 87.7815 87.066C97.3818 86.2201 93.6028 79.7406 93.6028 79.7406C93.6028 79.7406 100.585 79.1738 104.076 81.7115C107.567 84.2492 105.821 137.262 105.821 137.262C105.821 137.262 89.239 140.645 72.0719 138.666C72.0719 138.666 63.0563 81.9906 68.5809 80.8656L74.1141 79.7406Z" fill="#263238"/>
<path opacity="0.4" d="M69.2178 118.339L70.0905 91.3379L66.9661 95.9565C67.4112 102.8 68.3014 110.98 69.2178 118.339Z" fill="black"/>
<path d="M68.9476 273.392L68.5811 284.355L74.542 284.093L75.4234 274.17L68.9476 273.392Z" fill="#FFB573"/>
<path d="M75.877 284.321C75.8434 284.321 75.8108 284.31 75.7841 284.29C75.7574 284.27 75.7379 284.242 75.7286 284.211C75.7207 284.179 75.7222 284.145 75.733 284.114C75.7438 284.083 75.7635 284.055 75.7897 284.034C75.8944 283.966 78.1374 282.409 79.2807 282.596C79.4995 282.631 79.6961 282.746 79.8306 282.917C79.916 283.009 79.9703 283.124 79.9859 283.246C80.0015 283.369 79.9778 283.493 79.9178 283.602C79.3738 284.061 78.6752 284.311 77.9541 284.304C77.2637 284.371 76.5684 284.377 75.877 284.321ZM76.3744 284.059C77.6661 284.059 79.3942 283.907 79.6647 283.441C79.6647 283.382 79.7433 283.289 79.6036 283.103C79.5648 283.049 79.5141 283.005 79.4552 282.973C79.3963 282.94 79.3307 282.921 79.2633 282.917C79.1563 282.9 79.0473 282.9 78.9403 282.917C78.0193 283.14 77.1492 283.527 76.3744 284.059Z" fill="#B47867"/>
<path d="M75.7897 284.321C75.7636 284.309 75.7417 284.29 75.7263 284.266C75.7109 284.242 75.7026 284.214 75.7024 284.186C75.7024 284.101 75.7024 282.3 76.4966 281.513C76.6098 281.4 76.7455 281.31 76.8955 281.249C77.0455 281.188 77.2067 281.157 77.3694 281.158C77.8232 281.158 77.9803 281.361 78.0152 281.538C78.2421 282.274 76.7497 283.873 75.9642 284.304C75.9445 284.312 75.9228 284.312 75.9031 284.304C75.8868 284.315 75.8681 284.323 75.8484 284.326C75.8288 284.329 75.8087 284.327 75.7897 284.321ZM77.2908 281.462C77.0851 281.482 76.8934 281.572 76.7497 281.716C76.3026 282.343 76.0622 283.086 76.0602 283.848C76.8544 283.273 77.8057 282.037 77.7272 281.598C77.7272 281.555 77.6748 281.445 77.3868 281.445H77.2908V281.462Z" fill="#B47867"/>
<path d="M75.0568 283.467L67.5773 284.211C67.441 284.224 67.3131 284.281 67.2148 284.373C67.1164 284.465 67.0534 284.587 67.0361 284.719L66.3292 290.75C66.3121 290.877 66.3211 291.007 66.3558 291.131C66.3905 291.254 66.4501 291.37 66.5312 291.472C66.6124 291.573 66.7134 291.658 66.8285 291.722C66.9436 291.785 67.0705 291.826 67.202 291.841H67.4202C70.1082 291.528 72.4909 291.139 75.851 290.818C79.8133 290.42 78.8532 290.979 83.5138 290.581C86.324 290.344 86.516 287.197 85.3116 287.197C79.7958 287.071 79.0627 285.506 76.7586 283.814C76.2564 283.495 75.6489 283.371 75.0568 283.467Z" fill="#263238"/>
<path opacity="0.1" d="M68.8953 275.118L68.7556 279.229L74.9522 279.508L75.2489 276.209L68.8953 275.118Z" fill="black"/>
<path d="M65.4568 272.741L65.771 277.52L79.1329 278.214L80.1278 273.316L65.4568 272.741Z" fill="#263238"/>
<path d="M111.101 271.921L113.213 282.697L118.965 281.183L117.595 271.312L111.101 271.921Z" fill="#FFB573"/>
<path d="M120.711 281.014C120.677 281.014 120.645 281.004 120.617 280.986C120.589 280.968 120.567 280.942 120.554 280.913C120.54 280.882 120.537 280.849 120.545 280.817C120.553 280.785 120.571 280.756 120.597 280.735C120.684 280.659 122.779 278.899 123.966 278.984C124.188 278.996 124.397 279.09 124.551 279.246C124.644 279.33 124.709 279.441 124.736 279.562C124.762 279.683 124.749 279.809 124.699 279.923C124.49 280.329 123.652 280.642 122.814 280.769C122.121 280.905 121.417 280.988 120.711 281.014ZM121.182 280.701C122.474 280.616 124.175 280.278 124.402 279.788C124.402 279.728 124.455 279.627 124.298 279.458C124.255 279.407 124.2 279.366 124.138 279.34C124.075 279.313 124.008 279.301 123.94 279.305C123.836 279.288 123.73 279.288 123.626 279.305C122.727 279.617 121.898 280.09 121.182 280.701Z" fill="#B47867"/>
<path d="M120.623 281.065C120.596 281.054 120.573 281.037 120.554 281.014C120.536 280.992 120.524 280.966 120.519 280.938C120.519 280.853 120.335 279.052 121.051 278.197C121.158 278.071 121.291 277.968 121.441 277.894C121.591 277.82 121.756 277.776 121.924 277.766C122.378 277.724 122.561 277.91 122.613 278.087C122.901 278.798 121.566 280.523 120.868 281.031H120.798C120.776 281.054 120.748 281.07 120.716 281.076C120.685 281.082 120.652 281.078 120.623 281.065ZM121.845 278.079C121.643 278.116 121.461 278.22 121.33 278.375C120.941 279.037 120.771 279.799 120.842 280.557C121.583 279.914 122.421 278.603 122.29 278.163C122.29 278.163 122.229 278.02 121.932 278.053H121.845V278.079Z" fill="#B47867"/>
<path d="M119.829 280.219L112.454 281.631C112.319 281.655 112.196 281.723 112.107 281.825C112.017 281.927 111.968 282.056 111.966 282.189L111.817 288.263C111.81 288.522 111.909 288.773 112.092 288.962C112.275 289.15 112.528 289.261 112.795 289.27H113.004C115.622 288.711 117.988 288.119 121.304 287.493C125.205 286.749 124.306 287.392 128.915 286.571C131.69 286.081 131.533 282.934 130.372 283.01C124.865 283.382 123.992 281.91 121.54 280.472C121.021 280.187 120.412 280.096 119.829 280.219Z" fill="#263238"/>
<path opacity="0.1" d="M111.433 273.62L112.227 277.655L118.337 276.623L117.874 273.341L111.433 273.62Z" fill="black"/>
<path d="M107.549 272.022L108.928 276.624L122.124 274.475L121.985 269.484L107.549 272.022Z" fill="#263238"/>
<path d="M74.6204 63.254C74.6204 63.254 77.2387 60.4202 77.0467 57.9333C77.0467 57.9333 79.1326 56.7744 80.0751 53.3231C80.0751 53.3231 91.9621 52.7141 92.5119 50.0749C93.0617 47.4357 89.5096 47.9432 89.5096 47.9432C89.5096 47.9432 93.3323 46.5221 90.8973 44.382C88.4623 42.2419 85.556 44.9995 85.556 44.9995C85.556 44.9995 88.1219 40.77 84.5786 40.6262C81.2272 40.4993 81.0875 45.9807 79.246 45.8116C78.0853 45.7016 78.6962 40.8292 74.6204 46.3191C70.5446 51.809 71.4872 53.8391 71.4872 53.8391C71.4872 53.8391 66.5649 54.2959 66.6696 57.1128C66.7743 59.9296 68.4151 59.2444 68.869 60.0057C69.3228 60.7671 67.5511 61.6975 69.0435 63.254C70.5359 64.8104 74.6204 63.254 74.6204 63.254Z" fill="#263238"/>
<path d="M72.5434 65.2673C72.8815 65.8148 73.3276 66.2924 73.8562 66.6727C74.3848 67.0529 74.9856 67.3285 75.6242 67.4836C77.3697 67.8812 78.1377 66.3755 77.6054 64.8275C77.1166 63.4402 75.6417 61.5623 73.9398 61.8245C73.566 61.8946 73.2166 62.055 72.9239 62.2909C72.6311 62.5268 72.4046 62.8306 72.2654 63.174C72.1261 63.5174 72.0785 63.8893 72.1271 64.2553C72.1757 64.6212 72.3189 64.9693 72.5434 65.2673Z" fill="#FFB573"/>
<path d="M71.871 54.3636C71.2894 53.618 71.0155 52.689 71.1029 51.7582C71.1728 50.0664 69.3574 50.5739 69.5669 51.9951C69.6325 52.5791 69.8931 53.1265 70.3089 53.554C70.7248 53.9815 71.2732 54.2657 71.871 54.3636Z" fill="#263238"/>
<path d="M140.199 102.631L142.442 102.047L144.659 104.196C144.807 103.585 144.791 102.947 144.614 102.343C144.436 101.74 144.103 101.19 143.645 100.746C143.187 100.302 142.62 99.979 141.997 99.807C141.374 99.635 140.716 99.6199 140.086 99.7632L135.923 95.7282L132.589 92.4969L128.426 88.462C128.574 87.8509 128.558 87.2133 128.381 86.6096C128.203 86.006 127.87 85.4562 127.412 85.0124C126.954 84.5685 126.387 84.2453 125.764 84.0733C125.141 83.9013 124.483 83.8862 123.853 84.0295L126.069 86.178L125.467 88.352L123.224 88.9357L121.007 86.7871C120.86 87.3982 120.875 88.0358 121.053 88.6395C121.23 89.2431 121.564 89.7929 122.022 90.2367C122.479 90.6806 123.047 91.0038 123.669 91.1758C124.292 91.3478 124.95 91.3629 125.581 91.2196L129.744 95.2545L133.078 98.4774L137.241 102.512C137.094 103.124 137.11 103.761 137.287 104.365C137.465 104.969 137.798 105.519 138.256 105.963C138.713 106.407 139.28 106.731 139.902 106.905C140.525 107.078 141.183 107.095 141.814 106.953L139.641 104.805L140.199 102.631Z" fill="#263238"/>
<path opacity="0.4" d="M140.199 102.631L142.442 102.047L144.659 104.196C144.807 103.585 144.791 102.947 144.614 102.343C144.436 101.74 144.103 101.19 143.645 100.746C143.187 100.302 142.62 99.979 141.997 99.807C141.374 99.635 140.716 99.6199 140.086 99.7632L135.923 95.7282L132.589 92.4969L128.426 88.462C128.574 87.8509 128.558 87.2133 128.381 86.6096C128.203 86.006 127.87 85.4562 127.412 85.0124C126.954 84.5685 126.387 84.2453 125.764 84.0733C125.141 83.9013 124.483 83.8862 123.853 84.0295L126.069 86.178L125.467 88.352L123.224 88.9357L121.007 86.7871C120.86 87.3982 120.875 88.0358 121.053 88.6395C121.23 89.2431 121.564 89.7929 122.022 90.2367C122.479 90.6806 123.047 91.0038 123.669 91.1758C124.292 91.3478 124.95 91.3629 125.581 91.2196L129.744 95.2545L133.078 98.4774L137.241 102.512C137.094 103.124 137.11 103.761 137.287 104.365C137.465 104.969 137.798 105.519 138.256 105.963C138.713 106.407 139.28 106.731 139.902 106.905C140.525 107.078 141.183 107.095 141.814 106.953L139.641 104.805L140.199 102.631Z" fill="white"/>
<path d="M86.8743 129.369L90.1471 125.749L88.1485 123.77L84.4131 126.933L83.9418 127.821C83.7946 128.088 83.6095 128.333 83.392 128.549L78.8711 132.931L80.6951 134.724L85.216 130.342C85.4375 130.129 85.6905 129.95 85.9666 129.809L86.8743 129.369Z" fill="#263238"/>
<path opacity="0.7" d="M86.8743 129.369L90.1471 125.749L88.1485 123.77L84.4131 126.933L83.9418 127.821C83.7946 128.088 83.6095 128.333 83.392 128.549L78.8711 132.931L80.6951 134.724L85.216 130.342C85.4375 130.129 85.6905 129.95 85.9666 129.809L86.8743 129.369Z" fill="white"/>
<path d="M90.0947 125.808L90.147 125.749L88.1484 123.77H88.0873C87.9303 124.057 88.1834 124.615 88.7157 125.157C89.2481 125.698 89.8067 125.96 90.0947 125.808Z" fill="#263238"/>
<path opacity="0.4" d="M90.0947 125.808L90.147 125.749L88.1484 123.77H88.0873C87.9303 124.057 88.1834 124.615 88.7157 125.157C89.2481 125.698 89.8067 125.96 90.0947 125.808Z" fill="white"/>
<path d="M78.9495 137.059L80.2936 135.739L80.3721 135.824C80.4667 135.913 80.5935 135.963 80.7256 135.963C80.8577 135.963 80.9845 135.913 81.079 135.824C81.1271 135.779 81.1653 135.725 81.1914 135.665C81.2175 135.606 81.2309 135.542 81.2309 135.477C81.2309 135.412 81.2175 135.348 81.1914 135.289C81.1653 135.229 81.1271 135.175 81.079 135.13L78.4084 132.533C78.3127 132.445 78.1852 132.396 78.0531 132.398C77.921 132.4 77.7948 132.451 77.7014 132.542C77.608 132.632 77.5548 132.755 77.5532 132.883C77.5515 133.011 77.6016 133.134 77.6928 133.227L77.78 133.303L76.4185 134.623C76.1708 134.581 75.9163 134.602 75.6794 134.684C75.4425 134.765 75.2312 134.904 75.0658 135.088L67.211 142.701C66.2771 143.606 66.7484 144.63 67.6735 145.535C68.5986 146.44 69.6634 146.888 70.5973 145.983L78.4521 138.37C78.6425 138.21 78.7879 138.006 78.8749 137.776C78.9619 137.547 78.9876 137.3 78.9495 137.059Z" fill="#B47867"/>
<path opacity="0.4" d="M78.9495 137.059L80.2936 135.739L80.3721 135.824C80.4667 135.913 80.5935 135.963 80.7256 135.963C80.8577 135.963 80.9845 135.913 81.079 135.824C81.1271 135.779 81.1653 135.725 81.1914 135.665C81.2175 135.606 81.2309 135.542 81.2309 135.477C81.2309 135.412 81.2175 135.348 81.1914 135.289C81.1653 135.229 81.1271 135.175 81.079 135.13L78.4084 132.533C78.3127 132.445 78.1852 132.396 78.0531 132.398C77.921 132.4 77.7948 132.451 77.7014 132.542C77.608 132.632 77.5548 132.755 77.5532 132.883C77.5515 133.011 77.6016 133.134 77.6928 133.227L77.78 133.303L76.4185 134.623C76.1708 134.581 75.9163 134.602 75.6794 134.684C75.4425 134.765 75.2312 134.904 75.0658 135.088L67.211 142.701C66.2771 143.606 66.7484 144.63 67.6735 145.535C68.5986 146.44 69.6634 146.888 70.5973 145.983L78.4521 138.37C78.6425 138.21 78.7879 138.006 78.8749 137.776C78.9619 137.547 78.9876 137.3 78.9495 137.059Z" fill="white"/>
<path d="M64.4705 131.933L68.7121 135.392C68.7121 135.392 71.9501 134.665 73.8178 135.705C75.6854 136.746 75.3276 137.972 76.6804 138.632C78.0332 139.292 77.815 141.271 77.815 141.271C77.815 141.271 71.8715 144.655 69.8991 143.335C67.9267 142.016 65.9804 138.641 65.9804 138.641L60.3948 134.809L64.4705 131.933Z" fill="#FFB573"/>
<path d="M70.5969 80.4258C70.5969 80.4258 60.5864 80.9756 56.0743 92.2684C51.5621 103.561 45.7496 113.839 49.0922 122.721C52.4349 131.603 60.7261 136.957 60.7261 136.957C60.7261 136.957 65.2906 134.842 66.8353 131.036C66.8353 131.036 58.1078 123.99 59.3907 117.924C60.6737 111.859 69.1656 97.5045 69.1656 97.5045C69.1656 97.5045 79.8743 84.2408 70.5969 80.4258Z" fill="#263238"/>
</svg>
