<svg width="295" height="730" viewBox="0 0 295 730" fill="none" xmlns="http://www.w3.org/2000/svg">
<path d="M73.935 723L72.2529 361.5V723H73.935Z" fill="#5CAAE6"/>
<path d="M182 268H180V730H182V268Z" fill="#5CAAE6"/>
<path d="M236 268H234V730H236V268Z" fill="#5CAAE6"/>
<path d="M290 268H288V730H290V268Z" fill="#5CAAE6"/>
<path d="M391 412.986H25V414.622H391V412.986Z" fill="#5CAAE6"/>
<path d="M391 465.472H25V467.108H391V465.472Z" fill="#5CAAE6"/>
<path d="M391 517.934H25V519.57H391V517.934Z" fill="#5CAAE6"/>
<path d="M391 570.428H25V572.064H391V570.428Z" fill="#5CAAE6"/>
<path d="M391 622.908H25V624.544H391V622.908Z" fill="#5CAAE6"/>
<path d="M391 675.403H25V677.039H391V675.403Z" fill="#5CAAE6"/>
<path d="M250 686V277C250 138.929 138.071 27 0 27V686H250Z" fill="#D7D3FF"/>
</svg>
