<svg width="103" height="79" viewBox="0 0 103 79" fill="none" xmlns="http://www.w3.org/2000/svg">
<path d="M103 69.3457H0V69.3987H103V69.3457Z" fill="#EBEBEB"/>
<path d="M28.3579 70.7881H21.5352V70.841H28.3579V70.7881Z" fill="#EBEBEB"/>
<path d="M43.6494 72.7285H35.2549V72.7815H43.6494V72.7285Z" fill="#EBEBEB"/>
<path d="M21.3296 72.0659H10.8071V72.1189H21.3296V72.0659Z" fill="#EBEBEB"/>
<path d="M92.6795 71.144H73.4927V71.197H92.6795V71.144Z" fill="#EBEBEB"/>
<path d="M71.6594 71.144H70.3555V71.197H71.6594V71.144Z" fill="#EBEBEB"/>
<path d="M65.8049 72.0381H57.1055V72.091H65.8049V72.0381Z" fill="#EBEBEB"/>
<path d="M48.8218 59.8994H9.04529C8.73369 59.8988 8.43503 59.7711 8.21488 59.5444C7.99474 59.3176 7.87109 59.0103 7.87109 58.69V1.19883C7.87381 0.88028 7.99865 0.57569 8.2185 0.351224C8.43835 0.126758 8.73546 0.0005457 9.04529 0H48.8218C49.1338 0 49.433 0.127421 49.6536 0.354232C49.8742 0.581044 49.9981 0.888665 49.9981 1.20942V58.69C49.9981 59.0107 49.8742 59.3183 49.6536 59.5451C49.433 59.772 49.1338 59.8994 48.8218 59.8994ZM9.04529 0.0423618C8.74735 0.0429229 8.46179 0.165012 8.2513 0.381832C8.04081 0.598652 7.92259 0.892486 7.92259 1.19883V58.69C7.92259 58.9963 8.04081 59.2901 8.2513 59.507C8.46179 59.7238 8.74735 59.8459 9.04529 59.8464H48.8218C49.1198 59.8453 49.4053 59.7231 49.616 59.5065C49.8267 59.2898 49.9455 58.9963 49.9466 58.69V1.19883C49.9455 0.892463 49.8267 0.598957 49.616 0.382318C49.4053 0.165679 49.1198 0.0434779 48.8218 0.0423618H9.04529Z" fill="#EBEBEB"/>
<path d="M93.3821 59.8994H53.6035C53.2919 59.8983 52.9933 59.7705 52.773 59.5439C52.5526 59.3173 52.4283 59.0104 52.4272 58.69V1.19883C52.4305 0.880087 52.5558 0.575499 52.776 0.351092C52.9962 0.126684 53.2935 0.000539749 53.6035 0H93.3821C93.6916 0.00110236 93.9882 0.127561 94.2076 0.351968C94.427 0.576374 94.5515 0.880646 94.5542 1.19883V58.69C94.5545 58.8485 94.5244 59.0055 94.4657 59.1521C94.4069 59.2987 94.3206 59.432 94.2118 59.5443C94.1029 59.6566 93.9737 59.7457 93.8313 59.8067C93.6889 59.8676 93.5363 59.8991 93.3821 59.8994ZM53.6035 0.0423618C53.3055 0.0434779 53.0201 0.165679 52.8094 0.382318C52.5987 0.598957 52.4798 0.892463 52.4787 1.19883V58.69C52.4798 58.9963 52.5987 59.2898 52.8094 59.5065C53.0201 59.7231 53.3055 59.8453 53.6035 59.8464H93.3821C93.6801 59.8453 93.9655 59.7231 94.1762 59.5065C94.3869 59.2898 94.5058 58.9963 94.5069 58.69V1.19883C94.5058 0.892463 94.3869 0.598957 94.1762 0.382318C93.9655 0.165679 93.6801 0.0434779 93.3821 0.0423618H53.6035Z" fill="#EBEBEB"/>
<path d="M14.5581 24.5907H32.4307C32.4307 24.5907 31.4686 22.2905 28.255 23.0064C28.255 23.0064 27.5794 20.3906 25.128 20.7527C25.128 20.7527 23.0989 18.4906 20.1386 19.3675C17.1784 20.2444 17.4339 23.0064 17.4339 23.0064C17.4339 23.0064 15.2441 22.4176 14.5581 24.5907Z" fill="#FAFAFA"/>
<path d="M62.3954 10.5782H44.5249C44.5249 10.5782 45.4849 8.27581 48.6985 8.99172C48.6985 8.99172 49.3741 6.37589 51.8276 6.73808C51.8276 6.73808 53.8567 4.47809 56.8149 5.35497C59.773 6.23186 59.5217 8.99172 59.5217 8.99172C59.5217 8.99172 61.7197 8.40501 62.3954 10.5782Z" fill="#FAFAFA"/>
<path d="M75.5752 9.97821H89.2474C89.2474 9.97821 88.7242 8.04864 86.7466 8.68406C86.7466 8.68406 87.1586 6.08729 85.7001 5.78652C84.2416 5.48576 83.7781 7.46193 83.7781 7.46193C83.4444 7.07302 83.0116 6.78764 82.5287 6.63796C82.0457 6.48827 81.5317 6.48021 81.0445 6.61469C80.5654 6.74295 80.1289 7.00168 79.7809 7.36363C79.4328 7.72559 79.1862 8.17736 79.0669 8.67135C79.0669 8.67135 76.632 7.23741 75.5752 9.97821Z" fill="#FAFAFA"/>
<path d="M26.1002 35.4077H9.46777V69.2907H26.1002V35.4077Z" fill="#E6E6E6"/>
<path d="M23.0761 35.4077H9.46777V69.2907H23.0761V35.4077Z" fill="#F0F0F0"/>
<path d="M26.296 35.4077H9.10938V35.9605H26.296V35.4077Z" fill="#E0E0E0"/>
<path d="M26.296 34.3022H9.10938V34.8551H26.296V34.3022Z" fill="#E0E0E0"/>
<path d="M25.9354 34.8555H9.46777V35.4083H25.9354V34.8555Z" fill="#F0F0F0"/>
<path d="M13.3157 37.4019H10.7593V40.0706H13.3157V37.4019Z" fill="#E6E6E6"/>
<path d="M13.3137 37.4019H10.9839V40.0706H13.3137V37.4019Z" fill="#F5F5F5"/>
<path d="M17.1863 37.4019H14.6299V40.0706H17.1863V37.4019Z" fill="#E6E6E6"/>
<path d="M17.1844 37.4019H14.8545V40.0706H17.1844V37.4019Z" fill="#F5F5F5"/>
<path d="M21.0574 37.4019H18.501V40.0706H21.0574V37.4019Z" fill="#E6E6E6"/>
<path d="M21.055 37.4019H18.7251V40.0706H21.055V37.4019Z" fill="#F5F5F5"/>
<path d="M13.3157 41.3301H10.7593V43.9989H13.3157V41.3301Z" fill="#E6E6E6"/>
<path d="M13.3137 41.3301H10.9839V43.9989H13.3137V41.3301Z" fill="#F5F5F5"/>
<path d="M17.1863 41.3301H14.6299V43.9989H17.1863V41.3301Z" fill="#E6E6E6"/>
<path d="M17.1844 41.3301H14.8545V43.9989H17.1844V41.3301Z" fill="#F5F5F5"/>
<path d="M21.0574 41.3301H18.501V43.9989H21.0574V41.3301Z" fill="#E6E6E6"/>
<path d="M21.055 41.3301H18.7251V43.9989H21.055V41.3301Z" fill="#F5F5F5"/>
<path d="M13.3157 48.5254H10.7593V51.1942H13.3157V48.5254Z" fill="#E6E6E6"/>
<path d="M13.3137 48.5254H10.9839V51.1942H13.3137V48.5254Z" fill="#F5F5F5"/>
<path d="M17.1863 48.5254H14.6299V51.1942H17.1863V48.5254Z" fill="#E6E6E6"/>
<path d="M17.1844 48.5254H14.8545V51.1942H17.1844V48.5254Z" fill="#F5F5F5"/>
<path d="M21.0574 48.5254H18.501V51.1942H21.0574V48.5254Z" fill="#E6E6E6"/>
<path d="M21.055 48.5254H18.7251V51.1942H21.055V48.5254Z" fill="#F5F5F5"/>
<path d="M13.3157 52.4541H10.7593V55.1229H13.3157V52.4541Z" fill="#E6E6E6"/>
<path d="M13.3137 52.4541H10.9839V55.1229H13.3137V52.4541Z" fill="#F5F5F5"/>
<path d="M17.1863 52.4541H14.6299V55.1229H17.1863V52.4541Z" fill="#E6E6E6"/>
<path d="M17.1844 52.4541H14.8545V55.1229H17.1844V52.4541Z" fill="#F5F5F5"/>
<path d="M21.0574 52.4541H18.501V55.1229H21.0574V52.4541Z" fill="#E6E6E6"/>
<path d="M21.055 52.4541H18.7251V55.1229H21.055V52.4541Z" fill="#F5F5F5"/>
<path d="M13.3157 60.4497H10.7593V63.1185H13.3157V60.4497Z" fill="#E6E6E6"/>
<path d="M13.3137 60.4497H10.9839V63.1185H13.3137V60.4497Z" fill="#F5F5F5"/>
<path d="M17.1863 60.4497H14.6299V63.1185H17.1863V60.4497Z" fill="#E6E6E6"/>
<path d="M17.1844 60.4497H14.8545V63.1185H17.1844V60.4497Z" fill="#F5F5F5"/>
<path d="M21.0574 60.4497H18.501V63.1185H21.0574V60.4497Z" fill="#E6E6E6"/>
<path d="M21.055 60.4497H18.7251V63.1185H21.055V60.4497Z" fill="#F5F5F5"/>
<path d="M13.3157 64.3789H10.7593V67.0477H13.3157V64.3789Z" fill="#E6E6E6"/>
<path d="M13.3137 64.3789H10.9839V67.0477H13.3137V64.3789Z" fill="#F5F5F5"/>
<path d="M17.1863 64.3789H14.6299V67.0477H17.1863V64.3789Z" fill="#E6E6E6"/>
<path d="M17.1844 64.3789H14.8545V67.0477H17.1844V64.3789Z" fill="#F5F5F5"/>
<path d="M21.0574 64.3789H18.501V67.0477H21.0574V64.3789Z" fill="#E6E6E6"/>
<path d="M21.055 64.3789H18.7251V67.0477H21.055V64.3789Z" fill="#F5F5F5"/>
<path d="M26.1002 45.8755H9.46777V46.1233H26.1002V45.8755Z" fill="#E0E0E0"/>
<path d="M26.1002 58.1729H9.46777V58.4207H26.1002V58.1729Z" fill="#E0E0E0"/>
<path d="M91.5049 28.4165H75.0723V69.5306H91.5049V28.4165Z" fill="#E0E0E0"/>
<path d="M86.8246 28.4165H75.0723V69.5306H86.8246V28.4165Z" fill="#F0F0F0"/>
<path d="M80.6571 31.7949H76.2837V33.9787H80.6571V31.7949Z" fill="#E6E6E6"/>
<path d="M80.6571 31.7949H76.5742V33.9787H80.6571V31.7949Z" fill="#F5F5F5"/>
<path d="M85.7166 31.7949H81.3433V33.9787H85.7166V31.7949Z" fill="#E6E6E6"/>
<path d="M85.7167 31.7949H81.6338V33.9787H85.7167V31.7949Z" fill="#F5F5F5"/>
<path d="M80.6571 35.9033H76.2837V38.0871H80.6571V35.9033Z" fill="#E6E6E6"/>
<path d="M80.6571 35.9033H76.5742V38.0871H80.6571V35.9033Z" fill="#F5F5F5"/>
<path d="M85.7166 35.9033H81.3433V38.0871H85.7166V35.9033Z" fill="#E6E6E6"/>
<path d="M85.7167 35.9033H81.6338V38.0871H85.7167V35.9033Z" fill="#F5F5F5"/>
<path d="M80.6571 41.1543H76.2837V43.338H80.6571V41.1543Z" fill="#E6E6E6"/>
<path d="M80.6571 41.1543H76.5742V43.338H80.6571V41.1543Z" fill="#F5F5F5"/>
<path d="M85.7166 41.1543H81.3433V43.338H85.7166V41.1543Z" fill="#E6E6E6"/>
<path d="M85.7167 41.1543H81.6338V43.338H85.7167V41.1543Z" fill="#F5F5F5"/>
<path d="M80.6571 44.1729H76.2837V46.3566H80.6571V44.1729Z" fill="#E6E6E6"/>
<path d="M80.6571 44.1729H76.5742V46.3566H80.6571V44.1729Z" fill="#F5F5F5"/>
<path d="M85.7166 44.1729H81.3433V46.3566H85.7166V44.1729Z" fill="#E6E6E6"/>
<path d="M85.7167 44.1729H81.6338V46.3566H85.7167V44.1729Z" fill="#F5F5F5"/>
<path d="M80.6571 49.1304H76.2837V51.3141H80.6571V49.1304Z" fill="#E6E6E6"/>
<path d="M80.6571 49.1304H76.5742V51.3141H80.6571V49.1304Z" fill="#F5F5F5"/>
<path d="M85.7166 49.1304H81.3433V51.3141H85.7166V49.1304Z" fill="#E6E6E6"/>
<path d="M85.7167 49.1304H81.6338V51.3141H85.7167V49.1304Z" fill="#F5F5F5"/>
<path d="M80.6571 52.1475H76.2837V54.3312H80.6571V52.1475Z" fill="#E6E6E6"/>
<path d="M80.6571 52.1475H76.5742V54.3312H80.6571V52.1475Z" fill="#F5F5F5"/>
<path d="M85.7166 52.1475H81.3433V54.3312H85.7166V52.1475Z" fill="#E6E6E6"/>
<path d="M85.7167 52.1475H81.6338V54.3312H85.7167V52.1475Z" fill="#F5F5F5"/>
<path d="M80.6571 57.5439H76.2837V59.7277H80.6571V57.5439Z" fill="#E6E6E6"/>
<path d="M80.6571 57.5439H76.5742V59.7277H80.6571V57.5439Z" fill="#F5F5F5"/>
<path d="M85.7166 57.5439H81.3433V59.7277H85.7166V57.5439Z" fill="#E6E6E6"/>
<path d="M85.7167 57.5439H81.6338V59.7277H85.7167V57.5439Z" fill="#F5F5F5"/>
<path d="M80.6571 61.5288H76.2837V63.7126H80.6571V61.5288Z" fill="#E6E6E6"/>
<path d="M80.6571 61.5288H76.5742V63.7126H80.6571V61.5288Z" fill="#F5F5F5"/>
<path d="M85.7166 61.5288H81.3433V63.7126H85.7166V61.5288Z" fill="#E6E6E6"/>
<path d="M85.7167 61.5288H81.6338V63.7126H85.7167V61.5288Z" fill="#F5F5F5"/>
<path opacity="0.05" d="M91.5049 39.4321H75.0723V39.807H91.5049V39.4321Z" fill="black"/>
<path opacity="0.05" d="M91.5049 47.5552H75.0723V47.9301H91.5049V47.5552Z" fill="black"/>
<path opacity="0.05" d="M91.5049 55.7505H75.0723V56.1254H91.5049V55.7505Z" fill="black"/>
<path d="M91.5055 27.2002H74.2983V28.5134H91.5055V27.2002Z" fill="#E0E0E0"/>
<path opacity="0.05" d="M91.5053 27.2002H87.5728V28.5134H91.5053V27.2002Z" fill="black"/>
<path d="M51.6689 19.186H33.0918V68.8297H51.6689V19.186Z" fill="#E6E6E6"/>
<path d="M44.795 19.186H26.2158V68.8297H44.795V19.186Z" fill="#F0F0F0"/>
<path d="M43.1736 22.5557H27.8369V25.0847H43.1736V22.5557Z" fill="#E6E6E6"/>
<path d="M43.1735 22.5557H28.4321V25.0847H43.1735V22.5557Z" fill="#F5F5F5"/>
<path d="M43.1736 26.8125H27.8369V29.3415H43.1736V26.8125Z" fill="#E6E6E6"/>
<path d="M43.1735 26.8125H28.4321V29.3415H43.1735V26.8125Z" fill="#F5F5F5"/>
<path d="M43.1736 31.2354H27.8369V33.7643H43.1736V31.2354Z" fill="#E6E6E6"/>
<path d="M43.1735 31.2354H28.4321V33.7643H43.1735V31.2354Z" fill="#F5F5F5"/>
<path d="M43.1736 35.6602H27.8369V38.1891H43.1736V35.6602Z" fill="#E6E6E6"/>
<path d="M43.1735 35.6602H28.4321V38.1891H43.1735V35.6602Z" fill="#F5F5F5"/>
<path d="M43.1736 40.0825H27.8369V42.6115H43.1736V40.0825Z" fill="#E6E6E6"/>
<path d="M43.1735 40.0825H28.4321V42.6115H43.1735V40.0825Z" fill="#F5F5F5"/>
<path d="M43.1736 44.5068H27.8369V47.0358H43.1736V44.5068Z" fill="#E6E6E6"/>
<path d="M43.1735 44.5068H28.4321V47.0358H43.1735V44.5068Z" fill="#F5F5F5"/>
<path d="M43.1736 49.3828H27.8369V51.9118H43.1736V49.3828Z" fill="#E6E6E6"/>
<path d="M43.1735 49.3828H28.4321V51.9118H43.1735V49.3828Z" fill="#F5F5F5"/>
<path d="M43.1736 54.2573H27.8369V56.7863H43.1736V54.2573Z" fill="#E6E6E6"/>
<path d="M43.1735 54.2573H28.4321V56.7863H43.1735V54.2573Z" fill="#F5F5F5"/>
<path d="M43.1736 59.1333H27.8369V61.6623H43.1736V59.1333Z" fill="#E6E6E6"/>
<path d="M43.1735 59.1333H28.4321V61.6623H43.1735V59.1333Z" fill="#F5F5F5"/>
<path d="M43.1736 64.0083H27.8369V66.5373H43.1736V64.0083Z" fill="#E6E6E6"/>
<path d="M43.1735 64.0083H28.4321V66.5373H43.1735V64.0083Z" fill="#F5F5F5"/>
<path d="M52.1532 18.6855H25.6904V19.8971H52.1532V18.6855Z" fill="#F5F5F5"/>
<path d="M52.1532 16.5H25.6904V17.7115H52.1532V16.5Z" fill="#F5F5F5"/>
<path d="M51.2737 17.4746H26.2158V18.6862H51.2737V17.4746Z" fill="#F0F0F0"/>
<path d="M51.6709 22.5557H46.4941V25.0847H51.6709V22.5557Z" fill="#E0E0E0"/>
<path d="M51.6709 26.7168H46.4941V29.2458H51.6709V26.7168Z" fill="#E0E0E0"/>
<path d="M51.6709 30.8799H46.4941V33.4089H51.6709V30.8799Z" fill="#E0E0E0"/>
<path d="M51.6709 35.6577H46.4941V38.1867H51.6709V35.6577Z" fill="#E0E0E0"/>
<path d="M51.6709 40.0825H46.4941V42.6115H51.6709V40.0825Z" fill="#E0E0E0"/>
<path d="M51.6709 44.5068H46.4941V47.0358H51.6709V44.5068Z" fill="#E0E0E0"/>
<path d="M51.6709 49.3813H46.4941V51.9103H51.6709V49.3813Z" fill="#E0E0E0"/>
<path d="M51.6709 54.2573H46.4941V56.7863H51.6709V54.2573Z" fill="#E0E0E0"/>
<path d="M51.6709 59.1333H46.4941V61.6623H51.6709V59.1333Z" fill="#E0E0E0"/>
<path d="M51.6709 64.0083H46.4941V66.5373H51.6709V64.0083Z" fill="#E0E0E0"/>
<path d="M75.5504 36.5347H73.5068V39.8219H75.5504V36.5347Z" fill="#E0E0E0"/>
<path d="M75.5504 41.9146H73.5068V45.2018H75.5504V41.9146Z" fill="#E0E0E0"/>
<path d="M75.5504 47.144H73.5068V50.4313H75.5504V47.144Z" fill="#E0E0E0"/>
<path d="M75.5504 52.6724H73.5068V55.9596H75.5504V52.6724Z" fill="#E0E0E0"/>
<path d="M75.5504 58.0527H73.5068V61.34H75.5504V58.0527Z" fill="#E0E0E0"/>
<path d="M75.5502 33.2305H54.0459V66.8571H75.5502V33.2305Z" fill="#E6E6E6"/>
<path d="M71.9188 33.2305H54.0483V66.8571H71.9188V33.2305Z" fill="#F0F0F0"/>
<path d="M70.1865 36.5371H55.6553V39.8244H70.1865V36.5371Z" fill="#EBEBEB"/>
<path d="M70.1865 41.9146H55.6553V45.2018H70.1865V41.9146Z" fill="#EBEBEB"/>
<path d="M70.1865 47.2949H55.6553V50.5822H70.1865V47.2949Z" fill="#EBEBEB"/>
<path d="M70.1865 52.6724H55.6553V55.9596H70.1865V52.6724Z" fill="#EBEBEB"/>
<path d="M70.1865 58.0527H55.6553V61.34H70.1865V58.0527Z" fill="#EBEBEB"/>
<path d="M70.1861 36.5371H56.1904V39.8244H70.1861V36.5371Z" fill="#F5F5F5"/>
<path d="M70.1861 41.9146H56.1904V45.2018H70.1861V41.9146Z" fill="#F5F5F5"/>
<path d="M70.1861 47.2949H56.1904V50.5822H70.1861V47.2949Z" fill="#F5F5F5"/>
<path d="M70.1861 52.6724H56.1904V55.9596H70.1861V52.6724Z" fill="#F5F5F5"/>
<path d="M70.1861 58.0527H56.1904V61.34H70.1861V58.0527Z" fill="#F5F5F5"/>
<path d="M51.4999 78.9115C73.5589 78.9115 91.4413 77.8381 91.4413 76.5139C91.4413 75.1897 73.5589 74.1162 51.4999 74.1162C29.4409 74.1162 11.5586 75.1897 11.5586 76.5139C11.5586 77.8381 29.4409 78.9115 51.4999 78.9115Z" fill="#F5F5F5"/>
<path d="M28.7844 76.5132H27.9604" stroke="#FAB863" stroke-linecap="round" stroke-linejoin="round"/>
<path d="M26.4033 76.5132H5.36035" stroke="#FAB863" stroke-linecap="round" stroke-linejoin="round" stroke-dasharray="7.57 7.57"/>
<path d="M4.58132 76.5132H3.75732" stroke="#FAB863" stroke-linecap="round" stroke-linejoin="round"/>
<path opacity="0.3" d="M68.3955 25.9728L54.0249 26.2178L54.3094 43.8611L68.6801 43.6161L68.3955 25.9728Z" fill="white"/>
<path opacity="0.3" d="M70.5609 27.1615L66.4224 27.2466L66.4454 28.4327L70.584 28.3476L70.5609 27.1615Z" fill="white"/>
<path opacity="0.3" d="M70.6839 40.8816L66.5459 40.9521L66.565 42.1381L70.703 42.0676L70.6839 40.8816Z" fill="white"/>
<path d="M73.4429 37.1076C74.7843 37.1076 75.8716 35.8426 75.8716 34.2821C75.8716 32.7216 74.7843 31.4565 73.4429 31.4565C72.1015 31.4565 71.0142 32.7216 71.0142 34.2821C71.0142 35.8426 72.1015 37.1076 73.4429 37.1076Z" stroke="white" stroke-miterlimit="10"/>
<path d="M73.5435 31.8862V32.3607" stroke="white" stroke-linecap="round" stroke-linejoin="round"/>
<path d="M73.6484 36.2334V36.7079" stroke="white" stroke-linecap="round" stroke-linejoin="round"/>
<path d="M71.395 34.1895H71.8585" stroke="white" stroke-linecap="round" stroke-linejoin="round"/>
<path d="M75.1152 34.1919H75.5787" stroke="white" stroke-linecap="round" stroke-linejoin="round"/>
<path d="M73.5415 34.189L73.5436 32.7275" stroke="white" stroke-width="0.5" stroke-linecap="round" stroke-linejoin="round"/>
<path d="M73.7665 34.1904C73.7665 34.236 73.7533 34.2807 73.7286 34.3186C73.704 34.3566 73.6689 34.3862 73.6278 34.4037C73.5868 34.4211 73.5417 34.4257 73.4981 34.4168C73.4546 34.4079 73.4146 34.3859 73.3831 34.3536C73.3517 34.3213 73.3304 34.2802 73.3217 34.2354C73.313 34.1906 73.3175 34.1442 73.3345 34.102C73.3515 34.0598 73.3803 34.0238 73.4172 33.9984C73.4541 33.973 73.4975 33.9595 73.5419 33.9595C73.5715 33.9592 73.6008 33.965 73.6282 33.9765C73.6555 33.988 73.6804 34.005 73.7013 34.0265C73.7222 34.048 73.7387 34.0735 73.7499 34.1017C73.7611 34.1298 73.7667 34.16 73.7665 34.1904Z" fill="white"/>
<path d="M46.7373 65.2698C47.0957 65.5516 54.2913 64.7552 52.4311 51.6294C52.4311 51.6294 55.8446 52.5211 56.2112 52.4618C56.2112 52.4618 61.2191 60.3559 57.5729 64.2659C53.9267 68.1759 48.4924 68.4152 48.4924 68.4152L46.7373 65.2698Z" fill="#FAB863"/>
<path opacity="0.3" d="M46.7373 65.2698C47.0957 65.5516 54.2913 64.7552 52.4311 51.6294C52.4311 51.6294 55.8446 52.5211 56.2112 52.4618C56.2112 52.4618 61.2191 60.3559 57.5729 64.2659C53.9267 68.1759 48.4924 68.4152 48.4924 68.4152L46.7373 65.2698Z" fill="black"/>
<path d="M54.7114 53.6609C54.7299 53.6609 52.7008 53.7012 52.021 52.8328C51.3412 51.9644 50.8818 50.4118 52.1178 49.3528C53.3538 48.2937 60.6112 43.7187 64.0288 43.3586C67.4463 42.9985 71.1049 45.2649 71.1049 45.2649L66.6305 48.6665L56.9959 51.0642L54.7114 53.6609Z" fill="#263238"/>
<path d="M48.1504 63.2027L48.3378 65.1005L50.5544 64.9078L50.2207 62.957L48.1504 63.2027Z" fill="#FFC3BD"/>
<path d="M47.7193 64.9626L50.9349 64.916L51.1636 66.5851C51.1636 66.5851 48.1519 66.6274 46.9138 66.458C45.6758 66.2885 45.8694 65.6256 45.8694 65.6256C45.8694 65.6256 47.3196 65.6616 47.7193 64.9626Z" fill="#263238"/>
<path d="M75.7824 69.7665C76.2626 64.9147 73.4137 60.6428 69.4194 60.2249C65.425 59.807 61.7978 63.4014 61.3176 68.2532C60.8375 73.1049 63.6863 77.3769 67.6806 77.7948C71.675 78.2126 75.3023 74.6183 75.7824 69.7665Z" fill="#263238"/>
<path d="M63.497 42C63.497 42 63.8307 49.8729 59.377 50.0975C54.9232 50.322 50.1379 49.82 50.1379 49.82L51.5407 63.9667L47.3651 64.2314C47.3651 64.2314 44.3678 52.2304 43.8961 49.2142C43.4243 46.1981 43.8343 44.0652 46.9304 42.7265C50.0266 41.3879 63.497 42 63.497 42Z" fill="#FAB863"/>
<path d="M38.5733 66.9786L44.1208 50.4109L51.5368 41.9937C51.5368 41.9937 45.0643 42.0191 41.9537 43.8576C38.8431 45.6961 38.7277 47.9052 38.1571 50.5338C37.5865 53.1623 35.2979 65.6039 35.2979 65.6039L38.5733 66.9786Z" fill="#FAB863"/>
<path opacity="0.7" d="M63.4972 42.0006C63.4972 42.0006 56.6044 41.685 51.5492 42.0006C51.5492 42.0006 45.0767 42.026 41.9661 43.8645C38.8555 45.703 38.7277 47.9058 38.1571 50.5344C37.5865 53.1629 35.2979 65.6045 35.2979 65.6045L38.5733 66.9792L44.1208 50.4115C45.054 55.0035 47.3653 64.2235 47.3653 64.2235L51.5409 63.9673L50.136 49.8291C50.136 49.8291 54.9194 50.331 59.3751 50.1065C63.8309 49.882 63.4972 42.0006 63.4972 42.0006Z" fill="black"/>
<path d="M52.1177 29.2305L49.5571 29.5503C49.5571 29.5503 49.1121 34.3901 48.6981 35.3305C48.6981 35.3305 40.8227 36.4425 37.5967 36.3472L35.959 37.491L35.9014 39.4799L37.5061 39.5286L38.0232 38.2683C38.0232 38.2683 39.1067 38.2196 39.358 37.5927C39.358 37.5927 47.7258 39.6705 50.8075 37.2982C50.8116 37.3004 52.6698 34.4939 52.1177 29.2305Z" fill="#FFC3BD"/>
<path d="M59.4553 16.2695C59.4553 16.2695 60.2566 17.3286 59.9518 18.2457C59.8676 18.5073 59.7194 18.7421 59.5213 18.9276C59.3232 19.1131 59.0819 19.243 58.8208 19.3047C58.8208 19.3047 58.6704 20.7726 57.8279 20.8149C56.9854 20.8573 57.2676 17.5806 57.2676 17.5806L59.4553 16.2695Z" fill="#263238"/>
<path d="M52.9685 42.0361L52.4061 32.5747L48.9165 30.1897C48.9165 30.1897 50.0577 26.0531 52.2413 25.352C54.4249 24.6509 59.1877 23.0433 62.0758 23.8418C64.9639 24.6403 64.6322 28.1436 64.1358 30.7425L63.5796 30.8781C63.5796 30.8781 63.4931 41.119 63.4889 42.0001L52.9685 42.0361Z" fill="#263238"/>
<path d="M59.247 24.4269C58.1037 25.5644 55.7718 26.2421 55.127 25.6766C54.4822 25.1111 55.2959 24.5922 55.9016 23.9525C56.2291 23.6009 56.2188 22.9422 56.1426 22.4169C56.1025 22.1522 56.0432 21.891 55.9654 21.6353C53.8251 21.5146 52.9372 20.4852 52.8487 18.67C52.7601 16.8548 53.5594 14.7473 53.5594 14.7473L55.0714 13.4214C55.0714 13.4214 57.1314 13.7391 58.7794 14.904C59.76 15.5903 59.4695 16.9416 59.0637 17.9393C58.8917 18.3639 58.685 18.7728 58.4457 19.1614C58.215 21.6459 59.247 24.4269 59.247 24.4269Z" fill="#FFC3BD"/>
<path d="M54.0396 19.1696C54.0396 19.1696 54.8636 19.2099 55.2241 18.6846" stroke="#263238" stroke-linecap="round" stroke-linejoin="round"/>
<path d="M55.3521 17.0261C55.3521 17.187 55.2573 17.3141 55.1461 17.312C55.0349 17.3099 54.9545 17.1764 54.9586 17.0155C54.9628 16.8545 55.0534 16.7274 55.1646 16.7295C55.2759 16.7316 55.3583 16.8651 55.3521 17.0261Z" fill="#263238"/>
<path d="M53.4732 17.0763C53.4732 17.2373 53.3784 17.3644 53.2672 17.3623C53.156 17.3602 53.0756 17.2267 53.0797 17.0658C53.0839 16.9048 53.1745 16.7777 53.2857 16.7798C53.397 16.7819 53.4794 16.9175 53.4732 17.0763Z" fill="#263238"/>
<path d="M54.126 18.3921L54.0416 17.0938L53.438 18.3265C53.5322 18.4088 53.6488 18.4593 53.7719 18.471C53.895 18.4828 54.0187 18.4552 54.126 18.3921Z" fill="#ED847E"/>
<path d="M55.2529 16.0093C55.4109 15.9647 55.5792 15.9791 55.7279 16.0501C55.8765 16.1211 55.9958 16.244 56.0646 16.3969" stroke="#263238" stroke-linecap="round" stroke-linejoin="round"/>
<path d="M52.8921 16.2492C52.8921 16.2492 53.2711 15.8256 53.7161 15.9336" stroke="#263238" stroke-linecap="round" stroke-linejoin="round"/>
<path d="M59.0784 17.9389C56.7217 18.0258 56.4292 15.2786 56.4292 15.2786C55.2632 15.914 53.5679 14.7491 53.5679 14.7491L55.0799 13.4189C55.0799 13.4189 57.1399 13.7409 58.7879 14.9016C59.7747 15.59 59.4842 16.9456 59.0784 17.9389Z" fill="#263238"/>
<path d="M52.8095 15.5541C52.8095 15.5541 51.59 14.7196 52.1276 14.1181C52.6653 13.5165 55.9592 14.6603 58.4209 16.0625C58.4209 16.0625 52.7827 12.1842 51.2501 13.4106C49.9832 14.4252 52.793 15.8337 52.7086 15.8316L52.8095 15.5541Z" fill="#FAB863"/>
<path d="M59.6884 15.2702C59.6849 15.7094 59.6039 16.1443 59.4494 16.5538L53.9121 13.8003C54.1415 13.5279 54.4164 13.2998 54.7237 13.1267C55.0515 12.934 55.4078 12.798 55.7785 12.7243C56.1715 12.647 56.5739 12.6327 56.9712 12.6819C58.9962 12.9213 59.6987 14.5226 59.6884 15.2702Z" fill="#FAB863"/>
<path d="M46.9675 40.5961C46.607 40.9837 41.9452 39.9903 41.1315 40.4351C40.7875 40.6215 40.6371 41.2824 40.2911 42.0068C39.8193 42.9917 38.9809 44.0719 36.7891 44.1439C32.9822 44.2689 33.4416 40.2975 33.1408 39.0076C33.1408 39.0076 29.5358 38.3319 29.3463 37.6816C29.1568 37.0314 29.3895 36.9339 29.3895 36.9339C29.3895 36.9339 33.8371 37.7812 34.6982 36.6247C34.865 36.4572 35.0605 36.3229 35.275 36.2286C35.7692 36.0052 36.3009 35.8822 36.8406 35.8664C38.4082 35.7817 40.3199 36.235 40.8555 37.2559C41.9432 39.338 46.607 38.8699 47.0355 39.4163C47.464 39.9628 47.328 40.2085 46.9675 40.5961Z" fill="#FAB863"/>
<path d="M35.1659 43.3091C35.1659 43.3091 28.9118 52.205 34.0618 65.8984" stroke="#263238" stroke-linecap="round" stroke-linejoin="round"/>
<path d="M43.4203 47.9309C43.4203 47.9309 43.4203 47.9478 43.4203 47.9817C43.4203 48.0156 43.4203 48.0347 43.4203 48.0728V48.094C43.3459 48.9507 43.2082 49.8004 43.0083 50.6357C42.724 51.8705 42.347 53.0461 42.036 53.9907C40.7176 58.0045 40.87 62.3296 40.87 62.3296C40.4333 61.7704 39.634 61.3722 38.6349 61.0926C34.997 60.0654 28.8211 60.6161 28.8211 60.6161C27.6098 56.2465 28.0424 49.4072 29.2475 45.5777C30.4526 41.7482 33.7939 42.6124 33.7939 42.6124C33.7939 42.6124 37.3206 42.7183 37.7635 42.6696C38.5741 42.5685 39.3946 42.5856 40.2005 42.7204C42.9238 43.233 43.5789 45.4464 43.4203 47.9309Z" fill="#FAB863"/>
<path d="M70.5731 64.6021C64.3931 70.3379 52.4637 70.9394 43.5871 70.304L38.6143 61.1051L36.5996 57.3794L43.0721 48.4093L43.4141 47.937C43.4141 47.937 43.4141 47.954 43.4141 47.9878C43.4141 48.0217 43.4141 48.0408 43.4141 48.0789V48.1001C43.3255 49.6993 42.7528 62.5327 47.3281 65.6802L47.3652 65.7077C47.9843 66.1191 48.7026 66.345 49.4396 66.3601C57.8341 66.61 57.5992 55.3461 55.4651 52.9336L70.0313 49.9238C70.0313 49.9238 72.9071 57.3688 70.5731 64.6021Z" fill="#FAB863"/>
<path d="M54.3714 50.4916C54.3714 50.4916 53.0056 51.6565 53.7102 53.2196C54.4147 54.7828 61.2065 51.7476 63.8804 51.1948C66.5543 50.6419 69.6484 50.1018 70.9791 49.8201C72.3099 49.5384 72.1945 45.6136 71.1069 45.2662C70.0192 44.9189 59.3649 46.8548 57.5974 47.9181C56.4303 48.6468 55.348 49.5103 54.3714 50.4916Z" fill="#263238"/>
<path d="M57.7907 18.9086C57.6607 18.7647 57.582 18.5797 57.5674 18.3839C57.5528 18.1881 57.6032 17.993 57.7103 17.8305C58.0399 17.3221 58.7053 16.5151 59.3439 17.1188C60.238 17.966 58.7115 19.5059 58.0791 19.1331C57.9731 19.0726 57.8761 18.997 57.7907 18.9086Z" fill="#FFC3BD"/>
<path opacity="0.2" d="M52.81 15.5541C52.81 15.5541 51.5905 14.7196 52.1282 14.1181C52.3671 13.8512 53.0819 13.9062 54.0481 14.1901C54.6694 14.362 55.2779 14.5793 55.8691 14.8403C56.7178 15.2195 57.6201 15.7045 58.4215 16.0625C58.4215 16.0625 52.7832 12.1842 51.2506 13.4106C49.9837 14.4252 52.6184 15.7405 52.7111 15.8295L52.7565 15.6579L52.81 15.5541Z" fill="black"/>
<path d="M53.3888 15.1924C53.3888 15.1924 52.1528 15.4042 53.0056 16.7725L53.3888 15.1924Z" fill="#263238"/>
<path d="M54.5732 14.3569C54.5732 14.3569 52.7089 13.6834 52.1898 14.0646C51.6706 14.4459 52.2145 15.1724 52.8078 15.5473L53.2836 15.6108L53.5638 14.7424L54.2889 14.6513L54.5732 14.3569Z" fill="#263238"/>
<path opacity="0.3" d="M57.1132 13.3219L56.6662 14.0018L54.7236 13.1334C55.0513 12.9407 55.4077 12.8047 55.7784 12.731L57.1132 13.3219Z" fill="white"/>
<path opacity="0.1" d="M56.6806 21.4487C56.552 21.8003 56.3675 22.1274 56.1347 22.4167C56.0945 22.152 56.0353 21.8908 55.9575 21.6351C56.2073 21.6172 56.4521 21.5541 56.6806 21.4487Z" fill="black"/>
<path d="M38.2126 40.0756C38.1302 41.5434 37.5122 42.7444 36.7541 43.0409C36.6229 43.0928 36.4824 43.1152 36.3421 43.1066C35.4068 43.0515 34.727 41.6091 34.8218 39.8871C34.9166 38.1651 35.7529 36.8137 36.6882 36.8688C37.0693 36.89 37.405 37.142 37.6667 37.5466C38.0519 38.127 38.2682 39.0547 38.2126 40.0756Z" fill="#F5F5F5"/>
<path d="M38.2125 40.075C38.1301 41.5429 37.5121 42.7438 36.7541 43.0403C35.8889 42.9895 35.2606 41.6572 35.3491 40.075C35.4377 38.4928 36.2082 37.2368 37.0734 37.2876C37.2963 37.3047 37.5073 37.3979 37.6728 37.5524C38.0519 38.1264 38.2682 39.0541 38.2125 40.075Z" fill="white"/>
<path d="M71.5993 60.8816C70.0069 59.7315 63.8455 58.6025 63.8455 58.6025C60.1024 58.6025 56.8167 62.0656 56.3635 66.664C55.9927 70.4045 57.5995 73.7998 60.189 75.3481C60.189 75.3481 60.4053 75.4413 60.7678 75.5874C62.1398 76.1445 65.6212 77.4937 67.6791 77.7902" fill="#263238"/>
<path opacity="0.3" d="M75.7824 69.7665C76.2626 64.9147 73.4137 60.6428 69.4194 60.2249C65.425 59.807 61.7978 63.4014 61.3176 68.2532C60.8375 73.1049 63.6863 77.3769 67.6806 77.7948C71.675 78.2126 75.3023 74.6183 75.7824 69.7665Z" fill="black"/>
<path d="M43.758 69.4843C44.2381 64.6325 41.3893 60.3606 37.395 59.9427C33.4006 59.5248 29.7733 63.1192 29.2932 67.9709C28.8131 72.8227 31.6619 77.0946 35.6562 77.5125C39.6506 77.9304 43.2779 74.336 43.758 69.4843Z" fill="#263238"/>
<path d="M40.9692 61.5611L37.2859 77.4615C36.7485 77.5511 36.2021 77.5675 35.6606 77.5103H35.6194C34.9128 77.3239 35.228 77.5251 34.5193 77.2836C32.7168 76.6715 30.0986 75.5892 30.0986 75.5892C27.3237 74.2018 25.7561 70.8277 26.1372 66.9728C26.5986 62.3024 29.8575 58.8139 33.6933 59.0999C33.6933 59.0999 35.5143 59.4451 37.3889 59.9471C38.2129 60.1589 39.0369 60.411 39.7146 60.6736C40.1634 60.921 40.5841 61.2186 40.9692 61.5611Z" fill="#263238"/>
<path opacity="0.3" d="M43.7582 69.4734C43.3462 73.6566 40.592 76.9036 37.2816 77.4522C36.7443 77.5417 36.1978 77.5581 35.6563 77.5009H35.6151C34.8608 77.4172 34.1278 77.1925 33.4521 76.838C30.669 75.3871 28.9077 71.8626 29.2929 67.9653C29.7729 63.117 33.3923 59.5269 37.3846 59.9378H37.3949C38.2055 60.0219 38.9922 60.2688 39.7103 60.6643C40.1592 60.9123 40.5799 61.2107 40.9649 61.5539C42.9363 63.3161 44.0837 66.273 43.7582 69.4734Z" fill="black"/>
<path d="M42.7549 63.9034C42.6342 63.7054 42.4963 63.5189 42.3429 63.3464C41.4221 62.0543 39.3168 61.5714 37.9387 61.6858C36.8822 61.7918 35.8678 62.1659 34.9867 62.7745C33.9814 63.4438 33.2625 64.4689 32.2654 65.1722C30.3743 66.515 27.5048 66.4769 25.6054 65.0938C25.4983 65.0155 25.3965 64.9299 25.3006 64.8375C25.107 64.6303 24.9779 64.3685 24.9298 64.0856C24.8571 63.7323 24.8835 63.365 25.006 63.0265C25.418 61.8362 26.792 60.7898 27.6593 60.1523C29.4176 58.8768 31.4856 58.1282 33.6333 57.9897C39.7576 57.5555 42.3697 62.9333 42.7549 63.9034Z" fill="#FAB863"/>
<path opacity="0.3" d="M42.3306 64.0731C41.0143 62.1202 39.3251 61.5716 37.947 61.686C36.8905 61.792 35.8761 62.1661 34.995 62.7747C33.9897 63.444 33.2708 64.4692 32.2737 65.1724C30.3826 66.5152 27.5131 66.4771 25.6137 65.094C25.5066 65.0157 25.4048 64.9301 25.3089 64.8377C25.1153 64.6306 24.9862 64.3688 24.9381 64.0858C24.8654 63.7325 24.8918 63.3652 25.0143 63.0268C25.6508 63.7829 27.5048 65.6045 30.016 64.7212C33.1472 63.6092 33.9114 60.305 37.2589 60.3347C39.9184 60.3664 41.5561 62.4845 42.3306 64.0731Z" fill="black"/>
<g opacity="0.3">
<path d="M28.5552 59.5699C29.4484 58.9172 30.4534 58.4436 31.5175 58.174C32.5825 57.8953 33.6855 57.8022 34.7805 57.8987C35.8737 58.0069 36.9443 58.2869 37.955 58.729L38.3299 58.8984L38.6966 59.0869C38.9438 59.2055 39.1765 59.3538 39.4155 59.4894C39.6545 59.6249 39.8749 59.7923 40.1035 59.9426C40.3322 60.093 40.5464 60.2688 40.7648 60.4361C39.8664 59.8173 38.9074 59.2969 37.9035 58.8836C36.9015 58.4703 35.8457 58.2112 34.7702 58.1147C33.6969 58.0092 32.6141 58.0807 31.5628 58.3265C31.035 58.4468 30.5176 58.6112 30.0157 58.8179C29.5064 59.0195 29.0173 59.2713 28.5552 59.5699Z" fill="black"/>
</g>
<g opacity="0.3">
<path d="M35.226 58.0553C34.9691 57.172 34.8149 56.2605 34.7666 55.3399C34.6986 54.4228 34.6842 53.5014 34.7027 52.5864C34.7213 51.6714 34.7831 50.7479 34.8655 49.8329L35.0158 48.4646C35.0818 48.0092 35.1394 47.5539 35.2218 47.1006L35.0344 49.8541L34.9602 51.2266C34.9479 51.6841 34.9211 52.1416 34.919 52.5991C34.884 53.5141 34.9005 54.4292 34.9334 55.3526C34.9479 55.8101 34.9829 56.2655 35.0282 56.7209C35.0644 57.1698 35.1305 57.6157 35.226 58.0553Z" fill="black"/>
</g>
<path opacity="0.3" d="M47.3181 65.6615C43.0168 62.8169 42.8459 55.4778 42.9921 50.6358C43.0189 49.8034 43.0519 49.0473 43.0766 48.397C43.1217 47.7462 43.1217 47.0929 43.0766 46.442C42.6419 43.1166 40.1699 42.7163 40.1699 42.7163H40.1802C42.918 43.2331 43.573 45.4465 43.4144 47.931C43.4144 47.931 43.4144 47.948 43.4144 47.9819C43.4144 48.0157 43.4144 48.0348 43.4144 48.0729V48.0941C43.3217 49.6933 42.749 62.5267 47.3181 65.6615Z" fill="black"/>
<path opacity="0.2" d="M46.9677 40.5963C46.6072 40.9839 41.9454 39.9905 41.1317 40.4353C40.7877 40.6217 40.6373 41.2825 40.2912 42.0069C39.3189 43.5955 37.9511 43.8454 37.8666 43.8581C39.4981 42.5873 39.9534 39.5288 39.1438 37.595C38.3342 35.6612 35.4358 36.1631 35.271 36.2203C35.7653 35.9969 36.2969 35.8739 36.8366 35.8581C38.4043 35.7734 40.3159 36.2267 40.8515 37.2476C41.9392 39.3297 46.6031 38.8616 47.0315 39.408C47.46 39.9545 47.3282 40.2087 46.9677 40.5963Z" fill="black"/>
<path d="M43.3172 38.7471C43.0338 39.2849 42.9208 39.9002 42.9938 40.5072L46.9428 40.9647C47.1447 40.7245 47.2939 40.4424 47.3803 40.1375C47.4666 39.8327 47.4882 39.5124 47.4434 39.1982C47.4434 39.1982 43.5314 38.7937 43.3172 38.7471Z" fill="#263238"/>
<path d="M31.3259 38.5967C31.3259 38.5967 30.9324 37.7367 31.4042 37.1924C30.3495 37.0949 29.6964 36.9806 29.0166 36.8789C28.9157 37.1945 28.8663 37.4974 29.2226 37.9782C29.579 38.459 31.3259 38.5967 31.3259 38.5967Z" fill="#263238"/>
<path d="M29.132 43.9785C28.4481 45.1244 27.863 46.9587 27.8115 49.888" stroke="#FAB863" stroke-linecap="round" stroke-linejoin="round"/>
<path d="M31.3837 42.0894C30.8861 42.208 30.4287 42.4618 30.0591 42.8243" stroke="#FAB863" stroke-linecap="round" stroke-linejoin="round"/>
<path d="M62.1043 31.0474L59.5045 31.3735C59.5045 31.3735 59.0513 36.2854 58.6311 37.2406C58.6311 37.2406 50.6362 38.3717 47.3588 38.2721L45.6964 39.4329L45.6387 41.4535L47.2681 41.5022L47.7934 40.2314C47.7934 40.2314 48.8935 40.1827 49.1469 39.5451C49.1469 39.5451 57.6423 41.6632 60.7714 39.2486C60.7694 39.2401 62.6584 36.3913 62.1043 31.0474Z" fill="#FFC3BD"/>
<path opacity="0.2" d="M40.9356 68.8385C40.8615 71.5031 39.164 73.6127 37.1432 73.5534C36.8716 73.545 36.6025 73.4973 36.3439 73.4115C34.7247 72.8819 33.5588 70.9185 33.6226 68.6204C33.6865 66.3964 34.8792 64.5579 36.4469 64.0474C36.7601 63.9438 37.0882 63.8958 37.4171 63.9055C39.438 63.9669 41.0118 66.1825 40.9356 68.8385Z" fill="#FAFAFA"/>
<path d="M39.0754 68.8389C39.0116 71.1138 37.8394 72.984 36.3439 73.4182C34.7247 72.8887 33.5588 70.9253 33.6226 68.6271C33.6865 66.4032 34.8792 64.5647 36.4469 64.0542C38.0042 64.4884 39.1393 66.4836 39.0754 68.8389Z" fill="#263238"/>
<path opacity="0.2" d="M72.6765 69.0504C72.6003 71.715 70.9028 73.8267 68.884 73.7653C68.6123 73.7581 68.3431 73.7103 68.0848 73.6234C66.4635 73.0939 65.2976 71.1325 65.3635 68.8323C65.4253 66.6104 66.618 64.7698 68.1857 64.2593C68.4989 64.1558 68.8271 64.1078 69.156 64.1174C71.1768 64.1789 72.7507 66.3901 72.6765 69.0504Z" fill="#FAFAFA"/>
<path d="M70.8163 69.0505C70.7504 71.3232 69.5803 73.1935 68.0848 73.6277C66.4635 73.0982 65.2976 71.1368 65.3635 68.8366C65.4253 66.6147 66.618 64.7741 68.1857 64.2637C69.7451 64.6979 70.8822 66.6931 70.8163 69.0505Z" fill="#263238"/>
<path d="M75.8607 62.0313C75.8958 64.6513 72.0168 66.386 65.5257 67.479C63.776 67.7953 61.9879 67.8168 60.2315 67.5425C57.3475 67.0532 55.9385 65.7993 55.9385 65.7993C55.9385 65.7993 56.6718 56.7445 63.9292 55.5965C68.8732 54.8171 72.5936 56.8674 74.4805 59.0765C75.3684 60.1144 75.8504 61.1925 75.8607 62.0313Z" fill="#FAB863"/>
<path opacity="0.3" d="M75.8616 62.0311C75.8967 64.6512 72.0177 66.3859 65.5266 67.4788C63.7769 67.7952 61.9888 67.8166 60.2324 67.5424C60.5435 65.0833 61.9402 58.6337 68.011 57.9644C70.7652 57.6594 72.8911 58.2313 74.4814 59.0764C75.3693 60.1143 75.8513 61.1924 75.8616 62.0311Z" fill="black"/>
<g opacity="0.3">
<path d="M56.3594 65.8388C56.4929 64.6062 56.7788 63.3962 57.2102 62.238C57.6343 61.0679 58.2198 59.9665 58.9488 58.9677C59.3171 58.4713 59.731 58.0124 60.1848 57.5973C60.6344 57.1756 61.1301 56.8088 61.6618 56.5044C62.7199 55.8909 63.8924 55.5148 65.102 55.4009C64.5093 55.503 63.9262 55.6575 63.3593 55.8626C63.0729 55.9516 62.8031 56.0893 62.5353 56.2057C62.2665 56.3381 62.0046 56.4844 61.7504 56.6442C61.4908 56.7967 61.2519 56.981 61.0067 57.1525C60.7616 57.3241 60.535 57.5274 60.3187 57.7414C59.8788 58.1524 59.478 58.6056 59.1218 59.0948C58.3982 60.0744 57.8084 61.1512 57.3688 62.2952C57.1405 62.8651 56.9438 63.4478 56.7796 64.0405C56.6048 64.6308 56.4645 65.2313 56.3594 65.8388Z" fill="black"/>
</g>
<path d="M46.6196 62.8479L47.0481 64.3432L51.541 63.9577L51.6007 61.8672L46.6196 62.8479Z" fill="#FAB863"/>
<path d="M73.3687 52.6484L83.2546 52.2354" stroke="#FAB863" stroke-linecap="round" stroke-linejoin="round"/>
<path d="M86.522 50.3842L87.9908 50.3228" stroke="#FAB863" stroke-linecap="round" stroke-linejoin="round"/>
<path d="M78.1069 50.7357L85.3952 50.4307" stroke="#FAB863" stroke-linecap="round" stroke-linejoin="round"/>
<path d="M83.2075 55.9973L89.3154 55.7432" stroke="#FAB863" stroke-linecap="round" stroke-linejoin="round"/>
<path d="M79.4312 56.1562L82.0927 56.0439" stroke="#FAB863" stroke-linecap="round" stroke-linejoin="round"/>
</svg>
