<svg width="323" height="195" viewBox="0 0 323 195" fill="none" xmlns="http://www.w3.org/2000/svg">
<path d="M223.176 17.5202C227.027 17.5202 291.834 17.9505 295.891 17.8171C296.184 17.8171 296.321 17.3868 296.05 17.2362C293.469 15.9454 290.573 16.2208 287.905 15.3216C286.335 14.7923 285.371 13.764 284.283 12.5893C283.379 11.5624 282.213 10.8009 280.909 10.3864C279.717 10.0279 278.452 9.98781 277.239 10.2702C275.922 10.5843 274.782 11.3373 273.526 11.8106C270.411 12.9852 267.386 11.8708 265.166 9.56456C263.333 7.66708 261.53 5.87716 259.039 4.85313C256.952 3.99259 254.633 3.82048 252.546 4.76277C250.167 5.83844 248.536 8.00699 246.303 9.3107C243.657 10.8554 240.49 10.4896 237.568 10.9586C234.647 11.4276 232.405 13.8845 229.823 15.3043C228.987 15.8407 228.02 16.1383 227.027 16.1649C226.449 16.1152 225.875 16.0348 225.306 15.9239C224.445 15.8164 223.585 15.8422 222.991 16.5779C222.879 16.7371 222.922 17.5202 223.176 17.5202Z" fill="#EBEBEB"/>
<path d="M26.6464 10.7306C29.456 10.7306 76.7726 11.0404 79.7458 10.9457C79.7959 10.9446 79.8443 10.9272 79.8837 10.8963C79.9232 10.8653 79.9516 10.8224 79.9646 10.774C79.9777 10.7256 79.9748 10.6743 79.9563 10.6277C79.9377 10.5811 79.9047 10.5417 79.8619 10.5155C77.986 9.59039 75.8604 9.77541 73.9113 9.1171C72.7668 8.73416 72.0612 7.98119 71.2652 7.12496C70.6071 6.37392 69.7559 5.8174 68.804 5.51575C67.933 5.25449 67.0087 5.2263 66.1235 5.434C65.164 5.66205 64.3292 6.20849 63.4171 6.557C61.141 7.41754 58.9337 6.60003 57.3116 4.91768C55.9734 3.53222 54.6568 2.2242 52.8368 1.47554C52.0941 1.14206 51.291 0.964291 50.477 0.953191C49.663 0.94209 48.8553 1.0979 48.1038 1.411C46.3828 2.19839 45.178 3.77747 43.5473 4.72836C41.6154 5.85997 39.3048 5.5889 37.1707 5.93311C35.0366 6.27733 33.3973 8.08446 31.5256 9.10419C30.917 9.49888 30.2112 9.71776 29.4861 9.73669C29.0689 9.70076 28.6539 9.64331 28.2426 9.56458C27.5972 9.48283 26.9863 9.50004 26.5517 10.0379C26.4398 10.1756 26.4613 10.7306 26.6464 10.7306Z" fill="#EBEBEB"/>
<path d="M46.6151 54.4287C49.4248 54.4287 96.7414 54.7385 99.7145 54.6438C99.9253 54.6438 100.042 54.3254 99.8307 54.2135C97.9547 53.2842 95.8292 53.4735 93.8801 52.8152C92.7356 52.4279 92.0299 51.6792 91.2339 50.823C90.577 50.0706 89.7255 49.5139 88.7728 49.2138C87.9018 48.9533 86.9781 48.9237 86.0922 49.1278C85.1327 49.3601 84.298 49.9065 83.3815 50.2551C81.1097 51.1156 78.9024 50.2981 77.2803 48.6157C75.9422 47.2303 74.6256 45.9223 72.8055 45.1736C72.0629 44.8401 71.2598 44.6624 70.4457 44.6512C69.6317 44.6401 68.8241 44.796 68.0726 45.1091C66.3515 45.8964 65.1468 47.4755 63.516 48.4264C61.5841 49.558 59.2736 49.287 57.1395 49.6312C55.0053 49.9754 53.366 51.7825 51.4943 52.8023C50.8858 53.1969 50.18 53.4158 49.4549 53.4347C49.0374 53.3995 48.6222 53.3406 48.2114 53.2583C47.566 53.1809 46.955 53.1981 46.5204 53.7359C46.4086 53.8736 46.4301 54.4287 46.6151 54.4287Z" fill="#EBEBEB"/>
<path d="M223.653 49.4203C226.463 49.4203 273.779 49.7344 276.753 49.6397C276.968 49.6397 277.08 49.317 276.869 49.2095C274.993 48.2801 272.867 48.4651 270.918 47.8111C269.774 47.4238 269.068 46.6752 268.276 45.8146C267.616 45.0643 266.764 44.508 265.811 44.2054C264.94 43.9442 264.016 43.916 263.13 44.1237C262.171 44.3517 261.336 44.9025 260.424 45.2467C258.148 46.1072 255.941 45.2897 254.318 43.6074C252.98 42.2219 251.664 40.9139 249.844 40.1652C249.102 39.8301 248.298 39.651 247.484 39.6392C246.67 39.6273 245.862 39.783 245.111 40.0964C243.39 40.8838 242.185 42.4672 240.554 43.4181C238.622 44.5454 236.312 44.2786 234.178 44.6185C232.043 44.9584 230.404 46.7698 228.532 47.7939C227.922 48.1848 227.217 48.4033 226.493 48.4264C226.063 48.4264 225.663 48.3016 225.249 48.25C224.604 48.1725 223.993 48.1897 223.559 48.7276C223.447 48.8653 223.468 49.4203 223.653 49.4203Z" fill="#EBEBEB"/>
<path d="M82.53 22.5888C82.5816 22.748 157.1 22.5888 156.162 22.5888C155.732 22.5888 156.811 21.9477 156.394 21.7282C153.967 20.5235 151.313 20.4891 148.649 20.2481C147.109 20.1061 145.526 19.8824 144.14 19.1552C142.755 18.4281 141.86 17.1416 140.861 15.9626C139.326 14.1496 137.355 12.7568 135.133 11.9153C132.911 11.0738 130.511 10.8112 128.16 11.1522C122.859 11.9827 118.694 16.0186 113.376 16.7457C110.188 17.176 107.171 15.9583 104.056 15.5238C101.475 15.1666 99.3535 15.6658 97.0558 16.8146C95.3778 17.6493 93.8245 18.3506 91.9227 18.4797C90.4641 18.583 88.9969 18.4152 87.5383 18.4023C85.1446 18.4494 82.8501 19.3672 81.0843 20.9839C80.8476 21.1947 80.0946 22.5888 82.53 22.5888Z" fill="#EBEBEB"/>
<path d="M89.9689 169.594H116.189L116.189 32.1451H89.9689L89.9689 169.594Z" fill="#DBDBDB"/>
<path d="M107.02 41.8562H112.119V36.6069H107.02V41.8562Z" fill="#EBEBEB"/>
<path d="M100.498 41.8562H105.597V36.6069H100.498V41.8562Z" fill="#EBEBEB"/>
<path d="M107.02 50.7671H112.119V45.5178H107.02V50.7671Z" fill="#EBEBEB"/>
<path d="M100.498 50.7671H105.597V45.5178H100.498V50.7671Z" fill="#EBEBEB"/>
<path d="M107.02 59.6779H112.119V54.4286H107.02V59.6779Z" fill="#EBEBEB"/>
<path d="M100.498 59.6779H105.597V54.4286H100.498V59.6779Z" fill="#EBEBEB"/>
<path d="M107.02 68.5844H112.119V63.3352H107.02V68.5844Z" fill="#EBEBEB"/>
<path d="M100.498 68.5844H105.597V63.3352H100.498V68.5844Z" fill="#EBEBEB"/>
<path d="M107.02 77.4953H112.119V72.2461H107.02V77.4953Z" fill="#EBEBEB"/>
<path d="M100.498 77.4953H105.597V72.2461H100.498V77.4953Z" fill="#EBEBEB"/>
<path d="M107.02 86.4062H112.119V81.1569H107.02V86.4062Z" fill="#EBEBEB"/>
<path d="M100.498 86.4062H105.597V81.1569H100.498V86.4062Z" fill="#EBEBEB"/>
<path d="M107.02 95.3213H112.119V90.072H107.02V95.3213Z" fill="#EBEBEB"/>
<path d="M100.498 95.3213H105.597V90.072H100.498V95.3213Z" fill="#EBEBEB"/>
<path d="M107.02 104.228H112.119V98.9786H107.02V104.228Z" fill="#EBEBEB"/>
<path d="M100.498 104.228H105.597V98.9786H100.498V104.228Z" fill="#EBEBEB"/>
<path d="M107.02 113.139H112.119V107.889H107.02V113.139Z" fill="#EBEBEB"/>
<path d="M100.498 113.139H105.597V107.889H100.498V113.139Z" fill="#EBEBEB"/>
<path d="M107.02 122.05H112.119V116.8H107.02V122.05Z" fill="#EBEBEB"/>
<path d="M100.498 122.05H105.597V116.8H100.498V122.05Z" fill="#EBEBEB"/>
<path d="M107.02 130.96H112.119V125.711H107.02V130.96Z" fill="#EBEBEB"/>
<path d="M100.498 130.96H105.597V125.711H100.498V130.96Z" fill="#EBEBEB"/>
<path d="M107.02 139.871H112.119V134.622H107.02V139.871Z" fill="#EBEBEB"/>
<path d="M100.498 139.871H105.597V134.622H100.498V139.871Z" fill="#EBEBEB"/>
<path d="M107.02 148.778H112.119V143.529H107.02V148.778Z" fill="#EBEBEB"/>
<path d="M100.498 148.778H105.597V143.529H100.498V148.778Z" fill="#EBEBEB"/>
<path d="M107.02 157.689H112.119V152.439H107.02V157.689Z" fill="#EBEBEB"/>
<path d="M99.1377 152.444H94.0391V157.693H99.1377V152.444Z" fill="#EBEBEB"/>
<path d="M99.1377 143.533H94.0391V148.782H99.1377V143.533Z" fill="#EBEBEB"/>
<path d="M99.1377 134.622H94.0391V139.871H99.1377V134.622Z" fill="#EBEBEB"/>
<path d="M99.1377 125.711H94.0391V130.96H99.1377V125.711Z" fill="#EBEBEB"/>
<path d="M99.1377 116.8H94.0391V122.05H99.1377V116.8Z" fill="#EBEBEB"/>
<path d="M99.1377 107.889H94.0391V113.139H99.1377V107.889Z" fill="#EBEBEB"/>
<path d="M99.1377 98.9786H94.0391V104.228H99.1377V98.9786Z" fill="#EBEBEB"/>
<path d="M99.1377 90.0677H94.0391V95.317H99.1377V90.0677Z" fill="#EBEBEB"/>
<path d="M99.1377 81.1612H94.0391V86.4105H99.1377V81.1612Z" fill="#EBEBEB"/>
<path d="M99.1377 72.2504H94.0391V77.4996H99.1377V72.2504Z" fill="#EBEBEB"/>
<path d="M99.1377 63.3395H94.0391V68.5887H99.1377V63.3395Z" fill="#EBEBEB"/>
<path d="M99.1377 54.4286H94.0391V59.6779H99.1377V54.4286Z" fill="#EBEBEB"/>
<path d="M99.1377 45.5178H94.0391V50.767H99.1377V45.5178Z" fill="#EBEBEB"/>
<path d="M99.1377 36.6069H94.0391V41.8562H99.1377V36.6069Z" fill="#EBEBEB"/>
<path d="M100.498 157.689H105.597V152.439H100.498V157.689Z" fill="#EBEBEB"/>
<path d="M69.2944 169.594H89.9688L89.9687 32.1451H69.2944L69.2944 169.594Z" fill="#A6A6A6"/>
<path d="M75.6328 152.444H71.4248V157.693H75.6328V152.444Z" fill="#C7C7C7"/>
<path d="M81.0195 152.444H76.8115V157.693H81.0195V152.444Z" fill="#C7C7C7"/>
<path d="M75.6328 143.533H71.4248V148.782H75.6328V143.533Z" fill="#C7C7C7"/>
<path d="M81.0195 143.533H76.8115V148.782H81.0195V143.533Z" fill="#C7C7C7"/>
<path d="M75.6328 134.622H71.4248V139.871H75.6328V134.622Z" fill="#C7C7C7"/>
<path d="M81.0195 134.622H76.8115V139.871H81.0195V134.622Z" fill="#C7C7C7"/>
<path d="M75.6328 125.711H71.4248V130.96H75.6328V125.711Z" fill="#C7C7C7"/>
<path d="M81.0195 125.711H76.8115V130.96H81.0195V125.711Z" fill="#C7C7C7"/>
<path d="M75.6328 116.8H71.4248V122.05H75.6328V116.8Z" fill="#C7C7C7"/>
<path d="M81.0195 116.8H76.8115V122.05H81.0195V116.8Z" fill="#C7C7C7"/>
<path d="M75.6328 107.889H71.4248V113.139H75.6328V107.889Z" fill="#C7C7C7"/>
<path d="M81.0195 107.889H76.8115V113.139H81.0195V107.889Z" fill="#C7C7C7"/>
<path d="M75.6328 98.9786H71.4248V104.228H75.6328V98.9786Z" fill="#C7C7C7"/>
<path d="M81.0195 98.9786H76.8115V104.228H81.0195V98.9786Z" fill="#C7C7C7"/>
<path d="M75.6328 90.0677H71.4248V95.317H75.6328V90.0677Z" fill="#C7C7C7"/>
<path d="M81.0195 90.0677H76.8115V95.317H81.0195V90.0677Z" fill="#C7C7C7"/>
<path d="M75.6328 81.1612H71.4248V86.4105H75.6328V81.1612Z" fill="#C7C7C7"/>
<path d="M81.0195 81.1612H76.8115V86.4105H81.0195V81.1612Z" fill="#C7C7C7"/>
<path d="M75.6328 72.2504H71.4248V77.4996H75.6328V72.2504Z" fill="#C7C7C7"/>
<path d="M81.0195 72.2504H76.8115V77.4996H81.0195V72.2504Z" fill="#C7C7C7"/>
<path d="M75.6328 63.3395H71.4248V68.5887H75.6328V63.3395Z" fill="#C7C7C7"/>
<path d="M81.0195 63.3395H76.8115V68.5887H81.0195V63.3395Z" fill="#C7C7C7"/>
<path d="M75.6328 54.4286H71.4248V59.6779H75.6328V54.4286Z" fill="#C7C7C7"/>
<path d="M81.0195 54.4286H76.8115V59.6779H81.0195V54.4286Z" fill="#C7C7C7"/>
<path d="M75.6328 45.5178H71.4248V50.767H75.6328V45.5178Z" fill="#C7C7C7"/>
<path d="M81.0195 45.5178H76.8115V50.767H81.0195V45.5178Z" fill="#C7C7C7"/>
<path d="M75.6328 36.6069H71.4248V41.8562H75.6328V36.6069Z" fill="#C7C7C7"/>
<path d="M82.1514 41.8562H86.3594V36.6069H82.1514V41.8562Z" fill="#C7C7C7"/>
<path d="M82.1514 50.7671H86.3594V45.5178H82.1514V50.7671Z" fill="#C7C7C7"/>
<path d="M82.1514 59.6779H86.3594V54.4286H82.1514V59.6779Z" fill="#C7C7C7"/>
<path d="M82.1514 68.5844H86.3594V63.3352H82.1514V68.5844Z" fill="#C7C7C7"/>
<path d="M82.1514 77.4953H86.3594V72.2461H82.1514V77.4953Z" fill="#C7C7C7"/>
<path d="M82.1514 86.4062H86.3594V81.1569H82.1514V86.4062Z" fill="#C7C7C7"/>
<path d="M82.1514 95.3213H86.3594V90.072H82.1514V95.3213Z" fill="#C7C7C7"/>
<path d="M82.1514 104.228H86.3594V98.9786H82.1514V104.228Z" fill="#C7C7C7"/>
<path d="M82.1514 113.139H86.3594V107.889H82.1514V113.139Z" fill="#C7C7C7"/>
<path d="M82.1514 122.05H86.3594V116.8H82.1514V122.05Z" fill="#C7C7C7"/>
<path d="M82.1514 130.96H86.3594V125.711H82.1514V130.96Z" fill="#C7C7C7"/>
<path d="M82.1514 139.871H86.3594V134.622H82.1514V139.871Z" fill="#C7C7C7"/>
<path d="M82.1514 148.778H86.3594V143.529H82.1514V148.778Z" fill="#C7C7C7"/>
<path d="M82.1514 157.689H86.3594V152.439H82.1514V157.689Z" fill="#C7C7C7"/>
<path d="M81.0195 36.6069H76.8115V41.8562H81.0195V36.6069Z" fill="#C7C7C7"/>
<path d="M229.019 169.59H258.269V32.9927H229.019L229.019 169.59Z" fill="#EBEBEB"/>
<path d="M229.019 32.9927L258.975 32.9927V30.0023L229.019 30.0023V32.9927Z" fill="#C7C7C7"/>
<path d="M252.658 169.594H255.622L255.622 37.4072H252.658L252.658 169.594Z" fill="white"/>
<path d="M247.409 169.594H250.373L250.373 37.4072H247.409L247.409 169.594Z" fill="white"/>
<path d="M242.159 169.594H245.124L245.124 37.4072H242.159L242.159 169.594Z" fill="white"/>
<path d="M236.91 169.594H239.875L239.875 37.4072H236.91L236.91 169.594Z" fill="white"/>
<path d="M231.66 169.594H234.625L234.625 37.4072H231.66L231.66 169.594Z" fill="white"/>
<path d="M252.658 47.0883H255.622V41.185H252.658V47.0883Z" fill="#EBEBEB"/>
<path d="M247.409 47.0883H250.373V41.185H247.409V47.0883Z" fill="#EBEBEB"/>
<path d="M242.159 47.0883H245.124V41.185H242.159V47.0883Z" fill="#EBEBEB"/>
<path d="M236.91 47.0883H239.875V41.185H236.91V47.0883Z" fill="#EBEBEB"/>
<path d="M231.66 47.0883H234.625V41.185H231.66V47.0883Z" fill="#EBEBEB"/>
<path d="M252.658 56.6833H255.622V50.78H252.658V56.6833Z" fill="#EBEBEB"/>
<path d="M247.409 56.6833H250.373V50.78H247.409V56.6833Z" fill="#EBEBEB"/>
<path d="M242.159 56.6833H245.124V50.78H242.159V56.6833Z" fill="#EBEBEB"/>
<path d="M236.91 56.6833H239.875V50.78H236.91V56.6833Z" fill="#EBEBEB"/>
<path d="M231.66 56.6833H234.625V50.78H231.66V56.6833Z" fill="#EBEBEB"/>
<path d="M252.658 66.2739H255.622V60.3706H252.658V66.2739Z" fill="#EBEBEB"/>
<path d="M247.409 66.2739H250.373V60.3706H247.409V66.2739Z" fill="#EBEBEB"/>
<path d="M242.159 66.2739H245.124V60.3706H242.159V66.2739Z" fill="#EBEBEB"/>
<path d="M236.91 66.2739H239.875V60.3706H236.91V66.2739Z" fill="#EBEBEB"/>
<path d="M231.66 66.2739H234.625V60.3706H231.66V66.2739Z" fill="#EBEBEB"/>
<path d="M252.658 75.8689H255.622V69.9656H252.658V75.8689Z" fill="#EBEBEB"/>
<path d="M247.409 75.8689H250.373V69.9656H247.409V75.8689Z" fill="#EBEBEB"/>
<path d="M242.159 75.8689H245.124V69.9656H242.159V75.8689Z" fill="#EBEBEB"/>
<path d="M236.91 75.8689H239.875V69.9656H236.91V75.8689Z" fill="#EBEBEB"/>
<path d="M231.66 75.8689H234.625V69.9656H231.66V75.8689Z" fill="#EBEBEB"/>
<path d="M252.658 85.4639H255.622V79.5606H252.658V85.4639Z" fill="#EBEBEB"/>
<path d="M247.409 85.4639H250.373V79.5606H247.409V85.4639Z" fill="#EBEBEB"/>
<path d="M242.159 85.4639H245.124V79.5606H242.159V85.4639Z" fill="#EBEBEB"/>
<path d="M236.91 85.4639H239.875V79.5606H236.91V85.4639Z" fill="#EBEBEB"/>
<path d="M231.66 85.4639H234.625V79.5606H231.66V85.4639Z" fill="#EBEBEB"/>
<path d="M252.658 95.0589H255.622V89.1556H252.658V95.0589Z" fill="#EBEBEB"/>
<path d="M247.409 95.0589H250.373V89.1556H247.409V95.0589Z" fill="#EBEBEB"/>
<path d="M242.159 95.0589H245.124V89.1556H242.159V95.0589Z" fill="#EBEBEB"/>
<path d="M236.91 95.0589H239.875V89.1556H236.91V95.0589Z" fill="#EBEBEB"/>
<path d="M231.66 95.0589H234.625V89.1556H231.66V95.0589Z" fill="#EBEBEB"/>
<path d="M252.658 104.654H255.622V98.7505H252.658V104.654Z" fill="#EBEBEB"/>
<path d="M247.409 104.654H250.373V98.7505H247.409V104.654Z" fill="#EBEBEB"/>
<path d="M242.159 104.654H245.124V98.7505H242.159V104.654Z" fill="#EBEBEB"/>
<path d="M236.91 104.654H239.875V98.7505H236.91V104.654Z" fill="#EBEBEB"/>
<path d="M231.66 104.654H234.625V98.7505H231.66V104.654Z" fill="#EBEBEB"/>
<path d="M252.658 114.249H255.622V108.346H252.658V114.249Z" fill="#EBEBEB"/>
<path d="M247.409 114.249H250.373V108.346H247.409V114.249Z" fill="#EBEBEB"/>
<path d="M242.159 114.249H245.124V108.346H242.159V114.249Z" fill="#EBEBEB"/>
<path d="M236.91 114.249H239.875V108.346H236.91V114.249Z" fill="#EBEBEB"/>
<path d="M231.66 114.249H234.625V108.346H231.66V114.249Z" fill="#EBEBEB"/>
<path d="M252.658 123.844H255.622V117.941H252.658V123.844Z" fill="#EBEBEB"/>
<path d="M247.409 123.844H250.373V117.941H247.409V123.844Z" fill="#EBEBEB"/>
<path d="M242.159 123.844H245.124V117.941H242.159V123.844Z" fill="#EBEBEB"/>
<path d="M236.91 123.844H239.875V117.941H236.91V123.844Z" fill="#EBEBEB"/>
<path d="M231.66 123.844H234.625V117.941H231.66V123.844Z" fill="#EBEBEB"/>
<path d="M252.658 133.435H255.622V127.531H252.658V133.435Z" fill="#EBEBEB"/>
<path d="M247.409 133.435H250.373V127.531H247.409V133.435Z" fill="#EBEBEB"/>
<path d="M242.159 133.435H245.124V127.531H242.159V133.435Z" fill="#EBEBEB"/>
<path d="M236.91 133.435H239.875V127.531H236.91V133.435Z" fill="#EBEBEB"/>
<path d="M231.66 133.435H234.625V127.531H231.66V133.435Z" fill="#EBEBEB"/>
<path d="M252.658 143.029H255.622V137.126H252.658V143.029Z" fill="#EBEBEB"/>
<path d="M247.409 143.029H250.373V137.126H247.409V143.029Z" fill="#EBEBEB"/>
<path d="M242.159 143.029H245.124V137.126H242.159V143.029Z" fill="#EBEBEB"/>
<path d="M236.91 143.029H239.875V137.126H236.91V143.029Z" fill="#EBEBEB"/>
<path d="M231.66 143.029H234.625V137.126H231.66V143.029Z" fill="#EBEBEB"/>
<path d="M252.658 152.624H255.622V146.721H252.658V152.624Z" fill="#EBEBEB"/>
<path d="M247.409 152.624H250.373V146.721H247.409V152.624Z" fill="#EBEBEB"/>
<path d="M242.159 152.624H245.124V146.721H242.159V152.624Z" fill="#EBEBEB"/>
<path d="M236.91 152.624H239.875V146.721H236.91V152.624Z" fill="#EBEBEB"/>
<path d="M231.66 152.624H234.625V146.721H231.66V152.624Z" fill="#EBEBEB"/>
<path d="M252.658 162.224H255.622V156.32H252.658V162.224Z" fill="#EBEBEB"/>
<path d="M247.409 162.224H250.373V156.32H247.409V162.224Z" fill="#EBEBEB"/>
<path d="M242.159 162.224H245.124V156.32H242.159V162.224Z" fill="#EBEBEB"/>
<path d="M236.91 162.224H239.875V156.32H236.91V162.224Z" fill="#EBEBEB"/>
<path d="M231.66 162.224H234.625V156.32H231.66V162.224Z" fill="#EBEBEB"/>
<path d="M252.658 169.594H255.622V165.915H252.658V169.594Z" fill="#EBEBEB"/>
<path d="M247.409 169.594H250.373V165.915H247.409V169.594Z" fill="#EBEBEB"/>
<path d="M242.159 169.594H245.124V165.915H242.159V169.594Z" fill="#EBEBEB"/>
<path d="M236.91 169.594H239.875V165.915H236.91V169.594Z" fill="#EBEBEB"/>
<path d="M231.66 169.594H234.625V165.915H231.66V169.594Z" fill="#EBEBEB"/>
<path d="M210.242 169.59H229.019L229.019 32.9927H210.242L210.242 169.59Z" fill="#DBDBDB"/>
<path d="M209.428 32.9927H229.019V30.0023L209.428 30.0023V32.9927Z" fill="#C7C7C7"/>
<path d="M223.408 169.594H226.373L226.373 37.4072H223.408L223.408 169.594Z" fill="#C7C7C7"/>
<path d="M218.159 169.594H221.123L221.123 37.4072H218.159L218.159 169.594Z" fill="#C7C7C7"/>
<path d="M212.909 169.594H215.874L215.874 37.4072H212.909L212.909 169.594Z" fill="#C7C7C7"/>
<path d="M223.408 47.0883H226.373V41.185H223.408V47.0883Z" fill="#DBDBDB"/>
<path d="M218.159 47.0883H221.123V41.185H218.159V47.0883Z" fill="#DBDBDB"/>
<path d="M212.909 47.0883H215.874V41.185H212.909V47.0883Z" fill="#DBDBDB"/>
<path d="M223.408 56.6833H226.373V50.78H223.408V56.6833Z" fill="#DBDBDB"/>
<path d="M218.159 56.6833H221.123V50.78H218.159V56.6833Z" fill="#DBDBDB"/>
<path d="M212.909 56.6833H215.874V50.78H212.909V56.6833Z" fill="#DBDBDB"/>
<path d="M223.408 66.2739H226.373V60.3706H223.408V66.2739Z" fill="#DBDBDB"/>
<path d="M218.159 66.2739H221.123V60.3706H218.159V66.2739Z" fill="#DBDBDB"/>
<path d="M212.909 66.2739H215.874V60.3706H212.909V66.2739Z" fill="#DBDBDB"/>
<path d="M223.408 75.8689H226.373V69.9656H223.408V75.8689Z" fill="#DBDBDB"/>
<path d="M218.159 75.8689H221.123V69.9656H218.159V75.8689Z" fill="#DBDBDB"/>
<path d="M212.909 75.8689H215.874V69.9656H212.909V75.8689Z" fill="#DBDBDB"/>
<path d="M223.408 85.4639H226.373V79.5606H223.408V85.4639Z" fill="#DBDBDB"/>
<path d="M218.159 85.4639H221.123V79.5606H218.159V85.4639Z" fill="#DBDBDB"/>
<path d="M212.909 85.4639H215.874V79.5606H212.909V85.4639Z" fill="#DBDBDB"/>
<path d="M223.408 95.0589H226.373V89.1556H223.408V95.0589Z" fill="#DBDBDB"/>
<path d="M218.159 95.0589H221.123V89.1556H218.159V95.0589Z" fill="#DBDBDB"/>
<path d="M212.909 95.0589H215.874V89.1556H212.909V95.0589Z" fill="#DBDBDB"/>
<path d="M223.408 104.654H226.373V98.7505H223.408V104.654Z" fill="#DBDBDB"/>
<path d="M218.159 104.654H221.123V98.7505H218.159V104.654Z" fill="#DBDBDB"/>
<path d="M212.909 104.654H215.874V98.7505H212.909V104.654Z" fill="#DBDBDB"/>
<path d="M223.408 114.249H226.373V108.346H223.408V114.249Z" fill="#DBDBDB"/>
<path d="M218.159 114.249H221.123V108.346H218.159V114.249Z" fill="#DBDBDB"/>
<path d="M212.909 114.249H215.874V108.346H212.909V114.249Z" fill="#DBDBDB"/>
<path d="M223.408 123.844H226.373V117.941H223.408V123.844Z" fill="#DBDBDB"/>
<path d="M218.159 123.844H221.123V117.941H218.159V123.844Z" fill="#DBDBDB"/>
<path d="M212.909 123.844H215.874V117.941H212.909V123.844Z" fill="#DBDBDB"/>
<path d="M223.408 133.435H226.373V127.531H223.408V133.435Z" fill="#DBDBDB"/>
<path d="M218.159 133.435H221.123V127.531H218.159V133.435Z" fill="#DBDBDB"/>
<path d="M212.909 133.435H215.874V127.531H212.909V133.435Z" fill="#DBDBDB"/>
<path d="M223.408 143.029H226.373V137.126H223.408V143.029Z" fill="#DBDBDB"/>
<path d="M218.159 143.029H221.123V137.126H218.159V143.029Z" fill="#DBDBDB"/>
<path d="M212.909 143.029H215.874V137.126H212.909V143.029Z" fill="#DBDBDB"/>
<path d="M223.408 152.624H226.373V146.721H223.408V152.624Z" fill="#DBDBDB"/>
<path d="M218.159 152.624H221.123V146.721H218.159V152.624Z" fill="#DBDBDB"/>
<path d="M212.909 152.624H215.874V146.721H212.909V152.624Z" fill="#DBDBDB"/>
<path d="M223.408 162.224H226.373V156.32H223.408V162.224Z" fill="#DBDBDB"/>
<path d="M218.159 162.224H221.123V156.32H218.159V162.224Z" fill="#DBDBDB"/>
<path d="M212.909 162.224H215.874V156.32H212.909V162.224Z" fill="#DBDBDB"/>
<path d="M223.408 169.594H226.373V165.915H223.408V169.594Z" fill="#DBDBDB"/>
<path d="M218.159 169.594H221.123V165.915H218.159V169.594Z" fill="#DBDBDB"/>
<path d="M212.909 169.594H215.874V165.915H212.909V169.594Z" fill="#DBDBDB"/>
<path d="M266.28 169.594H297.169V77.9686H266.28V169.594Z" fill="#EBEBEB"/>
<path d="M266.285 77.9686H292.776V70.1979H266.285V77.9686Z" fill="#C7C7C7"/>
<path d="M269.671 169.594H293.783V82.026H269.671V169.594Z" fill="#DBDBDB"/>
<path d="M269.671 92.4471H293.783V90.3776H269.671V92.4471Z" fill="white"/>
<path d="M269.671 101.018H293.783V98.9485H269.671V101.018Z" fill="white"/>
<path d="M269.671 109.593H293.783V107.524H269.671V109.593Z" fill="white"/>
<path d="M269.671 118.164H293.783V116.095H269.671V118.164Z" fill="white"/>
<path d="M269.671 126.735H293.783V124.666H269.671V126.735Z" fill="white"/>
<path d="M269.671 135.306H293.783V133.237H269.671V135.306Z" fill="white"/>
<path d="M269.671 143.881H293.783V141.812H269.671V143.881Z" fill="white"/>
<path d="M269.671 152.452H293.783V150.383H269.671V152.452Z" fill="white"/>
<path d="M269.671 161.019H293.783V158.949H269.671V161.019Z" fill="white"/>
<path d="M269.671 169.59H293.783V167.52H269.671V169.59Z" fill="white"/>
<path d="M246.935 169.594H266.28V77.9686H246.935V169.594Z" fill="#DBDBDB"/>
<path d="M249.835 77.9686H266.28V70.1979H249.835V77.9686Z" fill="#A6A6A6"/>
<path d="M248.738 169.594H263.612V82.026H248.738V169.594Z" fill="#C7C7C7"/>
<path d="M248.738 92.4471H263.612V90.3776H248.738V92.4471Z" fill="white"/>
<path d="M248.738 101.018H263.612V98.9485H248.738V101.018Z" fill="white"/>
<path d="M248.738 109.593H263.612V107.524H248.738V109.593Z" fill="white"/>
<path d="M248.738 118.164H263.612V116.095H248.738V118.164Z" fill="white"/>
<path d="M248.738 126.735H263.612V124.666H248.738V126.735Z" fill="white"/>
<path d="M248.738 135.306H263.612V133.237H248.738V135.306Z" fill="white"/>
<path d="M248.738 143.881H263.612V141.812H248.738V143.881Z" fill="white"/>
<path d="M248.738 152.452H263.612V150.383H248.738V152.452Z" fill="white"/>
<path d="M248.738 161.019H263.612V158.949H248.738V161.019Z" fill="white"/>
<path d="M248.738 169.59H263.612V167.52H248.738V169.59Z" fill="white"/>
<path d="M191.736 169.594H217.909V77.9686H191.736V169.594Z" fill="#DBDBDB"/>
<path d="M209.162 91.5135H213.792V85.8985H209.162V91.5135Z" fill="#C7C7C7"/>
<path d="M209.162 103.501H213.792V97.8857H209.162V103.501Z" fill="#C7C7C7"/>
<path d="M209.162 115.497H213.792V109.882H209.162V115.497Z" fill="#C7C7C7"/>
<path d="M209.162 127.484H213.792V121.869H209.162V127.484Z" fill="#C7C7C7"/>
<path d="M209.162 139.471H213.792V133.856H209.162V139.471Z" fill="#C7C7C7"/>
<path d="M209.162 151.463H213.792V145.848H209.162V151.463Z" fill="#C7C7C7"/>
<path d="M209.162 163.45H213.792V157.835H209.162V163.45Z" fill="#C7C7C7"/>
<path d="M202.501 91.5135H207.131V85.8985H202.501V91.5135Z" fill="#C7C7C7"/>
<path d="M202.501 103.501H207.131V97.8857H202.501V103.501Z" fill="#C7C7C7"/>
<path d="M202.501 115.497H207.131V109.882H202.501V115.497Z" fill="#C7C7C7"/>
<path d="M202.501 127.484H207.131V121.869H202.501V127.484Z" fill="#C7C7C7"/>
<path d="M202.501 139.471H207.131V133.856H202.501V139.471Z" fill="#C7C7C7"/>
<path d="M202.501 151.463H207.131V145.848H202.501V151.463Z" fill="#C7C7C7"/>
<path d="M202.501 163.45H207.131V157.835H202.501V163.45Z" fill="#C7C7C7"/>
<path d="M195.854 91.5135H200.483V85.8985H195.854V91.5135Z" fill="#C7C7C7"/>
<path d="M195.854 103.501H200.483V97.8857H195.854V103.501Z" fill="#C7C7C7"/>
<path d="M195.854 115.497H200.483V109.882H195.854V115.497Z" fill="#C7C7C7"/>
<path d="M195.854 127.484H200.483V121.869H195.854V127.484Z" fill="#C7C7C7"/>
<path d="M195.854 139.471H200.483V133.856H195.854V139.471Z" fill="#C7C7C7"/>
<path d="M195.854 151.463H200.483V145.848H195.854V151.463Z" fill="#C7C7C7"/>
<path d="M195.854 163.45H200.483V157.835H195.854V163.45Z" fill="#C7C7C7"/>
<path d="M173.372 169.594H191.736V77.9686H173.372V169.594Z" fill="#A6A6A6"/>
<path d="M179.026 156.944H175.257V162.559H179.026V156.944Z" fill="#C7C7C7"/>
<path d="M179.026 144.953H175.257V150.568H179.026V144.953Z" fill="#C7C7C7"/>
<path d="M179.026 132.966H175.257V138.581H179.026V132.966Z" fill="#C7C7C7"/>
<path d="M179.026 120.974H175.257V126.589H179.026V120.974Z" fill="#C7C7C7"/>
<path d="M179.026 108.982H175.257V114.597H179.026V108.982Z" fill="#C7C7C7"/>
<path d="M179.026 96.9951H175.257V102.61H179.026V96.9951Z" fill="#C7C7C7"/>
<path d="M179.026 85.0035H175.257V90.6185H179.026V85.0035Z" fill="#C7C7C7"/>
<path d="M184.448 156.944H180.679V162.559H184.448V156.944Z" fill="#C7C7C7"/>
<path d="M184.448 144.953H180.679V150.568H184.448V144.953Z" fill="#C7C7C7"/>
<path d="M184.448 132.966H180.679V138.581H184.448V132.966Z" fill="#C7C7C7"/>
<path d="M184.448 120.974H180.679V126.589H184.448V120.974Z" fill="#C7C7C7"/>
<path d="M184.448 108.982H180.679V114.597H184.448V108.982Z" fill="#C7C7C7"/>
<path d="M184.448 96.9951H180.679V102.61H184.448V96.9951Z" fill="#C7C7C7"/>
<path d="M184.448 85.0035H180.679V90.6185H184.448V85.0035Z" fill="#C7C7C7"/>
<path d="M189.856 156.944H186.087V162.559H189.856V156.944Z" fill="#C7C7C7"/>
<path d="M189.856 144.953H186.087V150.568H189.856V144.953Z" fill="#C7C7C7"/>
<path d="M189.856 132.966H186.087V138.581H189.856V132.966Z" fill="#C7C7C7"/>
<path d="M189.856 120.974H186.087V126.589H189.856V120.974Z" fill="#C7C7C7"/>
<path d="M189.856 108.982H186.087V114.597H189.856V108.982Z" fill="#C7C7C7"/>
<path d="M189.856 96.9951H186.087V102.61H189.856V96.9951Z" fill="#C7C7C7"/>
<path d="M189.856 85.0035H186.087V90.6185H189.856V85.0035Z" fill="#C7C7C7"/>
<path d="M50.9996 73.9155H67.4961V54.4286H50.9996V73.9155Z" fill="#DBDBDB"/>
<path d="M40.5402 74.6297H51V54.4286H40.5402V74.6297Z" fill="#C7C7C7"/>
<path d="M39.8432 74.6297H50.2256V63.034H39.8432V74.6297Z" fill="#DBDBDB"/>
<path d="M33.3672 74.6297H39.8428V63.034H33.3672V74.6297Z" fill="#C7C7C7"/>
<path d="M47.149 169.594H73.8213L73.8213 72.6505H47.149L47.149 169.594Z" fill="#EBEBEB"/>
<path d="M62.3885 80.2448H70.7744V76.8155H62.3885V80.2448Z" fill="white"/>
<path d="M51.658 80.2448H60.0439V76.8155H51.658V80.2448Z" fill="white"/>
<path d="M62.3885 86.062H70.7744V82.6327H62.3885V86.062Z" fill="white"/>
<path d="M51.658 86.062H60.0439V82.6327H51.658V86.062Z" fill="white"/>
<path d="M62.3885 91.8792H70.7744V88.4499H62.3885V91.8792Z" fill="white"/>
<path d="M51.658 91.8792H60.0439V88.4499H51.658V91.8792Z" fill="white"/>
<path d="M62.3885 97.7007H70.7744V94.2715H62.3885V97.7007Z" fill="white"/>
<path d="M51.658 97.7007H60.0439V94.2715H51.658V97.7007Z" fill="white"/>
<path d="M62.3885 103.518H70.7744V100.089H62.3885V103.518Z" fill="white"/>
<path d="M51.658 103.518H60.0439V100.089H51.658V103.518Z" fill="white"/>
<path d="M62.3885 109.339H70.7744V105.91H62.3885V109.339Z" fill="white"/>
<path d="M51.658 109.339H60.0439V105.91H51.658V109.339Z" fill="white"/>
<path d="M62.3885 115.157H70.7744V111.727H62.3885V115.157Z" fill="white"/>
<path d="M51.658 115.157H60.0439V111.727H51.658V115.157Z" fill="white"/>
<path d="M62.3885 120.974H70.7744V117.545H62.3885V120.974Z" fill="white"/>
<path d="M51.658 120.974H60.0439V117.545H51.658V120.974Z" fill="white"/>
<path d="M62.3885 126.795H70.7744V123.366H62.3885V126.795Z" fill="white"/>
<path d="M51.658 126.795H60.0439V123.366H51.658V126.795Z" fill="white"/>
<path d="M62.3885 132.613H70.7744V129.183H62.3885V132.613Z" fill="white"/>
<path d="M51.658 132.613H60.0439V129.183H51.658V132.613Z" fill="white"/>
<path d="M62.3885 138.43H70.7744V135.001H62.3885V138.43Z" fill="white"/>
<path d="M51.658 138.43H60.0439V135.001H51.658V138.43Z" fill="white"/>
<path d="M62.3885 144.251H70.7744V140.822H62.3885V144.251Z" fill="white"/>
<path d="M51.658 144.251H60.0439V140.822H51.658V144.251Z" fill="white"/>
<path d="M62.3885 150.069H70.7744V146.639H62.3885V150.069Z" fill="white"/>
<path d="M51.658 150.069H60.0439V146.639H51.658V150.069Z" fill="white"/>
<path d="M62.3885 155.89H70.7744V152.461H62.3885V155.89Z" fill="white"/>
<path d="M51.658 155.89H60.0439V152.461H51.658V155.89Z" fill="white"/>
<path d="M25.5318 169.594H47.1484L47.1484 72.6505H25.5318L25.5318 169.594Z" fill="#C7C7C7"/>
<path d="M34.5888 152.461H27.7002V155.89H34.5888V152.461Z" fill="#EBEBEB"/>
<path d="M43.4013 152.461H36.5127V155.89H43.4013V152.461Z" fill="#EBEBEB"/>
<path d="M34.5888 146.644H27.7002V150.073H34.5888V146.644Z" fill="#EBEBEB"/>
<path d="M43.4013 146.644H36.5127V150.073H43.4013V146.644Z" fill="#EBEBEB"/>
<path d="M34.5888 140.822H27.7002V144.251H34.5888V140.822Z" fill="#EBEBEB"/>
<path d="M43.4013 140.822H36.5127V144.251H43.4013V140.822Z" fill="#EBEBEB"/>
<path d="M34.5888 135.005H27.7002V138.434H34.5888V135.005Z" fill="#EBEBEB"/>
<path d="M43.4013 135.005H36.5127V138.434H43.4013V135.005Z" fill="#EBEBEB"/>
<path d="M34.5888 129.188H27.7002V132.617H34.5888V129.188Z" fill="#EBEBEB"/>
<path d="M43.4013 129.188H36.5127V132.617H43.4013V129.188Z" fill="#EBEBEB"/>
<path d="M34.5888 123.366H27.7002V126.795H34.5888V123.366Z" fill="#EBEBEB"/>
<path d="M43.4013 123.366H36.5127V126.795H43.4013V123.366Z" fill="#EBEBEB"/>
<path d="M34.5888 117.549H27.7002V120.978H34.5888V117.549Z" fill="#EBEBEB"/>
<path d="M43.4013 117.549H36.5127V120.978H43.4013V117.549Z" fill="#EBEBEB"/>
<path d="M34.5888 111.727H27.7002V115.157H34.5888V111.727Z" fill="#EBEBEB"/>
<path d="M43.4013 111.727H36.5127V115.157H43.4013V111.727Z" fill="#EBEBEB"/>
<path d="M34.5888 105.91H27.7002V109.339H34.5888V105.91Z" fill="#EBEBEB"/>
<path d="M43.4013 105.91H36.5127V109.339H43.4013V105.91Z" fill="#EBEBEB"/>
<path d="M34.5888 100.093H27.7002V103.522H34.5888V100.093Z" fill="#EBEBEB"/>
<path d="M43.4013 100.093H36.5127V103.522H43.4013V100.093Z" fill="#EBEBEB"/>
<path d="M34.5888 94.2715H27.7002V97.7007H34.5888V94.2715Z" fill="#EBEBEB"/>
<path d="M43.4013 94.2715H36.5127V97.7007H43.4013V94.2715Z" fill="#EBEBEB"/>
<path d="M34.5888 88.4543H27.7002V91.8835H34.5888V88.4543Z" fill="#EBEBEB"/>
<path d="M43.4013 88.4543H36.5127V91.8835H43.4013V88.4543Z" fill="#EBEBEB"/>
<path d="M34.5888 82.6327H27.7002V86.062H34.5888V82.6327Z" fill="#EBEBEB"/>
<path d="M43.4013 82.6327H36.5127V86.062H43.4013V82.6327Z" fill="#EBEBEB"/>
<path d="M34.5888 76.8155H27.7002V80.2447H34.5888V76.8155Z" fill="#EBEBEB"/>
<path d="M43.4013 76.8155H36.5127V80.2447H43.4013V76.8155Z" fill="#EBEBEB"/>
<path d="M125.397 169.594H156.858V106.422H125.397V169.594Z" fill="#C7C7C7"/>
<path d="M146.342 115.759H151.91V111.891H146.342V115.759Z" fill="#DBDBDB"/>
<path d="M146.342 124.029H151.91V120.161H146.342V124.029Z" fill="#DBDBDB"/>
<path d="M146.342 132.294H151.91V128.422H146.342V132.294Z" fill="#DBDBDB"/>
<path d="M146.342 140.56H151.91V136.692H146.342V140.56Z" fill="#DBDBDB"/>
<path d="M146.342 148.825H151.91V144.953H146.342V148.825Z" fill="#DBDBDB"/>
<path d="M146.342 157.091H151.91V153.218H146.342V157.091Z" fill="#DBDBDB"/>
<path d="M146.342 165.36H151.91V161.488H146.342V165.36Z" fill="#DBDBDB"/>
<path d="M138.331 115.759H143.898V111.891H138.331V115.759Z" fill="#DBDBDB"/>
<path d="M138.331 124.029H143.898V120.161H138.331V124.029Z" fill="#DBDBDB"/>
<path d="M138.331 132.294H143.898V128.422H138.331V132.294Z" fill="#DBDBDB"/>
<path d="M138.331 140.56H143.898V136.692H138.331V140.56Z" fill="#DBDBDB"/>
<path d="M138.331 148.825H143.898V144.953H138.331V148.825Z" fill="#DBDBDB"/>
<path d="M138.331 157.091H143.898V153.218H138.331V157.091Z" fill="#DBDBDB"/>
<path d="M138.331 165.36H143.898V161.488H138.331V165.36Z" fill="#DBDBDB"/>
<path d="M130.342 115.759H135.909V111.891H130.342V115.759Z" fill="#DBDBDB"/>
<path d="M130.342 124.029H135.909V120.161H130.342V124.029Z" fill="#DBDBDB"/>
<path d="M130.342 132.294H135.909V128.422H130.342V132.294Z" fill="#DBDBDB"/>
<path d="M130.342 140.56H135.909V136.692H130.342V140.56Z" fill="#DBDBDB"/>
<path d="M130.342 148.825H135.909V144.953H130.342V148.825Z" fill="#DBDBDB"/>
<path d="M130.342 157.091H135.909V153.218H130.342V157.091Z" fill="#DBDBDB"/>
<path d="M130.342 165.36H135.909V161.488H130.342V165.36Z" fill="#DBDBDB"/>
<path d="M125.397 106.422H146.343V99.8391H125.397V106.422Z" fill="#DBDBDB"/>
<path d="M125.398 99.8434H138.676V95.7688H125.398V99.8434Z" fill="#EBEBEB"/>
<path d="M103.321 169.594H125.394L125.394 106.422H103.321V169.594Z" fill="#A6A6A6"/>
<path d="M110.11 160.873H105.579V164.745H110.11V160.873Z" fill="#C7C7C7"/>
<path d="M110.11 152.607H105.579V156.475H110.11V152.607Z" fill="#C7C7C7"/>
<path d="M110.11 144.337H105.579V148.21H110.11V144.337Z" fill="#C7C7C7"/>
<path d="M110.11 136.072H105.579V139.944H110.11V136.072Z" fill="#C7C7C7"/>
<path d="M110.11 127.807H105.579V131.679H110.11V127.807Z" fill="#C7C7C7"/>
<path d="M110.11 119.541H105.579V123.409H110.11V119.541Z" fill="#C7C7C7"/>
<path d="M110.11 111.271H105.579V115.139H110.11V111.271Z" fill="#C7C7C7"/>
<path d="M116.628 160.873H112.098V164.745H116.628V160.873Z" fill="#C7C7C7"/>
<path d="M116.628 152.607H112.098V156.475H116.628V152.607Z" fill="#C7C7C7"/>
<path d="M116.628 144.337H112.098V148.21H116.628V144.337Z" fill="#C7C7C7"/>
<path d="M116.628 136.072H112.098V139.944H116.628V136.072Z" fill="#C7C7C7"/>
<path d="M116.628 127.807H112.098V131.679H116.628V127.807Z" fill="#C7C7C7"/>
<path d="M116.628 119.541H112.098V123.409H116.628V119.541Z" fill="#C7C7C7"/>
<path d="M116.628 111.271H112.098V115.139H116.628V111.271Z" fill="#C7C7C7"/>
<path d="M123.134 160.873H118.604V164.745H123.134V160.873Z" fill="#C7C7C7"/>
<path d="M123.134 152.607H118.604V156.475H123.134V152.607Z" fill="#C7C7C7"/>
<path d="M123.134 144.337H118.604V148.21H123.134V144.337Z" fill="#C7C7C7"/>
<path d="M123.134 136.072H118.604V139.944H123.134V136.072Z" fill="#C7C7C7"/>
<path d="M123.134 127.807H118.604V131.679H123.134V127.807Z" fill="#C7C7C7"/>
<path d="M123.134 119.541H118.604V123.409H123.134V119.541Z" fill="#C7C7C7"/>
<path d="M123.134 111.271H118.604V115.139H123.134V111.271Z" fill="#C7C7C7"/>
<path d="M106.664 106.422H125.394V99.8391H106.664V106.422Z" fill="#C7C7C7"/>
<path d="M115.244 99.8434H125.394V95.7688H115.244V99.8434Z" fill="#DBDBDB"/>
<path d="M25.1152 169.594C112.395 169.327 210.307 169.327 297.587 169.594C210.307 169.857 112.395 169.857 25.1152 169.594Z" fill="#263238"/>
<path d="M322.701 179.357V194.791H0V179.357L44.3521 169.594H274.046L322.701 179.357Z" fill="#A6A6A6"/>
<path d="M322.701 180.85V181.655L266.173 169.594H268.789L322.701 180.85Z" fill="#BBB360"/>
<path d="M52.226 169.594L0 181.655V180.85L49.6099 169.594H52.226Z" fill="#BBB360"/>
<path d="M164.281 194.791H158.421L159.987 169.594H162.711L164.281 194.791Z" fill="#C7C7C7"/>
<path d="M80.4601 60.7407C80.4601 60.7407 76.1316 58.9335 75.4819 57.9181C74.8321 56.9027 72.0397 52.6258 71.0329 52.458C67.324 51.8341 57.1955 52.2127 53.7963 54.0414C51.9333 55.0439 53.8953 62.4445 55.6035 64.1785C57.3116 65.9125 69.5226 66.2782 71.4976 65.8781C73.4725 65.4779 74.9397 63.4556 74.9397 63.4556L79.7974 64.8067L80.4601 60.7407Z" fill="#BBB360"/>
<path d="M81.6604 55.2935C81.6604 55.2935 78.3731 55.7711 77.5771 56.4595C76.7811 57.1479 74.2856 62.6683 74.4448 64.5786C74.604 66.489 76.6219 68.4511 76.6219 68.4511L81.6604 55.2935Z" fill="#BBB360"/>
<path opacity="0.1" d="M81.6604 55.2935C81.6604 55.2935 78.3731 55.7711 77.5771 56.4595C76.7811 57.1479 74.2856 62.6683 74.4448 64.5786C74.604 66.489 76.6219 68.4511 76.6219 68.4511L81.6604 55.2935Z" fill="black"/>
<path d="M242.241 60.7407C242.241 60.7407 246.57 58.9335 247.219 57.9181C247.869 56.9027 250.662 52.6258 251.668 52.458C255.377 51.8341 265.506 52.2127 268.905 54.0414C270.768 55.0439 268.806 62.4445 267.098 64.1785C265.39 65.9125 253.179 66.2782 251.204 65.8781C249.229 65.4779 247.762 63.4556 247.762 63.4556L242.904 64.8067L242.241 60.7407Z" fill="#BBB360"/>
<path d="M241.041 55.2935C241.041 55.2935 244.328 55.7711 245.124 56.4595C245.92 57.1479 248.416 62.6683 248.257 64.5786C248.097 66.489 246.079 68.4511 246.079 68.4511L241.041 55.2935Z" fill="#BBB360"/>
<path opacity="0.1" d="M241.041 55.2935C241.041 55.2935 244.328 55.7711 245.124 56.4595C245.92 57.1479 248.416 62.6683 248.257 64.5786C248.097 66.489 246.079 68.4511 246.079 68.4511L241.041 55.2935Z" fill="black"/>
<path d="M81.7636 105.058H60.319C57.6457 105.058 55.4785 107.225 55.4785 109.899V165.141C55.4785 167.814 57.6457 169.981 60.319 169.981H81.7636C84.4369 169.981 86.6041 167.814 86.6041 165.141V109.899C86.6041 107.225 84.4369 105.058 81.7636 105.058Z" fill="#263238"/>
<path d="M65.7711 86.2986C65.7711 86.2986 58.5555 89.9774 56.8559 93.3722C55.1564 96.767 56.8559 131.86 56.8559 134.549C56.8559 137.238 62.0837 154.772 63.0776 156.622C64.0715 158.472 77.7971 160.584 77.7971 160.584L65.7711 86.2986Z" fill="#BBB360"/>
<path opacity="0.1" d="M65.7711 86.2986C65.7711 86.2986 58.5555 89.9774 56.8559 93.3722C55.1564 96.767 56.8559 131.86 56.8559 134.549C56.8559 137.238 62.0837 154.772 63.0776 156.622C64.0715 158.472 77.7971 160.584 77.7971 160.584L65.7711 86.2986Z" fill="black"/>
<path d="M240.941 169.981H262.386C265.059 169.981 267.227 167.814 267.227 165.141V109.899C267.227 107.225 265.059 105.058 262.386 105.058H240.941C238.268 105.058 236.101 107.225 236.101 109.899V165.141C236.101 167.814 238.268 169.981 240.941 169.981Z" fill="#263238"/>
<path d="M256.93 86.2986C256.93 86.2986 264.15 89.9774 265.845 93.3722C267.541 96.767 265.845 131.86 265.845 134.549C265.845 137.238 260.618 154.772 259.624 156.622C258.63 158.472 244.904 160.584 244.904 160.584L256.93 86.2986Z" fill="#BBB360"/>
<path opacity="0.1" d="M256.93 86.2986C256.93 86.2986 264.15 89.9774 265.845 93.3722C267.541 96.767 265.845 131.86 265.845 134.549C265.845 137.238 260.618 154.772 259.624 156.622C258.63 158.472 244.904 160.584 244.904 160.584L256.93 86.2986Z" fill="black"/>
<path d="M258.819 139.785C258.819 139.075 259.576 89.7838 259.361 88.8242C259.146 87.8648 257.133 81.187 256.233 79.7542C255.334 78.3214 247.266 68.137 247.056 67.4959C242.09 52.6129 228.214 25.3812 226.093 23.4665C224.108 21.7017 221.66 20.5416 219.037 20.1233C216.915 19.8609 188.208 18.811 161.35 18.811C134.493 18.811 105.786 19.8695 103.669 20.1319C101.044 20.5492 98.5941 21.7093 96.608 23.4751C94.4825 25.3898 80.6063 52.6215 75.6497 67.5045C75.4388 68.1413 67.3713 78.33 66.4677 79.7628C65.5642 81.1956 63.5462 87.882 63.3354 88.8329C63.1245 89.7838 63.8861 139.084 63.8861 139.794C63.8861 140.504 62.8965 143.757 62.9653 144.673C63.0342 145.59 66.1493 158.756 67.4186 160.094C68.6879 161.432 94.1641 162.499 95.7217 162.499C97.2792 162.499 102.176 159.745 103.079 159.535C103.983 159.324 155.099 159.461 161.35 159.461C167.602 159.461 218.705 159.315 219.622 159.535C220.538 159.754 225.426 162.499 226.975 162.499C228.524 162.499 254.004 161.441 255.274 160.094C256.543 158.747 259.667 145.594 259.736 144.673C259.804 143.752 258.819 140.491 258.819 139.785ZM161.35 68.451C117.868 68.451 79.5221 66.773 79.5221 66.773C87.3702 47.1054 97.6364 26.444 98.7637 25.592C99.891 24.7401 103.927 23.2557 105.058 22.976C109.877 21.7713 144.325 21.5604 161.35 21.5604C178.376 21.5604 212.819 21.7713 217.638 22.976C218.774 23.2557 222.801 24.7444 223.937 25.592C225.073 26.4397 235.331 47.1054 243.179 66.773C243.179 66.773 204.833 68.451 161.35 68.451Z" fill="#BBB360"/>
<path opacity="0.1" d="M253.557 135.891C253.557 136.752 252.409 143.344 251.664 143.529C231.171 148.627 181.961 152.913 161.351 152.564C140.754 152.904 91.5357 148.619 71.042 143.529C70.2933 143.344 69.1445 136.739 69.1445 135.891C69.1445 135.044 70.0051 125.634 71.042 125.354C72.079 125.074 93.7688 128.964 111.995 131.378C137.411 134.755 161.351 134.437 161.351 134.437C161.351 134.437 185.287 134.755 210.707 131.378C228.929 128.96 250.61 125.061 251.664 125.354C252.718 125.647 253.557 135.039 253.557 135.891Z" fill="black"/>
<path opacity="0.5" d="M233.537 128L226.558 147.853C203.835 150.813 175.67 152.809 161.351 152.586C147.027 152.822 118.866 150.826 96.1479 147.853L89.1689 128C96.2167 129.11 104.405 130.375 111.995 131.382C137.411 134.76 161.351 134.441 161.351 134.441C161.351 134.441 185.282 134.76 210.707 131.382C218.292 130.375 226.489 129.11 233.537 128Z" fill="white"/>
<path d="M210.707 131.382C210.81 131.855 206.89 139.643 203.934 144.29C203.074 145.667 198.819 148.851 197.833 149.062C196.848 149.273 184.628 152.586 161.351 152.586C138.073 152.586 125.867 149.273 124.868 149.062C123.87 148.851 119.649 145.654 118.754 144.277C115.798 139.643 111.87 131.855 111.982 131.369C112.094 130.883 126.684 134.428 161.338 134.428C195.992 134.428 210.617 130.913 210.707 131.382Z" fill="#263238"/>
<path d="M81.6438 139.753C83.8371 138.845 84.8786 136.331 83.9701 134.137C83.0616 131.944 80.5472 130.903 78.354 131.811C76.1608 132.72 75.1193 135.234 76.0277 137.427C76.9362 139.62 79.4506 140.662 81.6438 139.753Z" fill="white"/>
<path d="M76.9579 132.746C79.66 129.936 84.7027 131.808 84.8447 135.788C84.8663 136.43 84.7558 137.07 84.5199 137.667C84.2841 138.265 83.928 138.808 83.4737 139.262C83.0195 139.716 82.4767 140.072 81.8792 140.308C81.2816 140.544 80.642 140.654 79.9999 140.633C76.0199 140.508 74.1483 135.448 76.9579 132.746ZM76.9579 132.746C76.572 133.137 76.2703 133.602 76.0716 134.114C75.8729 134.626 75.7814 135.173 75.8028 135.721C75.8242 136.27 75.9579 136.808 76.1959 137.303C76.4338 137.798 76.7708 138.238 77.186 138.598C80.9809 141.653 85.8688 136.765 82.8139 132.97C82.454 132.555 82.0127 132.218 81.5174 131.981C81.0221 131.743 80.4833 131.609 79.9344 131.589C79.3855 131.568 78.8381 131.659 78.3261 131.859C77.8141 132.058 77.3484 132.36 76.9579 132.746Z" fill="#DBDBDB"/>
<path d="M243.225 139.971C245.534 139.423 246.963 137.107 246.415 134.797C245.867 132.487 243.551 131.058 241.241 131.606C238.931 132.154 237.503 134.47 238.05 136.78C238.598 139.09 240.915 140.519 243.225 139.971Z" fill="white"/>
<path d="M245.274 132.746C244.884 132.36 244.419 132.058 243.907 131.859C243.395 131.66 242.848 131.568 242.3 131.589C241.751 131.61 241.213 131.743 240.718 131.981C240.223 132.218 239.782 132.555 239.423 132.97C236.363 136.769 241.255 141.653 245.05 138.598C245.465 138.238 245.802 137.797 246.039 137.302C246.277 136.807 246.41 136.269 246.431 135.72C246.452 135.172 246.36 134.625 246.161 134.113C245.962 133.602 245.66 133.136 245.274 132.746ZM245.274 132.746C248.088 135.448 246.216 140.491 242.236 140.633C241.594 140.655 240.954 140.545 240.355 140.309C239.757 140.073 239.214 139.717 238.76 139.262C238.305 138.807 237.949 138.263 237.714 137.665C237.478 137.067 237.369 136.426 237.392 135.784C237.521 131.812 242.555 129.932 245.274 132.746Z" fill="#DBDBDB"/>
<path opacity="0.5" d="M243.179 66.773C243.179 66.773 204.834 68.4511 161.351 68.4511C117.868 68.4511 79.5225 66.773 79.5225 66.773C87.3706 47.1055 97.6367 26.444 98.7641 25.592C99.8914 24.7401 103.927 23.2557 105.059 22.976C109.878 21.7713 144.325 21.5604 161.351 21.5604C178.377 21.5604 212.82 21.7713 217.639 22.976C218.774 23.2557 222.802 24.7444 223.938 25.592C225.074 26.4397 235.331 47.1055 243.179 66.773Z" fill="#DBDBDB"/>
<path d="M145.951 50.6121H97.8641C97.124 50.6121 96.4082 50.8759 95.8451 51.3561C95.2821 51.8364 94.9087 52.5017 94.792 53.2325L93.4237 61.8722C93.3528 62.3161 93.379 62.77 93.5005 63.2027C93.622 63.6355 93.836 64.0366 94.1277 64.3786C94.4193 64.7206 94.7817 64.9952 95.1898 65.1835C95.598 65.3718 96.0421 65.4693 96.4915 65.4693H147.323C147.773 65.4693 148.217 65.3718 148.625 65.1835C149.033 64.9952 149.396 64.7206 149.687 64.3786C149.979 64.0366 150.193 63.6355 150.314 63.2027C150.436 62.77 150.462 62.3161 150.391 61.8722L149.023 53.2325C148.907 52.5013 148.534 51.8355 147.971 51.3551C147.407 50.8747 146.691 50.6112 145.951 50.6121Z" fill="#BBB360"/>
<path d="M136.494 40.5955H107.322C106.407 40.5955 105.665 41.3372 105.665 42.252V52.3074C105.665 53.2223 106.407 53.964 107.322 53.964H136.494C137.409 53.964 138.15 53.2223 138.15 52.3074V42.252C138.15 41.3372 137.409 40.5955 136.494 40.5955Z" fill="#BBB360"/>
<path d="M145.951 50.6122H97.8641C97.124 50.6122 96.4082 50.876 95.8451 51.3562C95.2821 51.8365 94.9087 52.5017 94.792 53.2325L93.4237 61.8723C93.3528 62.3162 93.379 62.7701 93.5005 63.2028C93.622 63.6355 93.836 64.0367 94.1277 64.3787C94.4193 64.7207 94.7817 64.9953 95.1898 65.1836C95.598 65.3719 96.0421 65.4694 96.4915 65.4694H147.323C147.773 65.4694 148.217 65.3719 148.625 65.1836C149.033 64.9953 149.396 64.7207 149.687 64.3787C149.979 64.0367 150.193 63.6355 150.314 63.2028C150.436 62.7701 150.462 62.3162 150.391 61.8723L149.023 53.2325C148.907 52.5014 148.534 51.8356 147.971 51.3552C147.407 50.8748 146.691 50.6113 145.951 50.6122Z" fill="black"/>
<path d="M136.494 40.5956H107.322C106.407 40.5956 105.665 41.3372 105.665 42.2521V52.3075C105.665 53.2223 106.407 53.964 107.322 53.964H136.494C137.409 53.964 138.15 53.2223 138.15 52.3075V42.2521C138.15 41.3372 137.409 40.5956 136.494 40.5956Z" fill="black"/>
<path d="M224.837 50.6121H176.75C176.01 50.6112 175.293 50.8747 174.73 51.3551C174.167 51.8355 173.794 52.5013 173.678 53.2325L172.309 61.8722C172.239 62.3161 172.265 62.77 172.386 63.2027C172.508 63.6355 172.722 64.0366 173.013 64.3786C173.305 64.7206 173.667 64.9952 174.076 65.1835C174.484 65.3718 174.928 65.4693 175.377 65.4693H226.209C226.659 65.4693 227.103 65.3718 227.511 65.1835C227.919 64.9952 228.281 64.7206 228.573 64.3786C228.865 64.0366 229.079 63.6355 229.2 63.2027C229.322 62.77 229.348 62.3161 229.277 61.8722L227.909 53.2325C227.792 52.5017 227.419 51.8364 226.856 51.3561C226.293 50.8759 225.577 50.6121 224.837 50.6121Z" fill="#BBB360"/>
<path d="M215.38 40.5955H186.207C185.292 40.5955 184.551 41.3372 184.551 42.252V52.3074C184.551 53.2223 185.292 53.964 186.207 53.964H215.38C216.294 53.964 217.036 53.2223 217.036 52.3074V42.252C217.036 41.3372 216.294 40.5955 215.38 40.5955Z" fill="#BBB360"/>
<path d="M224.837 50.6122H176.75C176.01 50.6113 175.293 50.8748 174.73 51.3552C174.167 51.8356 173.794 52.5014 173.678 53.2325L172.309 61.8723C172.239 62.3162 172.265 62.7701 172.386 63.2028C172.508 63.6355 172.722 64.0367 173.013 64.3787C173.305 64.7207 173.667 64.9953 174.076 65.1836C174.484 65.3719 174.928 65.4694 175.377 65.4694H226.209C226.659 65.4694 227.103 65.3719 227.511 65.1836C227.919 64.9953 228.281 64.7207 228.573 64.3787C228.865 64.0367 229.079 63.6355 229.2 63.2028C229.322 62.7701 229.348 62.3162 229.277 61.8723L227.909 53.2325C227.792 52.5017 227.419 51.8365 226.856 51.3562C226.293 50.876 225.577 50.6122 224.837 50.6122Z" fill="black"/>
<path d="M215.38 40.5956H186.207C185.292 40.5956 184.551 41.3372 184.551 42.2521V52.3075C184.551 53.2223 185.292 53.964 186.207 53.964H215.38C216.294 53.964 217.036 53.2223 217.036 52.3075V42.2521C217.036 41.3372 216.294 40.5956 215.38 40.5956Z" fill="black"/>
<path d="M141.937 21.6465L96.208 67.3755C90.6403 67.199 86.2515 67.0398 83.373 66.9452L128.482 21.823C132.845 21.7412 137.445 21.6853 141.937 21.6465Z" fill="white"/>
<path d="M232.014 41.185L205.238 67.9434C200.957 68.0381 196.422 68.1284 191.693 68.2016L227.659 32.2354C228.903 34.7052 230.396 37.7429 232.014 41.185Z" fill="white"/>
<path d="M124.21 21.9047L79.6426 66.4718C80.103 65.3273 80.5677 64.1742 81.041 63.0297L122.114 21.9563L124.21 21.9047Z" fill="white"/>
<path d="M188.333 21.724L141.705 68.3435L139.683 68.322L186.306 21.7025L188.333 21.724Z" fill="white"/>
<path d="M242.624 65.3876L241.152 66.8548L239.001 66.9366L242.013 63.9247C242.241 64.4195 242.43 64.9014 242.624 65.3876Z" fill="white"/>
<path d="M206.034 22.1198L159.702 68.4511H155.154L201.623 21.9821C203.155 22.0252 204.635 22.0682 206.034 22.1198Z" fill="white"/>
<path d="M243.179 66.773C243.179 66.773 204.834 68.4511 161.351 68.4511C117.868 68.4511 79.5225 66.773 79.5225 66.773C80.2625 64.9229 81.0241 63.1115 81.79 61.3474C90.6148 61.7002 124.098 62.9307 161.351 62.9307C198.604 62.9307 232.087 61.7002 240.916 61.3474C241.682 63.1086 242.436 64.9171 243.179 66.773Z" fill="#263238"/>
<path opacity="0.1" d="M79.5218 66.773C77.7362 70.9423 75.288 74.8406 72.8053 78.6226C72.7365 78.7216 72.6074 78.9238 72.5429 79.0228C72.4095 79.453 72.9129 80.3652 73.1754 80.8299C73.554 81.5097 74.0015 82.1594 74.4404 82.8306C73.369 81.9701 70.8777 79.8876 71.7426 78.3602C73.9017 74.2235 76.5106 70.3376 79.5218 66.773Z" fill="black"/>
<path opacity="0.1" d="M243.179 66.773C246.191 70.3366 248.8 74.2226 250.958 78.3602C251.819 79.8919 249.34 81.9744 248.264 82.8306C248.695 82.1594 249.125 81.5097 249.525 80.8299C249.792 80.3695 250.295 79.4617 250.162 79.0228C250.097 78.9238 249.964 78.7216 249.895 78.6226C247.417 74.8406 244.969 70.9466 243.179 66.773Z" fill="black"/>
<path opacity="0.1" d="M258.083 98.8409C258.083 99.7401 258.044 104.899 257.343 105.321C255.385 106.495 246.737 109.232 241.341 110.226C216.093 114.886 179.383 117.51 161.35 117.209C143.313 117.51 106.607 114.886 81.3589 110.226C75.9677 109.232 67.3193 106.495 65.3572 105.321C64.6559 104.89 64.6172 99.7272 64.6172 98.8409C64.6172 97.9545 70.6409 85.9328 71.7424 85.6446C72.8439 85.3563 85.3217 92.4342 106.211 96.1947C127.634 100.067 161.35 100.149 161.35 100.149C161.35 100.149 195.07 100.05 216.489 96.1947C237.379 92.4342 249.843 85.9759 250.962 86.2986C252.081 86.6213 258.083 97.9804 258.083 98.8409Z" fill="black"/>
<path opacity="0.5" d="M257.343 105.338C250.136 109.18 242.125 111.19 234.109 112.562C226.109 114.019 218.077 115.263 210.014 116.293C193.87 118.315 177.645 119.946 161.346 119.924C134.906 119.7 108.531 116.396 82.6069 111.396C76.6064 110.178 70.8021 108.139 65.3574 105.338C70.9221 107.773 76.7731 109.494 82.7704 110.458C108.78 114.214 135.057 117.239 161.35 117.381C177.524 117.472 193.694 115.927 209.79 114.331C217.844 113.47 225.895 112.506 233.915 111.349C237.917 110.759 241.944 110.308 245.855 109.253C249.766 108.199 253.673 107.055 257.343 105.347V105.338Z" fill="white"/>
<path d="M76.33 83.2695C80.6843 83.6739 101.359 96.5132 102.228 97.5673C103.097 98.6215 105.197 109.24 103.893 110.282C102.589 111.323 86.9662 110.789 82.2591 110.032C77.5519 109.275 67.8279 106.642 65.6378 104.955C63.4477 103.268 65.1258 91.4016 67.2771 89.0351C70.0394 85.9716 73.5375 83.0113 76.33 83.2695Z" fill="white"/>
<path d="M76.3296 83.2695C77.4503 83.4942 78.5397 83.854 79.5738 84.3409C82.7148 85.7092 85.7223 87.3528 88.7256 89.005C93.2133 91.5264 97.7139 94.0305 101.974 96.9176C102.504 97.2908 102.876 97.8473 103.019 98.4795C103.378 99.5799 103.679 100.699 103.918 101.831C104.392 104.116 104.839 106.366 104.831 108.716C104.796 110.049 104.572 110.927 103.109 111.108C99.379 111.654 95.6099 111.452 91.8666 111.383C88.4244 111.215 84.9823 111.104 81.5401 110.497C76.4759 109.451 71.4374 108.109 66.7131 105.983C66.1488 105.733 65.6286 105.393 65.1727 104.977C63.9034 102.937 64.3595 100.317 64.5015 98.0536C64.9533 94.9857 65.362 91.6641 67.1347 89.0437C69.5399 86.5912 72.6035 83.2093 76.2909 83.2566L76.3296 83.2695ZM76.3296 83.2695C72.8186 83.2695 70.1337 86.1695 67.8361 88.4973C67.0436 89.3128 66.472 90.3168 66.1752 91.4145C65.511 93.5906 65.0967 95.8353 64.9404 98.1052C64.7706 99.7859 64.8256 101.482 65.1039 103.148C65.2889 104.008 65.5341 104.628 66.3086 104.994C70.1294 106.831 74.346 107.726 78.4551 108.698C82.8697 109.765 87.409 109.955 91.9397 110.123C94.2115 110.209 96.4876 110.26 98.7509 110.23C100.321 110.17 102.047 110.26 103.527 109.839C103.527 109.903 103.634 109.688 103.665 109.451C103.961 107.016 103.48 104.482 103.079 102.008C102.862 100.63 102.516 99.2762 102.047 97.9632C101.978 97.7653 101.763 97.6491 101.569 97.4727C97.4256 94.4608 93.0369 91.7888 88.6395 89.1599C85.7043 87.3969 82.675 85.7954 79.5652 84.3624C78.5348 83.8686 77.4483 83.5017 76.3296 83.2695Z" fill="#DBDBDB"/>
<path d="M87.0601 99.1033C87.116 104.267 80.7825 107.076 76.9789 103.509C74.4575 101.259 74.4575 96.9391 76.9789 94.7017C80.7868 91.1305 87.1203 93.9573 87.0644 99.1033H87.0601ZM87.0601 99.1033C87.0902 94.2499 80.9546 91.8964 77.7534 95.4805C76.8472 96.4711 76.3447 97.7651 76.3447 99.1076C76.3447 100.45 76.8472 101.744 77.7534 102.735C80.9546 106.323 87.0902 103.961 87.0601 99.1033Z" fill="#DBDBDB"/>
<path d="M98.6263 102.873C98.7081 107.227 93.2308 109.714 90.021 106.668C89.5031 106.18 89.0905 105.592 88.8084 104.94C88.5264 104.287 88.3809 103.584 88.3809 102.873C88.3809 102.162 88.5264 101.458 88.8084 100.805C89.0905 100.153 89.5031 99.5648 90.021 99.0776C93.2394 96.027 98.721 98.5182 98.6263 102.873ZM98.6263 102.873C98.6263 98.7549 93.4846 96.8187 90.7911 99.8607C88.2741 102.524 90.1242 107.175 93.803 107.377C94.419 107.415 95.0363 107.328 95.6171 107.119C96.1979 106.91 96.7301 106.585 97.1811 106.164C97.6322 105.743 97.9926 105.234 98.2403 104.669C98.488 104.104 98.6179 103.494 98.622 102.877L98.6263 102.873Z" fill="#DBDBDB"/>
<path d="M74.4367 93.7896C73.7697 95.7215 73.0598 105.131 73.4169 106.375C73.7153 107.08 74.1298 107.73 74.6432 108.298C70.7449 107.24 66.8984 105.94 65.6377 104.955C63.4476 103.273 65.1299 91.4059 67.2813 89.0351C70.0393 85.9759 73.546 83.0113 76.3169 83.2824C77.2979 83.3728 79.1266 84.0999 81.364 85.1885C81.3769 85.1799 75.095 91.8577 74.4367 93.7896Z" fill="#BBB360"/>
<path opacity="0.2" d="M74.4367 93.7896C73.7697 95.7215 73.0598 105.131 73.4169 106.371C73.7141 107.078 74.1287 107.729 74.6432 108.298C70.7449 107.24 66.8984 105.94 65.6377 104.955C63.4476 103.273 65.1299 91.4059 67.2813 89.0351C70.0393 85.9759 73.546 83.0114 76.3169 83.2781C77.2979 83.3728 79.1266 84.0999 81.364 85.1885C81.3769 85.1799 75.095 91.8577 74.4367 93.7896Z" fill="black"/>
<path d="M246.371 83.2695C242.021 83.6739 221.347 96.5132 220.473 97.5673C219.6 98.6215 217.509 109.24 218.812 110.282C220.116 111.323 235.739 110.789 240.442 110.032C245.145 109.275 254.878 106.642 257.068 104.955C259.258 103.268 257.575 91.4016 255.424 89.0351C252.662 85.9716 249.164 83.0113 246.371 83.2695Z" fill="white"/>
<path d="M246.372 83.2695C245.255 83.5036 244.17 83.8705 243.14 84.3624C240.031 85.7955 237.001 87.3971 234.066 89.1599C229.669 91.7888 225.28 94.4694 221.158 97.4727C220.969 97.6491 220.754 97.7653 220.685 97.9632C220.212 99.2755 219.865 100.63 219.648 102.008C219.248 104.482 218.766 107.016 219.063 109.451C219.097 109.688 219.218 109.882 219.205 109.839C219.397 109.914 219.598 109.965 219.803 109.989C223.43 110.419 227.117 110.217 230.792 110.123C235.318 109.955 239.858 109.765 244.276 108.698C248.381 107.726 252.598 106.831 256.419 104.994C257.193 104.628 257.443 103.991 257.623 103.148C257.902 101.482 257.957 99.7859 257.787 98.1052C257.63 95.8357 257.217 93.5913 256.556 91.4145C256.257 90.3168 255.684 89.313 254.891 88.4973C252.598 86.1695 249.909 83.2695 246.398 83.2695H246.372ZM246.372 83.2695C250.063 83.2222 253.123 86.6041 255.532 89.0566C257.301 91.677 257.731 94.9987 258.161 98.0665C258.307 100.343 258.759 102.933 257.49 104.989C257.036 105.405 256.517 105.744 255.954 105.992C251.221 108.122 246.187 109.464 241.123 110.51C235.434 111.413 229.677 111.495 223.912 111.456C222.453 111.449 220.996 111.337 219.553 111.121C219.192 111.071 218.843 110.954 218.525 110.777C218.356 110.641 218.216 110.473 218.113 110.282C218.01 110.092 217.947 109.882 217.927 109.666C217.621 107.007 218.254 104.409 218.749 101.831C218.99 100.699 219.291 99.5799 219.652 98.4795C219.792 97.846 220.165 97.2884 220.698 96.9176C224.97 94.0305 229.471 91.5178 233.959 89.005C236.97 87.3614 239.982 85.7092 243.11 84.3409C244.144 83.8527 245.233 83.4929 246.355 83.2695H246.372Z" fill="#DBDBDB"/>
<path d="M235.645 99.1033C235.61 103.961 241.75 106.323 244.952 102.731C245.857 101.741 246.36 100.447 246.36 99.1055C246.36 97.7637 245.857 96.4704 244.952 95.4805C241.75 91.8964 235.619 94.2499 235.649 99.1033H235.645ZM235.645 99.1033C235.589 93.9401 241.923 91.1305 245.726 94.7017C248.243 96.9391 248.243 101.259 245.726 103.509C241.918 107.072 235.589 104.254 235.645 99.1033Z" fill="#DBDBDB"/>
<path d="M224.079 102.873C224.083 103.49 224.212 104.101 224.46 104.667C224.708 105.232 225.069 105.742 225.52 106.163C225.972 106.584 226.505 106.909 227.086 107.117C227.668 107.325 228.286 107.412 228.903 107.373C234.436 106.827 234.436 98.9227 228.903 98.3762C226.411 98.1138 224.028 100.338 224.088 102.873H224.079ZM224.079 102.873C223.993 98.5182 229.47 96.027 232.685 99.0776C233.202 99.5648 233.615 100.153 233.897 100.805C234.179 101.458 234.325 102.162 234.325 102.873C234.325 103.584 234.179 104.287 233.897 104.94C233.615 105.592 233.202 106.18 232.685 106.668C229.466 109.714 223.989 107.227 224.079 102.873Z" fill="#DBDBDB"/>
<path d="M248.265 93.7896C248.932 95.7215 249.641 105.131 249.289 106.375C248.99 107.081 248.574 107.731 248.058 108.298C251.961 107.24 255.803 105.94 257.064 104.955C259.254 103.273 257.571 91.4059 255.42 89.0351C252.662 85.9759 249.16 83.0113 246.384 83.2824C245.399 83.3728 243.57 84.0999 241.333 85.1885C241.324 85.1799 247.611 91.8577 248.265 93.7896Z" fill="#BBB360"/>
<path opacity="0.2" d="M248.265 93.7896C248.932 95.7215 249.641 105.131 249.289 106.371C248.991 107.079 248.575 107.731 248.058 108.298C251.961 107.24 255.803 105.94 257.064 104.955C259.254 103.273 257.571 91.4059 255.42 89.0351C252.662 85.9759 249.16 83.0114 246.384 83.2781C245.399 83.3728 243.57 84.0999 241.333 85.1885C241.324 85.1799 247.611 91.8577 248.265 93.7896Z" fill="black"/>
<path d="M216.489 96.212C216.597 96.681 211.326 107.98 210.388 109.365C209.45 110.751 204.872 113.13 203.809 113.341C202.747 113.552 186.409 116.865 161.35 116.865C136.292 116.865 119.954 113.552 118.887 113.341C117.82 113.13 113.268 110.759 112.313 109.365C111.358 107.971 106.104 96.6896 106.212 96.212C106.319 95.7344 122.024 98.7936 131.52 99.1722C136.193 99.3572 150.835 100.166 161.35 100.166C171.866 100.166 186.513 99.3572 191.181 99.1722C200.681 98.8022 216.386 95.7387 216.489 96.212Z" fill="#263238"/>
<path d="M116.546 97.5501C118.698 97.8556 120.974 98.174 123.246 98.4451H107.068C106.921 98.1181 106.792 97.8169 106.685 97.5501H116.546ZM206.154 97.5501C204.003 97.8556 201.727 98.174 199.455 98.4451H215.633C215.779 98.1181 215.908 97.8169 216.016 97.5501H206.154ZM171.109 100.003C167.74 100.097 164.375 100.166 161.35 100.166C158.325 100.166 154.961 100.097 151.592 100.003H107.752L108.152 100.889H214.549C214.691 100.584 214.824 100.287 214.953 100.003H171.109ZM108.857 102.447C108.995 102.748 109.133 103.04 109.288 103.333H213.413C213.55 103.04 213.692 102.748 213.843 102.447H108.857ZM110.006 104.89C110.157 105.196 110.303 105.497 110.437 105.785H212.251L212.681 104.89H110.006ZM111.202 107.334C111.366 107.661 111.529 107.958 111.663 108.229H211.033C211.167 107.958 211.326 107.661 211.494 107.334H111.202ZM112.665 109.778C113.009 110.105 113.377 110.404 113.767 110.673H208.925C209.317 110.405 209.687 110.106 210.031 109.778H112.665ZM116.357 112.231C116.961 112.558 117.581 112.854 118.216 113.117H204.472C205.108 112.855 205.73 112.559 206.335 112.231H116.357ZM127.114 114.675C129.265 114.967 131.774 115.273 134.652 115.561H188.027C190.905 115.273 193.427 114.967 195.565 114.675H127.114Z" fill="#37474F"/>
<path d="M182.27 124.61H140.431V135.788H182.27V124.61Z" fill="white"/>
<path d="M203.732 25.6609C203.732 25.6609 199.571 22.1413 195.234 24.3701C190.897 26.5988 191.009 36.6241 190.734 39.5843C190.458 42.5446 188.092 43.6246 191.263 45.8577C194.434 48.0907 198.522 48.4005 202.562 47.7551C206.602 47.1097 209.446 44.9756 209.803 43.0996C210.031 41.9508 209.02 40.9999 208.629 39.1842C208.396 38.1128 209.3 25.5791 203.732 25.6609Z" fill="#263238"/>
<path d="M209.725 40.845C209.523 39.6102 209.046 38.4743 208.904 37.2136C208.762 35.9529 208.787 34.7395 208.744 33.5047C208.628 30.3379 207.725 25.5361 203.646 25.7598C203.632 25.7635 203.62 25.7716 203.611 25.7829C203.602 25.7941 203.598 25.808 203.598 25.8222C203.598 25.8365 203.602 25.8503 203.611 25.8616C203.62 25.8729 203.632 25.881 203.646 25.8846C208.25 25.9664 208.465 31.4781 208.564 34.9202C208.566 36.4741 208.767 38.0212 209.162 39.5241C209.773 41.6755 209.747 43.5815 208.207 45.3241C208.203 45.3324 208.201 45.3417 208.203 45.3508C208.205 45.3598 208.209 45.368 208.216 45.3743C208.223 45.3806 208.231 45.3845 208.24 45.3855C208.25 45.3866 208.259 45.3846 208.267 45.3801C208.848 44.791 209.282 44.0737 209.536 43.2861C209.789 42.4985 209.854 41.6624 209.725 40.845Z" fill="#263238"/>
<path d="M202.927 25.6393C200.655 24.1764 198.026 23.019 195.341 24.1721C193.014 25.1661 191.701 27.5368 191.168 29.8689C190.428 33.1217 190.979 36.5294 190.118 39.7651C189.813 40.9053 188.913 42.1659 189.111 43.4008C189.283 44.498 190.187 44.7734 191.181 44.9068C191.232 44.9068 191.254 44.8379 191.181 44.8293C188.767 44.399 189.288 42.7339 189.89 41.1075C190.309 39.9744 190.585 38.7935 190.712 37.5922C190.983 35.187 190.824 32.7474 191.275 30.3637C191.706 28.0445 192.786 25.6695 194.997 24.4948C197.764 23.0233 200.436 24.2539 202.875 25.6781C202.881 25.6849 202.888 25.6894 202.897 25.6907C202.905 25.6919 202.914 25.6897 202.921 25.6845C202.927 25.6794 202.932 25.6717 202.933 25.6633C202.934 25.6548 202.932 25.6462 202.927 25.6393Z" fill="#263238"/>
<path d="M220.693 62.0314L218.779 62.0874L216.468 62.1519L213.856 62.2207L212.596 62.2509H211.821H211.653H211.128L209.308 62.2939C209.021 61.7202 208.735 61.1465 208.448 60.5728L208.314 60.2974L208.284 60.2415C207.884 59.4111 207.475 58.5549 207.067 57.6599C207.041 57.5997 207.015 57.5437 206.985 57.4835L206.89 57.2856C206.563 56.5799 206.228 55.8657 205.896 55.1342L205.552 54.3899C205.122 53.4175 204.657 52.4278 204.205 51.4296L203.99 50.9434C203.878 50.6853 203.775 50.4357 203.676 50.1948C203.36 49.4521 203.096 48.6888 202.884 47.91C202.833 47.7207 202.79 47.5443 202.76 47.3765C202.566 46.4385 202.622 45.8275 202.859 45.4833L202.906 45.4188C202.939 45.3811 202.975 45.3465 203.013 45.3155L203.069 45.2725C203.198 45.1876 203.346 45.1385 203.5 45.1305C204.154 45.066 205.113 45.4962 206.163 46.1976C207.823 47.3664 209.374 48.6826 210.797 50.1302C211.529 50.8445 212.264 51.6103 213 52.4106C213.736 53.2109 214.407 53.9596 215.1 54.7599L215.194 54.8718C215.827 55.6118 216.451 56.3648 217.057 57.1178L217.148 57.2296C217.711 57.931 218.254 58.6323 218.774 59.3207C219.458 60.2802 220.108 61.1795 220.693 62.0314Z" fill="#BBB360"/>
<path opacity="0.1" d="M218.779 62.0874L216.468 62.1519L213.856 62.2208L212.596 62.2509H211.821H211.653H211.128L209.308 62.2939C209.021 61.7202 208.735 61.1465 208.448 60.5728L208.314 60.2975L208.289 60.2415C207.888 59.4111 207.48 58.5549 207.071 57.6599C207.045 57.5997 207.019 57.5437 206.989 57.4835L206.895 57.2856C206.568 56.5799 206.232 55.8657 205.901 55.1342L205.556 54.3899C205.126 53.4175 204.661 52.4279 204.21 51.4296L203.994 50.9434C203.883 50.6853 203.779 50.4357 203.68 50.1948C203.374 49.4526 203.119 48.6908 202.915 47.9143C202.861 47.7216 202.818 47.5263 202.785 47.3292C202.618 46.4686 202.648 45.8318 202.863 45.479L202.91 45.4145C202.937 45.3723 202.971 45.3346 203.009 45.3026L203.069 45.3671L206.563 49.0761L208.043 50.6422L208.474 51.0725L211.382 54.1575L211.632 54.4243L212.923 55.7882L213.525 56.425L213.792 56.709L215.655 58.6883L215.9 58.9464L217.694 60.8482L218.779 62.0874Z" fill="black"/>
<path d="M197.597 47.91C197.575 48.0047 197.545 48.0993 197.515 48.2026C197.231 49.1545 196.884 50.086 196.474 50.9907L196.259 51.4769L196.228 51.5458L195.015 54.2134C194.641 55.0224 194.275 55.8227 193.905 56.61L193.849 56.7391C193.419 57.7029 192.954 58.6452 192.515 59.566C192.459 59.6779 192.408 59.7897 192.356 59.9016C192.304 60.0135 192.291 60.0307 192.261 60.0952C192.231 60.1598 192.197 60.2243 192.167 60.2888C191.792 61.059 191.422 61.812 191.052 62.5391L190.992 62.6596H190.562H190.484L187.924 62.6983H187.825L184.202 62.75H183.875L181.853 62.7715H181.023H179.25C182.946 57.2081 189.723 49.2568 194.344 46.1717C195.398 45.4661 196.357 45.0358 197.007 45.1047C197.178 45.1163 197.34 45.181 197.472 45.2897L197.511 45.3155L197.575 45.3886L197.622 45.4532C197.881 45.9179 197.924 46.6838 197.597 47.91Z" fill="#BBB360"/>
<path opacity="0.1" d="M197.583 47.867L197.493 48.2026C197.218 49.1531 196.877 50.0833 196.473 50.9864L196.258 51.4726L196.228 51.5415L195.014 54.2091C194.64 55.018 194.274 55.8183 193.904 56.6057L193.848 56.7348C193.418 57.6986 192.953 58.6409 192.515 59.5617C192.459 59.6735 192.407 59.7854 192.355 59.8973L192.265 60.0909C192.231 60.1554 192.2 60.22 192.17 60.2845C191.796 61.0547 191.426 61.8077 191.056 62.5348L190.996 62.6553H190.565H190.488L187.928 62.694H187.829L184.206 62.7457H183.879L181.857 62.7672H181.026L182.657 61.0461L184.357 59.239L184.395 59.2002L186.435 57.0489L186.517 56.9586L190.411 52.8323L190.819 52.402L191.749 51.4167L192.437 50.6852L197.105 45.7329L197.402 45.4188L197.463 45.3542C197.463 45.3542 197.488 45.3542 197.493 45.3886L197.557 45.4618L197.605 45.5263C197.858 45.9437 197.858 46.7354 197.583 47.867Z" fill="black"/>
<path d="M212.596 62.2681H211.821H211.654H211.129L209.309 62.3111H208.272C204.055 62.4101 199.563 62.5048 194.852 62.5865L191.47 62.6984H190.971H190.54H190.463L187.903 62.7371C187.871 62.4255 187.864 62.1119 187.881 61.7991C187.881 61.6485 187.903 61.4936 187.924 61.3301C188.036 60.4749 188.253 59.6367 188.57 58.8346L188.643 58.6409C188.686 58.5334 188.733 58.4086 188.789 58.2752C189.082 57.5438 189.538 56.4595 190.114 55.2203C190.725 53.8908 191.474 52.3805 192.3 50.9176L192.438 50.681C193.707 48.4823 195.148 46.4514 196.555 45.4489C196.697 45.3457 196.844 45.251 196.986 45.1649C197.78 44.6549 198.678 44.3272 199.615 44.2054C199.819 44.1806 200.024 44.1662 200.23 44.1624C201.213 44.1829 202.177 44.4397 203.04 44.9111C203.19 44.9928 203.341 45.0789 203.491 45.1735C203.642 45.2682 203.78 45.3543 203.922 45.4575C205.079 46.2836 206.262 47.8068 207.364 49.5494C207.6 49.9237 207.828 50.3109 208.056 50.6982C208.319 51.1543 208.573 51.619 208.818 52.0837C208.921 52.2687 209.016 52.4537 209.111 52.6387C209.541 53.4992 209.971 54.3383 210.328 55.1213C210.33 55.1342 210.33 55.1472 210.328 55.1601L210.505 55.543C210.978 56.58 211.365 57.4921 211.628 58.1504C211.688 58.2967 211.744 58.4301 211.791 58.5506L211.899 58.8346C212.235 59.6838 212.457 60.5734 212.561 61.4807C212.561 61.5983 212.57 61.7102 212.587 61.8163C212.6 61.9669 212.6 62.1132 212.596 62.2681Z" fill="#BBB360"/>
<path d="M203.117 46.5332C202.971 47.071 201.959 49.7258 199.447 49.7258C197.497 49.7258 197.11 45.8232 197.11 45.8232L196.168 40.8665L202.484 37.1533C202.484 37.1533 203.177 46.3008 203.117 46.5332Z" fill="#F7A9A0"/>
<path d="M202.721 40.3674C202.181 41.5703 201.399 42.6494 200.424 43.5375C199.449 44.4257 198.302 45.1041 197.054 45.5306L196.168 40.8493L202.484 37.1361C202.484 37.1361 202.592 38.6033 202.721 40.3674Z" fill="#263238"/>
<path d="M190.717 32.9496C189.056 41.0429 193.728 42.949 195.471 43.3019C197.059 43.6246 202.506 44.5195 204.997 36.6413C207.488 28.7631 204.24 25.4543 200.647 24.5077C197.054 23.5611 192.373 24.8563 190.717 32.9496Z" fill="#F7A9A0"/>
<path d="M192.708 32.1493C192.9 32.1466 193.091 32.1307 193.281 32.102C193.485 32.1152 193.688 32.0591 193.857 31.9428C193.903 31.8965 193.932 31.8363 193.94 31.7716C193.948 31.7069 193.934 31.6415 193.9 31.5857C193.817 31.4846 193.709 31.4075 193.587 31.3621C193.464 31.3167 193.332 31.3048 193.203 31.3275C192.936 31.3322 192.679 31.4366 192.485 31.6201C192.443 31.6644 192.415 31.7199 192.404 31.7798C192.394 31.8398 192.401 31.9015 192.424 31.9576C192.448 32.0136 192.487 32.0616 192.538 32.0956C192.588 32.1297 192.648 32.1483 192.708 32.1493Z" fill="#263238"/>
<path d="M198.354 33.1389C198.168 33.0868 197.986 33.0236 197.808 32.9496C197.608 32.9102 197.426 32.8059 197.291 32.6527C197.258 32.5964 197.245 32.5307 197.254 32.466C197.262 32.4013 197.292 32.3413 197.339 32.2956C197.444 32.2181 197.568 32.17 197.698 32.1564C197.828 32.1428 197.96 32.1641 198.079 32.2181C198.336 32.2898 198.558 32.4537 198.703 32.6785C198.731 32.7321 198.744 32.7927 198.739 32.8532C198.734 32.9137 198.712 32.9715 198.675 33.0199C198.639 33.0682 198.589 33.1051 198.532 33.1262C198.475 33.1473 198.413 33.1517 198.354 33.1389Z" fill="#263238"/>
<path d="M196.903 34.7955C196.903 34.7955 196.942 34.8299 196.938 34.8514C196.834 35.4108 196.813 36.0648 197.291 36.3229C197.291 36.3229 197.291 36.3617 197.291 36.353C196.675 36.1766 196.718 35.3075 196.903 34.7955Z" fill="#263238"/>
<path d="M197.493 34.3007C198.406 34.3695 198.203 36.1809 197.36 36.1207C196.517 36.0605 196.727 34.2318 197.493 34.3007Z" fill="#263238"/>
<path d="M197.837 34.4254C197.984 34.5459 198.117 34.7438 198.306 34.7825C198.496 34.8213 198.715 34.6578 198.879 34.49C198.879 34.49 198.913 34.49 198.909 34.5158C198.874 34.8643 198.702 35.2042 198.324 35.2128C197.945 35.2214 197.769 34.8901 197.721 34.533C197.708 34.4641 197.777 34.3738 197.837 34.4254Z" fill="#263238"/>
<path d="M193.69 34.2533C193.69 34.2533 193.643 34.2791 193.643 34.3007C193.6 34.8643 193.462 35.5054 192.933 35.6388V35.6689C193.565 35.6474 193.742 34.7955 193.69 34.2533Z" fill="#263238"/>
<path d="M193.247 33.6165C192.347 33.4573 192.089 35.2601 192.924 35.4107C193.759 35.5613 194 33.7542 193.247 33.6165Z" fill="#263238"/>
<path d="M192.855 33.681C192.696 33.7585 192.532 33.9134 192.36 33.8962C192.188 33.879 192.042 33.6681 191.93 33.4659C191.93 33.4659 191.904 33.4659 191.9 33.4659C191.844 33.8101 191.9 34.1845 192.227 34.2963C192.554 34.4082 192.786 34.1371 192.92 33.8058C192.95 33.7542 192.915 33.6509 192.855 33.681Z" fill="#263238"/>
<path d="M196.112 39.296C195.97 39.4208 195.823 39.5929 195.617 39.5972C195.408 39.576 195.205 39.5146 195.019 39.4165C195.019 39.4165 194.98 39.4165 194.993 39.4423C195.067 39.558 195.171 39.6516 195.293 39.7137C195.416 39.7757 195.553 39.8039 195.69 39.7952C195.807 39.7725 195.914 39.7159 195.999 39.6325C196.084 39.5491 196.143 39.4426 196.168 39.3262C196.176 39.2917 196.133 39.2788 196.112 39.296Z" fill="#263238"/>
<path d="M194.012 36.9812C194.012 36.9812 193.797 37.803 193.745 38.1988C193.745 38.2376 193.836 38.2677 193.969 38.2892C194.301 38.392 194.654 38.4018 194.991 38.3176C195.328 38.2334 195.635 38.0584 195.879 37.8116C195.914 37.7772 195.879 37.7299 195.828 37.7471C195.281 38.0301 194.658 38.1297 194.051 38.031C194.051 37.9149 194.481 36.6327 194.412 36.6198C194.101 36.6111 193.79 36.6429 193.487 36.7144C193.892 34.9933 194.571 33.3368 194.95 31.6071C194.955 31.594 194.954 31.5796 194.948 31.5671C194.942 31.5546 194.931 31.545 194.918 31.5404C194.905 31.5359 194.89 31.5367 194.878 31.5428C194.865 31.5488 194.856 31.5596 194.851 31.5727C194.067 33.3177 193.461 35.1368 193.04 37.0027C192.997 37.2264 193.849 37.0285 194.012 36.9812Z" fill="#263238"/>
<path d="M194.24 38.1731C194.402 38.4751 194.639 38.73 194.929 38.9131C195.09 39.0057 195.276 39.0476 195.462 39.0336C195.867 38.9949 195.935 38.6378 195.914 38.3194C195.901 38.1511 195.867 37.985 195.815 37.8246C195.341 38.1059 194.789 38.2281 194.24 38.1731Z" fill="#263238"/>
<path d="M194.911 38.9303C195.073 39.0228 195.259 39.0648 195.445 39.0508C195.849 39.0121 195.918 38.6549 195.896 38.3365C195.689 38.3105 195.48 38.3549 195.301 38.4626C195.122 38.5704 194.985 38.7351 194.911 38.9303Z" fill="#FF9CBD"/>
<path d="M204.447 37.0845C202.936 37.2092 202.726 33.7542 202.726 33.7542C202.726 33.7542 196.388 32.3816 196.082 27.1539C194.923 29.1613 193.145 30.7389 191.014 31.6502C191.014 31.6502 192.162 25.2564 196.732 24.3356C196.732 24.3356 201.792 22.8039 204.989 27.3475C208.25 32.0331 205.458 37.007 204.447 37.0845Z" fill="#263238"/>
<path d="M196.064 26.7666C195.953 27.5661 196.013 28.3802 196.241 29.1546C196.457 29.941 196.835 30.6736 197.351 31.306C197.478 31.4572 197.615 31.6009 197.759 31.7362L197.975 31.9557C198.048 32.0245 198.129 32.0847 198.207 32.1493C198.37 32.2741 198.525 32.4075 198.689 32.5236L199.209 32.8377C199.295 32.885 199.382 32.941 199.472 32.9883L199.747 33.1088L200.298 33.3497C200.681 33.4745 201.068 33.5821 201.451 33.681C201.09 33.5046 200.72 33.3669 200.371 33.1862L199.851 32.9066L199.597 32.7646C199.511 32.7129 199.433 32.6527 199.356 32.6011C199.197 32.4849 199.037 32.373 198.874 32.2698C198.71 32.1665 198.581 32.0159 198.444 31.8911L198.224 31.7018L198.026 31.491C197.89 31.3557 197.762 31.212 197.643 31.0607C197.157 30.4594 196.776 29.78 196.516 29.0514C196.384 28.6831 196.281 28.3046 196.21 27.9198C196.128 27.5404 196.079 27.1545 196.064 26.7666Z" fill="#263238"/>
<path d="M203.293 36.4133C203.293 36.4133 205.384 34.0554 206.473 34.8299C207.561 35.6044 205.784 39.1584 204.36 39.5112C204.18 39.5691 203.991 39.59 203.803 39.5727C203.615 39.5554 203.433 39.5003 203.267 39.4107C203.101 39.321 202.955 39.1987 202.837 39.0511C202.72 38.9035 202.633 38.7336 202.583 38.5517L203.293 36.4133Z" fill="#F7A9A0"/>
<path d="M205.939 35.8367C205.961 35.8367 205.961 35.8711 205.939 35.8754C204.932 36.1508 204.326 36.9812 203.865 37.859C203.932 37.7694 204.018 37.6953 204.116 37.6419C204.215 37.5885 204.323 37.5571 204.435 37.5497C204.546 37.5424 204.658 37.5593 204.763 37.5993C204.867 37.6393 204.962 37.7015 205.04 37.7815C205.062 37.7815 205.04 37.8375 205.006 37.8289C204.844 37.7564 204.663 37.7357 204.489 37.7696C204.315 37.8034 204.156 37.8903 204.033 38.0182C203.827 38.2346 203.646 38.4726 203.491 38.7281C203.439 38.8099 203.289 38.7281 203.332 38.6507C203.332 38.6507 203.332 38.6507 203.332 38.6292C203.465 37.4072 204.614 35.8066 205.939 35.8367Z" fill="#263238"/>
<path d="M228.644 34.1974L226.751 30.4283C226.751 30.4283 210.616 49.6268 204.256 54.6524C201.494 56.8295 192.803 62.6984 192.803 62.6984L199.115 62.6295C199.115 62.6295 205.031 59.4369 207.337 57.5782C213.06 52.9442 228.644 34.1974 228.644 34.1974Z" fill="#263238"/>
<path d="M213.908 60.3878C213.867 59.3074 213.69 58.2363 213.383 57.1995C213.336 57.0489 213.293 56.8983 213.241 56.7693C213.141 56.4824 213.029 56.1855 212.906 55.8786C212.649 55.2606 212.344 54.6635 211.994 54.093L211.813 53.8047C210.798 52.2532 209.466 50.9336 207.906 49.9323C207.725 49.8118 207.54 49.6956 207.351 49.5881C207.093 49.4375 206.83 49.2998 206.564 49.1578C205.41 48.5875 204.177 48.1931 202.906 47.9875H202.88C202.751 47.966 202.618 47.9444 202.48 47.9315C201.92 47.8572 201.355 47.8198 200.789 47.8197C199.747 47.8195 198.709 47.9437 197.696 48.1897L197.515 48.2327H197.494C195.575 48.7339 193.795 49.6636 192.287 50.952C192.098 51.1112 191.917 51.2747 191.737 51.4468C191.414 51.7609 191.104 52.0879 190.807 52.4321C190.661 52.6043 190.519 52.7764 190.377 52.9571C189.255 54.4154 188.455 56.0943 188.028 57.8836L187.95 58.2451C187.767 59.1253 187.674 60.0222 187.675 60.9213C187.675 61.0203 187.675 61.115 187.675 61.2139C187.675 61.3817 187.675 61.5452 187.696 61.713C187.696 62.0573 187.748 62.4015 187.795 62.7371H187.894L190.454 62.6983H190.532C190.532 62.5951 190.497 62.4918 190.484 62.3886C190.411 61.9029 190.376 61.4124 190.377 60.9213C190.376 60.4361 190.411 59.9515 190.48 59.4713C190.48 59.325 190.523 59.1788 190.549 59.0411C190.749 57.9631 191.118 56.9235 191.642 55.9603C191.767 55.7366 191.896 55.5301 192.033 55.3063C192.513 54.5432 193.092 53.8472 193.754 53.2367C194.491 52.5629 195.319 51.9978 196.216 51.5587C198.063 50.6536 200.138 50.3181 202.177 50.5946C204.215 50.8712 206.126 51.7474 207.665 53.112C207.798 53.2281 207.928 53.3443 208.052 53.4691C208.698 54.0983 209.259 54.8084 209.722 55.5817V55.6161C209.795 55.7409 209.864 55.8657 209.933 55.9905C210.387 56.834 210.723 57.736 210.931 58.671L211.008 59.054C211.119 59.6703 211.175 60.2952 211.176 60.9213C211.177 61.3789 211.146 61.836 211.086 62.2896H211.611H211.778H212.553L213.814 62.2595C213.857 61.8305 213.878 61.3997 213.878 60.9687C213.921 60.7363 213.917 60.547 213.908 60.3878Z" fill="#263238"/>
<path d="M201.065 62.4617L191.225 54.6566L192.903 52.5397L201.065 59.0109L209.223 52.5397L210.905 54.6566L201.065 62.4617Z" fill="#263238"/>
<path d="M218.766 59.3638C218.457 59.9172 218.092 60.4376 217.678 60.917C217.306 61.358 216.901 61.7707 216.468 62.1519L213.857 62.2207L212.596 62.2509H211.822C211.841 62.2233 211.863 62.1974 211.886 62.1734L211.959 62.096L211.834 62.1648L211.654 62.2595H211.129L209.309 62.3025H208.272C207.803 61.7388 208.091 61.0504 208.448 60.5427C208.592 60.332 208.756 60.136 208.939 59.9575L209.046 59.85L208.9 59.9317C208.701 60.0353 208.497 60.1286 208.289 60.2114C207.519 60.5083 206.349 60.775 205.639 60.035C205.506 59.9133 205.406 59.7611 205.346 59.5916C205.286 59.4221 205.268 59.2404 205.294 59.0626C205.406 58.3828 206.155 57.8062 206.426 57.5997L206.542 57.5179L206.297 57.5652C205.746 57.6556 204.421 57.7632 203.909 56.9026C203.883 56.8553 203.857 56.8166 203.836 56.7692C203.479 55.9388 204.399 55.1471 205.557 54.3899C206.258 53.9295 207.046 53.4863 207.687 53.0517C208.123 52.7874 208.506 52.4429 208.814 52.0363C208.83 52.0143 208.844 51.9913 208.857 51.9674L209.033 50.9434L207.915 49.8462L207.36 49.502C207.867 49.8505 208.53 49.7989 209.786 49.9753C210.161 50.0269 210.496 50.07 210.798 50.1259C211.352 50.1878 211.886 50.373 212.359 50.668C212.635 50.8498 212.846 51.1143 212.962 51.4236C213.078 51.7328 213.093 52.0708 213.005 52.3891C213.099 52.3547 214.429 51.8728 215.29 52.7161C215.746 53.1679 215.432 54.2952 215.432 54.2952H215.462H215.492C215.807 54.201 216.143 54.1937 216.462 54.2739C216.782 54.3542 217.074 54.5191 217.307 54.7513C217.901 55.4096 217.493 56.4379 217.493 56.4379C217.493 56.4379 218.762 56.567 219.153 57.4362C219.351 57.9138 219.179 58.5979 218.766 59.3638Z" fill="#F7A9A0"/>
<path d="M215.462 54.3382C215.462 54.3382 215.518 54.3382 215.5 54.3726C214.09 56.9614 211.801 58.9606 209.046 60.0092C208.952 60.0436 208.827 59.9747 208.939 59.9274C210.767 59.1314 213.977 56.3002 215.462 54.3382Z" fill="#263238"/>
<path d="M206.309 57.5696C208.999 56.5197 211.077 54.7169 212.944 52.5526C212.97 52.5268 213.009 52.5526 212.996 52.5914C212.368 53.8822 211.034 55.173 209.911 56.0335C208.886 56.8774 207.657 57.4382 206.348 57.6599C206.297 57.6728 206.254 57.5911 206.309 57.5696Z" fill="#263238"/>
<path d="M196.202 58.5721C195.935 59.5273 194.653 59.7854 194.094 59.8629L193.84 59.8844L193.986 59.9317C194.498 60.1167 196.064 60.7923 195.397 62.0572C195.276 62.2915 195.093 62.488 194.868 62.6252L191.469 62.6983H190.97H190.54H190.462L187.902 62.7371H187.803L184.18 62.7887H183.853L181.831 62.8102C182.113 62.3826 182.516 62.0486 182.988 61.8507C182.822 61.6219 182.701 61.3634 182.631 61.0891C182.551 60.7853 182.578 60.4628 182.709 60.177C182.867 59.8881 183.102 59.6483 183.387 59.4836C183.672 59.319 183.997 59.2359 184.327 59.2433H184.395C184.314 59.1056 183.819 58.215 184.107 57.7029C184.722 56.6187 186.22 56.7606 186.22 56.7606C186.042 56.4787 185.959 56.1467 185.985 55.8142C186.01 55.4816 186.143 55.1662 186.362 54.9148C186.826 54.3339 187.558 54.0241 188.642 53.5422C189.8 53.0259 190.63 52.6817 191.022 52.217L190.411 52.8624L189.929 53.9897L190.084 55.1988L190.122 55.2332C190.577 55.5797 191.099 55.8287 191.654 55.9646C192.252 56.154 192.945 56.3261 193.577 56.5197L193.926 56.623C195.294 57.0403 196.443 57.5782 196.202 58.5721Z" fill="#F7A9A0"/>
<path d="M184.155 62.7887H183.828C183.544 62.5478 183.277 62.2939 183.023 62.0314L183.049 62.0056C183.432 62.2681 183.798 62.5435 184.155 62.7887Z" fill="#263238"/>
<path d="M191.039 62.5693L191.469 62.6854H190.97H190.54H190.462C189.57 62.487 188.703 62.1852 187.881 61.7862L187.704 61.7001C186.456 61.0792 185.316 60.2596 184.331 59.2734C184.327 59.2687 184.324 59.2625 184.324 59.2562C184.324 59.2498 184.327 59.2437 184.331 59.239H184.361C185.405 59.9909 186.514 60.6489 187.674 61.2053L187.915 61.3215C188.754 61.7235 189.616 62.0769 190.497 62.3799C190.669 62.4574 190.854 62.5176 191.039 62.5693Z" fill="#263238"/>
<path d="M194.051 59.8285C191.181 59.5574 188.685 58.3957 186.306 56.8166C186.276 56.7951 186.25 56.8424 186.272 56.8639C187.231 57.9482 188.853 58.7872 190.183 59.3293C191.4 59.8604 192.735 60.0622 194.055 59.9145C194.072 59.9231 194.09 59.8371 194.051 59.8285Z" fill="#263238"/>
<path d="M119.305 51.5545C127.949 57.3244 137.294 63.1416 141.068 61.8809C144.243 60.8268 149.29 58.4388 156.872 53.3659C158.274 52.4322 149.738 43.1298 148.735 43.7709C146.119 45.4447 137.897 50.2551 137.329 50.126C136.58 49.9625 127.501 47.411 121.409 45.9696C113.161 44.0377 114.834 48.5727 119.305 51.5545Z" fill="#EB9481"/>
<path d="M155.108 54.5234C156.545 54.2136 163.489 52.372 165.167 51.3996C166.845 50.4272 171.462 47.325 170.855 45.9696C170.249 44.6143 168.824 45.4146 168.824 45.4146C168.824 45.4146 170.567 43.7925 169.836 42.4801C169.104 41.1678 166.923 42.4801 166.923 42.4801C166.923 42.4801 168.592 40.6859 167.783 39.4295C166.974 38.1732 164.995 39.8598 164.995 39.8598C164.995 39.8598 166.596 38.2893 165.481 37.5407C164.139 36.6414 161.514 39.8727 159.582 40.7935C159.152 41.0043 150.4 44.4034 150.4 44.4034L155.108 54.5234Z" fill="#EB9481"/>
<path d="M165.146 39.7479C163.21 42.123 161.953 42.8243 159.092 43.7838C159.082 43.7884 159.074 43.7963 159.069 43.8061C159.064 43.816 159.063 43.8272 159.066 43.8379C159.068 43.8485 159.074 43.858 159.083 43.8646C159.092 43.8712 159.103 43.8746 159.114 43.8742C161.996 43.1901 163.705 42.5361 165.266 39.8383C165.344 39.7049 165.223 39.6361 165.146 39.7479Z" fill="#263238"/>
<path d="M167.073 42.3123C164.848 44.6013 163.489 45.3758 160.567 46.615C160.528 46.615 160.567 46.7054 160.597 46.6924C163.562 45.7329 165.248 45.0402 167.172 42.4586C167.258 42.3252 167.176 42.209 167.073 42.3123Z" fill="#263238"/>
<path d="M168.665 45.4877C166.35 47.5487 164.9 48.4609 161.91 49.287C161.895 49.2904 161.882 49.2996 161.874 49.3125C161.866 49.3254 161.863 49.341 161.867 49.3558C161.87 49.3707 161.879 49.3835 161.892 49.3916C161.905 49.3997 161.921 49.4023 161.936 49.3988C165.064 48.8567 166.884 47.7294 168.721 45.5651C168.854 45.4146 168.82 45.3543 168.665 45.4877Z" fill="#263238"/>
<path d="M148.31 44.1065C148.31 44.1065 150.461 40.9269 151.717 39.7393C152.974 38.5518 159.277 35.8669 159.935 37.1792C160.796 38.9003 157.457 41.1721 155.684 42.0714C155.684 42.0714 157.659 46.0384 155.624 48.1898C153.589 50.3411 148.31 44.1065 148.31 44.1065Z" fill="#EB9481"/>
<path d="M160.017 37.7429C159.669 39.8684 157.259 40.9011 155.598 41.9079C155.573 41.9216 155.552 41.9412 155.536 41.9649C155.521 41.9886 155.511 42.0158 155.508 42.0442C155.505 42.0725 155.509 42.1011 155.519 42.1276C155.53 42.1541 155.547 42.1776 155.568 42.1962C156.287 43.9173 156.799 46.5462 155.745 48.2199C155.738 48.2296 155.735 48.2417 155.737 48.2534C155.739 48.2651 155.746 48.2755 155.755 48.2823C155.765 48.2892 155.777 48.2919 155.789 48.2899C155.8 48.2879 155.811 48.2813 155.818 48.2716C157.19 46.6495 156.893 44.0248 155.99 42.1919C157.711 41.1894 160.073 40.0405 160.039 37.7644C160.06 37.7171 160.017 37.7128 160.017 37.7429Z" fill="#263238"/>
<path d="M146.773 43.6978L156.26 55.315C156.26 55.315 144.716 61.7992 140.13 62.3413C136.688 62.7501 124.662 56.2444 118.41 51.1027C112.012 45.8448 116.801 44.511 121.155 45.7502C125.509 46.9893 137.015 49.8334 137.307 49.7646C137.6 49.6957 146.773 43.6978 146.773 43.6978Z" fill="#455A64"/>
<path d="M148.481 51.1888C147.844 50.3942 147.203 49.5997 146.558 48.8051C145.917 48.022 145.293 47.1959 144.596 46.4601C144.561 46.4257 144.501 46.4601 144.527 46.5032C145.06 47.325 145.693 48.0994 146.282 48.8868C146.872 49.6742 147.547 50.5434 148.184 51.3695C149.44 53.0045 150.766 54.5836 152.108 56.1498C152.143 56.1885 152.19 56.1498 152.164 56.0981C150.972 54.4373 149.759 52.8023 148.481 51.1888Z" fill="#263238"/>
<path opacity="0.1" d="M118.406 51.107C122.911 54.803 130.393 59.2047 135.522 61.2399L119.873 45.4619C115.97 44.8122 112.64 46.3483 118.406 51.107Z" fill="black"/>
<path d="M128.65 62.6425C119.89 62.4962 111.869 62.3069 104.925 62.1132C105.334 60.973 105.76 59.85 106.216 58.7529C106.254 58.6582 106.293 58.5592 106.336 58.4646C106.379 58.3699 106.457 58.1634 106.521 58.0343C107.503 55.6208 108.688 53.2948 110.062 51.0812C110.538 50.326 111.054 49.5964 111.607 48.8954C112.046 48.34 112.514 47.8086 113.01 47.3034L113.07 47.2432L113.121 47.1958C113.242 47.0711 113.367 46.9549 113.491 46.8387C113.643 46.7021 113.812 46.5863 113.995 46.4945C114.492 46.2567 115.024 46.0971 115.57 46.0212H115.682H115.742L116.107 45.9825C117.126 45.8933 118.152 45.9615 119.149 46.1847C119.654 46.2949 120.147 46.4534 120.621 46.658C120.898 46.7815 121.166 46.9253 121.421 47.0883L121.568 47.1786C121.717 47.2752 121.86 47.38 121.998 47.4927C122.128 47.5939 122.25 47.7046 122.364 47.824C122.463 47.9273 122.561 48.0349 122.66 48.151L122.781 48.293L122.906 48.4522L123.099 48.7061C124.343 50.4272 125.548 53.1077 126.683 56.3132C126.748 56.5026 126.817 56.6919 126.881 56.8855C127.479 58.6754 128.078 60.6288 128.65 62.6425Z" fill="#455A64"/>
<path d="M117.355 47.7982C117.302 48.3675 117.109 48.9146 116.792 49.3902C116.766 49.4333 116.74 49.4806 116.705 49.5279C116.625 49.657 116.535 49.7904 116.434 49.9281C116.156 50.3064 115.853 50.6657 115.527 51.0037L115.367 51.1716L115.26 51.2748C115.023 51.5158 114.765 51.761 114.485 52.0063C113.358 53.0002 111.779 54.2824 110.023 55.6463L109.503 56.0508L109.197 56.2874H109.167C108.242 57.0017 107.283 57.7288 106.323 58.4388C104.602 59.7296 102.881 60.9516 101.414 61.9885H101.113L96.2333 61.8379L96.0827 61.924V61.8336L92.0167 61.7002H91.7585C88.1271 61.5754 85.1969 61.4679 83.123 61.3861C83.7295 60.0595 84.6318 58.8893 85.7606 57.9655C87.3926 56.5587 89.1383 55.2893 90.9797 54.1705L91.225 54.0199C92.0855 53.5007 92.9633 52.9973 93.8582 52.5097L94.5381 52.1526C95.9364 51.4168 97.3864 50.7284 98.8407 50.0916C103.574 48.0478 108.548 46.5591 112.777 46.06C112.885 46.06 112.992 46.0341 113.1 46.0255C113.207 46.0169 113.384 45.9911 113.53 45.9782C113.676 45.9653 113.879 45.9524 114.046 45.9438C114.551 45.9128 115.058 45.9402 115.557 46.0255L115.669 46.0471H115.707C115.776 46.0597 115.843 46.0769 115.909 46.0987C116.921 46.3913 117.398 46.9807 117.355 47.7982Z" fill="#455A64"/>
<path d="M112.3 53.7317C111.5 54.3771 110.698 55.0339 109.895 55.7023L109.465 56.0637L109.194 56.2918H109.164C108.183 57.1093 107.197 57.9268 106.199 58.7314C104.792 59.8673 103.364 60.9731 101.896 62.0057H101.419H101.113C102.959 60.7149 104.775 59.3251 106.496 58.0085C108.63 56.395 110.605 54.8719 112.3 53.7317Z" fill="#263238"/>
<path d="M108.995 56.1842C109.813 55.7007 110.693 55.3315 111.611 55.087C110.822 55.6257 109.932 55.9989 108.995 56.1842Z" fill="#263238"/>
<path d="M120.26 51.7567C118.362 52.1483 115.213 49.1751 114.003 46.8086C113.917 46.6451 114.214 44.9671 114.472 42.9061C114.627 41.6583 114.769 40.2643 114.804 38.9821C114.804 38.7196 122.79 41.1678 122.79 41.1678C122.284 42.7563 121.975 44.4007 121.869 46.0643C121.868 46.2414 121.881 46.4184 121.907 46.5935C121.907 46.6193 121.907 46.6451 121.907 46.6796C122.054 47.6864 122.092 51.3781 120.26 51.7567Z" fill="#EB9481"/>
<path d="M115.312 39.0337C115.621 41.2108 116.817 46.4859 121.107 46.7054C121.381 46.7297 121.656 46.7297 121.929 46.7054C121.934 46.6769 121.934 46.6478 121.929 46.6193C121.901 46.4458 121.888 46.2702 121.89 46.0944C121.994 44.4276 122.303 42.7801 122.811 41.1893C122.811 41.1893 117.033 39.3994 115.312 39.0337Z" fill="#263238"/>
<path d="M113.38 29.4516C112.541 32.3129 114.146 40.531 116.194 42.3597C119.167 44.9886 123.982 45.1865 126.202 41.6239C128.353 38.1818 126.077 27.4982 123.792 25.8546C120.428 23.4193 114.615 25.2221 113.38 29.4516Z" fill="#EB9481"/>
<path d="M113.38 29.4516C112.541 32.3129 114.146 40.531 116.194 42.3597C119.167 44.9886 123.982 45.1865 126.202 41.6239C128.353 38.1818 126.077 27.4982 123.792 25.8546C120.428 23.4193 114.615 25.2221 113.38 29.4516Z" fill="#EB9481"/>
<path d="M121.533 34.6278C121.533 34.6063 121.495 34.6622 121.499 34.6837C121.611 35.2387 121.645 35.8928 121.172 36.1638C121.172 36.1638 121.172 36.1982 121.172 36.1939C121.766 36.0218 121.727 35.1355 121.533 34.6278Z" fill="#263238"/>
<path d="M120.939 34.1286C120.027 34.2104 120.26 36.0218 121.103 35.9444C121.946 35.8669 121.701 34.0598 120.939 34.1286Z" fill="#263238"/>
<path d="M124.709 34.3008C124.709 34.3008 124.756 34.3008 124.76 34.3481C124.812 34.9117 124.971 35.5442 125.5 35.669V35.6991C124.868 35.6819 124.67 34.8343 124.709 34.3008Z" fill="#263238"/>
<path d="M125.135 33.6424C126.03 33.4617 126.331 35.2603 125.505 35.4324C124.679 35.6045 124.387 33.7973 125.135 33.6424Z" fill="#263238"/>
<path d="M119.95 33.281C120.196 33.2407 120.441 33.1876 120.681 33.1218C120.946 33.0995 121.197 32.9923 121.396 32.8163C121.448 32.7485 121.476 32.6653 121.476 32.5797C121.476 32.494 121.448 32.4108 121.396 32.343C121.272 32.2254 121.118 32.1434 120.952 32.1056C120.785 32.0677 120.612 32.0754 120.449 32.1279C120.11 32.1835 119.803 32.3628 119.589 32.6313C119.55 32.696 119.529 32.7696 119.528 32.8448C119.527 32.9201 119.546 32.9942 119.583 33.06C119.619 33.1257 119.672 33.1807 119.737 33.2195C119.801 33.2583 119.875 33.2795 119.95 33.281Z" fill="#263238"/>
<path d="M125.828 32.7905C125.58 32.8219 125.33 32.8406 125.079 32.8464C124.82 32.905 124.549 32.8747 124.309 32.7604C124.244 32.7119 124.196 32.6442 124.172 32.5669C124.148 32.4896 124.15 32.4067 124.176 32.3301C124.262 32.1794 124.388 32.055 124.539 31.9701C124.691 31.8852 124.863 31.8431 125.036 31.8482C125.384 31.8004 125.736 31.8832 126.026 32.0805C126.077 32.1345 126.113 32.2006 126.131 32.2726C126.148 32.3446 126.147 32.42 126.127 32.4914C126.108 32.5628 126.069 32.6279 126.017 32.6803C125.965 32.7327 125.899 32.7707 125.828 32.7905Z" fill="#263238"/>
<path d="M124.051 37.4331C124.051 37.4331 124.18 38.2937 124.188 38.6981C124.188 38.7368 124.089 38.7583 123.952 38.767C123.604 38.8356 123.243 38.8073 122.91 38.6852C122.577 38.563 122.284 38.3517 122.063 38.0742C122.033 38.0355 122.084 37.9925 122.123 38.014C122.646 38.3628 123.268 38.5319 123.896 38.4959C123.926 38.384 123.62 37.033 123.685 37.0244C124.002 37.049 124.315 37.1156 124.614 37.2223C124.39 35.4238 123.878 33.6726 123.685 31.8784C123.681 31.8647 123.684 31.8502 123.691 31.8381C123.698 31.826 123.71 31.8172 123.724 31.8138C123.737 31.8104 123.752 31.8125 123.764 31.8198C123.776 31.8271 123.785 31.8388 123.788 31.8525C124.455 33.6468 124.756 35.725 125.036 37.5622C125.057 37.7945 124.214 37.502 124.051 37.4331Z" fill="#263238"/>
<path d="M123.69 38.6378C123.49 38.9248 123.221 39.1559 122.906 39.3091C122.733 39.389 122.539 39.4116 122.351 39.3736C121.947 39.2918 121.921 38.9433 121.973 38.6034C122.006 38.4332 122.058 38.2672 122.128 38.1086C122.578 38.448 123.126 38.6335 123.69 38.6378Z" fill="#263238"/>
<path d="M122.906 39.3091C122.733 39.389 122.539 39.4116 122.351 39.3736C121.947 39.2919 121.921 38.9434 121.973 38.6034C122.185 38.5978 122.394 38.6646 122.563 38.7928C122.733 38.921 122.854 39.1031 122.906 39.3091Z" fill="#FF9CBD"/>
<path d="M112.695 36.0218C114.898 36.2154 116.095 33.608 115.613 31.4825C115.613 31.4825 121.464 32.343 121.826 27.6617C122.285 28.3168 122.885 28.8605 123.582 29.253C124.279 29.6454 125.055 29.8765 125.853 29.9292L126.318 31.4868C126.924 31.3233 127.497 29.7227 126.051 28.3588C126.051 28.3588 125.991 26.0095 124.287 24.5724C123.826 24.1602 123.256 23.8897 122.646 23.7936C122.035 23.6974 121.41 23.7796 120.845 24.0303C119.837 23.2747 118.574 22.9414 117.325 23.1009C116.673 23.1931 116.053 23.44 115.516 23.8211C114.98 24.2021 114.542 24.7061 114.24 25.2909C114.24 25.2909 111.327 25.7987 110.798 27.851C110.639 28.4288 110.602 29.0334 110.69 29.6262C110.779 30.2189 110.99 30.7867 111.31 31.2932C111.31 31.2932 110.57 32.0935 110.91 33.8748C111.125 34.9978 112.037 35.9573 112.695 36.0218Z" fill="#263238"/>
<path d="M121.701 27.2314C121.742 27.6147 121.742 28.0013 121.701 28.3846C121.667 28.761 121.589 29.1321 121.469 29.4904C121.233 30.2001 120.738 30.7947 120.083 31.1555C119.409 31.4935 118.665 31.6674 117.911 31.6632C117.532 31.6417 117.149 31.6632 116.766 31.6116C116.383 31.5599 116.004 31.5126 115.617 31.4739C115.992 31.5729 116.37 31.6546 116.749 31.745C117.127 31.8353 117.523 31.8267 117.911 31.8697C118.706 31.9067 119.498 31.7424 120.212 31.3921C120.918 30.9927 121.44 30.3335 121.667 29.5549C121.874 28.7957 121.886 27.9965 121.701 27.2314Z" fill="#263238"/>
<path d="M124.679 29.9981C124.04 29.7686 123.443 29.4341 122.914 29.0085C122.659 28.7971 122.434 28.5526 122.243 28.2813C122.05 28.0007 121.89 27.699 121.766 27.382C121.791 27.735 121.893 28.0784 122.063 28.3889C122.232 28.707 122.463 28.9879 122.742 29.215C123.015 29.444 123.323 29.6271 123.655 29.7571C123.98 29.8943 124.326 29.9757 124.679 29.9981Z" fill="#263238"/>
<path d="M115.312 36.2628C115.312 36.2628 113.363 33.6812 112.175 34.3653C110.988 35.0494 112.511 38.8831 113.948 39.365C114.129 39.439 114.323 39.4753 114.519 39.4717C114.715 39.4681 114.907 39.4248 115.086 39.3443C115.264 39.2637 115.424 39.1478 115.556 39.0034C115.688 38.859 115.79 38.6893 115.854 38.5045L115.312 36.2628Z" fill="#EB9481"/>
<path d="M112.657 35.4453V35.484C113.664 35.854 114.215 36.7748 114.615 37.7042C114.554 37.6063 114.472 37.5229 114.376 37.4597C114.279 37.3965 114.17 37.3551 114.056 37.3383C113.941 37.3215 113.825 37.3298 113.714 37.3625C113.603 37.3952 113.501 37.4516 113.415 37.5278C113.389 37.5278 113.415 37.5837 113.445 37.5794C113.617 37.5178 113.805 37.5113 113.981 37.5606C114.157 37.6099 114.314 37.7127 114.43 37.8548C114.621 38.0961 114.785 38.3572 114.92 38.6336C114.972 38.7196 115.131 38.668 115.093 38.5647C115.067 37.2739 114.021 35.5313 112.657 35.4453Z" fill="#263238"/>
<path d="M121.929 45.8621L119.928 50.5262L114.232 44.5024L112.545 46.3483C112.545 46.3483 118.039 55.8787 118.087 55.4527L120.096 51.4598L122.824 54.3211L122.742 47.269L121.929 45.8621Z" fill="#DBDBDB"/>
<path d="M122.984 50.836C122.932 49.6699 122.911 48.4953 122.803 47.3336C122.803 47.2949 122.734 47.2733 122.726 47.3336C122.468 48.448 122.696 52.9013 122.665 53.964C122.549 53.8435 120.131 51.4426 120.105 51.4814C119.675 52.1096 118.199 55.0225 118.096 55.2849C117.235 53.7747 113.888 48.2673 112.855 46.8345C112.849 46.8277 112.84 46.8233 112.831 46.8218C112.822 46.8203 112.812 46.8218 112.804 46.8262C112.796 46.8306 112.789 46.8376 112.785 46.846C112.781 46.8545 112.78 46.8641 112.782 46.8732C113.544 48.4652 117.945 55.8787 118.031 55.8572C118.806 54.4864 119.508 53.0761 120.135 51.632C120.544 52.1526 122.975 54.8547 122.988 54.6826C123.054 53.4012 123.053 52.1172 122.984 50.836Z" fill="#263238"/>
<path d="M94.0391 34.2448L95.9064 30.4154C95.9064 30.4154 112.029 49.614 118.388 54.6395C121.146 56.8167 129.842 62.6856 129.842 62.6856L123.53 62.6167C123.53 62.6167 117.609 59.4241 115.303 57.5654C109.563 52.9443 94.0391 34.2448 94.0391 34.2448Z" fill="#263238"/>
<path d="M100.756 59.0369C100.718 59.1262 100.655 59.2026 100.575 59.2563L100.007 59.6048H99.9768L99.0861 60.1513C98.0578 60.7751 97.1155 61.3345 96.2463 61.8422L96.0957 61.9283V61.8379L92.0297 61.7045H91.7715C88.1401 61.5797 85.2099 61.4722 83.1361 61.3904H82.7617C82.7875 58.6582 83.7384 55.3236 86.1178 53.3917C86.376 53.1852 88.4456 52.002 90.7217 50.7155L90.7948 50.6767L93.4969 49.1579L94.0218 48.8653L96.6938 47.3852C97.2661 47.0711 98.0965 48.3146 98.8451 50.1088C100.188 53.1766 101.349 57.8622 100.756 59.0369Z" fill="#EB9481"/>
<path d="M92.7617 50.737C92.7617 50.737 94.6076 46.4343 96.2813 44.4422C98.0702 42.439 100.319 40.9004 102.834 39.9588C105.549 38.9305 112.817 38.3238 113.359 40.3891C113.845 42.2564 106.384 42.5017 106.384 42.5017C106.384 42.5017 113.952 40.9957 114.129 43.3622C114.305 45.7287 105.622 45.5136 105.622 45.5136C105.622 45.5136 113.432 44.141 113.23 46.6021C113.075 48.4609 105.205 48.7148 105.205 48.7148C105.205 48.7148 111.926 47.5788 111.848 49.4978C111.762 51.6191 104.534 52.3075 104.534 52.3075C103.518 57.1523 101.057 59.0412 99.1426 60.1814C98.6607 60.4439 92.7617 50.737 92.7617 50.737Z" fill="#EB9481"/>
<path d="M103.737 42.8545C104.619 42.6437 105.51 42.4242 106.409 42.2951C107.309 42.1661 108.212 42.0671 109.116 42.0241C110.3 41.9389 111.489 41.9923 112.661 42.1833C110.557 41.9983 107.334 42.4156 106.435 42.5447C105.536 42.6738 104.637 42.7598 103.742 42.8889L103.737 42.8545Z" fill="#263238"/>
<path d="M104.146 46.103C105.287 45.8879 106.41 45.6297 107.558 45.4619C108.707 45.2941 109.8 45.2339 110.949 45.1478C111.039 45.1478 111.013 45.1909 110.923 45.1995C109.779 45.3328 108.729 45.548 107.58 45.6943C106.431 45.8406 105.287 45.9438 104.138 46.1245L104.146 46.103Z" fill="#263238"/>
<path d="M103.996 48.96C105.735 48.581 107.509 48.3834 109.288 48.3705C109.379 48.3705 109.336 48.4308 109.25 48.4394C107.486 48.5986 106.104 48.7147 104.018 49.0202C103.979 49.0245 103.962 48.9686 103.996 48.96Z" fill="#263238"/>
<path d="M96.0834 61.8379L92.0174 61.7045H91.7592C88.1277 61.5798 85.1976 61.4722 83.1237 61.3904H82.7494H82.4611C82.4528 59.8235 82.7711 58.272 83.3956 56.8348C84.0201 55.3977 84.9371 54.1064 86.0883 53.0432L93.6696 46.7312L93.9191 48.2931L94.0138 48.8782L94.5387 52.1827L94.8485 54.1189L96.0834 61.8379Z" fill="#455A64"/>
<path d="M92.017 61.7217H91.7588C91.6427 60.7794 91.5437 59.8285 91.4447 58.8776C91.2812 57.3201 91.1177 55.7539 90.98 54.192C90.9542 53.9425 90.9327 53.6886 90.9112 53.4348C90.8381 52.5312 90.7606 51.6276 90.709 50.7198C90.709 50.595 90.709 50.4702 90.709 50.3454C90.709 50.3196 90.7477 50.3067 90.752 50.3454L90.8036 50.6939C90.9757 51.8083 91.1177 52.9313 91.2339 54.0543C91.3027 54.6223 91.363 55.1859 91.4275 55.7496C91.6312 57.5596 91.8148 59.3739 91.9783 61.1925C91.9869 61.356 92.0041 61.5367 92.017 61.7217Z" fill="#263238"/>
<path d="M96.083 61.8379H96.2465L96.0959 61.924L96.083 61.8379Z" fill="#263238"/>
</svg>
