<svg width="53" height="297" viewBox="0 0 53 297" fill="none" xmlns="http://www.w3.org/2000/svg">
<path d="M26.5296 38.7041C41.1504 38.6901 52.9904 26.6622 52.9749 11.8393C52.9594 -2.98367 41.0942 -14.9886 26.4734 -14.9746C11.8525 -14.9605 0.0125792 -2.93275 0.0280964 11.8902C0.0436137 26.7132 11.9087 38.7182 26.5296 38.7041Z" fill="white"/>
<path d="M26.4992 166.166C41.1201 166.166 52.9727 154.15 52.9727 139.327C52.9727 124.504 41.1201 112.487 26.4992 112.487C11.8784 112.487 0.0258789 124.504 0.0258789 139.327C0.0258789 154.15 11.8784 166.166 26.4992 166.166Z" fill="white"/>
<path d="M26.4992 296.997C41.1201 296.997 52.9727 284.981 52.9727 270.158C52.9727 255.335 41.1201 243.318 26.4992 243.318C11.8784 243.318 0.0258789 255.335 0.0258789 270.158C0.0258789 284.981 11.8784 296.997 26.4992 296.997Z" fill="white"/>
</svg>
