<svg width="198" height="180" viewBox="0 0 198 180" fill="none" xmlns="http://www.w3.org/2000/svg">
<path d="M99.0002 179.999C141.405 179.999 175.781 177.55 175.781 174.53C175.781 171.509 141.405 169.061 99.0002 169.061C56.5955 169.061 22.2197 171.509 22.2197 174.53C22.2197 177.55 56.5955 179.999 99.0002 179.999Z" fill="#F5F5F5"/>
<path d="M145.304 164.869L134.264 163.545V148.355H129.888V163.541L118.8 164.869C118.269 164.933 117.776 165.235 117.417 165.717C117.059 166.199 116.86 166.827 116.859 167.478V169.503H147.237V167.478C147.236 166.829 147.039 166.202 146.682 165.72C146.325 165.238 145.834 164.935 145.304 164.869Z" fill="#263238"/>
<path opacity="0.1" d="M145.304 164.869L134.264 163.545V148.355H129.888V163.541L118.8 164.869C118.269 164.933 117.776 165.235 117.417 165.717C117.059 166.199 116.86 166.827 116.859 167.478V169.503H147.237V167.478C147.236 166.829 147.039 166.202 146.682 165.72C146.325 165.238 145.834 164.935 145.304 164.869Z" fill="white"/>
<path d="M118.032 175.5C119.611 175.5 120.891 173.938 120.891 172.012C120.891 170.085 119.611 168.523 118.032 168.523C116.453 168.523 115.173 170.085 115.173 172.012C115.173 173.938 116.453 175.5 118.032 175.5Z" fill="#263238"/>
<path d="M146.073 175.5C147.652 175.5 148.932 173.938 148.932 172.012C148.932 170.085 147.652 168.523 146.073 168.523C144.494 168.523 143.214 170.085 143.214 172.012C143.214 173.938 144.494 175.5 146.073 175.5Z" fill="#263238"/>
<path d="M129.136 135.562H135.036V150.424C135.036 150.953 134.864 151.461 134.557 151.835C134.25 152.209 133.834 152.419 133.401 152.419H130.791C130.357 152.419 129.941 152.209 129.635 151.835C129.328 151.461 129.156 150.953 129.156 150.424V135.562H129.136Z" fill="#263238"/>
<path opacity="0.2" d="M129.136 135.562H135.036V150.424C135.036 150.953 134.864 151.461 134.557 151.835C134.25 152.209 133.834 152.419 133.401 152.419H130.791C130.357 152.419 129.941 152.209 129.635 151.835C129.328 151.461 129.156 150.953 129.156 150.424V135.562H129.136Z" fill="white"/>
<path d="M147.356 106.295C147.356 106.295 144.077 131.264 137.61 135.559H144.184C144.184 135.559 150.682 127.07 152.662 106.295H147.356Z" fill="#263238"/>
<path opacity="0.1" d="M147.356 106.295C147.356 106.295 144.077 131.264 137.61 135.559H144.184C144.184 135.559 150.682 127.07 152.662 106.295H147.356Z" fill="white"/>
<path d="M146.425 137.5H116.951V134.451C116.951 133.811 117.159 133.196 117.53 132.743C117.902 132.29 118.405 132.036 118.931 132.036H144.445C144.97 132.036 145.474 132.29 145.845 132.743C146.216 133.196 146.425 133.811 146.425 134.451V137.5Z" fill="#407BFF"/>
<path d="M116.52 137.5H146.857C147.297 137.5 147.653 137.065 147.653 136.529V135.737C147.653 135.2 147.297 134.765 146.857 134.765H116.52C116.08 134.765 115.724 135.2 115.724 135.737V136.529C115.724 137.065 116.08 137.5 116.52 137.5Z" fill="#263238"/>
<path opacity="0.6" d="M116.52 137.5H146.857C147.297 137.5 147.653 137.065 147.653 136.529V135.737C147.653 135.2 147.297 134.765 146.857 134.765H116.52C116.08 134.765 115.724 135.2 115.724 135.737V136.529C115.724 137.065 116.08 137.5 116.52 137.5Z" fill="white"/>
<path d="M153.438 111.371H142.901C139.816 111.371 137.812 108.351 138.426 104.607L139.246 99.6351C139.856 95.9101 142.857 92.8711 145.942 92.8711H156.476C159.564 92.8711 161.568 95.8907 160.954 99.6351L160.135 104.607C159.521 108.351 156.523 111.371 153.438 111.371Z" fill="#407BFF"/>
<path d="M100.078 94.6459L97.3498 92.7665C96.9238 92.3468 96.4212 92.0585 95.8846 91.9258C94.3786 91.8955 92.8737 92.0395 91.39 92.3558C90.994 92.5443 91.1365 96.4239 91.39 96.4867C91.6434 96.5495 95.5836 96.6075 95.936 96.4867C96.2885 96.3659 97.1478 95.1919 97.1478 95.1919L99.1714 96.8442L100.078 94.6459Z" fill="#EBB376"/>
<path d="M112.426 89.4473C110.992 91.0126 106.486 97.5689 105.781 97.8056C105.076 98.0423 98.4863 92.9742 98.4863 92.9742L97.5518 96.1678C97.5518 96.1678 103.753 102.395 105.781 102.825C107.978 103.309 115.304 96.0615 115.304 96.0615L112.426 89.4473Z" fill="#407BFF"/>
<path opacity="0.5" d="M115.305 96.0625C115.305 96.0625 113.653 97.6955 111.673 99.3575C109.495 101.193 106.921 103.073 105.777 102.826C103.745 102.401 97.5439 96.1736 97.5439 96.1736L98.4785 92.9801C98.4785 92.9801 105.076 98.0385 105.777 97.8115C106.478 97.5844 110.988 91.0185 112.414 89.4531L114.299 93.7724L115.305 96.0625Z" fill="white"/>
<path opacity="0.2" d="M115.304 96.0625C115.304 96.0625 113.653 97.6955 111.673 99.3575C112.009 97.0819 113.53 94.7967 114.298 93.7676L115.304 96.0625Z" fill="black"/>
<path d="M119.407 109.939C119.407 109.939 112.751 95.7438 112.426 89.4485C112.426 89.4485 114.711 84.2934 117.708 83.1677C120.706 82.042 128.642 82.6845 128.642 82.6845C128.642 82.6845 134.919 90.5404 138.316 108.412L119.407 109.939Z" fill="#407BFF"/>
<path opacity="0.7" d="M119.407 109.939C119.407 109.939 112.751 95.7438 112.426 89.4485C112.426 89.4485 114.711 84.2934 117.708 83.1677C120.706 82.042 128.642 82.6845 128.642 82.6845C128.642 82.6845 134.919 90.5404 138.316 108.412L119.407 109.939Z" fill="white"/>
<path opacity="0.1" d="M124.103 93.4958L128.047 92.3652L129.484 96.815L127.967 98.791L125.496 97.8054L124.103 93.4958Z" fill="black"/>
<path d="M122.93 170.699L119.549 171.467L116.547 162.273L119.925 161.51L122.93 170.699Z" fill="#EBB376"/>
<path opacity="0.2" d="M119.926 161.51L116.552 162.278L118.266 167.535L121.585 166.573L119.926 161.51Z" fill="black"/>
<path d="M86.9669 172.276L84.1514 169.87L87.4302 160.82L90.2418 163.226L86.9669 172.276Z" fill="#EBB376"/>
<path opacity="0.2" d="M90.2413 163.225L87.4297 160.824L85.5566 165.999L88.4395 168.216L90.2413 163.225Z" fill="black"/>
<path d="M134.011 123.906L123.22 127.941L101.693 135.999C96.7312 150.059 90.6526 164.756 90.6526 164.756L85.0215 161.934C85.0215 161.934 91.0842 137.251 92.8544 131.081C95.6818 121.235 125.889 114.654 125.889 114.654L134.011 123.906Z" fill="#263238"/>
<path d="M90.3715 167.336L83.4375 163.674L84.3404 159.809L91.8802 164.007L90.3715 167.336Z" fill="#407BFF"/>
<path opacity="0.2" d="M90.3715 167.336L83.4375 163.674L84.3404 159.809L91.8802 164.007L90.3715 167.336Z" fill="white"/>
<path d="M83.7184 169.62C83.7184 169.62 83.6788 169.571 83.6788 169.567L83.6353 169.513L83.6828 169.562C83.7065 169.504 84.1857 168.47 84.0075 167.934C83.9847 167.866 83.9497 167.806 83.9051 167.757C83.8605 167.709 83.8075 167.673 83.7501 167.653C83.6869 167.624 83.6173 167.621 83.5526 167.645C83.488 167.67 83.432 167.72 83.3937 167.789C83.2778 168.121 83.2609 168.492 83.3462 168.837C83.1165 168.484 82.8274 168.132 82.5859 168.117C82.5347 168.117 82.4843 168.132 82.4388 168.161C82.3934 168.189 82.3542 168.231 82.3245 168.281C82.2689 168.354 82.2312 168.444 82.2158 168.542C82.2004 168.639 82.2079 168.74 82.2374 168.832C82.3561 169.067 82.5426 169.24 82.7601 169.315C83.0417 169.457 83.3352 169.561 83.6353 169.625H83.663H83.6867L83.7184 169.62ZM83.5244 167.919C83.5521 167.871 83.5996 167.822 83.7105 167.866H83.7461C83.7753 167.881 83.8016 167.904 83.8234 167.932C83.8452 167.96 83.862 167.994 83.8729 168.03C83.9837 168.349 83.7897 168.972 83.6511 169.335C83.638 169.306 83.6234 169.279 83.6075 169.253C83.4559 168.833 83.4265 168.362 83.5244 167.919ZM82.3681 168.76C82.3524 168.7 82.3499 168.636 82.3611 168.575C82.3722 168.514 82.3965 168.458 82.4314 168.412C82.445 168.386 82.4638 168.365 82.486 168.351C82.5082 168.336 82.533 168.329 82.5581 168.33C82.7997 168.33 83.2076 168.943 83.4689 169.422C82.8749 169.257 82.471 169.016 82.3681 168.76Z" fill="#407BFF"/>
<path d="M84.111 169.276L87.6433 171.16C87.6735 171.174 87.701 171.195 87.7244 171.222C87.7478 171.249 87.7664 171.282 87.7794 171.318C87.7923 171.354 87.7992 171.393 87.7996 171.432C87.8 171.471 87.794 171.51 87.7819 171.547L86.7246 175.054C86.6602 175.232 86.5412 175.372 86.3932 175.445C86.2452 175.517 86.0798 175.515 85.9326 175.441C84.7089 174.76 84.1545 174.359 82.6062 173.508C81.6518 172.996 79.7273 172.097 78.5155 171.146C77.3037 170.194 78.1195 168.759 78.6897 169.029C80.0718 169.667 82.2933 169.58 83.4853 169.203C83.6946 169.141 83.915 169.167 84.111 169.276Z" fill="#263238"/>
<path d="M119.13 171.036C119.13 170.963 119.07 169.775 118.714 169.398C118.658 169.347 118.593 169.312 118.525 169.294C118.457 169.275 118.386 169.275 118.318 169.292C118.247 169.297 118.181 169.331 118.128 169.388C118.075 169.445 118.039 169.521 118.025 169.606C118.038 169.967 118.158 170.31 118.361 170.572C118.076 170.365 117.739 170.288 117.411 170.355C117.364 170.382 117.324 170.424 117.293 170.475C117.263 170.526 117.243 170.586 117.237 170.649C117.215 170.744 117.215 170.845 117.238 170.939C117.26 171.034 117.304 171.119 117.363 171.186C117.558 171.334 117.791 171.39 118.017 171.34C118.321 171.309 118.621 171.236 118.912 171.123C118.916 171.125 118.921 171.126 118.926 171.126C118.93 171.126 118.935 171.125 118.94 171.123C118.94 171.123 118.94 171.123 118.94 171.094C118.94 171.065 119.023 171.07 119.027 171.055H119.098L119.13 171.036ZM118.183 169.644C118.183 169.586 118.215 169.519 118.326 169.495H118.365C118.397 169.492 118.429 169.498 118.459 169.511C118.489 169.525 118.516 169.545 118.54 169.572C118.757 169.794 118.817 170.456 118.833 170.852L118.761 170.804C118.461 170.514 118.256 170.103 118.183 169.644ZM117.482 171.036C117.447 170.991 117.421 170.936 117.408 170.876C117.395 170.816 117.394 170.753 117.407 170.693C117.409 170.662 117.417 170.632 117.432 170.606C117.447 170.58 117.467 170.56 117.49 170.548C117.708 170.422 118.282 170.731 118.71 171.007C118.104 171.2 117.653 171.21 117.482 171.036Z" fill="#407BFF"/>
<path d="M119.196 170.554L123.045 170.259C123.077 170.255 123.109 170.259 123.14 170.27C123.17 170.282 123.199 170.3 123.224 170.325C123.248 170.349 123.269 170.38 123.284 170.414C123.299 170.449 123.308 170.486 123.311 170.525L123.707 174.226C123.717 174.421 123.663 174.613 123.558 174.76C123.453 174.908 123.304 174.999 123.144 175.013C121.802 175.086 121.164 175.042 119.462 175.154C118.424 175.231 116.373 175.501 114.939 175.332C113.506 175.163 113.68 173.434 114.302 173.351C115.771 173.149 117.715 171.834 118.634 170.834C118.791 170.668 118.989 170.57 119.196 170.554Z" fill="#263238"/>
<path d="M112.821 85.4343C113.411 85.1805 114.054 85.1805 114.643 85.4343C114.778 86.1371 115.102 86.7644 115.564 87.2162C116.025 87.668 116.598 87.9184 117.189 87.9273C117.481 87.9454 117.774 87.9308 118.064 87.8838C121.03 87.4007 120.706 82.004 120.706 82.004C119.624 82.0982 118.546 81.7826 117.617 81.1005C116.829 80.5362 116.141 79.7855 115.593 78.8926L112.821 85.4343Z" fill="#EBB376"/>
<path opacity="0.2" d="M112.821 85.4343C113.411 85.1805 114.054 85.1805 114.643 85.4343C114.778 86.1371 115.102 86.7644 115.564 87.2162C116.025 87.668 116.598 87.9184 117.189 87.9273C117.953 85.6227 117.854 82.9848 117.617 81.1005C116.829 80.5362 116.141 79.7855 115.593 78.8926L112.821 85.4343Z" fill="black"/>
<path d="M110.754 73.5401C112.219 74.3132 111.91 76.2699 109.415 79.821C107.93 78.2121 107.162 74.5934 107.966 73.4532C108.77 72.313 109.475 72.8686 110.754 73.5401Z" fill="#263238"/>
<path d="M116.793 75.1958C117.252 79.0995 117.68 81.3558 116.424 83.7377C114.531 87.3178 110.334 86.5399 108.924 82.8777C107.665 79.5923 107.122 73.7608 109.954 71.4514C110.576 70.9394 111.295 70.6295 112.043 70.5511C112.79 70.4726 113.542 70.6281 114.227 71.003C114.911 71.3779 115.506 71.9597 115.955 72.6934C116.404 73.427 116.693 74.2883 116.793 75.1958Z" fill="#EBB376"/>
<path d="M112.255 77.4464C112.311 77.7605 112.216 78.0455 112.045 78.089C111.875 78.1325 111.701 77.9151 111.649 77.6059C111.598 77.2967 111.685 77.002 111.855 76.9585C112.026 76.915 112.184 77.1421 112.255 77.4464Z" fill="#263238"/>
<path d="M109.332 78.1928C109.387 78.502 109.292 78.7919 109.126 78.8354C108.959 78.8789 108.777 78.6615 108.73 78.3523C108.682 78.0431 108.769 77.7483 108.94 77.7097C109.11 77.671 109.296 77.8788 109.332 78.1928Z" fill="#263238"/>
<path d="M110.31 78.0938C110.167 79.1308 109.907 80.1388 109.538 81.0892C109.74 81.1976 109.96 81.2507 110.181 81.2449C110.402 81.2391 110.619 81.1744 110.817 81.0554L110.31 78.0938Z" fill="#D58745"/>
<path d="M114.956 72.0983C113.581 73.0888 114.092 74.9972 116.936 78.0989C118.242 76.2678 118.63 72.5573 117.728 71.5572C116.825 70.5571 116.155 71.2383 114.956 72.0983Z" fill="#263238"/>
<path d="M118.821 77.9007C118.76 78.8899 118.379 79.8091 117.763 80.4565C116.94 81.302 116.084 80.5387 115.938 79.3067C115.807 78.1954 116.077 76.4078 117.082 76.0503C118.088 75.6928 118.892 76.688 118.821 77.9007Z" fill="#EBB376"/>
<path d="M113.565 75.6005C113.543 75.6249 113.516 75.6417 113.487 75.6494C113.458 75.657 113.427 75.6551 113.399 75.6439C113.205 75.5539 112.997 75.5205 112.79 75.5465C112.584 75.5725 112.385 75.6572 112.211 75.7937C112.177 75.8264 112.133 75.8412 112.09 75.8348C112.047 75.8285 112.008 75.8015 111.981 75.7599C111.954 75.7183 111.942 75.6653 111.947 75.6128C111.953 75.5602 111.975 75.5124 112.009 75.4797C112.225 75.3028 112.472 75.1912 112.73 75.1542C112.989 75.1172 113.25 75.1559 113.494 75.2671C113.514 75.2748 113.533 75.2873 113.549 75.3039C113.565 75.3205 113.578 75.3409 113.588 75.3638C113.598 75.3868 113.603 75.4119 113.605 75.4376C113.606 75.4633 113.604 75.4891 113.597 75.5135C113.59 75.5444 113.579 75.5737 113.565 75.6005Z" fill="#263238"/>
<path d="M107.744 76.5619C107.712 76.5561 107.681 76.5374 107.657 76.5087C107.634 76.4648 107.626 76.4117 107.634 76.3604C107.642 76.3091 107.666 76.2636 107.701 76.2333C107.916 76.0553 108.164 75.9431 108.422 75.9061C108.681 75.8691 108.943 75.9084 109.186 76.0207C109.206 76.0307 109.224 76.0455 109.239 76.0642C109.254 76.0828 109.266 76.1051 109.273 76.1295C109.281 76.1538 109.285 76.1799 109.284 76.2061C109.283 76.2322 109.278 76.258 109.269 76.2816C109.252 76.3297 109.219 76.3673 109.179 76.3864C109.139 76.4054 109.095 76.4042 109.055 76.3831C108.859 76.2997 108.649 76.2737 108.442 76.3073C108.236 76.3409 108.039 76.433 107.867 76.5764C107.847 76.5844 107.826 76.5872 107.805 76.5847C107.784 76.5822 107.763 76.5744 107.744 76.5619Z" fill="#263238"/>
<path d="M117.367 71.9925C117.367 71.9925 118.072 70.2822 116.218 68.799C114.365 67.3157 108.758 68.4753 106.75 71.577C104.742 74.6788 106.485 76.5679 106.485 76.5679C106.4 76.0543 106.466 75.5209 106.671 75.0605C106.881 75.5811 107.22 76.0072 107.641 76.278C108.278 76.6258 107.855 76.5147 107.855 76.5147C107.828 75.6974 108.044 74.8958 108.465 74.2585C108.946 74.8347 109.532 75.2649 110.175 75.5146C110.315 74.8401 110.644 74.2468 111.106 73.8381C111.106 73.8381 111.454 75.2054 111.989 75.3359C111.989 75.3359 111.941 74.2198 113.177 73.4033C113.177 73.4033 113.316 74.4662 113.664 74.7464C113.676 74.7851 114.266 72.379 117.367 71.9925Z" fill="#263238"/>
<path d="M111.642 82.3689C111.614 82.369 111.586 82.3589 111.563 82.3399C111.546 82.3276 111.531 82.3112 111.519 82.2917C111.508 82.2723 111.499 82.2501 111.495 82.2267C111.491 82.2032 111.49 82.1789 111.493 82.1552C111.497 82.1315 111.504 82.1089 111.515 82.0887C111.976 81.2894 112.646 80.7064 113.416 80.4364C113.434 80.429 113.454 80.4263 113.473 80.4285C113.492 80.4306 113.511 80.4375 113.528 80.4488C113.545 80.4602 113.56 80.4756 113.572 80.4942C113.584 80.5128 113.593 80.5343 113.598 80.5571C113.609 80.6033 113.605 80.6529 113.587 80.6954C113.568 80.7378 113.537 80.7697 113.499 80.7842C112.8 81.033 112.189 81.5603 111.765 82.282C111.752 82.3083 111.734 82.3302 111.713 82.3454C111.691 82.3607 111.667 82.3688 111.642 82.3689Z" fill="#263238"/>
<path d="M111.78 79.7242C111.424 79.685 111.09 79.5005 110.831 79.2006C110.572 78.9007 110.404 78.503 110.354 78.0719C110.188 77.0041 110.655 75.9944 111.395 75.8204C112.136 75.6465 112.872 76.3809 113.039 77.4486C113.121 77.9418 113.059 78.4544 112.865 78.898C112.777 79.1008 112.654 79.2775 112.504 79.4153C112.354 79.5531 112.181 79.6487 111.997 79.6952C111.926 79.7123 111.853 79.722 111.78 79.7242ZM111.613 76.0523C111.554 76.0452 111.494 76.0452 111.435 76.0523C110.809 76.1973 110.413 77.0718 110.56 77.9849C110.702 78.9125 111.328 79.5599 111.958 79.4102C112.112 79.3711 112.257 79.2906 112.382 79.1744C112.508 79.0582 112.61 78.9093 112.682 78.7386C112.854 78.3466 112.907 77.8934 112.833 77.4583C112.792 77.0873 112.649 76.7442 112.427 76.4853C112.206 76.2263 111.919 76.0669 111.613 76.033V76.0523Z" fill="#263238"/>
<path d="M108.373 80.424C108.07 80.4185 107.779 80.2834 107.55 80.0423C107.234 79.7152 107.023 79.264 106.952 78.7668C106.785 77.6991 107.253 76.6941 107.993 76.5202C108.178 76.4816 108.368 76.4936 108.549 76.5554C108.73 76.6173 108.897 76.7273 109.039 76.8777C109.353 77.203 109.565 77.6526 109.636 78.1484C109.716 78.6416 109.655 79.1533 109.462 79.5978C109.375 79.8001 109.252 79.9761 109.102 80.1132C108.952 80.2502 108.779 80.3448 108.595 80.3901C108.522 80.4109 108.448 80.4223 108.373 80.424ZM107.158 78.7233C107.219 79.1599 107.404 79.5564 107.68 79.8442C107.797 79.9704 107.935 80.0624 108.085 80.113C108.236 80.1635 108.393 80.1714 108.546 80.1359C108.699 80.1004 108.844 80.0226 108.968 79.9084C109.093 79.7941 109.194 79.6466 109.264 79.477C109.432 79.0809 109.486 78.6279 109.417 78.1901C109.349 77.7522 109.163 77.3549 108.888 77.0613C108.77 76.9352 108.631 76.8429 108.48 76.791C108.33 76.7392 108.171 76.7292 108.017 76.7618C107.387 76.9067 106.995 77.7812 107.142 78.6943L107.158 78.7233Z" fill="#263238"/>
<path d="M109.535 78.2955C109.512 78.2956 109.49 78.2871 109.472 78.2714C109.46 78.2614 109.451 78.2488 109.444 78.2343C109.437 78.2198 109.432 78.2038 109.431 78.1871C109.429 78.1704 109.43 78.1535 109.433 78.1372C109.437 78.121 109.443 78.1058 109.452 78.0926C109.581 77.9107 109.759 77.7922 109.955 77.7593C110.15 77.7264 110.348 77.7813 110.513 77.9138C110.536 77.9318 110.553 77.9598 110.559 77.9922C110.566 78.0245 110.562 78.0587 110.549 78.0878C110.542 78.1028 110.532 78.116 110.521 78.1264C110.51 78.1369 110.497 78.1444 110.483 78.1485C110.469 78.1525 110.455 78.1531 110.441 78.1502C110.427 78.1472 110.414 78.1408 110.402 78.1313C110.28 78.0323 110.134 77.9896 109.989 78.0109C109.843 78.0321 109.709 78.1159 109.61 78.2472C109.601 78.2613 109.59 78.273 109.577 78.2813C109.564 78.2896 109.55 78.2945 109.535 78.2955Z" fill="#263238"/>
<path d="M112.936 77.5837C112.913 77.5834 112.891 77.5737 112.873 77.5562C112.855 77.5387 112.842 77.5143 112.837 77.4871C112.829 77.455 112.833 77.4208 112.846 77.3918C112.86 77.3628 112.882 77.3415 112.908 77.3325L115.878 76.3179C115.905 76.3103 115.934 76.3155 115.958 76.3325C115.982 76.3495 116 76.3771 116.009 76.4097C116.015 76.4423 116.01 76.4765 115.996 76.5053C115.982 76.5341 115.96 76.5552 115.934 76.5643L112.964 77.5789L112.936 77.5837Z" fill="#263238"/>
<path opacity="0.2" d="M123.22 127.941L101.694 136C101.694 136 100.902 128.753 104.778 125.371C110.441 120.414 122.931 119.027 122.931 119.027C122.931 119.027 123.086 123.337 123.22 127.941Z" fill="black"/>
<path d="M118.908 119.605L119.739 113.252L119.407 109.938L138.316 108.396L138.601 112.093C138.601 112.093 140.85 125.06 139.29 128.577C136.518 134.858 125.034 134.612 115.059 134.612C117.225 142.342 121.573 161.909 121.573 161.909L116.357 164.808C116.357 164.808 106.295 142.477 104.01 132.81C102.002 124.272 111.788 121.712 118.908 119.605Z" fill="#263238"/>
<path d="M122.757 163.659L115.759 167.133L114.128 163.645L121.866 160.012L122.757 163.659Z" fill="#407BFF"/>
<path opacity="0.2" d="M122.757 163.659L115.759 167.133L114.128 163.645L121.866 160.012L122.757 163.659Z" fill="white"/>
<path d="M132.388 112.33L138.831 111.862L138.443 108.943L132.143 109.436L132.388 112.33Z" fill="black"/>
<path d="M120.476 110.344L119.407 110.431L119.74 113.252L120.663 113.185L120.476 110.344Z" fill="black"/>
<path d="M121.418 113.133L131.631 112.389L131.441 109.49L121.177 110.292L121.418 113.133Z" fill="black"/>
<path d="M124.42 113.171C124.198 113.172 123.983 113.07 123.819 112.887C123.656 112.703 123.555 112.451 123.537 112.18L123.462 111.127C123.441 110.844 123.512 110.563 123.66 110.344C123.809 110.125 124.022 109.986 124.254 109.958L126.087 109.765C126.204 109.751 126.321 109.766 126.433 109.809C126.544 109.852 126.648 109.923 126.737 110.016C126.825 110.107 126.898 110.219 126.951 110.345C127.004 110.471 127.036 110.609 127.045 110.75L127.121 111.804C127.131 111.946 127.119 112.089 127.083 112.225C127.048 112.361 126.991 112.487 126.915 112.596C126.841 112.706 126.749 112.796 126.646 112.862C126.542 112.927 126.429 112.967 126.313 112.978L124.479 113.166L124.42 113.171ZM126.178 110.243H126.139L124.305 110.436C124.241 110.442 124.178 110.464 124.12 110.5C124.063 110.536 124.012 110.585 123.97 110.646C123.929 110.706 123.897 110.776 123.878 110.851C123.859 110.926 123.852 111.005 123.858 111.084L123.929 112.142C123.941 112.3 124.003 112.446 124.103 112.548C124.203 112.648 124.33 112.698 124.46 112.688L126.293 112.494C126.358 112.488 126.421 112.465 126.479 112.429C126.536 112.393 126.588 112.343 126.63 112.282C126.712 112.16 126.753 112.005 126.744 111.847L126.669 110.794C126.664 110.715 126.645 110.638 126.616 110.567C126.586 110.497 126.545 110.434 126.495 110.383C126.407 110.291 126.294 110.241 126.178 110.243Z" fill="white"/>
<path d="M125.723 111.709C125.675 111.709 125.629 111.687 125.593 111.649C125.557 111.611 125.533 111.559 125.525 111.501C125.518 111.438 125.532 111.374 125.564 111.323C125.596 111.272 125.643 111.239 125.695 111.231L126.452 111.105C126.478 111.1 126.504 111.101 126.529 111.108C126.555 111.115 126.579 111.129 126.6 111.148C126.621 111.167 126.639 111.191 126.652 111.218C126.666 111.246 126.674 111.276 126.677 111.308C126.684 111.372 126.67 111.437 126.638 111.488C126.607 111.54 126.559 111.574 126.507 111.583L125.747 111.709H125.723Z" fill="white"/>
<path opacity="0.2" d="M118.986 89.9805C118.986 89.9805 120.903 98.247 123.219 103.842C123.219 103.842 119.572 95.5463 118.21 89.1543L118.986 89.9805Z" fill="black"/>
<path d="M119.086 91.5214L120.072 89.9512H120.603L121.359 90.9175L121.434 92.019C120.504 92.5263 119.086 92.019 119.086 92.019V91.5214Z" fill="#407BFF"/>
<path d="M120.032 90.3525C120.011 88.3459 119.833 86.3463 119.501 84.3809L120.032 84.6611C120.533 86.6334 120.713 88.7064 120.562 90.7632L120.032 90.3525Z" fill="#407BFF"/>
<path d="M119.363 91.5687C119.363 91.5687 115.636 89.7714 115.28 86.8242L115.019 87.3798C115.019 87.3798 115.906 91.1049 119.826 92.0276L119.363 91.5687Z" fill="#407BFF"/>
<path d="M120.915 91.2902C121.296 91.2158 121.656 91.0296 121.964 90.7476C122.272 90.4656 122.52 90.0964 122.685 89.6717C123.568 87.1931 122.685 83.5551 124.871 81.9414L126.099 82.4729C125.415 83.1084 124.916 83.9937 124.673 84.9997C124.23 87.0772 123.727 92.2178 120.915 92.0246V91.2902Z" fill="#407BFF"/>
<path d="M120.036 81.1035L118.211 86.5727L118.064 87.882L116.769 87.1283L114.682 85.6112C114.682 85.6112 113.756 87.1911 115.304 89.6551L116.769 88.1767L118.824 90.9258L119.407 87.5438L121.802 88.4859C121.802 88.4859 122.761 83.5869 122.761 82.1858L120.036 81.1035Z" fill="#407BFF"/>
<path opacity="0.6" d="M122.76 82.1849C122.76 83.5957 121.798 88.4996 121.798 88.4996L119.398 87.5575L118.82 90.9394L116.765 88.1904L115.3 89.6688C113.752 87.2048 114.674 85.6249 114.674 85.6249L116.765 87.142L118.06 87.8957L118.206 86.5863L120.028 81.1172L122.76 82.1849Z" fill="white"/>
<path opacity="0.2" d="M121.803 88.5023L119.403 87.5601L118.825 90.9276L118.698 86.6953L121.803 88.5023Z" fill="black"/>
<path opacity="0.2" d="M118.824 90.928L116.769 88.179L115.304 89.6574L116.349 87.377L118.824 90.928Z" fill="black"/>
<path d="M108.845 96.2088L105.776 95.7884C105.35 95.3679 104.847 95.0795 104.31 94.9478C102.803 94.9158 101.297 95.0582 99.8118 95.3729C99.4158 95.5613 99.5584 99.441 99.8118 99.5086C100.065 99.5763 104.005 99.6294 104.362 99.5086C104.718 99.3878 105.574 98.2138 105.574 98.2138L108.262 98.7936L108.845 96.2088Z" fill="#EBB376"/>
<path d="M128.64 82.6696C127.373 82.9837 121.512 96.5647 121.512 96.5647L106.429 95.6661L106.203 98.8162C106.203 98.8162 119.719 102.406 122.764 101.715C125.809 101.024 131.302 89.4288 131.63 88.1533C132.379 85.2496 129.492 82.457 128.64 82.6696Z" fill="#407BFF"/>
<path opacity="0.6" d="M128.64 82.6696C127.373 82.9837 121.512 96.5647 121.512 96.5647L106.429 95.6661L106.203 98.8162C106.203 98.8162 119.719 102.406 122.764 101.715C125.809 101.024 131.302 89.4288 131.63 88.1533C132.379 85.2496 129.492 82.457 128.64 82.6696Z" fill="white"/>
<path d="M45.5713 100.442V98.8623H44.7041L45.5713 98.2439H44.9219L45.7891 97.553H46.6128V96.7559H45.6585L46.6128 96.292V94.5672H45.6585V93.4415H44.7041L45.6585 93.0502V92.2481H44.9734L45.5317 91.5669L46.0188 90.9727H60.8213V91.7843H61.7994L60.7104 92.3786V93.0502H62.7063V94.2918H63.5893L62.7063 94.833V96.2244H62.0806V96.8863H60.8213V98.8623H61.5262L60.948 99.5677V100.447L45.5713 100.442Z" fill="#407BFF"/>
<path opacity="0.7" d="M45.5713 100.442V98.8623H44.7041L45.5713 98.2439H44.9219L45.7891 97.553H46.6128V96.7559H45.6585L46.6128 96.292V94.5672H45.6585V93.4415H44.7041L45.6585 93.0502V92.2481H44.9734L45.5317 91.5669L46.0188 90.9727H60.8213V91.7843H61.7994L60.7104 92.3786V93.0502H62.7063V94.2918H63.5893L62.7063 94.833V96.2244H62.0806V96.8863H60.8213V98.8623H61.5262L60.948 99.5677V100.447L45.5713 100.442Z" fill="white"/>
<path opacity="0.1" d="M45.5713 100.442V98.8623H44.7041L45.5713 98.2439H44.9219L45.7891 97.553H46.6128V96.7559H45.6585L46.6128 96.292V94.5672H45.6585V93.4415H44.7041L45.6585 93.0502V92.2481H44.9734L45.5317 91.5669L46.0188 90.9727H53.8161V91.7843H54.7942L53.7052 92.3786V93.0502H55.701V94.2918H56.5841L55.701 94.833V96.2244H55.0753V96.8863H53.8161V98.8623H54.5209L53.9428 99.5677V100.447L45.5713 100.442Z" fill="black"/>
<path opacity="0.1" d="M60.7113 93.0475H53.7061L60.7113 92.7383V93.0475Z" fill="black"/>
<path opacity="0.1" d="M60.8221 96.8848H53.8168L53.7852 97.4839L60.8221 96.8848Z" fill="black"/>
<path opacity="0.1" d="M62.0814 96.2227H55.0762L62.0814 96.5222V96.2227Z" fill="black"/>
<path opacity="0.1" d="M60.8216 98.8618H53.8164L60.8216 98.543V98.8618Z" fill="black"/>
<path opacity="0.1" d="M60.9486 99.5664H53.9434V99.8901L60.9486 99.5664Z" fill="black"/>
<path opacity="0.1" d="M62.7074 94.292H55.7021L62.7074 94.0215V94.292Z" fill="black"/>
<path opacity="0.1" d="M60.8216 91.7839H53.8164L60.8216 91.4844V91.7839Z" fill="black"/>
<path opacity="0.1" d="M45.6582 92.248H52.7624L45.6582 92.5138V92.248Z" fill="black"/>
<path opacity="0.1" d="M53.7049 93.0488H45.6582L52.9525 93.3387L53.7049 93.0488Z" fill="black"/>
<path opacity="0.1" d="M55.7008 94.291L45.6582 94.5664V94.291H55.7008Z" fill="black"/>
<path opacity="0.1" d="M55.7012 94.832H50.7354L55.7012 95.1316V94.832Z" fill="black"/>
<path opacity="0.1" d="M46.6143 96.2892L53.8175 96.2215L46.6143 96.0234V96.2892Z" fill="black"/>
<path opacity="0.1" d="M46.6143 96.7539H53.9442L46.6143 97.0535V96.7539Z" fill="black"/>
<path opacity="0.1" d="M45.5723 98.2422H53.7061V98.5417L45.5723 98.2422Z" fill="black"/>
<path opacity="0.1" d="M45.5723 98.8613H51.4687L45.5723 99.0594V98.8613Z" fill="black"/>
<path d="M87.0098 100.746L87.3345 99.248H100.699L106.853 99.9969L107.087 100.746H87.0098Z" fill="#263238"/>
<path opacity="0.4" d="M100.699 99.248V100.746H87.0098L87.3345 99.248H100.699Z" fill="black"/>
<path d="M58.2359 82.6189L61.1623 98.8041C61.2148 99.0645 61.3366 99.2963 61.5085 99.4633C61.6805 99.6302 61.893 99.7229 62.1127 99.7269H71.5731C71.6729 99.7241 71.7708 99.6931 71.8591 99.6364C71.9474 99.5797 72.0237 99.4987 72.082 99.3999C72.1403 99.3011 72.1791 99.1872 72.1952 99.0671C72.2114 98.9469 72.2045 98.8238 72.1751 98.7075L69.2526 82.6479C69.1932 82.4025 69.0661 82.1897 68.893 82.0453C68.7198 81.901 68.5112 81.8339 68.3022 81.8555H58.8417C58.4101 81.87 58.1408 82.1068 58.2359 82.6189Z" fill="#263238"/>
<path opacity="0.4" d="M58.7788 82.6189L61.7013 98.8041C61.7538 99.0645 61.8755 99.2963 62.0475 99.4633C62.2195 99.6302 62.4319 99.7229 62.6517 99.7269H71.5736C71.673 99.7232 71.7705 99.6915 71.8583 99.6345C71.9462 99.5775 72.0221 99.4966 72.0803 99.3981C72.1385 99.2996 72.1773 99.1861 72.1938 99.0663C72.2103 98.9466 72.204 98.8238 72.1755 98.7075L69.253 82.6479C69.1936 82.4025 69.0666 82.1897 68.8934 82.0453C68.7202 81.901 68.5116 81.8339 68.3026 81.8555H59.4005C58.953 81.87 58.6838 82.1068 58.7788 82.6189Z" fill="white"/>
<path d="M62.7305 98.6719V100.174C62.7305 100.556 63.1027 100.716 63.4116 100.716H85.3025C85.6153 100.716 85.9955 100.556 85.9955 100.174V98.6719H62.7305Z" fill="#263238"/>
<path opacity="0.2" d="M85.9955 98.6719V100.174C85.9955 100.556 85.6232 100.716 85.3143 100.716H63.4274C63.1106 100.716 62.7305 100.556 62.7305 100.174V98.6719H85.9955Z" fill="white"/>
<path opacity="0.4" d="M85.9962 98.6719V100.174C85.9962 100.556 85.624 100.716 85.3151 100.716H75.2409C74.9241 100.716 74.5479 100.556 74.5479 100.174V98.6719H85.9962Z" fill="black"/>
<path d="M71.644 97.4846L68.9868 82.9082H59.3086L61.942 97.4846H71.644Z" fill="#407BFF"/>
<path d="M98.0147 92.0686C98.034 92.2514 98.0209 92.4372 97.9762 92.6133C97.9315 92.7894 97.8562 92.9517 97.7556 93.0892C97.6549 93.2267 97.5312 93.3361 97.3928 93.4101C97.2544 93.4841 97.1045 93.5209 96.9534 93.518H76.4802C76.1579 93.5103 75.8491 93.3585 75.6126 93.0912C75.376 92.824 75.2282 92.4601 75.1972 92.0686L73.9815 76.0766C73.9657 75.9151 73.9738 75.7515 74.0052 75.5935C74.0633 75.3131 74.1975 75.065 74.3859 74.8896C74.5743 74.7141 74.8058 74.6216 75.0428 74.6272H95.516C95.8383 74.6348 96.1471 74.7867 96.3836 75.0539C96.6202 75.3212 96.768 75.6851 96.799 76.0766L98.0147 92.0686Z" fill="#263238"/>
<path opacity="0.4" d="M96.8782 93.5027H76.4802C76.1579 93.495 75.8491 93.3431 75.6126 93.0759C75.376 92.8087 75.2282 92.4447 75.1972 92.0532L73.9815 76.0613C73.9657 75.8998 73.9738 75.7362 74.0052 75.5781H94.4072C94.729 75.5879 95.0368 75.7404 95.273 76.0073C95.5092 76.2741 95.6575 76.6368 95.6902 77.0275L96.9059 93.0195C96.9206 93.1813 96.9112 93.345 96.8782 93.5027Z" fill="black"/>
<path d="M82.8123 83.6953H87.0495L85.9209 98.4891L92.6172 99.7163V100.745H78.5117V99.7163L81.4025 98.4891L82.8123 83.6953Z" fill="#263238"/>
<path opacity="0.1" d="M87.0493 83.6953L83.913 100.513L81.4023 100.422L82.8121 83.6953H87.0493Z" fill="white"/>
<path d="M72.9192 175.499H70.5749L66.3535 103.863H69.47L72.9192 175.499Z" fill="#263238"/>
<path opacity="0.1" d="M72.9232 175.497H70.5749L66.5634 107.417L66.3535 103.973H69.47L69.6364 107.417L72.9232 175.497Z" fill="white"/>
<path opacity="0.2" d="M69.6364 107.248H66.5634L66.3535 103.973H69.47L69.6364 107.248Z" fill="black"/>
<path d="M101.642 175.499H99.2932L98.9131 103.863H102.026L101.642 175.499Z" fill="#263238"/>
<path opacity="0.1" d="M102.026 103.973L101.966 115.534L101.645 175.497H99.2932L98.9725 115.534L98.9131 103.973H102.026Z" fill="white"/>
<path opacity="0.2" d="M102.026 103.973L101.966 115.66H98.9725L98.9131 103.973H102.026Z" fill="black"/>
<path d="M126.562 175.499H124.217L119.996 103.863H123.113L126.562 175.499Z" fill="#263238"/>
<path opacity="0.1" d="M126.566 175.497H124.217L120.202 107.417L119.996 103.973H123.113L123.279 107.417L126.566 175.497Z" fill="white"/>
<path opacity="0.2" d="M123.279 107.248H120.202L119.996 103.973H123.113L123.279 107.248Z" fill="black"/>
<path d="M46.067 175.499H43.7227L47.1718 103.863H50.2844L46.067 175.499Z" fill="#263238"/>
<path opacity="0.1" d="M50.2844 103.973L50.0785 107.417L46.067 175.497H43.7227L47.0015 107.417L47.1718 103.973H50.2844Z" fill="white"/>
<path opacity="0.2" d="M47.1722 103.973H50.2848L50.0789 107.248H47.002L47.1722 103.973Z" fill="black"/>
<path d="M44.7044 102.064H125.579V104.606C125.579 104.883 125.489 105.148 125.329 105.344C125.169 105.539 124.951 105.649 124.724 105.649H45.5399C45.3131 105.649 45.0955 105.539 44.9351 105.344C44.7747 105.148 44.6846 104.883 44.6846 104.606V102.064H44.7044Z" fill="#407BFF"/>
<path opacity="0.4" d="M44.7044 102.064H125.579V104.606C125.579 104.883 125.489 105.148 125.329 105.344C125.169 105.539 124.951 105.649 124.724 105.649H45.5399C45.3131 105.649 45.0955 105.539 44.9351 105.344C44.7747 105.148 44.6846 104.883 44.6846 104.606V102.064H44.7044Z" fill="white"/>
<path opacity="0.2" d="M125.583 102.064H44.7041V103.857H125.583V102.064Z" fill="black"/>
<path d="M127.037 102.533H43.2476C43.0284 102.532 42.8185 102.425 42.6635 102.236C42.5085 102.047 42.421 101.791 42.4199 101.523C42.4199 101.256 42.5071 100.999 42.6623 100.809C42.8175 100.62 43.0281 100.514 43.2476 100.514H127.037C127.257 100.514 127.467 100.62 127.622 100.809C127.778 100.999 127.865 101.256 127.865 101.523C127.864 101.791 127.776 102.047 127.621 102.236C127.466 102.425 127.256 102.532 127.037 102.533Z" fill="#407BFF"/>
<path opacity="0.4" d="M127.037 102.533H43.2476C43.0284 102.532 42.8185 102.425 42.6635 102.236C42.5085 102.047 42.421 101.791 42.4199 101.523C42.4199 101.256 42.5071 100.999 42.6623 100.809C42.8175 100.62 43.0281 100.514 43.2476 100.514H127.037C127.257 100.514 127.467 100.62 127.622 100.809C127.778 100.999 127.865 101.256 127.865 101.523C127.864 101.791 127.776 102.047 127.621 102.236C127.466 102.425 127.256 102.532 127.037 102.533Z" fill="white"/>
<path d="M106.77 95.9531V96.2913L105.816 96.7551H106.77V97.5523H105.946L105.075 98.2432H105.729L104.861 98.8616H105.729V100.442L121.105 100.446V99.567L121.683 98.8616H120.975V96.8856H122.238V96.2237H122.863V95.9531H106.77Z" fill="#407BFF"/>
<path opacity="0.9" d="M106.77 95.9531V96.2913L105.816 96.7551H106.77V97.5523H105.946L105.075 98.2432H105.729L104.861 98.8616H105.729V100.442L121.105 100.446V99.567L121.683 98.8616H120.975V96.8856H122.238V96.2237H122.863V95.9531H106.77Z" fill="white"/>
<path opacity="0.1" d="M106.77 95.9531V96.2913L105.816 96.7551H106.77V97.5523H105.946L105.075 98.2432H105.729L104.861 98.8616H105.729V100.442L114.1 100.446V99.567L114.678 98.8616H113.969V96.8856H115.233V96.2237H115.858V95.9531H106.77Z" fill="black"/>
<path opacity="0.1" d="M120.974 96.8848H113.969L113.941 97.4839L120.974 96.8848Z" fill="black"/>
<path opacity="0.1" d="M122.238 96.2227H115.232L122.238 96.5222V96.2227Z" fill="black"/>
<path opacity="0.1" d="M120.974 98.8618H113.969L120.974 98.543V98.8618Z" fill="black"/>
<path opacity="0.1" d="M121.105 99.5664H114.1V99.8901L121.105 99.5664Z" fill="black"/>
<path opacity="0.1" d="M106.77 96.2892L113.969 96.2215L106.77 96.0234V96.2892Z" fill="black"/>
<path opacity="0.1" d="M106.77 96.7539H114.099L106.77 97.0535V96.7539Z" fill="black"/>
<path opacity="0.1" d="M105.728 98.2422H113.861V98.5417L105.728 98.2422Z" fill="black"/>
<path opacity="0.1" d="M105.728 98.8613H111.62L105.728 99.0594V98.8613Z" fill="black"/>
</svg>
