<svg width="174" height="186" viewBox="0 0 174 186" fill="none" xmlns="http://www.w3.org/2000/svg">
<path d="M89.3432 182.369C127.914 182.369 159.182 177.855 159.182 172.288C159.182 166.72 127.914 162.207 89.3432 162.207C50.772 162.207 19.5039 166.72 19.5039 172.288C19.5039 177.855 50.772 182.369 89.3432 182.369Z" fill="#EBEBEB"/>
<path d="M5.48633 156.367L26.4509 156.268L47.4154 156.231L89.3446 156.16L131.274 156.231L152.238 156.268L173.203 156.367L152.238 156.471L131.274 156.504L89.3446 156.575L47.4154 156.504L26.4509 156.471L5.48633 156.367Z" fill="#263238"/>
<path d="M26.0165 82.5382C26.0165 82.5382 35.6954 81.0868 33.4305 68.5801C33.4305 68.5801 22.6211 71.176 26.0165 82.5382Z" fill="#907ECF"/>
<path opacity="0.1" d="M26.0165 82.5382C26.0165 82.5382 35.6954 81.0868 33.4305 68.5801C33.4305 68.5801 22.6211 71.176 26.0165 82.5382Z" fill="black"/>
<path d="M26.5084 79.9293C26.6984 79.2958 26.9181 78.673 27.1666 78.0632C27.1666 77.9844 27.1666 77.9015 27.1898 77.8268C27.1898 77.6527 27.2208 77.4827 27.2324 77.3085C27.2595 76.9353 27.2788 76.5621 27.3021 76.1889C27.3408 75.4424 27.3872 74.6919 27.3989 73.9454C27.3989 73.904 27.4569 73.9081 27.4569 73.9454C27.4569 74.696 27.4569 75.4424 27.4569 76.193C27.4569 76.5662 27.426 76.9394 27.4027 77.3126C27.4027 77.3956 27.4027 77.4785 27.4027 77.5614C27.9455 76.3161 28.5935 75.1266 29.3385 74.0076C29.6715 73.51 30.0251 73.0318 30.3993 72.5728C30.7865 72.1001 31.1736 71.6481 31.5608 71.1795C31.5879 71.1505 31.6305 71.1795 31.6034 71.2293C30.9078 72.0517 30.2832 72.94 29.7373 73.8832C29.4431 74.3601 29.1682 74.8494 28.901 75.3471L28.9939 75.3097C29.1062 75.2558 29.2224 75.2061 29.3385 75.1605C29.5979 75.0485 29.8612 74.9448 30.1128 74.837C30.6316 74.6338 31.1504 74.4223 31.6615 74.2191C31.6924 74.2191 31.7118 74.2647 31.6615 74.2772C31.1465 74.497 30.6394 74.7292 30.1128 74.9656L29.3656 75.3097L28.9785 75.4756C28.8975 75.519 28.8116 75.551 28.7229 75.571C28.5294 75.9483 28.3358 76.3257 28.1577 76.7072C27.7079 77.6764 27.3123 78.6734 26.973 79.6929L26.9033 79.9085C27.1513 79.7496 27.4101 79.611 27.6776 79.4939L28.6804 79.0045C29.3579 78.6728 30.0315 78.3328 30.682 77.9388C30.6891 77.9344 30.6977 77.9332 30.7057 77.9356C30.7136 77.9379 30.7204 77.9435 30.7245 77.9512C30.7286 77.9589 30.7297 77.9681 30.7276 77.9766C30.7254 77.9852 30.7201 77.9925 30.7129 77.9969C30.047 78.3867 29.3966 78.7972 28.7307 79.187C28.3977 79.3777 28.0609 79.5685 27.7202 79.7468C27.4363 79.9236 27.1298 80.0549 26.8104 80.1366C26.5078 81.0878 26.3154 82.0752 26.2374 83.0767C26.1329 84.4907 26.1445 85.9172 26.1135 87.3355H26.0787C25.9819 86.0499 25.9277 84.752 25.9199 83.4623C25.9384 82.2585 26.1371 81.0657 26.5084 79.9293Z" fill="#263238"/>
<path d="M27.9997 72.5691C28.0924 73.3 28.1235 74.0383 28.0926 74.7752H28.0655C28.0268 74.0454 28.019 73.3155 27.9416 72.5857C27.9377 72.5442 27.9919 72.5318 27.9997 72.5691Z" fill="#263238"/>
<path d="M30.7634 73.1952C31.1963 73.0186 31.6136 72.8007 32.0101 72.5442C32.0411 72.5193 32.0682 72.5773 32.0372 72.5981C31.6488 72.873 31.2249 73.0853 30.7789 73.2284C30.7557 73.2491 30.7402 73.2284 30.7634 73.1952Z" fill="#263238"/>
<path d="M25.7113 102.401C25.7113 101.256 25.7384 100.112 25.75 98.9632C25.7694 95.1606 25.8004 91.358 25.8623 87.5554C25.9114 84.5365 25.9772 81.5176 26.0598 78.4988C26.0607 78.4905 26.0637 78.4826 26.0684 78.476C26.0732 78.4695 26.0796 78.4644 26.0869 78.4614C26.0869 77.6321 26.0869 76.8027 26.0869 75.9734C26.0869 75.9526 26.1101 75.9443 26.1333 75.9443C26.1566 75.9443 26.1798 75.9443 26.1798 75.9775V78.4656C26.1863 78.4691 26.1919 78.4744 26.196 78.481C26.2 78.4875 26.2025 78.4951 26.203 78.5029C26.3463 83.8937 26.474 89.2514 26.5011 94.6257C26.5011 95.7163 26.5011 96.811 26.5011 97.9016C26.5373 101.404 26.5489 104.908 26.536 108.414C26.536 108.974 26.536 109.529 26.536 110.072C26.536 113.278 26.505 116.483 26.505 119.689C26.505 119.863 26.3269 119.946 26.1178 119.954C25.9088 119.963 25.6687 119.871 25.6687 119.672C25.6687 116.139 25.6455 112.602 25.6455 109.069C25.7036 106.859 25.6958 104.628 25.7113 102.401Z" fill="#263238"/>
<path d="M29.7497 98.9384C29.7497 98.9384 34.3956 95.2436 38.8208 97.74C43.246 100.236 43.9313 109.853 43.9313 109.853C43.9313 109.853 37.4464 110.848 33.3619 106.685C29.4245 102.671 29.7497 98.9384 29.7497 98.9384Z" fill="#907ECF"/>
<path d="M28.4835 99.1504C29.3432 98.784 30.275 98.6543 31.1936 98.7731C31.3815 98.7373 31.5718 98.7179 31.7627 98.715L32.4209 98.6611L33.7759 98.5574C34.6935 98.4828 35.6149 98.4247 36.5325 98.3252C36.5635 98.3252 36.5712 98.3833 36.5325 98.3874C35.6227 98.5118 34.7206 98.6487 33.8224 98.7482C33.3539 98.7979 32.8893 98.8518 32.417 98.885L32.0453 98.9389C32.1847 98.9721 32.3241 99.0053 32.4596 99.0467C33.1906 99.2751 33.8977 99.5836 34.5696 99.9673C34.9567 100.038 35.3013 100.146 35.6614 100.237C36.2344 100.382 36.8228 100.54 37.3804 100.701C38.5109 101.021 39.6297 101.377 40.7525 101.726C40.7584 101.728 40.7635 101.732 40.7671 101.738C40.7708 101.743 40.7727 101.75 40.7727 101.757C40.7727 101.763 40.7708 101.77 40.7671 101.776C40.7635 101.781 40.7584 101.785 40.7525 101.788C39.6336 101.493 38.507 101.224 37.3842 100.938C36.8383 100.797 36.2924 100.66 35.7466 100.523L35.3207 100.419C36.5701 101.249 37.6866 102.29 38.627 103.5C39.5363 104.691 40.3085 105.994 40.9267 107.382C40.9267 107.419 40.8957 107.452 40.8764 107.415C40.1085 105.986 39.1701 104.67 38.085 103.5C38.1082 103.567 38.1276 103.633 38.1469 103.699C38.2321 103.994 38.3173 104.288 38.4063 104.579C38.5767 105.167 38.7509 105.752 38.9174 106.345C38.9174 106.382 38.8709 106.395 38.8593 106.345C38.6618 105.777 38.4721 105.205 38.2902 104.632L38.0114 103.803L37.872 103.368C37.872 103.322 37.8411 103.276 37.8295 103.231C37.3103 102.69 36.758 102.187 36.1763 101.726C35.4096 101.12 34.5809 100.611 33.7062 100.208L33.7527 100.465L33.8921 101.145C33.9811 101.618 34.0663 102.09 34.1553 102.563C34.3296 103.529 34.438 104.504 34.6083 105.466C34.6083 105.507 34.558 105.52 34.5502 105.466C34.3412 104.496 34.0702 103.542 33.8688 102.563C33.7682 102.078 33.6675 101.593 33.5707 101.104L33.443 100.419C33.4197 100.295 33.3926 100.166 33.3772 100.038C33.292 100.001 33.2107 99.959 33.1255 99.9259C31.9021 99.4407 30.5548 99.0965 29.2539 99.3578C28.6381 99.4809 28.0601 99.7648 27.5712 100.184C27.0823 100.604 26.6975 101.146 26.4509 101.763C26.4083 101.871 26.2496 101.804 26.2728 101.692C26.5245 100.498 27.4614 99.6107 28.4835 99.1504Z" fill="#263238"/>
<path d="M35.6064 103.255C35.738 103.889 35.8696 104.499 35.9935 105.15C36.1402 105.757 36.2489 106.373 36.3187 106.995C36.3187 107.02 36.2878 107.02 36.2839 106.995C36.1161 106.386 35.9868 105.765 35.8967 105.138C35.7845 104.516 35.6683 103.894 35.556 103.267C35.5289 103.23 35.5986 103.218 35.6064 103.255Z" fill="#263238"/>
<path d="M40.1063 104.864C40.6987 105.183 41.2678 105.548 41.895 105.813C41.9337 105.813 41.895 105.892 41.8679 105.871C41.2613 105.576 40.6694 105.246 40.0947 104.885C40.0947 104.885 40.0947 104.856 40.1063 104.864Z" fill="#263238"/>
<path d="M28.704 92.1376C28.704 92.1376 34.3914 92.5274 37.0395 88.5091C39.6877 84.4909 39.0915 78.7559 39.0915 78.7559C39.0915 78.7559 33.1137 79.5355 30.7443 82.4175C28.3749 85.2995 28.704 92.1376 28.704 92.1376Z" fill="#907ECF"/>
<path d="M26.0371 98.1509C26.2307 97.4957 26.4784 96.853 26.7069 96.2144C26.9353 95.5758 27.1637 94.9703 27.4154 94.3898C27.9234 93.1613 28.492 91.9625 29.1189 90.7987C29.506 90.0605 29.9512 89.3431 30.3926 88.634C30.3926 88.5262 30.4236 88.4184 30.4391 88.3064C30.4623 88.1198 30.4894 87.9291 30.5165 87.7425C30.5746 87.3568 30.6365 86.9712 30.6946 86.5855C30.8262 85.7562 30.9888 84.9268 31.1127 84.0684C31.1127 84.0269 31.1785 84.0311 31.1747 84.0684C31.0585 84.8978 30.9811 85.7271 30.8727 86.5565C30.8185 86.9712 30.7682 87.3858 30.7101 87.8005C30.7101 87.9457 30.6675 88.0949 30.6443 88.2401C31.5137 86.8828 32.4534 85.5787 33.4589 84.3338C33.5944 84.1638 33.7376 84.0021 33.8732 83.8362C33.8732 83.7864 33.9119 83.7408 33.9274 83.6952C33.9699 83.5791 34.0125 83.463 34.0512 83.3469C34.1364 83.1063 34.2177 82.8617 34.299 82.6212C34.4578 82.1443 34.601 81.6633 34.721 81.1698C34.7244 81.1628 34.73 81.1572 34.7369 81.1543C34.7437 81.1513 34.7513 81.151 34.7584 81.1535C34.7654 81.156 34.7713 81.1611 34.7751 81.1679C34.7789 81.1747 34.7803 81.1827 34.7791 81.1905C34.6629 81.6881 34.5429 82.1899 34.3919 82.6834C34.3261 82.9197 34.2526 83.1561 34.1751 83.3925C34.1751 83.4298 34.148 83.4671 34.1364 83.5086C34.8643 82.6585 35.6192 81.8499 36.3858 81.0205C36.3917 81.0166 36.3987 81.015 36.4056 81.0159C36.4125 81.0167 36.419 81.0201 36.4239 81.0253C36.4288 81.0306 36.4319 81.0375 36.4327 81.0449C36.4335 81.0523 36.432 81.0598 36.4284 81.0661C34.9582 82.7132 33.6106 84.4809 32.3981 86.3533C32.5367 86.3077 32.6776 86.2703 32.8201 86.2413C33.2576 86.1501 33.6989 86.0838 34.1403 86.0216C35.0656 85.8971 35.9909 85.7686 36.9123 85.6069C36.951 85.6069 36.9665 85.6608 36.9123 85.6691C36.0296 85.8557 35.1585 86.0837 34.2835 86.2828C33.8693 86.3823 33.455 86.4694 33.0408 86.5565C32.7018 86.6348 32.3681 86.7374 32.0419 86.8634C31.949 87.0043 31.8522 87.1412 31.7631 87.278C31.345 87.9291 30.9462 88.5926 30.5513 89.2643L31.1321 89.1441C31.5734 89.0529 32.0148 88.9658 32.4562 88.887C33.3234 88.7336 34.1906 88.5718 35.0462 88.3645C35.085 88.3645 35.1004 88.4184 35.0462 88.4267C34.1751 88.6465 33.3156 88.8994 32.4523 89.1482C32.0342 89.2643 31.616 89.3722 31.194 89.4717L30.563 89.621C30.4789 89.6429 30.3935 89.6581 30.3074 89.6666C29.4738 91.1097 28.6994 92.5859 27.9845 94.0954C27.667 94.7589 27.365 95.4265 27.0669 96.0983C26.7688 96.77 26.5017 97.4999 26.2229 98.2007C26.1958 98.3624 25.9906 98.3044 26.0371 98.1509Z" fill="#263238"/>
<path d="M31.8554 84.1466C31.9638 83.566 32.0799 82.9855 32.1999 82.4091C32.1999 82.3676 32.2619 82.4091 32.258 82.4091C32.1496 82.9813 32.0451 83.5536 31.9483 84.1258C31.8684 84.7008 31.7612 85.271 31.627 85.8343C31.6671 85.2668 31.7434 84.7029 31.8554 84.1466Z" fill="#263238"/>
<path d="M35.1737 83.9808C35.437 83.8398 35.7157 83.7237 35.9906 83.6118L36.4242 83.4293L36.6449 83.3339C36.7288 83.307 36.8094 83.2694 36.885 83.222C36.9275 83.1888 36.9547 83.2676 36.9121 83.2759C36.8271 83.3014 36.7452 83.3376 36.6682 83.3837L36.4513 83.4874L36.0371 83.6823C35.7641 83.8193 35.4835 83.9384 35.197 84.0389C35.1904 84.0396 35.1839 84.038 35.1782 84.0344C35.1726 84.0308 35.1682 84.0254 35.1656 84.0189C35.163 84.0125 35.1624 84.0053 35.1639 83.9985C35.1653 83.9916 35.1688 83.9854 35.1737 83.9808Z" fill="#263238"/>
<path d="M22.8808 87.3485C22.8808 87.3485 19.439 80.4607 14.2008 79.395C8.96253 78.3292 5.76074 84.1016 5.76074 84.1016C5.76074 84.1016 9.58972 89.3266 14.3866 90.2306C19.1835 91.1346 22.8808 87.3485 22.8808 87.3485Z" fill="#907ECF"/>
<path d="M10.6928 82.4796C12.0572 82.2839 13.441 82.3021 14.8005 82.5335L14.5682 82.4008C14.1811 82.1893 13.7939 81.9861 13.4068 81.758C12.6079 81.2856 11.7874 80.8566 10.9483 80.4725C10.9439 80.4713 10.9397 80.469 10.9362 80.4658C10.9326 80.4626 10.9298 80.4586 10.9279 80.4541C10.926 80.4496 10.9251 80.4447 10.9252 80.4398C10.9252 80.4348 10.9264 80.43 10.9284 80.4256C10.9305 80.4211 10.9334 80.4173 10.9371 80.4142C10.9407 80.4112 10.9449 80.4091 10.9494 80.408C10.954 80.4069 10.9586 80.407 10.9631 80.4081C10.9676 80.4092 10.9718 80.4114 10.9754 80.4144C11.7923 80.8291 12.6402 81.165 13.4648 81.5714C13.8752 81.7746 14.2779 81.9861 14.6805 82.21C14.936 82.3593 15.2225 82.4961 15.4781 82.6703C16.6274 82.9199 17.7441 83.3181 18.8037 83.8563C18.5869 83.6033 18.3701 83.3462 18.1494 83.0933C17.6616 82.521 17.1815 81.9197 16.6473 81.3972C16.6202 81.3724 16.6473 81.3267 16.6899 81.3558C17.2357 81.8866 17.8165 82.38 18.3469 82.9357C18.6063 83.2052 18.8502 83.4831 19.0941 83.7651C19.2141 83.9102 19.3341 84.0553 19.4464 84.2088C21.2458 85.2414 22.8085 86.6892 24.0217 88.4476C25.235 90.2061 26.0684 92.2312 26.4617 94.3767C26.4617 94.414 26.4191 94.4348 26.4075 94.3975C25.6699 91.7699 24.3495 89.3725 22.5592 87.4101C20.6333 85.305 18.2078 83.8025 15.5439 83.0643C13.9631 82.6322 12.3282 82.4726 10.7005 82.5915C10.6888 82.5892 10.6781 82.5827 10.6701 82.5732C10.6621 82.5636 10.6573 82.5515 10.6564 82.5387C10.6555 82.5259 10.6586 82.5132 10.6652 82.5025C10.6718 82.4918 10.6815 82.4837 10.6928 82.4796Z" fill="#263238"/>
<path opacity="0.1" d="M5.76074 84.1011C5.76074 84.1011 9.58972 89.326 14.3866 90.23C18.053 90.9226 21.0689 88.8782 22.2923 87.8705L22.5556 87.4019C22.5556 87.4019 20.0778 85.1627 15.3893 83.873C10.7009 82.5833 5.76074 84.1011 5.76074 84.1011Z" fill="black"/>
<path d="M13.7357 80.0251C14.136 80.2797 14.5237 80.5566 14.8972 80.8544C15.2619 81.1491 15.6002 81.4795 15.9077 81.8414C15.9133 81.848 15.9163 81.8567 15.9159 81.8657C15.9155 81.8746 15.9119 81.883 15.9057 81.8891C15.8996 81.8951 15.8914 81.8983 15.8831 81.8979C15.8747 81.8975 15.8668 81.8936 15.8612 81.887C15.5166 81.5635 15.1643 81.2401 14.8043 80.9332C14.453 80.6343 14.0858 80.3574 13.7047 80.1039C13.6699 80.0583 13.7009 80.0043 13.7357 80.0251Z" fill="#263238"/>
<path d="M10.8603 81.1902C11.0539 81.2773 11.2475 81.3519 11.4488 81.439L12.0295 81.7003C12.0721 81.7003 12.0528 81.7915 12.0295 81.7708L11.4256 81.522C11.232 81.439 11.0384 81.3395 10.8448 81.2566C10.81 81.2358 10.8255 81.1778 10.8603 81.1902Z" fill="#263238"/>
<path d="M23.5702 96.0357C23.5702 96.0357 22.6488 102.87 17.8519 105.258C13.0551 107.647 7.20898 105.258 7.20898 105.258C7.20898 105.258 9.5087 90.4582 23.5702 96.0357Z" fill="#907ECF"/>
<path d="M10.5147 100.792C10.956 100.738 11.3974 100.659 11.8349 100.572L12.4776 100.444L12.8144 100.369C12.9421 100.241 13.0699 100.112 13.2015 99.9835C14.1114 99.1247 15.0939 98.3584 16.1362 97.6945C16.7038 97.3355 17.2907 97.0129 17.8939 96.7283H17.8048L16.2252 96.8029C15.1722 96.8527 14.1191 96.8775 13.0699 96.9522C13.0652 96.954 13.0602 96.9547 13.0552 96.954C13.0503 96.9533 13.0455 96.9514 13.0414 96.9483C13.0373 96.9453 13.034 96.9412 13.0317 96.9364C13.0294 96.9317 13.0282 96.9264 13.0282 96.9211C13.0282 96.9157 13.0294 96.9105 13.0317 96.9057C13.034 96.901 13.0373 96.8969 13.0414 96.8938C13.0455 96.8908 13.0503 96.8888 13.0552 96.8882C13.0602 96.8875 13.0652 96.8881 13.0699 96.89C14.1268 96.8112 15.176 96.6868 16.2291 96.5914L17.7777 96.4421L18.5521 96.3716L18.7534 96.3467C19.0283 96.2389 19.3031 96.1353 19.5819 96.0399C20.8892 95.5606 22.295 95.4788 23.6432 95.8035C24.8511 96.1311 26.0552 96.9812 26.3533 98.3414C26.3533 98.387 26.2952 98.4202 26.2758 98.3745C25.8267 97.2342 24.6459 96.6619 23.5657 96.4255C22.8493 96.2798 22.115 96.2644 21.3938 96.3799C21.3427 96.7315 21.2611 97.0772 21.1499 97.4125C21.0182 97.8935 20.8866 98.3745 20.7627 98.8556C20.4917 99.8135 20.1897 100.763 19.9265 101.725C19.9243 101.731 19.9203 101.737 19.9151 101.741C19.9099 101.745 19.9037 101.747 19.8974 101.747C19.8911 101.747 19.8849 101.745 19.8797 101.741C19.8745 101.737 19.8706 101.731 19.8684 101.725C20.0929 100.767 20.2788 99.7969 20.4956 98.8224L20.8208 97.4083C20.8912 97.0834 20.9804 96.7635 21.0879 96.4504C20.6676 96.5306 20.2514 96.6344 19.8413 96.7614C19.1014 96.9974 18.376 97.2827 17.6693 97.6157C17.5996 98.105 17.4951 98.586 17.3906 99.067C17.2628 99.6683 17.1157 100.265 16.9376 100.854C16.9376 100.862 16.9348 100.869 16.9297 100.875C16.9246 100.88 16.9177 100.883 16.9105 100.883C16.9033 100.883 16.8964 100.88 16.8913 100.875C16.8863 100.869 16.8834 100.862 16.8834 100.854C16.8852 100.817 16.8852 100.78 16.8834 100.742C16.9879 100.183 17.1041 99.6269 17.2164 99.0836C17.3054 98.6358 17.3867 98.1838 17.4758 97.7318C16.8795 98.0221 16.2949 98.3331 15.7297 98.6814C15.7297 98.8224 15.6832 98.9634 15.6677 99.0961C15.6329 99.3283 15.5903 99.5605 15.5516 99.7969C15.4625 100.324 15.3619 100.85 15.2457 101.369C15.0346 102.372 14.767 103.361 14.4443 104.329C14.4484 104.335 14.4507 104.341 14.4507 104.348C14.4507 104.355 14.4484 104.361 14.4443 104.367L14.4172 104.4C14.394 104.429 14.363 104.4 14.3669 104.371C14.5876 103.355 14.8431 102.351 15.0522 101.335C15.1528 100.829 15.2573 100.324 15.3541 99.8135C15.4006 99.5605 15.4432 99.3034 15.4896 99.0463C15.4896 98.9758 15.5129 98.897 15.5245 98.8182C14.8781 99.2252 14.2538 99.671 13.6545 100.154C12.6211 100.985 11.6644 101.921 10.7973 102.948C10.7625 102.99 10.6928 102.948 10.7276 102.886C11.0908 102.368 11.4784 101.869 11.8891 101.393C12.1291 101.116 12.3808 100.85 12.6363 100.589H12.555L11.8813 100.701C11.4361 100.763 10.9909 100.809 10.5456 100.863C10.4914 100.858 10.476 100.796 10.5147 100.792Z" fill="#263238"/>
<path d="M13.884 103.111C13.884 103.052 13.884 102.99 13.9111 102.932C13.9346 102.859 13.954 102.784 13.9692 102.708C14.066 102.252 14.1512 101.792 14.2286 101.327C14.2286 101.298 14.2789 101.307 14.2789 101.327C14.2497 101.94 14.1268 102.544 13.915 103.115C13.915 103.115 13.8763 103.115 13.8802 103.115L13.884 103.111Z" fill="#263238"/>
<path d="M17.8984 103.003C17.8994 102.995 17.9031 102.987 17.9088 102.982C17.9145 102.976 17.9218 102.974 17.9294 102.974C18.061 102.368 18.1927 101.763 18.3166 101.153C18.3785 100.834 18.4405 100.51 18.4985 100.191C18.5295 100.017 18.5566 99.8469 18.5876 99.6727C18.5991 99.5201 18.633 99.3703 18.6882 99.229C18.6909 99.2239 18.6948 99.2195 18.6996 99.2165C18.7044 99.2135 18.7098 99.2119 18.7153 99.2119C18.7209 99.2119 18.7263 99.2135 18.7311 99.2165C18.7358 99.2195 18.7398 99.2239 18.7424 99.229C18.7484 99.5394 18.7079 99.8488 18.6224 100.145C18.5643 100.477 18.5024 100.813 18.4366 101.145C18.2972 101.817 18.1385 102.488 17.9604 103.152C17.9604 103.161 17.9571 103.169 17.9513 103.175C17.9455 103.182 17.9376 103.185 17.9294 103.185C17.9212 103.185 17.9133 103.182 17.9075 103.175C17.9017 103.169 17.8984 103.161 17.8984 103.152V103.003Z" fill="#263238"/>
<path d="M10.9523 98.8266C11.8273 98.698 12.7022 98.5612 13.5811 98.4492C13.6159 98.4492 13.6314 98.5031 13.5811 98.5073C12.71 98.6483 11.8311 98.7644 10.9523 98.8888C10.9291 98.8929 10.9136 98.8307 10.9523 98.8266Z" fill="#263238"/>
<path d="M26.0242 79.9918C26.0242 79.9918 28.9473 66.2037 15.1258 60.6221C15.1258 60.6221 11.2929 78.7726 26.0242 79.9918Z" fill="#907ECF"/>
<path d="M23.0407 72.171C22.9904 72.1378 22.9401 72.1005 22.8936 72.0756C22.6303 71.9222 22.371 71.7646 22.1193 71.607L20.5126 70.6449C19.4595 70.0146 18.4142 69.3553 17.3534 68.7374C17.3186 68.7374 17.3534 68.6628 17.3844 68.6835C18.4491 69.3014 19.5331 69.8819 20.6055 70.4915L22.189 71.3872L22.8355 71.7521C22.3748 70.815 21.8831 69.8985 21.3411 69.0111C20.6171 67.8334 19.8273 66.7055 19.0182 65.6066C19.0094 65.5972 19.0045 65.5846 19.0045 65.5713C19.0045 65.5581 19.0094 65.5454 19.0182 65.5361C19.0269 65.5267 19.0387 65.5215 19.0511 65.5215C19.0634 65.5215 19.0753 65.5267 19.084 65.5361C20.2985 66.7987 21.3716 68.2085 22.2819 69.7368C22.2819 69.687 22.2819 69.6373 22.2819 69.5917C22.2819 69.2475 22.2587 68.9074 22.2548 68.5632C22.2548 67.8915 22.2548 67.2155 22.2548 66.5438C22.2548 66.5023 22.3129 66.5023 22.3168 66.5438C22.34 67.2072 22.4174 67.8666 22.4523 68.5301C22.4523 68.8618 22.4832 69.1894 22.491 69.5212C22.491 69.6995 22.491 69.9027 22.491 70.0976C22.7736 70.5869 23.0485 71.0762 23.3079 71.578C23.773 72.4758 24.1854 73.4037 24.5429 74.3563C24.5429 74.0121 24.5778 73.668 24.5971 73.3238C24.6358 72.5691 24.7249 71.8185 24.752 71.0638C24.752 71.0223 24.8139 71.0223 24.8139 71.0638C24.8139 71.8185 24.8139 72.5732 24.8139 73.3321C24.8139 73.7094 24.7907 74.0868 24.7675 74.46L24.7442 74.8747C25.1841 76.107 25.5336 77.3743 25.7895 78.6648C26.0262 80.037 26.1981 81.421 26.3045 82.8116C26.1585 81.5543 25.9124 80.3127 25.5689 79.1003C25.3985 78.4506 25.2166 77.8037 25.023 77.1596C24.4461 76.8693 23.8964 76.5044 23.3388 76.1768C22.7813 75.8492 22.1774 75.4967 21.6044 75.1567C20.4429 74.4807 19.2814 73.7882 18.12 73.1911C18.0851 73.1911 18.12 73.1206 18.1509 73.1372C19.355 73.7219 20.5707 74.2775 21.7554 74.9161C22.3439 75.2313 22.9168 75.5713 23.5015 75.9197C23.9815 76.2099 24.4732 76.5002 24.9339 76.832C24.7984 76.4173 24.6591 75.9777 24.5042 75.5547C24.0701 74.4011 23.5816 73.2717 23.0407 72.171Z" fill="#263238"/>
<path d="M24.2056 69.0194C24.2056 68.9779 24.2676 68.9779 24.2676 69.0194C24.2172 69.8073 24.1901 70.5952 24.1127 71.3789C24.1103 71.3862 24.1059 71.3926 24.1 71.3971C24.0941 71.4015 24.087 71.404 24.0798 71.404C24.0726 71.404 24.0655 71.4015 24.0596 71.3971C24.0537 71.3926 24.0493 71.3862 24.0469 71.3789C24.074 70.5869 24.1514 69.8031 24.2056 69.0194Z" fill="#263238"/>
<path d="M17.5729 71.6522C18.4401 72.0254 19.3112 72.3779 20.1746 72.7677C20.1978 72.7677 20.1746 72.8175 20.1746 72.8092C19.2996 72.4567 18.4362 72.0752 17.569 71.7144C17.5226 71.6978 17.538 71.6356 17.5729 71.6522Z" fill="#263238"/>
<path d="M16.2605 65.2915C17.1058 65.7093 17.9268 66.1815 18.7189 66.7055C18.7271 66.711 18.733 66.7198 18.7351 66.7299C18.7373 66.74 18.7357 66.7506 18.7305 66.7594C18.7254 66.7682 18.7172 66.7745 18.7078 66.7768C18.6983 66.7792 18.6884 66.7774 18.6802 66.7719C17.8788 66.2701 17.0619 65.7891 16.2256 65.3454C16.1947 65.3495 16.2256 65.2749 16.2605 65.2915Z" fill="#263238"/>
<path d="M16.4697 132.341H36.4199V109.815H16.4697L16.4697 132.341Z" fill="#37474F"/>
<path d="M37.7946 117.786H36.7725V156.368H37.7946V117.786Z" fill="#263238"/>
<path d="M16.2252 117.786H15.2031V156.368H16.2252V117.786Z" fill="#263238"/>
<path d="M26.4664 117.786H25.4443V156.368H26.4664V117.786Z" fill="#263238"/>
<path d="M15.7147 134.017H37.2832V130.898H15.7147V134.017Z" fill="#263238"/>
<path d="M48.4412 86.0713H28.9014V140.987H48.4412V86.0713Z" fill="#907ECF"/>
<path opacity="0.2" d="M48.4412 86.0713H28.9014V140.987H48.4412V86.0713Z" fill="black"/>
<path d="M149.792 86.0713H130.252V140.987H149.792V86.0713Z" fill="#907ECF"/>
<path opacity="0.2" d="M149.792 86.0713H130.252V140.987H149.792V86.0713Z" fill="black"/>
<path d="M130.254 47.415H48.4365V140.988H130.254V47.415Z" fill="#907ECF"/>
<path opacity="0.2" d="M130.254 47.415H48.4365V140.988H130.254V47.415Z" fill="black"/>
<g opacity="0.2">
<path d="M130.726 86.0713H130.262V140.983H130.726V86.0713Z" fill="black"/>
<path d="M48.6687 86.0713H48.2041V140.983H48.6687V86.0713Z" fill="black"/>
<path d="M130.734 125.064H48.2041V108.017H130.734V125.064ZM48.6919 124.537H130.254V108.527H48.6919V124.537Z" fill="black"/>
</g>
<g opacity="0.2">
<path d="M53.532 77.4424C53.4523 77.4517 53.3787 77.4922 53.3252 77.5561C53.2718 77.62 53.2422 77.7028 53.2422 77.7886C53.2422 77.8744 53.2718 77.9572 53.3252 78.0211C53.3787 78.085 53.4523 78.1255 53.532 78.1349C53.6116 78.1255 53.6852 78.085 53.7387 78.0211C53.7922 77.9572 53.8218 77.8744 53.8218 77.7886C53.8218 77.7028 53.7922 77.62 53.7387 77.5561C53.6852 77.4922 53.6116 77.4517 53.532 77.4424Z" fill="black"/>
<path d="M54.0857 119.843C54.006 119.852 53.9324 119.893 53.8789 119.957C53.8255 120.02 53.7959 120.103 53.7959 120.189C53.7959 120.275 53.8255 120.358 53.8789 120.422C53.9324 120.485 54.006 120.526 54.0857 120.535C54.1653 120.526 54.2389 120.485 54.2924 120.422C54.3459 120.358 54.3755 120.275 54.3755 120.189C54.3755 120.103 54.3459 120.02 54.2924 119.957C54.2389 119.893 54.1653 119.852 54.0857 119.843Z" fill="black"/>
<path d="M76.1996 113.221C76.1996 113.183 76.1648 113.15 76.1493 113.117C76.1362 113.094 76.1177 113.075 76.0957 113.061C76.0737 113.048 76.0488 113.041 76.0235 113.041C75.9982 113.041 75.9733 113.048 75.9513 113.061C75.9292 113.075 75.9108 113.094 75.8977 113.117C75.8786 113.15 75.8618 113.185 75.8473 113.221C75.6615 113.631 76.3816 113.631 76.1996 113.221Z" fill="black"/>
<path d="M43.8996 120.714C43.8996 120.681 43.8687 120.643 43.8493 120.61C43.8362 120.587 43.8177 120.568 43.7957 120.554C43.7736 120.541 43.7488 120.534 43.7235 120.534C43.6982 120.534 43.6733 120.541 43.6513 120.554C43.6292 120.568 43.6108 120.587 43.5976 120.61C43.5783 120.643 43.5628 120.681 43.5473 120.714C43.3654 121.124 44.0855 121.124 43.8996 120.714Z" fill="black"/>
<path d="M56.3161 79.5566C56.2504 79.5566 56.1874 79.5846 56.1409 79.6344C56.0945 79.6841 56.0684 79.7516 56.0684 79.822C56.0684 79.8924 56.0945 79.9599 56.1409 80.0097C56.1874 80.0595 56.2504 80.0874 56.3161 80.0874C56.3819 80.0874 56.4449 80.0595 56.4913 80.0097C56.5378 79.9599 56.5639 79.8924 56.5639 79.822C56.5639 79.7516 56.5378 79.6841 56.4913 79.6344C56.4449 79.5846 56.3819 79.5566 56.3161 79.5566Z" fill="black"/>
<path d="M39.0909 106.433C39.031 106.441 38.9759 106.472 38.936 106.52C38.8961 106.569 38.874 106.631 38.874 106.696C38.874 106.761 38.8961 106.823 38.936 106.872C38.9759 106.92 39.031 106.951 39.0909 106.959C39.1508 106.951 39.2059 106.92 39.2458 106.872C39.2857 106.823 39.3078 106.761 39.3078 106.696C39.3078 106.631 39.2857 106.569 39.2458 106.52C39.2059 106.472 39.1508 106.441 39.0909 106.433Z" fill="black"/>
<path d="M71.5348 64.786C71.4703 64.7179 71.3834 64.6797 71.2929 64.6797C71.2023 64.6797 71.1154 64.7179 71.0509 64.786C70.9922 64.8514 70.9506 64.9322 70.9302 65.0203C70.9099 65.1083 70.9114 65.2006 70.9347 65.2878C70.9633 65.3651 71.0129 65.4315 71.0771 65.4783C71.1413 65.525 71.2171 65.55 71.2948 65.55C71.3724 65.55 71.4483 65.525 71.5125 65.4783C71.5767 65.4315 71.6263 65.3651 71.6548 65.2878C71.6781 65.2002 71.6792 65.1077 71.6581 65.0195C71.637 64.9314 71.5945 64.8508 71.5348 64.786Z" fill="black"/>
<path d="M56.7956 117.882C56.7312 117.814 56.6442 117.775 56.5537 117.775C56.4631 117.775 56.3762 117.814 56.3117 117.882C56.253 117.946 56.2114 118.026 56.191 118.114C56.1706 118.201 56.1722 118.293 56.1956 118.379C56.2247 118.455 56.2743 118.52 56.3381 118.566C56.4019 118.612 56.4769 118.636 56.5537 118.636C56.6304 118.636 56.7055 118.612 56.7692 118.566C56.833 118.52 56.8826 118.455 56.9118 118.379C56.936 118.293 56.938 118.201 56.9176 118.113C56.8971 118.026 56.855 117.946 56.7956 117.882Z" fill="black"/>
<path d="M124.773 121.456C124.86 121.456 124.942 121.42 125.003 121.354C125.064 121.289 125.099 121.2 125.099 121.108C125.099 121.016 125.064 120.927 125.003 120.862C124.942 120.796 124.86 120.76 124.773 120.76C124.687 120.76 124.604 120.796 124.543 120.862C124.482 120.927 124.448 121.016 124.448 121.108C124.448 121.2 124.482 121.289 124.543 121.354C124.604 121.42 124.687 121.456 124.773 121.456Z" fill="black"/>
<path d="M105.129 75.1945C105.208 75.1851 105.282 75.1446 105.335 75.0807C105.389 75.0168 105.418 74.934 105.418 74.8482C105.418 74.7624 105.389 74.6796 105.335 74.6157C105.282 74.5518 105.208 74.5113 105.129 74.502C105.049 74.5113 104.975 74.5518 104.922 74.6157C104.868 74.6796 104.839 74.7624 104.839 74.8482C104.839 74.934 104.868 75.0168 104.922 75.0807C104.975 75.1446 105.049 75.1851 105.129 75.1945Z" fill="black"/>
<path d="M135.254 118.184C135.254 118.217 135.285 118.254 135.304 118.288C135.317 118.311 135.336 118.33 135.358 118.343C135.38 118.356 135.405 118.363 135.43 118.363C135.455 118.363 135.48 118.356 135.502 118.343C135.524 118.33 135.543 118.311 135.556 118.288C135.575 118.254 135.591 118.217 135.606 118.184C135.804 117.773 135.072 117.773 135.254 118.184Z" fill="black"/>
<path d="M95.2565 97.3048C95.3209 97.3729 95.4079 97.4111 95.4984 97.4111C95.589 97.4111 95.6759 97.3729 95.7404 97.3048C95.7998 97.2398 95.8418 97.159 95.8622 97.0708C95.8827 96.9826 95.8807 96.8901 95.8566 96.803C95.8274 96.727 95.7778 96.6619 95.714 96.6161C95.6502 96.5703 95.5752 96.5459 95.4984 96.5459C95.4217 96.5459 95.3466 96.5703 95.2829 96.6161C95.2191 96.6619 95.1695 96.727 95.1403 96.803C95.1174 96.8903 95.116 96.9824 95.1364 97.0703C95.1568 97.1583 95.1981 97.2391 95.2565 97.3048Z" fill="black"/>
</g>
<g opacity="0.2">
<path d="M48.6924 125.063C48.6924 125.063 69.2969 129.368 89.46 129.368C109.623 129.368 130.251 125.063 130.251 125.063H48.6924Z" fill="black"/>
</g>
<path d="M149.787 136.156H28.9014V140.983H149.787V136.156Z" fill="#37474F"/>
<path d="M55.073 140.987L50.1058 151.881L45.1154 162.833H40.7676L42.382 151.881L43.9887 140.987H55.073Z" fill="#37474F"/>
<path d="M43.9884 140.987H55.0765L52.0606 147.593H43.0166L43.9884 140.987Z" fill="#263238"/>
<path d="M136.059 162.833H131.715L126.725 151.881L121.754 140.987H132.842L134.445 151.881L136.059 162.833Z" fill="#37474F"/>
<path d="M133.814 147.593H124.77L121.754 140.987H132.838L133.814 147.593Z" fill="#263238"/>
<path d="M137.081 117.447C136.725 116.298 117.742 89.4308 116.445 88.9166C116.298 88.8461 107.812 95.3151 107.812 95.3151C107.463 95.8169 91.3345 92.1635 91.3345 92.1635L91.1719 113.005L120.553 112.338C120.553 112.338 124.522 114.826 128.153 116.87C130.387 118.114 132.365 119.192 132.931 119.358C134.41 119.756 137.441 118.587 137.081 117.447Z" fill="#AD6359"/>
<path d="M132.943 119.354C132.374 119.197 130.399 118.135 128.169 116.866C124.542 114.83 120.573 112.325 120.573 112.325L114.034 112.479L103.778 94.7926C106.028 95.2073 107.704 95.4727 107.816 95.3151C107.816 95.3151 116.295 88.8461 116.446 88.9166C117.743 89.4308 136.725 116.285 137.082 117.442C137.438 118.599 134.41 119.76 132.943 119.354Z" fill="white"/>
<path d="M137.252 117.48C136.865 116.302 117.813 89.4558 116.481 88.925C115.978 88.7177 111.835 91.467 107.812 95.3153L120.128 112.624C120.128 112.624 131.487 119.072 133.005 119.487C134.522 119.902 137.627 118.658 137.252 117.48Z" fill="#907ECF"/>
<path d="M135.977 117.911C132.679 113.495 119.759 95.3483 116.809 90.7164C116.786 90.6749 116.809 90.6583 116.836 90.6915C120.197 94.9959 132.977 113.254 136.047 117.857C136.109 117.953 136.047 118.015 135.977 117.911Z" fill="#263238"/>
<path d="M130.875 118.479C130.508 117.988 130.24 117.421 130.088 116.813C129.935 116.206 129.901 115.572 129.989 114.95C130.14 113.829 130.687 112.814 131.518 112.113C131.545 112.113 131.58 112.142 131.557 112.167C130.834 112.998 130.382 114.057 130.269 115.186C130.156 116.315 130.388 117.453 130.93 118.429C130.936 118.437 130.939 118.447 130.938 118.457C130.937 118.467 130.933 118.476 130.926 118.483C130.918 118.489 130.909 118.493 130.9 118.492C130.89 118.491 130.882 118.486 130.875 118.479Z" fill="#263238"/>
<path d="M121.549 113.677C120.249 111.893 119.358 109.322 119.939 107.083C119.962 106.996 120.074 107.029 120.09 107.104C120.436 109.308 121.004 111.466 121.782 113.54C121.791 113.572 121.789 113.606 121.778 113.637C121.766 113.667 121.745 113.693 121.717 113.709C121.69 113.725 121.659 113.73 121.628 113.725C121.598 113.719 121.57 113.702 121.549 113.677Z" fill="#263238"/>
<path d="M123.028 114.655C121.727 112.872 120.837 110.301 121.417 108.062C121.441 107.975 121.553 108.008 121.565 108.082C121.914 110.286 122.482 112.443 123.256 114.518C123.269 114.55 123.27 114.586 123.26 114.619C123.249 114.652 123.228 114.679 123.2 114.696C123.171 114.713 123.138 114.719 123.106 114.711C123.075 114.703 123.047 114.683 123.028 114.655Z" fill="#263238"/>
<path d="M124.538 115.635C123.237 113.851 122.346 111.28 122.927 109.041C122.947 108.954 123.063 108.987 123.074 109.062C123.424 111.265 123.991 113.423 124.766 115.498C124.779 115.53 124.78 115.566 124.77 115.599C124.759 115.631 124.738 115.659 124.709 115.676C124.681 115.693 124.648 115.698 124.616 115.69C124.584 115.683 124.557 115.663 124.538 115.635Z" fill="#263238"/>
<path d="M126.032 116.613C124.728 114.83 123.841 112.259 124.422 110.015C124.422 109.932 124.557 109.966 124.569 110.04C124.917 112.244 125.484 114.402 126.261 116.476C126.273 116.508 126.275 116.544 126.264 116.577C126.254 116.61 126.232 116.637 126.204 116.654C126.176 116.671 126.142 116.676 126.111 116.669C126.079 116.661 126.051 116.641 126.032 116.613Z" fill="#263238"/>
<path d="M113.635 95.1117C112.203 93.0881 115.141 90.7037 116.574 92.7315C118.006 94.7593 115.068 97.1395 113.635 95.1117Z" fill="#263238"/>
<path d="M120.81 117.127C121.29 115.203 120.972 113.121 120.891 111.164C120.885 111.121 120.871 111.08 120.848 111.045C120.825 111.009 120.795 110.979 120.759 110.959C120.724 110.938 120.685 110.926 120.644 110.924C120.604 110.922 120.564 110.931 120.527 110.949C120.521 110.942 120.515 110.936 120.507 110.932C120.499 110.928 120.491 110.926 120.482 110.926C120.474 110.926 120.465 110.928 120.458 110.932C120.45 110.936 120.443 110.942 120.438 110.949C118.989 112.338 117.906 114.112 117.298 116.091C116.965 117.252 117.093 118.96 118.459 119.296C119.725 119.599 120.527 118.251 120.81 117.127ZM119.474 118.346C117.519 119.657 117.666 116.746 117.945 115.9C118.134 115.358 118.356 114.83 118.61 114.32C119.153 113.273 119.745 112.255 120.384 111.272C120.384 112.238 120.43 113.196 120.449 114.175C120.473 115.307 120.554 117.625 119.474 118.346Z" fill="#263238"/>
<path d="M114.82 105.408C113.825 106.445 114.541 107.979 115.381 108.792C116.854 110.152 118.635 111.073 120.546 111.462C120.554 111.464 120.563 111.464 120.571 111.462C120.58 111.46 120.587 111.455 120.594 111.449C120.6 111.443 120.605 111.436 120.608 111.427C120.611 111.419 120.613 111.409 120.612 111.4C120.652 111.396 120.691 111.381 120.726 111.358C120.76 111.335 120.789 111.303 120.809 111.265C120.83 111.228 120.842 111.185 120.845 111.142C120.848 111.098 120.841 111.055 120.825 111.015C119.954 109.294 119.222 107.332 117.882 105.947C117.1 105.159 115.765 104.429 114.82 105.408ZM119.005 108.692C119.454 109.522 119.861 110.384 120.337 111.201C119.316 110.712 118.32 110.167 117.352 109.567C116.886 109.273 116.441 108.943 116.02 108.58C115.374 108.012 113.844 105.599 116.152 105.64C117.425 105.665 118.471 107.697 119.005 108.692Z" fill="#263238"/>
<path d="M90.4446 85.7734H77.258C77.258 85.7734 63.4636 78.6741 52.3522 81.523C39.6147 84.8031 37.9848 101.938 47.505 107.996C59.5688 115.676 113.252 114.187 113.252 114.187L101.637 93.1216C101.637 93.1216 83.7855 89.095 67.5984 89.6797L90.4407 92.9972L90.4446 85.7734Z" fill="#263238"/>
<path d="M102.419 94.494C102.406 94.4597 102.398 94.4232 102.396 94.3862L102.373 94.2949C102.373 94.2286 102.342 94.1622 102.322 94.0918C102.285 93.9508 102.239 93.8123 102.187 93.6771C102.14 93.5402 102.082 93.4075 102.024 93.2624C101.961 93.1324 101.888 93.0076 101.807 92.8892C101.807 92.8892 101.788 92.8892 101.776 92.8892C101.77 92.8874 101.763 92.8874 101.757 92.8892C101.757 92.8892 101.738 92.8892 101.726 92.8892C101.717 92.8869 101.708 92.8869 101.699 92.8892C99.7361 92.4745 86.3946 90.4509 84.4124 90.2103C82.4301 89.9698 80.4053 89.7666 78.3998 89.5883C74.3975 89.2159 70.3801 89.0609 66.3631 89.1239C65.976 89.1239 65.612 89.1446 65.2365 89.1612C65.1552 89.1322 65.07 89.1156 64.9887 89.0949C64.7951 89.0451 64.6016 88.9953 64.408 88.9539C64.0479 88.8792 63.6801 88.8212 63.3162 88.7631C62.5419 88.6387 61.7947 88.5516 61.0397 88.4023C61.0305 88.4023 61.0216 88.4063 61.0151 88.4133C61.0085 88.4203 61.0049 88.4298 61.0049 88.4397C61.0049 88.4496 61.0085 88.4591 61.0151 88.4661C61.0216 88.4731 61.0305 88.477 61.0397 88.477C61.814 88.6553 62.5496 88.8917 63.3085 89.07C63.5291 89.1197 63.7459 89.1736 63.9666 89.2193C62.4954 89.3022 61.0242 89.4225 59.5569 89.5676C59.5492 89.5703 59.5424 89.5756 59.5376 89.5827C59.5328 89.5897 59.5303 89.5983 59.5303 89.607C59.5303 89.6157 59.5328 89.6242 59.5376 89.6313C59.5424 89.6384 59.5492 89.6437 59.5569 89.6464C61.5546 89.5178 63.5678 89.5012 65.5733 89.5386C67.5788 89.5759 69.5456 89.6215 71.5317 89.7459C75.5504 89.9906 79.5613 90.3762 83.5645 90.8241C85.81 91.077 99.4109 93.2043 101.664 93.3122H101.691C101.711 93.3661 101.73 93.4241 101.753 93.478C101.815 93.6066 101.877 93.7393 101.947 93.8637C102.008 93.989 102.075 94.1108 102.148 94.2286C102.183 94.2867 102.218 94.3447 102.256 94.4028L102.315 94.4898C102.337 94.5175 102.357 94.5482 102.373 94.5811C102.369 94.5769 102.446 94.5438 102.419 94.494Z" fill="#455A64"/>
<path d="M109.067 112.918C108.347 111.674 107.735 110.376 107.077 109.107C106.419 107.838 105.757 106.561 105.095 105.288C103.774 102.75 99.0357 94.2158 98.5672 93.6187C98.5363 93.5814 98.4782 93.6187 98.4898 93.6684C98.7143 94.3278 101.672 99.9799 102.361 101.236C103.724 103.758 105.153 106.213 106.566 108.701C106.953 109.41 107.383 110.11 107.793 110.82C108.204 111.529 108.637 112.217 109.009 112.943C109.024 113.005 109.09 112.963 109.067 112.918Z" fill="#455A64"/>
<path d="M98.4314 95.7425C97.2467 95.4356 96.0349 95.2407 94.8386 94.996C93.6423 94.7514 92.4382 94.5109 91.238 94.2745C88.8376 93.7962 86.4321 93.3387 84.0214 92.9019C79.2207 92.0394 74.3967 91.3178 69.5456 90.8285C66.8084 90.5465 64.0673 90.3641 61.3224 90.1484C61.2643 90.1484 61.2682 90.2397 61.3224 90.2438C66.2044 90.4802 71.0826 91.1893 75.9182 91.9316C80.7538 92.6738 85.4887 93.4783 90.243 94.3409C91.5903 94.5841 92.9376 94.8316 94.2849 95.0831C95.6516 95.3361 97.0183 95.6471 98.3927 95.8337C98.4624 95.8337 98.4856 95.7549 98.4314 95.7425Z" fill="#455A64"/>
<path d="M112.075 185.998C110.914 185.873 82.1637 172.031 81.3778 170.758C81.0758 170.281 82.7135 165.674 84.8622 160.171C85.319 158.985 85.803 157.762 86.2985 156.522C89.5003 148.465 93.0777 139.997 93.0777 139.997L112.339 149.199L105.029 165.467L103.426 169.041C103.426 169.041 112.223 179.616 112.947 181.108C113.671 182.601 113.233 186.122 112.075 185.998Z" fill="#AD6359"/>
<path d="M112.075 185.997C110.913 185.873 82.1632 172.031 81.3773 170.757C81.0133 170.173 83.5066 163.496 86.2787 156.521L105.009 165.466L103.406 169.041C103.406 169.041 112.203 179.615 112.927 181.108C113.651 182.601 113.233 186.121 112.075 185.997Z" fill="white"/>
<path d="M112.075 185.997C110.914 185.873 82.1637 172.031 81.3778 170.758C81.0758 170.281 82.7135 165.674 84.8622 160.171L103.426 169.041C103.426 169.041 112.223 179.615 112.947 181.108C113.671 182.601 113.233 186.122 112.075 185.997Z" fill="#907ECF"/>
<path d="M112.188 184.566C107.422 182.12 87.9751 172.727 83.0892 170.699C83.0505 170.699 83.0389 170.699 83.0892 170.728C87.7661 173.266 107.279 182.489 112.165 184.653C112.25 184.695 112.281 184.62 112.188 184.566Z" fill="#263238"/>
<path d="M111.541 179.109C111.011 178.837 110.434 178.685 109.846 178.664C109.258 178.642 108.673 178.752 108.126 178.984C107.142 179.395 106.342 180.195 105.893 181.22C105.893 181.253 105.935 181.278 105.951 181.249C106.544 180.305 107.407 179.594 108.41 179.22C109.413 178.846 110.502 178.83 111.514 179.175C111.522 179.177 111.53 179.175 111.536 179.171C111.543 179.167 111.549 179.161 111.552 179.153C111.555 179.146 111.556 179.137 111.554 179.129C111.552 179.121 111.547 179.114 111.541 179.109Z" fill="#263238"/>
<path d="M105.06 170.455C103.143 169.497 100.6 169.149 98.691 170.264C98.6175 170.306 98.691 170.418 98.7491 170.414C100.833 170.279 102.923 170.383 104.986 170.725C105.018 170.731 105.052 170.725 105.08 170.707C105.108 170.689 105.129 170.66 105.138 170.626C105.147 170.592 105.144 170.556 105.13 170.524C105.115 170.493 105.09 170.468 105.06 170.455Z" fill="#263238"/>
<path d="M106.291 171.794C104.356 170.836 101.831 170.488 99.9226 171.603C99.849 171.645 99.9226 171.757 99.9768 171.753C102.062 171.618 104.154 171.722 106.218 172.064C106.25 172.07 106.283 172.064 106.311 172.046C106.34 172.027 106.36 171.999 106.369 171.965C106.379 171.931 106.376 171.895 106.361 171.863C106.347 171.832 106.322 171.807 106.291 171.794Z" fill="#263238"/>
<path d="M107.518 173.134C105.601 172.176 103.058 171.827 101.149 172.939C101.076 172.984 101.149 173.096 101.203 173.092C103.288 172.957 105.38 173.061 107.444 173.403C107.477 173.41 107.51 173.404 107.538 173.385C107.566 173.367 107.587 173.338 107.596 173.304C107.605 173.271 107.602 173.234 107.588 173.203C107.573 173.171 107.548 173.147 107.518 173.134Z" fill="#263238"/>
<path d="M108.745 174.473C106.829 173.516 104.285 173.167 102.377 174.279C102.303 174.324 102.377 174.436 102.435 174.432C104.518 174.297 106.609 174.401 108.672 174.743C108.704 174.75 108.737 174.743 108.765 174.725C108.794 174.707 108.814 174.678 108.823 174.644C108.833 174.61 108.83 174.574 108.815 174.543C108.801 174.511 108.776 174.486 108.745 174.473Z" fill="#263238"/>
<path d="M86.3673 166.387C84.1992 165.351 82.6932 168.958 84.8652 169.995C87.0371 171.032 88.5393 167.424 86.3673 166.387Z" fill="#263238"/>
<path d="M109.477 165.943C108.861 164.608 107.278 164.861 106.298 165.474C104.634 166.554 103.264 168.085 102.326 169.912C102.322 169.92 102.319 169.929 102.318 169.938C102.318 169.948 102.319 169.957 102.323 169.966C102.326 169.975 102.331 169.983 102.338 169.989C102.345 169.996 102.352 170 102.361 170.003C102.342 170.169 102.45 170.372 102.64 170.334C104.44 169.978 106.407 169.837 108.06 168.9C108.997 168.352 110.038 167.208 109.477 165.943ZM105.265 169.198C104.382 169.393 103.499 169.547 102.624 169.779C103.374 168.89 104.166 168.043 104.998 167.241C105.404 166.857 105.835 166.504 106.287 166.184C106.991 165.703 109.609 164.89 108.858 167.229C108.428 168.522 106.302 168.962 105.249 169.198H105.265Z" fill="#263238"/>
<path d="M97.1968 168.373C98.7454 169.456 100.708 169.779 102.474 170.298C102.656 170.351 102.783 170.161 102.776 169.991C102.784 169.99 102.793 169.986 102.8 169.981C102.807 169.976 102.813 169.969 102.817 169.961C102.821 169.953 102.823 169.944 102.824 169.935C102.824 169.925 102.822 169.916 102.818 169.908C102.031 168.001 100.789 166.349 99.2177 165.118C98.2885 164.422 96.7283 164.019 96.0121 165.297C95.3345 166.503 96.2831 167.739 97.1968 168.373ZM96.5231 166.636C95.9617 164.235 98.5053 165.288 99.1713 165.831C99.5958 166.191 99.9968 166.582 100.371 167.001C101.135 167.875 101.856 168.792 102.532 169.746C101.68 169.435 100.809 169.203 99.9456 168.917C98.9196 168.606 96.8328 167.959 96.5231 166.636Z" fill="#263238"/>
<path d="M86.7158 154.631L108.397 165.122C108.397 165.122 134.185 112.11 134.859 95.8707C135.432 82.0619 126.457 76.7332 97.4401 85.6654L90.3319 85.7608V91.0148C93.4524 91.4544 101.776 92.856 101.776 92.856C107.831 95.3026 109.783 96.3144 109.686 96.5259C94.5635 129.211 86.7158 154.631 86.7158 154.631Z" fill="#263238"/>
<path d="M113.218 90.712C112.343 91.9561 111.533 93.2582 110.759 94.5851C106.113 92.3666 101.038 91.0852 95.9968 90.4176C94.5721 90.2324 93.1409 90.0942 91.7032 90.0029C91.6452 90.0029 91.649 90.0983 91.7032 90.1025C96.8043 90.485 101.845 91.5122 106.721 93.1628C108.072 93.6106 109.392 94.1248 110.724 94.6349C109.795 96.2273 108.916 97.8611 108.076 99.5032C106.505 102.576 105.091 105.738 103.841 108.975C103.144 110.766 102.466 112.57 101.866 114.403C101.866 114.457 101.932 114.49 101.951 114.44C104.599 108.118 107.489 101.931 110.62 95.8789C111.502 94.1705 112.424 92.4869 113.287 90.7659C113.318 90.7203 113.249 90.6457 113.218 90.712Z" fill="#455A64"/>
<path d="M108.854 159.512C107.588 158.985 106.365 158.326 105.13 157.729L101.409 155.941C98.9315 154.755 90.3675 150.965 89.659 150.774C89.6126 150.774 89.5894 150.837 89.6242 150.861C90.174 151.247 95.6987 153.88 96.9492 154.453C99.4503 155.601 101.982 156.663 104.495 157.77C105.215 158.081 105.939 158.375 106.663 158.678C107.387 158.981 108.119 159.259 108.827 159.603C108.87 159.607 108.897 159.528 108.854 159.512Z" fill="#455A64"/>
<path d="M113.109 93.105C111.402 96.5842 109.946 100.225 108.463 103.82C106.981 107.416 105.548 110.998 104.15 114.602C101.371 121.806 98.7819 129.091 96.3841 136.456C95.0213 140.602 93.7475 144.816 92.5125 149.02C92.4931 149.083 92.5822 149.103 92.6016 149.045C94.8974 141.606 97.3829 134.233 99.9769 126.91C102.571 119.586 105.32 112.363 108.231 105.193C109.049 103.18 109.879 101.175 110.72 99.176C111.565 97.1731 112.443 95.1826 113.233 93.1589C113.256 93.0926 113.152 93.0221 113.109 93.105Z" fill="#455A64"/>
<path d="M76.5998 85.3338C77.076 85.8729 107.185 86.6111 107.34 86.4079C107.751 85.8522 103.856 65.3836 100.716 57.5586C96.701 47.5192 94.4129 46.6276 93.0618 46.0305C91.335 45.2675 88.1913 45.4458 87.4325 45.7858C86.5691 46.1632 82.8331 50.6542 81.7103 54.2826C79.4609 61.5768 76.1817 84.8611 76.5998 85.3338Z" fill="#455A64"/>
<path d="M95.5165 47.8171H85.4311C85.6169 47.5848 85.8182 47.3651 85.9731 47.166H94.8777C95.0752 47.3485 95.2881 47.5641 95.5165 47.8171ZM96.7864 49.5173H84.1728L83.7431 50.1642H97.1929C97.0535 49.9375 96.918 49.7218 96.7864 49.5173ZM98.1453 51.8643H82.7636C82.6474 52.08 82.539 52.279 82.4345 52.5112H98.4899L98.1453 51.8643ZM99.2874 54.2156H81.7337L81.7105 54.2819C81.6524 54.4644 81.5982 54.6593 81.5401 54.8625H99.5778C99.481 54.6386 99.3842 54.4271 99.2874 54.2156ZM100.31 56.5627H81.0949C81.0446 56.77 80.9904 56.9773 80.94 57.2096H100.573L100.31 56.5627ZM101.223 58.9098H80.5568C80.5142 59.1254 80.4677 59.3244 80.4213 59.5608H101.448C101.374 59.3369 101.297 59.1295 101.223 58.9098ZM101.998 61.261H80.0844C80.038 61.4766 79.9954 61.6923 79.9567 61.9079H102.195L101.998 61.261ZM102.683 63.6081H79.6315C79.5927 63.8237 79.5502 64.0228 79.5114 64.255H102.861C102.799 64.0352 102.741 63.8196 102.679 63.6081H102.683ZM103.314 65.9593H79.2095C79.1707 66.1749 79.1359 66.374 79.0972 66.6062H103.488C103.422 66.3906 103.368 66.1791 103.31 65.9593H103.314ZM103.906 68.3064H78.8107C78.772 68.522 78.7371 68.7211 78.7023 68.9533H104.057C104.007 68.7377 103.957 68.522 103.902 68.3064H103.906ZM104.468 70.6535H78.4274L78.3229 71.3045H104.611C104.561 71.0889 104.51 70.8691 104.464 70.6535H104.468ZM104.998 73.0047H78.0596C78.0286 73.2204 77.9938 73.4194 77.9628 73.6516H105.133L104.998 73.0047ZM105.501 75.3518H77.7305L77.6376 75.9987H105.652C105.606 75.7831 105.544 75.5674 105.497 75.3518H105.501ZM105.985 77.6989H77.3782C77.3472 77.9187 77.3201 78.1385 77.2892 78.3499H106.109L105.985 77.6989ZM106.442 80.0501H77.0685C77.0375 80.2741 77.0104 80.4897 76.9872 80.697H106.554C106.52 80.4855 106.477 80.2782 106.438 80.0501H106.442ZM106.864 82.3972H76.782C76.7588 82.6253 76.7355 82.8451 76.7162 83.0483H106.969C106.934 82.8409 106.899 82.6211 106.86 82.3972H106.864ZM107.251 84.7485H76.569C76.5404 84.9433 76.5496 85.1423 76.5962 85.3332C76.652 85.3675 76.714 85.3887 76.7781 85.3954H107.309C107.29 85.2046 107.263 84.989 107.232 84.7485H107.251Z" fill="#263238"/>
<path d="M98.053 48.7625C111.038 59.2124 122.266 73.7179 121.189 78.3126C120.047 83.1685 111.073 88.6008 103.144 89.708C101.522 89.9361 96.5005 77.1847 98.1614 76.6C99.4584 76.1438 105.351 74.3482 106.056 73.4857C106.543 72.8844 97.4026 59.1087 94.4408 51.9223C91.3126 44.371 94.5763 45.9468 98.053 48.7625Z" fill="#AD6359"/>
<path d="M101.51 76.1982C101.51 76.1982 96.5541 76.729 93.329 77.2432C91.5288 77.5294 88.4857 78.3131 87.2545 79.1715C85.4117 80.4529 78.4661 87.0794 79.9295 88.9165C81.2536 90.5752 83.2552 87.9461 83.2552 87.9461C83.2552 87.9461 80.8161 90.6042 82.6048 91.8234C84.3934 93.0425 86.7009 89.3353 86.7009 89.3353C86.7009 89.3353 83.9289 91.9644 85.9537 93.0674C87.7114 94.0253 90.7854 90.0693 90.7854 90.0693C90.7854 90.0693 87.5914 92.491 89.3026 93.6604C91.1919 94.9542 96.496 89.6463 96.496 89.6463C100.735 90.1522 103.349 89.8412 106.338 88.9455C106.883 88.7962 101.51 76.1982 101.51 76.1982Z" fill="#AD6359"/>
<path d="M85.9574 90.2314C86.1472 89.9494 86.3446 89.6715 86.5382 89.402C86.9039 88.847 87.2995 88.3154 87.7229 87.8096C88.1449 87.3245 88.5862 86.86 89.0392 86.408C89.4922 85.956 90.0497 85.5082 90.5143 85.0188C90.5173 85.0132 90.5215 85.0084 90.5266 85.0048C90.5317 85.0013 90.5374 84.999 90.5435 84.9983C90.5495 84.9976 90.5556 84.9984 90.5613 85.0006C90.567 85.0029 90.5721 85.0065 90.5762 85.0113C90.5803 85.0161 90.5834 85.0218 90.585 85.028C90.5867 85.0343 90.587 85.0408 90.5859 85.0472C90.5848 85.0536 90.5822 85.0596 90.5785 85.0648C90.5749 85.0699 90.5701 85.0741 90.5646 85.0769C90.0967 85.554 89.6546 86.0593 89.2405 86.5905C88.8185 87.0964 88.4043 87.6064 87.9862 88.1165C87.568 88.6265 87.146 89.0827 86.724 89.5679C86.515 89.8125 86.3369 90.0655 86.1162 90.3143C85.9414 90.5676 85.7472 90.8048 85.5354 91.0234C85.5302 91.0258 85.5245 91.0266 85.5189 91.0258C85.5132 91.025 85.5079 91.0225 85.5035 91.0186C85.4991 91.0148 85.4958 91.0097 85.4939 91.004C85.4921 90.9982 85.4917 90.992 85.4929 90.9861C85.6221 90.7174 85.7778 90.4644 85.9574 90.2314Z" fill="#263238"/>
<path d="M82.7635 88.51C83.4122 87.4566 84.1276 86.4521 84.9045 85.5035C85.694 84.561 86.5694 83.7052 87.5178 82.9491C87.5527 82.9242 87.5952 82.974 87.5681 83.0072C86.7938 83.9526 85.9769 84.8815 85.1755 85.8145C84.7883 86.2707 83.0655 88.398 82.8526 88.597C82.8022 88.6468 82.7325 88.5722 82.7635 88.51Z" fill="#263238"/>
<path d="M88.9233 91.9432C89.5513 90.965 90.2394 90.0327 90.983 89.1524C91.8173 88.3373 92.7063 87.5889 93.6427 86.9131C93.6776 86.9131 93.7241 86.938 93.6931 86.9711C92.8607 87.8005 92.0206 88.5967 91.2308 89.4592C90.8436 89.8739 89.3956 91.657 88.993 92.0261C88.9581 92.0427 88.9001 91.9888 88.9233 91.9432Z" fill="#263238"/>
<path d="M112.489 61.618L102.601 68.4851C102.601 68.4851 95.2646 56.3184 93.3637 50.5544C91.4628 44.7903 93.6773 44.7779 98.8691 48.9537C104.061 53.1295 112.489 61.618 112.489 61.618Z" fill="#455A64"/>
<path d="M97.3665 47.8171H92.7206C92.6999 47.6006 92.6999 47.3825 92.7206 47.166H96.4412C96.7006 47.3568 97.0335 47.5766 97.3665 47.8171ZM99.5423 49.5173H93.0458C93.1 49.7246 93.162 49.9319 93.2355 50.1642H100.313L99.5423 49.5173ZM102.252 51.8643H93.8395C93.9208 52.0717 94.0098 52.279 94.1028 52.5112H102.969C102.729 52.2915 102.508 52.08 102.249 51.8643H102.252ZM104.827 54.2156H94.8577L95.1597 54.8625H105.516L104.827 54.2156ZM107.316 56.5627H95.9843C96.0927 56.7741 96.2012 56.9773 96.3134 57.2096H107.982L107.316 56.5627ZM109.744 58.9098H97.1923L97.5368 59.5608H110.402L109.744 58.9098ZM112.125 61.261H98.4583C98.5783 61.4808 98.6944 61.6964 98.8145 61.9079H112.09L112.477 61.6301L112.125 61.261ZM99.7669 63.6081L100.131 64.255H108.702L109.632 63.6081H99.7669ZM101.11 65.9593L101.497 66.6062H105.338L106.271 65.9593H101.11ZM102.492 68.3064L102.605 68.4971L102.88 68.3064H102.492Z" fill="#263238"/>
<path d="M110.252 60.1126C106.481 63.3264 102.756 65.5034 102.017 66.0633C101.982 66.0881 101.951 66.0259 101.986 66.0011C102.737 65.5117 106.767 62.3353 110.213 60.0463C110.252 60.0172 110.279 60.0836 110.252 60.1126Z" fill="#263238"/>
<path d="M103.237 68.0294C103.03 68.1252 102.829 68.2361 102.636 68.3611C101.537 66.3292 100.352 64.2724 99.2334 62.2488L97.5918 59.2796C97.0266 58.2471 96.5078 57.1689 95.8883 56.1737C95.8868 56.1707 95.8847 56.1681 95.8823 56.1659C95.8798 56.1638 95.8769 56.1622 95.8739 56.1612C95.8708 56.1602 95.8676 56.1599 95.8644 56.1603C95.8613 56.1607 95.8582 56.1617 95.8554 56.1633C95.8526 56.165 95.8501 56.1672 95.8481 56.1698C95.8461 56.1725 95.8447 56.1755 95.8438 56.1788C95.8429 56.1821 95.8426 56.1855 95.8429 56.1889C95.8433 56.1923 95.8442 56.1956 95.8457 56.1986C96.2489 57.1818 96.6986 58.1423 97.193 59.0765C97.0924 58.9355 96.9956 58.7862 96.8872 58.6618C96.6433 58.3508 96.4032 58.0398 96.1864 57.708C96.1516 57.6583 96.0703 57.708 96.1051 57.7578C96.3142 58.0729 96.4923 58.4005 96.6897 58.7323C96.8872 59.064 97.0769 59.3792 97.2898 59.6985C97.5028 60.0178 97.7118 60.2956 97.9325 60.5817C97.9561 60.6194 97.982 60.6554 98.0099 60.6896C98.3119 61.2825 98.6062 61.8755 98.9198 62.4602C100.019 64.5046 102.516 68.6224 102.551 68.6099C102.803 68.4618 103.043 68.2912 103.268 68.0999C103.283 68.0626 103.283 68.0211 103.237 68.0294Z" fill="#263238"/>
<path d="M81.7834 48.3484C71.245 54.212 61.3493 61.3445 59.4909 66.2999C58.3295 69.4183 59.7658 75.0704 60.9389 78.4666C61.5119 80.1254 76.0884 73.6812 74.8765 72.3086C71.88 68.9166 71.3921 67.5564 71.7212 66.8681C71.9264 66.4285 83.4598 55.7049 86.6965 50.8697C91.2107 44.1353 86.3945 45.7816 81.7834 48.3484Z" fill="#AD6359"/>
<path d="M80.3859 87.6228C79.0076 88.4521 77.3893 84.6412 77.3893 84.6412C77.3388 85.3689 77.051 86.0544 76.5762 86.5778C75.7013 87.4569 74.0326 86.3704 74.0326 86.3704C73.8312 87.1124 73.4266 87.7725 72.8712 88.2655C71.9536 89.0161 70.1223 88.1826 70.1223 88.1826C69.5866 88.7552 68.8758 89.1013 68.1207 89.1571C66.0998 89.2234 64.3847 86.4741 63.2735 84.7407C62.1624 83.0074 60.5402 76.9655 60.1221 75.85L70.463 68.1328C70.463 68.1328 77.5016 74.4028 78.5353 76.642C79.4025 78.5288 82.4881 86.358 80.3859 87.6228Z" fill="#AD6359"/>
<path d="M77.4126 84.5867C76.9557 82.3516 75.9607 80.2284 75.0199 78.2048C74.9967 78.1592 74.9309 78.2048 74.9541 78.2379C75.9336 80.2491 76.4331 82.5879 77.339 84.6323C77.3465 84.6365 77.3549 84.6386 77.3634 84.6384C77.3719 84.6382 77.3801 84.6357 77.3875 84.6312C77.3948 84.6266 77.401 84.6201 77.4054 84.6124C77.4097 84.6046 77.4122 84.5958 77.4126 84.5867Z" fill="#263238"/>
<path d="M74.1454 86.2331C73.9902 85.7355 73.7755 85.2616 73.5066 84.8232C73.2472 84.3422 72.9839 83.8653 72.7129 83.3884C72.167 82.4429 71.6018 81.5099 71.0094 80.5935C70.9823 80.552 70.9204 80.5935 70.9436 80.6308C71.4856 81.5762 72.016 82.53 72.5193 83.4962C72.771 83.9814 73.0187 84.4707 73.2665 84.9559C73.4697 85.4334 73.7216 85.8854 74.0176 86.3036C74.0283 86.3174 74.0431 86.327 74.0595 86.3306C74.076 86.3342 74.0931 86.3316 74.108 86.3234C74.1229 86.3152 74.1347 86.3017 74.1415 86.2853C74.1483 86.2689 74.1497 86.2505 74.1454 86.2331Z" fill="#263238"/>
<path d="M70.0993 88.1573C69.9547 87.7072 69.7401 87.2866 69.4644 86.9132C69.205 86.4985 68.9533 86.059 68.6901 85.6319C68.1829 84.7735 67.6796 83.9151 67.2034 83.0401C67.1976 83.0336 67.1899 83.0293 67.1816 83.0279C67.1733 83.0264 67.1648 83.0279 67.1573 83.0322C67.1499 83.0364 67.1439 83.0431 67.1404 83.0513C67.1368 83.0594 67.1358 83.0686 67.1376 83.0774C67.6176 83.969 68.0861 84.8689 68.5739 85.7563C68.814 86.1709 69.054 86.6271 69.2979 87.0625C69.4837 87.4808 69.7381 87.86 70.049 88.1821C70.08 88.1821 70.1071 88.1573 70.0993 88.1573Z" fill="#263238"/>
<path d="M66.5605 57.1354L74.2766 65.2424C74.2766 65.2424 84.424 55.6177 87.3625 50.3761C90.301 45.1346 88.1368 44.6452 82.2636 47.6309C76.3905 50.6166 66.5605 57.1354 66.5605 57.1354Z" fill="#907ECF"/>
<path d="M66.5605 57.1354L74.2766 65.2424C74.2766 65.2424 84.424 55.6177 87.3625 50.3761C90.301 45.1346 88.1368 44.6452 82.2636 47.6309C76.3905 50.6166 66.5605 57.1354 66.5605 57.1354Z" fill="#455A64"/>
<path d="M88.6479 47.166C88.6223 47.3872 88.577 47.6052 88.5124 47.8171H81.9036L82.2636 47.6305C82.5889 47.4646 82.9024 47.3112 83.2044 47.166H88.6479ZM78.8102 49.5173L77.6952 50.1642H87.4786C87.6025 49.9402 87.7187 49.7204 87.8232 49.5173H78.8102ZM74.8612 51.8643L73.8043 52.4947H85.9649C86.1236 52.2749 86.2746 52.08 86.4217 51.8478L74.8612 51.8643ZM71.0787 54.2156L70.0682 54.8625H84.1181C84.2962 54.6468 84.4743 54.4478 84.6447 54.2156H71.0787ZM67.4317 56.5627L66.5605 57.1349L66.6302 57.2096H82.0855L82.6585 56.5627H67.4317ZM68.2486 58.9098L68.868 59.5608H79.9213L80.5292 58.9098H68.2486ZM70.4863 61.261L71.1019 61.9079H77.6526L78.2914 61.261H70.4863ZM72.7202 63.6081L73.3358 64.255H75.2987L75.9569 63.6081H72.7202Z" fill="#263238"/>
<path d="M75.8804 63.1229C72.3186 59.8801 69.6859 56.5087 69.0742 55.8618C69.0471 55.8287 69.0974 55.783 69.1245 55.8162C69.6975 56.488 73.271 60.0003 75.9385 63.0731C75.9694 63.1104 75.9152 63.1561 75.8804 63.1229Z" fill="#263238"/>
<path d="M82.7048 52.3454C82.3176 53.2328 81.9305 54.1161 81.6014 55.0284C81.6014 54.9661 81.6014 54.9081 81.6014 54.8459C81.6431 54.2877 81.722 53.7333 81.8376 53.1872C81.8376 53.125 81.764 53.0959 81.7485 53.1581C81.6324 53.7097 81.5278 54.2695 81.4465 54.8169C81.404 55.0864 81.3807 55.3559 81.3614 55.6255C81.3631 55.6586 81.3631 55.6919 81.3614 55.725C81.3592 55.7359 81.3592 55.7473 81.3614 55.7582C80.9742 56.9732 80.7497 58.2172 80.4283 59.4447C80.4268 59.4507 80.4264 59.4569 80.4271 59.4631C80.4278 59.4693 80.4297 59.4752 80.4326 59.4806C80.4355 59.486 80.4393 59.4907 80.4439 59.4945C80.4485 59.4983 80.4537 59.5011 80.4593 59.5027C80.4649 59.5044 80.4707 59.5048 80.4765 59.504C80.4822 59.5033 80.4878 59.5013 80.4928 59.4982C80.4978 59.4951 80.5023 59.491 80.5058 59.4861C80.5094 59.4812 80.512 59.4756 80.5135 59.4696C80.831 58.267 81.2878 57.1017 81.675 55.9282C82.0621 54.7547 82.3951 53.5562 82.7745 52.3744C82.7861 52.3371 82.7203 52.3039 82.7048 52.3454Z" fill="#263238"/>
<path d="M88.1326 51.3791C89.8284 51.8767 92.8598 49.1979 94.0948 46.9752C94.18 46.8218 94.0135 45.1755 93.9013 43.1643C93.8354 41.9203 93.789 40.5809 93.8316 39.3368C93.8316 39.0797 86.4756 40.9458 86.4756 40.9458C86.8385 42.5196 87.0205 44.135 87.0176 45.7561C87.0072 45.9264 86.9839 46.0956 86.9479 46.262C86.9455 46.2909 86.9455 46.3201 86.9479 46.3491C86.7543 47.3111 86.4949 50.8939 88.1326 51.3791Z" fill="#AD6359"/>
<path d="M93.3833 39.3496C92.973 41.423 91.5753 46.4821 87.6805 46.3992C87.4312 46.4006 87.1824 46.377 86.9372 46.3287C86.9345 46.2997 86.9345 46.2705 86.9372 46.2416C86.9731 46.0752 86.9965 45.9061 87.0069 45.7357C87.0094 44.1132 86.8274 42.4965 86.4648 40.9212C86.4648 40.9212 91.7921 39.5984 93.3833 39.3496Z" fill="#263238"/>
<path d="M86.0309 34.9746C86.0658 36.8863 84.823 38.4662 83.255 38.4953C81.687 38.5243 80.3901 37.0066 80.3552 35.0907C80.3204 33.1749 81.5631 31.5991 83.1311 31.566C84.6991 31.5328 85.9961 33.0588 86.0309 34.9746Z" fill="#907ECF"/>
<path d="M83.8623 39.0031C85.6068 38.9672 86.99 37.2118 86.9518 35.0823C86.9136 32.9528 85.4685 31.2556 83.7241 31.2915C81.9796 31.3274 80.5964 33.0828 80.6346 35.2123C80.6727 37.3418 82.1178 39.039 83.8623 39.0031Z" fill="#C7C7C7"/>
<path d="M93.456 28.9953C94.6601 31.5912 94.5439 39.7272 93.0031 41.813C90.7692 44.836 86.4988 45.8478 83.9436 42.8248C81.4696 39.8889 81.7987 29.2897 83.5796 27.3282C86.1968 24.4379 91.6674 25.1636 93.456 28.9953Z" fill="#AD6359"/>
<path d="M87.4706 36.0654C87.4706 36.0654 87.5093 36.0903 87.5093 36.1152C87.4861 36.6626 87.548 37.2929 88.0088 37.4795V37.5127C87.4435 37.4214 87.3699 36.5796 87.4706 36.0654Z" fill="#263238"/>
<path d="M87.9353 35.4936C88.7561 35.4355 88.8025 37.2062 88.0398 37.2601C87.2771 37.314 87.2423 35.5475 87.9353 35.4936Z" fill="#263238"/>
<path d="M84.6096 36.1689C84.6096 36.1689 84.567 36.198 84.5709 36.2187C84.6019 36.7661 84.5477 37.3964 84.0908 37.5954C84.0908 37.5954 84.0908 37.6286 84.0908 37.6245C84.6599 37.5208 84.718 36.6831 84.6096 36.1689Z" fill="#263238"/>
<path d="M84.1375 35.6091C83.3128 35.5676 83.2935 37.3383 84.0562 37.3757C84.8189 37.413 84.8266 35.6464 84.1375 35.6091Z" fill="#263238"/>
<path d="M88.6598 34.0752C88.4337 34.058 88.2087 34.0261 87.9861 33.9799C87.7444 33.9802 87.5091 33.8957 87.3164 33.7393C87.265 33.6784 87.2341 33.6009 87.2285 33.519C87.2229 33.4372 87.2429 33.3556 87.2854 33.2873C87.3884 33.1643 87.5202 33.0729 87.6672 33.0226C87.8142 32.9723 87.9711 32.9649 88.1216 33.0012C88.438 33.0222 88.7352 33.1703 88.954 33.4159C88.9954 33.4764 89.0207 33.5477 89.0272 33.6224C89.0337 33.697 89.0212 33.7722 88.9911 33.8398C88.9609 33.9075 88.9141 33.9651 88.8558 34.0066C88.7975 34.048 88.7297 34.0717 88.6598 34.0752Z" fill="#263238"/>
<path d="M83.3435 34.3445C83.572 34.2948 83.7733 34.2118 83.9939 34.1413C84.2325 34.1031 84.4528 33.9822 84.6211 33.7972C84.664 33.7282 84.6841 33.646 84.6785 33.5634C84.6729 33.4808 84.6418 33.4026 84.5902 33.341C84.4711 33.2356 84.3278 33.1665 84.1752 33.1409C84.0225 33.1154 83.8663 33.1344 83.7229 33.1959C83.4101 33.2658 83.1335 33.4598 82.9486 33.7391C82.9151 33.8066 82.8997 33.8826 82.904 33.9589C82.9083 34.0351 82.9323 34.1086 82.9731 34.1713C83.014 34.2339 83.0702 34.2832 83.1355 34.3138C83.2009 34.3444 83.2729 34.355 83.3435 34.3445Z" fill="#263238"/>
<path d="M88.4612 41.1324C88.3412 41.2609 88.2212 41.4434 88.0392 41.4641C87.8488 41.4659 87.6602 41.4249 87.4856 41.3439C87.4856 41.3439 87.4507 41.3439 87.4623 41.3729C87.5386 41.4783 87.64 41.5597 87.7558 41.6086C87.8716 41.6574 87.9976 41.672 88.1205 41.6507C88.2236 41.6179 88.3154 41.5531 88.3843 41.4646C88.4532 41.3761 88.4961 41.2677 88.5077 41.1531C88.5154 41.12 88.4767 41.1117 88.4612 41.1324Z" fill="#263238"/>
<path d="M87.8778 39.5076C87.7541 39.7284 87.5892 39.9193 87.3933 40.0685C87.1974 40.2176 86.9748 40.3217 86.7395 40.3743C86.5337 40.4221 86.3226 40.4388 86.1123 40.4241C86.0724 40.4284 86.0322 40.4284 85.9923 40.4241H85.8801C85.8526 40.4195 85.8273 40.4052 85.8083 40.3834C85.7894 40.3615 85.7778 40.3335 85.7755 40.3038C85.7736 40.2845 85.7736 40.2651 85.7755 40.2458V40.196C85.7562 39.7813 85.7755 39.1344 85.7755 39.1344C85.6361 39.2132 84.9122 39.5906 84.916 39.3708C84.9702 37.542 85.0283 35.5101 85.4426 33.7021C85.4426 33.6889 85.4475 33.6763 85.4562 33.6669C85.4649 33.6576 85.4767 33.6523 85.489 33.6523C85.5013 33.6523 85.5132 33.6576 85.5219 33.6669C85.5306 33.6763 85.5355 33.6889 85.5355 33.7021C85.5355 35.4603 85.2761 37.2103 85.2606 38.9768C85.5183 38.8382 85.7935 38.7404 86.0775 38.6866C86.1317 38.6866 86.0156 39.9306 86.0388 40.1131C86.3628 40.1385 86.6882 40.0936 86.9955 39.981C87.3029 39.8684 87.5859 39.6905 87.8275 39.4579C87.8662 39.4288 87.9088 39.462 87.8778 39.5076Z" fill="#263238"/>
<path d="M86.3408 40.1996C86.5643 40.4946 86.855 40.7231 87.1848 40.8631C87.3687 40.9257 87.5662 40.9257 87.7501 40.8631C88.1566 40.7345 88.1566 40.3323 88.0714 39.9922C88.0243 39.8106 87.958 39.6353 87.874 39.4697C87.4495 39.8833 86.9119 40.1392 86.3408 40.1996Z" fill="#263238"/>
<path d="M87.1846 40.8845C87.3685 40.9471 87.5659 40.9471 87.7498 40.8845C88.1563 40.7559 88.1563 40.3537 88.0712 40.0137C87.8531 40.0297 87.6466 40.1246 87.4855 40.2828C87.3244 40.441 87.2183 40.6532 87.1846 40.8845Z" fill="#FF98B9"/>
<path opacity="0.2" d="M94.2655 34.7671C93.77 34.6676 92.624 32.8306 92.1323 32.1007C91.6406 31.3709 91.447 27.5144 91.4199 26.6436C92.2925 27.2055 92.9985 28.0207 93.4564 28.9948C93.9906 30.1559 94.2655 32.4242 94.2655 34.7671Z" fill="#263238"/>
<path d="M85.168 29.6425C85.4549 29.9976 85.8216 30.2686 86.2335 30.4296C86.6454 30.5907 87.0889 30.6366 87.5219 30.563C87.9651 30.487 88.3825 30.2903 88.7344 29.9919C89.0862 29.6935 89.3606 29.3033 89.5313 28.8587C89.5313 28.8338 89.5777 28.8587 89.57 28.8587C89.4273 29.341 89.1644 29.7724 88.8096 30.1063C88.4548 30.4403 88.0216 30.6642 87.5568 30.7538C87.0963 30.8163 86.6286 30.748 86.2005 30.5559C85.7724 30.3637 85.399 30.0545 85.1177 29.659C85.0867 29.6508 85.1409 29.6093 85.168 29.6425Z" fill="#263238"/>
<path d="M87.7968 22.8247C89.2874 22.8537 90.6579 23.7287 91.2115 24.811C91.517 25.4272 91.6194 26.1359 91.5019 26.8222C91.5019 26.8512 91.4438 26.8471 91.4477 26.8222C91.4746 26.2146 91.3487 25.6105 91.0831 25.0729C90.8175 24.5353 90.4219 24.0839 89.9378 23.766C89.4083 23.3971 88.8061 23.1649 88.1786 23.0879C87.551 23.0109 86.9154 23.0912 86.3218 23.3223C85.7436 23.5372 85.2544 23.9628 84.9396 24.5249C84.9125 24.5829 84.8002 24.5249 84.8235 24.4834C85.2184 23.4674 86.4418 22.804 87.7968 22.8247Z" fill="#263238"/>
<path d="M79.155 26.3411C79.393 25.5502 79.8856 24.8756 80.5449 24.4378C81.4548 23.8282 82.4807 23.9111 83.5144 24.0231C83.5454 24.0231 83.5415 24.0728 83.5144 24.0687C82.6395 23.9816 81.749 23.9484 80.9476 24.3963C80.2835 24.7581 79.7579 25.3563 79.4609 26.0882C79.1759 26.8395 79.1532 27.6757 79.3971 28.4434C79.641 29.2112 80.1351 29.859 80.7889 30.2682C81.1707 30.494 81.5916 30.6337 82.0257 30.6786C82.4599 30.7236 82.898 30.6728 83.3131 30.5294C83.3441 30.5294 83.3673 30.5667 83.3363 30.5833C82.7751 30.804 82.1675 30.8526 81.5819 30.7236C80.9963 30.5947 80.4559 30.2933 80.0215 29.8534C79.587 29.4135 79.2758 28.8525 79.1227 28.2335C78.9697 27.6145 78.9809 26.962 79.155 26.3494V26.3411Z" fill="#263238"/>
<path d="M93.9603 30.5792C93.9603 30.5792 95.3463 27.7096 94.15 26.0675C93.4686 25.1386 91.2463 25.2879 91.2463 25.2879C90.6431 24.3468 89.7156 23.7009 88.6678 23.4923C86.8017 23.0776 84.5988 24.247 84.5988 24.247C84.5988 24.247 82.8217 23.1813 81.1763 24.2138C78.8805 25.6528 79.2057 29.4181 81.5403 30.6041C83.1818 31.4334 85.3847 29.8618 85.3847 29.8618C85.5977 29.8908 87.7928 31.2758 89.4228 29.1734C89.4228 29.1734 90.7739 30.4175 91.9703 29.5259C92.1611 29.8989 92.4543 30.2 92.8103 30.3884C93.1663 30.5768 93.5677 30.6434 93.9603 30.5792Z" fill="#263238"/>
<path d="M92.8837 35.7125C92.8837 35.7125 94.2039 32.8886 95.377 33.3572C96.5501 33.8257 95.799 37.7362 94.6027 38.4453C94.4541 38.5478 94.2876 38.6169 94.1134 38.6486C93.9392 38.6803 93.7607 38.6739 93.5889 38.6297C93.417 38.5855 93.2553 38.5045 93.1135 38.3916C92.9717 38.2786 92.8527 38.1361 92.7637 37.9725L92.8837 35.7125Z" fill="#AD6359"/>
<path d="M95.1523 34.4727C95.1717 34.4727 95.1794 34.4975 95.1523 34.51C94.3122 35.0366 93.9638 35.9987 93.7586 36.969C93.7975 36.8652 93.857 36.7717 93.9329 36.6949C94.0088 36.618 94.0993 36.5597 94.1983 36.5238C94.2972 36.488 94.4022 36.4755 94.5061 36.4872C94.61 36.4989 94.7102 36.5345 94.8 36.5917C94.8271 36.5917 94.8 36.6497 94.8 36.6456C94.6378 36.6147 94.4706 36.638 94.321 36.7121C94.1715 36.7863 94.0468 36.9078 93.9638 37.0603C93.8298 37.3234 93.7233 37.6015 93.6463 37.8896C93.6153 37.985 93.4643 37.9601 93.4837 37.8564C93.2785 36.6331 93.9289 34.7878 95.1523 34.4727Z" fill="#263238"/>
<path d="M90.0072 41.3734L92.4153 40.3408L94.3937 37.8403L94.0337 37.5127L92.1327 39.9178L89.833 40.9048L90.0072 41.3734Z" fill="#C7C7C7"/>
<path d="M90.27 40.9757C90.0571 40.2251 88.1058 40.4449 88.431 41.5811C88.7562 42.7174 90.5062 41.7138 90.27 40.9757Z" fill="#37474F"/>
<path d="M95.4158 33.2831C95.4158 33.2831 95.7759 29.1114 94.6918 26.7767C93.48 24.1767 88.2689 21.5891 84.5986 24.2472C84.5986 24.2472 90.4989 23.2851 93.1432 26.9177C94.2582 28.4479 94.1111 33.3577 94.1111 33.3577L95.4158 33.2831Z" fill="#C7C7C7"/>
<path d="M98.0297 35.5357C98.1012 33.4072 96.7456 31.6272 95.0019 31.5601C93.2583 31.4929 91.7868 33.1639 91.7154 35.2925C91.6439 37.421 92.9994 39.2009 94.7431 39.2681C96.4867 39.3353 97.9582 37.6642 98.0297 35.5357Z" fill="#C7C7C7"/>
<path d="M92.6353 35.2072C92.5695 37.1189 93.7968 38.7195 95.3454 38.7776C96.8941 38.8357 98.2375 37.3387 98.2995 35.427C98.3614 33.5153 97.138 31.9146 95.5894 31.8524C94.0407 31.7902 92.6973 33.2955 92.6353 35.2072Z" fill="#907ECF"/>
<path d="M94.9774 47.5523C94.1817 48.6128 93.3312 49.6249 92.4299 50.5836C91.5588 51.4544 90.4941 52.2423 89.3327 52.3667C88.1712 52.4911 87.0097 52.2506 86.58 50.7411C86.2315 49.5427 86.278 48.307 86.4638 46.7644C86.4638 46.7523 86.4593 46.7407 86.4514 46.7321C86.4434 46.7236 86.4325 46.7188 86.4212 46.7188C86.4099 46.7188 86.3991 46.7236 86.3911 46.7321C86.3831 46.7407 86.3786 46.7523 86.3786 46.7644C86.1309 48.7465 85.8831 51.8193 87.5672 52.4869C89.4565 53.2375 91.2917 52.1801 92.6003 50.7785C93.5131 49.8152 94.3257 48.7488 95.0239 47.5979C95.0239 47.5605 94.9929 47.5191 94.9774 47.5523Z" fill="#263238"/>
<path d="M104.679 92.9512H70.249V94.6057H104.679V92.9512Z" fill="#C7C7C7"/>
<path d="M97.3074 92.9512L98.4883 94.6057H70.249V92.9512H97.3074Z" fill="#A6A6A6"/>
<path d="M95.8365 94.6053H62.2816L59.4902 70.1973H93.0451L95.8365 94.6053Z" fill="#C7C7C7"/>
<path d="M79.7082 82.4015C79.7134 82.6872 79.6651 82.9711 79.5664 83.2366C79.4676 83.502 79.3203 83.7437 79.1331 83.9473C78.9459 84.1509 78.7226 84.3123 78.4763 84.4222C78.23 84.532 77.9656 84.588 77.6988 84.5868C77.1551 84.5848 76.6336 84.3551 76.2458 83.9467C75.8581 83.5384 75.6348 82.9838 75.6237 82.4015C75.6169 82.1155 75.6639 81.8309 75.7618 81.5647C75.8597 81.2985 76.0066 81.0562 76.1936 80.8519C76.3807 80.6477 76.6041 80.4858 76.8507 80.3759C77.0973 80.2659 77.3621 80.2102 77.6292 80.212C78.1737 80.2151 78.6956 80.4456 79.0838 80.8545C79.4721 81.2634 79.6961 81.8184 79.7082 82.4015Z" fill="white"/>
</svg>
